<svg xmlns="http://www.w3.org/2000/svg"><defs><font id="PTSerif-Regular" horiz-adv-x="564"><font-face ascent="1018" descent="276"/><glyph horiz-adv-x="243"/><glyph horiz-adv-x="243"/><glyph unicode="!" horiz-adv-x="327" d="M174 218l-32 176v296q22 11 45 11t45-11V394l-32-176zM119 57q0 30 19 48t49 18q31 0 50-18t19-48q0-29-19-47T187-8q-30 0-49 18t-19 47z"/><glyph unicode="&quot;" horiz-adv-x="388" d="M211 723q7 17 20.5 28t35.5 11q41 0 55-39l-42-218h-26zm-145 0q7 17 20.5 28t35.5 11q41 0 55-39l-42-218h-26z"/><glyph unicode="#" horiz-adv-x="533" d="M308 233H166L124 58H71l42 175H33l14 46h76l36 150H83l14 46h73l40 167h52l-39-167h142l40 167h52l-40-167h80l-17-46h-74l-36-150h77l-17-46h-70L318 58h-52zm-132 46h142l36 150H212z"/><glyph unicode="$" horiz-adv-x="533" d="M239-12q-30 0-58 4.5t-51.5 12Q106 12 87.5 21T59 39q1 10 2 26.5T64 99q2 17 4.5 33t6.5 25h25l60-97q13-8 34-13.5t45-6.5v285q-4 0-6 2l-32 15q-29 13-56 29t-47.5 38.5Q77 432 64.5 462T52 533q0 36 14 67t38.5 55q24.5 24 59 38.5T239 711v49h52v-49q48-3 83.5-13t61.5-22q-1-32-8.5-53T412 586h-26l-50 68q-11 2-21 3t-24 2V392l29-13q31-15 60.5-31.5t52.5-39q23-22.5 37-54.5t14-79q0-73-51-123T291-9v-61h-52zm155 180q0 52-30 82.5T291 301V45q45 12 74 43.5t29 79.5zM142 551q0-27 7.5-47.5T170 467q13-16 30.5-28.5T239 415v244q-45-5-71-35.5T142 551z"/><glyph unicode="%" horiz-adv-x="807" d="M675 710l35-31L125-7 91 25zM52 542q0 39 13 70t36.5 53.5q23.5 22.5 55 34.5t69.5 12q38 0 70-10.5t55-31.5q23-21 36-53t13-75q0-39-13-70.5T351 418q-23-22-55-34t-70-12q-38 0-69.5 10.5t-55 31.5Q78 435 65 467t-13 75zm84 0q0-60 23-96.5t67-36.5q90 0 90 133 0 132-90 132t-90-132zm269-384q0 39 13 70t36.5 53.5q23.5 22.5 55 34.5t69.5 12q38 0 70-10.5t55-31.5q23-21 36-53t13-75q0-39-13-70.5T704 34q-23-22-55-34t-70-12q-38 0-69.5 10.5t-55 31.5Q431 51 418 83t-13 75zm84 0q0-60 23-96.5T579 25q90 0 90 133 0 132-90 132t-90-132z"/><glyph unicode="&amp;" horiz-adv-x="869" d="M540 123q-30 27-65.5 63.5T406 261q-33 38-61 73t-44 58q-43-42-62-81.5T220 218q0-38 12.5-70.5T267 91q22-24 53-37.5T387 40q45 0 84 20.5t69 62.5zM282 583q0-18 7-38.5t18.5-40.5q11.5-20 25-39t26.5-34q36 30 58.5 69.5T435 594q-2 32-20 54t-57 22q-22 0-36.5-7.5t-23.5-20q-9-12.5-12.5-28T282 583zM697 0q-21 14-53 34.5T574 92q-14-19-35-37.5T489.5 21Q461 6 426-3t-76-9q-53 0-96 16t-73 43q-30 27-46.5 62T118 182q0 49 18 88.5t43 69q25 29.5 52 50t45 33.5q-29 32-49 75t-20 80q0 25 10 49.5t29.5 43q19.5 18.5 48 30T359 712q66 0 106.5-28.5T506 601q0-33-11.5-61.5T465 487q-18-24-40.5-44T380 406q41-51 95-105t114-108q8 11 20 37t22.5 61q10.5 35 17 76.5T652 450q-30 6-59 24v26h203v-26q-27-17-66-24-9-59-23-107t-29-84.5q-15-36.5-28.5-62T628 159q38-31 74.5-57.5T784 49l55-24V0z"/><glyph unicode="'" horiz-adv-x="243" d="M66 723q7 17 20.5 28t35.5 11q41 0 55-39l-42-218h-26z"/><glyph unicode="(" horiz-adv-x="343" d="M300-210q-51 37-95 81t-76.5 99Q96 25 77.5 92T59 243q0 82 19 148t52 121q33 55 77.5 101.5T303 702l21-18q-40-43-73-88t-56.5-98Q171 445 158 382.5T145 243q0-75 14-138.5t38.5-117Q222-66 254.5-110t69.5-80z"/><glyph unicode=")" horiz-adv-x="343" d="M19-190q37 36 69.5 81.5T145-7.5Q169 48 183 113t14 140q0 77-13 138t-36 112q-23 51-56 95t-73 86l21 18q51-39 95.5-83t77.5-98q33-54 52-120t19-148q0-83-18-151.5t-50-125q-32-56.5-76.5-103T43-210z"/><glyph unicode="*" horiz-adv-x="465" d="M62 616q-3 7-1 17.5t8 21Q75 665 83.5 673t17.5 10l100-87q0-8-3-15t-11-11zm38-172q-8 1-16 8.5t-14 18Q64 481 61 492t0 19l125 43q15-8 15-24zm171-55q-5-6-15.5-9t-22.5-3q-12 0-22.5 3t-15.5 8l23 130q16 8 32 0zm131 122q4-7 1.5-18t-8.5-21.5q-6-10.5-14-18.5t-17-9l-98 84q0 9 3.5 14.5T279 553zm-36 172q8-1 16-8.5t13.5-18q5.5-10.5 8-21.5t-.5-20l-124-47q-14 10-14 26zm-172 54q4 6 14.5 9.5T231 750q12 0 23-3.5t16-9.5l-22-130q-15-10-31 0z"/><glyph unicode="+" horiz-adv-x="533" d="M42 370h198v210h53V370h198v-53H293V102h-53v215H42z"/><glyph unicode="," horiz-adv-x="283" d="M51-149q19 7 36 21.5T116.5-95q12.5 18 19 39.5T140-13Q128-2 108 9T73 25q-5 19-.5 37T86 94q9 14 20.5 22.5T129 126q35-5 61.5-31T217 17q0-28-10-58.5T178-99q-19-27-46-48.5T71-179z"/><glyph unicode="-" horiz-adv-x="425" d="M71 313h282v-63H71z"/><glyph unicode="." horiz-adv-x="279" d="M71 57q0 30 19 48t49 18q31 0 50-18t19-48q0-29-19-47T139-8q-30 0-49 18T71 57z"/><glyph unicode="/" horiz-adv-x="344" d="M327 712l42-18L4-130l-41 19z"/><glyph unicode="0" horiz-adv-x="533" d="M35 350q0 180 60 271t172 91q121 0 177-89.5T500 350q0-180-60.5-271T261-12q-61 0-104 24.5t-70 71Q60 130 47.5 197T35 350zm96 0q0-72 7-131t22.5-101.5Q176 75 200.5 52T260 29q79 0 111.5 78T404 350q0 72-6 131t-22 101q-16 42-42.5 65T267 670q-75 0-105.5-77.5T131 350z"/><glyph unicode="1" horiz-adv-x="533" d="M425 0H133v29q25 11 50.5 19.5T235 63v491l4 59q-28-11-58-15.5t-62-3.5l-5 24q46 15 95 37.5t91 56.5h25V63q25-6 50-14.5T425 29z"/><glyph unicode="2" horiz-adv-x="533" d="M133 505h-25q-11 29-22.5 68T66 647q35 30 84 47.5T256 712q50 0 86-14t59.5-38q23.5-24 34.5-55.5t11-65.5q0-56-26-115t-64.5-114.5Q318 254 273 205t-83-86l-42-39v-4l56 6h172l49 112h25q2-22 4-48t3.5-52.5q1.5-26.5 2.5-51T461 0H48v32q22 23 53.5 56t65.5 73q34 40 67.5 85t59.5 91.5q26 46.5 42.5 92.5t16.5 88q0 29-7.5 55T323 618.5Q308 638 286.5 649T237 660q-21 0-37-3t-35-9z"/><glyph unicode="3" horiz-adv-x="533" d="M256 35q28 0 52 12.5t42 34q18 21.5 28.5 49.5t10.5 59q0 37-11.5 65T346 301.5q-20 18.5-46.5 28T242 339h-65v27l168 225 34 35v4l-54-6H156l-39-102H92q-4 21-7.5 45T78 614.5Q75 638 73 660t-2 40h391v-31L295 446l-43-44v-2l34 7q47-2 84-18t62.5-42.5q25.5-26.5 39-62T485 207q0-50-20-90.5t-53.5-69q-33.5-28.5-77-44T243-12q-23 0-49 3.5T143 2q-25 7-46.5 16T60 39l28 90h20q6-7 16.5-18t22-23Q158 76 169 64t19-21q10-2 26-5t42-3z"/><glyph unicode="4" horiz-adv-x="533" d="M477 0H217v29q49 17 92 24v140H4v23l370 496h27V245h127v-52H401V53q39-8 76-24zM309 502l11 72h-3l-39-72-168-231-40-33 71 7h168z"/><glyph unicode="5" horiz-adv-x="533" d="M431 755h25q-1-15-2.5-33.5t-4.5-37q-3-18.5-6-35.5t-7-28H190l-24-193h65q50 0 91.5-13.5t71-40q29.5-26.5 46-64.5t16.5-87q0-58-20-102t-53-73.5Q350 18 308 3t-87-15q-20 0-43 3.5T132.5 2Q110 9 90 18.5T56 39l29 90h20q6-7 15-18t18.5-23l19-24Q167 52 175 43q10-2 18.5-5t26.5-3q33 0 60.5 13T328 83.5q20 22.5 31 52.5t11 65q0 40-15 69.5t-41 48Q288 337 253.5 346t-72.5 8l-71-1 40 347h238z"/><glyph unicode="6" horiz-adv-x="533" d="M502 211q0-46-16-86.5t-45-71q-29-30.5-70-48T280-12q-56 0-99 19.5T108.5 62Q79 97 64 145T49 250q0 94 31 172.5t82.5 139Q214 622 280.5 662T419 718l11-30q-53-19-100.5-51.5t-85-76.5Q207 516 182 461.5T151 344q16 27 57 49.5t95 22.5q43 0 80-14t63-40q26-26 41-64t15-87zm-96-8q0 71-34.5 116T275 364q-47 0-80.5-23.5T147 288q-2-14-2-33v-30q0-32 8.5-65.5t26-61.5q17.5-28 44-46T285 34q32 0 55 14.5T377.5 87q14.5 24 21.5 54.5t7 61.5z"/><glyph unicode="7" horiz-adv-x="533" d="M111 521H86q-4 21-8 45t-7 48q-3 24-4.5 46T65 700h414v-29q-50-89-83-164t-56.5-151.5Q316 279 299 193.5T265 0H165q37 146 92 290t127 290l30 48-52-5H150z"/><glyph unicode="8" horiz-adv-x="533" d="M49 157q0 34 12 64.5t33.5 55q21.5 24.5 51 43.5t64.5 31q-28 15-52.5 33T115 425q-18 23-28.5 50.5T76 537q0 39 14 71t39.5 55q25.5 23 62 36t81.5 13q88 0 137-44.5T459 553q0-58-38-101.5T322 380q35-18 65-40t51.5-48q21.5-26 34-56.5T485 170q0-37-14.5-70t-43-58q-28.5-25-70-39.5T262-12q-55 0-95 14t-66.5 37.5Q74 63 61.5 93.5T49 157zm348-4q0 34-13.5 61.5t-36 49Q325 285 295.5 303T235 336q-29-17-48-38t-30.5-43.5Q145 232 140 210t-5-41q0-24 7.5-48.5T166 77q16-19 41.5-31T270 34q31 0 55 10.5T365 72q16 17 24 38.5t8 42.5zM162 550q0-31 11.5-54t30.5-41.5q19-18.5 43.5-33.5t50.5-28q42 34 59 68t17 75q0 62-27.5 95.5T271 665q-27 0-47-10t-34-26q-14-16-21-36.5t-7-42.5z"/><glyph unicode="9" horiz-adv-x="533" d="M47 487q0 49 14.5 90t43 71q28.5 30 70 47t95.5 17q58 0 100.5-19.5T441 638q28-35 41-85.5T495 441q0-93-27-172t-73.5-138.5Q348 71 284.5 34T148-12l-18 29q59 16 104.5 47t78 73.5q32.5 42.5 52.5 94T393 340q-23-24-54.5-40.5T253 283q-45 0-83 13.5T105 336q-27 26-42.5 64T47 487zm96 1q0-29 9-56.5t26-49q17-21.5 41-34.5t54-13q48 0 79.5 16.5T399 393q2 13 2 32.5V456q0 36-7.5 73.5T370 597q-16 30-42 49t-62 19q-60 0-91.5-47.5T143 488z"/><glyph unicode=":" horiz-adv-x="327" d="M119 442q0 30 19 48t49 18q31 0 50-18t19-48q0-29-19-47t-50-18q-30 0-49 18t-19 47zm0-385q0 30 19 48t49 18q31 0 50-18t19-48q0-29-19-47T187-8q-30 0-49 18t-19 47z"/><glyph unicode=";" horiz-adv-x="332" d="M124 442q0 30 19 48t49 18q31 0 50-18t19-48q0-29-19-47t-50-18q-30 0-49 18t-19 47zm-20-591q19 7 36 21.5T169.5-95q12.5 18 19 39.5T193-13Q181-2 161 9t-35 16q-5 19-.5 37T139 94q9 14 20.5 22.5T182 126q35-5 61.5-31T270 17q0-28-10-58.5T231-99q-19-27-46-48.5T124-179z"/><glyph unicode="&lt;" horiz-adv-x="533" d="M44 324v31l385 235 25-44-250-151-86-40 85-31 265-156-40-65z"/><glyph unicode="=" horiz-adv-x="533" d="M42 450h450v-53H42zm0-161h450v-53H42z"/><glyph unicode="&gt;" horiz-adv-x="533" d="M490 369v-31L105 103l-24 44 250 151 86 40-85 31L67 525l39 65z"/><glyph unicode="?" horiz-adv-x="473" d="M127 519h-25q-8 27-18 69.5T70 670q38 23 81.5 32.5T258 712q45 0 78.5-12.5t56-34q22.5-21.5 34-51.5t11.5-65q0-45-16.5-78.5t-41-60.5Q356 383 327 359.5T273 310q-25-26-41.5-57T215 180h-20q-7 29-7 57 0 36 11.5 63.5T228 351q17 23 37 43.5t37 42q17 21.5 28.5 46T342 539q0 22-6.5 43.5t-20 39Q302 639 281 649.5T230 660q-32 0-52-5t-28-13zm16-462q0 30 19 48t49 18q31 0 50-18t19-48q0-29-19-47T211-8q-30 0-49 18t-19 47z"/><glyph unicode="@" horiz-adv-x="1064" d="M669 474q37 17 75 16l-51-286q-6-33-8.5-60t0-46.5q2.5-19.5 11-30T721 57q33 0 68 18.5t64.5 53.5q29.5 35 48.5 85t19 112q0 76-29 138t-79.5 105.5q-50.5 43.5-118 67T550 660q-92 0-165.5-32.5t-125.5-89q-52-56.5-80-133T151 242q0-89 29-157.5t81.5-116q52.5-47.5 125-72T546-128q29 0 66 7t67 21l16-44q-35-20-77-28t-93-8q-86 0-164 26T223.5-76Q164-24 129 54T94 236q0 109 36 197t98.5 150Q291 645 375 678.5T555 712q90 0 167.5-26.5t134.5-76q57-49.5 89-121T978 326q0-65-22.5-123t-61-102Q856 57 806 31T701 5q-30 0-51 9.5t-32 31Q607 67 606.5 101t10.5 82h-4q-11-32-30.5-63.5t-44.5-57Q513 37 484.5 21T427 5q-60 0-92.5 41.5T302 157q0 64 21.5 125t58 109q36.5 48 84.5 77t101 29q36 0 57-6t45-17zm-17-48q-16 10-32.5 15t-42.5 5q-38 0-72-26.5T446 352q-25-41-39.5-89.5T392 169q0-48 15-75t57-27q19 0 41 18.5t43.5 48.5q21.5 30 42 67.5T627 277z"/><glyph unicode="A" horiz-adv-x="683" d="M222 0H0v29q36 16 72 24l253 659h29L607 53q20-4 39.5-9T683 29V0H427v29q20 8 41 14t41 10l-68 183H202L136 53q42-6 86-24zm0 288h202l-79 212-19 86h-2l-25-88z"/><glyph unicode="B" horiz-adv-x="615" d="M29 0v29q40 19 82 24v593q-20 4-41 10.5T29 671v29h106q19 0 36.5 1t36.5 2q19 1 41 2t50 1q40 0 81.5-6.5t75-24.5q33.5-18 54.5-50.5t21-84.5q0-26-8-52t-24.5-48.5Q482 417 457 400t-59-25v-4q30-5 59.5-17t52.5-32.5q23-20.5 37.5-50.5t14.5-72q0-54-24-93t-62.5-64Q437 17 388 5.5T289-6q-35 0-79 3t-85 3zm267 46q36 0 67.5 11t54 30.5q22.5 19.5 35.5 47t13 59.5q0 40-15.5 66.5t-42 42Q382 318 347.5 324t-71.5 6h-75V54q14-4 33.5-6t61.5-2zm-45 336q17 0 40.5 1.5T330 387q46 16 75.5 51.5T435 522q0 66-39.5 99T290 654q-31 0-53-1t-36-3V382z"/><glyph unicode="C" horiz-adv-x="644" d="M547 182h26q5-28 9-70.5t2-82.5q-15-12-36-19.5T503.5-3q-23.5-5-48-7T409-12q-84 0-150 21.5T147.5 75q-45.5 44-70 112.5T53 350q0 98 27 166.5t73 112Q199 672 260 692t128 20q66 0 111-8.5t79-25.5q0-16-1-37.5t-3-45.5q-2-24-5-47t-6-42h-26l-52 144q-11 6-36.5 8t-50.5 2q-50 0-94.5-18.5t-78-57Q192 546 172 487.5T152 350q0-71 18-128.5t52-98q34-40.5 83-62T416 40q33 0 55 5t29 13z"/><glyph unicode="D" horiz-adv-x="708" d="M29 0v29q35 16 82 24v593q-23 5-44 11.5T29 671v29h102q17 0 40 1t47.5 2.5q24.5 1.5 47 3T303 708q170 0 261.5-91T656 359q0-79-22.5-146.5T565 96q-46-49-116.5-77T282-9q-15 0-34 1.5t-40 3q-21 1.5-42.5 3T125 0zm260 656q-26 0-50-.5t-38-3.5V46q5-1 18-1.5t28-1q15-.5 28.5-.5H295q69 0 117 26t78.5 69.5Q521 182 535 239t14 120q0 49-13.5 101.5t-44 96Q461 600 411 628t-122 28z"/><glyph unicode="E" horiz-adv-x="582" d="M503 700q-1-40-3.5-80.5T492 538h-26l-41 110H207V383h163l39 74h25q6-99 0-202h-25l-39 76H207V52h230l49 120h25q7-42 10-85t1-87H29v29q35 16 82 24v593q-20 4-41 10.5T29 671v29z"/><glyph unicode="F" horiz-adv-x="544" d="M197 53q44-6 86-24V0H29v29q17 8 35 14t37 10v593q-22 5-40 11.5T29 671v29h469q-1-39-3.5-80t-7.5-82h-26l-41 110H197V364h178l36 63h24q5-45 4.5-90.5T435 245h-24l-36 67H197z"/><glyph unicode="G" horiz-adv-x="688" d="M609 48q-19-11-44.5-21.5t-54-19q-28.5-8.5-57-14T400-12q-80 0-144 21.5t-109 66Q102 120 77.5 188T53 350q0 98 28.5 167t76 112.5q47.5 43.5 108 63T389 712q66 0 111.5-8.5T580 678q0-15-1-37t-3-46q-2-24-5-47.5t-6-41.5h-26l-52 144q-11 6-37 8t-51 2q-50 0-95-18.5t-78.5-57Q192 546 172 487.5T152 350q0-71 19.5-128t54-97.5Q260 84 306.5 62T407 40q20 0 39 4t35 9.5Q497 59 507.5 65T522 75v202q-26 2-49.5 9T426 301v29h245v-29q-10-7-24-13t-38-11z"/><glyph unicode="H" horiz-adv-x="728" d="M282 0H29v29q40 16 82 24v593q-47 7-82 25v29h253v-29q-17-9-36-15t-39-10V385h314v261q-21 5-39.5 11T446 671v29h253v-29q-18-10-39.5-15.5T617 646V53q23-4 44-10t38-14V0H446v29q36 16 75 24v280H207V53q20-4 39-10t36-14z"/><glyph unicode="I" horiz-adv-x="352" d="M304 0H48v29q39 18 80 24v593q-20 4-40 10.5T48 671v29h256v-29q-18-8-39-14.5T224 646V53q21-4 42-10t38-14z"/><glyph unicode="J" horiz-adv-x="341" d="M39 700h254v-29q-18-8-37-14.5T217 646V86q0-70-16-115t-39.5-72.5Q138-129 111.5-142T63-160l-11 15q15 13 27.5 29.5t22 41.5Q111-49 116-13t5 88v571q-22 5-43 11t-39 14z"/><glyph unicode="K" horiz-adv-x="646" d="M382 700h221v-29q-20-9-39-15t-37-10L326 380q25-33 57.5-74t68-84.5q35.5-43.5 73-88T598 49l48-24V0H521l-34 24q-59 69-117.5 149T256 335h-49V53q46-8 75-24V0H29v29q40 16 82 24v593q-45 6-82 25v29h253v-29q-16-7-35-13.5T207 646V369l60 14 187 263q-20 5-38 11t-34 14z"/><glyph unicode="L" horiz-adv-x="549" d="M29 700h274v-29q-24-9-48-15.5t-48-9.5V52h230l59 161h26q3-21 5.5-48.5t4-57Q533 78 533 50t-1-50H29v29q24 11 44 16t38 8v593q-23 4-44 10.5T29 671z"/><glyph unicode="M" horiz-adv-x="867" d="M837 0H589v29q20 8 40 13.5T670 53v450l4 117h-8l-33-107L428 0h-26L207 513l-36 117h-9l1-127V53q19-4 38-10t38-14V0H30v29q19 8 39.5 14.5T111 54v592q-21 4-41.5 10.5T29 671v29h205l174-457 34-103h1l34 105 180 455h181v-29q-18-8-37-14.5T762 646V52q21-4 39.5-9.5T837 29z"/><glyph unicode="N" horiz-adv-x="732" d="M487 700h216v-29q-42-28-82-40V-12h-57L201 539l-39 78h-3l9-78V64q41-11 77-35V0H29v29q18 11 38.5 19.5T111 64v573q-20 8-39.5 17T35 672v28h169l315-475 46-86h4l-5 86v406q-21 9-40.5 19T487 671z"/><glyph unicode="O" horiz-adv-x="740" d="M53 350q0 78 21.5 144.5t62 115Q177 658 236 685t134 27q75 0 134-27t99.5-75.5q40.5-48.5 62-115T687 350q0-78-21.5-144.5t-62-115Q563 42 504 15T370-12q-75 0-134 27t-99.5 75.5q-40.5 48.5-62 115T53 350zm107 0q0-64 13.5-120.5T214 131q27-42 68-66.5T379 40q51 0 89 24.5t62.5 66.5q24.5 42 37 98.5T580 350q0 64-13 120.5T527 569q-27 42-68 66.5T362 660q-55 0-93.5-24.5T206 569q-24-42-35-98.5T160 350z"/><glyph unicode="P" horiz-adv-x="596" d="M207 53q27-3 51-9.5T303 29V0H29v29q20 10 41 15t41 9v593q-23 4-43 10.5T29 671v29h90q40 0 87 4t90 4q49 0 96-10.5t83.5-35.5q36.5-25 59-66.5T557 492q0-59-23-101t-61.5-69Q434 295 385 282.5T284 270h-15.5q-10.5 0-22.5.5t-23 1.5q-11 1-16 2zm68 603q-24 0-39-1t-29-4V327q5-2 14.5-2.5t20-1.5q10.5-1 20.5-1h16q35 0 66 9.5t54.5 30.5q23.5 21 37.5 53t14 77q0 82-46.5 123T275 656z"/><glyph unicode="Q" horiz-adv-x="740" d="M760-115q-40-36-82-61.5T588-201q-41 0-86 15t-96 36q-51 21-108.5 44T173-66l30 20q22 3 43 3 50 0 98.5-12T442-81q49-14 99-26t102-12q27 0 55 4t57 14zM53 350q0 78 21.5 144.5t62 115Q177 658 236 685t134 27q75 0 134-27t99.5-75.5q40.5-48.5 62-115T687 350q0-78-21.5-144.5t-62-115Q563 42 504 15T370-12q-75 0-134 27t-99.5 75.5q-40.5 48.5-62 115T53 350zm107 0q0-64 13.5-120.5T214 131q27-42 68-66.5T379 40q51 0 89 24.5t62.5 66.5q24.5 42 37 98.5T580 350q0 64-13 120.5T527 569q-27 42-68 66.5T362 660q-55 0-93.5-24.5T206 569q-24-42-35-98.5T160 350z"/><glyph unicode="R" horiz-adv-x="637" d="M207 53q23-5 44-10.5T292 29V0H29v29q22 10 42 15t40 9v593q-26 5-46 11.5T29 671v29h88q40 0 87.5 4t92.5 4q49 0 91.5-11t73.5-35q31-24 48.5-61t17.5-89q0-73-38.5-121T385 322q43-68 90-135t98-133l54-29V0H506l-38 28q-28 35-51 68.5t-43 68q-20 34.5-37.5 70T301 310h-94zm68 603q-24 0-39.5-1t-28.5-4V352h72q69 0 109.5 44T429 512q0 74-43 109t-111 35z"/><glyph unicode="S" horiz-adv-x="536" d="M150 69q12-12 31-20.5t57-8.5q32 0 60 8.5t48.5 25Q367 90 379 113.5t12 53.5q0 40-24.5 67t-61 48Q269 303 226 323t-79.5 47.5q-36.5 27.5-61 66T61 533q0 42 15 75t42.5 56q27.5 23 65.5 35.5t85 12.5q61 0 111.5-9.5T460 679q0-17-2.5-39.5t-6-46.5q-3.5-24-7.5-46.5t-8-39.5h-26l-40 137q-18 8-45.5 12t-58.5 4q-51 0-82-28.5T153 552q0-41 24.5-69t61.5-50q37-22 79.5-42.5T398 343q37-27 61.5-64t24.5-92q0-45-16.5-82T420 42q-31-26-76-40T242-12q-63 0-113 15T58 35q1 17 3.5 41t6 49.5Q71 151 75 175t8 41h26z"/><glyph unicode="T" horiz-adv-x="619" d="M450 0H169v29q22 8 44.5 14T262 53v595H109L56 505H31q-3 20-5 45.5t-3.5 52Q21 629 20 654.5T19 700h581q0-20-1-45t-2.5-51.5q-1.5-26.5-3-52T589 505h-26l-52 143H358V53q26-5 48.5-10T450 29z"/><glyph unicode="U" horiz-adv-x="672" d="M10 700h254v-29q-19-8-38-14t-38-11V237q0-53 11.5-88.5t33.5-57q22-21.5 54.5-31T361 51q79 0 123 43.5T528 238v399q-23 8-43 16.5T449 671v29h213v-29q-19-11-38.5-20T584 637V236q0-64-17-110t-47.5-76q-30.5-30-74-44.5T349-9Q224-9 158 47.5T92 221v425q-41 6-82 25z"/><glyph unicode="V" horiz-adv-x="684" d="M545 646q-24 5-45 11.5T459 671v29h225v-29q-29-16-72-25L386 0l-55-12L76 646q-20 5-39 11.5T0 671v29h265v-29q-17-7-38-13.5T183 646l171-457 21-80h2l20 82z"/><glyph unicode="W" horiz-adv-x="934" d="M796 646q-21 3-42 9.5T710 671v29h224v-29q-34-15-72-25L695 0l-62-12-161 544L314 0l-61-12L76 646q-20 5-39 11T0 671v29h260v-29q-19-7-39-13.5T178 646l99-403 22-130h2l35 132 135 455h34l145-455 29-130h2l23 132z"/><glyph unicode="X" horiz-adv-x="670" d="M395 700h230v-29q-17-7-36-13.5T550 646L374 375 579 53q48-8 82-24V0H395v29q36 18 76 24L313 304 161 52q21-3 41-7.5T241 29V0H10v29q19 10 37.5 15T84 53l196 299L92 646q-20 6-39.5 12T13 671v29h265v-29q-15-6-33.5-12T202 646l140-226 136 226q-41 9-83 25z"/><glyph unicode="Y" horiz-adv-x="644" d="M424 700h220v-29q-38-19-76-25L379 298V53q39-5 76-24V0H201v29q36 18 82 24v244L81 646q-23 4-42.5 10.5T0 671v29h265v-29q-15-6-34-12.5T188 646l164-294 154 294q-23 5-43.5 11.5T424 671z"/><glyph unicode="Z" horiz-adv-x="610" d="M533 192h26q3-20 5.5-45t4-51q1.5-26 2-51T570 0H39v51l416 597H147L86 508H61q-3 21-5.5 46t-4 51q-1.5 26-2 50.5T49 700h511v-52L146 52h326z"/><glyph unicode="[" horiz-adv-x="307" d="M83 700h189v-42H168v-847h104v-41H83z"/><glyph unicode="\" horiz-adv-x="382" d="M409-107l-41-23-415 820 42 22z"/><glyph unicode="]" horiz-adv-x="307" d="M224-230H35v41h104v847H35v42h189z"/><glyph unicode="^" horiz-adv-x="500" d="M233 711h32l170-277h-88l-88 151-24 67-32-68-100-150H47z"/><glyph unicode="_" horiz-adv-x="410" d="M0-143h410v-53H0z"/><glyph unicode="`" horiz-adv-x="328" d="M268 593l-22-17L60 725v20q6 5 19.5 9.5T109 762q16 3 30.5 4.5t22.5.5z"/><glyph unicode="a" horiz-adv-x="505" d="M410 131q0-22 1-38t2-34l69-10V28q-25-13-55.5-23T368-10h-25q-10 23-12 50.5t-3 60.5h-5q-4-20-15.5-40.5t-30-36.5Q259 8 234-2t-57-10q-61 0-99.5 37T39 122q0 46 18.5 75.5T112 244q36 17 89 24.5T324 280q4 43 2.5 77.5t-11 59q-9.5 24.5-28 38T239 468q-14 0-31.5-1.5T173 458l-47-120h-26q-10 30-17.5 62T73 463q38 23 84.5 36T261 512q51 0 81.5-14.5T389 460q16-23 21-51t5-56q0-60-2.5-115.5T410 131zM217 50q25 0 44 10t32 24q13 14 21 28.5t11 24.5v105q-58 0-95-6t-58-19q-21-13-29-32.5t-8-44.5q0-43 22-66.5T217 50z"/><glyph unicode="b" horiz-adv-x="545" d="M77 682l-76 8v26q31 13 69.5 21t71.5 15h25V401h2q17 51 57.5 81t89.5 30q91 0 139.5-62T504 259q0-132-66.5-200T246-9q-25 0-50 3.5T148 3q-23 5-41.5 12T77 29zm212-232q-48 0-78-32.5T167 335V56q18-10 44-15.5t55-5.5q66 0 104 57.5T408 259q0 39-6.5 74t-21 61q-14.5 26-37 41T289 450z"/><glyph unicode="c" horiz-adv-x="466" d="M427 70q-18-35-58.5-58.5T274-12q-59 0-102.5 18.5T99 59.5q-29 34.5-43.5 83T41 250q0 127 62 194.5T272 512q49 0 87.5-8.5T425 481q-3-33-11-74t-20-68h-27l-42 119q-7 5-16 7.5t-30 2.5q-68 0-105-49.5T137 251q0-38 10.5-74t32-64.5Q201 84 233.5 67T309 50q35 0 61 10t44 24z"/><glyph unicode="d" horiz-adv-x="555" d="M373 99q-5-22-17-42t-29.5-35.5Q309 6 286.5-3T238-12q-99 0-148 63T41 247q0 128 62.5 195T272 509q37 0 58-3.5t46-12.5v189l-76 8v26q29 12 67.5 21t73.5 15h25V57l66-8V28q-29-14-60-24t-61-14h-25l-9 109zM258 50q49 0 78 31t40 84v282q-17 10-40 14t-59 4q-68 0-104-59.5T137 247q0-41 7-76.5t22-62.5q15-27 37.5-42.5T258 50z"/><glyph unicode="e" horiz-adv-x="503" d="M446 70q-8-17-25-32t-39-26Q360 1 334-5.5T281-12q-59 0-104 18.5t-75 53Q72 94 56.5 142T41 250q0 128 59 195t167 67q35 0 69-9.5t60.5-31.5q26.5-22 43-58.5T456 322q0-17-1.5-34.5T449 250H137q0-42 10.5-78.5T179 108q21-27 53-42.5T307 50q35 0 71 10t54 26zM263 468q-57 0-87-38.5T140 294h220q1 9 1.5 17.5t.5 16.5q0 64-24 102t-75 38z"/><glyph unicode="f" horiz-adv-x="342" d="M306 752q9 0 21-1t25-2.5q13-1.5 25-4t21-5.5q-3-33-8.5-61.5T376 626h-25l-44 86q-29 0-49.5-6t-34-23q-13.5-17-20-49t-6.5-84v-50h115v-50H197V49q52-6 96-24V0H41v25q31 18 66 24v401H31v26q35 22 76 33v35q0 62 15 102.5t42 64q27 23.5 63.5 32.5t78.5 9z"/><glyph unicode="g" horiz-adv-x="526" d="M247 512q54 0 91-10.5t62-32.5q59 40 123 58 8-11 11.5-27t3.5-30l-13-24H420q25-36 25-95 0-72-50.5-117T247 189q-19 0-31 1t-27 3q-5-9-11.5-20t-6.5-23q0-20 23-31.5T251.5 98q34.5-9 75-18.5t75.5-26q35-16.5 58.5-43T485-58q1-36-16.5-65T420-171.5q-31-19.5-74.5-30T250-212q-109 0-164.5 37T30-82q0 27 8.5 47T63 0q16 15 40 26.5T158 48q-22 10-36.5 27.5T107 118q0 23 19.5 45.5T166 199q-57 15-87.5 57T48 351q0 34 13 63.5T99 466q25 22 62 34t86 12zM395-81q0 32-21.5 51T320 1q-32 12-69 20t-69 18q-38-23-50-48.5T120-62q0-53 38-79.5T268-168q37 0 61.5 7t39 18.5Q383-131 389-115t6 34zM138 351q0-24 5.5-45.5t18-37.5q12.5-16 33.5-25.5t52-9.5q58 0 83 34t25 84q0 54-24.5 85.5T247 468q-61 0-85-30.5T138 351z"/><glyph unicode="h" horiz-adv-x="587" d="M570 0H354v25q24 13 60 24v234q0 78-22 122.5T312 450q-26 0-47-9.5T227 416q-17-15-29-34.5T180 341V49q16-4 30.5-9T239 25V0H24v25q31 16 66 24v633l-76 8v26q29 12 67.5 21t73.5 15h25V399h1q21 47 60.5 80t95.5 33q40 0 71.5-9.5T461 469q21-24 32-64.5T504 302V49q17-4 34-9t32-15z"/><glyph unicode="i" horiz-adv-x="301" d="M263 0H41v25q15 8 31 13.5T107 49v393l-66 8v26q29 12 63 21t68 15h25V49q20-5 36-10.5T263 25zM88 670q0 27 17.5 43t46.5 16q29 0 46-16t17-43q0-27-17-42.5T152 612q-29 0-46.5 15.5T88 670z"/><glyph unicode="j" horiz-adv-x="288" d="M106 442l-66 8v26q29 14 63.5 22.5T171 512h25V43q0-71-18-118t-42-76q-24-29-49-43t-40-18l-12 19q12 6 24.5 21t23 41.5Q93-104 99.5-66t6.5 90zM86 670q0 27 17.5 43t46.5 16q29 0 46-16t17-43q0-27-17-42.5T150 612q-29 0-46.5 15.5T86 670z"/><glyph unicode="k" horiz-adv-x="516" d="M300 500h193v-26q-19-8-37.5-14T417 450q-15-20-34.5-43T343 361q-20-23-38.5-43T273 285q15-20 36.5-48.5T356 176q25-32 51.5-65T460 49l56-24V0H392l-27 24q-53 66-88 117.5T213 238l-33 10V49q33-6 65-24V0H24v25q33 16 66 24v633l-76 8v26q28 13 67 21t74 15h25V274h26q16 18 35 40t38 45.5q19 23.5 37 46.5t33 44q-25 7-49 24z"/><glyph unicode="l" horiz-adv-x="301" d="M263 0H41v25q33 16 66 24v633l-76 8v26q26 12 65 21t76 15h25V49q33-8 66-24z"/><glyph unicode="m" horiz-adv-x="863" d="M548 0H334v25q10 6 24.5 12.5T393 49v231q0 40-3.5 72t-13 53.5q-9.5 21.5-27.5 33T302 450q-22 0-40.5-9t-33-24q-14.5-15-25-34T187 343V49q16-5 30.5-10.5T246 25V0H31v25q14 7 31 13t35 11v393l-66 8v26q32 14 65.5 22.5T162 512h25V399h1q16 47 54.5 80t95.5 33q24 0 46-5t41-18.5q19-13.5 32-37.5t19-62q18 55 58 89t100 34q37 0 64.5-9.5T744 469q18-24 26.5-65t8.5-104V49q34-6 66-24V0H630v25q30 16 59 24v249q0 36-3.5 64T672 409.5q-10 19.5-28 30T596 450q-48 0-74.5-33T483 333V49q35-10 65-24z"/><glyph unicode="n" horiz-adv-x="594" d="M577 0H362v25q27 14 59 24v237q0 76-22 120t-80 44q-25 0-46.5-9t-38-24.5Q218 401 206 381.5T187 341V49q31-6 60-24V0H31v25q25 13 66 24v393l-66 8v26q26 11 60 20t71 16h25V400h1q21 46 60.5 79t95.5 33q40 0 71.5-9.5T468 469q21-24 32-64.5T511 302V49q40-7 66-24z"/><glyph unicode="o" horiz-adv-x="553" d="M41 250q0 63 16.5 111.5t47.5 82q31 33.5 74.5 51T276 512q62 0 107-19t73.5-53.5q28.5-34.5 42-82.5T512 250q0-126-64-194T276-12q-60 0-104 18.5t-73 53q-29 34.5-43.5 83T41 250zm96 0q0-45 8.5-85t27-69.5Q191 66 221 49t72-17q54 0 88.5 53T416 250q0 46-8.5 85.5t-26.5 69Q363 434 335 451t-67 17q-59 0-95-53t-36-165z"/><glyph unicode="p" horiz-adv-x="566" d="M253-200H31v25q34 16 66 24v593l-66 8v26q32 14 65.5 22.5T162 512h25V400h1q20 51 56 81.5t94 30.5q89 0 138-59t49-192q0-63-16.5-114t-47-86q-30.5-35-74-54T291-12q-37 0-58 4.5T187 8v-159q16-2 32-7.5t34-16.5zm53 650q-49 0-78-31t-41-85V54q18-11 40.5-16.5T286 32q33 0 59.5 17t45 48q18.5 31 28.5 72.5t10 91.5q0 41-6.5 75.5t-21 60Q387 422 363.5 436T306 450z"/><glyph unicode="q" horiz-adv-x="548" d="M372 89q-14-40-49-70.5T234-12q-96 0-144.5 63.5T41 247q0 130 64.5 196T291 509q54 0 103-10t72-21v-629q17-3 33-8.5t33-15.5v-25H310v25q31 16 66 24V89zM258 50q49 0 77.5 31t40.5 83v287q-18 6-42.5 10t-56.5 4q-67 0-103.5-52T137 249q0-42 6-78t20.5-63Q178 81 201 65.5T258 50z"/><glyph unicode="r" horiz-adv-x="384" d="M244 425q-11-6-27.5-24.5T187 346V49q20-2 40-7.5T267 25V0H31v25q18 10 34 15t32 9v393l-66 8v26q32 14 66 22.5t65 13.5h25V406h4q9 20 25.5 40t38 36q21.5 16 47 24.5T354 512q7-13 12.5-28.5T377 451v-26z"/><glyph unicode="s" horiz-adv-x="433" d="M295 114q0 28-17.5 47.5T233 198q-27 17-57.5 33T118 268.5Q91 290 73.5 318T56 387q0 27 12.5 50t33.5 39.5q21 16.5 49 26t60 9.5q54 0 88.5-6t66.5-17q-4-32-9.5-64.5T341 358h-25l-38 102q-12 5-27 6.5t-31 1.5q-18 0-31.5-6.5t-23-16.5q-9.5-10-14.5-23t-5-26q0-27 17.5-46.5t44.5-36q27-16.5 57.5-32.5t57.5-36q27-20 44.5-46.5T385 135q0-34-14.5-61t-40-46Q305 9 271.5-1.5T200-12q-43 0-79 7.5T46 17q2 36 9 69.5T73 151h25l44-109q11-8 26.5-9t28.5-1q44 0 71 24t27 58z"/><glyph unicode="t" horiz-adv-x="371" d="M15 476q38 24 80 34v85q13 10 30.5 19.5T160 631h25V500h150v-50H185V160q0-60 19-85t57-25q18 0 45 2.5t46 9.5l7-15q-8-9-22.5-19t-33-19Q285 0 263-6t-45-6q-60 0-91.5 34T95 132v318H15z"/><glyph unicode="u" horiz-adv-x="574" d="M77 198q0 63 3 123.5T83 442l-66 8v26q32 12 65.5 21t65.5 15h25q0-75-3-149t-3-147q0-39 4.5-70t16-52Q199 73 219 61.5T270 50q45 0 75.5 32.5T393 167v275l-65 8v26q31 12 64.5 21t65.5 15h25V57l66-8V28q-29-13-58.5-23T429-10h-25l-7 119h-4q-5-21-17.5-42.5t-32.5-39Q323 10 297.5-1T242-12q-40 0-70.5 9.5T120 31Q99 55 88 95.5T77 198z"/><glyph unicode="v" horiz-adv-x="507" d="M238-12L43 450q-29 10-53 24v26h209v-25q-13-7-26.5-13.5T142 450l116-301 20-62h2l15 63 107 300q-16 4-29.5 10T347 474v26h170v-26q-10-7-24.5-13T460 450L283 0z"/><glyph unicode="w" horiz-adv-x="728" d="M200-12L43 450q-14 5-27.5 10.5T-10 474v26h208v-25q-14-8-28-14.5T141 450l87-292 13-72h2l15 74 108 330 30 10 115-341 18-73h2l15 73 77 291q-11 2-25.5 8T568 474v26h170v-26q-21-14-57-24L539 0l-53-12-99 283-19 83h-3l-23-83L252 0z"/><glyph unicode="x" horiz-adv-x="519" d="M298 268L456 49q14-5 27.5-10.5T509 25V0H304v24q14 8 26 14.5T354 49L243 213 131 49q14-5 26-11t24-13V0H10v25q28 17 56 24l149 199L65 450q-14 5-25.5 10.5T16 474v26h201v-25q-12-8-23.5-14.5T168 450l104-150 102 150q-34 11-50 24v26h167v-26q-19-13-56-24z"/><glyph unicode="y" horiz-adv-x="505" d="M42 450q-15 4-27.5 10T-11 474v26h209v-25q-21-14-57-25l128-296 19-62h2l15 63 95 295q-30 6-55 24v26h171v-26q-21-14-57-24L303 0q-24-64-45.5-103.5t-43-62.5q-21.5-23-44-33.5T122-215q-11 19-19.5 42T88-129l13 24h104q6 8 10.5 15.5T225-71q5 11 11 28t14 43z"/><glyph unicode="z" horiz-adv-x="488" d="M423 171q7-42 10.5-84.5T435 0H43v25l285 431H139L95 338H70q-8 43-9.5 84.5T59 500h376v-26L149 44h195l54 127z"/><glyph unicode="{" horiz-adv-x="348" d="M135 111q0 51-21 80t-59 29v30q38 0 59 30.5t21 74.5v239q0 48 24 77t72 29h90v-42h-48q-27 0-39.5-14T221 598V365q0-33-10.5-56t-27-37.5Q167 257 148 249.5t-37-9.5v-6q17-2 36.5-10t36-24q16.5-16 27-39.5T221 105v-234q0-31 12-45.5t41-14.5h47v-41h-90q-45 0-70.5 26.5T135-125z"/><glyph unicode="|" horiz-adv-x="237" d="M93 700h52v-830H93z"/><glyph unicode="}" horiz-adv-x="348" d="M238 360q0-51 21-80t59-29v-30q-38 0-59-30.5T238 116v-240q0-48-24-77t-72-29H52v41h49q27 0 39.5 14t12.5 46v235q0 33 9 56t23.5 37.5q14.5 14.5 32 22T253 231v6q-17 2-35 10t-32.5 24Q171 287 162 310.5t-9 55.5v232q0 31-12 45.5T100 658H52v42h91q45 0 70-26.5t25-78.5z"/><glyph unicode="~" horiz-adv-x="530" d="M58 322q36 54 69 74.5t63 20.5q25 0 49-10.5t47-23.5q23-13 46.5-23.5T381 349q18 0 37.5 7.5T458 383l13-21q-29-42-57.5-59.5T358 285q-26 0-50.5 10.5T259 319q-24 13-48 23.5T163 353q-22 0-44.5-12T73 298z"/><glyph horiz-adv-x="243"/><glyph unicode="¡" horiz-adv-x="327" d="M153 286l32-176v-296q-21-11-45-11t-45 11v296l32 176zm55 160q0-29-19-47t-49-18q-31 0-50 18t-19 47q0 30 19 48t50 18q30 0 49-18t19-48z"/><glyph unicode="¢" horiz-adv-x="533" d="M480 70q-20-36-60-58.5T326-12v-158h-53V-8Q168 7 115 75.5T62 250q0 55 15.5 99.5T121 427q28 33 66.5 53t85.5 28v152h53V512q48 0 86.5-8.5T478 481q-3-33-11.5-74T446 339h-25l-41 119q-7 5-16 7.5t-29 2.5h-10V53q18-3 36-3 35 0 61 10t44 24zM158 251q0-57 29.5-108T274 67v393q-53-16-84.5-66T158 251z"/><glyph unicode="£" horiz-adv-x="533" d="M30 381h85q-15 32-26 67t-11 86q0 41 15 74t42 56q27 23 65 35.5t85 12.5q61 0 112-10t80-24q-1-16-3.5-38.5t-6-46Q464 570 460 547t-8-40h-25l-40 137q-19 8-46 12t-58 4q-39 0-66.5-17T178 595q-8-22-8-46 1-51 13-91t26-77h156v-51H227q7-25 11-49.5t2-53.5q-1-34-13.5-65T186 108l-33-28v-4l56 6h199l49 112h25q2-22 4-48t3.5-52.5q1.5-26.5 2.5-51T493 0H33v31q64 28 95.5 67T161 198q0 11-.5 20.5T159 238q-6 54-21 92H30z"/><glyph unicode="¤" horiz-adv-x="533" d="M36 170l83 82 35 11q-14 17-20 38t-6 45q0 23 6 44.5t20 38.5l-35 11-82 83 54 54 82-83 12-34q17 13 37.5 20t44.5 7q24-1 45-7.5t37-19.5l13 34 82 82 53-54-83-82-32-11q23-34 23-83 1-47-23-84l32-10 82-83-53-54-82 82-12 34q-16-11-37-17.5t-45-6.5q-24 0-44.5 6.5T183 231l-10-33-83-82zm231 94q36 0 60.5 23t24.5 59q0 36-24.5 59.5T267 429q-36 1-60.5-23T182 346q0-36 24.5-59t60.5-23z"/><glyph unicode="¥" horiz-adv-x="533" d="M359 700h220v-29q-40-19-76-25L343 335h144v-52H324v-63h163v-52H324V53q39-5 76-24V0H146v29q36 18 82 24v115H65v52h163v63H65v52h142L36 646q-23 4-42.5 10.5T-45 671v29h265v-29q-15-6-34-12.5T143 646l154-295 144 295q-23 5-43.5 11.5T359 671z"/><glyph unicode="¦" horiz-adv-x="237" d="M93 190h52v-320H93zm52 190H93v320h52z"/><glyph unicode="§" horiz-adv-x="527" d="M347 44q0 30-21.5 48T272 123.5q-32 13.5-69 26t-69 31Q102 199 80.5 228T59 304q0 50 38 86t93 59q-21 10-39 22t-31.5 28.5Q106 516 98 537.5T90 587q0 27 12 50t33.5 39.5q21.5 16.5 51.5 26t67 9.5q54 0 93-5.5t71-17.5q-2-16-4-27.5t-5-22.5q-3-11-7-23t-9-28h-25l-56 72q-12 5-22.5 6.5T263 668q-43 0-63-23t-20-49q0-30 21.5-49.5T255 512q32-15 69-28.5t69-32.5q32-19 53.5-46t21.5-68q0-29-12-52.5T425 242q-19-19-42-33.5T339 184q20-9 38-19.5t31.5-24.5q13.5-14 21-31.5T437 68q0-70-53-110T242-82q-83 0-162 29 1 18 3.5 30.5t5.5 24q3 11.5 7 23t9 27.5h25l64-79q11-9 21.5-10t24.5-1q48 0 77.5 24T347 44zm31 269q0 24-12 41.5t-32 30q-20 12.5-45.5 23T236 429q-34-16-60.5-43.5T149 326q0-26 12.5-45t32.5-33q20-14 46.5-25t53.5-21q17 10 32 24t26.5 28.5Q364 269 371 284t7 29z"/><glyph unicode="¨" horiz-adv-x="450" d="M60 663q0 24 15 38.5t39 14.5q24 0 39-14.5t15-38.5q0-23-15-37t-39-14q-24 0-39 14t-15 37zm222 0q0 24 15 38.5t39 14.5q24 0 39-14.5t15-38.5q0-23-15-37t-39-14q-24 0-39 14t-15 37z"/><glyph unicode="©" horiz-adv-x="807" d="M51 290q0 83 29.5 148.5T159 549q49 45 112.5 69T404 642q69 0 132.5-24t112-69q48.5-45 78-110.5T756 290q0-83-29.5-148.5T648.5 31q-48.5-45-112-69T404-62q-72 0-136.5 24T155 31q-48 45-76 110.5T51 290zm52 0q0-69 23.5-125.5t64.5-96Q232 29 287 7t117-22q62 0 117 22t95.5 61.5q40.5 39.5 64 96T704 290q0 69-25 125.5t-66.5 96Q571 551 516.5 573T404 595q-66 0-121.5-22t-95-62q-39.5-40-62-96T103 290zm407-84h25q4-15 6-45.5t-1-54.5q-9-7-22.5-11.5T489 87q-15-3-31-4t-29-1q-49 0-89.5 13.5t-70 40Q240 162 223.5 201T207 291q0 52 18.5 91t48 65q29.5 26 67 39.5T416 500q39 0 70-5.5t51-15.5q1-9 1-23.5t-1-30.5q-1-16-3-31t-5-25h-25l-30 83q-7 5-22 5.5t-29 .5q-57 0-88.5-44.5T303 291q0-33 7-63.5t22.5-54q15.5-23.5 40.5-37t60-13.5q20 0 32.5 4t16.5 8z"/><glyph unicode="ª" horiz-adv-x="430" d="M99 605q-10 11-17 30.5T74 676q25 13 61.5 22.5T234 708q64 0 87.5-26t23.5-75q0-19-.5-41.5t-1-44.5q-.5-22-1-42.5T342 442l50-10v-26q-19-11-40.5-18.5T307 378h-17q-7 17-9.5 33.5T277 445h-4q-5-9-14-21t-23.5-22.5Q221 391 201 383.5t-47-7.5q-46 0-75.5 25.5T49 471q0 31 15.5 50.5T107 552q27 11 62.5 15.5T245 572q7 0 13.5-.5t13.5-.5q1 6 1 16.5V603q0 13-3 25t-11 21.5q-8 9.5-21.5 15T202 670q-12 0-26-2t-28-7l-22-56zm83-183q21 0 36 7t25.5 16.5Q254 455 261 466t11 20v52q-11 1-21 1h-20q-20 0-38.5-3.5t-32.5-11q-14-7.5-22.5-19.5t-8.5-29q0-20 13.5-37t39.5-17z"/><glyph unicode="«" horiz-adv-x="471" d="M218 259l169 205 25-19-106-179L418 77l-24-20zm-194 0l213 207 26-20-140-181L269 76l-26-21z"/><glyph unicode="¬" horiz-adv-x="533" d="M55 387h425V198h-62v126H55z"/><glyph unicode="­" horiz-adv-x="425" d="M71 313h282v-63H71z"/><glyph unicode="®" horiz-adv-x="700" d="M83 451q0 64 21.5 113.5t58 83.5q36.5 34 85 51.5T350 717q56 0 104.5-17.5T539 648q36-34 57-83.5T617 451q0-65-21.5-114.5t-58-83.5q-36.5-34-85-51.5T350 184q-56 0-104.5 17.5T161 253q-36 34-57 83.5T83 451zm47 0q0-52 17.5-93.5t47.5-71q30-29.5 70-45t85-15.5q47 0 87.5 15.5t70 44.5q29.5 29 46 70.5T570 451q0 52-17.5 93.5T505 615q-30 29-70 45t-85 15q-48 1-88-15t-69.5-45q-29.5-29-46-70.5T130 451zm186-109q13-1 21.5-3.5T353 333v-24H229v24q17 6 35 9v233q-11 1-19 3.5t-16 7.5v22h38q18 0 43 2t41 2q22 0 42.5-4.5t36.5-15q16-10.5 25-26.5t9-38q0-31-21.5-49T393 452q18-29 34.5-56.5T473 342l23-12v-21h-50l-28 11q-25 30-40 62t-26 61h-36zm30 238q-11 0-17.5-.5T316 577V472h32q60 0 58 56-1 26-17.5 39T346 580z"/><glyph unicode="¯" horiz-adv-x="373" d="M60 637v52h253v-52z"/><glyph unicode="°" horiz-adv-x="424" d="M83 571q0 31 11 57t30.5 44.5q19.5 18.5 45.5 29t55 10.5q29 0 55-9t45-26.5q19-17.5 30-44t11-61.5q0-33-11-59t-30-44.5q-19-18.5-45-28t-55-9.5q-29 0-55 9.5t-45.5 28Q105 486 94 512t-11 59zm56 0q0-41 25.5-66.5T225 479q38 0 62 24t24 68q0 42-24 67t-62 25q-38 0-62-25t-24-67z"/><glyph unicode="±" horiz-adv-x="533" d="M42 490h198v210h53V490h198v-53H293V283h-53v154H42zm0-260h449v-53H42z"/><glyph unicode="²" horiz-adv-x="431" d="M109 639H86q-7 10-14.5 27T57 702q-7 19-11.5 36T40 765q32 18 75.5 33t93.5 15q44 0 73-9.5t46.5-25Q346 763 353 742t7-45q0-33-16.5-66.5t-46-65.5q-29.5-32-70-62T139 448v-6l31 7h137l44 67h22q2-14 3.5-31.5t3-36q1.5-18.5 2-35t.5-27.5H43v33q41 23 82.5 54.5t75 67.5q33.5 36 54.5 73t21 70q0 38-17 59.5T192 765q-38 0-63-15z"/><glyph unicode="³" horiz-adv-x="431" d="M207 423q25 0 42 7t28 18q11 11 16 24.5t5 26.5q0 43-24 61t-80 18h-33v26l86 109 44 42v2l-62-4h-89l-36-92H82q-6 13-11 32.5T62.5 734q-3.5 21-6 40T54 804h307v-36l-91-106-39-40v-1l31 4q24 0 45.5-7.5t38-22Q362 581 372 559t10-51q0-65-51.5-98T195 377q-41 0-83.5 13.5T43 423l34 92h18q5-5 11-15t13-21.5q7-11.5 13.5-23.5t11.5-22q9-3 24-6.5t39-3.5z"/><glyph unicode="´" horiz-adv-x="329" d="M177 767q8 1 21-.5t27-4.5q14-3 26-7.5t18-9.5v-19L82 575l-22 18z"/><glyph unicode="µ" horiz-adv-x="574" d="M134 15l35-190v-25q-48-14-92 0v642l-60 8v26q32 12 65.5 21t65.5 15h25q0-75-3-149t-3-147q0-39 4.5-70t16-52Q199 73 219 61.5T270 50q45 0 76 32.5t48 84.5v275l-66 8v26q31 12 65 21t66 15h25V57l66-8V28q-29-13-59-23t-62-15h-25l-7 119h-4q-5-21-17.5-42.5t-32-39Q324 10 298.5-1T243-12q-32 0-57.5 6T140 15z"/><glyph unicode="¶" horiz-adv-x="511" d="M376 94q-1-67-10-109.5t-26-68Q323-109 299.5-121T247-139q-20-32-46.5-48.5T148-212l-12 20q22 9 41 24.5t32.5 40.5q13.5 25 21 62t7.5 89v286q-32 0-63.5 10t-57 32.5Q92 375 76 411.5T60 500q0 42 12.5 78.5t37 63.5q24.5 27 62.5 42.5t89 15.5h190v-30q-17-8-34.5-14T376 646zM259-116q42 17 56 69t14 141v557h-44V24q0-40-6-77t-20-63z"/><glyph unicode="·" horiz-adv-x="240" d="M52 307q0 30 19 48t49 18q31 0 50-18t19-48q0-29-19-47t-50-18q-30 0-49 18t-19 47z"/><glyph unicode="¸" horiz-adv-x="284" d="M117-68q55-2 80-20.5t26-50.5q1-29-14.5-50.5T169-225q-24-14-53-20.5T60-251v30q38 5 61 20t22 46q0 25-20 36t-62 14L98 1h45z"/><glyph unicode="¹" horiz-adv-x="431" d="M365 386H85v21q27 11 51.5 20t49.5 14v247l4 45q-24-7-53.5-9.5T78 722v29q42 9 81 25.5t75 36.5h31V441q26-6 51.5-14t48.5-20z"/><glyph unicode="º" horiz-adv-x="435" d="M43 542q0 39 13 70t36.5 53.5q23.5 22.5 55 34.5t69.5 12q38 0 70-10.5t55-31.5q23-21 36-53t13-75q0-39-13-70.5T342 418q-23-22-55-34t-70-12q-38 0-69.5 10.5t-55 31.5Q69 435 56 467t-13 75zm84 0q0-60 23-96.5t67-36.5q90 0 90 133 0 132-90 132t-90-132z"/><glyph unicode="»" horiz-adv-x="471" d="M77 57L53 77l112 184L58 445l25 19 170-205zm151-2l-26 21 145 184-140 186 26 20 213-207z"/><glyph unicode="¼" horiz-adv-x="938" d="M346 282H66v21q27 11 51.5 20t49.5 14v247l4 45q-24-7-53.5-9.5T59 618v29q42 9 81 25.5t75 36.5h31V337q26-6 51.5-14t48.5-20zm407 428l35-31L203-7l-34 32zM836 0H625v21q17 8 35 14t38 10v72H454v24l287 286h36V164h94v-47h-94V45q14-3 28-8t31-16zM698 294l10 43h-3l-35-43-111-114-36-23 63 7h112z"/><glyph unicode="½" horiz-adv-x="1004" d="M346 282H66v21q27 11 51.5 20t49.5 14v247l4 45q-24-7-53.5-9.5T59 618v29q42 9 81 25.5t75 36.5h31V337q26-6 51.5-14t48.5-20zm407 428l35-31L203-7l-34 32zm-91-457h-23q-7 10-14.5 27T610 316q-7 19-11.5 36t-5.5 27q32 18 75.5 33t93.5 15q44 0 73-9.5t46.5-25Q899 377 906 356t7-45q0-33-16.5-66.5t-46-65.5q-29.5-32-70-62T692 62v-6l31 7h137l44 67h22q2-14 3.5-31.5t3-36q1.5-18.5 2-35T935 0H596v33q41 23 82.5 54.5t75 67.5q33.5 36 54.5 73t21 70q0 38-17 59.5T745 379q-38 0-63-15z"/><glyph unicode="¾" horiz-adv-x="991" d="M805 710l35-31L255-7l-34 32zM888 0H677v21q17 8 35 14t38 10v72H506v24l287 286h36V164h94v-47h-94V45q14-3 28-8t31-16zM750 294l10 43h-3l-35-43-111-114-36-23 63 7h112zm-518 25q25 0 42 7t28 18q11 11 16 24.5t5 26.5q0 43-24 61t-80 18h-33v26l86 109 44 42v2l-62-4h-89l-36-92h-22q-6 13-11 32.5T87.5 630q-3.5 21-6 40T79 700h307v-36l-91-106-39-40v-1l31 4q24 0 45.5-7.5t38-22Q387 477 397 455t10-51q0-65-51.5-98T220 273q-41 0-83.5 13.5T68 319l34 92h18q5-5 11-15t13-21.5q7-11.5 13.5-23.5t11.5-22q9-3 24-6.5t39-3.5z"/><glyph unicode="¿" horiz-adv-x="473" d="M346-15h25q8-27 18-69.5t14-81.5q-38-23-81.5-32.5T215-208q-45 0-78.5 12.5t-56 34Q58-140 46.5-110T35-45q0 45 16.5 78.5t41 60.5q24.5 27 53.5 50.5t54 49q25 25.5 41.5 56.5t16.5 73h20q12-48 6-83.5T261.5 176q-16.5-28-39-51t-43-47Q159 54 145 27t-14-62q0-22 6-43.5t19.5-39q13.5-17.5 35-28T243-156q32 0 52 5t28 13zm-16 461q0-29-18.5-47T263 381q-31 0-50 18t-19 47q0 30 19 48t50 18q30 0 48.5-18t18.5-48z"/><glyph unicode="À" horiz-adv-x="683" d="M222 0H0v29q36 16 72 24l253 659h29L607 53q20-4 39.5-9T683 29V0H427v29q20 8 41 14t41 10l-68 183H202L136 53q42-6 86-24zm0 288h202l-79 212-19 86h-2l-25-88zm148 481l-18-19-225 91v20q6 7 19 13.5t28 11q15 4.5 29 6.5t22 1z"/><glyph unicode="Á" horiz-adv-x="683" d="M222 0H0v29q36 16 72 24l253 659h29L607 53q20-4 39.5-9T683 29V0H427v29q20 8 41 14t41 10l-68 183H202L136 53q42-6 86-24zm0 288h202l-79 212-19 86h-2l-25-88zm229 605q9 1 23-1t28.5-6.5q14.5-4.5 27-11T548 861v-20l-226-91-17 19z"/><glyph unicode="Â" horiz-adv-x="683" d="M222 0H0v29q36 16 72 24l253 659h29L607 53q20-4 39.5-9T683 29V0H427v29q20 8 41 14t41 10l-68 183H202L136 53q42-6 86-24zm0 288h202l-79 212-19 86h-2l-25-88zm-6 464l-14 19 127 112q5 3 12.5 3.5T355 883l125-109-15-21-127 56z"/><glyph unicode="Ã" horiz-adv-x="683" d="M222 0H0v29q36 16 72 24l253 659h29L607 53q20-4 39.5-9T683 29V0H427v29q20 8 41 14t41 10l-68 183H202L136 53q42-6 86-24zm0 288h202l-79 212-19 86h-2l-25-88zm279 533q-32-32-58.5-44T391 765q-19 0-35.5 5.5T323 782q-16 6-31 11.5t-31 5.5q-14 0-28.5-5.5T202 774l-19 29q38 34 67.5 46.5T305 862q18 0 34.5-5t31.5-11q15-6 30-11t31-5q13 0 26.5 4.5T488 850z"/><glyph unicode="Ä" horiz-adv-x="683" d="M222 0H0v29q36 16 72 24l253 659h29L607 53q20-4 39.5-9T683 29V0H427v29q20 8 41 14t41 10l-68 183H202L136 53q42-6 86-24zm0 288h202l-79 212-19 86h-2l-25-88zm-48 501q0 24 16 36t41 12q24 0 40-12t16-36q0-23-16-35t-40-12q-25 0-41 12t-16 35zm223 0q0 24 16 36t40 12q25 0 41-12t16-36q0-23-16-35t-41-12q-24 0-40 12t-16 35z"/><glyph unicode="Å" horiz-adv-x="683" d="M230 788q0 20 9 36t25 27q16 11 36.5 17t44.5 6q19 0 38.5-5t35.5-15q16-10 25.5-25.5T454 791q0-37-29.5-58T355 709L607 53q20-4 39.5-9T683 29V0H427v29q20 8 41 14t41 10l-68 183H202L136 53q42-6 86-24V0H0v29q36 16 72 24l252 657q-42 4-68 24t-26 54zm-8-500h202l-79 212-19 86h-2l-25-88zm64 500q0-20 17.5-29t36.5-9q26 0 42 9t16 28q0 26-18 36t-37 10q-25 0-41-9.5T286 788z"/><glyph unicode="Æ" horiz-adv-x="921" d="M842 700q-1-40-3-80.5t-8-81.5h-25l-42 110H547V383h162l40 74h24q8-99 0-202h-24l-40 76H547V52h230l48 120h26q6-42 9.5-85T862 0H369v29q35 16 82 24v203H255L139 53q41-6 85-24V0H0v29q36 16 72 24l354 599q-14 4-29 8.5T368 671v29zM285 308h166v303h-2l-41-93z"/><glyph unicode="Ç" horiz-adv-x="644" d="M547 182h26q5-28 9-70.5t2-82.5q-17-13-40.5-21T494-4.5q-26-4.5-52.5-6T392-12l-24-63q60-1 88.5-22.5T485-154q0-30-17.5-52t-44-37Q397-258 365-265t-61-7v33q40 6 67 22t26 45q-1 28-23 40.5T307-116L343-8Q205 7 129 93.5T53 350q0 98 27 166.5t73 112Q199 672 260 692t128 20q66 0 111-8.5t79-25.5q0-16-1-37.5t-3-45.5q-2-24-5-47t-6-42h-26l-52 144q-11 6-36.5 8t-50.5 2q-50 0-94.5-18.5t-78-57Q192 546 172 487.5T152 350q0-71 18-128.5t52-98q34-40.5 83-62T416 40q33 0 55 5t29 13z"/><glyph unicode="È" horiz-adv-x="582" d="M503 700q-1-40-3.5-80.5T492 538h-26l-41 110H207V383h163l39 74h25q6-99 0-202h-25l-39 76H207V52h230l49 120h25q7-42 10-85t1-87H29v29q35 16 82 24v593q-20 4-41 10.5T29 671v29zm-147 69l-18-19-225 91v20q6 7 19 13.5t28 11q15 4.5 29 6.5t22 1z"/><glyph unicode="É" horiz-adv-x="582" d="M503 700q-1-40-3.5-80.5T492 538h-26l-41 110H207V383h163l39 74h25q6-99 0-202h-25l-39 76H207V52h230l49 120h25q7-42 10-85t1-87H29v29q35 16 82 24v593q-20 4-41 10.5T29 671v29zM361 893q9 1 23-1t28.5-6.5q14.5-4.5 27-11T458 861v-20l-226-91-17 19z"/><glyph unicode="Ê" horiz-adv-x="582" d="M503 700q-1-40-3.5-80.5T492 538h-26l-41 110H207V383h163l39 74h25q6-99 0-202h-25l-39 76H207V52h230l49 120h25q7-42 10-85t1-87H29v29q35 16 82 24v593q-20 4-41 10.5T29 671v29zm-328 52l-14 19 127 112q5 3 12.5 3.5T314 883l125-109-15-21-127 56z"/><glyph unicode="Ë" horiz-adv-x="582" d="M503 700q-1-40-3.5-80.5T492 538h-26l-41 110H207V383h163l39 74h25q6-99 0-202h-25l-39 76H207V52h230l49 120h25q7-42 10-85t1-87H29v29q35 16 82 24v593q-20 4-41 10.5T29 671v29zm-384 89q0 24 16 36t41 12q24 0 40-12t16-36q0-23-16-35t-40-12q-25 0-41 12t-16 35zm223 0q0 24 16 36t40 12q25 0 41-12t16-36q0-23-16-35t-41-12q-24 0-40 12t-16 35z"/><glyph unicode="Ì" horiz-adv-x="352" d="M304 0H48v29q39 18 80 24v593q-20 4-40 10.5T48 671v29h256v-29q-18-8-39-14.5T224 646V53q21-4 42-10t38-14zm-26 769l-18-19-225 91v20q6 7 19 13.5t28 11q15 4.5 29 6.5t22 1z"/><glyph unicode="Í" horiz-adv-x="352" d="M304 0H48v29q39 18 80 24v593q-20 4-40 10.5T48 671v29h256v-29q-18-8-39-14.5T224 646V53q21-4 42-10t38-14zm-64 893q9 1 23-1t28.5-6.5q14.5-4.5 27-11T337 861v-20l-226-91-17 19z"/><glyph unicode="Î" horiz-adv-x="352" d="M304 0H48v29q39 18 80 24v593q-20 4-40 10.5T48 671v29h256v-29q-18-8-39-14.5T224 646V53q21-4 42-10t38-14zM51 752l-14 19 127 112q5 3 12.5 3.5T190 883l125-109-15-21-127 56z"/><glyph unicode="Ï" horiz-adv-x="352" d="M304 0H48v29q39 18 80 24v593q-20 4-40 10.5T48 671v29h256v-29q-18-8-39-14.5T224 646V53q21-4 42-10t38-14zM8 789q0 24 16 36t41 12q24 0 40-12t16-36q0-23-16-35t-40-12q-25 0-41 12T8 789zm223 0q0 24 16 36t40 12q25 0 41-12t16-36q0-23-16-35t-41-12q-24 0-40 12t-16 35z"/><glyph unicode="Ð" horiz-adv-x="709" d="M22 384h89v262q-23 5-44 11.5T29 671v29h102q17 0 40 1t47.5 2.5q24.5 1.5 47 3T303 708q85 0 150.5-23.5t110.5-68Q609 572 632.5 507T656 359q0-79-22.5-146.5T565 96q-46-49-116.5-77T282-9q-14 0-33.5 1.5t-40.5 3q-21 1.5-42.5 3T125 0H29v29q35 16 82 24v279H22zm267 272q-26 0-50-.5t-38-3.5V384h167v-52H201V46q5-1 18.5-1.5t28.5-1q15-.5 28.5-.5H296q69 0 117 26t78 69.5Q521 182 535 239t14 120q0 49-13.5 101.5t-44 96Q461 600 411.5 628T289 656z"/><glyph unicode="Ñ" horiz-adv-x="732" d="M487 700h216v-29q-42-28-82-40V-12h-57L201 539l-39 78h-3l9-78V64q41-11 77-35V0H29v29q18 11 38.5 19.5T111 64v573q-20 8-39.5 17T35 672v28h169l315-475 46-86h4l-5 86v406q-21 9-40.5 19T487 671zm38 121q-32-32-58.5-44T415 765q-19 0-35.5 5.5T347 782q-16 6-31 11.5t-31 5.5q-14 0-28.5-5.5T226 774l-19 29q38 34 67.5 46.5T329 862q18 0 34.5-5t31.5-11q15-6 30-11t31-5q13 0 26.5 4.5T512 850z"/><glyph unicode="Ò" horiz-adv-x="740" d="M53 350q0 78 21.5 144.5t62 115Q177 658 236 685t134 27q75 0 134-27t99.5-75.5q40.5-48.5 62-115T687 350q0-78-21.5-144.5t-62-115Q563 42 504 15T370-12q-75 0-134 27t-99.5 75.5q-40.5 48.5-62 115T53 350zm107 0q0-64 13.5-120.5T214 131q27-42 68-66.5T379 40q51 0 89 24.5t62.5 66.5q24.5 42 37 98.5T580 350q0 64-13 120.5T527 569q-27 42-68 66.5T362 660q-55 0-93.5-24.5T206 569q-24-42-35-98.5T160 350zm278 419l-18-19-225 91v20q6 7 19 13.5t28 11q15 4.5 29 6.5t22 1z"/><glyph unicode="Ó" horiz-adv-x="740" d="M53 350q0 78 21.5 144.5t62 115Q177 658 236 685t134 27q75 0 134-27t99.5-75.5q40.5-48.5 62-115T687 350q0-78-21.5-144.5t-62-115Q563 42 504 15T370-12q-75 0-134 27t-99.5 75.5q-40.5 48.5-62 115T53 350zm107 0q0-64 13.5-120.5T214 131q27-42 68-66.5T379 40q51 0 89 24.5t62.5 66.5q24.5 42 37 98.5T580 350q0 64-13 120.5T527 569q-27 42-68 66.5T362 660q-55 0-93.5-24.5T206 569q-24-42-35-98.5T160 350zm262 543q9 1 23-1t28.5-6.5q14.5-4.5 27-11T519 861v-20l-226-91-17 19z"/><glyph unicode="Ô" horiz-adv-x="740" d="M53 350q0 78 21.5 144.5t62 115Q177 658 236 685t134 27q75 0 134-27t99.5-75.5q40.5-48.5 62-115T687 350q0-78-21.5-144.5t-62-115Q563 42 504 15T370-12q-75 0-134 27t-99.5 75.5q-40.5 48.5-62 115T53 350zm107 0q0-64 13.5-120.5T214 131q27-42 68-66.5T379 40q51 0 89 24.5t62.5 66.5q24.5 42 37 98.5T580 350q0 64-13 120.5T527 569q-27 42-68 66.5T362 660q-55 0-93.5-24.5T206 569q-24-42-35-98.5T160 350zm85 402l-14 19 127 112q5 3 12.5 3.5T384 883l125-109-15-21-127 56z"/><glyph unicode="Õ" horiz-adv-x="740" d="M53 350q0 78 21.5 144.5t62 115Q177 658 236 685t134 27q75 0 134-27t99.5-75.5q40.5-48.5 62-115T687 350q0-78-21.5-144.5t-62-115Q563 42 504 15T370-12q-75 0-134 27t-99.5 75.5q-40.5 48.5-62 115T53 350zm107 0q0-64 13.5-120.5T214 131q27-42 68-66.5T379 40q51 0 89 24.5t62.5 66.5q24.5 42 37 98.5T580 350q0 64-13 120.5T527 569q-27 42-68 66.5T362 660q-55 0-93.5-24.5T206 569q-24-42-35-98.5T160 350zm369 471q-32-32-58.5-44T419 765q-19 0-35.5 5.5T351 782q-16 6-31 11.5t-31 5.5q-14 0-28.5-5.5T230 774l-19 29q38 34 67.5 46.5T333 862q18 0 34.5-5t31.5-11q15-6 30-11t31-5q13 0 26.5 4.5T516 850z"/><glyph unicode="Ö" horiz-adv-x="740" d="M53 350q0 78 21.5 144.5t62 115Q177 658 236 685t134 27q75 0 134-27t99.5-75.5q40.5-48.5 62-115T687 350q0-78-21.5-144.5t-62-115Q563 42 504 15T370-12q-75 0-134 27t-99.5 75.5q-40.5 48.5-62 115T53 350zm107 0q0-64 13.5-120.5T214 131q27-42 68-66.5T379 40q51 0 89 24.5t62.5 66.5q24.5 42 37 98.5T580 350q0 64-13 120.5T527 569q-27 42-68 66.5T362 660q-55 0-93.5-24.5T206 569q-24-42-35-98.5T160 350zm42 439q0 24 16 36t41 12q24 0 40-12t16-36q0-23-16-35t-40-12q-25 0-41 12t-16 35zm223 0q0 24 16 36t40 12q25 0 41-12t16-36q0-23-16-35t-41-12q-24 0-40 12t-16 35z"/><glyph unicode="×" horiz-adv-x="533" d="M88 204l140 140L90 483l37 37 139-138 140 140 37-37-140-140 143-143-38-38-143 143-140-140z"/><glyph unicode="Ø" horiz-adv-x="740" d="M53 350q0 78 21.5 144.5t62 115Q177 658 236 685t134 27q49 0 90.5-12t76.5-33l28 46 51-29-34-53q51-49 78-121t27-160q0-78-21.5-144.5t-62-115Q563 42 504 15T370-12q-48 0-89.5 11.5T204 31l-28-44-47 29 30 49q-52 49-79 122T53 350zm107 0q0-60 12-113t36-94l290 463q-26 26-60 40t-76 14q-55 0-93.5-24.5T206 569q-24-42-35-98.5T160 350zm420 0q0 60-11.5 111.5T533 554L244 93q26-26 59-39.5T379 40q51 0 89 24.5t62.5 66.5q24.5 42 37 98.5T580 350z"/><glyph unicode="Ù" horiz-adv-x="672" d="M10 700h254v-29q-19-8-38-14t-38-11V237q0-53 11.5-88.5t33.5-57q22-21.5 54.5-31T361 51q79 0 123 43.5T528 238v399q-23 8-43 16.5T449 671v29h213v-29q-19-11-38.5-20T584 637V236q0-64-17-110t-47.5-76q-30.5-30-74-44.5T349-9Q224-9 158 47.5T92 221v425q-41 6-82 25zm391 69l-18-19-225 91v20q6 7 19 13.5t28 11q15 4.5 29 6.5t22 1z"/><glyph unicode="Ú" horiz-adv-x="672" d="M10 700h254v-29q-19-8-38-14t-38-11V237q0-53 11.5-88.5t33.5-57q22-21.5 54.5-31T361 51q79 0 123 43.5T528 238v399q-23 8-43 16.5T449 671v29h213v-29q-19-11-38.5-20T584 637V236q0-64-17-110t-47.5-76q-30.5-30-74-44.5T349-9Q224-9 158 47.5T92 221v425q-41 6-82 25zm455 193q9 1 23-1t28.5-6.5q14.5-4.5 27-11T562 861v-20l-226-91-17 19z"/><glyph unicode="Û" horiz-adv-x="672" d="M10 700h254v-29q-19-8-38-14t-38-11V237q0-53 11.5-88.5t33.5-57q22-21.5 54.5-31T361 51q79 0 123 43.5T528 238v399q-23 8-43 16.5T449 671v29h213v-29q-19-11-38.5-20T584 637V236q0-64-17-110t-47.5-76q-30.5-30-74-44.5T349-9Q224-9 158 47.5T92 221v425q-41 6-82 25zm222 52l-14 19 127 112q5 3 12.5 3.5T371 883l125-109-15-21-127 56z"/><glyph unicode="Ü" horiz-adv-x="672" d="M10 700h254v-29q-19-8-38-14t-38-11V237q0-53 11.5-88.5t33.5-57q22-21.5 54.5-31T361 51q79 0 123 43.5T528 238v399q-23 8-43 16.5T449 671v29h213v-29q-19-11-38.5-20T584 637V236q0-64-17-110t-47.5-76q-30.5-30-74-44.5T349-9Q224-9 158 47.5T92 221v425q-41 6-82 25zm179 89q0 24 16 36t41 12q24 0 40-12t16-36q0-23-16-35t-40-12q-25 0-41 12t-16 35zm223 0q0 24 16 36t40 12q25 0 41-12t16-36q0-23-16-35t-41-12q-24 0-40 12t-16 35z"/><glyph unicode="Ý" horiz-adv-x="644" d="M424 700h220v-29q-38-19-76-25L379 298V53q39-5 76-24V0H201v29q36 18 82 24v244L81 646q-23 4-42.5 10.5T0 671v29h265v-29q-15-6-34-12.5T188 646l164-294 154 294q-23 5-43.5 11.5T424 671zm41 193q9 1 23-1t28.5-6.5q14.5-4.5 27-11T562 861v-20l-226-91-17 19z"/><glyph unicode="Þ" horiz-adv-x="595" d="M207 53q56-8 96-25V0H29v28q20 11 41 16t41 9v594q-41 8-80 25v28h256v-28q-18-9-39-15t-41-10v-49q23 2 45.5 3t44.5 1q49 0 96-10.5t83.5-35q36.5-24.5 58.5-65T557 391q0-57-23-97.5t-61.5-67Q434 200 385 187.5T284 175h-15.5q-10.5 0-22.5.5t-23 1.5q-11 1-16 2zm68 497q-24 0-39-1t-29-5V231q5-2 14.5-2.5t20-1q10.5-.5 20.5-.5h16q35 0 66 9.5t54.5 29.5q23.5 20 37.5 51t14 74q0 78-46.5 118.5T275 550z"/><glyph unicode="ß" horiz-adv-x="638" d="M433 590q0 22-8.5 43T402 670.5q-14 16.5-32 27T331 708q-27 0-51-5.5T237.5 678Q219 659 208 623t-11-97V0H41v25q31 18 66 24v401H31v26q35 22 76 33v35q0 62 22 102.5t54.5 64Q216 734 254 743t71 9q54 0 91.5-15t61-40q23.5-25 34-57t11.5-66q-38-5-68-14.5T404 534q-21-16-32-39.5T361 438q0-31 17.5-53.5t44-42q26.5-19.5 57.5-38t57.5-42q26.5-23.5 44-53.5t17.5-71q0-70-48-110T414-12q-83 0-162 29 2 25 8.5 46.5T276 102h25l65-62q11-5 21.5-6.5T412 32q48 0 72.5 24t24.5 58q0 33-17.5 56t-44 42.5Q421 232 390 250.5T332.5 293q-26.5 24-44 56T271 427q0 55 36.5 96T433 590z"/><glyph unicode="à" horiz-adv-x="505" d="M410 131q0-22 1-38t2-34l69-10V28q-25-13-55.5-23T368-10h-25q-10 23-12 50.5t-3 60.5h-5q-4-20-15.5-40.5t-30-36.5Q259 8 234-2t-57-10q-61 0-99.5 37T39 122q0 46 18.5 75.5T112 244q36 17 89 24.5T324 280q4 43 2.5 77.5t-11 59q-9.5 24.5-28 38T239 468q-14 0-31.5-1.5T173 458l-47-120h-26q-10 30-17.5 62T73 463q38 23 84.5 36T261 512q51 0 81.5-14.5T389 460q16-23 21-51t5-56q0-60-2.5-115.5T410 131zM217 50q25 0 44 10t32 24q13 14 21 28.5t11 24.5v105q-58 0-95-6t-58-19q-21-13-29-32.5t-8-44.5q0-43 22-66.5T217 50zm99 543l-22-17-186 149v20q6 5 19.5 9.5T157 762q16 3 30.5 4.5t22.5.5z"/><glyph unicode="á" horiz-adv-x="505" d="M410 131q0-22 1-38t2-34l69-10V28q-25-13-55.5-23T368-10h-25q-10 23-12 50.5t-3 60.5h-5q-4-20-15.5-40.5t-30-36.5Q259 8 234-2t-57-10q-61 0-99.5 37T39 122q0 46 18.5 75.5T112 244q36 17 89 24.5T324 280q4 43 2.5 77.5t-11 59q-9.5 24.5-28 38T239 468q-14 0-31.5-1.5T173 458l-47-120h-26q-10 30-17.5 62T73 463q38 23 84.5 36T261 512q51 0 81.5-14.5T389 460q16-23 21-51t5-56q0-60-2.5-115.5T410 131zM217 50q25 0 44 10t32 24q13 14 21 28.5t11 24.5v105q-58 0-95-6t-58-19q-21-13-29-32.5t-8-44.5q0-43 22-66.5T217 50zm88 717q8 1 21-.5t27-4.5q14-3 26-7.5t18-9.5v-19L210 575l-22 18z"/><glyph unicode="â" horiz-adv-x="505" d="M410 131q0-22 1-38t2-34l69-10V28q-25-13-55.5-23T368-10h-25q-10 23-12 50.5t-3 60.5h-5q-4-20-15.5-40.5t-30-36.5Q259 8 234-2t-57-10q-61 0-99.5 37T39 122q0 46 18.5 75.5T112 244q36 17 89 24.5T324 280q4 43 2.5 77.5t-11 59q-9.5 24.5-28 38T239 468q-14 0-31.5-1.5T173 458l-47-120h-26q-10 30-17.5 62T73 463q38 23 84.5 36T261 512q51 0 81.5-14.5T389 460q16-23 21-51t5-56q0-60-2.5-115.5T410 131zM217 50q25 0 44 10t32 24q13 14 21 28.5t11 24.5v105q-58 0-95-6t-58-19q-21-13-29-32.5t-8-44.5q0-43 22-66.5T217 50zm-60 540l-29 16 110 186q5 3 12.5 3.5T263 792l114-185-27-17-103 107z"/><glyph unicode="ã" horiz-adv-x="505" d="M410 131q0-22 1-38t2-34l69-10V28q-25-13-55.5-23T368-10h-25q-10 23-12 50.5t-3 60.5h-5q-4-20-15.5-40.5t-30-36.5Q259 8 234-2t-57-10q-61 0-99.5 37T39 122q0 46 18.5 75.5T112 244q36 17 89 24.5T324 280q4 43 2.5 77.5t-11 59q-9.5 24.5-28 38T239 468q-14 0-31.5-1.5T173 458l-47-120h-26q-10 30-17.5 62T73 463q38 23 84.5 36T261 512q51 0 81.5-14.5T389 460q16-23 21-51t5-56q0-60-2.5-115.5T410 131zM217 50q25 0 44 10t32 24q13 14 21 28.5t11 24.5v105q-58 0-95-6t-58-19q-21-13-29-32.5t-8-44.5q0-43 22-66.5T217 50zm179 622q-32-32-58.5-44.5T288 615q-18 0-34 5.5T223 632q-15 6-29.5 11.5T164 649q-13 0-26.5-5T108 625l-19 28q37 35 66 47t52 12q18 0 33.5-5t29.5-11q14-6 28.5-11t29.5-5q13 0 26 4.5t29 15.5z"/><glyph unicode="ä" horiz-adv-x="505" d="M410 131q0-22 1-38t2-34l69-10V28q-25-13-55.5-23T368-10h-25q-10 23-12 50.5t-3 60.5h-5q-4-20-15.5-40.5t-30-36.5Q259 8 234-2t-57-10q-61 0-99.5 37T39 122q0 46 18.5 75.5T112 244q36 17 89 24.5T324 280q4 43 2.5 77.5t-11 59q-9.5 24.5-28 38T239 468q-14 0-31.5-1.5T173 458l-47-120h-26q-10 30-17.5 62T73 463q38 23 84.5 36T261 512q51 0 81.5-14.5T389 460q16-23 21-51t5-56q0-60-2.5-115.5T410 131zM217 50q25 0 44 10t32 24q13 14 21 28.5t11 24.5v105q-58 0-95-6t-58-19q-21-13-29-32.5t-8-44.5q0-43 22-66.5T217 50zM77 663q0 24 15 38.5t39 14.5q24 0 39-14.5t15-38.5q0-23-15-37t-39-14q-24 0-39 14t-15 37zm222 0q0 24 15 38.5t39 14.5q24 0 39-14.5t15-38.5q0-23-15-37t-39-14q-24 0-39 14t-15 37z"/><glyph unicode="å" horiz-adv-x="505" d="M410 131q0-22 1-38t2-34l69-10V28q-25-13-55.5-23T368-10h-25q-10 23-12 50.5t-3 60.5h-5q-4-20-15.5-40.5t-30-36.5Q259 8 234-2t-57-10q-61 0-99.5 37T39 122q0 46 18.5 75.5T112 244q36 17 89 24.5T324 280q4 43 2.5 77.5t-11 59q-9.5 24.5-28 38T239 468q-14 0-31.5-1.5T173 458l-47-120h-26q-10 30-17.5 62T73 463q38 23 84.5 36T261 512q51 0 81.5-14.5T389 460q16-23 21-51t5-56q0-60-2.5-115.5T410 131zM217 50q25 0 44 10t32 24q13 14 21 28.5t11 24.5v105q-58 0-95-6t-58-19q-21-13-29-32.5t-8-44.5q0-43 22-66.5T217 50zm-74 633q0 41 28.5 69t71.5 28q39 0 66.5-25t27.5-69q0-21-8-38t-21-29q-13-12-30.5-19t-35.5-7q-45 0-72 24t-27 66zm52 2q0-26 13.5-38.5T239 634q20 0 32.5 11.5T284 682q0 27-12 42t-32 15q-24 0-34.5-15T195 685z"/><glyph unicode="æ" horiz-adv-x="778" d="M390 453q11 12 24 23t30.5 19q17.5 8 41 12.5T542 512q35 0 69-9.5t60.5-31.5q26.5-22 43-58.5T731 322q0-17-1.5-34.5T724 250H414q0-42 10.5-78.5t31-63.5q20.5-27 52-42.5T582 50q17 0 35.5 2.5T653 60q17 5 31 11.5T707 86l15-16q-8-17-25-32t-39.5-26Q635 1 609-5.5T556-12q-27 0-56.5 5t-58 17.5Q413 23 389 44.5T350 98q-8-23-24-43t-38.5-35Q265 5 237-3.5T177-12q-61 0-99.5 37T39 122q0 46 18.5 75.5T112 244q36 17 89 24.5T324 280q3 31 3 58 0 61-19 95.5T239 468q-14 0-31.5-1.5T173 458l-47-120h-26q-10 30-17.5 62T73 463q38 23 84.5 36T261 512q57 0 87-16.5t42-42.5zM217 50q25 0 43.5 9.5t31.5 23Q305 96 313 110t11 24v108q-58 0-95-6t-58-19q-21-13-28.5-32.5T135 140q0-43 22-66.5T217 50zm321 418q-56 0-86-38.5T416 294h219q1 9 1.5 17.5t.5 16.5q0 64-24 102t-75 38z"/><glyph unicode="ç" horiz-adv-x="466" d="M427 70q-19-36-60-59t-98-23l-21-56q55-2 79.5-20.5T354-139q1-29-14.5-50.5T300-225q-24-14-53-20.5t-56-5.5v30q38 5 61 20t22 46q-1 25-20.5 36T192-105l34 97Q133 6 87 75T41 250q0 127 62 194.5T272 512q49 0 87.5-8.5T425 481q-3-33-11-74t-20-68h-27l-42 119q-7 5-16 7.5t-30 2.5q-68 0-105-49.5T137 251q0-38 10.5-74t32-64.5Q201 84 233.5 67T309 50q35 0 61 10t44 24z"/><glyph unicode="è" horiz-adv-x="503" d="M446 70q-8-17-25-32t-39-26Q360 1 334-5.5T281-12q-59 0-104 18.5t-75 53Q72 94 56.5 142T41 250q0 128 59 195t167 67q35 0 69-9.5t60.5-31.5q26.5-22 43-58.5T456 322q0-17-1.5-34.5T449 250H137q0-42 10.5-78.5T179 108q21-27 53-42.5T307 50q35 0 71 10t54 26zM263 468q-57 0-87-38.5T140 294h220q1 9 1.5 17.5t.5 16.5q0 64-24 102t-75 38zm62 125l-22-17-186 149v20q6 5 19.5 9.5T166 762q16 3 30.5 4.5t22.5.5z"/><glyph unicode="é" horiz-adv-x="503" d="M446 70q-8-17-25-32t-39-26Q360 1 334-5.5T281-12q-59 0-104 18.5t-75 53Q72 94 56.5 142T41 250q0 128 59 195t167 67q35 0 69-9.5t60.5-31.5q26.5-22 43-58.5T456 322q0-17-1.5-34.5T449 250H137q0-42 10.5-78.5T179 108q21-27 53-42.5T307 50q35 0 71 10t54 26zM263 468q-57 0-87-38.5T140 294h220q1 9 1.5 17.5t.5 16.5q0 64-24 102t-75 38zm59 299q8 1 21-.5t27-4.5q14-3 26-7.5t18-9.5v-19L227 575l-22 18z"/><glyph unicode="ê" horiz-adv-x="503" d="M446 70q-8-17-25-32t-39-26Q360 1 334-5.5T281-12q-59 0-104 18.5t-75 53Q72 94 56.5 142T41 250q0 128 59 195t167 67q35 0 69-9.5t60.5-31.5q26.5-22 43-58.5T456 322q0-17-1.5-34.5T449 250H137q0-42 10.5-78.5T179 108q21-27 53-42.5T307 50q35 0 71 10t54 26zM263 468q-57 0-87-38.5T140 294h220q1 9 1.5 17.5t.5 16.5q0 64-24 102t-75 38zm-97 122l-29 16 110 186q5 3 12.5 3.5T272 792l114-185-27-17-103 107z"/><glyph unicode="ë" horiz-adv-x="503" d="M446 70q-8-17-25-32t-39-26Q360 1 334-5.5T281-12q-59 0-104 18.5t-75 53Q72 94 56.5 142T41 250q0 128 59 195t167 67q35 0 69-9.5t60.5-31.5q26.5-22 43-58.5T456 322q0-17-1.5-34.5T449 250H137q0-42 10.5-78.5T179 108q21-27 53-42.5T307 50q35 0 71 10t54 26zM263 468q-57 0-87-38.5T140 294h220q1 9 1.5 17.5t.5 16.5q0 64-24 102t-75 38zM93 663q0 24 15 38.5t39 14.5q24 0 39-14.5t15-38.5q0-23-15-37t-39-14q-24 0-39 14t-15 37zm222 0q0 24 15 38.5t39 14.5q24 0 39-14.5t15-38.5q0-23-15-37t-39-14q-24 0-39 14t-15 37z"/><glyph unicode="ì" horiz-adv-x="301" d="M263 0H41v25q15 8 31 13.5T107 49v393l-66 8v26q29 12 63 21t68 15h25V49q20-5 36-10.5T263 25zm-62 593l-22-17L-7 725v20q6 5 19.5 9.5T42 762q16 3 30.5 4.5t22.5.5z"/><glyph unicode="í" horiz-adv-x="301" d="M263 0H41v25q15 8 31 13.5T107 49v393l-66 8v26q29 12 63 21t68 15h25V49q20-5 36-10.5T263 25zm-64 767q8 1 21-.5t27-4.5q14-3 26-7.5t18-9.5v-19L104 575l-22 18z"/><glyph unicode="î" horiz-adv-x="301" d="M263 0H41v25q15 8 31 13.5T107 49v393l-66 8v26q29 12 63 21t68 15h25V49q20-5 36-10.5T263 25zM54 590l-29 16 110 186q5 3 12.5 3.5T160 792l114-185-27-17-103 107z"/><glyph unicode="ï" horiz-adv-x="301" d="M263 0H41v25q15 8 31 13.5T107 49v393l-66 8v26q29 12 63 21t68 15h25V49q20-5 36-10.5T263 25zM-15 663q0 24 15 38.5T39 716q24 0 39-14.5T93 663q0-23-15-37t-39-14q-24 0-39 14t-15 37zm222 0q0 24 15 38.5t39 14.5q24 0 39-14.5t15-38.5q0-23-15-37t-39-14q-24 0-39 14t-15 37z"/><glyph unicode="ð" horiz-adv-x="535" d="M158 604l114 46q-26 27-56.5 48.5T151 733v17h61q31-9 62.5-27.5T335 676l110 46 19-43-93-38q54-63 90-152t36-200q0-65-14.5-120.5t-44-95.5Q409 33 365 10.5T262-12q-54 0-97.5 18.5T90.5 59Q60 93 44 139.5T28 242q0 67 19 118t49.5 84.5Q127 478 166 495t79 17q53 0 85.5-16.5T386 455q-12 38-32.5 79T304 613l-126-52zm-34-362q0-41 9.5-78.5T162 97q19-29 45.5-46T269 34q32 0 57 17t41.5 48.5q16.5 31.5 25 75.5t8.5 99q0 53-3.5 84t-6.5 44q-15 25-47.5 41.5T264 460q-61 0-100.5-54.5T124 242z"/><glyph unicode="ñ" horiz-adv-x="594" d="M577 0H362v25q27 14 59 24v237q0 76-22 120t-80 44q-25 0-46.5-9t-38-24.5Q218 401 206 381.5T187 341V49q31-6 60-24V0H31v25q25 13 66 24v393l-66 8v26q26 11 60 20t71 16h25V400h1q21 46 60.5 79t95.5 33q40 0 71.5-9.5T468 469q21-24 32-64.5T511 302V49q40-7 66-24zM451 672q-32-32-58.5-44.5T343 615q-18 0-34 5.5T278 632q-15 6-29.5 11.5T219 649q-13 0-26.5-5T163 625l-19 28q37 35 66 47t52 12q18 0 33.5-5t29.5-11q14-6 28.5-11t29.5-5q13 0 26 4.5t29 15.5z"/><glyph unicode="ò" horiz-adv-x="553" d="M41 250q0 63 16.5 111.5t47.5 82q31 33.5 74.5 51T276 512q62 0 107-19t73.5-53.5q28.5-34.5 42-82.5T512 250q0-126-64-194T276-12q-60 0-104 18.5t-73 53q-29 34.5-43.5 83T41 250zm96 0q0-45 8.5-85t27-69.5Q191 66 221 49t72-17q54 0 88.5 53T416 250q0 46-8.5 85.5t-26.5 69Q363 434 335 451t-67 17q-59 0-95-53t-36-165zm203 343l-22-17-186 149v20q6 5 19.5 9.5T181 762q16 3 30.5 4.5t22.5.5z"/><glyph unicode="ó" horiz-adv-x="553" d="M41 250q0 63 16.5 111.5t47.5 82q31 33.5 74.5 51T276 512q62 0 107-19t73.5-53.5q28.5-34.5 42-82.5T512 250q0-126-64-194T276-12q-60 0-104 18.5t-73 53q-29 34.5-43.5 83T41 250zm96 0q0-45 8.5-85t27-69.5Q191 66 221 49t72-17q54 0 88.5 53T416 250q0 46-8.5 85.5t-26.5 69Q363 434 335 451t-67 17q-59 0-95-53t-36-165zm192 517q8 1 21-.5t27-4.5q14-3 26-7.5t18-9.5v-19L234 575l-22 18z"/><glyph unicode="ô" horiz-adv-x="553" d="M41 250q0 63 16.5 111.5t47.5 82q31 33.5 74.5 51T276 512q62 0 107-19t73.5-53.5q28.5-34.5 42-82.5T512 250q0-126-64-194T276-12q-60 0-104 18.5t-73 53q-29 34.5-43.5 83T41 250zm96 0q0-45 8.5-85t27-69.5Q191 66 221 49t72-17q54 0 88.5 53T416 250q0 46-8.5 85.5t-26.5 69Q363 434 335 451t-67 17q-59 0-95-53t-36-165zm43 340l-29 16 110 186q5 3 12.5 3.5T286 792l114-185-27-17-103 107z"/><glyph unicode="õ" horiz-adv-x="553" d="M41 250q0 63 16.5 111.5t47.5 82q31 33.5 74.5 51T276 512q62 0 107-19t73.5-53.5q28.5-34.5 42-82.5T512 250q0-126-64-194T276-12q-60 0-104 18.5t-73 53q-29 34.5-43.5 83T41 250zm96 0q0-45 8.5-85t27-69.5Q191 66 221 49t72-17q54 0 88.5 53T416 250q0 46-8.5 85.5t-26.5 69Q363 434 335 451t-67 17q-59 0-95-53t-36-165zm292 422q-32-32-58.5-44.5T321 615q-18 0-34 5.5T256 632q-15 6-29.5 11.5T197 649q-13 0-26.5-5T141 625l-19 28q37 35 66 47t52 12q18 0 33.5-5t29.5-11q14-6 28.5-11t29.5-5q13 0 26 4.5t29 15.5z"/><glyph unicode="ö" horiz-adv-x="553" d="M41 250q0 63 16.5 111.5t47.5 82q31 33.5 74.5 51T276 512q62 0 107-19t73.5-53.5q28.5-34.5 42-82.5T512 250q0-126-64-194T276-12q-60 0-104 18.5t-73 53q-29 34.5-43.5 83T41 250zm96 0q0-45 8.5-85t27-69.5Q191 66 221 49t72-17q54 0 88.5 53T416 250q0 46-8.5 85.5t-26.5 69Q363 434 335 451t-67 17q-59 0-95-53t-36-165zm-26 413q0 24 15 38.5t39 14.5q24 0 39-14.5t15-38.5q0-23-15-37t-39-14q-24 0-39 14t-15 37zm222 0q0 24 15 38.5t39 14.5q24 0 39-14.5t15-38.5q0-23-15-37t-39-14q-24 0-39 14t-15 37z"/><glyph unicode="÷" horiz-adv-x="533" d="M42 372h450v-53H42zm156 163q0 30 19 48t49 18q31 0 50-18t19-48q0-29-19-47t-50-18q-30 0-49 18t-19 47zm0-381q0 30 19 48t49 18q31 0 50-18t19-48q0-29-19-47t-50-18q-30 0-49 18t-19 47z"/><glyph unicode="ø" horiz-adv-x="553" d="M116 41q-38 35-56.5 88T41 250q0 63 16.5 111.5t47.5 82q31 33.5 74.5 51T276 512q77 0 128-30l46 71 38-26-47-71q36-35 53.5-87.5T512 250q0-126-64-194T276-12q-36 0-66.5 7T154 15l-50-77-38 27zm21 209q0-39 6.5-73.5T164 114l202 311q-18 21-42 32t-56 11q-60 0-95.5-53T137 250zm279 0q0 37-6 70t-19 61L191 71q36-39 102-39 54 0 88.5 53T416 250z"/><glyph unicode="ù" horiz-adv-x="574" d="M77 198q0 63 3 123.5T83 442l-66 8v26q32 12 65.5 21t65.5 15h25q0-75-3-149t-3-147q0-39 4.5-70t16-52Q199 73 219 61.5T270 50q45 0 75.5 32.5T393 167v275l-65 8v26q31 12 64.5 21t65.5 15h25V57l66-8V28q-29-13-58.5-23T429-10h-25l-7 119h-4q-5-21-17.5-42.5t-32.5-39Q323 10 297.5-1T242-12q-40 0-70.5 9.5T120 31Q99 55 88 95.5T77 198zm274 395l-22-17-186 149v20q6 5 19.5 9.5T192 762q16 3 30.5 4.5t22.5.5z"/><glyph unicode="ú" horiz-adv-x="574" d="M77 198q0 63 3 123.5T83 442l-66 8v26q32 12 65.5 21t65.5 15h25q0-75-3-149t-3-147q0-39 4.5-70t16-52Q199 73 219 61.5T270 50q45 0 75.5 32.5T393 167v275l-65 8v26q31 12 64.5 21t65.5 15h25V57l66-8V28q-29-13-58.5-23T429-10h-25l-7 119h-4q-5-21-17.5-42.5t-32.5-39Q323 10 297.5-1T242-12q-40 0-70.5 9.5T120 31Q99 55 88 95.5T77 198zm261 569q8 1 21-.5t27-4.5q14-3 26-7.5t18-9.5v-19L243 575l-22 18z"/><glyph unicode="û" horiz-adv-x="574" d="M77 198q0 63 3 123.5T83 442l-66 8v26q32 12 65.5 21t65.5 15h25q0-75-3-149t-3-147q0-39 4.5-70t16-52Q199 73 219 61.5T270 50q45 0 75.5 32.5T393 167v275l-65 8v26q31 12 64.5 21t65.5 15h25V57l66-8V28q-29-13-58.5-23T429-10h-25l-7 119h-4q-5-21-17.5-42.5t-32.5-39Q323 10 297.5-1T242-12q-40 0-70.5 9.5T120 31Q99 55 88 95.5T77 198zm113 392l-29 16 110 186q5 3 12.5 3.5T296 792l114-185-27-17-103 107z"/><glyph unicode="ü" horiz-adv-x="574" d="M77 198q0 63 3 123.5T83 442l-66 8v26q32 12 65.5 21t65.5 15h25q0-75-3-149t-3-147q0-39 4.5-70t16-52Q199 73 219 61.5T270 50q45 0 75.5 32.5T393 167v275l-65 8v26q31 12 64.5 21t65.5 15h25V57l66-8V28q-29-13-58.5-23T429-10h-25l-7 119h-4q-5-21-17.5-42.5t-32.5-39Q323 10 297.5-1T242-12q-40 0-70.5 9.5T120 31Q99 55 88 95.5T77 198zm44 465q0 24 15 38.5t39 14.5q24 0 39-14.5t15-38.5q0-23-15-37t-39-14q-24 0-39 14t-15 37zm222 0q0 24 15 38.5t39 14.5q24 0 39-14.5t15-38.5q0-23-15-37t-39-14q-24 0-39 14t-15 37z"/><glyph unicode="ý" horiz-adv-x="505" d="M42 450q-15 4-27.5 10T-11 474v26h209v-25q-21-14-57-25l128-296 19-62h2l15 63 95 295q-30 6-55 24v26h171v-26q-21-14-57-24L303 0q-24-64-45.5-103.5t-43-62.5q-21.5-23-44-33.5T122-215q-11 19-19.5 42T88-129l13 24h104q6 8 10.5 15.5T225-71q5 11 11 28t14 43zm273 317q8 1 21-.5t27-4.5q14-3 26-7.5t18-9.5v-19L220 575l-22 18z"/><glyph unicode="þ" horiz-adv-x="566" d="M95 682l-76 8v26q26 12 65 21t76 15h25V400h1q20 51 56 81.5t94 30.5q89 0 138-59t49-192q0-63-16.5-114t-47-86q-30.5-35-74-54T289-12q-37 0-58 4.5T185 8v-159q16-2 32-7.5t34-16.5v-25H29v25q34 16 66 24zm209-232q-49 0-78-31t-41-85V54q18-11 40.5-16.5T284 32q33 0 59.5 17t45 48q18.5 31 28.5 72.5t10 91.5q0 41-6.5 75.5t-21 60Q385 422 361.5 436T304 450z"/><glyph unicode="ÿ" horiz-adv-x="505" d="M42 450q-15 4-27.5 10T-11 474v26h209v-25q-21-14-57-25l128-296 19-62h2l15 63 95 295q-30 6-55 24v26h171v-26q-21-14-57-24L303 0q-24-64-45.5-103.5t-43-62.5q-21.5-23-44-33.5T122-215q-11 19-19.5 42T88-129l13 24h104q6 8 10.5 15.5T225-71q5 11 11 28t14 43zm56 213q0 24 15 38.5t39 14.5q24 0 39-14.5t15-38.5q0-23-15-37t-39-14q-24 0-39 14t-15 37zm222 0q0 24 15 38.5t39 14.5q24 0 39-14.5t15-38.5q0-23-15-37t-39-14q-24 0-39 14t-15 37z"/><glyph unicode="Ā" horiz-adv-x="683" d="M222 0H0v29q36 16 72 24l253 659h29L607 53q20-4 39.5-9T683 29V0H427v29q20 8 41 14t41 10l-68 183H202L136 53q42-6 86-24zm0 288h202l-79 212-19 86h-2l-25-88zm-30 500v52h301v-52z"/><glyph unicode="ā" horiz-adv-x="505" d="M410 131q0-22 1-38t2-34l69-10V28q-25-13-55.5-23T368-10h-25q-10 23-12 50.5t-3 60.5h-5q-4-20-15.5-40.5t-30-36.5Q259 8 234-2t-57-10q-61 0-99.5 37T39 122q0 46 18.5 75.5T112 244q36 17 89 24.5T324 280q4 43 2.5 77.5t-11 59q-9.5 24.5-28 38T239 468q-14 0-31.5-1.5T173 458l-47-120h-26q-10 30-17.5 62T73 463q38 23 84.5 36T261 512q51 0 81.5-14.5T389 460q16-23 21-51t5-56q0-60-2.5-115.5T410 131zM217 50q25 0 44 10t32 24q13 14 21 28.5t11 24.5v105q-58 0-95-6t-58-19q-21-13-29-32.5t-8-44.5q0-43 22-66.5T217 50zm-92 587v52h253v-52z"/><glyph unicode="Ă" horiz-adv-x="683" d="M222 0H0v29q36 16 72 24l253 659h29L607 53q20-4 39.5-9T683 29V0H427v29q20 8 41 14t41 10l-68 183H202L136 53q42-6 86-24zm0 288h202l-79 212-19 86h-2l-25-88zm239 595q16 2 32-14-9-22-23.5-42t-34-35Q416 777 393 768t-48-9q-54 0-94.5 29T191 871q12 19 42 15 7-12 19.5-22.5t28.5-18q16-7.5 33-12t32-4.5q32-1 63.5 11t51.5 43z"/><glyph unicode="ă" horiz-adv-x="505" d="M410 131q0-22 1-38t2-34l69-10V28q-25-13-55.5-23T368-10h-25q-10 23-12 50.5t-3 60.5h-5q-4-20-15.5-40.5t-30-36.5Q259 8 234-2t-57-10q-61 0-99.5 37T39 122q0 46 18.5 75.5T112 244q36 17 89 24.5T324 280q4 43 2.5 77.5t-11 59q-9.5 24.5-28 38T239 468q-14 0-31.5-1.5T173 458l-47-120h-26q-10 30-17.5 62T73 463q38 23 84.5 36T261 512q51 0 81.5-14.5T389 460q16-23 21-51t5-56q0-60-2.5-115.5T410 131zM217 50q25 0 44 10t32 24q13 14 21 28.5t11 24.5v105q-58 0-95-6t-58-19q-21-13-29-32.5t-8-44.5q0-43 22-66.5T217 50zm171 669q-9-22-21.5-44T337 636q-17-17-37.5-28T254 597q-27 0-48 9.5t-38 26q-17 16.5-30 39T116 721l28 13q7-13 19.5-24.5T191 689q15-9 32-14.5t32-5.5q68-2 109 61z"/><glyph unicode="Ą" horiz-adv-x="683" d="M222 0H0v29q36 16 72 24l253 659h29L607 53q20-4 39.5-9T683 29V0h-42q-43-24-72-57.5T540-135q0-28 18-46t49-18q31 0 55 6v-29q-14-11-36-20t-55-9q-23 0-43.5 7t-36 20Q476-211 467-192.5t-9 40.5q0 26 9.5 47.5t26.5 40q17 18.5 40.5 34T586 0H427v29q20 8 41 14t41 10l-68 183H202L136 53q42-6 86-24zm0 288h202l-79 212-19 86h-2l-25-88z"/><glyph unicode="ą" horiz-adv-x="505" d="M410 131q0-22 1-38t2-34l69-10V28q-7-4-14-7t-15-6q-44-23-73.5-55.5T350-118q0-10 3.5-20.5T364-158q7-9 18-14.5t26-5.5q14 0 26.5 2.5T461-169v-33q-14-8-35.5-14t-39.5-6q-60 0-90 25t-30 63q0 40 26 70.5T360-10h-17q-10 23-12 50.5t-3 60.5h-5q-4-20-15.5-40.5t-30-36.5Q259 8 234-2t-57-10q-61 0-99.5 37T39 122q0 46 18.5 75.5T112 244q36 17 89 24.5T324 280q4 43 2.5 77.5t-11 59q-9.5 24.5-28 38T239 468q-14 0-31.5-1.5T173 458l-47-120h-26q-10 30-17.5 62T73 463q38 23 84.5 36T261 512q51 0 81.5-14.5T389 460q16-23 21-51t5-56q0-60-2.5-115.5T410 131zM217 50q25 0 44 10t32 24q13 14 21 28.5t11 24.5v105q-58 0-95-6t-58-19q-21-13-29-32.5t-8-44.5q0-43 22-66.5T217 50z"/><glyph unicode="Ć" horiz-adv-x="644" d="M547 182h26q5-28 9-70.5t2-82.5q-15-12-36-19.5T503.5-3q-23.5-5-48-7T409-12q-84 0-150 21.5T147.5 75q-45.5 44-70 112.5T53 350q0 98 27 166.5t73 112Q199 672 260 692t128 20q66 0 111-8.5t79-25.5q0-16-1-37.5t-3-45.5q-2-24-5-47t-6-42h-26l-52 144q-11 6-36.5 8t-50.5 2q-50 0-94.5-18.5t-78-57Q192 546 172 487.5T152 350q0-71 18-128.5t52-98q34-40.5 83-62T416 40q33 0 55 5t29 13zM440 893q9 1 23-1t28.5-6.5q14.5-4.5 27-11T537 861v-20l-226-91-17 19z"/><glyph unicode="ć" horiz-adv-x="466" d="M427 70q-18-35-58.5-58.5T274-12q-59 0-102.5 18.5T99 59.5q-29 34.5-43.5 83T41 250q0 127 62 194.5T272 512q49 0 87.5-8.5T425 481q-3-33-11-74t-20-68h-27l-42 119q-7 5-16 7.5t-30 2.5q-68 0-105-49.5T137 251q0-38 10.5-74t32-64.5Q201 84 233.5 67T309 50q35 0 61 10t44 24zM315 767q8 1 21-.5t27-4.5q14-3 26-7.5t18-9.5v-19L220 575l-22 18z"/><glyph unicode="Ĉ" horiz-adv-x="644" d="M547 182h26q5-28 9-70.5t2-82.5q-15-12-36-19.5T503.5-3q-23.5-5-48-7T409-12q-84 0-150 21.5T147.5 75q-45.5 44-70 112.5T53 350q0 98 27 166.5t73 112Q199 672 260 692t128 20q66 0 111-8.5t79-25.5q0-16-1-37.5t-3-45.5q-2-24-5-47t-6-42h-26l-52 144q-11 6-36.5 8t-50.5 2q-50 0-94.5-18.5t-78-57Q192 546 172 487.5T152 350q0-71 18-128.5t52-98q34-40.5 83-62T416 40q33 0 55 5t29 13zM246 752l-14 19 127 112q5 3 12.5 3.5T385 883l125-109-15-21-127 56z"/><glyph unicode="ĉ" horiz-adv-x="466" d="M427 70q-18-35-58.5-58.5T274-12q-59 0-102.5 18.5T99 59.5q-29 34.5-43.5 83T41 250q0 127 62 194.5T272 512q49 0 87.5-8.5T425 481q-3-33-11-74t-20-68h-27l-42 119q-7 5-16 7.5t-30 2.5q-68 0-105-49.5T137 251q0-38 10.5-74t32-64.5Q201 84 233.5 67T309 50q35 0 61 10t44 24zM167 590l-29 16 110 186q5 3 12.5 3.5T273 792l114-185-27-17-103 107z"/><glyph unicode="Č" horiz-adv-x="644" d="M547 182h26q5-28 9-70.5t2-82.5q-15-12-36-19.5T503.5-3q-23.5-5-48-7T409-12q-84 0-150 21.5T147.5 75q-45.5 44-70 112.5T53 350q0 98 27 166.5t73 112Q199 672 260 692t128 20q66 0 111-8.5t79-25.5q0-16-1-37.5t-3-45.5q-2-24-5-47t-6-42h-26l-52 144q-11 6-36.5 8t-50.5 2q-50 0-94.5-18.5t-78-57Q192 546 172 487.5T152 350q0-71 18-128.5t52-98q34-40.5 83-62T416 40q33 0 55 5t29 13zm-48 706q8 0 15-5t10-12L397 759q-5-2-12.5-2.5T371 759L246 868q4 7 9.5 13.5T271 888l117-55z"/><glyph unicode="č" horiz-adv-x="466" d="M427 70q-18-35-58.5-58.5T274-12q-59 0-102.5 18.5T99 59.5q-29 34.5-43.5 83T41 250q0 127 62 194.5T272 512q49 0 87.5-8.5T425 481q-3-33-11-74t-20-68h-27l-42 119q-7 5-16 7.5t-30 2.5q-68 0-105-49.5T137 251q0-38 10.5-74t32-64.5Q201 84 233.5 67T309 50q35 0 61 10t44 24zm-68 726q9 1 17.5-4t11.5-12L264 595q-5-2-12-2.5t-13 2.5L118 779q4 8 14 13t20 4l107-106z"/><glyph unicode="Ď" horiz-adv-x="708" d="M29 0v29q35 16 82 24v593q-23 5-44 11.5T29 671v29h102q17 0 40 1t47.5 2.5q24.5 1.5 47 3T303 708q170 0 261.5-91T656 359q0-79-22.5-146.5T565 96q-46-49-116.5-77T282-9q-15 0-34 1.5t-40 3q-21 1.5-42.5 3T125 0zm260 656q-26 0-50-.5t-38-3.5V46q5-1 18-1.5t28-1q15-.5 28.5-.5H295q69 0 117 26t78.5 69.5Q521 182 535 239t14 120q0 49-13.5 101.5t-44 96Q461 600 411 628t-122 28zm123 232q8 0 15-5t10-12L310 759q-5-2-12.5-2.5T284 759L159 868q4 7 9.5 13.5T184 888l117-55z"/><glyph unicode="ď" horiz-adv-x="555" d="M373 99q-5-22-17-42t-29.5-35.5Q309 6 286.5-3T238-12q-99 0-148 63T41 247q0 128 62.5 195T272 509q37 0 58-3.5t46-12.5v189l-76 8v26q29 12 67.5 21t73.5 15h25V57l66-8V28q-29-14-60-24t-61-14h-25l-9 109zM258 50q49 0 78 31t40 84v282q-17 10-40 14t-59 4q-68 0-104-59.5T137 247q0-41 7-76.5t22-62.5q15-27 37.5-42.5T258 50zm249 493q21 45 32 97.5t11 93.5l12 16q7 1 18.5-.5t23.5-5q12-3.5 22.5-8T643 727q-5-28-17.5-56.5t-29-54.5q-16.5-26-35-47.5T527 532z"/><glyph unicode="Đ" horiz-adv-x="709" d="M22 384h89v262q-23 5-44 11.5T29 671v29h102q17 0 40 1t47.5 2.5q24.5 1.5 47 3T303 708q85 0 150.5-23.5t110.5-68Q609 572 632.5 507T656 359q0-79-22.5-146.5T565 96q-46-49-116.5-77T282-9q-14 0-33.5 1.5t-40.5 3q-21 1.5-42.5 3T125 0H29v29q35 16 82 24v279H22zm267 272q-26 0-50-.5t-38-3.5V384h167v-52H201V46q5-1 18.5-1.5t28.5-1q15-.5 28.5-.5H296q69 0 117 26t78 69.5Q521 182 535 239t14 120q0 49-13.5 101.5t-44 96Q461 600 411.5 628T289 656z"/><glyph unicode="đ" horiz-adv-x="555" d="M223 623h153v59l-76 8v26q29 12 67.5 21t73.5 15h25V623h92v-52h-92V57l66-8V28q-29-14-60-24t-61-14h-25l-9 109h-4q-5-22-17-42t-29.5-35.5Q309 6 286.5-3T238-12q-99 0-148 63T41 247q0 128 62.5 195T272 509q37 0 58-3.5t46-12.5v78H223zm35-573q49 0 78 31t40 84v282q-17 10-40 14t-59 4q-68 0-104-59.5T137 247q0-41 7-76.5t22-62.5q15-27 37.5-42.5T258 50z"/><glyph unicode="Ē" horiz-adv-x="582" d="M503 700q-1-40-3.5-80.5T492 538h-26l-41 110H207V383h163l39 74h25q6-99 0-202h-25l-39 76H207V52h230l49 120h25q7-42 10-85t1-87H29v29q35 16 82 24v593q-20 4-41 10.5T29 671v29zm-352 88v52h301v-52z"/><glyph unicode="ē" horiz-adv-x="503" d="M446 70q-8-17-25-32t-39-26Q360 1 334-5.5T281-12q-59 0-104 18.5t-75 53Q72 94 56.5 142T41 250q0 128 59 195t167 67q35 0 69-9.5t60.5-31.5q26.5-22 43-58.5T456 322q0-17-1.5-34.5T449 250H137q0-42 10.5-78.5T179 108q21-27 53-42.5T307 50q35 0 71 10t54 26zM263 468q-57 0-87-38.5T140 294h220q1 9 1.5 17.5t.5 16.5q0 64-24 102t-75 38zM134 637v52h253v-52z"/><glyph unicode="Ė" horiz-adv-x="582" d="M503 700q-1-40-3.5-80.5T492 538h-26l-41 110H207V383h163l39 74h25q6-99 0-202h-25l-39 76H207V52h230l49 120h25q7-42 10-85t1-87H29v29q35 16 82 24v593q-20 4-41 10.5T29 671v29zM226 817q0 26 19 40t46 14q27 0 45-14t18-40q0-26-18-40t-45-14q-27 0-46 14t-19 40z"/><glyph unicode="ė" horiz-adv-x="503" d="M446 70q-8-17-25-32t-39-26Q360 1 334-5.5T281-12q-59 0-104 18.5t-75 53Q72 94 56.5 142T41 250q0 128 59 195t167 67q35 0 69-9.5t60.5-31.5q26.5-22 43-58.5T456 322q0-17-1.5-34.5T449 250H137q0-42 10.5-78.5T179 108q21-27 53-42.5T307 50q35 0 71 10t54 26zM263 468q-57 0-87-38.5T140 294h220q1 9 1.5 17.5t.5 16.5q0 64-24 102t-75 38zm-67 202q0 27 17.5 43t46.5 16q29 0 46-16t17-43q0-27-17-42.5T260 612q-29 0-46.5 15.5T196 670z"/><glyph unicode="Ę" horiz-adv-x="582" d="M503 700q-1-40-3.5-80.5T492 538h-26l-41 110H207V383h163l39 74h25q6-99 0-202h-25l-39 76H207V52h230l49 120h25q3-13 5.5-36.5t4-49.5q1.5-26 1.5-49.5V0h-44q-42-24-71.5-57.5T377-135q0-28 18-46t50-18q31 0 55 6v-29q-14-11-36.5-20t-54.5-9q-23 0-44 7t-36.5 20Q313-211 304-192.5t-9 40.5q0 26 9.5 47.5t27 40q17.5 18.5 41 34T424 0H29v29q35 16 82 24v593q-20 4-41 10.5T29 671v29z"/><glyph unicode="ę" horiz-adv-x="503" d="M446 70q-10-20-31-37T367 5q-38-22-62-52.5T281-118q0-10 3-20.5t10-19.5q7-9 18-14.5t27-5.5q14 0 26.5 2.5T392-169v-33q-14-8-35.5-14t-39.5-6q-60 0-90 25t-30 63q0 39 25 69t65 53q-122 0-184 69T41 250q0 128 59 195t167 67q40 0 78.5-12.5t66-43q27.5-30.5 39-81T449 250H137q0-42 10.5-78.5T179 108q21-27 53-42.5T307 50q35 0 71 10t54 26zM263 468q-57 0-87-38.5T140 294h220q7 78-16.5 126T263 468z"/><glyph unicode="Ě" horiz-adv-x="582" d="M503 700q-1-40-3.5-80.5T492 538h-26l-41 110H207V383h163l39 74h25q6-99 0-202h-25l-39 76H207V52h230l49 120h25q7-42 10-85t1-87H29v29q35 16 82 24v593q-20 4-41 10.5T29 671v29zm-94 188q8 0 15-5t10-12L307 759q-5-2-12.5-2.5T281 759L156 868q4 7 9.5 13.5T181 888l117-55z"/><glyph unicode="ě" horiz-adv-x="503" d="M446 70q-8-17-25-32t-39-26Q360 1 334-5.5T281-12q-59 0-104 18.5t-75 53Q72 94 56.5 142T41 250q0 128 59 195t167 67q35 0 69-9.5t60.5-31.5q26.5-22 43-58.5T456 322q0-17-1.5-34.5T449 250H137q0-42 10.5-78.5T179 108q21-27 53-42.5T307 50q35 0 71 10t54 26zM263 468q-57 0-87-38.5T140 294h220q1 9 1.5 17.5t.5 16.5q0 64-24 102t-75 38zm95 328q9 1 17.5-4t11.5-12L263 595q-5-2-12-2.5t-13 2.5L117 779q4 8 14 13t20 4l107-106z"/><glyph unicode="Ĝ" horiz-adv-x="688" d="M609 48q-19-11-44.5-21.5t-54-19q-28.5-8.5-57-14T400-12q-80 0-144 21.5t-109 66Q102 120 77.5 188T53 350q0 98 28.5 167t76 112.5q47.5 43.5 108 63T389 712q66 0 111.5-8.5T580 678q0-15-1-37t-3-46q-2-24-5-47.5t-6-41.5h-26l-52 144q-11 6-37 8t-51 2q-50 0-95-18.5t-78.5-57Q192 546 172 487.5T152 350q0-71 19.5-128t54-97.5Q260 84 306.5 62T407 40q20 0 39 4t35 9.5Q497 59 507.5 65T522 75v202q-26 2-49.5 9T426 301v29h245v-29q-10-7-24-13t-38-11zM248 752l-14 19 127 112q5 3 12.5 3.5T387 883l125-109-15-21-127 56z"/><glyph unicode="ĝ" horiz-adv-x="526" d="M247 512q54 0 91-10.5t62-32.5q59 40 123 58 8-11 11.5-27t3.5-30l-13-24H420q25-36 25-95 0-72-50.5-117T247 189q-19 0-31 1t-27 3q-5-9-11.5-20t-6.5-23q0-20 23-31.5T251.5 98q34.5-9 75-18.5t75.5-26q35-16.5 58.5-43T485-58q1-36-16.5-65T420-171.5q-31-19.5-74.5-30T250-212q-109 0-164.5 37T30-82q0 27 8.5 47T63 0q16 15 40 26.5T158 48q-22 10-36.5 27.5T107 118q0 23 19.5 45.5T166 199q-57 15-87.5 57T48 351q0 34 13 63.5T99 466q25 22 62 34t86 12zM395-81q0 32-21.5 51T320 1q-32 12-69 20t-69 18q-38-23-50-48.5T120-62q0-53 38-79.5T268-168q37 0 61.5 7t39 18.5Q383-131 389-115t6 34zM138 351q0-24 5.5-45.5t18-37.5q12.5-16 33.5-25.5t52-9.5q58 0 83 34t25 84q0 54-24.5 85.5T247 468q-61 0-85-30.5T138 351zm11 239l-29 16 110 186q5 3 12.5 3.5T255 792l114-185-27-17-103 107z"/><glyph unicode="Ğ" horiz-adv-x="688" d="M609 48q-19-11-44.5-21.5t-54-19q-28.5-8.5-57-14T400-12q-80 0-144 21.5t-109 66Q102 120 77.5 188T53 350q0 98 28.5 167t76 112.5q47.5 43.5 108 63T389 712q66 0 111.5-8.5T580 678q0-15-1-37t-3-46q-2-24-5-47.5t-6-41.5h-26l-52 144q-11 6-37 8t-51 2q-50 0-95-18.5t-78.5-57Q192 546 172 487.5T152 350q0-71 19.5-128t54-97.5Q260 84 306.5 62T407 40q20 0 39 4t35 9.5Q497 59 507.5 65T522 75v202q-26 2-49.5 9T426 301v29h245v-29q-10-7-24-13t-38-11zm-94 835q16 2 32-14-9-22-23.5-42t-34-35Q470 777 447 768t-48-9q-54 0-94.5 29T245 871q12 19 42 15 7-12 19.5-22.5t28.5-18q16-7.5 33-12t32-4.5q32-1 63.5 11t51.5 43z"/><glyph unicode="ğ" horiz-adv-x="526" d="M247 512q54 0 91-10.5t62-32.5q59 40 123 58 8-11 11.5-27t3.5-30l-13-24H420q25-36 25-95 0-72-50.5-117T247 189q-19 0-31 1t-27 3q-5-9-11.5-20t-6.5-23q0-20 23-31.5T251.5 98q34.5-9 75-18.5t75.5-26q35-16.5 58.5-43T485-58q1-36-16.5-65T420-171.5q-31-19.5-74.5-30T250-212q-109 0-164.5 37T30-82q0 27 8.5 47T63 0q16 15 40 26.5T158 48q-22 10-36.5 27.5T107 118q0 23 19.5 45.5T166 199q-57 15-87.5 57T48 351q0 34 13 63.5T99 466q25 22 62 34t86 12zM395-81q0 32-21.5 51T320 1q-32 12-69 20t-69 18q-38-23-50-48.5T120-62q0-53 38-79.5T268-168q37 0 61.5 7t39 18.5Q383-131 389-115t6 34zM138 351q0-24 5.5-45.5t18-37.5q12.5-16 33.5-25.5t52-9.5q58 0 83 34t25 84q0 54-24.5 85.5T247 468q-61 0-85-30.5T138 351zm241 368q-9-22-21.5-44T328 636q-17-17-37.5-28T245 597q-27 0-48 9.5t-38 26q-17 16.5-30 39T107 721l28 13q7-13 19.5-24.5T182 689q15-9 32-14.5t32-5.5q68-2 109 61z"/><glyph unicode="Ģ" horiz-adv-x="688" d="M609 48q-19-11-44.5-21.5t-54-19q-28.5-8.5-57-14T400-12q-80 0-144 21.5t-109 66Q102 120 77.5 188T53 350q0 98 28.5 167t76 112.5q47.5 43.5 108 63T389 712q66 0 111.5-8.5T580 678q0-15-1-37t-3-46q-2-24-5-47.5t-6-41.5h-26l-52 144q-11 6-37 8t-51 2q-50 0-95-18.5t-78.5-57Q192 546 172 487.5T152 350q0-71 19.5-128t54-97.5Q260 84 306.5 62T407 40q20 0 39 4t35 9.5Q497 59 507.5 65T522 75v202q-26 2-49.5 9T426 301v29h245v-29q-10-7-24-13t-38-11zM319-237q18 8 35.5 27t14.5 48q-11 8-31 17.5T303-130q-5 16-.5 30.5T316-73q9 12 20.5 19t22.5 8q34-4 60.5-26t26.5-65q0-49-29.5-84.5T334-271z"/><glyph unicode="ģ" horiz-adv-x="526" d="M247 512q54 0 91-10.5t62-32.5q59 40 123 58 8-11 11.5-27t3.5-30l-13-24H420q25-36 25-95 0-72-50.5-117T247 189q-19 0-31 1t-27 3q-5-9-11.5-20t-6.5-23q0-20 23-31.5T251.5 98q34.5-9 75-18.5t75.5-26q35-16.5 58.5-43T485-58q1-36-16.5-65T420-171.5q-31-19.5-74.5-30T250-212q-109 0-164.5 37T30-82q0 27 8.5 47T63 0q16 15 40 26.5T158 48q-22 10-36.5 27.5T107 118q0 23 19.5 45.5T166 199q-57 15-87.5 57T48 351q0 34 13 63.5T99 466q25 22 62 34t86 12zM395-81q0 32-21.5 51T320 1q-32 12-69 20t-69 18q-38-23-50-48.5T120-62q0-53 38-79.5T268-168q37 0 61.5 7t39 18.5Q383-131 389-115t6 34zM138 351q0-24 5.5-45.5t18-37.5q12.5-16 33.5-25.5t52-9.5q58 0 83 34t25 84q0 54-24.5 85.5T247 468q-61 0-85-30.5T138 351zm179 426q-31-12-43-32.5T262 704q11-9 30.5-18t34.5-14q5-16 .5-30.5t-13-26q-8.5-11.5-20-19T272 589q-33 3-56 25t-23 65q0 24 8.5 45.5t23 39q14.5 17.5 34 30T301 811z"/><glyph unicode="Ĥ" horiz-adv-x="728" d="M282 0H29v29q40 16 82 24v593q-47 7-82 25v29h253v-29q-17-9-36-15t-39-10V385h314v261q-21 5-39.5 11T446 671v29h253v-29q-18-10-39.5-15.5T617 646V53q23-4 44-10t38-14V0H446v29q36 16 75 24v280H207V53q20-4 39-10t36-14zm-43 752l-14 19 127 112q5 3 12.5 3.5T378 883l125-109-15-21-127 56z"/><glyph unicode="ĥ" horiz-adv-x="587" d="M570 0H354v25q24 13 60 24v234q0 78-22 122.5T312 450q-26 0-47-9.5T227 416q-17-15-29-34.5T180 341V49q16-4 30.5-9T239 25V0H24v25q31 16 66 24v633l-76 8v26q29 12 67.5 21t73.5 15h25V399h1q21 47 60.5 80t95.5 33q40 0 71.5-9.5T461 469q21-24 32-64.5T504 302V49q17-4 34-9t32-15zM25 752l-14 19 127 112q5 3 12.5 3.5T164 883l125-109-15-21-127 56z"/><glyph unicode="Ħ" horiz-adv-x="728" d="M30 558h81v88q-47 7-82 25v29h253v-29q-17-9-36-15t-39-10v-88h314v88q-21 5-39.5 11T446 671v29h253v-29q-18-10-39.5-15.5T617 646v-88h81v-52h-81V53q23-4 44-10t38-14V0H446v29q36 16 75 24v280H207V53q20-4 39-10t36-14V0H29v29q40 16 82 24v453H30zm491-173v121H207V385z"/><glyph unicode="ħ" horiz-adv-x="587" d="M3 622h87v60l-76 8v26q29 12 67.5 21t73.5 15h25V622h159v-51H180V399h1q21 47 60.5 80t95.5 33q40 0 71.5-9.5T461 469q21-24 32-64.5T504 302V49q17-4 34-9t32-15V0H354v25q24 13 60 24v234q0 78-22 122.5T312 450q-26 0-47-9.5T227 416q-17-15-29-34.5T180 341V49q16-4 30.5-9T239 25V0H24v25q31 16 66 24v522H3z"/><glyph unicode="Ī" horiz-adv-x="352" d="M304 0H48v29q39 18 80 24v593q-20 4-40 10.5T48 671v29h256v-29q-18-8-39-14.5T224 646V53q21-4 42-10t38-14zM26 788v52h301v-52z"/><glyph unicode="ī" horiz-adv-x="301" d="M263 0H41v25q15 8 31 13.5T107 49v393l-66 8v26q29 12 63 21t68 15h25V49q20-5 36-10.5T263 25zM23 637v52h253v-52z"/><glyph unicode="Į" horiz-adv-x="352" d="M304 0h-40q-43-24-72-57.5T163-135q0-28 18-46t49-18q31 0 55 6v-29q-14-11-36-20t-55-9q-23 0-43.5 7t-36 20Q99-211 90-192.5T81-152q0 26 9.5 47.5t26.5 40q17 18.5 40.5 34T209 0H48v29q39 18 80 24v593q-20 4-40 10.5T48 671v29h256v-29q-18-8-39-14.5T224 646V53q21-4 42-10t38-14z"/><glyph unicode="į" horiz-adv-x="304" d="M264 0h-39q-33-21-55-50.5T148-118q0-10 3-20.5t10-19.5q7-9 18-14.5t27-5.5q15 0 27.5 2.5T260-169v-33q-14-8-36-14t-40-6q-59 0-89 25t-30 63q0 45 31 78t82 56H42v25q15 8 31 13.5T108 49v393l-66 8v26q29 12 63 21t68 15h25V49q20-5 36-10.5T264 25zM94 667q0 26 16.5 41t42.5 15q26 0 42-15t16-41q0-26-16-40.5T153 612q-26 0-42.5 14.5T94 667z"/><glyph unicode="İ" horiz-adv-x="352" d="M304 0H48v29q39 18 80 24v593q-20 4-40 10.5T48 671v29h256v-29q-18-8-39-14.5T224 646V53q21-4 42-10t38-14zM112 817q0 26 19 40t46 14q27 0 45-14t18-40q0-26-18-40t-45-14q-27 0-46 14t-19 40z"/><glyph unicode="ı" horiz-adv-x="301" d="M263 0H41v25q15 8 31 13.5T107 49v393l-66 8v26q29 12 63 21t68 15h25V49q20-5 36-10.5T263 25z"/><glyph unicode="Ĵ" horiz-adv-x="341" d="M39 700h254v-29q-18-8-37-14.5T217 646V86q0-70-16-115t-39.5-72.5Q138-129 111.5-142T63-160l-11 15q15 13 27.5 29.5t22 41.5Q111-49 116-13t5 88v571q-22 5-43 11t-39 14zm4 52l-14 19 127 112q5 3 12.5 3.5T182 883l125-109-15-21-127 56z"/><glyph unicode="ĵ" horiz-adv-x="288" d="M106 442l-66 8v26q29 14 63.5 22.5T171 512h25V43q0-71-18-118t-42-76q-24-29-49-43t-40-18l-12 19q12 6 24.5 21t23 41.5Q93-104 99.5-66t6.5 90zM53 590l-29 16 110 186q5 3 12.5 3.5T159 792l114-185-27-17-103 107z"/><glyph unicode="Ķ" horiz-adv-x="646" d="M382 700h221v-29q-20-9-39-15t-37-10L326 380q25-33 57.5-74t68-84.5q35.5-43.5 73-88T598 49l48-24V0H521l-34 24q-59 69-117.5 149T256 335h-49V53q46-8 75-24V0H29v29q40 16 82 24v593q-45 6-82 25v29h253v-29q-16-7-35-13.5T207 646V369l60 14 187 263q-20 5-38 11t-34 14zM261-237q18 8 35.5 27t14.5 48q-11 8-31 17.5T245-130q-5 16-.5 30.5T258-73q9 12 20.5 19t22.5 8q34-4 60.5-26t26.5-65q0-49-29.5-84.5T276-271z"/><glyph unicode="ķ" horiz-adv-x="516" d="M300 500h193v-26q-19-8-37.5-14T417 450q-15-20-34.5-43T343 361q-20-23-38.5-43T273 285q15-20 36.5-48.5T356 176q25-32 51.5-65T460 49l56-24V0H392l-27 24q-53 66-88 117.5T213 238l-33 10V49q33-6 65-24V0H24v25q33 16 66 24v633l-76 8v26q28 13 67 21t74 15h25V274h26q16 18 35 40t38 45.5q19 23.5 37 46.5t33 44q-25 7-49 24zM198-235q31 12 43 32.5t12 40.5q-11 9-30.5 18T188-130q-5 16-.5 30.5t13 26q8.5 11.5 20 19T243-47q33-3 56-25t23-65q0-24-8.5-45.5t-23-39q-14.5-17.5-34-30T214-269z"/><glyph unicode="Ĺ" horiz-adv-x="549" d="M29 700h274v-29q-24-9-48-15.5t-48-9.5V52h230l59 161h26q3-21 5.5-48.5t4-57Q533 78 533 50t-1-50H29v29q24 11 44 16t38 8v593q-23 4-44 10.5T29 671zm262 193q9 1 23-1t28.5-6.5q14.5-4.5 27-11T388 861v-20l-226-91-17 19z"/><glyph unicode="ĺ" horiz-adv-x="301" d="M263 0H41v25q33 16 66 24v633l-76 8v26q26 12 65 21t76 15h25V49q33-8 66-24zm-33 893q9 1 23-1t28.5-6.5q14.5-4.5 27-11T327 861v-20l-226-91-17 19z"/><glyph unicode="Ļ" horiz-adv-x="549" d="M29 700h274v-29q-24-9-48-15.5t-48-9.5V52h230l59 161h26q3-21 5.5-48.5t4-57Q533 78 533 50t-1-50H29v29q24 11 44 16t38 8v593q-23 4-44 10.5T29 671zm190-937q18 8 35.5 27t14.5 48q-11 8-31 17.5T203-130q-5 16-.5 30.5T216-73q9 12 20.5 19t22.5 8q34-4 60.5-26t26.5-65q0-49-29.5-84.5T234-271z"/><glyph unicode="ļ" horiz-adv-x="301" d="M263 0H41v25q33 16 66 24v633l-76 8v26q26 12 65 21t76 15h25V49q33-8 66-24zM96-235q31 12 43 32.5t12 40.5q-11 9-30.5 18T86-130q-5 16-.5 30.5t13 26q8.5 11.5 20 19T141-47q33-3 56-25t23-65q0-24-8.5-45.5t-23-39q-14.5-17.5-34-30T112-269z"/><glyph unicode="Ľ" horiz-adv-x="549" d="M29 700h274v-29q-24-9-48-15.5t-48-9.5V52h230l59 161h26q3-21 5.5-48.5t4-57Q533 78 533 50t-1-50H29v29q24 11 44 16t38 8v593q-23 4-44 10.5T29 671zm313-196q10 22 18.5 47.5t13.5 51q5 25.5 8 49.5t3 44l12 16q8 1 21-1.5t26.5-7q13.5-4.5 25.5-11t19-13.5q-4-27-18-55.5T438.5 570q-18.5-25-39-45.5T362 493z"/><glyph unicode="ľ" horiz-adv-x="301" d="M263 0H41v25q33 16 66 24v633l-76 8v26q26 12 65 21t76 15h25V49q33-8 66-24zm-21 543q21 45 32 97.5t11 93.5l12 16q7 1 18.5-.5t23.5-5q12-3.5 22.5-8T378 727q-5-28-17.5-56.5t-29-54.5q-16.5-26-35-47.5T262 532z"/><glyph unicode="Ł" horiz-adv-x="549" d="M29 700h274v-29q-24-9-48-15.5t-48-9.5V392l135 84v-66l-135-84V52h230l59 161h26q3-21 5.5-48.5t4-57Q533 78 533 50t-1-50H29v29q24 11 44 16t38 8v214l-94-57v65l94 57v314q-23 4-44 10.5T29 671z"/><glyph unicode="ł" horiz-adv-x="325" d="M24 295l95 58v329l-76 8v26q26 12 65 21t76 15h25V409l92 57v-66l-92-57V49q33-8 66-24V0H53v25q33 16 66 24v239l-95-59z"/><glyph unicode="Ń" horiz-adv-x="732" d="M487 700h216v-29q-42-28-82-40V-12h-57L201 539l-39 78h-3l9-78V64q41-11 77-35V0H29v29q18 11 38.5 19.5T111 64v573q-20 8-39.5 17T35 672v28h169l315-475 46-86h4l-5 86v406q-21 9-40.5 19T487 671zm-17 193q9 1 23-1t28.5-6.5q14.5-4.5 27-11T567 861v-20l-226-91-17 19z"/><glyph unicode="ń" horiz-adv-x="594" d="M577 0H362v25q27 14 59 24v237q0 76-22 120t-80 44q-25 0-46.5-9t-38-24.5Q218 401 206 381.5T187 341V49q31-6 60-24V0H31v25q25 13 66 24v393l-66 8v26q26 11 60 20t71 16h25V400h1q21 46 60.5 79t95.5 33q40 0 71.5-9.5T468 469q21-24 32-64.5T511 302V49q40-7 66-24zM378 767q8 1 21-.5t27-4.5q14-3 26-7.5t18-9.5v-19L283 575l-22 18z"/><glyph unicode="Ņ" horiz-adv-x="732" d="M487 700h216v-29q-42-28-82-40V-12h-57L201 539l-39 78h-3l9-78V64q41-11 77-35V0H29v29q18 11 38.5 19.5T111 64v573q-20 8-39.5 17T35 672v28h169l315-475 46-86h4l-5 86v406q-21 9-40.5 19T487 671zM308-237q18 8 35.5 27t14.5 48q-11 8-31 17.5T292-130q-5 16-.5 30.5T305-73q9 12 20.5 19t22.5 8q34-4 60.5-26t26.5-65q0-49-29.5-84.5T323-271z"/><glyph unicode="ņ" horiz-adv-x="594" d="M577 0H362v25q27 14 59 24v237q0 76-22 120t-80 44q-25 0-46.5-9t-38-24.5Q218 401 206 381.5T187 341V49q31-6 60-24V0H31v25q25 13 66 24v393l-66 8v26q26 11 60 20t71 16h25V400h1q21 46 60.5 79t95.5 33q40 0 71.5-9.5T468 469q21-24 32-64.5T511 302V49q40-7 66-24zM247-235q31 12 43 32.5t12 40.5q-11 9-30.5 18T237-130q-5 16-.5 30.5t13 26q8.5 11.5 20 19T292-47q33-3 56-25t23-65q0-24-8.5-45.5t-23-39q-14.5-17.5-34-30T263-269z"/><glyph unicode="Ň" horiz-adv-x="732" d="M487 700h216v-29q-42-28-82-40V-12h-57L201 539l-39 78h-3l9-78V64q41-11 77-35V0H29v29q18 11 38.5 19.5T111 64v573q-20 8-39.5 17T35 672v28h169l315-475 46-86h4l-5 86v406q-21 9-40.5 19T487 671zm-7 188q8 0 15-5t10-12L378 759q-5-2-12.5-2.5T352 759L227 868q4 7 9.5 13.5T252 888l117-55z"/><glyph unicode="ň" horiz-adv-x="594" d="M577 0H362v25q27 14 59 24v237q0 76-22 120t-80 44q-25 0-46.5-9t-38-24.5Q218 401 206 381.5T187 341V49q31-6 60-24V0H31v25q25 13 66 24v393l-66 8v26q26 11 60 20t71 16h25V400h1q21 46 60.5 79t95.5 33q40 0 71.5-9.5T468 469q21-24 32-64.5T511 302V49q40-7 66-24zM404 796q9 1 17.5-4t11.5-12L309 595q-5-2-12-2.5t-13 2.5L163 779q4 8 14 13t20 4l107-106z"/><glyph unicode="Ō" horiz-adv-x="740" d="M53 350q0 78 21.5 144.5t62 115Q177 658 236 685t134 27q75 0 134-27t99.5-75.5q40.5-48.5 62-115T687 350q0-78-21.5-144.5t-62-115Q563 42 504 15T370-12q-75 0-134 27t-99.5 75.5q-40.5 48.5-62 115T53 350zm107 0q0-64 13.5-120.5T214 131q27-42 68-66.5T379 40q51 0 89 24.5t62.5 66.5q24.5 42 37 98.5T580 350q0 64-13 120.5T527 569q-27 42-68 66.5T362 660q-55 0-93.5-24.5T206 569q-24-42-35-98.5T160 350zm59 438v52h301v-52z"/><glyph unicode="ō" horiz-adv-x="553" d="M41 250q0 63 16.5 111.5t47.5 82q31 33.5 74.5 51T276 512q62 0 107-19t73.5-53.5q28.5-34.5 42-82.5T512 250q0-126-64-194T276-12q-60 0-104 18.5t-73 53q-29 34.5-43.5 83T41 250zm96 0q0-45 8.5-85t27-69.5Q191 66 221 49t72-17q54 0 88.5 53T416 250q0 46-8.5 85.5t-26.5 69Q363 434 335 451t-67 17q-59 0-95-53t-36-165zm13 387v52h253v-52z"/><glyph unicode="Ő" horiz-adv-x="740" d="M53 350q0 78 21.5 144.5t62 115Q177 658 236 685t134 27q75 0 134-27t99.5-75.5q40.5-48.5 62-115T687 350q0-78-21.5-144.5t-62-115Q563 42 504 15T370-12q-75 0-134 27t-99.5 75.5q-40.5 48.5-62 115T53 350zm107 0q0-64 13.5-120.5T214 131q27-42 68-66.5T379 40q51 0 89 24.5t62.5 66.5q24.5 42 37 98.5T580 350q0 64-13 120.5T527 569q-27 42-68 66.5T362 660q-55 0-93.5-24.5T206 569q-24-42-35-98.5T160 350zm165 538q6 1 18-1t25-5q13-3 23.5-8t13.5-10v-14l-131-92-19 18zm174 0q7 1 19-1t25-6q13-4 24-9t16-11l-1-10-177-95-21 18z"/><glyph unicode="ő" horiz-adv-x="553" d="M41 250q0 63 16.5 111.5t47.5 82q31 33.5 74.5 51T276 512q62 0 107-19t73.5-53.5q28.5-34.5 42-82.5T512 250q0-126-64-194T276-12q-60 0-104 18.5t-73 53q-29 34.5-43.5 83T41 250zm96 0q0-45 8.5-85t27-69.5Q191 66 221 49t72-17q54 0 88.5 53T416 250q0 46-8.5 85.5t-26.5 69Q363 434 335 451t-67 17q-59 0-95-53t-36-165zm109 518q6 1 19-.5t26.5-4.5q13.5-3 24.5-7.5t14-8.5v-15L192 598l-23 16zm173 0q7 1 19.5-.5t25-5.5q12.5-4 24-9.5T504 740v-13L305 598l-19 18z"/><glyph unicode="Œ" horiz-adv-x="954" d="M486 0q-26-5-57.5-8.5T370-12q-75 0-134 27t-99.5 75.5q-40.5 48.5-62 115T53 350q0 78 21.5 144.5t62 115Q177 658 236 685t134 27q23 0 54-3t60-9h392q-2-40-4-80.5t-7-81.5h-26l-42 110H580V383h162l40 74h24q8-99 0-202h-24l-40 76H580V52h230l48 120h26q6-42 9.5-85T895 0zM379 40q26 0 52.5 4T484 59v577q-26 11-57.5 17.5T362 660q-55 0-93.5-24.5T206 569q-24-42-35-98.5T160 350q0-64 13.5-120.5T214 131q27-42 68-66.5T379 40z"/><glyph unicode="œ" horiz-adv-x="876" d="M137 250q0-45 8.5-85t27-70Q191 65 221 48t72-17q54 0 88 53.5T415 250q0 46-8 85.5t-26 69Q363 434 335 451t-67 17q-60 0-95.5-53T137 250zM463 75q-17-24-39-40.5t-46.5-27Q353-3 327-7.5T276-12q-60 0-104 18.5t-73 53q-29 34.5-43.5 83T41 250q0 63 16.5 111.5t47.5 82q31 33.5 74.5 51T276 512q54 0 105-20t80-66q13 21 33 37.5t44 27q24 10.5 50.5 16T640 512q40 0 79-12.5t66-43q27-30.5 38.5-81T822 250H511q0-42 10.5-78.5T553 108q21-27 52.5-42.5T680 50q17 0 35.5 2.5T751 60q17 5 31 11.5T805 86l15-16q-8-17-25-32t-39.5-26Q733 1 707-5.5T654-12q-27 0-56 6.5t-55.5 18Q516 24 495 40t-32 35zm173 393q-56 0-86-38.5T514 294h219q7 78-16.5 126T636 468z"/><glyph unicode="Ŕ" horiz-adv-x="637" d="M207 53q23-5 44-10.5T292 29V0H29v29q22 10 42 15t40 9v593q-26 5-46 11.5T29 671v29h88q40 0 87.5 4t92.5 4q49 0 91.5-11t73.5-35q31-24 48.5-61t17.5-89q0-73-38.5-121T385 322q43-68 90-135t98-133l54-29V0H506l-38 28q-28 35-51 68.5t-43 68q-20 34.5-37.5 70T301 310h-94zm68 603q-24 0-39.5-1t-28.5-4V352h72q69 0 109.5 44T429 512q0 74-43 109t-111 35zm106 237q9 1 23-1t28.5-6.5q14.5-4.5 27-11T478 861v-20l-226-91-17 19z"/><glyph unicode="ŕ" horiz-adv-x="384" d="M244 425q-11-6-27.5-24.5T187 346V49q20-2 40-7.5T267 25V0H31v25q18 10 34 15t32 9v393l-66 8v26q32 14 66 22.5t65 13.5h25V406h4q9 20 25.5 40t38 36q21.5 16 47 24.5T354 512q7-13 12.5-28.5T377 451v-26zm30 342q8 1 21-.5t27-4.5q14-3 26-7.5t18-9.5v-19L179 575l-22 18z"/><glyph unicode="Ŗ" horiz-adv-x="637" d="M207 53q23-5 44-10.5T292 29V0H29v29q22 10 42 15t40 9v593q-26 5-46 11.5T29 671v29h88q40 0 87.5 4t92.5 4q49 0 91.5-11t73.5-35q31-24 48.5-61t17.5-89q0-73-38.5-121T385 322q43-68 90-135t98-133l54-29V0H506l-38 28q-28 35-51 68.5t-43 68q-20 34.5-37.5 70T301 310h-94zm68 603q-24 0-39.5-1t-28.5-4V352h72q69 0 109.5 44T429 512q0 74-43 109t-111 35zm-16-893q18 8 35.5 27t14.5 48q-11 8-31 17.5T243-130q-5 16-.5 30.5T256-73q9 12 20.5 19t22.5 8q34-4 60.5-26t26.5-65q0-49-29.5-84.5T274-271z"/><glyph unicode="ŗ" horiz-adv-x="384" d="M244 425q-11-6-27.5-24.5T187 346V49q20-2 40-7.5T267 25V0H31v25q18 10 34 15t32 9v393l-66 8v26q32 14 66 22.5t65 13.5h25V406h4q9 20 25.5 40t38 36q21.5 16 47 24.5T354 512q7-13 12.5-28.5T377 451v-26zM107-235q31 12 43 32.5t12 40.5q-11 9-30.5 18T97-130q-5 16-.5 30.5t13 26q8.5 11.5 20 19T152-47q33-3 56-25t23-65q0-24-8.5-45.5t-23-39q-14.5-17.5-34-30T123-269z"/><glyph unicode="Ř" horiz-adv-x="637" d="M207 53q23-5 44-10.5T292 29V0H29v29q22 10 42 15t40 9v593q-26 5-46 11.5T29 671v29h88q40 0 87.5 4t92.5 4q49 0 91.5-11t73.5-35q31-24 48.5-61t17.5-89q0-73-38.5-121T385 322q43-68 90-135t98-133l54-29V0H506l-38 28q-28 35-51 68.5t-43 68q-20 34.5-37.5 70T301 310h-94zm68 603q-24 0-39.5-1t-28.5-4V352h72q69 0 109.5 44T429 512q0 74-43 109t-111 35zm125 232q8 0 15-5t10-12L298 759q-5-2-12.5-2.5T272 759L147 868q4 7 9.5 13.5T172 888l117-55z"/><glyph unicode="ř" horiz-adv-x="384" d="M244 425q-11-6-27.5-24.5T187 346V49q20-2 40-7.5T267 25V0H31v25q18 10 34 15t32 9v393l-66 8v26q32 14 66 22.5t65 13.5h25V406h4q9 20 25.5 40t38 36q21.5 16 47 24.5T354 512q7-13 12.5-28.5T377 451v-26zm81 371q9 1 17.5-4t11.5-12L230 595q-5-2-12-2.5t-13 2.5L84 779q4 8 14 13t20 4l107-106z"/><glyph unicode="Ś" horiz-adv-x="536" d="M150 69q12-12 31-20.5t57-8.5q32 0 60 8.5t48.5 25Q367 90 379 113.5t12 53.5q0 40-24.5 67t-61 48Q269 303 226 323t-79.5 47.5q-36.5 27.5-61 66T61 533q0 42 15 75t42.5 56q27.5 23 65.5 35.5t85 12.5q61 0 111.5-9.5T460 679q0-17-2.5-39.5t-6-46.5q-3.5-24-7.5-46.5t-8-39.5h-26l-40 137q-18 8-45.5 12t-58.5 4q-51 0-82-28.5T153 552q0-41 24.5-69t61.5-50q37-22 79.5-42.5T398 343q37-27 61.5-64t24.5-92q0-45-16.5-82T420 42q-31-26-76-40T242-12q-63 0-113 15T58 35q1 17 3.5 41t6 49.5Q71 151 75 175t8 41h26zm215 824q9 1 23-1t28.5-6.5q14.5-4.5 27-11T462 861v-20l-226-91-17 19z"/><glyph unicode="ś" horiz-adv-x="433" d="M295 114q0 28-17.5 47.5T233 198q-27 17-57.5 33T118 268.5Q91 290 73.5 318T56 387q0 27 12.5 50t33.5 39.5q21 16.5 49 26t60 9.5q54 0 88.5-6t66.5-17q-4-32-9.5-64.5T341 358h-25l-38 102q-12 5-27 6.5t-31 1.5q-18 0-31.5-6.5t-23-16.5q-9.5-10-14.5-23t-5-26q0-27 17.5-46.5t44.5-36q27-16.5 57.5-32.5t57.5-36q27-20 44.5-46.5T385 135q0-34-14.5-61t-40-46Q305 9 271.5-1.5T200-12q-43 0-79 7.5T46 17q2 36 9 69.5T73 151h25l44-109q11-8 26.5-9t28.5-1q44 0 71 24t27 58zm-16 653q8 1 21-.5t27-4.5q14-3 26-7.5t18-9.5v-19L184 575l-22 18z"/><glyph unicode="Ŝ" horiz-adv-x="536" d="M150 69q12-12 31-20.5t57-8.5q32 0 60 8.5t48.5 25Q367 90 379 113.5t12 53.5q0 40-24.5 67t-61 48Q269 303 226 323t-79.5 47.5q-36.5 27.5-61 66T61 533q0 42 15 75t42.5 56q27.5 23 65.5 35.5t85 12.5q61 0 111.5-9.5T460 679q0-17-2.5-39.5t-6-46.5q-3.5-24-7.5-46.5t-8-39.5h-26l-40 137q-18 8-45.5 12t-58.5 4q-51 0-82-28.5T153 552q0-41 24.5-69t61.5-50q37-22 79.5-42.5T398 343q37-27 61.5-64t24.5-92q0-45-16.5-82T420 42q-31-26-76-40T242-12q-63 0-113 15T58 35q1 17 3.5 41t6 49.5Q71 151 75 175t8 41h26zm10 683l-14 19 127 112q5 3 12.5 3.5T299 883l125-109-15-21-127 56z"/><glyph unicode="ŝ" horiz-adv-x="433" d="M295 114q0 28-17.5 47.5T233 198q-27 17-57.5 33T118 268.5Q91 290 73.5 318T56 387q0 27 12.5 50t33.5 39.5q21 16.5 49 26t60 9.5q54 0 88.5-6t66.5-17q-4-32-9.5-64.5T341 358h-25l-38 102q-12 5-27 6.5t-31 1.5q-18 0-31.5-6.5t-23-16.5q-9.5-10-14.5-23t-5-26q0-27 17.5-46.5t44.5-36q27-16.5 57.5-32.5t57.5-36q27-20 44.5-46.5T385 135q0-34-14.5-61t-40-46Q305 9 271.5-1.5T200-12q-43 0-79 7.5T46 17q2 36 9 69.5T73 151h25l44-109q11-8 26.5-9t28.5-1q44 0 71 24t27 58zM122 590l-29 16 110 186q5 3 12.5 3.5T228 792l114-185-27-17-103 107z"/><glyph unicode="Ş" horiz-adv-x="536" d="M150 69q12-12 31-21t57-9q32 0 60 8.5t48.5 25Q367 89 379 113t12 54q0 40-24.5 67t-61 48Q269 303 226 323t-79.5 47.5q-36.5 27.5-61 66T61 533q0 42 15 75t42.5 56q27.5 23 65.5 35.5t85 12.5q61 0 111.5-9.5T460 679q0-17-2.5-39.5t-6-46.5q-3.5-24-7.5-46.5t-8-39.5h-26l-40 137q-18 8-45.5 12t-58.5 4q-51 0-82-28.5T153 552q0-41 24.5-69t61.5-50q37-22 79.5-42.5T398 343q37-27 61.5-64t24.5-92q0-85-55-137T274-10l-25-65q60-1 88.5-22.5T366-154q0-30-17.5-52t-44-37Q278-258 246-265t-61-7v33q40 6 67 22t26 45q-1 28-23 40.5T188-116l35 104q-57 2-101 16.5T58 35q1 17 3.5 41t6 49.5Q71 151 75 175t8 41h26z"/><glyph unicode="ş" horiz-adv-x="452" d="M314 114q0 33-19 53t-48 35q-29 15-62 28.5t-62 33Q94 283 75 312t-19 75q0 27 12 50t33.5 39.5q21.5 16.5 52 26T221 512q54 0 93-6t71-17q-4-32-9.5-64.5T360 358h-25l-38 102q-12 5-32 6.5t-36 1.5q-43 0-63-23t-20-49q0-30 19-49t48-34q29-15 62-28.5t62-32.5q29-19 48-46t19-68q0-67-49-106.5T223-11l-21-57q55-2 79.5-20.5T308-139q1-29-14.5-50.5T254-225q-24-14-53-20.5t-56-5.5v30q38 5 61 20t22 46q-1 25-21 36t-61 14l33 94Q109-6 46 17q2 36 9 69.5T73 151h25l44-109q11-8 31-9.5t34-1.5q49 0 78 24.5t29 58.5z"/><glyph unicode="Š" horiz-adv-x="536" d="M150 69q12-12 31-20.5t57-8.5q32 0 60 8.5t48.5 25Q367 90 379 113.5t12 53.5q0 40-24.5 67t-61 48Q269 303 226 323t-79.5 47.5q-36.5 27.5-61 66T61 533q0 42 15 75t42.5 56q27.5 23 65.5 35.5t85 12.5q61 0 111.5-9.5T460 679q0-17-2.5-39.5t-6-46.5q-3.5-24-7.5-46.5t-8-39.5h-26l-40 137q-18 8-45.5 12t-58.5 4q-51 0-82-28.5T153 552q0-41 24.5-69t61.5-50q37-22 79.5-42.5T398 343q37-27 61.5-64t24.5-92q0-45-16.5-82T420 42q-31-26-76-40T242-12q-63 0-113 15T58 35q1 17 3.5 41t6 49.5Q71 151 75 175t8 41h26zm241 819q8 0 15-5t10-12L289 759q-5-2-12.5-2.5T263 759L138 868q4 7 9.5 13.5T163 888l117-55z"/><glyph unicode="š" horiz-adv-x="433" d="M295 114q0 28-17.5 47.5T233 198q-27 17-57.5 33T118 268.5Q91 290 73.5 318T56 387q0 27 12.5 50t33.5 39.5q21 16.5 49 26t60 9.5q54 0 88.5-6t66.5-17q-4-32-9.5-64.5T341 358h-25l-38 102q-12 5-27 6.5t-31 1.5q-18 0-31.5-6.5t-23-16.5q-9.5-10-14.5-23t-5-26q0-27 17.5-46.5t44.5-36q27-16.5 57.5-32.5t57.5-36q27-20 44.5-46.5T385 135q0-34-14.5-61t-40-46Q305 9 271.5-1.5T200-12q-43 0-79 7.5T46 17q2 36 9 69.5T73 151h25l44-109q11-8 26.5-9t28.5-1q44 0 71 24t27 58zm28 682q9 1 17.5-4t11.5-12L228 595q-5-2-12-2.5t-13 2.5L82 779q4 8 14 13t20 4l107-106z"/><glyph unicode="Ţ" horiz-adv-x="619" d="M450 0H330l-29-75q60-1 88.5-22.5T418-154q0-30-17.5-52t-44-37Q330-258 298-265t-61-7v33q40 6 67 22t26 45q-1 28-23 40.5T240-116L279 0H169v29q22 8 44.5 14T262 53v595H109L56 505H31q-3 20-5 45.5t-3.5 52Q21 629 20 654.5T19 700h581q0-20-1-45t-2.5-51.5q-1.5-26.5-3-52T589 505h-26l-52 143H358V53q26-5 48.5-10T450 29z"/><glyph unicode="ţ" horiz-adv-x="371" d="M15 476q38 24 80 34v85q13 10 30.5 19.5T160 631h25V500h150v-50H185V160q0-60 19-85t57-25q18 0 45 2.5t46 9.5l7-15q-8-9-22.5-19t-33-19q-18.5-9-42-15T218-12l-11 1-21-57q55-2 79.5-20.5T292-139q1-29-14.5-50.5T238-225q-24-14-53-20.5t-56-5.5v30q38 5 61 20t22 46q-1 25-21 36t-61 14L165-3Q95 20 95 132v318H15z"/><glyph unicode="Ť" horiz-adv-x="619" d="M450 0H169v29q22 8 44.5 14T262 53v595H109L56 505H31q-3 20-5 45.5t-3.5 52Q21 629 20 654.5T19 700h581q0-20-1-45t-2.5-51.5q-1.5-26.5-3-52T589 505h-26l-52 143H358V53q26-5 48.5-10T450 29zm-26 888q8 0 15-5t10-12L322 759q-5-2-12.5-2.5T296 759L171 868q4 7 9.5 13.5T196 888l117-55z"/><glyph unicode="ť" horiz-adv-x="371" d="M15 476q38 24 80 34v85q13 10 30.5 19.5T160 631h25V500h150v-50H185V160q0-60 19-85t57-25q18 0 45 2.5t46 9.5l7-15q-8-9-22.5-19t-33-19Q285 0 263-6t-45-6q-60 0-91.5 34T95 132v318H15zm217 67q21 45 32 97.5t11 93.5l12 16q7 1 18.5-.5t23.5-5q12-3.5 22.5-8T368 727q-5-28-17.5-56.5t-29-54.5q-16.5-26-35-47.5T252 532z"/><glyph unicode="Ū" horiz-adv-x="672" d="M10 700h254v-29q-19-8-38-14t-38-11V237q0-53 11.5-88.5t33.5-57q22-21.5 54.5-31T361 51q79 0 123 43.5T528 238v399q-23 8-43 16.5T449 671v29h213v-29q-19-11-38.5-20T584 637V236q0-64-17-110t-47.5-76q-30.5-30-74-44.5T349-9Q224-9 158 47.5T92 221v425q-41 6-82 25zm195 88v52h301v-52z"/><glyph unicode="ū" horiz-adv-x="574" d="M77 198q0 63 3 123.5T83 442l-66 8v26q32 12 65.5 21t65.5 15h25q0-75-3-149t-3-147q0-39 4.5-70t16-52Q199 73 219 61.5T270 50q45 0 75.5 32.5T393 167v275l-65 8v26q31 12 64.5 21t65.5 15h25V57l66-8V28q-29-13-58.5-23T429-10h-25l-7 119h-4q-5-21-17.5-42.5t-32.5-39Q323 10 297.5-1T242-12q-40 0-70.5 9.5T120 31Q99 55 88 95.5T77 198zm83 439v52h253v-52z"/><glyph unicode="Ŭ" horiz-adv-x="672" d="M10 700h254v-29q-19-8-38-14t-38-11V237q0-53 11.5-88.5t33.5-57q22-21.5 54.5-31T361 51q79 0 123 43.5T528 238v399q-23 8-43 16.5T449 671v29h213v-29q-19-11-38.5-20T584 637V236q0-64-17-110t-47.5-76q-30.5-30-74-44.5T349-9Q224-9 158 47.5T92 221v425q-41 6-82 25zm456 183q16 2 32-14-9-22-23.5-42t-34-35Q421 777 398 768t-48-9q-54 0-94.5 29T196 871q12 19 42 15 7-12 19.5-22.5t28.5-18q16-7.5 33-12t32-4.5q32-1 63.5 11t51.5 43z"/><glyph unicode="ŭ" horiz-adv-x="574" d="M77 198q0 63 3 123.5T83 442l-66 8v26q32 12 65.5 21t65.5 15h25q0-75-3-149t-3-147q0-39 4.5-70t16-52Q199 73 219 61.5T270 50q45 0 75.5 32.5T393 167v275l-65 8v26q31 12 64.5 21t65.5 15h25V57l66-8V28q-29-13-58.5-23T429-10h-25l-7 119h-4q-5-21-17.5-42.5t-32.5-39Q323 10 297.5-1T242-12q-40 0-70.5 9.5T120 31Q99 55 88 95.5T77 198zm344 521q-9-22-21.5-44T370 636q-17-17-37.5-28T287 597q-27 0-48 9.5t-38 26q-17 16.5-30 39T149 721l28 13q7-13 19.5-24.5T224 689q15-9 32-14.5t32-5.5q68-2 109 61z"/><glyph unicode="Ů" horiz-adv-x="672" d="M10 700h254v-29q-19-8-38-14t-38-11V237q0-53 11.5-88.5t33.5-57q22-21.5 54.5-31T361 51q79 0 123 43.5T528 238v399q-23 8-43 16.5T449 671v29h213v-29q-19-11-38.5-20T584 637V236q0-64-17-110t-47.5-76q-30.5-30-74-44.5T349-9Q224-9 158 47.5T92 221v425q-41 6-82 25zm235 88q0 20 9 36t25 27q16 11 36.5 17t44.5 6q19 0 38.5-5t35.5-15q16-10 25.5-25.5T469 791q0-20-9-35t-24-25.5q-15-10.5-35-16t-42-5.5q-51 0-82.5 20.5T245 788zm56 0q0-20 17.5-29t36.5-9q26 0 42 9t16 28q0 26-18 36t-37 10q-25 0-41-9.5T301 788z"/><glyph unicode="ů" horiz-adv-x="574" d="M77 198q0 63 3 123.5T83 442l-66 8v26q32 12 65.5 21t65.5 15h25q0-75-3-149t-3-147q0-39 4.5-70t16-52Q199 73 219 61.5T270 50q45 0 75.5 32.5T393 167v275l-65 8v26q31 12 64.5 21t65.5 15h25V57l66-8V28q-29-13-58.5-23T429-10h-25l-7 119h-4q-5-21-17.5-42.5t-32.5-39Q323 10 297.5-1T242-12q-40 0-70.5 9.5T120 31Q99 55 88 95.5T77 198zm113 485q0 41 28.5 69t71.5 28q39 0 66.5-25t27.5-69q0-21-8-38t-21-29q-13-12-30.5-19t-35.5-7q-45 0-72 24t-27 66zm52 2q0-26 13.5-38.5T286 634q20 0 32.5 11.5T331 682q0 27-12 42t-32 15q-24 0-34.5-15T242 685z"/><glyph unicode="Ű" horiz-adv-x="672" d="M10 700h254v-29q-19-8-38-14t-38-11V237q0-53 11.5-88.5t33.5-57q22-21.5 54.5-31T361 51q79 0 123 43.5T528 238v399q-23 8-43 16.5T449 671v29h213v-29q-19-11-38.5-20T584 637V236q0-64-17-110t-47.5-76q-30.5-30-74-44.5T349-9Q224-9 158 47.5T92 221v425q-41 6-82 25zm299 188q6 1 18-1t25-5q13-3 23.5-8t13.5-10v-14l-131-92-19 18zm174 0q7 1 19-1t25-6q13-4 24-9t16-11l-1-10-177-95-21 18z"/><glyph unicode="ű" horiz-adv-x="574" d="M77 198q0 63 3 123.5T83 442l-66 8v26q32 12 65.5 21t65.5 15h25q0-75-3-149t-3-147q0-39 4.5-70t16-52Q199 73 219 61.5T270 50q45 0 75.5 32.5T393 167v275l-65 8v26q31 12 64.5 21t65.5 15h25V57l66-8V28q-29-13-58.5-23T429-10h-25l-7 119h-4q-5-21-17.5-42.5t-32.5-39Q323 10 297.5-1T242-12q-40 0-70.5 9.5T120 31Q99 55 88 95.5T77 198zm169 570q6 1 19-.5t26.5-4.5q13.5-3 24.5-7.5t14-8.5v-15L192 598l-23 16zm173 0q7 1 19.5-.5t25-5.5q12.5-4 24-9.5T504 740v-13L305 598l-19 18z"/><glyph unicode="Ų" horiz-adv-x="672" d="M10 700h254v-29q-19-8-38-14t-38-11V237q0-53 11.5-88.5t33.5-57q22-21.5 54.5-31T361 51q79 0 123 43.5T528 238v399q-23 8-43 16.5T449 671v29h213v-29q-19-11-38.5-20T584 637V236q0-93-34-148.5T455 8q-24-12-45-27t-36.5-33q-15.5-18-25-38.5T339-135q0-28 17.5-46t49.5-18q31 0 55 6v-29q-14-11-36-20t-55-9q-23 0-43.5 7t-36 20Q275-211 266-192.5t-9 40.5q0 48 31 81.5T370-8q-5-1-10.5-1H349Q224-9 158 47.5T92 221v425q-41 6-82 25z"/><glyph unicode="ų" horiz-adv-x="574" d="M77 198q0 63 3 123.5T83 442l-66 8v26q32 12 71.5 24t71.5 12h13q0-75-3-149t-3-147q0-39 4.5-70t16-52Q199 73 219 61.5T270 50q45 0 75.5 32.5T393 167v275l-65 8v26q31 12 64.5 21t65.5 15h25V57l66-8V28q-12-5-23.5-10T502 8q-40-22-66-53t-26-73q0-10 3.5-20.5T424-158q7-9 18-14.5t26-5.5q15 0 27.5 2.5T522-169v-33q-14-8-36-14t-40-6q-59 0-89 25t-30 63q0 40 25.5 70.5T420-10h-16l-7 119h-4q-5-21-17.5-42t-32-38.5Q324 11 299-.5T244-12h-19.5q-9.5 0-18.5 2-32 4-56 16.5t-40 37Q94 68 85.5 106T77 198z"/><glyph unicode="Ÿ" horiz-adv-x="644" d="M424 700h220v-29q-38-19-76-25L379 298V53q39-5 76-24V0H201v29q36 18 82 24v244L81 646q-23 4-42.5 10.5T0 671v29h265v-29q-15-6-34-12.5T188 646l164-294 154 294q-23 5-43.5 11.5T424 671zm-247 89q0 24 16 36t41 12q24 0 40-12t16-36q0-23-16-35t-40-12q-25 0-41 12t-16 35zm223 0q0 24 16 36t40 12q25 0 41-12t16-36q0-23-16-35t-41-12q-24 0-40 12t-16 35z"/><glyph unicode="Ź" horiz-adv-x="610" d="M533 192h26q3-20 5.5-45t4-51q1.5-26 2-51T570 0H39v51l416 597H147L86 508H61q-3 21-5.5 46t-4 51q-1.5 26-2 50.5T49 700h511v-52L146 52h326zM402 893q9 1 23-1t28.5-6.5q14.5-4.5 27-11T499 861v-20l-226-91-17 19z"/><glyph unicode="ź" horiz-adv-x="488" d="M423 171q7-42 10.5-84.5T435 0H43v25l285 431H139L95 338H70q-8 43-9.5 84.5T59 500h376v-26L149 44h195l54 127zM296 767q8 1 21-.5t27-4.5q14-3 26-7.5t18-9.5v-19L201 575l-22 18z"/><glyph unicode="Ż" horiz-adv-x="610" d="M533 192h26q3-20 5.5-45t4-51q1.5-26 2-51T570 0H39v51l416 597H147L86 508H61q-3 21-5.5 46t-4 51q-1.5 26-2 50.5T49 700h511v-52L146 52h326zM237 817q0 26 19 40t46 14q27 0 45-14t18-40q0-26-18-40t-45-14q-27 0-46 14t-19 40z"/><glyph unicode="ż" horiz-adv-x="488" d="M423 171q7-42 10.5-84.5T435 0H43v25l285 431H139L95 338H70q-8 43-9.5 84.5T59 500h376v-26L149 44h195l54 127zM180 670q0 27 17.5 43t46.5 16q29 0 46-16t17-43q0-27-17-42.5T244 612q-29 0-46.5 15.5T180 670z"/><glyph unicode="Ž" horiz-adv-x="610" d="M533 192h26q3-20 5.5-45t4-51q1.5-26 2-51T570 0H39v51l416 597H147L86 508H61q-3 21-5.5 46t-4 51q-1.5 26-2 50.5T49 700h511v-52L146 52h326zM420 888q8 0 15-5t10-12L318 759q-5-2-12.5-2.5T292 759L167 868q4 7 9.5 13.5T192 888l117-55z"/><glyph unicode="ž" horiz-adv-x="488" d="M423 171q7-42 10.5-84.5T435 0H43v25l285 431H139L95 338H70q-8 43-9.5 84.5T59 500h376v-26L149 44h195l54 127zm-72 625q9 1 17.5-4t11.5-12L256 595q-5-2-12-2.5t-13 2.5L110 779q4 8 14 13t20 4l107-106z"/><glyph unicode="ſ" horiz-adv-x="342" d="M306 752q9 0 21-1t25-2.5q13-1.5 25-4t21-5.5q-3-33-8.5-61.5T376 626h-25l-44 86q-29 0-49.5-6t-34-23q-13.5-17-20-49t-6.5-84V49q52-6 96-24V0H41v25q31 18 66 24v401H31v26q35 22 76 33v35q0 62 15 102.5t42 64q27 23.5 63.5 32.5t78.5 9z"/><glyph unicode="ƒ" horiz-adv-x="533" d="M196 450h-73v26q20 11 42.5 19.5T208 509l7 35q13 62 35.5 102.5t52.5 64q30 23.5 66 32.5t77 9q16 0 39.5-4t39.5-12q-1-22-9.5-45.5T487 650l-76 62q-18-5-33.5-11t-29-22.5Q335 662 323.5 632T301 550l-10-50h111q5-25-11-50H280L217 43q-11-71-37-118t-55-76q-29-29-57-43t-44-18l-7 19q12 6 28.5 22t33 42.5Q95-102 109.5-64T132 24z"/><glyph unicode="Ǵ" horiz-adv-x="688" d="M609 48q-19-11-44.5-21.5t-54-19q-28.5-8.5-57-14T400-12q-80 0-144 21.5t-109 66Q102 120 77.5 188T53 350q0 98 28.5 167t76 112.5q47.5 43.5 108 63T389 712q66 0 111.5-8.5T580 678q0-15-1-37t-3-46q-2-24-5-47.5t-6-41.5h-26l-52 144q-11 6-37 8t-51 2q-50 0-95-18.5t-78.5-57Q192 546 172 487.5T152 350q0-71 19.5-128t54-97.5Q260 84 306.5 62T407 40q20 0 39 4t35 9.5Q497 59 507.5 65T522 75v202q-26 2-49.5 9T426 301v29h245v-29q-10-7-24-13t-38-11zM469 893q9 1 23-1t28.5-6.5q14.5-4.5 27-11T566 861v-20l-226-91-17 19z"/><glyph unicode="ǵ" horiz-adv-x="526" d="M247 512q54 0 91-10.5t62-32.5q59 40 123 58 8-11 11.5-27t3.5-30l-13-24H420q25-36 25-95 0-72-50.5-117T247 189q-19 0-31 1t-27 3q-5-9-11.5-20t-6.5-23q0-20 23-31.5T251.5 98q34.5-9 75-18.5t75.5-26q35-16.5 58.5-43T485-58q1-36-16.5-65T420-171.5q-31-19.5-74.5-30T250-212q-109 0-164.5 37T30-82q0 27 8.5 47T63 0q16 15 40 26.5T158 48q-22 10-36.5 27.5T107 118q0 23 19.5 45.5T166 199q-57 15-87.5 57T48 351q0 34 13 63.5T99 466q25 22 62 34t86 12zM395-81q0 32-21.5 51T320 1q-32 12-69 20t-69 18q-38-23-50-48.5T120-62q0-53 38-79.5T268-168q37 0 61.5 7t39 18.5Q383-131 389-115t6 34zM138 351q0-24 5.5-45.5t18-37.5q12.5-16 33.5-25.5t52-9.5q58 0 83 34t25 84q0 54-24.5 85.5T247 468q-61 0-85-30.5T138 351zm196 416q8 1 21-.5t27-4.5q14-3 26-7.5t18-9.5v-19L239 575l-22 18z"/><glyph unicode="Ș" horiz-adv-x="536" d="M150 69q12-12 31-20.5t57-8.5q32 0 60 8.5t48.5 25Q367 90 379 113.5t12 53.5q0 40-24.5 67t-61 48Q269 303 226 323t-79.5 47.5q-36.5 27.5-61 66T61 533q0 42 15 75t42.5 56q27.5 23 65.5 35.5t85 12.5q61 0 111.5-9.5T460 679q0-17-2.5-39.5t-6-46.5q-3.5-24-7.5-46.5t-8-39.5h-26l-40 137q-18 8-45.5 12t-58.5 4q-51 0-82-28.5T153 552q0-41 24.5-69t61.5-50q37-22 79.5-42.5T398 343q37-27 61.5-64t24.5-92q0-45-16.5-82T420 42q-31-26-76-40T242-12q-63 0-113 15T58 35q1 17 3.5 41t6 49.5Q71 151 75 175t8 41h26zm59-306q18 8 35.5 27t14.5 48q-11 8-31 17.5T193-130q-5 16-.5 30.5T206-73q9 12 20.5 19t22.5 8q34-4 60.5-26t26.5-65q0-49-29.5-84.5T224-271z"/><glyph unicode="ș" horiz-adv-x="433" d="M295 114q0 28-17.5 47.5T233 198q-27 17-57.5 33T118 268.5Q91 290 73.5 318T56 387q0 27 12.5 50t33.5 39.5q21 16.5 49 26t60 9.5q54 0 88.5-6t66.5-17q-4-32-9.5-64.5T341 358h-25l-38 102q-12 5-27 6.5t-31 1.5q-18 0-31.5-6.5t-23-16.5q-9.5-10-14.5-23t-5-26q0-27 17.5-46.5t44.5-36q27-16.5 57.5-32.5t57.5-36q27-20 44.5-46.5T385 135q0-34-14.5-61t-40-46Q305 9 271.5-1.5T200-12q-43 0-79 7.5T46 17q2 36 9 69.5T73 151h25l44-109q11-8 26.5-9t28.5-1q44 0 71 24t27 58zM146-235q31 12 43 32.5t12 40.5q-11 9-30.5 18T136-130q-5 16-.5 30.5t13 26q8.5 11.5 20 19T191-47q33-3 56-25t23-65q0-24-8.5-45.5t-23-39q-14.5-17.5-34-30T162-269z"/><glyph unicode="Ț" horiz-adv-x="619" d="M450 0H169v29q22 8 44.5 14T262 53v595H109L56 505H31q-3 20-5 45.5t-3.5 52Q21 629 20 654.5T19 700h581q0-20-1-45t-2.5-51.5q-1.5-26.5-3-52T589 505h-26l-52 143H358V53q26-5 48.5-10T450 29zM258-237q18 8 35.5 27t14.5 48q-11 8-31 17.5T242-130q-5 16-.5 30.5T255-73q9 12 20.5 19t22.5 8q34-4 60.5-26t26.5-65q0-49-29.5-84.5T273-271z"/><glyph unicode="ț" horiz-adv-x="371" d="M15 476q38 24 80 34v85q13 10 30.5 19.5T160 631h25V500h150v-50H185V160q0-60 19-85t57-25q18 0 45 2.5t46 9.5l7-15q-8-9-22.5-19t-33-19Q285 0 263-6t-45-6q-60 0-91.5 34T95 132v318H15zm122-711q31 12 43 32.5t12 40.5q-11 9-30.5 18T127-130q-5 16-.5 30.5t13 26q8.5 11.5 20 19T182-47q33-3 56-25t23-65q0-24-8.5-45.5t-23-39q-14.5-17.5-34-30T153-269z"/><glyph unicode="ȷ" horiz-adv-x="288" d="M106 442l-66 8v26q29 14 63.5 22.5T171 512h25V43q0-71-18-118t-42-76q-24-29-49-43t-40-18l-12 19q12 6 24.5 21t23 41.5Q93-104 99.5-66t6.5 90z"/><glyph unicode="ʼ" horiz-adv-x="282" d="M60 474q39 12 64.5 41t20.5 67q-11 9-31 18t-35 15q-5 16-.5 31T92 672.5q9 11.5 20.5 19T135 699q33-3 60-25.5t27-66.5q0-24-10-50t-29-49q-19-23-46-41t-60-27z"/><glyph unicode="ˆ" horiz-adv-x="369" d="M89 590l-29 16 110 186q5 3 12.5 3.5T195 792l114-185-27-17-103 107z"/><glyph unicode="ˇ" horiz-adv-x="390" d="M301 796q9 1 17.5-4t11.5-12L206 595q-5-2-12-2.5t-13 2.5L60 779q4 8 14 13t20 4l107-106z"/><glyph unicode="˘" horiz-adv-x="392" d="M332 719q-9-22-21.5-44T281 636q-17-17-37.5-28T198 597q-27 0-48 9.5t-38 26q-17 16.5-30 39T60 721l28 13q7-13 19.5-24.5T135 689q15-9 32-14.5t32-5.5q68-2 109 61z"/><glyph unicode="˙" horiz-adv-x="247" d="M60 670q0 27 17.5 43t46.5 16q29 0 46-16t17-43q0-27-17-42.5T124 612q-29 0-46.5 15.5T60 670z"/><glyph unicode="˚" horiz-adv-x="314" d="M60 683q0 41 28.5 69t71.5 28q39 0 66.5-25t27.5-69q0-21-8-38t-21-29q-13-12-30.5-19t-35.5-7q-45 0-72 24t-27 66zm52 2q0-26 13.5-38.5T156 634q20 0 32.5 11.5T201 682q0 27-12 42t-32 15q-24 0-34.5-15T112 685z"/><glyph unicode="˛" horiz-adv-x="318" d="M258 20Q234 9 213.5-5t-36-31.5Q162-54 153-74t-9-44q0-10 3-20.5t10-19.5q7-9 18-14.5t27-5.5q14 0 26.5 2.5T255-169v-33q-14-8-35.5-14t-39.5-6q-60 0-90 25t-30 63q0 27 12.5 50T107-42q22 19 51.5 34.5T221 20z"/><glyph unicode="˜" horiz-adv-x="427" d="M367 672q-32-32-58.5-44.5T259 615q-18 0-34 5.5T194 632q-15 6-29.5 11.5T135 649q-13 0-26.5-5T79 625l-19 28q37 35 66 47t52 12q18 0 33.5-5t29.5-11q14-6 28.5-11t29.5-5q13 0 26 4.5t29 15.5z"/><glyph unicode="˝" horiz-adv-x="455" d="M137 768q6 1 19-.5t26.5-4.5q13.5-3 24.5-7.5t14-8.5v-15L83 598l-23 16zm173 0q7 1 19.5-.5t25-5.5q12.5-4 24-9.5T395 740v-13L196 598l-19 18z"/><glyph unicode="́" horiz-adv-x="0" d="M-185 767q8 1 21-.5t27-4.5q14-3 26-7.5t18-9.5v-19l-187-151-22 18z"/><glyph unicode="Δ" horiz-adv-x="648" d="M20 0v31l293 669h28L628 31V0zm286 563L91 61h421z"/><glyph unicode="Ω" horiz-adv-x="797" d="M57 0q0 18 1 42.5t2.5 51Q62 120 64 146t4 48h25l44-118h159q-44 16-84 43.5T141.5 185Q111 223 93 271.5T75 377q0 76 23 137.5T164 620q43 44 104.5 68T406 712q78 0 137-23t99.5-66q40.5-43 61-103T724 387q0-62-19.5-113T654 183.5Q623 144 585 117t-75-41h149l45 118h25q2-22 4-48t3.5-52.5q1.5-26.5 2.5-51T740 0H458v83q24 10 52 34t52 61q24 37 40 86.5T618 376q0 58-13 110t-39.5 90.5q-26.5 38.5-66 61T406 660q-60 0-103-22t-70-59.5q-27-37.5-39.5-87T181 387q0-62 17-113.5t42.5-91q25.5-39.5 55-65T349 83V0z"/><glyph unicode="π" horiz-adv-x="615" d="M556 50V29q-29-13-67-23T419-9h-25v446H203V247q0-32-2.5-66t-8-66.5q-5.5-32.5-13-62T163 0q-9-5-26-5.5t-33 0Q88-5 76-3T64 0l-5 8q22 34 40 87t30.5 113q12.5 60 19 120.5T155 437h-17q-28 0-54-14.5T35 378l-13 8q5 25 13 47t23.5 38.5q15.5 16.5 41 26T165 506q11 0 40.5-1t69-2q39.5-1 84.5-2t86-1q32 0 53.5.5t36 3.5q14.5 3 24.5 8t20 14h14q-4-41-26-65t-65-24h-12V58z"/><glyph unicode="Ё" horiz-adv-x="582" d="M503 700q-1-40-3.5-80.5T492 538h-26l-41 110H207V383h163l39 74h25q6-99 0-202h-25l-39 76H207V52h230l49 120h25q7-42 10-85t1-87H29v29q35 16 82 24v593q-20 4-41 10.5T29 671v29zm-377 89q0 24 16 36t41 12q24 0 40-12t16-36q0-23-16-35t-40-12q-25 0-41 12t-16 35zm223 0q0 24 16 36t40 12q25 0 41-12t16-36q0-23-16-35t-41-12q-24 0-40 12t-16 35z"/><glyph unicode="Ђ" horiz-adv-x="751" d="M712 238q0-75-15.5-122T654 42.5q-27-26.5-64.5-36T507-3l-6 27q26 6 47 17t36 33.5Q599 97 607.5 134t8.5 95q0 70-28 111.5T494 382q-42 0-80-12.5T348 340V53q19-5 36.5-11T419 29V0H160v29q21 8 43.5 14T252 53v595H99L47 505H21q-3 20-4.5 45.5t-3 52Q12 629 11 654.5T10 700h580q0-20-1-44.5t-2.5-50.5q-1.5-26-3-51t-4.5-46h-26l-52 140H348V389q27 15 72 30t102 15q42 0 76.5-8.5t60-30Q684 374 698 336t14-98z"/><glyph unicode="Ѓ" horiz-adv-x="507" d="M207 53q49-8 96-24V0H29v29q40 16 82 24v593q-20 4-41 10.5T29 671v29h468q0-20-1-46t-2-54q-1-28-3-54.5t-5-47.5h-26l-52 150H207zm162 840q9 1 23-1t28.5-6.5q14.5-4.5 27-11T466 861v-20l-226-91-17 19z"/><glyph unicode="Є" horiz-adv-x="643" d="M547 182h26q5-28 9-70.5t2-82.5q-15-12-36-19.5T503.5-3q-23.5-5-48-7T409-12q-84 0-150 21.5T147.5 75q-45.5 44-70 112.5T53 350q0 98 27 166.5t73 112Q199 672 260 692t128 20q66 0 111-8.5t79-25.5q0-16-1-37.5t-3-45.5q-2-24-5-47t-6-42h-26l-52 144q-11 6-36.5 8t-50.5 2q-48 0-91-17.5T230.5 590Q197 555 176 501.5T152 375l328 14q13-40 4-78-35 3-77.5 5.5t-87 5q-44.5 2.5-87.5 4t-80 1.5q3-66 22.5-119t53-90.5Q261 80 308.5 60T416 40q33 0 55 5t29 13z"/><glyph unicode="Ѕ" horiz-adv-x="536" d="M150 69q12-12 31-20.5t57-8.5q32 0 60 8.5t48.5 25Q367 90 379 113.5t12 53.5q0 40-24.5 67t-61 48Q269 303 226 323t-79.5 47.5q-36.5 27.5-61 66T61 533q0 42 15 75t42.5 56q27.5 23 65.5 35.5t85 12.5q61 0 111.5-9.5T460 679q0-17-2.5-39.5t-6-46.5q-3.5-24-7.5-46.5t-8-39.5h-26l-40 137q-18 8-45.5 12t-58.5 4q-51 0-82-28.5T153 552q0-41 24.5-69t61.5-50q37-22 79.5-42.5T398 343q37-27 61.5-64t24.5-92q0-45-16.5-82T420 42q-31-26-76-40T242-12q-63 0-113 15T58 35q1 17 3.5 41t6 49.5Q71 151 75 175t8 41h26z"/><glyph unicode="І" horiz-adv-x="352" d="M304 0H48v29q39 18 80 24v593q-20 4-40 10.5T48 671v29h256v-29q-18-8-39-14.5T224 646V53q21-4 42-10t38-14z"/><glyph unicode="Ї" horiz-adv-x="352" d="M32 789q0 24 15.5 36T88 837q24 0 40-12t16-36q0-23-16-35t-40-12q-25 0-40.5 12T32 789zm176 0q0 24 16 36t40 12q25 0 40.5-12t15.5-36q0-23-15.5-35T264 742q-24 0-40 12t-16 35zM304 0H48v29q39 18 80 24v593q-20 4-40 10.5T48 671v29h256v-29q-18-8-39-14.5T224 646V53q21-4 42-10t38-14z"/><glyph unicode="Ј" horiz-adv-x="341" d="M39 700h254v-29q-18-8-37-14.5T217 646V86q0-70-16-115t-39.5-72.5Q138-129 111.5-142T63-160l-11 15q15 13 27.5 29.5t22 41.5Q111-49 116-13t5 88v571q-22 5-43 11t-39 14z"/><glyph unicode="Љ" horiz-adv-x="921" d="M372 0v29q38 18 76 24v595H261q-4-157-14.5-260.5t-26.5-171Q204 149 183.5 109T139 38Q119 12 90 0T34-12q-7 8-14.5 22.5t-14 31Q-1 58-5 74.5t-5 29.5l15 25 115-21q15 25 29.5 66t26 104.5Q187 342 194.5 431t7.5 210q-62 10-102 30v29h532v-29q-19-8-41-14.5T544 646V417q18 2 44 4.5t46 2.5q49 0 94-9t79-32q34-23 54.5-63T882 218q0-59-23-100.5T799 49q-37-27-84-39.5T620-3q-5 0-19.5.5t-32.5 1q-18 .5-38 1T495 0zm240 372q-24 0-39-.5t-29-4.5V53q5-2 14.5-2.5t20-1Q589 49 599 49h16q70 0 115 42t45 128q0 75-40.5 114T612 372z"/><glyph unicode="Њ" horiz-adv-x="994" d="M446 0v29q20 9 37 15t38 9v293H207V53q20-4 39-10t36-14V0H29v29q40 16 82 24v593q-47 7-82 25v29h253v-29q-17-9-36-15t-39-10V398h314v248q-20 5-37.5 11T446 671v29h259v-29q-19-8-41-14.5T617 646V397q18 3 44 5t46 2q49 0 94-9t79-31.5q34-22.5 54.5-61T955 205q0-58-22.5-97.5t-59.5-64Q836 19 789 8T693-3q-5 0-19.5.5t-32.5 1q-18 .5-38 1T568 0zm240 351q-24 0-39.5-.5T617 346V53q5-2 14.5-2.5t20.5-1q11-.5 21-.5h15q35 0 64.5 9T803 86q21 19 33 48.5t12 70.5q0 69-40.5 107.5T686 351z"/><glyph unicode="Ћ" horiz-adv-x="775" d="M348 648V389q27 15 67 30t97 15q42 0 75.5-8.5t57-29.5q23.5-21 36-57t12.5-92V53q36-6 72-24V0H597v229q0 35-5.5 63t-18 48Q561 360 539 371t-55 11q-42 0-75-12.5T348 340V53q19-5 36.5-11T419 29V0H160v29q21 8 43.5 14T252 53v595H99L47 505H21q-3 20-4.5 45.5t-3 52Q12 629 11 654.5T10 700h580q0-20-1-44.5t-2.5-50.5q-1.5-26-3-51t-4.5-45h-26l-52 139z"/><glyph unicode="Ќ" horiz-adv-x="646" d="M382 700h221v-29q-20-9-39-15t-37-10L326 380q25-33 57.5-74t68-84.5q35.5-43.5 73-88T598 49l48-24V0H521l-34 24q-59 69-117.5 149T256 335h-49V53q46-8 75-24V0H29v29q40 16 82 24v593q-45 6-82 25v29h253v-29q-16-7-35-13.5T207 646V369l60 14 187 263q-20 5-38 11t-34 14zm37 193q9 1 23-1t28.5-6.5q14.5-4.5 27-11T516 861v-20l-226-91-17 19z"/><glyph unicode="Ў" horiz-adv-x="660" d="M522 646q-50 9-85 25v29h223v-29q-13-6-31-12.5T588 646L392 201q-21-54-42-95.5T307 38Q285 12 260 .5T206-5q-6 9-11.5 23T185 47q-4 15-7 29.5t-4 26.5l15 25 103-27q4 4 8.5 12t9 18q4.5 10 8.5 20t6 18L75 646q-19 5-38 11T0 671v29h263v-29q-17-7-37.5-13.5T182 646l166-331 21-64h2l20 66zm-170 86q-92 0-134.5 36.5T175 859q11 11 32.5 16t42.5 6l25-13v-85q14-7 34.5-10.5T353 769q17 0 40.5 3t37.5 8v88l25 13q15 1 36.5-5.5T527 859q0-27-10-50t-31-40q-21-17-54-27t-80-10z"/><glyph unicode="Џ" horiz-adv-x="718" d="M282 671q-34-15-75-25V52h304v594q-54 12-75 25v29h253v-29q-21-10-41.5-16.5T607 646V53q21-4 42-9t40-15V0H406q-6-47-14.5-94.5T372-191h-26q-10 49-18 96.5T312 0H29v29q40 16 82 24v593q-27 4-47 10.5T29 671v29h253z"/><glyph unicode="А" horiz-adv-x="683" d="M222 0H0v29q36 16 72 24l253 659h29L607 53q20-4 39.5-9T683 29V0H427v29q20 8 41 14t41 10l-68 183H202L136 53q42-6 86-24zm0 288h202l-79 212-19 86h-2l-25-88z"/><glyph unicode="Б" horiz-adv-x="600" d="M111 646q-23 4-43 10.5T29 671v29h479q1-40-2-89.5t-9-91.5h-26l-52 129H207V407q18 2 44.5 4.5T298 414q49 0 94-10.5t79.5-34.5q34.5-24 55-63.5T547 208q0-55-21.5-94.5T468 48q-36-26-84-38.5T283-3q-5 0-19.5.5t-33.5 1q-19 .5-39 1T156 0H29v29q39 18 82 24zm165-284q-24 0-39.5-1t-29.5-4V53q5-2 14.5-2.5t20.5-1q11-.5 21-.5h16q35 0 64.5 9.5t51 29.5q21.5 20 33.5 50t12 71q0 74-41 113.5T276 362z"/><glyph unicode="В" horiz-adv-x="615" d="M29 0v29q40 19 82 24v593q-20 4-41 10.5T29 671v29h106q19 0 36.5 1t36.5 2q19 1 41 2t50 1q40 0 81.5-6.5t75-24.5q33.5-18 54.5-50.5t21-84.5q0-26-8-52t-24.5-48.5Q482 417 457 400t-59-25v-4q30-5 59.5-17t52.5-32.5q23-20.5 37.5-50.5t14.5-72q0-54-24-93t-62.5-64Q437 17 388 5.5T289-6q-35 0-79 3t-85 3zm267 46q36 0 67.5 11t54 30.5q22.5 19.5 35.5 47t13 59.5q0 40-15.5 66.5t-42 42Q382 318 347.5 324t-71.5 6h-75V54q14-4 33.5-6t61.5-2zm-45 336q17 0 40.5 1.5T330 387q46 16 75.5 51.5T435 522q0 66-39.5 99T290 654q-31 0-53-1t-36-3V382z"/><glyph unicode="Г" horiz-adv-x="507" d="M207 53q49-8 96-24V0H29v29q40 16 82 24v593q-20 4-41 10.5T29 671v29h468q0-20-1-46t-2-54q-1-28-3-54.5t-5-47.5h-26l-52 150H207z"/><glyph unicode="Д" horiz-adv-x="685" d="M669 52q0-20-2-46.5T662-49q-3-28-6.5-55t-6.5-47h-26L581 0H88L46-151H21q-5 19-8.5 46t-6 55.5Q4-21 2 5.5T0 52h83q26 42 49 107.5t39.5 144Q188 382 198 469t10 172q-26 5-51.5 12T106 671v29h531v-29q-17-7-37-13.5T555 646V52zm-210 0v596H266q-6-123-19.5-219.5t-31-170Q198 185 179.5 134T146 52z"/><glyph unicode="Е" horiz-adv-x="582" d="M503 700q-1-40-3.5-80.5T492 538h-26l-41 110H207V383h163l39 74h25q6-99 0-202h-25l-39 76H207V52h230l49 120h25q7-42 10-85t1-87H29v29q35 16 82 24v593q-20 4-41 10.5T29 671v29z"/><glyph unicode="Ж" horiz-adv-x="947" d="M424 646q-21 6-39 12t-32 13v29h232v-29q-12-6-28.5-12T520 646V369l68 14 168 263q-20 6-37.5 12.5T684 671v29h220v-29q-18-8-37-14t-38-11L647 380q26-33 55-74t60.5-85q31.5-44 66-88T900 49l47-24V0H822l-34 25q-59 69-107.5 148.5T578 335h-58V53q17-5 33.5-10.5T585 29V0H352v29q30 16 72 24v291l-60-15q-54-82-100-158.5T159 25L125 0H0v25l47 24q37 40 72 83t67 85q32 42 60 81.5t51 72.5L109 646q-41 12-71 25v29h221v-29q-14-7-31-13.5T191 646l169-269h64z"/><glyph unicode="З" horiz-adv-x="554" d="M241-12q-56 0-106.5 11T50 27q0 16 2 36.5t5.5 43q3.5 22.5 8 45T75 194h26l42-140q6-3 17-5.5t24.5-4.5q13.5-2 28-3t27.5-1q37 0 67.5 12T360 84.5q22 20.5 34 48.5t12 61q0 40-12.5 67T360 304.5Q339 321 311.5 328t-57.5 7l-77-11q-7 31-1 58h32q17 0 41 1.5t40 3.5q46 16 70.5 51.5T384 522q0 66-37.5 102T243 660q-33 0-52.5-5.5T164 641l-52-122H86q-5 27-8.5 69T75 671q15 12 36.5 19.5T156 703q23 5 47.5 7t45.5 2q40 0 81-7t74.5-26.5q33.5-19.5 54.5-53t21-85.5q0-51-29.5-95.5T357 375v-4q30-5 56.5-17.5t46-33q19.5-20.5 31-50.5t11.5-71q0-54-21.5-94T423 39Q387 13 339.5.5T241-12z"/><glyph unicode="И" horiz-adv-x="739" d="M282 0H29v29q40 18 82 24v593q-20 5-41 11t-41 14v29h253v-29q-16-8-34-14t-41-11V212l-11-75 48 79 293 406v24q-23 5-43.5 11.5T456 671v29h254v-29q-18-8-39-14t-43-11V53q47-8 82-24V0H456v29q16 7 35 13.5T532 53v433l10 75-44-75L201 75V53q23-4 43.5-10T282 29z"/><glyph unicode="Й" horiz-adv-x="739" d="M282 0H29v29q40 18 82 24v593q-20 5-41 11t-41 14v29h253v-29q-16-8-34-14t-41-11V212l-11-75 48 79 293 406v24q-23 5-43.5 11.5T456 671v29h254v-29q-18-8-39-14t-43-11V53q47-8 82-24V0H456v29q16 7 35 13.5T532 53v433l10 75-44-75L201 75V53q23-4 43.5-10T282 29zm93 732q-92 0-134.5 36.5T198 859q11 11 32.5 16t42.5 6l25-13v-85q14-7 34.5-10.5T376 769q17 0 40.5 3t37.5 8v88l25 13q15 1 36.5-5.5T550 859q0-27-10-50t-31-40q-21-17-54-27t-80-10z"/><glyph unicode="К" horiz-adv-x="646" d="M382 700h221v-29q-20-9-39-15t-37-10L326 380q25-33 57.5-74t68-84.5q35.5-43.5 73-88T598 49l48-24V0H521l-34 24q-59 69-117.5 149T256 335h-49V53q46-8 75-24V0H29v29q40 16 82 24v593q-45 6-82 25v29h253v-29q-16-7-35-13.5T207 646V369l60 14 187 263q-20 5-38 11t-34 14z"/><glyph unicode="Л" horiz-adv-x="655" d="M202 641q-62 10-102 30v29h526v-29q-35-18-82-25V53q47-8 82-24V0H372v29q18 8 37 13.5T448 53v595H261q-4-157-14.5-260.5t-26.5-171Q204 149 183.5 109T139 38Q119 12 90 0T34-12q-7 8-14.5 22.5t-14 31Q-1 58-5 74.5t-5 29.5l15 25 115-21q15 25 29.5 66t26 104.5Q187 342 194.5 431t7.5 210z"/><glyph unicode="М" horiz-adv-x="867" d="M837 0H589v29q20 8 40 13.5T670 53v450l4 117h-8l-33-107L428 0h-26L207 513l-36 117h-9l1-127V53q19-4 38-10t38-14V0H30v29q19 8 39.5 14.5T111 54v592q-21 4-41.5 10.5T29 671v29h205l174-457 34-103h1l34 105 180 455h181v-29q-18-8-37-14.5T762 646V52q21-4 39.5-9.5T837 29z"/><glyph unicode="Н" horiz-adv-x="728" d="M282 0H29v29q40 16 82 24v593q-47 7-82 25v29h253v-29q-17-9-36-15t-39-10V385h314v261q-21 5-39.5 11T446 671v29h253v-29q-18-10-39.5-15.5T617 646V53q23-4 44-10t38-14V0H446v29q36 16 75 24v280H207V53q20-4 39-10t36-14z"/><glyph unicode="О" horiz-adv-x="740" d="M53 350q0 78 21.5 144.5t62 115Q177 658 236 685t134 27q75 0 134-27t99.5-75.5q40.5-48.5 62-115T687 350q0-78-21.5-144.5t-62-115Q563 42 504 15T370-12q-75 0-134 27t-99.5 75.5q-40.5 48.5-62 115T53 350zm107 0q0-64 13.5-120.5T214 131q27-42 68-66.5T379 40q51 0 89 24.5t62.5 66.5q24.5 42 37 98.5T580 350q0 64-13 120.5T527 569q-27 42-68 66.5T362 660q-55 0-93.5-24.5T206 569q-24-42-35-98.5T160 350z"/><glyph unicode="П" horiz-adv-x="718" d="M282 0H29v29q15 8 35 14t47 10v593q-20 4-41 10.5T29 671v29h660v-29q-19-10-40-15.5t-42-9.5V53q40-5 82-24V0H436v29q22 14 75 24v595H207V53q39-8 75-24z"/><glyph unicode="Р" horiz-adv-x="596" d="M207 53q27-3 51-9.5T303 29V0H29v29q20 10 41 15t41 9v593q-23 4-43 10.5T29 671v29h90q40 0 87 4t90 4q49 0 96-10.5t83.5-35.5q36.5-25 59-66.5T557 492q0-59-23-101t-61.5-69Q434 295 385 282.5T284 270h-15.5q-10.5 0-22.5.5t-23 1.5q-11 1-16 2zm68 603q-24 0-39-1t-29-4V327q5-2 14.5-2.5t20-1.5q10.5-1 20.5-1h16q35 0 66 9.5t54.5 30.5q23.5 21 37.5 53t14 77q0 82-46.5 123T275 656z"/><glyph unicode="С" horiz-adv-x="644" d="M547 182h26q5-28 9-70.5t2-82.5q-15-12-36-19.5T503.5-3q-23.5-5-48-7T409-12q-84 0-150 21.5T147.5 75q-45.5 44-70 112.5T53 350q0 98 27 166.5t73 112Q199 672 260 692t128 20q66 0 111-8.5t79-25.5q0-16-1-37.5t-3-45.5q-2-24-5-47t-6-42h-26l-52 144q-11 6-36.5 8t-50.5 2q-50 0-94.5-18.5t-78-57Q192 546 172 487.5T152 350q0-71 18-128.5t52-98q34-40.5 83-62T416 40q33 0 55 5t29 13z"/><glyph unicode="Т" horiz-adv-x="619" d="M450 0H169v29q22 8 44.5 14T262 53v595H109L56 505H31q-3 20-5 45.5t-3.5 52Q21 629 20 654.5T19 700h581q0-20-1-45t-2.5-51.5q-1.5-26.5-3-52T589 505h-26l-52 143H358V53q26-5 48.5-10T450 29z"/><glyph unicode="У" horiz-adv-x="660" d="M522 646q-50 9-85 25v29h223v-29q-13-6-31-12.5T588 646L392 201q-21-54-42-95.5T307 38Q285 12 260 .5T206-5q-6 9-11.5 23T185 47q-4 15-7 29.5t-4 26.5l15 25 103-27q4 4 8.5 12t9 18q4.5 10 8.5 20t6 18L75 646q-19 5-38 11T0 671v29h263v-29q-17-7-37.5-13.5T182 646l166-331 21-64h2l20 66z"/><glyph unicode="Ф" horiz-adv-x="786" d="M278 700h225v-29q-11-6-27-12t-39-12v-51q19 5 43.5 6t40.5 1q48 0 89.5-16.5t72-48Q713 507 730 462t17-102q0-64-21-111t-55.5-78.5q-34.5-31.5-78-47T504 108q-5 0-14 .5t-19 1q-10 .5-19 2t-15 3.5V53q20-5 36-10.5T503 29V0H278v29q15 8 33 13.5t38 9.5v61q-19-3-41.5-4t-42.5-1q-41 0-81 13.5T111.5 164Q79 193 59 239T39 350q0 60 20 107.5t54 79.5q34 32 78.5 49t93.5 17q13 0 32.5-1t31.5-3v48q-45 10-71 24zm213-144q-14 0-27.5-1t-27.5-5V158q10-2 25-2.5t23-.5q33 0 63.5 12t54 36.5Q625 228 639 267t14 93q0 92-42.5 144T491 556zM302 155q11 0 22.5.5T350 160v393q-24 3-48 3-32 0-62-12t-54-37.5q-24-25.5-38.5-64T133 350q0-47 13-83.5t35.5-61Q204 181 235 168t67-13z"/><glyph unicode="Х" horiz-adv-x="670" d="M395 700h230v-29q-17-7-36-13.5T550 646L374 375 579 53q48-8 82-24V0H395v29q36 18 76 24L313 304 161 52q21-3 41-7.5T241 29V0H10v29q19 10 37.5 15T84 53l196 299L92 646q-20 6-39.5 12T13 671v29h265v-29q-15-6-33.5-12T202 646l140-226 136 226q-41 9-83 25z"/><glyph unicode="Ц" horiz-adv-x="732" d="M29 0v29q28 13 82 24v593q-39 6-82 25v29h253v-29q-29-13-75-25V52h299v594q-18 4-37 10t-38 15v29h253v-29q-40-17-82-25V52h115q0-20-2-46.5t-5-55q-3-28.5-6.5-55T696-151h-25L628 0z"/><glyph unicode="Ч" horiz-adv-x="636" d="M607 0H353v29q24 11 46.5 16.5T445 53v257q-27-15-71.5-30T272 265q-42 0-77 8t-60.5 29Q109 323 95 359t-14 92v195q-18 3-36 9.5T9 671v29h234v-29q-14-7-30-13.5T177 646V470q0-70 28.5-111.5T300 317q42 0 80 12t65 29v288q-18 5-36 11.5T374 671v29h233v-29q-14-7-30.5-13.5T541 646V53q20-4 36.5-10T607 29z"/><glyph unicode="Ш" horiz-adv-x="930" d="M353 700h226v-29q-16-8-32-14t-33-11V52h221v594q-35 10-66 25v29h232v-29q-15-7-32.5-13.5T831 646V53q41-8 70-24V0H29v29q37 18 72 24v593q-19 5-37 11t-35 14v29h233v-29q-26-13-65-25V52h221v594q-20 6-36 12.5T353 671z"/><glyph unicode="Щ" horiz-adv-x="961" d="M29 0v29q16 8 33 14t39 10v593q-35 6-72 25v29h233v-29q-14-7-29.5-13.5T197 646V52h221v594l-34.5 11.5Q367 663 353 671v29h226v-29q-12-8-28.5-14T514 646V52h221v594q-36 9-66 25v29h232v-29q-29-18-70-25V51h115q0-20-2-46t-5-54q-3-28-6.5-55t-7.5-47h-25L857 0z"/><glyph unicode="Ъ" horiz-adv-x="722" d="M421 700v-29q-18-7-40.5-13.5T333 646V417q18 2 44 4.5t46 2.5q49 0 96-9t83.5-32q36.5-23 58.5-63t22-102q0-59-23-101t-61.5-68.5q-38.5-26.5-88-39T408-3q-5 0-19.5.5t-32.5 1q-18 .5-38 1T283 0H155v29q35 16 82 24v595H108L56 505H31q-3 21-5 47t-3.5 52q-1.5 26-2 51T19 700zm-19-328q-25 0-40-.5t-29-4.5V53q5-2 14.5-2.5t20.5-1q11-.5 21-.5h15q35 0 66 10t54.5 30.5Q548 110 562 142t14 77q0 81-46.5 117T402 372z"/><glyph unicode="Ы" horiz-adv-x="844" d="M815 0H561v29q20 10 39 15t39 9v593q-19 5-38.5 10T561 671v29h254v-29q-33-16-80-25V53q25-4 44-10t36-14zM29 0v29q39 18 82 24v593q-20 5-41 11t-41 14v29h266v-29q-19-8-41-14.5T207 646V417q18 2 44 4.5t46 2.5q49 0 94-9t79-32q34-23 54.5-63T545 218q0-59-23-100.5T462 49q-37-27-84-39.5T283-3q-5 0-19.5.5t-32.5 1q-18 .5-38 1T158 0zm246 372q-24 0-39.5-.5T207 367V53q5-2 14.5-2.5t20-1Q252 49 262 49h16q70 0 115 42t45 128q0 75-41 114t-122 39z"/><glyph unicode="Ь" horiz-adv-x="596" d="M29 0v29q39 18 82 24v593q-20 4-41 10.5T29 671v29h266v-29q-18-8-40.5-14.5T207 646V417q18 2 44 4.5t46 2.5q50 0 97-9t83-32q36-23 58-63t22-102q0-59-23-100.5T473 49q-38-27-87.5-39.5T283-3q-5 0-19.5.5t-33 1Q212-1 192-.5T157 0zm247 372q-25 0-40-.5t-29-4.5V53q5-2 14.5-2.5t20.5-1q11-.5 21-.5h15q35 0 66 10t54.5 30.5Q422 110 436 142t14 77q0 81-46.5 117T276 372z"/><glyph unicode="Э" horiz-adv-x="633" d="M189 314q-5 20-5 39.5t5 38.5l291-1q-8 135-72.5 202T232 660q-33 0-52.5-5.5T152 641l-52-122H74q-2 13-4 31t-3.5 38q-1.5 20-2 41.5T64 671q15 12 36.5 19.5T145 703q23 5 47.5 7t45.5 2q81 0 144.5-20.5t107.5-64q44-43.5 67-112T580 351q0-96-28-164.5T477.5 74Q431 30 371.5 9T248-12q-66 0-110.5 8.5T58 22q1 16 2.5 38.5t3.5 46q2 23.5 4.5 46.5t4.5 42h26l52-146q11-6 37-7.5t51-1.5q45 0 88 19t77 57q34 38 55 95t21 133z"/><glyph unicode="Ю" horiz-adv-x="968" d="M283 0H29v29q19 8 39 14t43 10v593q-39 6-82 25v29h254v-29q-14-6-30-12.5T207 646V385h119q4 69 24 129t56.5 104q36.5 44 89 69T617 712q75 0 131-27t93-75.5q37-48.5 55.5-115T915 350q0-77-19-143.5t-56.5-115q-37.5-48.5-93-76T617-12q-73 0-127.5 26T399 85.5q-36 45.5-54.5 109T325 333H207V53q25-5 43.5-11T283 29zm145 350q0-65 10.5-121.5t34-98.5q23.5-42 61-66T626 40q51 0 86 24.5t56 66.5q21 42 30.5 98.5T808 350q0 64-10 120.5T764.5 569Q741 611 703 635.5T609 660q-54 0-89-24.5T464.5 569Q444 527 436 470.5T428 350z"/><glyph unicode="Я" horiz-adv-x="636" d="M607 700v-29q-15-7-35-13.5T525 646V53q50-7 82-24V0H342v29q37 18 87 24v241H328q-22-36-39.5-71T253 154q-18-34-38-66t-46-63L135 0H9v25l48 24q32 34 57 67t46 64q21 31 40.5 61t39.5 59q-29 9-56 25t-47 40q-20 24-32 56.5T93 496q0 55 24 94.5t63 64.5q39 25 88.5 36.5T369 703q20 0 49.5-1.5T479 700zM360 338q18 0 37 1.5t32 5.5v301q-10 3-28.5 4t-32.5 1q-77 0-122.5-36.5T200 496q0-75 39.5-116.5T360 338z"/><glyph unicode="а" horiz-adv-x="505" d="M410 131q0-22 1-38t2-34l69-10V28q-25-13-55.5-23T368-10h-25q-10 23-12 50.5t-3 60.5h-5q-4-20-15.5-40.5t-30-36.5Q259 8 234-2t-57-10q-61 0-99.5 37T39 122q0 46 18.5 75.5T112 244q36 17 89 24.5T324 280q4 43 2.5 77.5t-11 59q-9.5 24.5-28 38T239 468q-14 0-31.5-1.5T173 458l-47-120h-26q-10 30-17.5 62T73 463q38 23 84.5 36T261 512q51 0 81.5-14.5T389 460q16-23 21-51t5-56q0-60-2.5-115.5T410 131zM217 50q25 0 44 10t32 24q13 14 21 28.5t11 24.5v105q-58 0-95-6t-58-19q-21-13-29-32.5t-8-44.5q0-43 22-66.5T217 50z"/><glyph unicode="б" horiz-adv-x="541" d="M41 262q0 128 21 214.5t63.5 139Q168 668 233 690t152 22l65 50h26q-1-18-4-38.5t-7.5-39q-4.5-18.5-9-32.5t-7.5-20q-92 0-156-9t-106-37q-42-28-63.5-81T94 365h5q12 26 32.5 50t47 42q26.5 18 56.5 29t61 11q204 0 204-245 0-58-16-106.5T437 62q-31-35-75-54.5T263-12q-50 0-91 18.5t-70 54q-29 35.5-45 86T41 262zm94 0q0-63 11.5-106.5t31.5-71q20-27.5 46.5-40T280 32q60 0 90.5 54T401 240q0 102-39 149t-108 47q-26 0-56.5-16T146 377q-5-25-8-52.5t-3-62.5z"/><glyph unicode="в" horiz-adv-x="528" d="M481 146q0-40-18-68.5T414.5 31Q384 13 344 4.5T260-4q-32 0-51 .5T177-2q-13 1-22 1.5T135 0H39v25q31 16 66 24v401q-38 7-66 24v26h90q24 0 41 .5t32 1.5q15 1 30 1.5t33 .5q88 0 137-26.5t49-92.5q0-24-10-43t-26-33q-16-14-36-23.5T340 272q28-2 53.5-11t45-24.5q19.5-15.5 31-38T481 146zM195 43q14-3 35.5-3H266q59 0 88 25.5t29 72.5q0 49-35 73.5T258 236h-63zm0 223l111 10q18 9 36.5 33.5T361 374q0 49-29.5 67.5T245 460q-11 0-25-.5t-25-3.5z"/><glyph unicode="г" horiz-adv-x="431" d="M412 500q-1-39-3.5-81t-8.5-83h-26l-44 120H195V49q57-11 90-24V0H39v25q17 10 33 15t33 9v402q-37 6-66 23v26z"/><glyph unicode="д" horiz-adv-x="573" d="M90 0L45-148H19q-5 49-7.5 99T9 49h68q12 14 27 44t28.5 77.5q13.5 47.5 23 114T165 440q-21 6-38 15t-31 19v26h425v-26q-27-18-66-24V49h89q1-48-2-98t-9-99h-25L463 0zm130 450q0-90-9-157t-21.5-114.5Q177 131 163 99.5T138 49h227v401z"/><glyph unicode="е" horiz-adv-x="503" d="M446 70q-8-17-25-32t-39-26Q360 1 334-5.5T281-12q-59 0-104 18.5t-75 53Q72 94 56.5 142T41 250q0 128 59 195t167 67q35 0 69-9.5t60.5-31.5q26.5-22 43-58.5T456 322q0-17-1.5-34.5T449 250H137q0-42 10.5-78.5T179 108q21-27 53-42.5T307 50q35 0 71 10t54 26zM263 468q-57 0-87-38.5T140 294h220q1 9 1.5 17.5t.5 16.5q0 64-24 102t-75 38z"/><glyph unicode="ж" horiz-adv-x="722" d="M529 500h173v-26q-17-12-57-24-32-44-66-86t-67-84q13-18 32-45t41.5-58.5q22.5-31.5 47-64.5T681 49l41-24V0H616l-28 23q-17 23-36.5 53.5T513 138q-19 31-35 57.5T452 237h-48V49q31-8 60-24V0H263v25q14 7 27.5 13T319 49v194l-55-10q-9-14-24-41t-32.5-58Q190 103 171 73t-37-50L104 0H0v25l46 24q25 29 48.5 61t44.5 62q21 30 38.5 56.5T209 273q-38 43-73 87.5T69 450q-26 6-50 24v26h173v-26q-19-14-50-24 27-48 58.5-90.5T267 269h52v181q-33 7-56 24v26h194v-26q-10-8-22.5-14T404 450V263l55 10q35 48 63.5 88.5T579 450q-14 5-26 10t-24 14z"/><glyph unicode="з" horiz-adv-x="474" d="M205 35q31 0 53.5 10T295 71q14 16 21 36.5t7 41.5q0 48-20.5 65T247 237l-94-15q-4 13-4.5 27t4.5 27h102q9 4 18.5 12.5t18 21q8.5 12.5 14 29.5t5.5 38q0 48-26.5 69.5T215 468q-20 0-36.5-2.5T157 461l-45-113H87q-11 33-16 66t-6 65q20 11 61 22t105 11q81 0 125.5-29.5T401 395q0-24-10-44t-25.5-36q-15.5-16-35-27T292 271q55-5 92-35.5t37-86.5q0-80-55-120.5T220-12q-58 0-101.5 17T46 48l18 67h20q13-14 29-33.5T145 43q21-8 60-8z"/><glyph unicode="и" horiz-adv-x="612" d="M39 500h212v-26q-11-6-25.5-12T191 450V176l-11-93h5l39 75 214 342h135v-26q-32-18-66-24V49q19-5 36-10.5T573 25V0H361v25q28 16 60 24v286l10 79h-5l-38-75L176 0H39v25q17 8 33 13.5T105 49v401q-39 6-66 24z"/><glyph unicode="й" horiz-adv-x="612" d="M39 500h212v-26q-11-6-25.5-12T191 450V176l-11-93h5l39 75 214 342h135v-26q-32-18-66-24V49q19-5 36-10.5T573 25V0H361v25q28 16 60 24v286l10 79h-5l-38-75L176 0H39v25q17 8 33 13.5T105 49v401q-39 6-66 24zm277 60q-50 0-82 10.5T183 598q-19 17-26.5 39.5T149 683q16 13 35 19t40 8l25-13v-89q14-6 33-8.5t35-2.5q10 0 32 2t36 6v92l25 13q21-2 39.5-9t30.5-18q0-23-8-45.5T445.5 598q-18.5-17-50-27.5T316 560z"/><glyph unicode="к" horiz-adv-x="541" d="M325 500h193v-26q-10-8-26.5-14T451 446q-34-41-72-83t-80-84q22-24 46.5-53t49.5-60q25-31 50-61t49-56l47-24V0H424l-32 23q-45 54-82 108t-75 106h-40V49q20-5 36.5-10.5T260 25V0H39v25q27 16 66 24v401q-35 7-66 24v26h205v-26q-10-7-21.5-13T195 450V263l46 10q40 46 76 86t67 87q-17 7-31.5 13.5T325 474z"/><glyph unicode="л" horiz-adv-x="543" d="M103 86q14 24 25 64t18.5 88q7.5 48 11.5 100.5t4 101.5q-20 6-36.5 15T95 474v26h409v-26q-32-18-66-24V49q21-5 37-11t29-13V0H289v25q24 17 59 24v407H216q-1-53-6-112.5t-15-117q-10-57.5-26-108T130 34Q111 5 89-6.5T48-14Q33 3 19.5 30.5T4 81l14 25z"/><glyph unicode="м" horiz-adv-x="734" d="M207 0H31v25q33 16 66 24l15 391q-21 8-37 17t-29 17v26h195l103-292 19-69h3l21 70 107 291h189v-26q-13-8-29-14t-37-10l20-401q33-6 66-24V0H491v25q10 5 24 11t36 13l-20 405h-8L359 0h-27L170 454h-8L147 49q36-11 60-24z"/><glyph unicode="н" horiz-adv-x="612" d="M254 0H39v25q14 8 31 13.5T105 49v401q-18 5-35 10.5T39 474v26h215v-26q-23-14-59-24V275h222v175q-35 6-60 24v26h216v-26q-27-17-66-24V49q18-4 35-9t31-15V0H357v25q25 18 60 24v182H195V49q20-4 34-10t25-14z"/><glyph unicode="о" horiz-adv-x="553" d="M41 250q0 63 16.5 111.5t47.5 82q31 33.5 74.5 51T276 512q62 0 107-19t73.5-53.5q28.5-34.5 42-82.5T512 250q0-126-64-194T276-12q-60 0-104 18.5t-73 53q-29 34.5-43.5 83T41 250zm96 0q0-45 8.5-85t27-69.5Q191 66 221 49t72-17q54 0 88.5 53T416 250q0 46-8.5 85.5t-26.5 69Q363 434 335 451t-67 17q-59 0-95-53t-36-165z"/><glyph unicode="п" horiz-adv-x="611" d="M254 0H39v25q19 11 35 16.5t31 7.5v401q-21 5-38 11t-28 13v26h533v-26q-13-8-29-15t-37-9V49q34-6 66-24V0H357v25q10 7 23.5 13T416 49v407H195V49q20-6 34-12t25-12z"/><glyph unicode="р" horiz-adv-x="566" d="M253-200H31v25q34 16 66 24v593l-66 8v26q32 14 65.5 22.5T162 512h25V400h1q20 51 56 81.5t94 30.5q89 0 138-59t49-192q0-63-16.5-114t-47-86q-30.5-35-74-54T291-12q-37 0-58 4.5T187 8v-159q16-2 32-7.5t34-16.5zm53 650q-49 0-78-31t-41-85V54q18-11 40.5-16.5T286 32q33 0 59.5 17t45 48q18.5 31 28.5 72.5t10 91.5q0 41-6.5 75.5t-21 60Q387 422 363.5 436T306 450z"/><glyph unicode="с" horiz-adv-x="466" d="M427 70q-18-35-58.5-58.5T274-12q-59 0-102.5 18.5T99 59.5q-29 34.5-43.5 83T41 250q0 127 62 194.5T272 512q49 0 87.5-8.5T425 481q-3-33-11-74t-20-68h-27l-42 119q-7 5-16 7.5t-30 2.5q-68 0-105-49.5T137 251q0-38 10.5-74t32-64.5Q201 84 233.5 67T309 50q35 0 61 10t44 24z"/><glyph unicode="т" horiz-adv-x="496" d="M359 0H137v25q31 16 66 24v407h-93L66 336H40q-5 43-8 84.5T28 500h440q-1-36-3.5-78.5T456 336h-26l-44 120h-93V49q47-12 66-24z"/><glyph unicode="у" horiz-adv-x="505" d="M42 450q-15 4-27.5 10T-11 474v26h209v-25q-21-14-57-25l128-296 19-62h2l15 63 95 295q-30 6-55 24v26h171v-26q-21-14-57-24L303 0q-24-64-45.5-103.5t-43-62.5q-21.5-23-44-33.5T122-215q-11 19-19.5 42T88-129l13 24h104q6 8 10.5 15.5T225-71q5 11 11 28t14 43z"/><glyph unicode="ф" horiz-adv-x="723" d="M471-200H253v25q28 16 66 24V25Q302 8 281.5-2T232-12q-42 0-77.5 14.5T94 47q-25 30-39 76T41 232q0 143 55 211.5T243 512q25 0 45.5-8.5T319 480v202l-76 8v26q29 13 66.5 22t70.5 14h25V474q15 18 40 28t53 10q85 0 135-57t50-175q0-76-15-131t-41-91q-26-36-62.5-53T485-12q-24 0-46 8t-34 22v-169q19-3 35.5-8.5T471-175zM253 37q17 0 34.5 4.5T319 60v385q-12 8-26.5 12.5T252 462q-25 0-46.5-11t-37-34Q153 394 144 358t-9-87q0-68 9-113t25-72q16-27 37.5-38T253 37zm221 425q-20 0-38-4.5T404 441V55q12-10 27.5-14t39.5-4q23 0 44.5 11.5t38 36q16.5 24.5 26 64T589 245q0 61-7.5 103T560 415q-14 25-36 36t-50 11z"/><glyph unicode="х" horiz-adv-x="519" d="M298 268L456 49q14-5 27.5-10.5T509 25V0H304v24q14 8 26 14.5T354 49L243 213 131 49q14-5 26-11t24-13V0H10v25q28 17 56 24l149 199L65 450q-14 5-25.5 10.5T16 474v26h201v-25q-12-8-23.5-14.5T168 450l104-150 102 150q-34 11-50 24v26h167v-26q-19-13-56-24z"/><glyph unicode="ц" horiz-adv-x="614" d="M39 0v25q27 16 66 24v401q-38 6-66 24v26h215v-26q-23-14-59-24V44h211v406q-27 6-59 24v26h215v-26q-13-7-29-13t-37-11V44h89q-2-48-4.5-96t-6.5-96h-25L504 0z"/><glyph unicode="ч" horiz-adv-x="558" d="M15 500h215v-26q-10-7-25-13.5T171 450V330q0-47 20-75.5t67-28.5q28 0 54.5 8.5T363 257v193q-30 6-59 24v26h215v-26q-27-17-66-24V49q20-5 36-10.5T519 25V0H283v25q41 17 80 24v179q-24-26-57-42.5T223 169q-68 0-105 38T81 310v140q-38 7-66 24z"/><glyph unicode="ш" horiz-adv-x="832" d="M637 44v406q-32 9-54 24v26h210v-26q-14-8-30-14t-36-10V49q37-8 66-24V0H39v25q28 16 66 24v401q-17 2-33 7.5T39 474v26h210v-26q-26-15-54-24V44h176v406q-16 5-31 10.5T311 474v26h204v-26q-8-6-20.5-12T461 450V44z"/><glyph unicode="щ" horiz-adv-x="844" d="M39 0v25q28 16 66 24v401q-20 4-36 10t-30 14v26h210v-26q-10-7-23.5-13T195 450V44h176v406q-15 4-30.5 10T311 474v26h204v-26q-11-8-25-14t-29-10V44h176v406q-32 9-54 24v26h210v-26q-14-8-30-13.5T727 450V44h89q-1-48-4.5-96.5T805-148h-26L734 0z"/><glyph unicode="ъ" horiz-adv-x="577" d="M264 43q14-1 26.5-2t26.5-1q59 0 91.5 29t32.5 91q0 28-9 47.5T407.5 239q-15.5 12-36 17.5T329 262q-34 0-65-6zm60 457v-26q-12-8-27-13.5T264 450V296q17 2 38.5 5t61.5 3q82 0 128.5-35T539 159q0-40-15-70.5t-42.5-51q-27.5-20.5-65-31T334-4q-27 0-60.5 2T202 0h-94v25q28 16 66 24v407H96L52 336H26q-5 38-7.5 82T15 500z"/><glyph unicode="ы" horiz-adv-x="746" d="M195 296q17 2 38 5t61 3q75 0 120.5-35T460 159q0-40-14.5-70.5t-40.5-51q-26-20.5-62-31T264-4q-27 0-60.5 2T132 0H39v25q17 10 33 15t33 9v401q-19 3-35 9.5T39 474v26h216v-26q-23-14-60-24zm0-253l26-2q13-1 27-1 113 0 113 120 0 28-8.5 47.5t-23 31Q315 250 296 255t-40 5q-14 0-30-.5t-31-3.5zM707 0H492v25q14 7 28 13t31 11v401q-38 7-60 24v26h216v-26q-12-8-29-13.5T641 450V49q17-5 33-10.5T707 25z"/><glyph unicode="ь" horiz-adv-x="508" d="M195 296q17 2 38 5t61 3q82 0 129-35t47-110q0-40-15.5-70.5t-42.5-51q-27-20.5-65-31T264-4q-27 0-60.5 2T132 0H39v25q15 8 32 13.5T105 49v401q-19 4-35 10t-31 14v26h216v-26q-24-14-60-24zm0-253l26-2q13-1 27-1 58 0 90.5 29t32.5 91q0 28-9 47.5t-24 31Q323 250 302.5 255t-43.5 5q-16 0-32.5-.5T195 256z"/><glyph unicode="э" horiz-adv-x="491" d="M219-12q-57 0-100.5 17T46 48l18 67h20q13-14 29-33.5T144 43q21-8 62-8 66 0 106.5 54T354 235l-198-15q-11 27 0 54h198q-2 54-13.5 91t-31 60q-19.5 23-45 33T208 468q-41 0-51-7l-44-122H88q-9 28-16 63t-11 70q27 15 64 27.5T225 512q48 0 89-13t71.5-43q30.5-30 47.5-78t17-118q0-71-19.5-122.5t-52-84.5q-32.5-33-74-49T219-12z"/><glyph unicode="ю" horiz-adv-x="786" d="M254 0H39v25q14 8 31 13.5T105 49v401q-17 5-33 10.5T39 474v26h215v-26q-11-7-25-13t-34-11V275h99q6 112 66 174.5T518 512q112 0 169.5-67T745 247q0-120-59-189.5T518-12q-47 0-87 14.5T361 47q-30 30-47.5 76T294 231h-99V49q20-4 34-10t25-14zm134 250q0-54 11-94.5t30-68Q448 60 473 46t52-14q65 0 94.5 57.5T649 250q0 109-33 163.5T514 468q-59 0-92.5-58T388 250z"/><glyph unicode="я" horiz-adv-x="530" d="M64 353q0 34 11 62t34.5 48q23.5 20 60 31.5T258 506q12 0 33.5-1t45.5-2q24-1 46.5-2t35.5-1h72v-26q-8-7-22.5-13T425 450V49q37-11 66-24V0H276v25q13 8 27.5 13.5T335 49v169l-73-10q-21-35-47-84.5T144 23L113 0H0v25l56 24q45 47 76 93t56 78q-23 4-45 13.5t-39.5 26Q86 276 75 299t-11 54zm271 103q-13 2-33.5 4t-34.5 2q-62 1-85.5-28.5T158 356q0-49 36.5-80.5T308 244h27z"/><glyph unicode="ё" horiz-adv-x="503" d="M446 70q-8-17-25-32t-39-26Q360 1 334-5.5T281-12q-59 0-104 18.5t-75 53Q72 94 56.5 142T41 250q0 128 59 195t167 67q35 0 69-9.5t60.5-31.5q26.5-22 43-58.5T456 322q0-17-1.5-34.5T449 250H137q0-42 10.5-78.5T179 108q21-27 53-42.5T307 50q35 0 71 10t54 26zM263 468q-57 0-87-38.5T140 294h220q1 9 1.5 17.5t.5 16.5q0 64-24 102t-75 38zM96 663q0 24 15 38.5t39 14.5q24 0 39-14.5t15-38.5q0-23-15-37t-39-14q-24 0-39 14t-15 37zm222 0q0 24 15 38.5t39 14.5q24 0 39-14.5t15-38.5q0-23-15-37t-39-14q-24 0-39 14t-15 37z"/><glyph unicode="ђ" horiz-adv-x="574" d="M22 598h68v84l-76 8v26q29 12 67.5 21t73.5 15h25V598h208v-52H180V362h1q21 47 60.5 80t95.5 33q40 0 71.5-9.5T461 432q21-24 32-64.5T504 265V1q0-62-12-102.5t-35-64q-23-23.5-56.5-34T324-212l-5 28q27 8 45 19t29.5 31q11.5 20 16 52T414 1v245q0 78-22 122.5T312 413q-26 0-47-9t-38-24.5q-17-15.5-29-35T180 304V49q16-4 30.5-9T239 25V0H24v25q31 16 66 24v497H22z"/><glyph unicode="ѓ" horiz-adv-x="431" d="M412 500q-1-39-3.5-81t-8.5-83h-26l-44 120H195V49q57-11 90-24V0H39v25q17 10 33 15t33 9v402q-37 6-66 23v26zM298 767q8 1 21-.5t27-4.5q14-3 26-7.5t18-9.5v-19L203 575l-22 18z"/><glyph unicode="є" horiz-adv-x="477" d="M438 70q-18-35-58.5-58.5T285-12q-59 0-104.5 18.5t-76.5 53q-31 34.5-47 83T41 250q0 63 17.5 112t49.5 82q32 33 76 50.5t97 17.5q51 0 90-8.5t66-22.5q-2-17-5-36t-7-38q-4-19-9.5-36.5T404 340h-25l-42 119q-7 5-16.5 7t-30.5 2q-33 0-60.5-11T182 422q-20-24-32-62.5T137 266l195 15q11-27 0-54H139q3-35 17-66.5t37-56.5q23-25 55-39.5T320 50q35 0 61 10t44 24z"/><glyph unicode="ѕ" horiz-adv-x="433" d="M295 114q0 28-17.5 47.5T233 198q-27 17-57.5 33T118 268.5Q91 290 73.5 318T56 387q0 27 12.5 50t33.5 39.5q21 16.5 49 26t60 9.5q54 0 88.5-6t66.5-17q-4-32-9.5-64.5T341 358h-25l-38 102q-12 5-27 6.5t-31 1.5q-18 0-31.5-6.5t-23-16.5q-9.5-10-14.5-23t-5-26q0-27 17.5-46.5t44.5-36q27-16.5 57.5-32.5t57.5-36q27-20 44.5-46.5T385 135q0-34-14.5-61t-40-46Q305 9 271.5-1.5T200-12q-43 0-79 7.5T46 17q2 36 9 69.5T73 151h25l44-109q11-8 26.5-9t28.5-1q44 0 71 24t27 58z"/><glyph unicode="і" horiz-adv-x="301" d="M263 0H41v25q15 8 31 13.5T107 49v393l-66 8v26q29 12 63 21t68 15h25V49q20-5 36-10.5T263 25zM88 670q0 27 17.5 43t46.5 16q29 0 46-16t17-43q0-27-17-42.5T152 612q-29 0-46.5 15.5T88 670z"/><glyph unicode="ї" horiz-adv-x="348" d="M39 668q0 26 15 42.5T93 727q24 0 38.5-16.5T146 668q0-25-14.5-40.5T93 612q-24 0-39 15.5T39 668zm162 0q0 26 14.5 42.5T255 727q24 0 38.5-16.5T308 668q0-25-14.5-40.5T255 612q-25 0-39.5 15.5T201 668zM286 0H64v25q15 8 31 13.5T130 49v393l-66 8v26q29 12 63 21t68 15h25V49q20-5 36-10.5T286 25z"/><glyph unicode="ј" horiz-adv-x="288" d="M106 442l-66 8v26q29 14 63.5 22.5T171 512h25V43q0-71-18-118t-42-76q-24-29-49-43t-40-18l-12 19q12 6 24.5 21t23 41.5Q93-104 99.5-66t6.5 90zM86 670q0 27 17.5 43t46.5 16q29 0 46-16t17-43q0-27-17-42.5T150 612q-29 0-46.5 15.5T86 670z"/><glyph unicode="љ" horiz-adv-x="741" d="M504 474q-11-7-29-13t-37-11V296q17 2 38 5t61 3q76 0 121-35t45-110q0-40-14.5-70.5t-40-51q-25.5-20.5-62-31T507-4q-27 0-60.5 2T375 0h-86v25q24 17 59 24v407H216q-1-53-6-112.5t-15-117q-10-57.5-26-108T130 34Q111 5 89-6.5T48-14Q33 3 19.5 30.5T4 81l14 25 85-20q14 24 25 64t18.5 88q7.5 48 11.5 100.5t4 101.5q-20 6-36.5 15T95 474v26h409zM438 43q14-1 27-2t26-1q59 0 86.5 29.5T605 160q0 28-9 47.5t-23.5 31Q558 250 539 255t-40 5q-14 0-29.5-.5T438 256z"/><glyph unicode="њ" horiz-adv-x="810" d="M357 25q25 18 60 24v182H195V49q20-4 34-10t25-14V0H39v25q14 8 31 13.5T105 49v401q-18 5-35 10.5T39 474v26h215v-26q-23-14-59-24V275h222v175q-35 6-60 24v26h216v-26q-11-7-29-13t-37-11V296q17 2 38 5t61 3q75 0 120.5-35T772 159q0-40-14.5-70.5t-40.5-51q-26-20.5-62-31T576-4q-27 0-60.5 2T444 0h-87zm150 18l26-2q13-1 27-1 113 0 113 120 0 28-8.5 47.5t-23 31.5Q627 251 608 256.5t-40 5.5q-14 0-30-1.5t-31-4.5z"/><glyph unicode="ћ" horiz-adv-x="584" d="M22 598h68v84l-76 8v26q29 12 67.5 21t73.5 15h25V598h208v-52H180V362h1q21 47 60.5 80t95.5 33q40 0 71.5-9.5T461 432q21-24 32-64.5T504 265V58l63-9V28q-29-13-63-23t-65-15h-25v256q0 78-22 122.5T312 413q-26 0-47-9.5T227 379q-17-15-29-34.5T180 304V49q16-4 30.5-9T239 25V0H24v25q31 16 66 24v497H22z"/><glyph unicode="ќ" horiz-adv-x="541" d="M325 500h193v-26q-10-8-26.5-14T451 446q-34-41-72-83t-80-84q22-24 46.5-53t49.5-60q25-31 50-61t49-56l47-24V0H424l-32 23q-45 54-82 108t-75 106h-40V49q20-5 36.5-10.5T260 25V0H39v25q27 16 66 24v401q-35 7-66 24v26h205v-26q-10-7-21.5-13T195 450V263l46 10q40 46 76 86t67 87q-17 7-31.5 13.5T325 474zm18 267q8 1 21-.5t27-4.5q14-3 26-7.5t18-9.5v-19L248 575l-22 18z"/><glyph unicode="ў" horiz-adv-x="505" d="M42 450q-15 4-27.5 10T-11 474v26h209v-25q-21-14-57-25l128-296 19-62h2l15 63 95 295q-30 6-55 24v26h171v-26q-21-14-57-24L303 0q-24-64-45.5-103.5t-43-62.5q-21.5-23-44-33.5T122-215q-11 19-19.5 42T88-129l13 24h104q6 8 10.5 15.5T225-71q5 11 11 28t14 43zm230 110q-50 0-82 10.5T139 598q-19 17-26.5 39.5T105 683q16 13 35 19t40 8l25-13v-89q14-6 33-8.5t35-2.5q10 0 32 2t36 6v92l25 13q21-2 39.5-9t30.5-18q0-23-8-45.5T401.5 598q-18.5-17-50-27.5T272 560z"/><glyph unicode="џ" horiz-adv-x="602" d="M254 474q-11-6-25-12t-34-12V44h212v406q-22 5-36 11t-24 13v26h216v-26q-32-18-66-24V49q21-2 37-9t29-15V0H345q-6-47-13-90t-18-91h-26q-10 49-16.5 91.5T257 0H39v25q11 7 28 13t38 11v401q-15 2-31 7.5T39 474v26h215z"/><glyph unicode="Ѣ" horiz-adv-x="713" d="M323 565V406q18 3 44.5 5t46.5 2q49 0 96-8t83.5-30.5Q630 352 652 313t22-100q0-59-23-100t-61.5-67q-38.5-26-88-37.5T399-3q-5 0-19.5.5t-33 1Q328-1 308-.5T273 0H145v29q39 18 82 24v512H99L47 423H21q-3 20-4.5 45.5t-3 52Q12 547 11 572t-1 45h217v51q-20 4-41 10t-41 15v28h267v-28q-19-8-41.5-14.5T323 668v-51h256q-1-39-4-85t-8-87h-25l-52 120zm69-204q-24 0-39.5-.5T323 356V53q5-2 14.5-2.5t20.5-1q11-.5 21-.5h16q35 0 66 9t54.5 28.5Q539 106 553 137t14 76q0 81-47 114.5T392 361z"/><glyph unicode="ѣ" horiz-adv-x="584" d="M271 456V296q17 2 38 5t61 3q82 0 129-35t47-110q0-40-15.5-70.5t-42.5-51q-27-20.5-65-31T340-4q-27 0-60.5 2T208 0h-93v25q15 8 32 13.5T181 49v407H97L53 336H27q-5 43-8 84.5T15 500h166v182l-76 8v26q26 12 65 21t76 15h25V500h185q2-36-1.5-67.5T446 359h-26l-56 97zm0-413l26-2q13-1 27-1 58 0 90.5 29t32.5 91q0 28-9 47t-24 31q-15 12-35.5 17t-43.5 5q-16 0-32.5-1t-31.5-4z"/><glyph unicode="Ѳ" horiz-adv-x="740" d="M53 350q0 78 21.5 144.5t62 115Q177 658 236 685t134 27q75 0 134-27t99.5-75.5q40.5-48.5 62-115T687 350q0-78-21.5-144.5t-62-115Q563 42 504 15T370-12q-75 0-134 27t-99.5 75.5q-40.5 48.5-62 115T53 350zM379 40q49 0 86.5 23t62.5 62.5q25 39.5 38 93T581 333q-27-29-58-41.5T469 279q-27 0-52.5 11T366 313.5 315.5 337Q290 348 264 348q-21 0-50-8t-54-35q4-56 20-104.5t43.5-84q27.5-35.5 66-56T379 40zm-17 620q-56 0-94.5-25T205 567q-24-43-35-100.5T159 344q23 28 47.5 44.5T254 413q21 7 42 7 27 0 51.5-11t48.5-23.5q24-12.5 48-23t50-10.5q17 0 41.5 2.5T580 371q-2 60-16 113t-41 92q-27 39-67 61.5T362 660z"/><glyph unicode="ѳ" horiz-adv-x="553" d="M41 250q0 63 16.5 111.5t47.5 82q31 33.5 74.5 51T276 512q62 0 107-19t73.5-53.5q28.5-34.5 42-82.5T512 250q0-126-64-194T276-12q-60 0-104 18.5t-73 53q-29 34.5-43.5 83T41 250zm316 16q11 0 27 5t30 15q-3 39-13 72.5T373 416q-18 24-44 38t-61 14q-58 0-94-50t-38-155q30 23 56 31t46 8q18 0 33-5.5t29-12.5q14-7 28-12.5t29-5.5zm-162-22q-11 0-27.5-7T137 219q2-40 12-74.5T178 85q19-25 47.5-39T293 32q53 0 87.5 52T416 245q-27-22-51.5-31t-46.5-9q-18 0-33.5 6T254 224.5q-15 7.5-29.5 13.5t-29.5 6z"/><glyph unicode="Ѵ" horiz-adv-x="700" d="M661 712q10-4 20.5-18t18.5-32q8-18 13-37t5-32l-16-24-96 27q-32-46-67.5-115.5t-68.5-151q-33-81.5-60-170T368-12h-39L76 646q-20 5-39 11.5T0 671v29h265v-29q-17-7-38-13.5T183 646l155-430 22-80h2l13 80q19 71 45 141.5t55.5 132Q505 551 534.5 600t54.5 77q17 19 35 26t37 9z"/><glyph unicode="ѵ" horiz-adv-x="511" d="M283 0l-45-12L43 450q-29 10-53 24v26h209v-25q-13-7-26.5-13.5T142 450l116-301 14-53h2l10 60q19 79 46 160t69 145q19 29 43.5 40.5T486 509q9-7 16.5-18t13.5-24q6-13 10-27t5-26l-15-26-84 21q-14-23-28-53.5T377.5 293q-12.5-32-23-63.5T336 173z"/><glyph unicode="Ҋ" horiz-adv-x="742" d="M282 0H29v29q40 18 82 24v593q-20 5-41 11t-41 14v29h253v-29q-16-8-34-14t-41-11V212l-11-75 48 79 293 406v24q-23 5-43.5 11.5T456 671v29h254v-29q-18-8-39-14t-43-11V52h110l8-7q-4-19-15-44.5T706-52q-14-27-30-53.5T646-151h-27L648 0H456v29q16 7 35 13.5T532 53v433l10 75-44-75L201 75V53q23-4 43.5-10T282 29zm88 732q-92 0-134.5 36.5T193 859q11 11 32.5 16t42.5 6l25-13v-85q14-7 34.5-10.5T371 769q17 0 40.5 3t37.5 8v88l25 13q16 1 37-5.5t34-16.5q0-27-10-50t-31-40q-21-17-54-27t-80-10z"/><glyph unicode="ҋ" horiz-adv-x="620" d="M39 500h212v-26q-11-6-25.5-12T191 450V176l-11-93h5l39 75 214 342h135v-26q-32-18-66-24V44h95l5-8q-5-24-16-52t-24.5-54q-13.5-26-27-47T517-148h-27L517 0H361v25q28 16 60 24v286l10 79h-5l-38-75L176 0H39v25q17 8 33 13.5T105 49v401q-39 6-66 24zm278 60q-50 0-82 10.5T184 598q-19 17-26.5 39.5T150 683q16 12 35.5 18.5T225 710l25-13v-89q14-6 33-8.5t35-2.5q10 0 32 2t36 6v92l25 13q20-3 39-10t31-17q0-23-8-45.5T446.5 598q-18.5-17-50-27.5T317 560z"/><glyph unicode="Ҍ" horiz-adv-x="626" d="M10 568h130v78q-20 4-41 10.5T58 671v29h267v-29q-19-8-41.5-14.5T236 646v-78h193v-52H236v-99q18 2 44.5 4.5T327 424q49 0 96-9t83.5-32q36.5-23 58.5-63t22-102q0-59-23-100.5T502.5 49q-38.5-27-88-39.5T312-3q-5 0-19.5.5t-33 1Q241-1 221-.5T186 0H58v29q39 18 82 24v463H10zm295-196q-24 0-39.5-.5T236 367V53q5-2 14.5-2.5t20.5-1q11-.5 21-.5h16q35 0 66 10t54.5 30.5Q452 110 466 142t14 77q0 81-47 117t-128 36z"/><glyph unicode="ҍ" horiz-adv-x="498" d="M2 500h103v182l-76 8v26q28 13 67.5 21t73.5 15h25V500h144v-52H195V296q17 2 38 5t61 3q75 0 120.5-35T460 159q0-40-14.5-70.5t-40.5-51q-26-20.5-62-31T264-4q-27 0-60.5 2T132 0H39v25q17 10 33 15t33 9v399H2zM195 43l26-2q13-1 27-1 113 0 113 120 0 28-8.5 47.5t-23 31Q315 250 296 255t-40 5q-14 0-30-.5t-31-3.5z"/><glyph unicode="Ҏ" horiz-adv-x="596" d="M207 53q27-3 51-9.5T303 29V0H29v29q20 10 41 15t41 9v593q-23 4-43 10.5T29 671v29h88q42 0 88.5 4t90.5 4q49 0 96-10.5t83.5-35.5q36.5-25 59-66.5T557 492q0-77-38-124.5T423 296l51-80-47-29-58 93q-40-10-87-10h-15.5q-10.5 0-22 .5t-22 1.5q-10.5 1-15.5 2zm68 603q-24 0-39-1t-29-4V327q5-2 14.5-2.5t20-1.5q10.5-1 20.5-1h16q33 0 62 9l-71 112 45 27 72-118q29 20 46.5 54.5T450 492q0 82-46.5 123T275 656z"/><glyph unicode="ҏ" horiz-adv-x="566" d="M253-200H31v25q34 16 66 24v593l-66 8v26q32 14 71 25t71 11h14V400q21 50 56 80.5t93 31.5q11 0 21.5-1t20.5-3q70-12 108.5-71T525 261q0-91-33-154t-91-93l63-91-44-27L350-4q-15-4-30-6t-32-2q-35 0-56 4.5T187 8v-159q16-2 32-7.5t34-16.5zm53 650q-50 0-79-31.5T187 332V54q18-11 40.5-16.5T286 32q10 0 19.5 1t17.5 4l-62 90 41 29 63-92q30 30 47 81t17 116q0 41-6.5 75.5t-21 60Q387 422 363.5 436T306 450z"/><glyph unicode="Ґ" horiz-adv-x="506" d="M207 53q49-8 96-24V0H29v29q40 16 82 24v593q-20 4-41 10.5T29 671v29h380l53 136h26q3-21 4.5-45.5t2-50q.5-25.5 1-49.5t.5-43H207z"/><glyph unicode="ґ" horiz-adv-x="410" d="M329 500q1 1 1 4l44 117h26q5-42 7.5-84t3.5-81H195V49q57-11 90-24V0H39v25q17 10 33 15t33 9v402q-37 6-66 23v26z"/><glyph unicode="Ғ" horiz-adv-x="543" d="M39 382h89v264q-20 4-41 10.5T46 671v29h468q0-20-1-46t-2-54q-1-28-3-54.5t-5-47.5h-26l-52 150H224V382h150v-52H224V53q49-8 96-24V0H46v29q40 16 82 24v277H39z"/><glyph unicode="ғ" horiz-adv-x="430" d="M412 500q-1-39-3.5-81t-8.5-83h-26l-44 120H195V271h112v-52H195V49q57-11 90-24V0H39v25q17 10 33 15t33 9v170H31v52h74v180q-37 6-66 23v26z"/><glyph unicode="Ҕ" horiz-adv-x="610" d="M207 368q27 15 68 30t98 15q47 0 84-11.5t62.5-38q25.5-26.5 38.5-68T571 194q0-71-9.5-125T527-22.5Q502-60 459.5-82T350-110l-6 27q46 16 72.5 39.5t40 56Q470 45 473 87.5t2 97.5q-2 90-31.5 133T345 361q-42 0-76-12t-62-29V53q51-8 94-24V0H29v29q41 17 82 24v593q-20 4-41 10.5T29 671v29h468q0-20-.5-46t-2-53q-1.5-27-3.5-54t-5-48h-26l-52 149H207z"/><glyph unicode="ҕ" horiz-adv-x="548" d="M412 500q-1-39-3.5-79.5T401 339h-26l-45 117H195V222q24 26 57 42t83 16q68 0 105.5-38T478 139V1q0-62-12-102.5t-34.5-64Q409-189 376-199.5T300-212l-5 28q27 8 45 19t28.5 31q10.5 20 15 52T388 1v118q0 47-20.5 75.5T300 223q-28 0-54.5-8.5T195 192V49q55-9 88-24V0H39v25q17 10 33 15t33 9v402q-37 6-66 23v26z"/><glyph unicode="Җ" horiz-adv-x="980" d="M424 646q-21 6-39 12t-32 13v29h231v-29q-22-11-64-25V369l68 14 168 263q-20 6-37.5 12.5T684 671v29h220v-29q-18-8-37-14t-38-11L647 380q25-33 54-73.5t60.5-84q31.5-43.5 66-87.5T898 52h78q0-20-2-46.5t-5-55q-3-28.5-6.5-55T955-151h-25L888 0h-66l-34 25q-59 69-107.5 148.5T578 335h-58V53q17-5 33-10.5T584 29V0H352v29q30 16 72 24v291l-60-15q-54-82-100-158.5T159 25L125 0H0v25l47 24q37 40 72 83t67 85q32 42 60 81.5t51 72.5L109 646q-41 12-71 25v29h221v-29q-14-7-31-13.5T191 646l169-269h64z"/><glyph unicode="җ" horiz-adv-x="748" d="M588 23q-17 23-37 53.5T512.5 138q-18.5 31-35 57.5T452 237h-48V49q31-8 60-24V0H263v25q14 7 27.5 13T319 49v194l-54-10q-9-14-24-41t-33-58q-18-31-37-61t-37-50L104 0H0v25l46 24q25 29 48.5 61t44.5 62q21 30 39 56.5t32 44.5q-38 43-73.5 87.5T69 450q-26 6-50 24v26h173v-26q-19-14-50-24 27-48 59-90.5t67-90.5h51v181q-33 7-56 24v26h194v-26q-10-8-22.5-14T404 450V263l55 10q35 48 63.5 88.5T579 450q-14 5-26 10t-24 14v26h173v-26q-17-12-57-24-32-44-66.5-86T511 280q13-18 34-46t45-60.5q24-32.5 50-66.5t50-64h58q-2-48-4.5-95.5T737-148h-25L667 0h-51z"/><glyph unicode="Ҙ" horiz-adv-x="554" d="M502 199q0-47-16-83t-44-61.5q-28-25.5-65.5-41T297-8q-12-90-33-183h-26q-8 46-16 90.5T207-11q-47 3-88 13.5T50 27q0 16 2 36.5t5.5 43q3.5 22.5 8 45T75 194h26l42-140q6-3 17-5.5t24.5-5q13.5-2.5 28-3.5t27.5-1q37 0 67.5 12T360 84q22 21 34 49t12 61q0 40-12.5 67T360 304.5Q339 321 311.5 328t-57.5 7l-77-11q-7 31-1 58h32q17 0 41 1.5t40 3.5q46 16 70.5 51.5T384 522q0 66-37.5 102T243 660q-33 0-52.5-5.5T164 641l-52-122H86q-5 27-8.5 69T75 671q15 12 36.5 19.5T156 703q23 5 47.5 7t45.5 2q40 0 81-7t74.5-26.5q33.5-19.5 54.5-53t21-85.5q0-51-29.5-95.5T357 375v-4q30-5 56.5-17.5t46-33q19.5-20.5 31-50.5t11.5-71z"/><glyph unicode="ҙ" horiz-adv-x="474" d="M205 35q31 0 53.5 10T295 71q14 16 21 36.5t7 41.5q0 48-20.5 65T247 237l-94-15q-4 13-4.5 27t4.5 27h102q9 4 18.5 12.5t18 21q8.5 12.5 14 29.5t5.5 38q0 48-26.5 69.5T215 468q-20 0-36.5-2.5T157 461l-45-113H87q-11 33-16 66t-6 65q20 11 61 22t105 11q81 0 125.5-29.5T401 395q0-24-10-44t-25.5-36q-15.5-16-35-27T292 271q55-5 92-35.5t37-86.5q0-70-43-110T263-9q-6-45-12-85t-17-86h-26q-9 46-15.5 86T179-10q-43 5-76.5 20.5T46 48l18 67h20q13-14 29-33.5T145 43q21-8 60-8z"/><glyph unicode="Қ" horiz-adv-x="676" d="M382 700h221v-29q-20-9-39-15t-37-10L326 380q25-33 56.5-73.5t67-84q35.5-43.5 73-87.5T596 51h76q0-20-2-46.5T665-50q-3-28-6.5-54.5T651-151h-25L584 0h-63l-34 24q-59 69-117.5 149T256 335h-49V53q46-8 75-24V0H29v29q40 16 82 24v593q-45 6-82 25v29h253v-29q-16-7-35-13.5T207 646V369l60 14 187 263q-20 5-38 11t-34 14z"/><glyph unicode="қ" horiz-adv-x="554" d="M392 23q-45 54-82 108t-75 106h-40V49q20-5 36.5-10.5T260 25V0H39v25q27 16 66 24v401q-35 7-66 24v26h205v-26q-10-7-21.5-13T195 450V263l46 10q40 46 76 86t67 87q-17 7-31.5 13.5T325 474v26h193v-26q-10-8-26.5-14T451 446q-34-41-72-83t-80-84q22-24 47.5-54t51.5-62q26-32 52.5-63T501 43h54q-2-48-5-95.5t-6-95.5h-26L473 0h-49z"/><glyph unicode="Ҝ" horiz-adv-x="713" d="M450 700h220v-29q-20-9-39-15t-37-10L394 381q25-33 57-74t67.5-85q35.5-44 73-88.5T665 49l48-24V0H588l-34 24q-59 69-117 150T325 337h-20V182h-51v155h-47V53q46-8 75-24V0H29v29q40 16 82 24v593q-45 6-82 25v29h253v-29q-16-7-35-13.5T207 646V368l47 5v161h51V378l30 4 187 264q-20 5-38 11t-34 14z"/><glyph unicode="ҝ" horiz-adv-x="632" d="M416 500h193v-26q-10-8-27.5-15.5T542 446q-34-41-72-83t-80-84q22-24 46.5-53t49.5-60q25-31 50-61t49-56l47-24V0H515l-32 23q-45 54-82 108t-75 106h-24V112h-48v125h-59V49q20-5 36.5-10.5T260 25V0H39v25q27 16 66 24v401q-35 7-66 24v26h205v-26q-10-7-21.5-13T195 450V263l59 4v139h48V271l30 2q40 46 76 86t67 87q-17 7-31.5 13.5T416 474z"/><glyph unicode="Ҟ" horiz-adv-x="668" d="M10 581h124v65q-47 6-82 25v29h253v-29q-16-7-35-13.5T230 646v-65h110v-48H230V369l65 14 186 263q-20 5-37.5 11T409 671v29h221v-29q-20-9-39.5-15T553 646L354 381q25-33 56.5-74t66-85q34.5-44 71-88.5T620 49l48-24V0H543l-34 24q-59 69-115 149T284 335h-54V53q46-8 75-24V0H52v29q40 16 82 24v480H10z"/><glyph unicode="ҟ" horiz-adv-x="526" d="M180 263l46 10q40 46 76 86t67 87q-17 7-31.5 13.5T310 474v26h193v-26q-10-8-26.5-14T436 446q-34-41-72.5-83T283 279q22-24 46.5-53t50-60q25.5-31 50.5-61t49-56l47-24V0H409l-32 23q-45 54-82 108t-75 106h-40V49q20-5 36.5-10.5T245 25V0H24v25q27 16 66 24v522H3v52h87v59l-76 8v26q28 13 67 21t74 15h25V623h157v-52H180z"/><glyph unicode="Ҡ" horiz-adv-x="762" d="M498 700h221v-29q-20-9-39.5-15T642 646L442 381q25-33 57.5-74t68-85q35.5-44 73-88.5T714 49l48-24V0H637l-34 24q-59 69-117.5 149T373 335h-50V53q45-8 76-24V0H145v29q40 16 82 24v595H98L47 507H21q-3 21-5 46.5T13 605q-1 26-2 50.5T10 700h389v-29q-17-7-36-13.5T323 646V369l60 14 187 263q-20 5-37.5 11T498 671z"/><glyph unicode="ҡ" horiz-adv-x="611" d="M315 500v-26q-20-14-50-24V263l46 10q38 40 75.5 83t68.5 90q-17 7-32 13.5T395 474v26h193v-26q-10-8-26-14t-40-14q-34-41-72.5-83T369 279q22-24 46.5-53t50-60q25.5-31 50.5-61t49-56l46-24V0H495l-32 23q-45 54-82.5 108T305 237h-40V49q41-9 65-24V0H109v25q27 16 66 24v407H96L52 346H27q-5 38-8 77t-4 77z"/><glyph unicode="Ң" horiz-adv-x="743" d="M282 0H29v29q40 16 82 24v593q-47 7-82 25v29h253v-29q-17-9-36-15t-39-10V385h314v261q-21 5-39.5 11T446 671v29h253v-29q-18-10-39.5-15.5T617 646V52h110q0-20-2-46.5t-5-55q-3-28.5-6.5-55T707-151h-26L639 0H446v29q36 16 75 24v280H207V53q20-4 39-10t36-14z"/><glyph unicode="ң" horiz-adv-x="613" d="M254 0H39v25q14 8 31 13.5T105 49v401q-18 5-35 10.5T39 474v26h215v-26q-23-14-59-24V275h222v175q-35 6-60 24v26h216v-26q-27-17-66-24V43h79q-2-48-4.5-95.5T575-148h-25L505 0H357v25q25 18 60 24v182H195V49q20-4 34-10t25-14z"/><glyph unicode="Ҥ" horiz-adv-x="917" d="M617 53q52-8 96-24V0H446v29q17 9 37.5 12.5T521 53v280H207V53q20-4 39-10t36-14V0H29v29q40 16 82 24v593q-47 7-82 25v29h253v-29q-17-9-36-15t-39-10V385h314v261q-8 1-19 3.5t-22 6q-11 3.5-20.5 7T446 671v29h461q0-20-.5-46t-2-54q-1.5-28-3-54.5T897 498h-26l-52 150H617z"/><glyph unicode="ҥ" horiz-adv-x="743" d="M357 0v25q25 18 60 24v182H195V49q20-4 34-10t25-14V0H39v25q14 8 31 13.5T105 49v401q-18 5-35 10.5T39 474v26h215v-26q-23-14-59-24V275h222v175q-35 6-60 24v26h367q-1-39-3.5-81t-8.5-83h-26l-44 120H507V49q57-11 90-24V0z"/><glyph unicode="Ҧ" horiz-adv-x="1010" d="M282 0H29v29q15 8 35 14t47 10v593q-20 4-41 10.5T29 671v29h660v-29q-19-10-40-15.5t-42-9.5V368q27 15 68 30t98 15q47 0 84-11.5t62.5-38q25.5-26.5 38.5-68T971 194q0-71-9.5-125T927-22.5Q902-60 859.5-82T750-110l-6 27q45 16 72 39.5t40.5 56Q870 45 873 87.5t2 97.5q-2 89-32 132.5T746 361q-42 0-76.5-12T607 320V53q41-5 81-24V0H436v29q22 14 75 24v595H207V53q39-8 75-24z"/><glyph unicode="ҧ" horiz-adv-x="872" d="M730 114q0 78-22 122t-80 44q-50 0-79-27.5T506 185V49q34-6 66-24V0H357v25q10 7 23.5 13T416 49v407H195V49q20-6 34-12t25-12V0H39v25q19 11 35 16.5t31 7.5v401q-21 5-38 11t-28 13v26h533v-26q-13-8-29-15t-37-9V240q9 19 22.5 37.5t32 32.5q18.5 14 41.5 23t50 9q41 0 72.5-10t52.5-34q21-24 32-64.5T820 131V31q0-125-47-181.5T640-212l-5 28q27 8 45 23.5t29.5 41Q721-94 725.5-57t4.5 88z"/><glyph unicode="Ҩ" horiz-adv-x="845" d="M777 63q-11-33-43.5-54T651-12q-35 0-68 11.5T531 25q-15-13-49.5-25T402-12q-77 0-141.5 27T150 90.5q-46 48.5-71.5 115T53 350q0 73 21.5 138.5t61 115q39.5 49.5 96 79T358 712q32 0 56.5-11t35.5-30l-8-18q-9 4-25 5.5t-24 1.5q-55 0-98-24t-73-66q-30-42-46-98.5T160 349q0-64 18.5-120.5t53-98.5Q266 88 316 64t113-24q20 0 31 1.5t25 8.5q-32 16-63 44.5t-55.5 68Q342 202 327 251t-15 107q0 64 20 119t54 95q34 40 79 62.5t94 22.5q44 0 86-18.5t75-56q33-37.5 53-93.5t20-132q0-60-20-110.5T723.5 157Q694 118 660 91.5T597 53q10-5 26.5-9.5T656 39q35 0 60.5 9T765 77zM419 350q0-49 11-91.5t29-77q18-34.5 41.5-61T549 77q31 17 56.5 46t43.5 66q18 37 27.5 80.5T686 360q0 53-7.5 98t-23 77.5q-15.5 32.5-39 51T561 605q-37 0-64-20t-44-54.5q-17-34.5-25.5-81T419 350z"/><glyph unicode="ҩ" horiz-adv-x="659" d="M630 32q-5-12-14.5-20.5T594.5-2q-11.5-5-24-7.5T548-12q-29 0-60 5.5T440 12Q414 0 383-6t-57-6q-60 0-112.5 18.5t-90.5 53q-38 34.5-60 83T41 250q0 54 18.5 101.5T110 435q32 36 75 56.5t92 20.5q31 0 52-10t21-33l-5-7q-11 3-25 4.5t-25 1.5q-36-1-65-17t-49-44.5Q161 378 150 338t-11-88q0-45 14.5-85T194 95.5Q220 66 256 49t79-17q17 0 36 1.5t27 4.5q-29 8-55.5 28T296 113.5q-20 27.5-31.5 60T253 239q0 58 16.5 99t43.5 67q27 26 62 38.5t72 12.5q29 0 60.5-11.5t57.5-36q26-24.5 42.5-63T624 253q0-38-13.5-73.5t-34.5-64q-21-28.5-46.5-49T479 37q7-2 18-3.5t23.5-2.5q12.5-1 24-1H564q33 0 59 14zM349 242q0-63 22-112.5T435 56q18 10 35 29t30 45.5q13 26.5 20.5 59.5t7.5 71q0 28-4.5 55.5t-15 48.5q-10.5 21-27 34T440 412q-45 0-68-47.5T349 242z"/><glyph unicode="Ҫ" horiz-adv-x="644" d="M547 182h26q5-28 9-70.5t2-82.5Q556 7 511.5-1.5T425-12q-5-44-13-88.5T393-191h-26q-9 47-16.5 93T335-7Q201 10 127 96.5T53 350q0 98 27 166.5t73 112Q199 672 260 692t128 20q66 0 111-8.5t79-25.5q0-16-1-37.5t-3-45.5q-2-24-5-47t-6-42h-26l-52 144q-11 6-36.5 8t-50.5 2q-50 0-94.5-18.5t-78-57Q192 546 172 487.5T152 350q0-71 18-128.5t52-98q34-40.5 83-62T416 40q33 0 55 5t29 13z"/><glyph unicode="ҫ" horiz-adv-x="466" d="M427 70q-17-32-51.5-54T293-11q-6-44-12-83.5T264-180h-26q-9 48-15.5 89T209-5Q124 14 82.5 81T41 250q0 127 62 194.5T272 512q49 0 87.5-8.5T425 481q-3-33-11-74t-20-68h-27l-42 119q-7 5-16 7.5t-30 2.5q-68 0-105-49.5T137 251q0-38 10.5-74t32-64.5Q201 84 233.5 67T309 50q35 0 61 10t44 24z"/><glyph unicode="Ҭ" horiz-adv-x="619" d="M169 29q22 8 44.5 14T262 53v595H109L56 505H31q-3 20-5 45.5t-3.5 52Q21 629 20 654.5T19 700h581q0-20-1-45t-2.5-51.5q-1.5-26.5-3-52T589 505h-26l-52 143H358V52h110q0-20-2-46.5t-5-55q-3-28.5-6.5-55T447-151h-25L380 0H169z"/><glyph unicode="ҭ" horiz-adv-x="497" d="M137 25q31 16 66 24v407h-93L66 336H40q-5 43-8 84.5T28 500h440q-1-36-3.5-78.5T457 336h-26l-44 120h-94V44h88q-2-48-5-96l-6-96h-25L300 0H137z"/><glyph unicode="Ү" horiz-adv-x="644" d="M424 700h220v-29q-38-19-76-25L379 298V53q39-5 76-24V0H201v29q36 18 82 24v244L81 646q-23 4-42.5 10.5T0 671v29h265v-29q-15-6-34-12.5T188 646l164-294 154 294q-23 5-43.5 11.5T424 671z"/><glyph unicode="ү" horiz-adv-x="507" d="M369-200H147v25q15 8 31 13.5t35 10.5V43L43 450q-29 10-53 24v26h209v-25q-13-7-26.5-13.5T142 450l116-301 20-65h2l16 66 106 300q-16 4-29.5 10T347 474v26h170v-26q-10-7-24.5-13T460 450L303 45v-196q20-5 36-10.5t30-13.5z"/><glyph unicode="Ұ" horiz-adv-x="644" d="M425 700h219v-29q-38-19-76-25L379 298h145v-52H379V53q39-5 76-24V0H201v29q36 18 82 24v193H138v52h144L81 646q-23 4-42.5 10.5T0 671v29h265v-29q-15-6-34-12.5T188 646l164-294 154 294q-23 5-43.5 11.5T425 671z"/><glyph unicode="ұ" horiz-adv-x="507" d="M91 52h119L43 450q-29 10-53 24v26h209v-25q-13-7-26.5-13.5T142 450l91-237 43-129h2l40 130 84 236q-16 4-29.5 10T347 474v26h170v-26q-10-7-24.5-13T460 450L305 52h121V0H304l-1-151q20-5 36-10.5t30-13.5v-25H147v25q15 8 31 13.5t35 10.5V0H91z"/><glyph unicode="Ҳ" horiz-adv-x="686" d="M395 29q36 18 75 24L312 304 160 52q21-3 41.5-7.5T241 29V0H10v29q19 10 37.5 15T84 53l196 299L92 646q-20 6-39.5 12T13 671v29h265v-29q-16-6-34.5-12T201 646l140-226 136 226q-39 9-82 25v29h230v-29q-17-7-36-13.5T550 646L374 375 582 52h100q0-20-2-46.5t-5-55q-3-28.5-6.5-55T662-151h-26L594 0H395z"/><glyph unicode="ҳ" horiz-adv-x="519" d="M304 24q14 8 26 14.5T354 49L243 214 131 49q14-5 26-11t24-13V0H10v25q28 17 56 24l149 199L65 450q-14 5-25.5 10.5T16 474v26h201v-25q-12-8-23.5-14.5T168 450l104-150 102 150q-34 11-50 24v26h167v-26q-19-13-56-24L298 268 460 43h73q-2-48-4.5-95.5T522-148h-25L452 0H304z"/><glyph unicode="Ҵ" horiz-adv-x="885" d="M169 0v29q22 8 44 14t48 10v595H108L56 505H31q-3 20-5 45.5t-3.5 52Q21 629 20 654.5T19 700h528q0-20-1-45t-2.5-51.5q-1.5-26.5-3-52T536 505h-26l-52 143H357V52h302v594q-18 5-33.5 10.5T595 671v29h242v-29q-20-8-40.5-14.5T755 646V52h115q-1-20-3-46.5t-5-55q-3-28.5-6.5-55T849-151h-26L781 0z"/><glyph unicode="ҵ" horiz-adv-x="775" d="M293 44h274v406q-14 3-28.5 9.5T508 474v26h215v-26q-13-7-29-13t-37-11V44h89q-2-48-4.5-96t-6.5-96h-25L665 0H137v25q27 16 66 24v407h-93L66 336H40q-5 43-8 84.5T28 500h439q-1-36-3.5-78.5T456 336h-26l-44 120h-93z"/><glyph unicode="Ҷ" horiz-adv-x="667" d="M353 29q24 11 46.5 16.5T445 53v257q-27-15-71.5-30T272 265q-42 0-77 8t-60.5 29Q109 323 95 359t-14 92v195q-18 3-36 9.5T9 671v29h234v-29q-14-7-30-13.5T177 646V470q0-70 28.5-111.5T300 317q42 0 80 12t65 29v288q-18 5-36 11.5T374 671v29h233v-29q-14-7-30.5-13.5T541 646V52h111q0-20-2-46.5t-5-55q-3-28.5-6.5-55T631-151h-25L564 0H353z"/><glyph unicode="ҷ" horiz-adv-x="558" d="M283 25q41 17 80 24v179q-24-26-57-42.5T223 169q-68 0-105 38T81 310v140q-38 7-66 24v26h215v-26q-10-7-25-13.5T171 450V330q0-47 20-75.5t67-28.5q28 0 54.5 8.5T363 257v193q-30 6-59 24v26h215v-26q-27-17-66-24V43h83q-2-48-5-95.5t-6-95.5h-26L454 0H283z"/><glyph unicode="Ҹ" horiz-adv-x="664" d="M304 266q-6-1-12-1h-13q-42 0-78 8t-62.5 29q-26.5 21-42 57T81 451v195q-18 3-36 9.5T9 671v29h243v-29q-14-7-34.5-13.5T177 646V470q0-69 31.5-110.5T304 317v153h52V320q33 5 65 15.5t52 22.5v288q-18 5-36 11.5T402 671v29h233v-29q-14-7-30.5-13.5T569 646V53q20-4 36-10t30-14V0H381v29q24 11 46.5 16.5T473 53v257q-18-11-49-21t-68-17V128h-52z"/><glyph unicode="ҹ" horiz-adv-x="620" d="M282 170q-8-1-14.5-1H254q-49 0-82 10t-53.5 28.5Q98 226 89.5 252T81 310v140q-38 7-66 24v26h215v-26q-10-7-25-13.5T171 450V330q0-46 24-74t87-30v160h47V229q26 4 52.5 11t43.5 17v193q-32 6-60 24v26h216v-26q-27-17-66-24V49q20-5 36-10.5T581 25V0H345v25q41 17 80 24v179q-16-17-41-29t-55-20V92h-47z"/><glyph unicode="Һ" horiz-adv-x="636" d="M29 700h254v-29q-24-11-46.5-16.5T191 647V390q27 15 71.5 30T364 435q42 0 77-8t60.5-29q25.5-21 39.5-57t14-92V54q18-3 36-9.5T627 29V0H393v29q14 7 30 13.5T459 54v176q0 70-28.5 111.5T336 383q-42 0-80-12t-65-29V54q18-5 36-11.5T262 29V0H29v29q14 7 30.5 13.5T95 54v593q-20 4-36.5 10T29 671z"/><glyph unicode="һ" horiz-adv-x="587" d="M570 0H354v25q24 13 60 24v234q0 78-22 122.5T312 450q-26 0-47-9.5T227 416q-17-15-29-34.5T180 341V49q16-4 30.5-9T239 25V0H24v25q31 16 66 24v633l-76 8v26q29 12 67.5 21t73.5 15h25V399h1q21 47 60.5 80t95.5 33q40 0 71.5-9.5T461 469q21-24 32-64.5T504 302V49q17-4 34-9t32-15z"/><glyph unicode="Ҽ" horiz-adv-x="816" d="M478 712q64 0 116.5-18.5t90-56q37.5-37.5 58-93.5T763 413q0-26-1.5-42.5T757 338H262q0-70 21-123t57-88q36-35 82.5-53t96-18.5q49.5-.5 99.5 15t92 47.5l10-21q-40-57-100.5-83T501-12q-71 0-132 22T263 76q-45 44-71.5 109.5T163 338q-41 1-71.5 13t-51 32.5Q20 404 9.5 430T-1 484q0 21 7.5 48.5T32 580q23 0 51-10t48-23l8-16-82-79q11-32 41-46.5t66-15.5q6 79 33 139.5t69.5 101q42.5 40.5 97 61T478 712zm1-52q-47 0-85.5-18.5t-66.5-53Q299 554 282 504t-20-114h400q1 11 1.5 21t.5 20q0 51-14 93t-38.5 72Q587 626 553 643t-74 17z"/><glyph unicode="ҽ" horiz-adv-x="604" d="M548 70q-8-17-25-32t-39.5-26Q461 1 435-5.5T382-12q-59 0-103.5 18.5t-75 53Q173 94 157.5 142T142 250q-74 2-108 37T0 373q0 46 31 82 22 2 43.5-11t30.5-29q2-3 3.5-6t2.5-6l-60-57q3-14 12.5-23.5T86 307q13-6 28.5-9t29.5-4q11 106 68.5 162T368 512q35 0 69-9.5t60.5-31q26.5-21.5 43-58T557 323q0-35-7-73H238q0-42 10.5-78.5T280 108q21-27 53-42.5T409 50q16 0 34 2.5t35.5 7.5Q496 65 510 71.5T533 86zM364 468q-56 0-86-38.5T242 294h219q1 9 1.5 17.5t.5 16.5q0 64-24 102t-75 38z"/><glyph unicode="Ҿ" horiz-adv-x="816" d="M436-7q-16 2-31 6.5T375 9q-47 15-85.5 43.5t-66 70Q196 164 180 218t-17 120q-41 1-71.5 13t-51 32.5Q20 404 9.5 430T-1 484q0 21 7.5 48.5T32 580q23 0 51-10t48-23l8-16-82-79q11-32 41-46.5t66-15.5q6 79 33 139.5t69.5 101q42.5 40.5 97 61T478 712q64 0 116.5-18.5t90-56q37.5-37.5 58-93.5T763 413q0-26-1.5-42.5T757 338H262q0-70 21-123t57-88q36-35 82.5-53t96-18.5q49.5-.5 99.5 15t92 47.5l10-21q-36-51-87.5-77T527-11q-6-45-13.5-89.5T495-191h-26q-10 47-17.5 93T436-7zm43 667q-47 0-85.5-18.5t-66.5-53Q299 554 282 504t-20-114h400q1 11 1.5 21t.5 20q0 51-14 93t-38.5 72Q587 626 553 643t-74 17z"/><glyph unicode="ҿ" horiz-adv-x="604" d="M548 70q-15-31-55-53.5T405-11q-5-44-11-83.5T377-180h-26q-10 48-16 88T322-7q-90 17-134.5 85T142 250q-74 2-108 37T0 373q0 46 31 82 22 2 43.5-11t30.5-29q2-3 3.5-6t2.5-6l-60-57q3-14 12.5-23.5T86 307q13-6 28.5-9t29.5-4q11 106 68.5 162T368 512q35 0 69-9.5t60.5-31q26.5-21.5 43-58T557 323q0-35-7-73H238q0-42 10.5-78.5T280 108q21-27 53-42.5T409 50q16 0 34 2.5t35.5 7.5Q496 65 510 71.5T533 86zM364 468q-56 0-86-38.5T242 294h219q1 9 1.5 17t.5 16q0 64-24 102.5T364 468z"/><glyph unicode="Ӏ" horiz-adv-x="352" d="M304 0H48v29q39 18 80 24v593q-20 4-40 10.5T48 671v29h256v-29q-18-8-39-14.5T224 646V53q21-4 42-10t38-14z"/><glyph unicode="Ӄ" horiz-adv-x="646" d="M503 1q0 36-12 72.5t-31.5 70Q440 177 415 207.5T364 263q-26 25-50.5 43.5T271 335h-64V53q46-8 75-24V0H29v29q40 16 82 24v593q-45 6-82 25v29h253v-29q-16-7-35-13.5T207 646V369l60 14 186 263q-20 5-37.5 11T382 671v29h220v-29q-20-9-39-15t-37-10L326 381q44-20 92-58t88.5-87Q547 187 573 130t26-115q0-57-18-98t-49-68.5q-31-27.5-72.5-42T370-211l-6 27q28 6 53.5 18.5T462-131q19 22 30 54t11 78z"/><glyph unicode="ӄ" horiz-adv-x="541" d="M418-41q0 47-19 92t-47 82.5q-28 37.5-60 65T235 237h-40V49q20-5 36.5-10.5T260 25V0H39v25q27 16 66 24v401q-35 7-66 24v26h205v-26q-10-7-21.5-13T195 450V263l46 10q40 46 76 86t67 87q-17 7-31.5 13.5T325 474v26h193v-26q-10-8-26.5-14T451 446q-34-41-72-83t-80-84q28-12 64.5-40t68.5-68q32-40 54-90t22-105q0-86-46-134.5T330-212l-5 28q53 16 73 50.5T418-41z"/><glyph unicode="Ӆ" horiz-adv-x="656" d="M202 641q-62 10-102 30v29h526v-29q-35-18-82-25V52h110l8-9q-4-19-15-44t-25-51.5Q608-79 592-105t-30-45h-27L564 0H372v29q18 8 37 13.5T448 53v595H261q-4-157-14.5-260.5t-26.5-171Q204 149 183.5 109T139 38Q119 12 90 0T34-12q-7 8-14.5 22.5t-14 31Q-1 58-5 74.5t-5 29.5l15 25 115-21q15 25 29.5 66t26 104.5Q187 342 194.5 431t7.5 210z"/><glyph unicode="ӆ" horiz-adv-x="546" d="M102 86q14 24 25 64t18.5 88q7.5 48 11.5 100.5t4 101.5q-20 6-36.5 15T94 474v26h409v-26q-32-18-66-24V44h98l5-8q-5-24-16-52t-24.5-54q-13.5-26-27-47T450-148h-27L450 0H288v25q24 17 59 24v407H215q-1-53-6-112.5t-15-117q-10-57.5-26-108T129 34Q110 5 88-6.5T47-14Q32 3 18.5 30.5T3 81l14 25z"/><glyph unicode="Ӈ" horiz-adv-x="728" d="M282 0H29v29q40 16 82 24v593q-47 7-82 25v29h253v-29q-17-9-36-15t-39-10V385h314v261q-21 5-39.5 11T446 671v29h253v-29q-18-10-39.5-15.5T617 646V0q0-68-13-109.5t-38-64q-25-22.5-61-30t-82-7.5l-6 27q26 6 45.5 16.5t32.5 31Q508-116 514.5-83T521 0v333H207V53q20-4 39-10t36-14z"/><glyph unicode="ӈ" horiz-adv-x="612" d="M254 0H39v25q14 8 31 13.5T105 49v401q-18 5-35 10.5T39 474v26h215v-26q-23-14-59-24V275h222v175q-35 6-60 24v26h216v-26q-27-17-66-24V0q0-62-12-102t-34.5-63.5Q438-189 405-199.5T329-212l-5 28q27 8 45 19t28.5 31q10.5 20 15 52T417 1v230H195V49q20-4 34-10t25-14z"/><glyph unicode="Ӊ" horiz-adv-x="730" d="M282 0H29v29q40 16 82 24v593q-47 7-82 25v29h253v-29q-17-9-36-15t-39-10V385h314v261q-21 5-39.5 11T446 671v29h253v-29q-18-10-39.5-15.5T617 646V52h111l8-9q-4-19-15-44t-25-51.5Q682-79 665.5-105T635-150h-27L638 0H446v29q36 16 75 24v280H207V53q20-4 39-10t36-14z"/><glyph unicode="ӊ" horiz-adv-x="615" d="M254 0H39v25q14 8 31 13.5T105 49v401q-18 5-35 10.5T39 474v26h215v-26q-23-14-59-24V275h222v175q-35 6-60 24v26h216v-26q-27-17-66-24V44h90l5-8q-5-24-16-52t-24.5-54q-13.5-26-27-47T512-148h-26L512 0H357v25q25 18 60 24v182H195V49q20-4 34-10t25-14z"/><glyph unicode="Ӌ" horiz-adv-x="636" d="M607 0H423l-42-151h-25q-4 20-7.5 46.5t-6.5 55q-3 28.5-5 55T335 52h110v258q-27-15-71.5-30T272 265q-42 0-77 8t-60.5 29Q109 323 95 359t-14 92v195q-18 3-36 9.5T9 671v29h234v-29q-14-7-30-13.5T177 646V470q0-70 28.5-111.5T300 317q42 0 80 12t65 29v288q-18 5-36 11.5T374 671v29h233v-29q-14-7-30.5-13.5T541 646V53q20-4 36.5-10T607 29z"/><glyph unicode="ӌ" horiz-adv-x="558" d="M15 500h215v-26q-10-7-25-13.5T171 450V330q0-47 20-75.5t67-28.5q28 0 54.5 8.5T363 257v193q-30 6-59 24v26h215v-26q-27-17-66-24V49q20-5 36-10.5T519 25V0H355l-45-148h-26l-6 96q-3 48-5 96h90v184q-24-26-57-42.5T223 169q-68 0-105 38T81 310v140q-38 7-66 24z"/><glyph unicode="Ӎ" horiz-adv-x="870" d="M762 52h109l8-7Q875 26 864.5.5t-25-52.5Q825-79 809-105t-30-45h-27L781 0H589v29q20 8 40 13.5T670 53v450l4 117h-8l-33-107L428 0h-26L207 513l-36 117h-9l1-127V53q19-4 38-10t38-14V0H30v29q19 8 39.5 14.5T111 54v592q-21 4-41.5 10.5T29 671v29h205l174-457 34-103h1l34 105 180 455h181v-29q-18-8-37-14.5T762 646z"/><glyph unicode="ӎ" horiz-adv-x="746" d="M207 0H31v25q33 16 66 24l15 391q-21 8-37 17t-29 17v26h195l102-293 19-69h3l21 70 108 292h189v-26q-13-8-29-14t-37-10l22-406h93l5-8q-5-24-16.5-52t-25-54q-13.5-26-27-47T647-148h-27L647 0H491v25q10 5 24 11t36 13l-20 405h-8L359 0h-28L170 454h-8L147 49q36-11 60-24z"/><glyph unicode="ӏ" horiz-adv-x="304" d="M265 0H39v25q14 7 33.5 13T109 49v601q-19 4-39 10t-31 14v26h226v-26q-12-8-29-13.5T199 650V49q17-5 33-10.5T265 25z"/><glyph unicode="Ӑ" horiz-adv-x="683" d="M222 0H0v29q36 16 72 24l253 659h29L607 53q20-4 39.5-9T683 29V0H427v29q20 8 41 14t41 10l-68 183H202L136 53q42-6 86-24zm0 288h202l-79 212-19 86h-2l-25-88zm124 444q-92 0-134.5 36.5T169 859q11 11 32.5 16t42.5 6l25-13v-85q14-7 34.5-10.5T347 769q17 0 40.5 3t37.5 8v88l25 13q15 1 36.5-5.5T521 859q0-27-10-50t-31-40q-21-17-54-27t-80-10z"/><glyph unicode="ӑ" horiz-adv-x="505" d="M410 131q0-22 1-38t2-34l69-10V28q-25-13-55.5-23T368-10h-25q-10 23-12 50.5t-3 60.5h-5q-4-20-15.5-40.5t-30-36.5Q259 8 234-2t-57-10q-61 0-99.5 37T39 122q0 46 18.5 75.5T112 244q36 17 89 24.5T324 280q4 43 2.5 77.5t-11 59q-9.5 24.5-28 38T239 468q-14 0-31.5-1.5T173 458l-47-120h-26q-10 30-17.5 62T73 463q38 23 84.5 36T261 512q51 0 81.5-14.5T389 460q16-23 21-51t5-56q0-60-2.5-115.5T410 131zM217 50q25 0 44 10t32 24q13 14 21 28.5t11 24.5v105q-58 0-95-6t-58-19q-21-13-29-32.5t-8-44.5q0-43 22-66.5T217 50zm39 510q-50 0-82 10.5T123 598q-19 17-26.5 39.5T89 683q16 13 35 19t40 8l25-13v-89q14-6 33-8.5t35-2.5q10 0 32 2t36 6v92l25 13q21-2 39.5-9t30.5-18q0-23-8-45.5T385.5 598q-18.5-17-50-27.5T256 560z"/><glyph unicode="Ӓ" horiz-adv-x="683" d="M222 0H0v29q36 16 72 24l253 659h29L607 53q20-4 39.5-9T683 29V0H427v29q20 8 41 14t41 10l-68 183H202L136 53q42-6 86-24zm0 288h202l-79 212-19 86h-2l-25-88zm-50 501q0 24 16 36t41 12q24 0 40-12t16-36q0-23-16-35t-40-12q-25 0-41 12t-16 35zm223 0q0 24 16 36t40 12q25 0 41-12t16-36q0-23-16-35t-41-12q-24 0-40 12t-16 35z"/><glyph unicode="ӓ" horiz-adv-x="505" d="M410 131q0-22 1-38t2-34l69-10V28q-25-13-55.5-23T368-10h-25q-10 23-12 50.5t-3 60.5h-5q-4-20-15.5-40.5t-30-36.5Q259 8 234-2t-57-10q-61 0-99.5 37T39 122q0 46 18.5 75.5T112 244q36 17 89 24.5T324 280q4 43 2.5 77.5t-11 59q-9.5 24.5-28 38T239 468q-14 0-31.5-1.5T173 458l-47-120h-26q-10 30-17.5 62T73 463q38 23 84.5 36T261 512q51 0 81.5-14.5T389 460q16-23 21-51t5-56q0-60-2.5-115.5T410 131zM217 50q25 0 44 10t32 24q13 14 21 28.5t11 24.5v105q-58 0-95-6t-58-19q-21-13-29-32.5t-8-44.5q0-43 22-66.5T217 50zM84 663q0 24 15 38.5t39 14.5q24 0 39-14.5t15-38.5q0-23-15-37t-39-14q-24 0-39 14t-15 37zm222 0q0 24 15 38.5t39 14.5q24 0 39-14.5t15-38.5q0-23-15-37t-39-14q-24 0-39 14t-15 37z"/><glyph unicode="Ӕ" horiz-adv-x="921" d="M842 700q-1-40-3-80.5t-8-81.5h-25l-42 110H547V383h162l40 74h24q8-99 0-202h-24l-40 76H547V52h230l48 120h26q6-42 9.5-85T862 0H369v29q35 16 82 24v203H255L139 53q41-6 85-24V0H0v29q36 16 72 24l354 599q-14 4-29 8.5T368 671v29zM285 308h166v303h-2l-41-93z"/><glyph unicode="ӕ" horiz-adv-x="778" d="M390 453q11 12 24 23t30.5 19q17.5 8 41 12.5T542 512q35 0 69-9.5t60.5-31.5q26.5-22 43-58.5T731 322q0-17-1.5-34.5T724 250H414q0-42 10.5-78.5t31-63.5q20.5-27 52-42.5T582 50q17 0 35.5 2.5T653 60q17 5 31 11.5T707 86l15-16q-8-17-25-32t-39.5-26Q635 1 609-5.5T556-12q-27 0-56.5 5t-58 17.5Q413 23 389 44.5T350 98q-8-23-24-43t-38.5-35Q265 5 237-3.5T177-12q-61 0-99.5 37T39 122q0 46 18.5 75.5T112 244q36 17 89 24.5T324 280q3 31 3 58 0 61-19 95.5T239 468q-14 0-31.5-1.5T173 458l-47-120h-26q-10 30-17.5 62T73 463q38 23 84.5 36T261 512q57 0 87-16.5t42-42.5zM217 50q25 0 43.5 9.5t31.5 23Q305 96 313 110t11 24v108q-58 0-95-6t-58-19q-21-13-28.5-32.5T135 140q0-43 22-66.5T217 50zm321 418q-56 0-86-38.5T416 294h219q1 9 1.5 17.5t.5 16.5q0 64-24 102t-75 38z"/><glyph unicode="Ӗ" horiz-adv-x="582" d="M503 700q-1-40-3.5-80.5T492 538h-26l-41 110H207V383h163l39 74h25q6-99 0-202h-25l-39 76H207V52h230l49 120h25q7-42 10-85t1-87H29v29q35 16 82 24v593q-20 4-41 10.5T29 671v29zm-210 32q-92 0-134.5 36.5T116 859q11 11 32.5 16t42.5 6l25-13v-85q14-7 34.5-10.5T294 769q17 0 40.5 3t37.5 8v88l25 13q15 1 36.5-5.5T468 859q0-27-10-50t-31-40q-21-17-54-27t-80-10z"/><glyph unicode="ӗ" horiz-adv-x="503" d="M446 70q-8-17-25-32t-39-26Q360 1 334-5.5T281-12q-59 0-104 18.5t-75 53Q72 94 56.5 142T41 250q0 128 59 195t167 67q35 0 69-9.5t60.5-31.5q26.5-22 43-58.5T456 322q0-17-1.5-34.5T449 250H137q0-42 10.5-78.5T179 108q21-27 53-42.5T307 50q35 0 71 10t54 26zM263 468q-57 0-87-38.5T140 294h220q1 9 1.5 17.5t.5 16.5q0 64-24 102t-75 38zm3 92q-50 0-82 10.5T133 598q-19 17-26.5 39.5T99 683q16 13 35 19t40 8l25-13v-89q14-6 33-8.5t35-2.5q10 0 32 2t36 6v92l25 13q21-2 39.5-9t30.5-18q0-23-8-45.5T395.5 598q-18.5-17-50-27.5T266 560z"/><glyph unicode="Ә" horiz-adv-x="710" d="M360-12q-71 0-128 20t-97 60.5Q95 109 74 170T53 312q0 28 3 60h502q-2 67-19 120t-48.5 90.5Q459 620 412 640t-109 20q-13 0-29-1t-31.5-2.5q-15.5-1.5-28-4.5t-18.5-6l-53-145h-25q-4 20-7 43.5t-5 47q-2 23.5-2.5 44t.5 35.5q35 17 90 29t113 12q174 0 262-91t88-271q0-89-21.5-157T575 79.5Q536 34 481 11T360-12zm-2 52q91 0 143 68.5T558 320H158q-3-21-3-42 0-50 14-93t40.5-75.5q26.5-32.5 64-51T358 40z"/><glyph unicode="ә" horiz-adv-x="519" d="M241 468q-14 0-31.5-1.5T175 458l-48-119h-25q-10 31-16.5 62.5T77 464q38 23 78.5 35.5T253 512q60 0 102.5-18.5t69.5-53q27-34.5 40-82.5t13-108q0-128-59.5-195T252-12q-35 0-71.5 11.5t-66 36Q85 60 66 99.5T47 196q0 16 2 33t5 35h330q0 42-6.5 79.5t-22.5 65Q339 436 311.5 452T241 468zm14-436q57 0 89.5 45.5T382 220H143q-7-86 24.5-137T255 32z"/><glyph unicode="Ӛ" horiz-adv-x="710" d="M360-12q-71 0-128 20t-97 60.5Q95 109 74 170T53 312q0 28 3 60h502q-2 67-19 120t-48.5 90.5Q459 620 412 640t-109 20q-13 0-29-1t-31.5-2.5q-15.5-1.5-28-4.5t-18.5-6l-53-145h-25q-4 20-7 43.5t-5 47q-2 23.5-2.5 44t.5 35.5q35 17 90 29t113 12q174 0 262-91t88-271q0-89-21.5-157T575 79.5Q536 34 481 11T360-12zm-2 52q91 0 143 68.5T558 320H158q-3-21-3-42 0-50 14-93t40.5-75.5q26.5-32.5 64-51T358 40zM164 789q0 24 16 36t41 12q24 0 40-12t16-36q0-23-16-35t-40-12q-25 0-41 12t-16 35zm223 0q0 24 16 36t40 12q25 0 41-12t16-36q0-23-16-35t-41-12q-24 0-40 12t-16 35z"/><glyph unicode="ӛ" horiz-adv-x="519" d="M241 468q-14 0-31.5-1.5T175 458l-48-119h-25q-10 31-16.5 62.5T77 464q38 23 78.5 35.5T253 512q60 0 102.5-18.5t69.5-53q27-34.5 40-82.5t13-108q0-128-59.5-195T252-12q-35 0-71.5 11.5t-66 36Q85 60 66 99.5T47 196q0 16 2 33t5 35h330q0 42-6.5 79.5t-22.5 65Q339 436 311.5 452T241 468zm14-436q57 0 89.5 45.5T382 220H143q-7-86 24.5-137T255 32zM95 663q0 24 15 38.5t39 14.5q24 0 39-14.5t15-38.5q0-23-15-37t-39-14q-24 0-39 14t-15 37zm222 0q0 24 15 38.5t39 14.5q24 0 39-14.5t15-38.5q0-23-15-37t-39-14q-24 0-39 14t-15 37z"/><glyph unicode="Ӝ" horiz-adv-x="947" d="M424 646q-21 6-39 12t-32 13v29h232v-29q-12-6-28.5-12T520 646V369l68 14 168 263q-20 6-37.5 12.5T684 671v29h220v-29q-18-8-37-14t-38-11L647 380q26-33 55-74t60.5-85q31.5-44 66-88T900 49l47-24V0H822l-34 25q-59 69-107.5 148.5T578 335h-58V53q17-5 33.5-10.5T585 29V0H352v29q30 16 72 24v291l-60-15q-54-82-100-158.5T159 25L125 0H0v25l47 24q37 40 72 83t67 85q32 42 60 81.5t51 72.5L109 646q-41 12-71 25v29h221v-29q-14-7-31-13.5T191 646l169-269h64zM304 789q0 24 16 36t41 12q24 0 40-12t16-36q0-23-16-35t-40-12q-25 0-41 12t-16 35zm223 0q0 24 16 36t40 12q25 0 41-12t16-36q0-23-16-35t-41-12q-24 0-40 12t-16 35z"/><glyph unicode="ӝ" horiz-adv-x="722" d="M529 500h173v-26q-17-12-57-24-32-44-66-86t-67-84q13-18 32-45t41.5-58.5q22.5-31.5 47-64.5T681 49l41-24V0H616l-28 23q-17 23-36.5 53.5T513 138q-19 31-35 57.5T452 237h-48V49q31-8 60-24V0H263v25q14 7 27.5 13T319 49v194l-55-10q-9-14-24-41t-32.5-58Q190 103 171 73t-37-50L104 0H0v25l46 24q25 29 48.5 61t44.5 62q21 30 38.5 56.5T209 273q-38 43-73 87.5T69 450q-26 6-50 24v26h173v-26q-19-14-50-24 27-48 58.5-90.5T267 269h52v181q-33 7-56 24v26h194v-26q-10-8-22.5-14T404 450V263l55 10q35 48 63.5 88.5T579 450q-14 5-26 10t-24 14zM196 663q0 24 15 38.5t39 14.5q24 0 39-14.5t15-38.5q0-23-15-37t-39-14q-24 0-39 14t-15 37zm222 0q0 24 15 38.5t39 14.5q24 0 39-14.5t15-38.5q0-23-15-37t-39-14q-24 0-39 14t-15 37z"/><glyph unicode="Ӟ" horiz-adv-x="554" d="M241-12q-56 0-106.5 11T50 27q0 16 2 36.5t5.5 43q3.5 22.5 8 45T75 194h26l42-140q6-3 17-5.5t24.5-4.5q13.5-2 28-3t27.5-1q37 0 67.5 12T360 84.5q22 20.5 34 48.5t12 61q0 40-12.5 67T360 304.5Q339 321 311.5 328t-57.5 7l-77-11q-7 31-1 58h32q17 0 41 1.5t40 3.5q46 16 70.5 51.5T384 522q0 66-37.5 102T243 660q-33 0-52.5-5.5T164 641l-52-122H86q-5 27-8.5 69T75 671q15 12 36.5 19.5T156 703q23 5 47.5 7t45.5 2q40 0 81-7t74.5-26.5q33.5-19.5 54.5-53t21-85.5q0-51-29.5-95.5T357 375v-4q30-5 56.5-17.5t46-33q19.5-20.5 31-50.5t11.5-71q0-54-21.5-94T423 39Q387 13 339.5.5T241-12zM98 789q0 24 16 36t41 12q24 0 40-12t16-36q0-23-16-35t-40-12q-25 0-41 12t-16 35zm223 0q0 24 16 36t40 12q25 0 41-12t16-36q0-23-16-35t-41-12q-24 0-40 12t-16 35z"/><glyph unicode="ӟ" horiz-adv-x="474" d="M205 35q31 0 53.5 10T295 71q14 16 21 36.5t7 41.5q0 48-20.5 65T247 237l-94-15q-4 13-4.5 27t4.5 27h102q9 4 18.5 12.5t18 21q8.5 12.5 14 29.5t5.5 38q0 48-26.5 69.5T215 468q-20 0-36.5-2.5T157 461l-45-113H87q-11 33-16 66t-6 65q20 11 61 22t105 11q81 0 125.5-29.5T401 395q0-24-10-44t-25.5-36q-15.5-16-35-27T292 271q55-5 92-35.5t37-86.5q0-80-55-120.5T220-12q-58 0-101.5 17T46 48l18 67h20q13-14 29-33.5T145 43q21-8 60-8zM65 663q0 24 15 38.5t39 14.5q24 0 39-14.5t15-38.5q0-23-15-37t-39-14q-24 0-39 14t-15 37zm222 0q0 24 15 38.5t39 14.5q24 0 39-14.5t15-38.5q0-23-15-37t-39-14q-24 0-39 14t-15 37z"/><glyph unicode="Ӡ" horiz-adv-x="555" d="M281 387q53 0 94-13.5t69-38q28-24.5 43-59t15-76.5q0-55-22-95t-58.5-66Q385 13 338 .5T241-12q-56 0-106.5 11T50 27q0 16 2 37t5.5 43.5q3.5 22.5 8 45T75 194h26l42-140q6-3 17-5.5t24.5-4.5q13.5-2 28-3t27.5-1q37 0 67.5 12T360 85q22 21 34 49t12 60q0 40-14.5 68T354 307q-23 17-52 25t-59 8l-76-11q-7 31-1 59l67 1 129 209 29 35v4l-55-6H137L98 523H73q-8 42-14.5 91.5T52 700h421v-31L321 438z"/><glyph unicode="ӡ" horiz-adv-x="469" d="M231 186q48 0 85.5-13.5T379 134q25-25 38-59t13-75q0-54-18-94t-49.5-66.5Q331-187 289-199.5T199-212q-46 0-90.5 17T35-152l18 67h20q13-14 29-33.5t31-38.5q21-8 60-8 37 0 64.5 12.5t46 34.5Q322-96 331-67t9 61q0 37-12 65t-32 46.5Q276 124 249.5 133t-55.5 9l-58-10q-3 14-3.5 27.5T136 187h48l116 208 27 43v4l-54-6H116L77 336H52q-9 42-14.5 84T31 500h371v-31L271 237z"/><glyph unicode="Ӣ" horiz-adv-x="739" d="M282 0H29v29q40 18 82 24v593q-20 5-41 11t-41 14v29h253v-29q-16-8-34-14t-41-11V212l-11-75 48 79 293 406v24q-23 5-43.5 11.5T456 671v29h254v-29q-18-8-39-14t-43-11V53q47-8 82-24V0H456v29q16 7 35 13.5T532 53v433l10 75-44-75L201 75V53q23-4 43.5-10T282 29zm-61 788v52h301v-52z"/><glyph unicode="ӣ" horiz-adv-x="612" d="M39 500h212v-26q-11-6-25.5-12T191 450V176l-11-93h5l39 75 214 342h135v-26q-32-18-66-24V49q19-5 36-10.5T573 25V0H361v25q28 16 60 24v286l10 79h-5l-38-75L176 0H39v25q17 8 33 13.5T105 49v401q-39 6-66 24zm143 137v52h253v-52z"/><glyph unicode="Ӥ" horiz-adv-x="739" d="M282 0H29v29q40 18 82 24v593q-20 5-41 11t-41 14v29h253v-29q-16-8-34-14t-41-11V212l-11-75 48 79 293 406v24q-23 5-43.5 11.5T456 671v29h254v-29q-18-8-39-14t-43-11V53q47-8 82-24V0H456v29q16 7 35 13.5T532 53v433l10 75-44-75L201 75V53q23-4 43.5-10T282 29zm-78 789q0 24 16 36t41 12q24 0 40-12t16-36q0-23-16-35t-40-12q-25 0-41 12t-16 35zm223 0q0 24 16 36t40 12q25 0 41-12t16-36q0-23-16-35t-41-12q-24 0-40 12t-16 35z"/><glyph unicode="ӥ" horiz-adv-x="612" d="M39 500h212v-26q-11-6-25.5-12T191 450V176l-11-93h5l39 75 214 342h135v-26q-32-18-66-24V49q19-5 36-10.5T573 25V0H361v25q28 16 60 24v286l10 79h-5l-38-75L176 0H39v25q17 8 33 13.5T105 49v401q-39 6-66 24zm102 163q0 24 15 38.5t39 14.5q24 0 39-14.5t15-38.5q0-23-15-37t-39-14q-24 0-39 14t-15 37zm222 0q0 24 15 38.5t39 14.5q24 0 39-14.5t15-38.5q0-23-15-37t-39-14q-24 0-39 14t-15 37z"/><glyph unicode="Ӧ" horiz-adv-x="740" d="M53 350q0 78 21.5 144.5t62 115Q177 658 236 685t134 27q75 0 134-27t99.5-75.5q40.5-48.5 62-115T687 350q0-78-21.5-144.5t-62-115Q563 42 504 15T370-12q-75 0-134 27t-99.5 75.5q-40.5 48.5-62 115T53 350zm107 0q0-64 13.5-120.5T214 131q27-42 68-66.5T379 40q51 0 89 24.5t62.5 66.5q24.5 42 37 98.5T580 350q0 64-13 120.5T527 569q-27 42-68 66.5T362 660q-55 0-93.5-24.5T206 569q-24-42-35-98.5T160 350zm42 439q0 24 16 36t41 12q24 0 40-12t16-36q0-23-16-35t-40-12q-25 0-41 12t-16 35zm223 0q0 24 16 36t40 12q25 0 41-12t16-36q0-23-16-35t-41-12q-24 0-40 12t-16 35z"/><glyph unicode="ӧ" horiz-adv-x="553" d="M41 250q0 63 16.5 111.5t47.5 82q31 33.5 74.5 51T276 512q62 0 107-19t73.5-53.5q28.5-34.5 42-82.5T512 250q0-126-64-194T276-12q-60 0-104 18.5t-73 53q-29 34.5-43.5 83T41 250zm96 0q0-45 8.5-85t27-69.5Q191 66 221 49t72-17q54 0 88.5 53T416 250q0 46-8.5 85.5t-26.5 69Q363 434 335 451t-67 17q-59 0-95-53t-36-165zm-29 413q0 24 15 38.5t39 14.5q24 0 39-14.5t15-38.5q0-23-15-37t-39-14q-24 0-39 14t-15 37zm222 0q0 24 15 38.5t39 14.5q24 0 39-14.5t15-38.5q0-23-15-37t-39-14q-24 0-39 14t-15 37z"/><glyph unicode="Ө" horiz-adv-x="740" d="M53 350q0 78 21.5 144.5t62 115Q177 658 236 685t134 27q75 0 134-27t99.5-75.5q40.5-48.5 62-115T687 350q0-78-21.5-144.5t-62-115Q563 42 504 15T370-12q-75 0-134 27t-99.5 75.5q-40.5 48.5-62 115T53 350zM379 40q49 0 85.5 22.5t61.5 61q25 38.5 38.5 91T580 327H160q2-60 16.5-112.5t42-91Q246 85 286 62.5T379 40zm-17 620q-51 0-88-21t-61-58q-24-37-37-87t-16-107h420q-4 57-19 107t-42 87q-27 37-66 58t-91 21z"/><glyph unicode="ө" horiz-adv-x="553" d="M41 250q0 63 16.5 111.5t47.5 82q31 33.5 74.5 51T276 512q62 0 107-19t73.5-53.5q28.5-34.5 42-82.5T512 250q0-126-64-194T276-12q-60 0-104 18.5t-73 53q-29 34.5-43.5 83T41 250zm227 218q-56 0-91-45.5T137 280h279q-3 40-13 74.5T375 414q-18 25-44.5 39.5T268 468zm25-436q51 0 85.5 47.5T416 228H137q2-42 11.5-77.5t28-62Q195 62 224 47t69-15z"/><glyph unicode="Ӫ" horiz-adv-x="740" d="M53 350q0 78 21.5 144.5t62 115Q177 658 236 685t134 27q75 0 134-27t99.5-75.5q40.5-48.5 62-115T687 350q0-78-21.5-144.5t-62-115Q563 42 504 15T370-12q-75 0-134 27t-99.5 75.5q-40.5 48.5-62 115T53 350zM379 40q49 0 85.5 22.5t61.5 61q25 38.5 38.5 91T580 327H160q2-60 16.5-112.5t42-91Q246 85 286 62.5T379 40zm-17 620q-51 0-88-21t-61-58q-24-37-37-87t-16-107h420q-4 57-19 107t-42 87q-27 37-66 58t-91 21zM202 789q0 24 16 36t41 12q24 0 40-12t16-36q0-23-16-35t-40-12q-25 0-41 12t-16 35zm223 0q0 24 16 36t40 12q25 0 41-12t16-36q0-23-16-35t-41-12q-24 0-40 12t-16 35z"/><glyph unicode="ӫ" horiz-adv-x="553" d="M41 250q0 63 16.5 111.5t47.5 82q31 33.5 74.5 51T276 512q62 0 107-19t73.5-53.5q28.5-34.5 42-82.5T512 250q0-126-64-194T276-12q-60 0-104 18.5t-73 53q-29 34.5-43.5 83T41 250zm227 218q-56 0-91-45.5T137 280h279q-3 40-13 74.5T375 414q-18 25-44.5 39.5T268 468zm25-436q51 0 85.5 47.5T416 228H137q2-42 11.5-77.5t28-62Q195 62 224 47t69-15zM111 663q0 24 15 38.5t39 14.5q24 0 39-14.5t15-38.5q0-23-15-37t-39-14q-24 0-39 14t-15 37zm222 0q0 24 15 38.5t39 14.5q24 0 39-14.5t15-38.5q0-23-15-37t-39-14q-24 0-39 14t-15 37z"/><glyph unicode="Ӭ" horiz-adv-x="633" d="M189 314q-5 20-5 39.5t5 38.5l291-1q-8 135-72.5 202T232 660q-33 0-52.5-5.5T152 641l-52-122H74q-2 13-4 31t-3.5 38q-1.5 20-2 41.5T64 671q15 12 36.5 19.5T145 703q23 5 47.5 7t45.5 2q81 0 144.5-20.5t107.5-64q44-43.5 67-112T580 351q0-96-28-164.5T477.5 74Q431 30 371.5 9T248-12q-66 0-110.5 8.5T58 22q1 16 2.5 38.5t3.5 46q2 23.5 4.5 46.5t4.5 42h26l52-146q11-6 37-7.5t51-1.5q45 0 88 19t77 57q34 38 55 95t21 133zm-83 475q0 24 16 36t41 12q24 0 40-12t16-36q0-23-16-35t-40-12q-25 0-41 12t-16 35zm223 0q0 24 16 36t40 12q25 0 41-12t16-36q0-23-16-35t-41-12q-24 0-40 12t-16 35z"/><glyph unicode="ӭ" horiz-adv-x="491" d="M219-12q-57 0-100.5 17T46 48l18 67h20q13-14 29-33.5T144 43q21-8 62-8 66 0 106.5 54T354 235l-198-15q-11 27 0 54h198q-2 54-13.5 91t-31 60q-19.5 23-45 33T208 468q-41 0-51-7l-44-122H88q-9 28-16 63t-11 70q27 15 64 27.5T225 512q48 0 89-13t71.5-43q30.5-30 47.5-78t17-118q0-71-19.5-122.5t-52-84.5q-32.5-33-74-49T219-12zM57 663q0 24 15 38.5t39 14.5q24 0 39-14.5t15-38.5q0-23-15-37t-39-14q-24 0-39 14t-15 37zm222 0q0 24 15 38.5t39 14.5q24 0 39-14.5t15-38.5q0-23-15-37t-39-14q-24 0-39 14t-15 37z"/><glyph unicode="Ӯ" horiz-adv-x="660" d="M522 646q-50 9-85 25v29h223v-29q-13-6-31-12.5T588 646L392 201q-21-54-42-95.5T307 38Q285 12 260 .5T206-5q-6 9-11.5 23T185 47q-4 15-7 29.5t-4 26.5l15 25 103-27q4 4 8.5 12t9 18q4.5 10 8.5 20t6 18L75 646q-19 5-38 11T0 671v29h263v-29q-17-7-37.5-13.5T182 646l166-331 21-64h2l20 66zM193 788v52h301v-52z"/><glyph unicode="ӯ" horiz-adv-x="505" d="M42 450q-15 4-27.5 10T-11 474v26h209v-25q-21-14-57-25l128-296 19-62h2l15 63 95 295q-30 6-55 24v26h171v-26q-21-14-57-24L303 0q-24-64-45.5-103.5t-43-62.5q-21.5-23-44-33.5T122-215q-11 19-19.5 42T88-129l13 24h104q6 8 10.5 15.5T225-71q5 11 11 28t14 43zm102 187v52h253v-52z"/><glyph unicode="Ӱ" horiz-adv-x="660" d="M522 646q-50 9-85 25v29h223v-29q-13-6-31-12.5T588 646L392 201q-21-54-42-95.5T307 38Q285 12 260 .5T206-5q-6 9-11.5 23T185 47q-4 15-7 29.5t-4 26.5l15 25 103-27q4 4 8.5 12t9 18q4.5 10 8.5 20t6 18L75 646q-19 5-38 11T0 671v29h263v-29q-17-7-37.5-13.5T182 646l166-331 21-64h2l20 66zM187 789q0 24 16 36t41 12q24 0 40-12t16-36q0-23-16-35t-40-12q-25 0-41 12t-16 35zm223 0q0 24 16 36t40 12q25 0 41-12t16-36q0-23-16-35t-41-12q-24 0-40 12t-16 35z"/><glyph unicode="ӱ" horiz-adv-x="505" d="M42 450q-15 4-27.5 10T-11 474v26h209v-25q-21-14-57-25l128-296 19-62h2l15 63 95 295q-30 6-55 24v26h171v-26q-21-14-57-24L303 0q-24-64-45.5-103.5t-43-62.5q-21.5-23-44-33.5T122-215q-11 19-19.5 42T88-129l13 24h104q6 8 10.5 15.5T225-71q5 11 11 28t14 43zm66 213q0 24 15 38.5t39 14.5q24 0 39-14.5t15-38.5q0-23-15-37t-39-14q-24 0-39 14t-15 37zm222 0q0 24 15 38.5t39 14.5q24 0 39-14.5t15-38.5q0-23-15-37t-39-14q-24 0-39 14t-15 37z"/><glyph unicode="Ӳ" horiz-adv-x="660" d="M522 646q-50 9-85 25v29h223v-29q-13-6-31-12.5T588 646L392 201q-21-54-42-95.5T307 38Q285 12 260 .5T206-5q-6 9-11.5 23T185 47q-4 15-7 29.5t-4 26.5l15 25 103-27q4 4 8.5 12t9 18q4.5 10 8.5 20t6 18L75 646q-19 5-38 11T0 671v29h263v-29q-17-7-37.5-13.5T182 646l166-331 21-64h2l20 66zM305 888q6 1 18-1t25-5q13-3 23.5-8t13.5-10v-14l-131-92-19 18zm174 0q7 1 19-1t25-6q13-4 24-9t16-11l-1-10-177-95-21 18z"/><glyph unicode="ӳ" horiz-adv-x="505" d="M42 450q-15 4-27.5 10T-11 474v26h209v-25q-21-14-57-25l128-296 19-62h2l15 63 95 295q-30 6-55 24v26h171v-26q-21-14-57-24L303 0q-24-64-45.5-103.5t-43-62.5q-21.5-23-44-33.5T122-215q-11 19-19.5 42T88-129l13 24h104q6 8 10.5 15.5T225-71q5 11 11 28t14 43zm174 318q6 1 19-.5t26.5-4.5q13.5-3 24.5-7.5t14-8.5v-15L162 598l-23 16zm173 0q7 1 19.5-.5t25-5.5q12.5-4 24-9.5T474 740v-13L275 598l-19 18z"/><glyph unicode="Ӵ" horiz-adv-x="636" d="M607 0H353v29q24 11 46.5 16.5T445 53v257q-27-15-71.5-30T272 265q-42 0-77 8t-60.5 29Q109 323 95 359t-14 92v195q-18 3-36 9.5T9 671v29h234v-29q-14-7-30-13.5T177 646V470q0-70 28.5-111.5T300 317q42 0 80 12t65 29v288q-18 5-36 11.5T374 671v29h233v-29q-14-7-30.5-13.5T541 646V53q20-4 36.5-10T607 29zM143 789q0 24 16 36t41 12q24 0 40-12t16-36q0-23-16-35t-40-12q-25 0-41 12t-16 35zm223 0q0 24 16 36t40 12q25 0 41-12t16-36q0-23-16-35t-41-12q-24 0-40 12t-16 35z"/><glyph unicode="ӵ" horiz-adv-x="558" d="M15 500h215v-26q-10-7-25-13.5T171 450V330q0-47 20-75.5t67-28.5q28 0 54.5 8.5T363 257v193q-30 6-59 24v26h215v-26q-27-17-66-24V49q20-5 36-10.5T519 25V0H283v25q41 17 80 24v179q-24-26-57-42.5T223 169q-68 0-105 38T81 310v140q-38 7-66 24zm90 163q0 24 15 38.5t39 14.5q24 0 39-14.5t15-38.5q0-23-15-37t-39-14q-24 0-39 14t-15 37zm222 0q0 24 15 38.5t39 14.5q24 0 39-14.5t15-38.5q0-23-15-37t-39-14q-24 0-39 14t-15 37z"/><glyph unicode="Ӷ" horiz-adv-x="507" d="M29 29q40 16 82 24v593q-20 4-41 10.5T29 671v29h468q0-20-1-46t-2-54q-1-28-3-54.5t-5-47.5h-26l-52 150H207V52h101q0-20-2-46.5t-5-55q-3-28.5-6.5-55T287-151h-25L220 0H29z"/><glyph unicode="ӷ" horiz-adv-x="430" d="M412 500q-1-39-3.5-81t-8.5-83h-26l-44 120H195V44h97q-2-48-4.5-96t-6.5-96h-25L211 0H39v25q17 10 33 15t33 9v402q-37 6-66 23v26z"/><glyph unicode="Ӹ" horiz-adv-x="844" d="M815 0H561v29q20 10 39 15t39 9v593q-19 5-38.5 10T561 671v29h254v-29q-33-16-80-25V53q25-4 44-10t36-14zM29 0v29q39 18 82 24v593q-20 5-41 11t-41 14v29h266v-29q-19-8-41-14.5T207 646V417q18 2 44 4.5t46 2.5q49 0 94-9t79-32q34-23 54.5-63T545 218q0-59-23-100.5T462 49q-37-27-84-39.5T283-3q-5 0-19.5.5t-32.5 1q-18 .5-38 1T158 0zm246 372q-24 0-39.5-.5T207 367V53q5-2 14.5-2.5t20-1Q252 49 262 49h16q70 0 115 42t45 128q0 75-41 114t-122 39zm-14 417q0 24 16 36t41 12q24 0 40-12t16-36q0-23-16-35t-40-12q-25 0-41 12t-16 35zm223 0q0 24 16 36t40 12q25 0 41-12t16-36q0-23-16-35t-41-12q-24 0-40 12t-16 35z"/><glyph unicode="ӹ" horiz-adv-x="746" d="M195 296q17 2 38 5t61 3q75 0 120.5-35T460 159q0-40-14.5-70.5t-40.5-51q-26-20.5-62-31T264-4q-27 0-60.5 2T132 0H39v25q17 10 33 15t33 9v401q-19 3-35 9.5T39 474v26h216v-26q-23-14-60-24zm0-253l26-2q13-1 27-1 113 0 113 120 0 28-8.5 47.5t-23 31Q315 250 296 255t-40 5q-14 0-30-.5t-31-3.5zM707 0H492v25q14 7 28 13t31 11v401q-38 7-60 24v26h216v-26q-12-8-29-13.5T641 450V49q17-5 33-10.5T707 25zM211 663q0 24 15 38.5t39 14.5q24 0 39-14.5t15-38.5q0-23-15-37t-39-14q-24 0-39 14t-15 37zm222 0q0 24 15 38.5t39 14.5q24 0 39-14.5t15-38.5q0-23-15-37t-39-14q-24 0-39 14t-15 37z"/><glyph unicode="Ӽ" horiz-adv-x="670" d="M374 375q61-90 104-149.5t69-103Q573 79 585 45t12-74q0-43-14-77t-39-57.5q-25-23.5-59.5-36T410-211l-6 27q47 20 72 49.5T501-51q0 20-7 47.5T467 65q-20 41-57 99t-98 140L159 52q21-3 41.5-7.5T240 29V0H10v29q18 10 37 15t37 9l196 299L92 646q-20 6-39.5 12T13 671v29h265v-29q-16-6-34.5-12T201 646l140-226 137 226q-41 9-83 25v29h230v-29q-17-7-36.5-13.5T549 646L374 375z"/><glyph unicode="ӽ" horiz-adv-x="519" d="M386-52q0 34-17 72t-40.5 74.5Q305 131 281 162t-38 52L131 49q14-5 26-11t24-13V0H10v25q28 17 56 24l149 199L65 450q-14 5-25.5 10.5T16 474v26h201v-25q-12-8-23.5-14.5T168 450l104-150 102 150q-34 11-50 24v26h167v-26q-19-13-56-24L298 268q20-27 50-63.5t58.5-78Q435 85 455.5 42T476-42q0-83-46-124t-132-46l-5 28q54 17 73.5 48T386-52z"/><glyph unicode="Ԑ" horiz-adv-x="545" d="M303-12q-51 0-97 11t-80 35.5Q92 59 72 97t-20 92q0 41 11.5 72.5t32 54Q116 338 143 352t57 19v4q-67 22-96 63.5T75 531q0 54 21 89.5t54 55.5q33 20 74 28t81 8q21 0 45-2.5t47-8q23-5.5 44-14t36-20.5q1-41-2.5-83t-8.5-69h-26l-52 123q-7 8-25.5 15t-51.5 7q-66 0-103-33t-37-107q0-48 25.5-82.5T268 387q16-2 40-3.5t41-1.5h32q6-27-1-58l-77 11q-30 0-57.5-8.5t-49.5-27q-22-18.5-35-47T148 184q0-65 41.5-104.5T304 40q13 0 27.5 2t28.5 5q14 3 25 6.5t17 6.5l42 139h26q4-19 9-41.5t8.5-45q3.5-22.5 5.5-43t2-36.5q-34-17-85-31T303-12z"/><glyph unicode="ԑ" horiz-adv-x="470" d="M279 50q27 0 47.5 2.5t35.5 7q15 4.5 26.5 11T410 84l14-14q-19-35-61.5-58.5T253-12q-91 0-146 39T52 133q0 51 32.5 80.5T174 257q-47 19-74.5 53T72 386q0 64 53 95t137 31q49 0 87-11t59-22q-1-32-10.5-64.5T377 349h-26l-35 112q-5 2-21 4.5t-36 2.5q-44 0-70.5-23T162 365q0-17 5.5-33t14-29.5Q190 289 200 279t19-14l101 16q5-13 4.5-27t-4.5-27l-93-1q-34-4-55-23t-21-64q0-42 37-65.5T279 50z"/><glyph unicode="Ԓ" horiz-adv-x="655" d="M448 648H261q-4-157-14.5-260.5t-26.5-171Q204 149 183.5 109T139 38Q119 12 90 0T34-12q-7 8-14.5 22.5t-14 31Q-1 58-5 74.5t-5 29.5l15 25 115-21q15 25 29.5 66t26 104.5Q187 342 194.5 431t7.5 210q-62 10-102 30v29h526v-29q-35-18-82-25V1q0-68-13-109.5t-37.5-64Q469-195 432.5-203t-82.5-8l-6 27q26 6 45.5 16.5t32.5 31Q435-116 441.5-83T448 0z"/><glyph unicode="ԓ" horiz-adv-x="541" d="M347 456H215q-1-53-6-112.5t-15-117q-10-57.5-26-108T129 34Q110 5 88-6.5T47-14Q32 3 18.5 30.5T3 81l14 25 85-20q14 24 25 64t18.5 88q7.5 48 11.5 100.5t4 101.5q-20 6-36.5 15T94 474v26h409v-26q-32-18-66-24V0q0-62-12-102t-34.5-63.5Q368-189 335-199.5T259-212l-5 28q27 8 45 19t28.5 30.5Q338-115 342.5-83T347 0z"/><glyph unicode="Ԝ" horiz-adv-x="934" d="M796 646q-21 3-42 9.5T710 671v29h224v-29q-34-15-72-25L695 0l-62-12-161 544L314 0l-61-12L76 646q-20 5-39 11T0 671v29h260v-29q-19-7-39-13.5T178 646l99-403 22-130h2l35 132 135 455h34l145-455 29-130h2l23 132z"/><glyph unicode="ԝ" horiz-adv-x="728" d="M200-12L43 450q-14 5-27.5 10.5T-10 474v26h208v-25q-14-8-28-14.5T141 450l87-292 13-72h2l15 74 108 330 30 10 115-341 18-73h2l15 73 77 291q-11 2-25.5 8T568 474v26h170v-26q-21-14-57-24L539 0l-53-12-99 283-19 83h-3l-23-83L252 0z"/><glyph unicode="Ԥ" horiz-adv-x="733" d="M436 29q22 14 75 24v595H207V53q39-8 75-24V0H29v29q15 8 35 14t47 10v593q-20 4-41 10.5T29 671v29h660v-29q-19-10-40-15.5t-42-9.5V52h111q0-20-2-46.5t-5-55q-3-28.5-6.5-55T697-151h-25L629 0H436z"/><glyph unicode="ԥ" horiz-adv-x="612" d="M357 25q10 7 23.5 13T416 49v407H195V49q20-6 34-12t25-12V0H39v25q19 11 35 16.5t31 7.5v401q-21 5-38 11t-28 13v26h533v-26q-13-8-29-15t-37-9V43h80q-2-48-5-95.5t-6-95.5h-26L504 0H357z"/><glyph unicode="Ԧ" horiz-adv-x="671" d="M393 29q14 7 30 13t36 11v177q0 70-28 111.5T337 383q-42 0-80-12.5T191 341V53q19-5 36.5-11T262 29V0H29v29q14 7 30.5 13T95 53v593q-20 4-36 10.5T29 671v29h254v-29q-47-20-92-25V390q27 15 71.5 30T364 435q42 0 77-8t60.5-29q25.5-21 39.5-57t14-92V51h110q0-20-2-46.5T658-50q-3-28-6.5-54.5T645-151h-26L577 0H393z"/><glyph unicode="ԧ" horiz-adv-x="595" d="M354 25q24 13 60 24v234q0 78-22 122.5T312 450q-26 0-47-9.5T227 416q-17-15-29-34.5T180 341V49q16-4 30.5-9T239 25V0H24v25q31 16 66 24v633l-76 8v26q29 12 67.5 21t73.5 15h25V399h1q21 47 60.5 80t95.5 33q40 0 71.5-9.5T461 469q21-24 32-64.5T504 302V43h82q-2-48-5-95.5t-6-95.5h-26L504 0H354z"/><glyph unicode="Ԯ" horiz-adv-x="670" d="M372 29q18 8 37 13.5T448 53v595H261q-4-157-14.5-260.5t-26.5-171Q204 149 183.5 109T139 38Q119 12 90 0T34-12q-7 8-14.5 22.5t-14 31Q-1 58-5 74.5t-5 29.5l15 25 115-21q15 25 29.5 66t26 104.5Q187 342 194.5 431t7.5 210q-62 10-102 30v29h526v-29q-35-18-82-25V51h111q-1-20-3-46.5T647-50q-3-28-6.5-54.5T634-151h-26L566 0H372z"/><glyph unicode="ԯ" horiz-adv-x="543" d="M289 25q24 17 59 24v407H216q-1-53-6-112.5t-15-117q-10-57.5-26-108T130 34Q111 5 89-6.5T48-14Q33 3 19.5 30.5T4 81l14 25 85-20q14 24 25 64t18.5 88q7.5 48 11.5 100.5t4 101.5q-20 6-36.5 15T95 474v26h409v-26q-32-18-66-24V43h89q-2-48-5-95.5t-6-95.5h-25L446 0H289z"/><glyph unicode="Ḱ" horiz-adv-x="646" d="M382 700h221v-29q-20-9-39-15t-37-10L326 380q25-33 57.5-74t68-84.5q35.5-43.5 73-88T598 49l48-24V0H521l-34 24q-59 69-117.5 149T256 335h-49V53q46-8 75-24V0H29v29q40 16 82 24v593q-45 6-82 25v29h253v-29q-16-7-35-13.5T207 646V369l60 14 187 263q-20 5-38 11t-34 14zm40 193q9 1 23-1t28.5-6.5q14.5-4.5 27-11T519 861v-20l-226-91-17 19z"/><glyph unicode="ḱ" horiz-adv-x="516" d="M300 500h193v-26q-19-8-37.5-14T417 450q-15-20-34.5-43T343 361q-20-23-38.5-43T273 285q15-20 36.5-48.5T356 176q25-32 51.5-65T460 49l56-24V0H392l-27 24q-53 66-88 117.5T213 238l-33 10V49q33-6 65-24V0H24v25q33 16 66 24v633l-76 8v26q28 13 67 21t74 15h25V274h26q16 18 35 40t38 45.5q19 23.5 37 46.5t33 44q-25 7-49 24zm62 267q8 1 21-.5t27-4.5q14-3 26-7.5t18-9.5v-19L267 575l-22 18z"/><glyph unicode="Ḿ" horiz-adv-x="867" d="M837 0H589v29q20 8 40 13.5T670 53v450l4 117h-8l-33-107L428 0h-26L207 513l-36 117h-9l1-127V53q19-4 38-10t38-14V0H30v29q19 8 39.5 14.5T111 54v592q-21 4-41.5 10.5T29 671v29h205l174-457 34-103h1l34 105 180 455h181v-29q-18-8-37-14.5T762 646V52q21-4 39.5-9.5T837 29zM523 893q9 1 23-1t28.5-6.5q14.5-4.5 27-11T620 861v-20l-226-91-17 19z"/><glyph unicode="ḿ" horiz-adv-x="863" d="M548 0H334v25q10 6 24.5 12.5T393 49v231q0 40-3.5 72t-13 53.5q-9.5 21.5-27.5 33T302 450q-22 0-40.5-9t-33-24q-14.5-15-25-34T187 343V49q16-5 30.5-10.5T246 25V0H31v25q14 7 31 13t35 11v393l-66 8v26q32 14 65.5 22.5T162 512h25V399h1q16 47 54.5 80t95.5 33q24 0 46-5t41-18.5q19-13.5 32-37.5t19-62q18 55 58 89t100 34q37 0 64.5-9.5T744 469q18-24 26.5-65t8.5-104V49q34-6 66-24V0H630v25q30 16 59 24v249q0 36-3.5 64T672 409.5q-10 19.5-28 30T596 450q-48 0-74.5-33T483 333V49q35-10 65-24zm-27 767q8 1 21-.5t27-4.5q14-3 26-7.5t18-9.5v-19L426 575l-22 18z"/><glyph unicode="Ṕ" horiz-adv-x="596" d="M207 53q27-3 51-9.5T303 29V0H29v29q20 10 41 15t41 9v593q-23 4-43 10.5T29 671v29h90q40 0 87 4t90 4q49 0 96-10.5t83.5-35.5q36.5-25 59-66.5T557 492q0-59-23-101t-61.5-69Q434 295 385 282.5T284 270h-15.5q-10.5 0-22.5.5t-23 1.5q-11 1-16 2zm68 603q-24 0-39-1t-29-4V327q5-2 14.5-2.5t20-1.5q10.5-1 20.5-1h16q35 0 66 9.5t54.5 30.5q23.5 21 37.5 53t14 77q0 82-46.5 123T275 656zm97 237q9 1 23-1t28.5-6.5q14.5-4.5 27-11T469 861v-20l-226-91-17 19z"/><glyph unicode="ṕ" horiz-adv-x="566" d="M253-200H31v25q34 16 66 24v593l-66 8v26q32 14 65.5 22.5T162 512h25V400h1q20 51 56 81.5t94 30.5q89 0 138-59t49-192q0-63-16.5-114t-47-86q-30.5-35-74-54T291-12q-37 0-58 4.5T187 8v-159q16-2 32-7.5t34-16.5zm53 650q-49 0-78-31t-41-85V54q18-11 40.5-16.5T286 32q33 0 59.5 17t45 48q18.5 31 28.5 72.5t10 91.5q0 41-6.5 75.5t-21 60Q387 422 363.5 436T306 450zm47 317q8 1 21-.5t27-4.5q14-3 26-7.5t18-9.5v-19L258 575l-22 18z"/></font>
</defs>
</svg>
