<svg xmlns="http://www.w3.org/2000/svg"><defs><font id="PTSerif-Bold" horiz-adv-x="601"><font-face ascent="1018" descent="276"/><glyph horiz-adv-x="270"/><glyph horiz-adv-x="270"/><glyph unicode="!" horiz-adv-x="344" d="M172 218l-50 194v278q10 6 30 8.5t42 2.5q22 0 41.5-2.5T266 690V412l-50-194zM110 71q0 36 23.5 58t61.5 22q38 0 62-22t24-58q0-36-24-57.5T195-8q-38 0-61.5 21.5T110 71z"/><glyph unicode="&quot;" horiz-adv-x="504" d="M275 713q7 17 31 28t54 11q28 0 53.5-10t31.5-29l-60-241h-50zm-216 0q7 17 31 28t54 11q28 0 53.5-10t31.5-29l-60-241h-50z"/><glyph unicode="#" horiz-adv-x="565" d="M314 220H190L152 58H81l38 162H38l19 64h77l31 132H88l19 64h74l39 162h70l-38-162h124l39 162h70l-39-162h79l-22-64h-73l-31-132h76l-22-64h-69L346 58h-70zm-109 64h124l31 132H236z"/><glyph unicode="$" horiz-adv-x="565" d="M246-12q-30 0-60 4.5T130 4q-26 7-46 15.5T54 37q2 39 10.5 77.5T81 175h42l51-97q10-8 26.5-15.5T246 53v253q-2 1-4.5 1.5T237 310l-23 10q-31 13-60 31.5t-52 43Q79 419 65 452t-14 75q0 41 14.5 73.5T106 656q26 23 62 37t78 17v50h70v-49q48-2 86.5-11t73.5-24q0-15-2.5-31.5t-6.5-32q-4-15.5-9-28.5t-9-20h-41l-51 77q-8 2-17.5 3.5T316 646V406l38-16q30-14 60-31.5t53.5-41.5q23.5-24 38-56t14.5-76q0-79-52-130T316-9v-61h-70zm144 178q0 43-24 68.5T306 279V58q40 11 62 38t22 70zM175 546q0-42 23-67.5t58-44.5v210q-38-5-59.5-30.5T175 546z"/><glyph unicode="%" horiz-adv-x="848" d="M691 715l48-42L154-13l-47 43zM42 542q0 39 14 70t39.5 53.5Q121 688 156 700t78 12q43 0 78.5-10.5T373 670q25-21 39-53t14-75q0-39-14-70.5T373 418q-25-22-60.5-34T234 372q-43 0-78 10.5T95.5 414Q70 435 56 467t-14 75zm120 0q0-119 72-119 35 0 53.5 26.5T306 542q0 66-18.5 92.5T234 661q-37 0-54.5-26.5T162 542zm260-384q0 39 14 70t39.5 53.5Q501 304 536 316t78 12q43 0 78.5-10.5T753 286q25-21 39-53t14-75q0-39-14-70.5T753 34q-25-22-60.5-34T614-12q-43 0-78 10.5T475.5 30Q450 51 436 83t-14 75zm120 0q0-119 72-119 35 0 53.5 26.5T686 158q0 66-18.5 92.5T614 277q-37 0-54.5-26.5T542 158z"/><glyph unicode="&amp;" horiz-adv-x="896" d="M529 116q-32 27-65 62t-62.5 71Q372 285 348 319t-38 58q-29-36-42-68.5T255 232q0-37 12-68t33.5-53.5Q322 88 351 75.5T414 63q30 0 61.5 12.5T529 116zM324 582q0-15 6-33t15.5-36q9.5-18 21-35t22.5-30q34 26 50 63t14 79q-2 28-17.5 47.5T388 657q-33 0-48.5-23T324 582zM676 0q-20 12-47 28.5T576 71q-31-32-87-57.5T361-12q-67 0-115.5 18.5t-79.5 48Q135 84 120 121t-15 75q0 46 17.5 84.5T165 349q25 30 53.5 51.5T268 434q-25 27-43 65t-18 75q0 25 10.5 50t32 44.5q21.5 19.5 53 31.5t73.5 12q72 0 117-32t45-92q0-29-10-55t-26.5-49q-16.5-23-38-43.5T418 403q69-95 189-202 8 11 18 37t17 59q7 33 9 70t-6 70q-16 3-28 9t-25 15v39h228v-39q-27-17-66-24-5-43-15-85t-23.5-79Q702 236 687 207t-30-45q35-31 71-55t71-44l51-24V0z"/><glyph unicode="'" horiz-adv-x="288" d="M59 713q7 17 31 28t54 11q28 0 53.5-10t31.5-29l-60-241h-50z"/><glyph unicode="(" horiz-adv-x="375" d="M327-210q-48 29-97.5 67.5T140-50Q100 4 75 75.5T50 243q0 87 23.5 156.5t62.5 125q39 55.5 89.5 99T330 702l30-31q-40-43-71.5-86.5T235 490q-22-51-33.5-111T190 243q0-73 12.5-134t35-112.5Q260-55 291.5-98t68.5-79z"/><glyph unicode=")" horiz-adv-x="375" d="M15-177q37 36 68 80.5t53.5 98q22.5 53.5 35 116T184 253q0 76-11.5 135.5t-33 108.5q-21.5 49-53 91T15 671l30 31q57-33 107.5-76t89-98q38.5-55 61-123T325 253q0-85-20.5-155.5T247.5-30Q211-87 160-131.5T48-210z"/><glyph unicode="*" horiz-adv-x="463" d="M58 597q-6 8-2.5 24.5t12.5 33q9 16.5 22 29t25 13.5l91-106q0-15-13-22zm60-168q-11 0-23.5 12.5t-22.5 29Q62 487 57 504t0 26l135 26q14-8 14-21zm173-34q-4-8-20.5-12.5t-35.5-5q-19-.5-36 3.5t-22 12l43 131q14 8 27 0zm114 135q6-11 2.5-28t-12-33q-8.5-16-21-27.5T350 430l-88 103q0 13 12 21zm-53 166q12 1 23.5-9.5t19.5-26q8-15.5 11.5-33t.5-29.5l-134-30q-12 9-12 22zm-175 35q4 9 20 14t35 5q19 0 35.5-4.5T289 731l-43-131q-13-8-26 0z"/><glyph unicode="+" horiz-adv-x="565" d="M57 384h185v196h80V384h185v-80H322V102h-80v202H57z"/><glyph unicode="," horiz-adv-x="306" d="M53-131q20 6 36 18t27.5 27Q128-71 134-54t5 33Q125-3 105.5 8T64 26q-5 21-1.5 42T76 107q10 18 23.5 30.5T128 153q21-1 41-9.5t36-24Q221 104 230.5 80t9.5-56q0-31-12.5-63t-34-59.5Q172-126 142-146.5T76-175z"/><glyph unicode="-" horiz-adv-x="414" d="M66 327h282v-90H66z"/><glyph unicode="." horiz-adv-x="296" d="M63 71q0 36 23 58t61 22q38 0 62-22t24-58q0-36-24-57.5T147-8q-38 0-61 21.5T63 71z"/><glyph unicode="/" horiz-adv-x="344" d="M318 716l60-25L13-133l-59 26z"/><glyph unicode="0" horiz-adv-x="565" d="M23 350q0 90 19.5 157.5t54 113q34.5 45.5 82 68.5T282 712q120 0 190-90.5T542 350q0-90-19.5-157.5t-55-113Q432 34 383 11T276-12q-61 0-108 24.5t-79.5 71Q56 130 39.5 197T23 350zm150 0q0-72 4.5-129t16.5-96.5Q206 85 225.5 64T275 43q35 0 57.5 17t36 54q13.5 37 18.5 95t5 141q0 72-4 129t-15.5 96.5Q361 615 339.5 636T282 657q-32 0-53-17t-33.5-54Q183 549 178 490.5T173 350z"/><glyph unicode="1" horiz-adv-x="565" d="M466 0H120v43q25 11 50.5 19.5T222 77v459l4 59q-28-9-58-12t-62-2l-5 37q53 14 115.5 38T332 712h34V77q25-6 50-14.5T466 43z"/><glyph unicode="2" horiz-adv-x="565" d="M141 478h-34q-6 15-13.5 35T78 555q-8 22-15 43.5T52 638q35 30 89.5 52T274 712q55 0 95-14t66.5-39q26.5-25 39-58t12.5-71q0-61-28-115.5t-69-102q-41-47.5-88-88T217 151l-52-35v-4l61 6h172l49 112h34q3-24 6.5-56t6.5-64.5q3-32.5 5-62T501 0H43v64q26 23 59 53.5t67 67q34 36.5 67 77.5t59 83.5q26 42.5 41.5 86.5t15.5 86q0 55-29.5 89.5T239 642q-17 0-30.5-2t-30.5-7z"/><glyph unicode="3" horiz-adv-x="565" d="M257 53q23 0 45 10.5T341.5 93q17.5 19 28 45t10.5 56q0 34-11.5 58.5t-30 40.5Q320 309 296 316.5t-48 7.5h-58v40l150 196 34 35v4l-54-6H169l-39-102H96q-5 21-10.5 50t-10 58q-4.5 29-7 56T66 700h436v-49L329 440l-43-44v-2l34 7q47-2 84.5-17.5t63-42q25.5-26.5 39-61.5t13.5-77q0-50-21.5-90T441 45q-36-28-84-42.5T256-12q-30 0-60 4.5T139.5 5q-26.5 8-48 19T55 48l37 104h29q6-7 16.5-18.5t22-24.5Q171 96 182 83t19-22q10-2 22.5-5t33.5-3z"/><glyph unicode="4" horiz-adv-x="565" d="M513 0H204v43q49 17 92 24v113H0v45l383 487h54V245h123v-65H437V67q39-8 76-24zM296 458l10 70h-3l-38-70-145-187-40-33 71 7h145z"/><glyph unicode="5" horiz-adv-x="565" d="M455 755h34q0-15-1-39t-4-49q-3-25-7-47.5t-8-34.5H195l-18-143h83q54 0 98-14.5t75-42q31-27.5 48-67t17-90.5q0-57-21.5-101.5t-58.5-75q-37-30.5-87-47T223-12q-58 0-106 18.5T40 48l42 99h29q7-7 16-18t19-23q10-12 19-24t16-21q10-4 18.5-6t22.5-2q30 0 56 10.5T322.5 93q18.5 19 29.5 45.5t11 58.5q0 35-13.5 61.5T313 302q-23 17-54 25.5t-65 8.5l-87-1 40 365h261z"/><glyph unicode="6" horiz-adv-x="565" d="M536 215q0-52-19.5-94T464 49.5Q431 20 386.5 4T292-12q-62 0-109.5 19.5T103 62q-32 35-48.5 83T38 250q0 94 33 172t89 138q56 60 130.5 100T449 718l15-43q-54-17-100-46t-81.5-70.5q-35.5-41.5-58-94T196 349q8 13 20.5 25.5t30.5 23q18 10.5 41.5 17T342 421q41 0 76.5-13t61.5-39q26-26 41-64.5t15-89.5zm-150-12q0 148-99 148-34 0-58-17.5T194 293q-3-14-4.5-32.5T188 225q0-34 6-65.5t19-56Q226 79 246.5 64T296 49q25 0 42 12.5T365.5 95q10.5 21 15.5 49t5 59z"/><glyph unicode="7" horiz-adv-x="565" d="M117 481H83q-5 21-10 51.5T63.5 594Q59 625 56 653.5T53 700h468v-47q-54-84-91-158t-62-150q-25-76-41.5-159T298 0H156q36 145 93 276t135 264l37 48-50-5H156z"/><glyph unicode="8" horiz-adv-x="565" d="M35 157q0 70 45 117.5T198 345q-60 34-97 80.5T64 533q0 39 15.5 71.5T124 661q29 24 70.5 37.5T288 712q48 0 87.5-12t67.5-33q28-21 43-51t15-66q0-60-40-104t-101-63q43-23 74.5-46t52.5-48q21-25 31.5-53t10.5-61q0-39-16.5-73t-48-59.5q-31.5-25.5-78-40T279-12q-56 0-101.5 13t-77 35.5Q69 59 52 90t-17 67zm352-11q0 34-12.5 58t-33 43.5q-20.5 19.5-48 36L236 318q-35-27-48-64t-13-72q0-24 6-48t19.5-42.5Q214 73 235 61t52-12q25 0 43.5 8t31 21.5q12.5 13.5 19 31T387 146zM200 554q0-48 33.5-84.5T320 406q28 26 39.5 57.5T371 536q0 58-23.5 86.5T286 651q-45 0-65.5-28T200 554z"/><glyph unicode="9" horiz-adv-x="565" d="M38 482q0 51 18 93t50.5 72.5Q139 678 184 695t100 17q58 0 104-19.5t78-54.5q32-35 48.5-85.5T531 441q0-93-28-171.5t-79-138q-51-59.5-122.5-97T144-12l-23 43q115 30 177 108t78 192q-19-25-50-41t-80-16q-43 0-80.5 13t-66 39.5Q71 353 54.5 392T38 482zm150 6q0-29 6.5-55t19.5-46q13-20 32-31.5t45-11.5q30 0 53 11.5t35 31.5q2 13 3 32t1 37q0 39-5.5 74.5t-17.5 62Q348 619 329 635t-47 16q-50 0-72-40.5T188 488z"/><glyph unicode=":" horiz-adv-x="343" d="M110 429q0 36 23 58t61 22q38 0 62-22t24-58q0-36-24-57.5T194 350q-38 0-61 21.5T110 429zm0-358q0 36 23 58t61 22q38 0 62-22t24-58q0-36-24-57.5T194-8q-38 0-61 21.5T110 71z"/><glyph unicode=";" horiz-adv-x="348" d="M112 429q0 36 23 58t61 22q38 0 62-22t24-58q0-36-24-57.5T196 350q-38 0-61 21.5T112 429zm-10-560q20 6 36 18t27.5 27Q177-71 183-54t5 33Q174-3 154.5 8T113 26q-5 21-1.5 42t13.5 39q10 18 23.5 30.5T177 153q21-1 41-9.5t36-24Q270 104 279.5 80t9.5-56q0-31-12.5-63t-34-59.5Q221-126 191-146.5T125-175z"/><glyph unicode="&lt;" horiz-adv-x="565" d="M65 324v31l385 235 36-65-213-128-82-34 81-31 233-137-56-92z"/><glyph unicode="=" horiz-adv-x="565" d="M57 469h450v-80H57zm0-170h450v-80H57z"/><glyph unicode="&gt;" horiz-adv-x="565" d="M513 369v-31L128 103l-36 65 213 128 82 34-81 31L73 497l56 93z"/><glyph unicode="?" horiz-adv-x="486" d="M135 501h-34q-6 13-13 32.5t-13.5 41Q68 596 63 618.5T56 661q38 23 86.5 37T266 712q45 0 80.5-12.5t61-34q25.5-21.5 39-51.5t13.5-65q0-45-17-77t-42-56.5q-25-24.5-54.5-45t-55-44Q266 303 249 274t-17-71h-33q-14 46-10.5 79.5T205 343q13 27 32 49t36.5 45q17.5 23 30 49t12.5 60q0 19-4.5 37.5t-15 32.5q-10.5 14-27 22.5T229 647q-21 0-37-4t-24-10zm7-430q0 36 23 58t61 22q38 0 62-22t24-58q0-36-24-57.5T226-8q-38 0-61 21.5T142 71z"/><glyph unicode="@" horiz-adv-x="1064" d="M647 465q24 11 57.5 16t67.5 4l-49-278q-12-64-10.5-95.5T742 80q23 0 52.5 15t55.5 45.5q26 30.5 44 77T912 326q0 76-27.5 136t-76 101q-48.5 41-115 62.5T550 647q-87 0-159.5-30.5T266 532q-52-54-81-128.5T156 242q0-89 29.5-155.5T267-25q52-45 123.5-67.5T546-115q29 0 66 7t67 21l16-57q-35-20-77-28t-93-8q-89 0-169.5 26T214-76q-61 52-97 130T81 236q0 109 37.5 197t102 150Q285 645 371 678.5T555 712q95 0 174.5-26.5t136.5-76q57-49.5 89-121T987 326q0-70-25.5-127.5t-66.5-99q-41-41.5-93-64T697 13q-30 0-52 7.5T609 46q-14 18-18.5 47t1.5 72h-4q-9-27-26.5-54.5t-40-49Q499 40 472 26.5T417 13q-68 0-102.5 44T280 169q0 59 19.5 117t54 103.5q34.5 45.5 82.5 74T541 492q35 0 58.5-6.5T647 465zm-20-50q-11 8-23 12t-29 4q-34 0-63-26t-50-66q-21-40-33-86.5T417 166q0-34 12-53.5T470 93q17 0 34.5 14t34 36.5q16.5 22.5 32 51T599 251z"/><glyph unicode="A" horiz-adv-x="729" d="M247 0H0v38q16 10 34.5 17.5T71 67l258 645h74L654 67q20-4 40-11.5T729 38V0H416v38q19 9 41 17t42 12l-58 159H219L160 67q46-6 87-29zm-4 291h177l-65 191-19 86h-2l-22-88z"/><glyph unicode="B" horiz-adv-x="649" d="M20 0v38q19 11 40.5 19T102 67v566q-20 4-42 11.5T20 662v38h161q38 0 72 3t78 3q48 0 93-7t80-25q35-18 56-50.5t21-83.5q0-32-11.5-59.5t-32-48.5q-20.5-21-48-35T430 377v-4q32-4 64.5-15t58.5-32q26-21 42.5-52.5T612 199q0-54-24-93t-64.5-64Q483 17 431 5.5T323-6q-21 0-46 1l-50 2q-25 1-48.5 2T139 0zm302 59q63 0 99 37.5t36 99.5q0 38-12 62.5t-33 39q-21 14.5-50 20t-63 5.5h-53V66q14-3 29.5-5t46.5-2zm-44 329q17 0 34 1.5t32 3.5q39 16 63 49.5t24 76.5q0 63-33 92.5T313 641q-22 0-38-1t-29-3V388z"/><glyph unicode="C" horiz-adv-x="652" d="M540 210h41q4-16 7.5-38.5t6-48Q597 98 598 73t1-45Q564 6 511.5-3T404-12q-83 0-150.5 20.5t-115 65Q91 118 65 186.5T39 351q0 95 28.5 163.5T144 627q48 44 111.5 64.5T389 712q66 0 119.5-9.5T596 677q0-16-1.5-41t-5-52.5q-3.5-27.5-8-54T573 485h-42l-55 151q-9 5-29 8t-41 3q-41 0-77-16.5T265 578q-28-36-44-92.5T205 350q0-143 57-220t155-77q28 0 47.5 4.5T491 70z"/><glyph unicode="D" horiz-adv-x="736" d="M20 0v38q17 10 38 17.5T102 67v566q-23 5-44.5 12.5T20 662v38h116q17 0 42 1t52 2.5q27 1.5 52.5 3T326 708q87 0 155.5-23t116-67q47.5-44 73-109T696 359q0-83-24-151T600 92q-48-48-121.5-74.5T306-9q-13 0-35 1.5t-47 3l-50 3Q149 0 130 0zm293 643q-18 0-36-1t-31-3V60q4-1 14-1.5t20.5-1 20.5-1q10-.5 15-.5 58 0 98.5 24t66.5 65q26 41 38 96t12 117q0 55-12.5 106T480 555q-26 40-67.5 64T313 643z"/><glyph unicode="E" horiz-adv-x="604" d="M546 700q-2-45-7-93t-13-90h-41l-46 118H252V390h122l44 77h32q5-49 5-109t-5-112h-32l-44 79H252V65h195l53 127h41q4-19 8-43t6.5-49.5q2.5-25.5 4-51.5T561 0H20v38q17 9 38 17t44 12v566q-20 4-42.5 11.5T20 662v38z"/><glyph unicode="F" horiz-adv-x="575" d="M242 67q46-6 87-29V0H20v38q16 9 34 16.5T92 67v566q-23 5-40.5 13T20 662v38h523q0-20-2-43.5t-4.5-48q-2.5-24.5-6-48T523 517h-41l-46 118H242V372h143l39 69h31q7-51 6-105t-6-99h-31l-39 70H242z"/><glyph unicode="G" horiz-adv-x="709" d="M636 44q-20-10-49-20T526 6q-32-8-64-13t-57-5q-86 0-153.5 22.5t-115 68Q89 124 64 192T39 350q0 98 30.5 166.5t81 112Q201 672 265 692t131 20q66 0 124-9t92-26q0-15-1.5-38.5T606 588q-3-27-7.5-54T588 485h-41l-56 152q-11 5-33 7.5t-44 2.5q-41 0-79-16t-67-51.5q-29-35.5-46-92T205 350q0-66 15.5-120.5T264 136q28-39 67-61t86-22q15 0 31 2.5t30 6.5q14 4 24.5 9t14.5 9v188q-26 2-49 10t-43 19v38h273v-38q-9-9-24-16.5T636 268z"/><glyph unicode="H" horiz-adv-x="769" d="M323 0H20v38q17 9 39.5 17T102 67v566q-24 4-46 12t-36 17v38h303v-38q-15-10-33.5-18T252 633V391h265v242q-22 4-39.5 12T446 662v38h303v-38q-17-11-39-18t-43-11V67q23-4 44.5-12T749 38V0H446v38q15 9 33 17t38 12v259H252V67q20-4 37-11t34-18z"/><glyph unicode="I" horiz-adv-x="372" d="M342 0H30v38q40 22 81 29v566q-20 3-42 11t-39 18v38h312v-38q-18-11-39.5-18.5T261 633V67q20-4 41.5-11T342 38z"/><glyph unicode="J" horiz-adv-x="365" d="M27 700h308v-38q-16-10-36-18t-40-11V121q0-82-24.5-134.5t-58-83Q143-127 108-141t-57-19l-19 26q15 12 29 30.5T85.5-56q10.5 29 17 70.5T109 115v518q-22 5-43.5 11.5T27 662z"/><glyph unicode="K" horiz-adv-x="710" d="M399 700h268v-38q-17-11-39-18.5T588 633L398 392q23-32 54-72.5t66-84q35-43.5 72-88T662 63l48-29V0H536l-40 28q-24 30-50.5 66.5t-52.5 76Q367 210 342 250t-47 78h-43V67q22-4 40-12t31-17V0H20v38q20 10 41 17.5T102 67v566q-23 3-44.5 11T20 662v38h303v-38q-13-8-31.5-16T252 633V379l59 14 161 240q-20 4-39.5 12.5T399 662z"/><glyph unicode="L" horiz-adv-x="583" d="M20 700h328v-38q-21-11-46.5-18.5T252 633V65h193l67 179h41q4-23 7.5-54t5.5-65q2-34 3-67t0-58H20v38q23 12 43.5 19T102 67v566q-49 8-82 29z"/><glyph unicode="M" horiz-adv-x="930" d="M909 0H610v38q20 10 39 17t41 12v418l5 117h-8l-33-107L461 0h-46L223 491l-36 117h-9l1-127V71q19-4 42-13t43-20V0H20v38q16 8 39.5 19T104 72v561q-20 4-42.5 11T22 662v38h271l153-407 29-96h1l30 98 156 405h248v-38q-17-10-36.5-17.5T834 633V66q21-4 40.5-12T909 38z"/><glyph unicode="N" horiz-adv-x="758" d="M490 700h248v-38q-19-15-42-26.5T653 618V-12h-85L215 498l-40 77h-3l9-80V78q20-5 44.5-16.5T267 38V0H20v38q18 12 39.5 22.5T104 78v546q-20 8-40 18t-36 21v37h216l287-416 46-86h4l-5 86v334q-24 8-46.5 19.5T490 662z"/><glyph unicode="O" horiz-adv-x="754" d="M39 350q0 78 22 144.5t65 115Q169 658 232 685t145 27q82 0 145-27t105.5-75.5Q670 561 692 494.5T714 350q0-78-22-144.5t-64.5-115Q585 42 522 15T377-12q-82 0-145 27T126 90.5q-43 48.5-65 115T39 350zm170 0q0-64 10-118.5t31.5-94q21.5-39.5 55-62T386 53q43 0 73 22.5t49 62q19 39.5 27.5 94T544 350q0 64-9.5 118.5t-30 94q-20.5 39.5-54 62T369 647q-46 0-77-22.5t-49.5-62q-18.5-39.5-26-94T209 350z"/><glyph unicode="P" horiz-adv-x="640" d="M252 67q27-4 53.5-11.5T353 38V0H20v38q19 11 40.5 18T102 67v566q-23 4-44 11.5T20 662v38h126q40 0 91.5 4t94.5 4q53 0 103.5-10.5t90-35.5q39.5-25 63.5-66.5T613 492q0-59-23.5-102T527 319q-39-28-90-41.5T332 264h-16q-11 0-23.5.5t-24 1Q257 266 252 267zm54 576q-20 0-31.5-1.5T252 637V333q9-3 27-3.5t29-.5q27 0 52 9t44.5 28q19.5 19 31.5 49t12 72q0 80-39 118t-103 38z"/><glyph unicode="Q" horiz-adv-x="754" d="M774-112q-18-19-38.5-36.5t-43-31.5Q670-194 645-202t-52-8q-46 0-92.5 16.5t-97 38Q353-134 297.5-114T177-86l25 44q48 9 94.5 4.5t92-15Q434-63 479.5-76T571-97q46-8 94-7.5T764-87zM39 350q0 78 22 144.5t65 115Q169 658 232 685t145 27q82 0 145-27t105.5-75.5Q670 561 692 494.5T714 350q0-78-22-144.5t-64.5-115Q585 42 522 15T377-12q-82 0-145 27T126 90.5q-43 48.5-65 115T39 350zm170 0q0-64 10-118.5t31.5-94q21.5-39.5 55-62T386 53q43 0 73 22.5t49 62q19 39.5 27.5 94T544 350q0 64-9.5 118.5t-30 94q-20.5 39.5-54 62T369 647q-46 0-77-22.5t-49.5-62q-18.5-39.5-26-94T209 350z"/><glyph unicode="R" horiz-adv-x="697" d="M252 67q23-5 41-13t35-16V0H20v38q22 12 42 18.5T102 67v566q-50 11-82 29v38h106q20 0 45.5 1t53.5 2.5q28 1.5 57 3t56 1.5q55 0 101.5-12.5t80-37.5q33.5-25 52-62.5T590 508q0-72-35-118t-96-69q40-63 85-128.5T639 66l48-32V0H520l-43 33q-46 55-81.5 127.5T333 303h-81zm50 576q-31 0-50-6V358h59q51 0 87 36.5T434 503q0 37-10 63.5T396 610q-18 17-42 25t-52 8z"/><glyph unicode="S" horiz-adv-x="558" d="M157 83q11-11 31-20.5t53-9.5q55 0 91.5 28.5T369 161q0 37-23.5 62T286 269q-36 21-77 41.5T132 359q-36 28-59.5 66.5T49 521q0 49 18 85t49.5 59.5q31.5 23.5 74.5 35t93 11.5q61 0 113.5-8.5T492 677q-1-20-3.5-46t-6.5-51.5q-4-25.5-8.5-48T465 494h-41l-46 137q-12 6-35.5 11t-48.5 5q-42 0-71-22t-29-64q0-38 24-64.5t60-48.5q36-22 78.5-43.5T435 355q36-28 60-65.5t24-92.5q0-100-67.5-154.5T253-12q-32 0-64.5 4T127 3q-29 7-51.5 15T42 35q1 23 5 49.5t8.5 53Q60 164 65 188t10 42h41z"/><glyph unicode="T" horiz-adv-x="666" d="M505 0H161v38q20 8 45.5 16.5T258 67v568H142L78 464H37q-4 20-8 51t-7 64q-3 33-5 65.5T15 700h636q0-24-2-56t-5-65q-3-33-7-63.5t-8-51.5h-41l-64 171H408V67q26-5 51.5-12T505 38z"/><glyph unicode="U" horiz-adv-x="715" d="M7 700h308v-38q-33-21-76-29V248q0-49 11-82t32-53.5Q303 92 332.5 83t66.5-9q33 0 60.5 9.5t48 30.5q20.5 21 31.5 55t11 84v375q-23 5-47.5 14T462 662v38h248v-38q-18-13-40-21t-43-13V252q0-128-67.5-194.5T369-9Q235-9 162 51T89 243v390q-20 3-42 10.5T7 662z"/><glyph unicode="V" horiz-adv-x="734" d="M564 633q-24 5-45.5 13T480 662v38h254v-38q-12-8-31.5-16T662 633L432 0l-99-12L75 633q-20 5-40 12.5T0 662v38h333v-38q-17-8-38-16t-44-13l140-394 23-94h2l22 96z"/><glyph unicode="W" horiz-adv-x="1033" d="M865 633q-40 6-84 29v38h252v-38q-17-11-36-18t-37-11L783 0 679-12 524 472 373 0 268-12 73 633q-21 4-39 11.5T0 662v38h324v-38q-17-9-38.5-16.5T241 633l93-353 21-130h2l35 135 133 415h59l142-410 34-130h2l23 132z"/><glyph unicode="X" horiz-adv-x="728" d="M435 700h248v-38q-15-8-31.5-16T615 633L437 372 644 67q23-5 41.5-12.5T721 38V0H397v38q16 9 33.5 16.5T468 67L326 287 194 66q21-3 39-10t35-18V0H12v38q33 20 68 29l201 285L93 633q-19 5-36 13t-33 16v38h317v-38q-12-7-30-14.5T269 633l122-201 120 201q-20 4-40 12.5T435 662z"/><glyph unicode="Y" horiz-adv-x="698" d="M453 700h245v-38q-15-9-33.5-17.5T627 633L433 293V67q20-2 39.5-10.5T509 38V0H201v38q17 9 38 17t44 12v225L81 633q-23 4-43.5 12T0 662v38h328v-38q-14-8-32-16t-42-13l143-268 136 268q-23 5-44 13t-36 16z"/><glyph unicode="Z" horiz-adv-x="634" d="M537 211h42q4-21 7.5-47.5t6.5-55q3-28.5 4.5-56.5T599 0H35v65l388 570H175l-59-143H74q-5 22-9 50t-7 56.5q-3 28.5-4 55T53 700h534v-65L201 65h274z"/><glyph unicode="[" horiz-adv-x="324" d="M72 700h234v-55H202v-820h104v-55H72z"/><glyph unicode="\" horiz-adv-x="382" d="M416-104l-57-30-415 820 58 29z"/><glyph unicode="]" horiz-adv-x="324" d="M252-230H18v55h104v820H18v55h234z"/><glyph unicode="^" horiz-adv-x="498" d="M229 711h46l170-277H325l-79 135-18 53-25-54-90-134H43z"/><glyph unicode="_" horiz-adv-x="410" d="M0-116h410v-80H0z"/><glyph unicode="`" horiz-adv-x="351" d="M291 589l-45-22L60 712v29q6 6 26 11.5t42.5 8.5q22.5 3 42.5 3.5t27-1.5z"/><glyph unicode="a" horiz-adv-x="557" d="M470 145q0-22 .5-38t2.5-34l69-10V28q-12-6-32.5-12t-43-11.5Q444-1 422-4.5T383-10h-34q-10 23-12 46t-3 56h-5q-5-20-17-38.5t-30.5-33Q263 6 238-3t-56-9q-33 0-61 10T72 26Q51 44 39 69.5T27 127q0 45 17 74t53.5 47.5q36.5 18.5 94 27.5T331 289q8 86-7 126t-65 40q-31 0-57-10l-47-120h-44q-8 12-15.5 27.5t-14 33Q75 403 70.5 421T64 456q38 26 98 41t127 15q57 0 93-12.5t56.5-34Q459 444 467 415t8-62q0-60-2.5-108.5T470 145zM245 68q21 0 36 8t25.5 19q10.5 11 16 24t8.5 23v100q-47-1-77-6t-47-16.5q-17-11.5-23.5-29T177 148q0-38 18-59t50-21z"/><glyph unicode="b" horiz-adv-x="588" d="M67 669l-76 8v39q15 6 39.5 12t51 10.5q26.5 4.5 52 8T177 752h34V406h2q20 50 61 78t97 28q88 0 137-61t49-185q0-137-72.5-206T272-9q-25 0-56 3.5T156 3q-29 5-53.5 12T67 29zm239-237q-38 0-61-27.5T211 335V70q14-10 34.5-16t46.5-6q57 0 83.5 51T402 259q0 79-21.5 126T306 432z"/><glyph unicode="c" horiz-adv-x="484" d="M456 81q-7-20-23-36.5T394.5 15Q372 2 343.5-5T284-12q-66 0-113.5 18.5T92 59.5q-31 34.5-46 83T31 250q0 127 69.5 194.5T298 512q49 0 90-10.5t68-24.5q-2-17-5.5-37.5t-8-41q-4.5-20.5-10.5-40T420 326h-49l-42 119q-7 5-15 7.5t-24 2.5q-26 0-45-9.5T212.5 413q-13.5-23-20-61t-6.5-94q0-41 9-75.5t27.5-60Q241 97 269 82.5T335 68q35 0 61 10t44 24z"/><glyph unicode="d" horiz-adv-x="599" d="M372 99q-5-22-18-42t-31-35.5Q305 6 282-3t-49-9q-99 0-150.5 62.5T31 242q0 66 18 115.5T99.5 441q32.5 34 78.5 51t102 17q18 0 30.5-1t23-2.5q10.5-1.5 20-5T375 493v176l-76 8v39q14 6 38.5 11t51.5 9.5q27 4.5 53 8.5t43 7h34V71l66-8V28q-14-7-36-13T503 4q-24-5-46.5-8.5T419-10h-34l-9 109zm-91-31q35 0 59 22t35 75v269q-13 8-32.5 13t-48.5 5q-58 0-83-52.5T186 247q0-81 22-130t73-49z"/><glyph unicode="e" horiz-adv-x="537" d="M486 84q-8-17-25.5-34.5t-43-31Q392 5 358.5-3.5T286-12q-62 0-110 18.5t-80 53Q64 94 47.5 142T31 250q0 128 67 195t186 67q51 0 95.5-14t74-46q29.5-32 41-84T493 241H186q1-79 40.5-126T343 68q33 0 68.5 10t55.5 26zM280 455q-20 0-35.5-7t-27-25.5Q206 404 199 372.5T189 293h161q7 78-9 120t-61 42z"/><glyph unicode="f" horiz-adv-x="372" d="M321 752q41 0 73.5-7.5T444 730q-3-33-13-68t-18-58h-34l-44 95q-26 0-43.5-5.5t-28-21.5Q253 656 248 626.5t-5-76.5v-50h106v-63H243V63q52-6 96-24V0H33v39q31 18 66 24v374H23v39q35 22 76 33v35q0 62 17.5 102.5t47.5 64q30 23.5 70.5 32.5t86.5 9z"/><glyph unicode="g" horiz-adv-x="564" d="M264 512q65 0 108-13.5t65-33.5q47 51 108 71 7-5 14-14.5t12-20.5q5-11 8-22t3-18l-13-24H464q11-14 20.5-36.5T494 347q0-33-14-62t-42.5-51.5Q409 211 365.5 198T264 185q-17 0-30.5.5T210 188q-4-6-8.5-14.5T197 157q0-17 24-27t61-18q37-8 79.5-18T441 67.5q37-16.5 62-43T529-44q1-40-20-71t-57.5-52.5q-36.5-21.5-86-33T260-212q-66 0-112.5 10.5T72-173q-29 18-42.5 41T16-84q0 28 11 48T58-1q20 15 46.5 25T163 42q-15 4-29 10t-25 14.5q-11 8.5-18 20T84 113q0 13 8 25.5t21 23q13 10.5 28 19t30 14.5q-63 14-100 54.5T34 353q0 75 62 117t168 42zM390-76q0 27-16.5 43.5T331-5.5q-26 10.5-58.5 18T208 30q-26-20-37-40t-11-48q0-46 31.5-71.5T280-155q56 0 83 23.5T390-76zM178 348q0-52 17.5-79t68.5-27q49 0 67.5 27.5T350 348q0 54-19 80.5T264 455q-50 0-68-26t-18-81z"/><glyph unicode="h" horiz-adv-x="640" d="M628 0H363v39q12 7 25 13t30 11v202q0 86-16.5 126.5T337 432q-40 0-68-27.5T229 341V63q16-4 28.5-9T284 39V0H19v39q31 16 66 24v606l-76 8v39q15 6 38.5 12T97 738.5q26 4.5 52 8t46 5.5h34V399h1q10 23 27 43.5t38.5 36Q317 494 342 503t53 9q40 0 71.5-9.5T519 469q21-24 32-64.5T562 302V63q17-4 34-9t32-15z"/><glyph unicode="i" horiz-adv-x="332" d="M307 0H31v39q15 8 31 13.5T97 63v366l-66 8v39q15 6 37.5 12t47.5 10.5q25 4.5 49 8t42 5.5h34V63q20-5 36-10.5T307 39zM80 664q0 35 24 55t62 20q38 0 62-20t24-55q0-34-24-54t-62-20q-38 0-62 20t-24 54z"/><glyph unicode="j" horiz-adv-x="320" d="M97 429l-66 8v39q15 7 37 13t47 10.5q25 4.5 49.5 7.5t42.5 5h34V43q0-47-11.5-84t-30-64q-18.5-27-41-46t-44-31.5Q93-195 75-202t-28-10l-20 30q12 6 24 19.5T73.5-125q10.5 24 17 60.5T97 24zM80 664q0 35 24 55t62 20q38 0 62-20t24-55q0-34-24-54t-62-20q-38 0-62 20t-24 54z"/><glyph unicode="k" horiz-adv-x="583" d="M322 500h234v-39q-19-8-35.5-14T484 437q-15-20-32.5-39.5t-35-37.5Q399 342 383 325.5T354 296q15-20 35-48t43-59.5q23-31.5 48.5-64T532 63l51-24V0H414l-27 24q-23 31-40.5 58T315 134q-14 25-27 48.5T262 229l-33 10V63q17-3 31-9t30-15V0H19v39q33 16 66 24v606l-76 8v39q14 6 38 12t51 10.5q27 4.5 53 8t44 5.5h34V283h26q33 35 61.5 77t50.5 77q-13 4-23.5 10T322 461z"/><glyph unicode="l" horiz-adv-x="332" d="M307 0H31v39q33 16 66 24v606l-76 8v39q13 6 36 12t49.5 10.5q26.5 4.5 53 8T207 752h34V63q33-8 66-24z"/><glyph unicode="m" horiz-adv-x="924" d="M594 0H344v39q10 6 22.5 12.5T394 63v199q0 46-2.5 78T381 392.5q-8 20.5-22 30t-36 9.5q-32 0-55.5-24.5T233 343V63q27-8 50-24V0H23v39q14 7 31 13t35 11v366l-66 8v39q16 7 39.5 13t48.5 10.5q25 4.5 48.5 7.5t39.5 5h34V399h1q16 47 56.5 80t97.5 33q24 0 47-5t42.5-18.5Q497 475 511 451t20-62q18 55 60 89t102 34q37 0 65.5-9.5t48-33.5q19.5-24 29.5-65t10-104V63q34-6 66-24V0H652v39q23 15 50 24v217q0 78-14.5 115T625 432q-36 0-56.5-27T538 333V63q17-5 30.5-11T594 39z"/><glyph unicode="n" horiz-adv-x="644" d="M632 0H367v39q13 7 25.5 12.5T422 63v235q0 63-18 98.5T340 432q-38 0-65.5-24.5T233 341V63q16-4 28.5-9.5T288 39V0H23v39q25 13 66 24v366l-66 8v39q13 6 34 11.5t45.5 10.5q24.5 5 50 8.5T199 512h34V409h1q21 42 63 72.5T399 512q39 0 70-9.5t52.5-33.5q21.5-24 33-64.5T566 302V63q40-7 66-24z"/><glyph unicode="o" horiz-adv-x="594" d="M31 250q0 61 18.5 109.5t53 82.5q34.5 34 83.5 52t111 18q70 0 120.5-19.5t83-54q32.5-34.5 47.5-83T563 250q0-61-18-109.5T492.5 58q-34.5-34-84-52T297-12q-68 0-118 19.5t-83 54q-33 34.5-49 83T31 250zm155 0q0-45 5.5-82.5T211 104q14-26 38-40.5T311 49q22 0 40 10.5t31 34q13 23.5 19.5 62T408 250q0 46-5.5 83t-19 63Q370 422 347 436.5T289 451q-26 0-45-10.5t-32-34q-13-23.5-19.5-62T186 250z"/><glyph unicode="p" horiz-adv-x="609" d="M297-200H21v39q34 16 66 24v566l-66 8v39q16 7 39.5 13t48.5 10.5q25 4.5 48.5 7.5t39.5 5h34V400h1q17 48 53.5 80T387 512q44 0 79.5-14.5t60-45q24.5-30.5 38-78T578 261q0-63-17.5-114t-50-86q-32.5-35-79-54T326-12q-34 0-53.5 4.5T231 8v-145q16-2 32-7.5t34-16.5zm32 632q-34 0-60.5-24T231 334V68q16-12 34-17.5t47-5.5q57 0 84 55t27 161q0 82-20.5 126.5T329 432z"/><glyph unicode="q" horiz-adv-x="589" d="M367 89q-7-20-20-38t-31-32Q298 5 274.5-3.5T222-12q-91 0-141 62T31 237q0 137 73.5 204.5T313 509q28 0 59-3t59-7.5q28-4.5 50.5-10T515 478v-615q33-6 66-24v-39H305v39q31 16 66 24V89zm-95-21q75 0 99 96v274q-17 5-36 9.5t-42 4.5q-58 0-82.5-46T186 249q0-87 18-134t68-47z"/><glyph unicode="r" horiz-adv-x="431" d="M290 385q-12-6-28-20t-29-46V63q20-2 40-7.5T313 39V0H23v39q18 10 34 15t32 9v366l-66 8v39q16 7 39.5 13t48.5 10.5q25 4.5 48.5 7.5t39.5 5h34V379h4q8 22 23.5 46t36.5 44q21 20 46 32t52 11q11-14 19-39.5t13-48.5v-39z"/><glyph unicode="s" horiz-adv-x="452" d="M288 109q0 26-18.5 45t-46 35q-27.5 16-60 32t-60 37.5Q76 280 57.5 309T39 380q0 30 14 54.5T91 476q24 17 57.5 26.5T221 512q54 0 100.5-8.5T403 480q-4-32-16-68.5T364 345h-34l-42 102q-12 5-25 6.5t-29 1.5q-30 0-45.5-17.5T173 398q0-25 18.5-43.5t46-34.5q27.5-16 60-32t60-36.5q27.5-20.5 46-48.5t18.5-67q0-69-56-108.5T216-12q-48 0-99 10T29 26q2 36 17 73t32 66h34l49-109q11-8 24.5-9.5T211 45q29 0 53 17t24 47z"/><glyph unicode="t" horiz-adv-x="399" d="M8 476q38 24 80 34v81q8 6 39.5 17.5T198 627h34V500h132v-63H232V178q0-62 15.5-86T299 68q18 0 40.5 2.5T381 80l7-33q-9-9-26.5-19t-40-19q-22.5-9-49-15T217-12q-65 0-97 34T88 132v305H8z"/><glyph unicode="u" horiz-adv-x="622" d="M71 198q0 63 3 117t3 114l-66 8v39q16 6 39.5 12T99 498.5q25 4.5 48.5 8T187 512h34q0-75-3-147.5T215 222q0-82 16.5-118T293 68q31 0 57.5 23.5T394 167v262l-65 8v39q15 6 37.5 12t47 10.5q24.5 4.5 48.5 8t42 5.5h34V71l66-8V28q-14-6-35-12T525 4.5q-23-5.5-45.5-9T439-10h-34l-7 119h-4q-5-21-18-42.5t-33.5-39Q322 10 294-1t-62-11q-38 0-67.5 9.5T114 31Q93 55 82 95.5T71 198z"/><glyph unicode="v" horiz-adv-x="539" d="M243-12L43 437q-29 10-53 24v39h263v-38q-13-7-26.5-13.5T196 437l93-256 19-67h2l16 68 85 255q-16 4-29.5 10T356 461v39h193v-39q-10-7-24.5-13T492 437L317 0z"/><glyph unicode="w" horiz-adv-x="784" d="M200-12L43 437q-14 5-27.5 10.5T-10 461v39h253v-38q-14-8-28-14.5T186 437l69-256 13-77h2l18 80 106 310 49 6 114-317 21-79h2l16 78 60 255q-11 2-25.5 8T601 461v39h193v-39q-21-14-57-24L598 0l-94-12-86 247-19 83h-3l-23-83L293 0z"/><glyph unicode="x" horiz-adv-x="560" d="M343 268L501 63q26-8 49-24V0H295v38q11 8 22.5 14.5T341 63l-95 136-92-136q14-5 24.5-11T199 39V0H10v39q14 8 25.5 14T62 63l148 184L61 437q-14 5-25 10.5T16 461v39h251v-38q-12-8-21.5-14.5T222 437l87-124 83 124q-17 5-27 11t-18 13v39h185v-39q-10-7-22-13t-30-11z"/><glyph unicode="y" horiz-adv-x="528" d="M38 437q-15 4-27.5 10T-15 461v39h263v-38q-21-14-57-25l101-251 17-64h2l16 65 78 250q-30 6-55 24v39h193v-39q-21-14-57-24L323 0q-24-64-48-104.5T227-169q-24-24-48-33.5T131-215q-10 9-18 22.5t-14 29Q93-148 89-132t-5 30l13 24h122q9 14 15.5 30T250 0z"/><glyph unicode="z" horiz-adv-x="516" d="M453 185q11-41 19-91t6-94H32v39l285 404H151l-44-118H73q-11 43-18 91t-7 84h430v-39L192 57h173l54 128z"/><glyph unicode="{" horiz-adv-x="354" d="M123 102q0 51-21 80t-59 29v48q38 0 59 30.5t21 74.5v230q0 48 24 77t72 29h121v-55h-35q-27 0-39.5-14T253 585V365q0-33-10.5-56t-27-37.5Q199 257 180 249.5t-37-9.5v-6q17-2 36.5-10t36-24q16.5-16 27-39.5T253 105v-220q0-31 12-45.5t41-14.5h34v-55H219q-45 0-70.5 26.5T123-125z"/><glyph unicode="|" horiz-adv-x="235" d="M83 700h70v-830H83z"/><glyph unicode="}" horiz-adv-x="354" d="M244 369q0-51 21-80t59-29v-48q-38 0-59-30.5T244 107v-231q0-48-24-77t-72-29H27v55h35q27 0 39.5 14t12.5 46v221q0 33 9 56t23.5 37.5q14.5 14.5 32 22T214 231v6q-17 2-35 10t-32.5 24Q132 287 123 310.5t-9 55.5v219q0 31-12 45.5T61 645H27v55h122q45 0 70-26.5t25-78.5z"/><glyph unicode="~" horiz-adv-x="530" d="M46 312q27 58 67 88.5t77 30.5q25 0 49-10.5t47-23.5q23-13 46.5-23.5T381 363q18 0 37.5 7.5T458 397l23-30q-23-48-56-71.5T358 272q-26 0-50.5 10.5T259 306q-24 13-48 23.5T163 340q-22 0-44.5-12T73 285z"/><glyph horiz-adv-x="270"/><glyph unicode="¡" horiz-adv-x="344" d="M172 286l50-194v-278q-11-6-30.5-8.5T150-197q-22 0-42 2.5T78-186V92l50 194zm61 147q0-37-23-58.5T149 353q-38 0-62 21.5T63 433q0 36 24 57.5t62 21.5q38 0 61-21.5t23-57.5z"/><glyph unicode="¢" horiz-adv-x="565" d="M521 81q-13-35-52-60T376-9v-161h-77V-9Q178 4 117 72.5T56 250q0 112 62.5 177.5T299 508v152h77V511q45-2 82-11.5t63-22.5q-2-17-5.5-37.5t-8-41q-4.5-20.5-10.5-40T485 326h-34l-36 119q-5 2-10.5 4.5T385 453l-16 1V70q8-2 15.5-2H400q35 0 61 10t44 24zM211 258q0-59 22.5-104.5T306 85v361q-41-15-68-59t-27-129z"/><glyph unicode="£" horiz-adv-x="565" d="M40 375h77q-20 31-36 68.5T65 534q0 42 17 75t47 56q30 23 71.5 35t91.5 12q30 0 62-3.5t60.5-8.5q28.5-5 52.5-12t38-14q-1-16-4.5-40t-8-49.5Q488 559 482 535t-11-41h-34l-40 137q-36 16-89 16-38 0-62-18.5T216 574q-4-19-1-42 3-22 9-42t14.5-39l17-38q8.5-19 16.5-38h125v-61H289q4-31-3.5-55T266 212q-4-20-14.5-39T223 140l-33-24v-4l51 6h177l49 112h34q3-23 6.5-55t6.5-65q3-33 5-62.5T521 0H43v54q58 25 89 59.5t36 86.5q2 11 2 21.5V243q-2 20-6.5 37.5T153 314H40z"/><glyph unicode="¤" horiz-adv-x="565" d="M36 178l75 74 40 14q-13 17-18.5 35.5T127 346q0 46 24 79l-40 15-74 74 78 78 73-74 16-40q16 11 34 17t44 6q52-1 80-22l16 39 72 72 78-77-74-73-38-14q10-17 15-36t6-45q0-45-21-79l38-14 73-74-78-78-73 73-14 39q-15-9-35.5-15t-43.5-6q-26 1-45.5 6.5T202 212l-14-38-74-74zm246 86q36 0 60.5 23t24.5 59q0 36-24.5 59.5T282 429q-36 1-60.5-23T197 346q0-36 24.5-59t60.5-23z"/><glyph unicode="¥" horiz-adv-x="565" d="M379 700h240v-38q-14-9-35.5-17.5T543 633L392 342h117v-65H367v-57h142v-65H367V67q19-2 39-10.5T443 38V0H135v38q17 9 38 17t44 12v88H74v65h143v57H74v65h115L26 633q-23 4-43.5 12T-55 662v38h328v-38q-13-8-31.5-16T199 633l132-282 128 282q-23 5-43.5 13T379 662z"/><glyph unicode="¦" horiz-adv-x="235" d="M83 190h70v-320H83zm70 190H83v320h70z"/><glyph unicode="§" horiz-adv-x="566" d="M338 39q0 27-21 45t-52.5 31.5Q233 129 196 143t-68.5 33.5Q96 196 75 224.5T54 298q0 50 38.5 85t96.5 58q-21 11-39 24t-31.5 29.5Q105 511 97 532t-8 48q0 60 51.5 96T276 712q54 0 97.5-8t79.5-19q-4-32-11-58.5T424 570h-34l-52 77q-12 5-22.5 6.5T289 655q-34 0-50-17.5T223 598q0-27 21.5-45.5t53.5-34q32-15.5 69.5-31t69.5-36q32-20.5 53.5-49T512 333q0-26-11.5-48T471 244.5q-18-18.5-41-33T385 186q36-20 61.5-47T472 68q0-70-55-110T261-82q-48 0-96.5 10T79-44q2 36 12 60.5T118 70h34l59-84q11-8 22-9.5t23-1.5q32 0 57 17t25 47zm40 262q0 22-11.5 39t-30 30q-18.5 13-43 23.5T243 415q-22-16-38.5-39T188 328q0-22 12-38.5t31.5-29.5q19.5-13 44.5-23.5t51-21.5q20 17 35.5 40.5T378 301z"/><glyph unicode="¨" horiz-adv-x="505" d="M60 659q0 32 20 51t53 19q32 0 52.5-19t20.5-51q0-30-20.5-49T133 591q-33 0-53 19t-20 49zm239 0q0 32 20 51t52 19q33 0 53.5-19t20.5-51q0-30-20.5-49T371 591q-32 0-52 19t-20 49z"/><glyph unicode="©" horiz-adv-x="819" d="M55 290q0 83 29.5 148.5t79 110.5q49.5 45 113 69T409 642q69 0 132.5-24t113-69q49.5-45 79-110.5T763 290q0-83-29.5-148.5T654.5 31q-49.5-45-113-69T409-62q-72 0-136.5 24t-113 69Q111 76 83 141.5T55 290zm67 0q0-67 23-121t62-91.5q39-37.5 91-58T409-1q61 0 113.5 20.5t91 58Q652 115 674 169t22 121q0 69-24 123t-63.5 91.5Q569 542 517 561.5T409 581q-63 0-115.5-20.5t-90.5-58Q165 465 143.5 411T122 290zm393-70h34q2-8 4.5-20.5t4-27.5q1.5-15 2-30t-.5-27q-17-14-52.5-23.5T430 82q-49 0-89.5 13.5t-70 40Q241 162 224.5 201T208 291q0 52 18.5 91t48 65q29.5 26 67 39.5T417 500q48 0 83-8.5t56-21.5q1-9 0-24t-3-31.5q-2-16.5-4.5-32.5t-5.5-26h-34l-30 83q-7 5-19 5.5t-24 .5q-45 0-69-38t-24-116q0-33 5.5-61.5t17.5-49q12-20.5 31-32t46-11.5q16 0 28 2.5t16 6.5z"/><glyph unicode="ª" horiz-adv-x="460" d="M99 596q-10 11-19 33t-10 43q25 13 68 24.5T257 708q39 0 64-6.5t40-19.5q15-13 21-32t6-43q0-38-1.5-81t-1.5-75l50-10v-35q-9-5-24.5-9.5t-33-8.5q-17.5-4-34-6.5T316 378h-26q-7 17-9.5 31.5T277 441h-4q-5-9-14-20.5T235.5 399Q221 389 201 382.5t-47-6.5q-50 0-79.5 25.5T45 471q0 31 16.5 50.5t44 30.5q27.5 11 63.5 15.5t76 4.5q7 0 13.5-.5t13.5-.5q1 6 1 16.5V603q0 23-12 38.5T215 657q-11 0-24.5-2t-27.5-7l-28-52zm106-165q28 0 44 17.5t23 33.5v51q-9 1-17.5 1.5t-16.5.5q-32 0-54-12t-22-43q0-19 11-34t32-15z"/><glyph unicode="«" horiz-adv-x="505" d="M236 259l178 222 43-36-106-179L463 77l-42-36zm-216 0l240 223 39-36-144-181L305 76l-39-37z"/><glyph unicode="¬" horiz-adv-x="565" d="M65 401h434V185h-80v126H65z"/><glyph unicode="­" horiz-adv-x="414" d="M66 327h282v-90H66z"/><glyph unicode="®" horiz-adv-x="703" d="M69 451q0 66 23 118t62 88q39 36 90 55t107 19q57 0 108.5-19t90-55q38.5-36 61-88T633 451q0-66-23-118t-62-88q-39-36-90-55t-107-19q-57 0-108.5 19t-90 55q-38.5 36-61 88T69 451zm62 0q0-52 17.5-93.5t47.5-71q30-29.5 70-45t85-15.5q47 0 87.5 15.5t70 44.5q29.5 29 46 70.5T571 451q0 52-17.5 93.5T506 615q-30 29-70 45t-85 16q-48 0-88-16t-69.5-45q-29.5-29-46-70.5T131 451zm189-100q13-1 20-3.5t14-5.5v-33H216v33q17 6 35 9v215q-11 1-19 3.5t-16 7.5v31h52q18 0 43 2t41 2q54 0 88-19.5t34-64.5q0-31-19-50.5T408 449q9-15 16.5-27t15.5-23.5q8-11.5 18.5-23T483 351l23-12v-30h-64l-28 11q-25 30-37.5 60T353 439h-33zm27 220q-11 0-16-.5t-11-2.5v-91h29q24 0 37 12t12 39q-1 23-14.5 33T347 571z"/><glyph unicode="¯" horiz-adv-x="414" d="M60 619v70h294v-70z"/><glyph unicode="°" horiz-adv-x="413" d="M69 571q0 31 11.5 57t31 44.5q19.5 18.5 46 29T213 712q29 0 55.5-9t46-26.5q19.5-17.5 31-44T357 571q0-33-11.5-59t-31-44.5q-19.5-18.5-46-28T213 430q-29 0-55.5 9.5t-46 28Q92 486 80.5 512T69 571zm69 0q0-38 23-59t52-21q32 0 53.5 19.5T288 571q0 39-21.5 59.5T213 651q-33 0-54-21t-21-59z"/><glyph unicode="±" horiz-adv-x="565" d="M57 504h185v196h80V504h185v-80H322V292h-80v132H57zm0-260h450v-80H57z"/><glyph unicode="²" horiz-adv-x="440" d="M114 621H87q-6 12-14 32.5t-14.5 42Q52 717 47 736t-6 29q32 18 78.5 33T221 813q83 0 120.5-32.5T379 697q0-33-16-65t-44.5-61Q290 542 250 515.5T162 466v-6l31 7h119l44 67h31q3-17 6-39t5-43q2-21 2.5-38.5t.5-27.5H44v51q41 23 79.5 51.5T192 548q30 31 48.5 63.5T259 675q0 30-14.5 46.5T195 738q-30 0-52-12z"/><glyph unicode="³" horiz-adv-x="440" d="M207 437q38 0 55.5 22.5T280 508q0 31-19 48.5T199 574h-38v35l77 86 44 42v2l-62-4h-71l-40-83H78q-6 13-11 34t-8.5 43.5q-3.5 22.5-6 43T50 804h334v-45L282 658l-37-31v-1l31 4q24 0 46-7.5t39.5-22q17.5-14.5 28-36.5t10.5-51q0-65-49.5-100.5T200 377q-20 0-43 3.5t-45 10q-22 6.5-41 15T39 423l34 106h27q5-5 11-15t13-21.5q7-11.5 13.5-23.5t11.5-22q9-3 23.5-6.5T207 437z"/><glyph unicode="´" horiz-adv-x="351" d="M168 763q8 2 26.5 1.5T233 761q20-3 36.5-8.5T291 741v-24L100 562l-40 22z"/><glyph unicode="µ" horiz-adv-x="622" d="M150 13l49-174v-39q-36-8-67.5-8T71-200v629l-60 8v39q16 6 39.5 12T99 498.5q25 4.5 48.5 8T187 512h34q0-75-3-147.5T215 222q0-82 16.5-118T293 68q31 0 58 23.5t44 75.5v262l-66 8v39q15 6 37.5 12t47.5 10.5q25 4.5 49 8t42 5.5h34V71l66-8V28q-14-6-35-12T525.5 4.5q-23.5-5.5-46-9T439-10h-34l-7 119h-4q-5-21-17.5-42.5t-32.5-39Q324 10 298-1t-56-11q-28 0-50.5 7T155 13z"/><glyph unicode="¶" horiz-adv-x="547" d="M411 94q0-67-10-110.5t-29.5-70q-19.5-26.5-48-40T258-148q-20-29-49.5-43.5T148-212l-16 33q22 9 41.5 22.5t33.5 36Q221-98 229.5-63t8.5 87v286q-32 0-63.5 10t-57 32.5Q92 375 76 411.5T60 500q0 42 12.5 78.5t37 63.5q24.5 27 62.5 42.5t89 15.5h226v-43q-17-8-35-14t-41-10zM278-111q41 13 55 64.5T347 94v544h-44V24q0-40-5.5-74.5T278-111z"/><glyph unicode="·" horiz-adv-x="296" d="M63 321q0 36 23 58t61 22q38 0 62-22t24-58q0-36-24-57.5T147 242q-38 0-61 21.5T63 321z"/><glyph unicode="¸" horiz-adv-x="318" d="M134-68q60-3 91.5-21.5T258-144q0-29-17-50t-45-35q-28-14-63-21t-70-7v39q70 11 70 57-1 23-19.5 33T60-114L101 1h59z"/><glyph unicode="¹" horiz-adv-x="440" d="M385 386H72v30q27 14 51.5 24t49.5 15v215l4 45q-24-7-56.5-7.5T65 709v42q46 6 95 24t85 38h40V455q55-13 100-39z"/><glyph unicode="º" horiz-adv-x="458" d="M37 542q0 39 14 70t39.5 53.5Q116 688 151 700t78 12q43 0 78.5-10.5T368 670q25-21 39-53t14-75q0-39-14-70.5T368 418q-25-22-60.5-34T229 372q-43 0-78 10.5T90.5 414Q65 435 51 467t-14 75zm120 0q0-119 72-119 35 0 53.5 26.5T301 542q0 66-18.5 92.5T229 661q-37 0-54.5-26.5T157 542z"/><glyph unicode="»" horiz-adv-x="505" d="M87 41L45 77l109 182L45 445l42 36 182-220zm155-1l-39 37 147 182-147 187 39 36 243-221z"/><glyph unicode="¼" horiz-adv-x="958" d="M370 282H57v30q27 14 51.5 24t49.5 15v215l4 45q-24-7-56.5-7.5T50 605v42q46 6 95 24t85 38h40V351q55-13 100-39zM877 0H633v30q15 8 34 16.5T706 59v54H475v37l274 277h69V173h85v-60h-85V59q30-6 59-29zM706 276l8 43h-3l-33-43-84-87-36-23 54 7h94zm66 439l48-42L235-13l-47 43z"/><glyph unicode="½" horiz-adv-x="1031" d="M370 282H57v30q27 14 51.5 24t49.5 15v215l4 45q-24-7-56.5-7.5T50 605v42q46 6 95 24t85 38h40V351q55-13 100-39zm318-47h-27q-6 12-14 32.5t-14.5 42Q626 331 621 350t-6 29q32 18 78.5 33T795 427q83 0 120.5-32.5T953 311q0-33-16-65t-44.5-61Q864 156 824 129.5T736 80v-6l31 7h119l44 67h31q3-17 6-39t5-43q2-21 2.5-38.5T975 0H618v51q41 23 79.5 51.5T766 162q30 31 48.5 63.5T833 289q0 30-14.5 46.5T769 352q-30 0-52-12zm84 480l48-42L235-13l-47 43z"/><glyph unicode="¾" horiz-adv-x="980" d="M223 333q38 0 55.5 22.5T296 404q0 31-19 48.5T215 470h-38v35l77 86 44 42v2l-62-4h-71l-40-83H94q-6 13-11 34t-8.5 43.5q-3.5 22.5-6 43T66 700h334v-45L298 554l-37-31v-1l31 4q24 0 46-7.5t39.5-22q17.5-14.5 28-36.5t10.5-51q0-65-49.5-100.5T216 273q-20 0-43 3.5t-45 10q-22 6.5-41 15T55 319l34 106h27q5-5 11-15t13-21.5q7-11.5 13.5-23.5t11.5-22q9-3 23.5-6.5T223 333zM899 0H655v30q15 8 34 16.5T728 59v54H497v37l274 277h69V173h85v-60h-85V59q30-6 59-29zM728 276l8 43h-3l-33-43-84-87-36-23 54 7h94zm66 439l48-42L257-13l-47 43z"/><glyph unicode="¿" horiz-adv-x="486" d="M351 3h34q5-13 12-32.5t14-41q7-21.5 12-44.5t7-42q-38-23-86.5-37T220-208q-45 0-80.5 12.5t-61 34Q53-140 39.5-110T26-45q0 45 17 77t42 56.5q25 24.5 54.5 45t55 44Q220 201 237 230t17 71h33q14-46 10.5-80T281 160.5q-13-26.5-31.5-49t-36-45Q196 44 183.5 18T171-42q0-20 4.5-38t14.5-32q10-14 26.5-22.5T257-143q44 0 61 14zm-7 430q0-37-23.5-58.5T259 353q-38 0-62 21.5T173 433q0 36 24 57.5t62 21.5q38 0 61.5-21.5T344 433z"/><glyph unicode="À" horiz-adv-x="729" d="M247 0H0v38q16 10 34.5 17.5T71 67l258 645h74L654 67q20-4 40-11.5T729 38V0H416v38q19 9 41 17t42 12l-58 159H219L160 67q46-6 87-29zm-4 291h177l-65 191-19 86h-2l-22-88zm173 473l-34-19-236 96v20q3 9 21.5 16.5t42 13q23.5 5.5 46 8t33.5-.5z"/><glyph unicode="Á" horiz-adv-x="729" d="M247 0H0v38q16 10 34.5 17.5T71 67l258 645h74L654 67q20-4 40-11.5T729 38V0H416v38q19 9 41 17t42 12l-58 159H219L160 67q46-6 87-29zm-4 291h177l-65 191-19 86h-2l-22-88zm209 607q16 1 36.5-2t40-8.5q19.5-5.5 35-12.5t21.5-14v-20l-247-96-28 24z"/><glyph unicode="Â" horiz-adv-x="729" d="M247 0H0v38q16 10 34.5 17.5T71 67l258 645h74L654 67q20-4 40-11.5T729 38V0H416v38q19 9 41 17t42 12l-58 159H219L160 67q46-6 87-29zm-4 291h177l-65 191-19 86h-2l-22-88zm-3 452l-28 28 127 117q10 5 31 5t31-5l125-114-28-30-132 56z"/><glyph unicode="Ã" horiz-adv-x="729" d="M247 0H0v38q16 10 34.5 17.5T71 67l258 645h74L654 67q20-4 40-11.5T729 38V0H416v38q19 9 41 17t42 12l-58 159H219L160 67q46-6 87-29zm-4 291h177l-65 191-19 86h-2l-22-88zm297 526q-32-32-60-48.5T416 752q-19 0-35.5 5.5T348 769q-16 6-31 11.5t-31 5.5q-14 0-30.5-5.5T223 761l-28 47q76 68 135 68 18 0 34.5-5t31.5-11q15-6 30-11t31-5q13 0 29 4.5t32 15.5z"/><glyph unicode="Ä" horiz-adv-x="729" d="M247 0H0v38q16 10 34.5 17.5T71 67l258 645h74L654 67q20-4 40-11.5T729 38V0H416v38q19 9 41 17t42 12l-58 159H219L160 67q46-6 87-29zm-4 291h177l-65 191-19 86h-2l-22-88zm-80 502q0 32 23 48t58 16q35 0 58-16t23-48q0-28-23-43.5T244 734q-35 0-58 15.5T163 793zm245 0q0 32 23.5 48t58.5 16q35 0 58-16t23-48q0-28-23-43.5T490 734q-35 0-58.5 15.5T408 793z"/><glyph unicode="Å" horiz-adv-x="729" d="M243 291h177l-65 191-19 86h-2l-22-88zm78 497q0-17 15-25.5t30-8.5q23 0 36 8.5t13 24.5q0 23-13.5 32t-32.5 9q-21 0-34.5-9T321 788zm-83 0q0 41 36 65.5t97 24.5q26 0 49-5.5t40.5-16.5q17.5-11 27.5-27t10-38q0-39-36-63-24-16-57-22L654 67q20-4 40-11.5T729 38V0H416v38q19 9 41 17t42 12l-58 159H219L160 67q46-6 87-29V0H0v38q16 10 34.5 17.5T71 67l256 640q-34 5-55 20-34 23-34 61z"/><glyph unicode="Æ" horiz-adv-x="959" d="M901 700q-2-45-7-93t-13-90h-42l-46 118H606V390h123l44 77h31q5-49 5-109t-5-112h-31l-44 79H606V65h195l53 127h42q4-19 7.5-43t6.5-49.5q3-25.5 4.5-51.5T916 0H379v38q16 8 36 16t41 13l2 177H273L170 67q41-8 77-29V0H5v38q16 10 34 17.5T75 67l348 571q-15 5-30 10.5T365 662v38zM310 309h148l3 285h-2l-36-90z"/><glyph unicode="Ç" horiz-adv-x="652" d="M540 210h41q4-16 7.5-38.5t6-48Q597 98 598 73t1-45q-18-12-41.5-19.5T508-3.5Q482-8 454.5-10T400-12l-20-46q60-2 97.5-23.5T515-147q0-33-22.5-57t-55-39.5Q405-259 368-266t-65-7v46q35 5 57.5 20t21.5 43q-1 23-17.5 36T306-113L338-8q-69 7-124 31.5T120 92q-39 44-60 108.5T39 351q0 95 28.5 163.5T144 627q48 44 111.5 64.5T389 712q66 0 119.5-9.5T596 677q0-16-1.5-41t-5-52.5q-3.5-27.5-8-54T573 485h-42l-55 151q-9 5-29 8t-41 3q-41 0-77-16.5T265 578q-28-36-44-92.5T205 350q0-143 57-220t155-77q28 0 47.5 4.5T491 70z"/><glyph unicode="È" horiz-adv-x="604" d="M546 700q-2-45-7-93t-13-90h-41l-46 118H252V390h122l44 77h32q5-49 5-109t-5-112h-32l-44 79H252V65h195l53 127h41q4-19 8-43t6.5-49.5q2.5-25.5 4-51.5T561 0H20v38q17 9 38 17t44 12v566q-20 4-42.5 11.5T20 662v38zm-176 64l-34-19-236 96v20q3 9 21.5 16.5t42 13q23.5 5.5 46 8t33.5-.5z"/><glyph unicode="É" horiz-adv-x="604" d="M546 700q-2-45-7-93t-13-90h-41l-46 118H252V390h122l44 77h32q5-49 5-109t-5-112h-32l-44 79H252V65h195l53 127h41q4-19 8-43t6.5-49.5q2.5-25.5 4-51.5T561 0H20v38q17 9 38 17t44 12v566q-20 4-42.5 11.5T20 662v38zM362 898q16 1 36.5-2t40-8.5q19.5-5.5 35-12.5t21.5-14v-20l-247-96-28 24z"/><glyph unicode="Ê" horiz-adv-x="604" d="M546 700q-2-45-7-93t-13-90h-41l-46 118H252V390h122l44 77h32q5-49 5-109t-5-112h-32l-44 79H252V65h195l53 127h41q4-19 8-43t6.5-49.5q2.5-25.5 4-51.5T561 0H20v38q17 9 38 17t44 12v566q-20 4-42.5 11.5T20 662v38zm-364 43l-28 28 127 117q10 5 31 5t31-5l125-114-28-30-132 56z"/><glyph unicode="Ë" horiz-adv-x="604" d="M546 700q-2-45-7-93t-13-90h-41l-46 118H252V390h122l44 77h32q5-49 5-109t-5-112h-32l-44 79H252V65h195l53 127h41q4-19 8-43t6.5-49.5q2.5-25.5 4-51.5T561 0H20v38q17 9 38 17t44 12v566q-20 4-42.5 11.5T20 662v38zM93 793q0 32 23 48t58 16q35 0 58-16t23-48q0-28-23-43.5T174 734q-35 0-58 15.5T93 793zm245 0q0 32 23.5 48t58.5 16q35 0 58-16t23-48q0-28-23-43.5T420 734q-35 0-58.5 15.5T338 793z"/><glyph unicode="Ì" horiz-adv-x="372" d="M342 0H30v38q40 22 81 29v566q-20 3-42 11t-39 18v38h312v-38q-18-11-39.5-18.5T261 633V67q20-4 41.5-11T342 38zm-41 764l-34-19-236 96v20q3 9 21.5 16.5t42 13q23.5 5.5 46 8t33.5-.5z"/><glyph unicode="Í" horiz-adv-x="372" d="M342 0H30v38q40 22 81 29v566q-20 3-42 11t-39 18v38h312v-38q-18-11-39.5-18.5T261 633V67q20-4 41.5-11T342 38zM219 898q16 1 36.5-2t40-8.5q19.5-5.5 35-12.5t21.5-14v-20l-247-96-28 24z"/><glyph unicode="Î" horiz-adv-x="372" d="M342 0H30v38q40 22 81 29v566q-20 3-42 11t-39 18v38h312v-38q-18-11-39.5-18.5T261 633V67q20-4 41.5-11T342 38zM57 743l-28 28 127 117q10 5 31 5t31-5l125-114-28-30-132 56z"/><glyph unicode="Ï" horiz-adv-x="372" d="M342 0H30v38q40 22 81 29v566q-20 3-42 11t-39 18v38h312v-38q-18-11-39.5-18.5T261 633V67q20-4 41.5-11T342 38zM-18 793q0 32 23 48t58 16q35 0 58-16t23-48q0-28-23-43.5T63 734q-35 0-58 15.5T-18 793zm245 0q0 32 23.5 48t58.5 16q35 0 58-16t23-48q0-28-23-43.5T309 734q-35 0-58.5 15.5T227 793z"/><glyph unicode="Ð" horiz-adv-x="741" d="M22 389h85v244q-23 5-44.5 12.5T25 662v38h116q17 0 42 1t52 2.5q27 1.5 52.5 3T331 708q87 0 155.5-23t116-67q47.5-44 73-109T701 359q0-83-24-151T605 92q-48-48-121.5-74.5T311-9q-13 0-35 1.5t-47 3l-50 3Q154 0 135 0H25v38q17 10 38 17.5T107 67v262H22zm296 254q-18 0-36-1t-31-3V389h153v-60H251V60q4-1 14-1.5t20.5-1 20.5-1q10-.5 15-.5 58 0 98.5 24t66.5 65q26 41 38 96t12 117q0 55-12.5 106T485 555q-26 40-67.5 64T318 643z"/><glyph unicode="Ñ" horiz-adv-x="758" d="M490 700h248v-38q-19-15-42-26.5T653 618V-12h-85L215 498l-40 77h-3l9-80V78q20-5 44.5-16.5T267 38V0H20v38q18 12 39.5 22.5T104 78v546q-20 8-40 18t-36 21v37h216l287-416 46-86h4l-5 86v334q-24 8-46.5 19.5T490 662zm66 117q-32-32-60-48.5T432 752q-19 0-35.5 5.5T364 769q-16 6-31 11.5t-31 5.5q-14 0-30.5-5.5T239 761l-28 47q76 68 135 68 18 0 34.5-5t31.5-11q15-6 30-11t31-5q13 0 29 4.5t32 15.5z"/><glyph unicode="Ò" horiz-adv-x="754" d="M39 350q0 78 22 144.5t65 115Q169 658 232 685t145 27q82 0 145-27t105.5-75.5Q670 561 692 494.5T714 350q0-78-22-144.5t-64.5-115Q585 42 522 15T377-12q-82 0-145 27T126 90.5q-43 48.5-65 115T39 350zm170 0q0-64 10-118.5t31.5-94q21.5-39.5 55-62T386 53q43 0 73 22.5t49 62q19 39.5 27.5 94T544 350q0 64-9.5 118.5t-30 94q-20.5 39.5-54 62T369 647q-46 0-77-22.5t-49.5-62q-18.5-39.5-26-94T209 350zm254 414l-34-19-236 96v20q3 9 21.5 16.5t42 13q23.5 5.5 46 8t33.5-.5z"/><glyph unicode="Ó" horiz-adv-x="754" d="M39 350q0 78 22 144.5t65 115Q169 658 232 685t145 27q82 0 145-27t105.5-75.5Q670 561 692 494.5T714 350q0-78-22-144.5t-64.5-115Q585 42 522 15T377-12q-82 0-145 27T126 90.5q-43 48.5-65 115T39 350zm170 0q0-64 10-118.5t31.5-94q21.5-39.5 55-62T386 53q43 0 73 22.5t49 62q19 39.5 27.5 94T544 350q0 64-9.5 118.5t-30 94q-20.5 39.5-54 62T369 647q-46 0-77-22.5t-49.5-62q-18.5-39.5-26-94T209 350zm216 548q16 1 36.5-2t40-8.5q19.5-5.5 35-12.5t21.5-14v-20l-247-96-28 24z"/><glyph unicode="Ô" horiz-adv-x="754" d="M39 350q0 78 22 144.5t65 115Q169 658 232 685t145 27q82 0 145-27t105.5-75.5Q670 561 692 494.5T714 350q0-78-22-144.5t-64.5-115Q585 42 522 15T377-12q-82 0-145 27T126 90.5q-43 48.5-65 115T39 350zm170 0q0-64 10-118.5t31.5-94q21.5-39.5 55-62T386 53q43 0 73 22.5t49 62q19 39.5 27.5 94T544 350q0 64-9.5 118.5t-30 94q-20.5 39.5-54 62T369 647q-46 0-77-22.5t-49.5-62q-18.5-39.5-26-94T209 350zm39 393l-28 28 127 117q10 5 31 5t31-5l125-114-28-30-132 56z"/><glyph unicode="Õ" horiz-adv-x="754" d="M39 350q0 78 22 144.5t65 115Q169 658 232 685t145 27q82 0 145-27t105.5-75.5Q670 561 692 494.5T714 350q0-78-22-144.5t-64.5-115Q585 42 522 15T377-12q-82 0-145 27T126 90.5q-43 48.5-65 115T39 350zm170 0q0-64 10-118.5t31.5-94q21.5-39.5 55-62T386 53q43 0 73 22.5t49 62q19 39.5 27.5 94T544 350q0 64-9.5 118.5t-30 94q-20.5 39.5-54 62T369 647q-46 0-77-22.5t-49.5-62q-18.5-39.5-26-94T209 350zm341 467q-32-32-60-48.5T426 752q-19 0-35.5 5.5T358 769q-16 6-31 11.5t-31 5.5q-14 0-30.5-5.5T233 761l-28 47q76 68 135 68 18 0 34.5-5t31.5-11q15-6 30-11t31-5q13 0 29 4.5t32 15.5z"/><glyph unicode="Ö" horiz-adv-x="754" d="M39 350q0 78 22 144.5t65 115Q169 658 232 685t145 27q82 0 145-27t105.5-75.5Q670 561 692 494.5T714 350q0-78-22-144.5t-64.5-115Q585 42 522 15T377-12q-82 0-145 27T126 90.5q-43 48.5-65 115T39 350zm170 0q0-64 10-118.5t31.5-94q21.5-39.5 55-62T386 53q43 0 73 22.5t49 62q19 39.5 27.5 94T544 350q0 64-9.5 118.5t-30 94q-20.5 39.5-54 62T369 647q-46 0-77-22.5t-49.5-62q-18.5-39.5-26-94T209 350zm-36 443q0 32 23 48t58 16q35 0 58-16t23-48q0-28-23-43.5T254 734q-35 0-58 15.5T173 793zm245 0q0 32 23.5 48t58.5 16q35 0 58-16t23-48q0-28-23-43.5T500 734q-35 0-58.5 15.5T418 793z"/><glyph unicode="×" horiz-adv-x="565" d="M94 213l130 131L96 473l56 56 129-128 131 130 56-56-130-131 133-133-57-57-133 133-131-130z"/><glyph unicode="Ø" horiz-adv-x="754" d="M39 350q0 78 22 144.5t65 115Q169 658 232 685t145 27q48 0 89-10t76-28l27 44 63-39-29-46q55-49 83-121.5T714 350q0-78-22-144.5t-64.5-115Q585 42 522 15T377-12q-48 0-88 9.5T214 24l-26-42-61 39 26 42q-57 49-85.5 122.5T39 350zm170 0q0-45 7-84.5t21-71.5l249 394q-20 28-49 43.5T369 647q-46 0-77-22.5t-49.5-62q-18.5-39.5-26-94T209 350zm335 0q0 43-6 81t-20 70L270 110q42-57 116-57 43 0 73 22.5t49 62q19 39.5 27.5 94T544 350z"/><glyph unicode="Ù" horiz-adv-x="715" d="M7 700h308v-38q-33-21-76-29V248q0-49 11-82t32-53.5Q303 92 332.5 83t66.5-9q33 0 60.5 9.5t48 30.5q20.5 21 31.5 55t11 84v375q-23 5-47.5 14T462 662v38h248v-38q-18-13-40-21t-43-13V252q0-128-67.5-194.5T369-9Q235-9 162 51T89 243v390q-20 3-42 10.5T7 662zm445 64l-34-19-236 96v20q3 9 21.5 16.5t42 13q23.5 5.5 46 8t33.5-.5z"/><glyph unicode="Ú" horiz-adv-x="715" d="M7 700h308v-38q-33-21-76-29V248q0-49 11-82t32-53.5Q303 92 332.5 83t66.5-9q33 0 60.5 9.5t48 30.5q20.5 21 31.5 55t11 84v375q-23 5-47.5 14T462 662v38h248v-38q-18-13-40-21t-43-13V252q0-128-67.5-194.5T369-9Q235-9 162 51T89 243v390q-20 3-42 10.5T7 662zm492 198q16 1 36.5-2t40-8.5q19.5-5.5 35-12.5t21.5-14v-20l-247-96-28 24z"/><glyph unicode="Û" horiz-adv-x="715" d="M7 700h308v-38q-33-21-76-29V248q0-49 11-82t32-53.5Q303 92 332.5 83t66.5-9q33 0 60.5 9.5t48 30.5q20.5 21 31.5 55t11 84v375q-23 5-47.5 14T462 662v38h248v-38q-18-13-40-21t-43-13V252q0-128-67.5-194.5T369-9Q235-9 162 51T89 243v390q-20 3-42 10.5T7 662zm256 43l-28 28 127 117q10 5 31 5t31-5l125-114-28-30-132 56z"/><glyph unicode="Ü" horiz-adv-x="715" d="M7 700h308v-38q-33-21-76-29V248q0-49 11-82t32-53.5Q303 92 332.5 83t66.5-9q33 0 60.5 9.5t48 30.5q20.5 21 31.5 55t11 84v375q-23 5-47.5 14T462 662v38h248v-38q-18-13-40-21t-43-13V252q0-128-67.5-194.5T369-9Q235-9 162 51T89 243v390q-20 3-42 10.5T7 662zm179 93q0 32 23 48t58 16q35 0 58-16t23-48q0-28-23-43.5T267 734q-35 0-58 15.5T186 793zm245 0q0 32 23.5 48t58.5 16q35 0 58-16t23-48q0-28-23-43.5T513 734q-35 0-58.5 15.5T431 793z"/><glyph unicode="Ý" horiz-adv-x="698" d="M453 700h245v-38q-15-9-33.5-17.5T627 633L433 293V67q20-2 39.5-10.5T509 38V0H201v38q17 9 38 17t44 12v225L81 633q-23 4-43.5 12T0 662v38h328v-38q-14-8-32-16t-42-13l143-268 136 268q-23 5-44 13t-36 16zm41 198q16 1 36.5-2t40-8.5q19.5-5.5 35-12.5t21.5-14v-20l-247-96-28 24z"/><glyph unicode="Þ" horiz-adv-x="636" d="M252 63q27-3 53.5-11.5T353 33V0H20v33q19 11 40.5 18T102 62v576q-20 3-42 11t-39 18v33h312v-33q-18-11-39.5-18.5T252 638v-45q20 2 44 3.5t43 1.5q53 0 101.5-10.5t86-34.5q37.5-24 59.5-63.5t22-98.5q0-56-22.5-97t-61-68Q486 199 436 185.5T332 172h-16q-11 0-23.5.5t-24 1Q257 174 252 175zm54 470q-20 0-31.5-1.5T252 527V241q9-3 27-3.5t29-.5q27 0 51 8.5t43 26.5q19 18 30 46t11 68q0 75-36.5 111T306 533z"/><glyph unicode="ß" horiz-adv-x="701" d="M458 584q0 51-28 81t-71 30q-22 0-43-5t-37-21.5q-16-16.5-26-48T243 537V0H33v39q31 18 66 24v374H23v39q35 22 76 33v35q0 62 25.5 102.5t64 64q38.5 23.5 84 32.5t86.5 9q115 0 173-48.5T592 575q-30-5-58-13.5t-49.5-23Q463 524 450 503t-13-51q0-31 17.5-54.5T499 353q27-21 57.5-41.5T614 266q27-25 44.5-56t17.5-72q0-70-52.5-110T470-12q-48 0-96.5 10T288 26q2 30 10 53.5t19 40.5h34l69-66q11-6 22-7.5t23-1.5q32 0 54.5 17t22.5 47q0 29-17.5 50.5T480 201q-27 20-57.5 40T365 286q-27 25-44.5 57T303 420q0 60 43 101.5T458 584z"/><glyph unicode="à" horiz-adv-x="557" d="M470 145q0-22 .5-38t2.5-34l69-10V28q-12-6-32.5-12t-43-11.5Q444-1 422-4.5T383-10h-34q-10 23-12 46t-3 56h-5q-5-20-17-38.5t-30.5-33Q263 6 238-3t-56-9q-33 0-61 10T72 26Q51 44 39 69.5T27 127q0 45 17 74t53.5 47.5q36.5 18.5 94 27.5T331 289q8 86-7 126t-65 40q-31 0-57-10l-47-120h-44q-8 12-15.5 27.5t-14 33Q75 403 70.5 421T64 456q38 26 98 41t127 15q57 0 93-12.5t56.5-34Q459 444 467 415t8-62q0-60-2.5-108.5T470 145zM245 68q21 0 36 8t25.5 19q10.5 11 16 24t8.5 23v100q-47-1-77-6t-47-16.5q-17-11.5-23.5-29T177 148q0-38 18-59t50-21zm109 521l-45-22-186 145v29q6 6 26 11.5t42.5 8.5q22.5 3 42.5 3.5t27-1.5z"/><glyph unicode="á" horiz-adv-x="557" d="M470 145q0-22 .5-38t2.5-34l69-10V28q-12-6-32.5-12t-43-11.5Q444-1 422-4.5T383-10h-34q-10 23-12 46t-3 56h-5q-5-20-17-38.5t-30.5-33Q263 6 238-3t-56-9q-33 0-61 10T72 26Q51 44 39 69.5T27 127q0 45 17 74t53.5 47.5q36.5 18.5 94 27.5T331 289q8 86-7 126t-65 40q-31 0-57-10l-47-120h-44q-8 12-15.5 27.5t-14 33Q75 403 70.5 421T64 456q38 26 98 41t127 15q57 0 93-12.5t56.5-34Q459 444 467 415t8-62q0-60-2.5-108.5T470 145zM245 68q21 0 36 8t25.5 19q10.5 11 16 24t8.5 23v100q-47-1-77-6t-47-16.5q-17-11.5-23.5-29T177 148q0-38 18-59t50-21zm71 695q8 2 26.5 1.5T381 761q20-3 36.5-8.5T439 741v-24L248 562l-40 22z"/><glyph unicode="â" horiz-adv-x="557" d="M470 145q0-22 .5-38t2.5-34l69-10V28q-12-6-32.5-12t-43-11.5Q444-1 422-4.5T383-10h-34q-10 23-12 46t-3 56h-5q-5-20-17-38.5t-30.5-33Q263 6 238-3t-56-9q-33 0-61 10T72 26Q51 44 39 69.5T27 127q0 45 17 74t53.5 47.5q36.5 18.5 94 27.5T331 289q8 86-7 126t-65 40q-31 0-57-10l-47-120h-44q-8 12-15.5 27.5t-14 33Q75 403 70.5 421T64 456q38 26 98 41t127 15q57 0 93-12.5t56.5-34Q459 444 467 415t8-62q0-60-2.5-108.5T470 145zM245 68q21 0 36 8t25.5 19q10.5 11 16 24t8.5 23v100q-47-1-77-6t-47-16.5q-17-11.5-23.5-29T177 148q0-38 18-59t50-21zm-59 509l-42 25 110 186q6 5 24.5 5.5T306 788l114-185-41-26-103 98z"/><glyph unicode="ã" horiz-adv-x="557" d="M470 145q0-22 .5-38t2.5-34l69-10V28q-12-6-32.5-12t-43-11.5Q444-1 422-4.5T383-10h-34q-10 23-12 46t-3 56h-5q-5-20-17-38.5t-30.5-33Q263 6 238-3t-56-9q-33 0-61 10T72 26Q51 44 39 69.5T27 127q0 45 17 74t53.5 47.5q36.5 18.5 94 27.5T331 289q8 86-7 126t-65 40q-31 0-57-10l-47-120h-44q-8 12-15.5 27.5t-14 33Q75 403 70.5 421T64 456q38 26 98 41t127 15q57 0 93-12.5t56.5-34Q459 444 467 415t8-62q0-60-2.5-108.5T470 145zM245 68q21 0 36 8t25.5 19q10.5 11 16 24t8.5 23v100q-47-1-77-6t-47-16.5q-17-11.5-23.5-29T177 148q0-38 18-59t50-21zm184 599q-30-34-62-49.5T312 602q-18 0-34 5.5T247 619q-15 6-29.5 11.5T188 636q-13 0-26.5-4.5T132 616l-28 42q37 38 70.5 53t56.5 15q18 0 33.5-5t29.5-11q14-6 28.5-11t29.5-5q13 0 26 2.5t29 12.5z"/><glyph unicode="ä" horiz-adv-x="557" d="M470 145q0-22 .5-38t2.5-34l69-10V28q-12-6-32.5-12t-43-11.5Q444-1 422-4.5T383-10h-34q-10 23-12 46t-3 56h-5q-5-20-17-38.5t-30.5-33Q263 6 238-3t-56-9q-33 0-61 10T72 26Q51 44 39 69.5T27 127q0 45 17 74t53.5 47.5q36.5 18.5 94 27.5T331 289q8 86-7 126t-65 40q-31 0-57-10l-47-120h-44q-8 12-15.5 27.5t-14 33Q75 403 70.5 421T64 456q38 26 98 41t127 15q57 0 93-12.5t56.5-34Q459 444 467 415t8-62q0-60-2.5-108.5T470 145zM245 68q21 0 36 8t25.5 19q10.5 11 16 24t8.5 23v100q-47-1-77-6t-47-16.5q-17-11.5-23.5-29T177 148q0-38 18-59t50-21zM74 659q0 32 20 51t53 19q32 0 52.5-19t20.5-51q0-30-20.5-49T147 591q-33 0-53 19t-20 49zm239 0q0 32 20 51t52 19q33 0 53.5-19t20.5-51q0-30-20.5-49T385 591q-32 0-52 19t-20 49z"/><glyph unicode="å" horiz-adv-x="557" d="M470 145q0-22 .5-38t2.5-34l69-10V28q-12-6-32.5-12t-43-11.5Q444-1 422-4.5T383-10h-34q-10 23-12 46t-3 56h-5q-5-20-17-38.5t-30.5-33Q263 6 238-3t-56-9q-33 0-61 10T72 26Q51 44 39 69.5T27 127q0 45 17 74t53.5 47.5q36.5 18.5 94 27.5T331 289q8 86-7 126t-65 40q-31 0-57-10l-47-120h-44q-8 12-15.5 27.5t-14 33Q75 403 70.5 421T64 456q38 26 98 41t127 15q57 0 93-12.5t56.5-34Q459 444 467 415t8-62q0-60-2.5-108.5T470 145zM245 68q21 0 36 8t25.5 19q10.5 11 16 24t8.5 23v100q-47-1-77-6t-47-16.5q-17-11.5-23.5-29T177 148q0-38 18-59t50-21zm-91 611q0 41 30.5 71t87.5 30q53 0 82.5-27t29.5-71q0-42-31-70t-82-28q-58 0-87.5 26.5T154 679zm75 2q0-23 11-35t28-12q41 0 41 44 0 27-11.5 39.5T269 730q-40 0-40-49z"/><glyph unicode="æ" horiz-adv-x="823" d="M424 465q17 18 50 32.5t96 14.5q51 0 95.5-14t74-46q29.5-32 41-84T779 241H472q1-79 41-126t116-47q34 0 69 10t55 26l19-20q-8-17-25.5-34.5t-43-31Q678 5 644.5-3.5T572-12q-66 0-123 24.5T357 94q-7-21-23.5-40.5t-40-34Q270 5 241.5-3.5T182-12q-33 0-61 10T72 26Q51 44 39 69.5T27 127q0 45 16.5 74t53 47.5q36.5 18.5 94 27.5T330 289q8 86-6.5 126T259 455q-31 0-57-10l-47-120h-44q-8 12-15.5 27.5t-14 33Q75 403 70.5 421T64 456q38 26 98 41t127 15q61 0 91-13t44-34zM245 68q21 0 36 7.5T306 94q10 11 15.5 23.5T330 140v102q-47-1-76.5-6T207 219.5q-17-11.5-23.5-29T177 148q0-38 18-59t50-21zm321 387q-20 0-35.5-7t-27-25.5Q492 404 485 372.5T475 293h161q7 78-9 120t-61 42z"/><glyph unicode="ç" horiz-adv-x="484" d="M456 81q-7-20-23.5-36.5T393 15Q370 2 341.5-5T282-12l-21-56q60-3 91.5-21.5T385-144q0-29-17-50t-45-35q-28-14-63-21t-70-7v39q70 11 70 57-1 23-19.5 33T187-114L225-7Q124 8 77.5 76.5T31 250q0 127 69.5 194.5T298 512q49 0 90-10.5t68-24.5q-2-17-5.5-37.5t-8-41q-4.5-20.5-10.5-40T420 326h-49l-42 119q-7 5-15 7.5t-24 2.5q-26 0-45-9.5T212.5 413q-13.5-23-20-61t-6.5-94q0-41 9-75.5t27.5-60Q241 97 269 82.5T335 68q35 0 61 10t44 24z"/><glyph unicode="è" horiz-adv-x="537" d="M486 84q-8-17-25.5-34.5t-43-31Q392 5 358.5-3.5T286-12q-62 0-110 18.5t-80 53Q64 94 47.5 142T31 250q0 128 67 195t186 67q51 0 95.5-14t74-46q29.5-32 41-84T493 241H186q1-79 40.5-126T343 68q33 0 68.5 10t55.5 26zM280 455q-20 0-35.5-7t-27-25.5Q206 404 199 372.5T189 293h161q7 78-9 120t-61 42zm76 134l-45-22-186 145v29q6 6 26 11.5t42.5 8.5q22.5 3 42.5 3.5t27-1.5z"/><glyph unicode="é" horiz-adv-x="537" d="M486 84q-8-17-25.5-34.5t-43-31Q392 5 358.5-3.5T286-12q-62 0-110 18.5t-80 53Q64 94 47.5 142T31 250q0 128 67 195t186 67q51 0 95.5-14t74-46q29.5-32 41-84T493 241H186q1-79 40.5-126T343 68q33 0 68.5 10t55.5 26zM280 455q-20 0-35.5-7t-27-25.5Q206 404 199 372.5T189 293h161q7 78-9 120t-61 42zm28 308q8 2 26.5 1.5T373 761q20-3 36.5-8.5T431 741v-24L240 562l-40 22z"/><glyph unicode="ê" horiz-adv-x="537" d="M486 84q-8-17-25.5-34.5t-43-31Q392 5 358.5-3.5T286-12q-62 0-110 18.5t-80 53Q64 94 47.5 142T31 250q0 128 67 195t186 67q51 0 95.5-14t74-46q29.5-32 41-84T493 241H186q1-79 40.5-126T343 68q33 0 68.5 10t55.5 26zM280 455q-20 0-35.5-7t-27-25.5Q206 404 199 372.5T189 293h161q7 78-9 120t-61 42zm-97 122l-42 25 110 186q6 5 24.5 5.5T303 788l114-185-41-26-103 98z"/><glyph unicode="ë" horiz-adv-x="537" d="M486 84q-8-17-25.5-34.5t-43-31Q392 5 358.5-3.5T286-12q-62 0-110 18.5t-80 53Q64 94 47.5 142T31 250q0 128 67 195t186 67q51 0 95.5-14t74-46q29.5-32 41-84T493 241H186q1-79 40.5-126T343 68q33 0 68.5 10t55.5 26zM280 455q-20 0-35.5-7t-27-25.5Q206 404 199 372.5T189 293h161q7 78-9 120t-61 42zM83 659q0 32 20 51t53 19q32 0 52.5-19t20.5-51q0-30-20.5-49T156 591q-33 0-53 19t-20 49zm239 0q0 32 20 51t52 19q33 0 53.5-19t20.5-51q0-30-20.5-49T394 591q-32 0-52 19t-20 49z"/><glyph unicode="ì" horiz-adv-x="332" d="M307 0H31v39q15 8 31 13.5T97 63v366l-66 8v39q15 6 37.5 12t47.5 10.5q25 4.5 49 8t42 5.5h34V63q20-5 36-10.5T307 39zm-75 589l-45-22L1 712v29q6 6 26 11.5t42.5 8.5q22.5 3 42.5 3.5t27-1.5z"/><glyph unicode="í" horiz-adv-x="332" d="M307 0H31v39q15 8 31 13.5T97 63v366l-66 8v39q15 6 37.5 12t47.5 10.5q25 4.5 49 8t42 5.5h34V63q20-5 36-10.5T307 39zM189 763q8 2 26.5 1.5T254 761q20-3 36.5-8.5T312 741v-24L121 562l-40 22z"/><glyph unicode="î" horiz-adv-x="332" d="M307 0H31v39q15 8 31 13.5T97 63v366l-66 8v39q15 6 37.5 12t47.5 10.5q25 4.5 49 8t42 5.5h34V63q20-5 36-10.5T307 39zM67 577l-42 25 110 186q6 5 24.5 5.5T187 788l114-185-41-26-103 98z"/><glyph unicode="ï" horiz-adv-x="332" d="M307 0H31v39q15 8 31 13.5T97 63v366l-66 8v39q15 6 37.5 12t47.5 10.5q25 4.5 49 8t42 5.5h34V63q20-5 36-10.5T307 39zM-25 659q0 32 20 51t53 19q32 0 52.5-19t20.5-51q0-30-20.5-49T48 591q-33 0-53 19t-20 49zm239 0q0 32 20 51t52 19q33 0 53.5-19t20.5-51q0-30-20.5-49T286 591q-32 0-52 19t-20 49z"/><glyph unicode="ð" horiz-adv-x="577" d="M175 610l96 39q-25 24-54 43.5T156 724v26h97q55-17 111-62l98 40 27-56-74-31q28-31 52-69t42-82.5q18-44.5 28.5-95T548 289q0-65-16.5-120.5T482 73q-33-40-82.5-62.5T285-12q-61 0-109.5 18.5T93.5 59Q60 93 42 139.5T24 242q0 67 19.5 118t52 84.5Q128 478 169 495t84 17q51 0 80.5-17t51.5-41q-11 36-28.5 73.5T314 600l-111-46zm4-368q0-41 6.5-76t20.5-61q14-26 35-41t51-15q55 0 78 57.5T393 274q0 53-3 83t-8 43q-29 37-93 37-25 0-45-10t-34.5-33Q195 371 187 333.5t-8-91.5z"/><glyph unicode="ñ" horiz-adv-x="644" d="M632 0H367v39q13 7 25.5 12.5T422 63v235q0 63-18 98.5T340 432q-38 0-65.5-24.5T233 341V63q16-4 28.5-9.5T288 39V0H23v39q25 13 66 24v366l-66 8v39q13 6 34 11.5t45.5 10.5q24.5 5 50 8.5T199 512h34V409h1q21 42 63 72.5T399 512q39 0 70-9.5t52.5-33.5q21.5-24 33-64.5T566 302V63q40-7 66-24zM487 667q-30-34-62-49.5T370 602q-18 0-34 5.5T305 619q-15 6-29.5 11.5T246 636q-13 0-26.5-4.5T190 616l-28 42q37 38 70.5 53t56.5 15q18 0 33.5-5t29.5-11q14-6 28.5-11t29.5-5q13 0 26 2.5t29 12.5z"/><glyph unicode="ò" horiz-adv-x="594" d="M31 250q0 61 18.5 109.5t53 82.5q34.5 34 83.5 52t111 18q70 0 120.5-19.5t83-54q32.5-34.5 47.5-83T563 250q0-61-18-109.5T492.5 58q-34.5-34-84-52T297-12q-68 0-118 19.5t-83 54q-33 34.5-49 83T31 250zm155 0q0-45 5.5-82.5T211 104q14-26 38-40.5T311 49q22 0 40 10.5t31 34q13 23.5 19.5 62T408 250q0 46-5.5 83t-19 63Q370 422 347 436.5T289 451q-26 0-45-10.5t-32-34q-13-23.5-19.5-62T186 250zm189 339l-45-22-186 145v29q6 6 26 11.5t42.5 8.5q22.5 3 42.5 3.5t27-1.5z"/><glyph unicode="ó" horiz-adv-x="594" d="M31 250q0 61 18.5 109.5t53 82.5q34.5 34 83.5 52t111 18q70 0 120.5-19.5t83-54q32.5-34.5 47.5-83T563 250q0-61-18-109.5T492.5 58q-34.5-34-84-52T297-12q-68 0-118 19.5t-83 54q-33 34.5-49 83T31 250zm155 0q0-45 5.5-82.5T211 104q14-26 38-40.5T311 49q22 0 40 10.5t31 34q13 23.5 19.5 62T408 250q0 46-5.5 83t-19 63Q370 422 347 436.5T289 451q-26 0-45-10.5t-32-34q-13-23.5-19.5-62T186 250zm151 513q8 2 26.5 1.5T402 761q20-3 36.5-8.5T460 741v-24L269 562l-40 22z"/><glyph unicode="ô" horiz-adv-x="594" d="M31 250q0 61 18.5 109.5t53 82.5q34.5 34 83.5 52t111 18q70 0 120.5-19.5t83-54q32.5-34.5 47.5-83T563 250q0-61-18-109.5T492.5 58q-34.5-34-84-52T297-12q-68 0-118 19.5t-83 54q-33 34.5-49 83T31 250zm155 0q0-45 5.5-82.5T211 104q14-26 38-40.5T311 49q22 0 40 10.5t31 34q13 23.5 19.5 62T408 250q0 46-5.5 83t-19 63Q370 422 347 436.5T289 451q-26 0-45-10.5t-32-34q-13-23.5-19.5-62T186 250zm14 327l-42 25 110 186q6 5 24.5 5.5T320 788l114-185-41-26-103 98z"/><glyph unicode="õ" horiz-adv-x="594" d="M31 250q0 61 18.5 109.5t53 82.5q34.5 34 83.5 52t111 18q70 0 120.5-19.5t83-54q32.5-34.5 47.5-83T563 250q0-61-18-109.5T492.5 58q-34.5-34-84-52T297-12q-68 0-118 19.5t-83 54q-33 34.5-49 83T31 250zm155 0q0-45 5.5-82.5T211 104q14-26 38-40.5T311 49q22 0 40 10.5t31 34q13 23.5 19.5 62T408 250q0 46-5.5 83t-19 63Q370 422 347 436.5T289 451q-26 0-45-10.5t-32-34q-13-23.5-19.5-62T186 250zm273 417q-30-34-62-49.5T342 602q-18 0-34 5.5T277 619q-15 6-29.5 11.5T218 636q-13 0-26.5-4.5T162 616l-28 42q37 38 70.5 53t56.5 15q18 0 33.5-5t29.5-11q14-6 28.5-11t29.5-5q13 0 26 2.5t29 12.5z"/><glyph unicode="ö" horiz-adv-x="594" d="M31 250q0 61 18.5 109.5t53 82.5q34.5 34 83.5 52t111 18q70 0 120.5-19.5t83-54q32.5-34.5 47.5-83T563 250q0-61-18-109.5T492.5 58q-34.5-34-84-52T297-12q-68 0-118 19.5t-83 54q-33 34.5-49 83T31 250zm155 0q0-45 5.5-82.5T211 104q14-26 38-40.5T311 49q22 0 40 10.5t31 34q13 23.5 19.5 62T408 250q0 46-5.5 83t-19 63Q370 422 347 436.5T289 451q-26 0-45-10.5t-32-34q-13-23.5-19.5-62T186 250zm-81 409q0 32 20 51t53 19q32 0 52.5-19t20.5-51q0-30-20.5-49T178 591q-33 0-53 19t-20 49zm239 0q0 32 20 51t52 19q33 0 53.5-19t20.5-51q0-30-20.5-49T416 591q-32 0-52 19t-20 49z"/><glyph unicode="÷" horiz-adv-x="565" d="M57 386h450v-80H57zm140 150q0 36 23 58t61 22q38 0 62-22t24-58q0-36-24-57.5T281 457q-38 0-61 21.5T197 536zm0-381q0 36 23 58t61 22q38 0 62-22t24-58q0-36-24-57.5T281 76q-38 0-61 21.5T197 155z"/><glyph unicode="ø" horiz-adv-x="594" d="M114 44q-43 35-63 87.5T31 250q0 61 18.5 109.5t53 82.5q34.5 34 83.5 52t111 18q39 0 71.5-6.5T428 487l44 63 54-38-42-59q41-35 60-87t19-116q0-61-18-109.5T492.5 58q-34.5-34-84-52T297-12q-72 0-126 23l-48-69-53 39zm72 206q0-26 3-48.5t11-40.5l174 251q-14 20-34.5 31.5T289 455q-53 0-78-46.5T186 250zm222 0q0 47-13 82L223 83q30-38 91-38 47 0 70.5 46.5T408 250z"/><glyph unicode="ù" horiz-adv-x="622" d="M71 198q0 63 3 117t3 114l-66 8v39q16 6 39.5 12T99 498.5q25 4.5 48.5 8T187 512h34q0-75-3-147.5T215 222q0-82 16.5-118T293 68q31 0 57.5 23.5T394 167v262l-65 8v39q15 6 37.5 12t47 10.5q24.5 4.5 48.5 8t42 5.5h34V71l66-8V28q-14-6-35-12T525 4.5q-23-5.5-45.5-9T439-10h-34l-7 119h-4q-5-21-18-42.5t-33.5-39Q322 10 294-1t-62-11q-38 0-67.5 9.5T114 31Q93 55 82 95.5T71 198zm317 391l-45-22-186 145v29q6 6 26 11.5t42.5 8.5q22.5 3 42.5 3.5t27-1.5z"/><glyph unicode="ú" horiz-adv-x="622" d="M71 198q0 63 3 117t3 114l-66 8v39q16 6 39.5 12T99 498.5q25 4.5 48.5 8T187 512h34q0-75-3-147.5T215 222q0-82 16.5-118T293 68q31 0 57.5 23.5T394 167v262l-65 8v39q15 6 37.5 12t47 10.5q24.5 4.5 48.5 8t42 5.5h34V71l66-8V28q-14-6-35-12T525 4.5q-23-5.5-45.5-9T439-10h-34l-7 119h-4q-5-21-18-42.5t-33.5-39Q322 10 294-1t-62-11q-38 0-67.5 9.5T114 31Q93 55 82 95.5T71 198zm264 565q8 2 26.5 1.5T400 761q20-3 36.5-8.5T458 741v-24L267 562l-40 22z"/><glyph unicode="û" horiz-adv-x="622" d="M71 198q0 63 3 117t3 114l-66 8v39q16 6 39.5 12T99 498.5q25 4.5 48.5 8T187 512h34q0-75-3-147.5T215 222q0-82 16.5-118T293 68q31 0 57.5 23.5T394 167v262l-65 8v39q15 6 37.5 12t47 10.5q24.5 4.5 48.5 8t42 5.5h34V71l66-8V28q-14-6-35-12T525 4.5q-23-5.5-45.5-9T439-10h-34l-7 119h-4q-5-21-18-42.5t-33.5-39Q322 10 294-1t-62-11q-38 0-67.5 9.5T114 31Q93 55 82 95.5T71 198zm140 379l-42 25 110 186q6 5 24.5 5.5T331 788l114-185-41-26-103 98z"/><glyph unicode="ü" horiz-adv-x="622" d="M71 198q0 63 3 117t3 114l-66 8v39q16 6 39.5 12T99 498.5q25 4.5 48.5 8T187 512h34q0-75-3-147.5T215 222q0-82 16.5-118T293 68q31 0 57.5 23.5T394 167v262l-65 8v39q15 6 37.5 12t47 10.5q24.5 4.5 48.5 8t42 5.5h34V71l66-8V28q-14-6-35-12T525 4.5q-23-5.5-45.5-9T439-10h-34l-7 119h-4q-5-21-18-42.5t-33.5-39Q322 10 294-1t-62-11q-38 0-67.5 9.5T114 31Q93 55 82 95.5T71 198zm42 461q0 32 20 51t53 19q32 0 52.5-19t20.5-51q0-30-20.5-49T186 591q-33 0-53 19t-20 49zm239 0q0 32 20 51t52 19q33 0 53.5-19t20.5-51q0-30-20.5-49T424 591q-32 0-52 19t-20 49z"/><glyph unicode="ý" horiz-adv-x="528" d="M38 437q-15 4-27.5 10T-15 461v39h263v-38q-21-14-57-25l101-251 17-64h2l16 65 78 250q-30 6-55 24v39h193v-39q-21-14-57-24L323 0q-24-64-48-104.5T227-169q-24-24-48-33.5T131-215q-10 9-18 22.5t-14 29Q93-148 89-132t-5 30l13 24h122q9 14 15.5 30T250 0zm273 326q8 2 26.5 1.5T376 761q20-3 36.5-8.5T434 741v-24L243 562l-40 22z"/><glyph unicode="þ" horiz-adv-x="609" d="M86 669l-76 8v39q13 6 36 12t49.5 10.5q26.5 4.5 53 8T196 752h34V400h1q17 48 53.5 80T386 512q44 0 79.5-14.5t60-45q24.5-30.5 38-78T577 261q0-63-17.5-114t-50-86q-32.5-35-79-54T325-12q-34 0-53.5 4.5T230 8v-145q16-2 32-7.5t34-16.5v-39H20v39q34 16 66 24zm242-237q-34 0-60.5-24T230 334V68q16-12 34-17.5t47-5.5q57 0 84 55t27 161q0 82-20.5 126.5T328 432z"/><glyph unicode="ÿ" horiz-adv-x="528" d="M38 437q-15 4-27.5 10T-15 461v39h263v-38q-21-14-57-25l101-251 17-64h2l16 65 78 250q-30 6-55 24v39h193v-39q-21-14-57-24L323 0q-24-64-48-104.5T227-169q-24-24-48-33.5T131-215q-10 9-18 22.5t-14 29Q93-148 89-132t-5 30l13 24h122q9 14 15.5 30T250 0zm49 222q0 32 20 51t53 19q32 0 52.5-19t20.5-51q0-30-20.5-49T160 591q-33 0-53 19t-20 49zm239 0q0 32 20 51t52 19q33 0 53.5-19t20.5-51q0-30-20.5-49T398 591q-32 0-52 19t-20 49z"/><glyph unicode="Ā" horiz-adv-x="729" d="M247 0H0v38q16 10 34.5 17.5T71 67l258 645h74L654 67q20-4 40-11.5T729 38V0H416v38q19 9 41 17t42 12l-58 159H219L160 67q46-6 87-29zm-4 291h177l-65 191-19 86h-2l-22-88zm-37 488v70h324v-70z"/><glyph unicode="ā" horiz-adv-x="557" d="M470 145q0-22 .5-38t2.5-34l69-10V28q-12-6-32.5-12t-43-11.5Q444-1 422-4.5T383-10h-34q-10 23-12 46t-3 56h-5q-5-20-17-38.5t-30.5-33Q263 6 238-3t-56-9q-33 0-61 10T72 26Q51 44 39 69.5T27 127q0 45 17 74t53.5 47.5q36.5 18.5 94 27.5T331 289q8 86-7 126t-65 40q-31 0-57-10l-47-120h-44q-8 12-15.5 27.5t-14 33Q75 403 70.5 421T64 456q38 26 98 41t127 15q57 0 93-12.5t56.5-34Q459 444 467 415t8-62q0-60-2.5-108.5T470 145zM245 68q21 0 36 8t25.5 19q10.5 11 16 24t8.5 23v100q-47-1-77-6t-47-16.5q-17-11.5-23.5-29T177 148q0-38 18-59t50-21zM127 619v70h294v-70z"/><glyph unicode="Ă" horiz-adv-x="729" d="M247 0H0v38q16 10 34.5 17.5T71 67l258 645h74L654 67q20-4 40-11.5T729 38V0H416v38q19 9 41 17t42 12l-58 159H219L160 67q46-6 87-29zm-4 291h177l-65 191-19 86h-2l-22-88zm252 606q7 1 20.5-6t20.5-17q-9-22-24-42.5T476 795q-21-16-48-26t-58-10q-67 0-110 31.5T198 876q7 12 21.5 19t29.5 5q7-11 21.5-20t31.5-15q17-6 35.5-9.5T371 852q16 0 34 2t34.5 7.5q16.5 5.5 31 14T495 897z"/><glyph unicode="ă" horiz-adv-x="557" d="M470 145q0-22 .5-38t2.5-34l69-10V28q-12-6-32.5-12t-43-11.5Q444-1 422-4.5T383-10h-34q-10 23-12 46t-3 56h-5q-5-20-17-38.5t-30.5-33Q263 6 238-3t-56-9q-33 0-61 10T72 26Q51 44 39 69.5T27 127q0 45 17 74t53.5 47.5q36.5 18.5 94 27.5T331 289q8 86-7 126t-65 40q-31 0-57-10l-47-120h-44q-8 12-15.5 27.5t-14 33Q75 403 70.5 421T64 456q38 26 98 41t127 15q57 0 93-12.5t56.5-34Q459 444 467 415t8-62q0-60-2.5-108.5T470 145zM245 68q21 0 36 8t25.5 19q10.5 11 16 24t8.5 23v100q-47-1-77-6t-47-16.5q-17-11.5-23.5-29T177 148q0-38 18-59t50-21zm181 656q-9-27-23-52.5t-33.5-45Q350 607 326 595.5T274 584q-29 0-54 11t-45 30.5Q155 645 140.5 671T118 726l37 22q20-26 52-43t68-18q75-2 118 57z"/><glyph unicode="Ą" horiz-adv-x="729" d="M247 0H0v38q16 10 34.5 17.5T71 67l258 645h74L654 67q20-4 40-11.5T729 38V0h-37q-39-28-60.5-65.5T610-135q0-26 15.5-40t38.5-14q12 0 23 1t23 4v-43q-14-11-41.5-19.5T609-255q-61 0-93.5 28.5T483-157q0 27 10.5 49.5t29 41.5Q541-47 567-31t57 31H416v38q19 9 41 17t42 12l-58 159H219L160 67q46-6 87-29zm-4 291h177l-65 191-19 86h-2l-22-88z"/><glyph unicode="ą" horiz-adv-x="557" d="M470 145q0-22 .5-38t2.5-34l69-10V28q-11-7-30-12-43-24-68-61t-25-74q0-19 12.5-34.5T467-169q23 0 50 9v-46q-7-4-18.5-7.5t-24-6.5q-12.5-3-25-4.5T428-226q-69 0-101 27t-32 65q0 41 26 71.5T397-8l-22-2h-26q-10 23-12 46t-3 56h-5q-5-20-17-38.5t-30.5-33Q263 6 238-3t-56-9q-33 0-61 10T72 26Q51 44 39 69.5T27 127q0 45 17 74t53.5 47.5q36.5 18.5 94 27.5T331 289q8 86-7 126t-65 40q-31 0-57-10l-47-120h-44q-8 12-15.5 27.5t-14 33Q75 403 70.5 421T64 456q38 26 98 41t127 15q57 0 93-12.5t56.5-34Q459 444 467 415t8-62q0-60-2.5-108.5T470 145zM245 68q21 0 36 8t25.5 19q10.5 11 16 24t8.5 23v100q-47-1-77-6t-47-16.5q-17-11.5-23.5-29T177 148q0-38 18-59t50-21z"/><glyph unicode="Ć" horiz-adv-x="652" d="M540 210h41q4-16 7.5-38.5t6-48Q597 98 598 73t1-45Q564 6 511.5-3T404-12q-83 0-150.5 20.5t-115 65Q91 118 65 186.5T39 351q0 95 28.5 163.5T144 627q48 44 111.5 64.5T389 712q66 0 119.5-9.5T596 677q0-16-1.5-41t-5-52.5q-3.5-27.5-8-54T573 485h-42l-55 151q-9 5-29 8t-41 3q-41 0-77-16.5T265 578q-28-36-44-92.5T205 350q0-143 57-220t155-77q28 0 47.5 4.5T491 70zM426 898q16 1 36.5-2t40-8.5q19.5-5.5 35-12.5t21.5-14v-20l-247-96-28 24z"/><glyph unicode="ć" horiz-adv-x="484" d="M456 81q-7-20-23-36.5T394.5 15Q372 2 343.5-5T284-12q-66 0-113.5 18.5T92 59.5q-31 34.5-46 83T31 250q0 127 69.5 194.5T298 512q49 0 90-10.5t68-24.5q-2-17-5.5-37.5t-8-41q-4.5-20.5-10.5-40T420 326h-49l-42 119q-7 5-15 7.5t-24 2.5q-26 0-45-9.5T212.5 413q-13.5-23-20-61t-6.5-94q0-41 9-75.5t27.5-60Q241 97 269 82.5T335 68q35 0 61 10t44 24zM306 763q8 2 26.5 1.5T371 761q20-3 36.5-8.5T429 741v-24L238 562l-40 22z"/><glyph unicode="Ĉ" horiz-adv-x="652" d="M540 210h41q4-16 7.5-38.5t6-48Q597 98 598 73t1-45Q564 6 511.5-3T404-12q-83 0-150.5 20.5t-115 65Q91 118 65 186.5T39 351q0 95 28.5 163.5T144 627q48 44 111.5 64.5T389 712q66 0 119.5-9.5T596 677q0-16-1.5-41t-5-52.5q-3.5-27.5-8-54T573 485h-42l-55 151q-9 5-29 8t-41 3q-41 0-77-16.5T265 578q-28-36-44-92.5T205 350q0-143 57-220t155-77q28 0 47.5 4.5T491 70zM264 743l-28 28 127 117q10 5 31 5t31-5l125-114-28-30-132 56z"/><glyph unicode="ĉ" horiz-adv-x="484" d="M456 81q-7-20-23-36.5T394.5 15Q372 2 343.5-5T284-12q-66 0-113.5 18.5T92 59.5q-31 34.5-46 83T31 250q0 127 69.5 194.5T298 512q49 0 90-10.5t68-24.5q-2-17-5.5-37.5t-8-41q-4.5-20.5-10.5-40T420 326h-49l-42 119q-7 5-15 7.5t-24 2.5q-26 0-45-9.5T212.5 413q-13.5-23-20-61t-6.5-94q0-41 9-75.5t27.5-60Q241 97 269 82.5T335 68q35 0 61 10t44 24zM175 577l-42 25 110 186q6 5 24.5 5.5T295 788l114-185-41-26-103 98z"/><glyph unicode="Č" horiz-adv-x="652" d="M540 210h41q4-16 7.5-38.5t6-48Q597 98 598 73t1-45Q564 6 511.5-3T404-12q-83 0-150.5 20.5t-115 65Q91 118 65 186.5T39 351q0 95 28.5 163.5T144 627q48 44 111.5 64.5T389 712q66 0 119.5-9.5T596 677q0-16-1.5-41t-5-52.5q-3.5-27.5-8-54T573 485h-42l-55 151q-9 5-29 8t-41 3q-41 0-77-16.5T265 578q-28-36-44-92.5T205 350q0-143 57-220t155-77q28 0 47.5 4.5T491 70zm-19 692q8 0 19.5-10.5T555 871L428 759q-4-3-12-4.5t-17.5-1.5q-9.5 0-18 1.5T366 759L241 868q3 11 13.5 22.5T275 902l126-55z"/><glyph unicode="č" horiz-adv-x="484" d="M456 81q-7-20-23-36.5T394.5 15Q372 2 343.5-5T284-12q-66 0-113.5 18.5T92 59.5q-31 34.5-46 83T31 250q0 127 69.5 194.5T298 512q49 0 90-10.5t68-24.5q-2-17-5.5-37.5t-8-41q-4.5-20.5-10.5-40T420 326h-49l-42 119q-7 5-15 7.5t-24 2.5q-26 0-45-9.5T212.5 413q-13.5-23-20-61t-6.5-94q0-41 9-75.5t27.5-60Q241 97 269 82.5T335 68q35 0 61 10t44 24zm-79 711q10 0 25-9.5t17-15.5L291 586q-8-5-25-5t-27 5L113 766q1 3 7 7.5t13.5 8.5q7.5 4 15 7t12.5 3l111-93z"/><glyph unicode="Ď" horiz-adv-x="736" d="M20 0v38q17 10 38 17.5T102 67v566q-23 5-44.5 12.5T20 662v38h116q17 0 42 1t52 2.5q27 1.5 52.5 3T326 708q87 0 155.5-23t116-67q47.5-44 73-109T696 359q0-83-24-151T600 92q-48-48-121.5-74.5T306-9q-13 0-35 1.5t-47 3l-50 3Q149 0 130 0zm293 643q-18 0-36-1t-31-3V60q4-1 14-1.5t20.5-1 20.5-1q10-.5 15-.5 58 0 98.5 24t66.5 65q26 41 38 96t12 117q0 55-12.5 106T480 555q-26 40-67.5 64T313 643zm144 259q8 0 19.5-10.5T491 871L364 759q-4-3-12-4.5t-17.5-1.5q-9.5 0-18 1.5T302 759L177 868q3 11 13.5 22.5T211 902l126-55z"/><glyph unicode="ď" horiz-adv-x="599" d="M372 99q-5-22-18-42t-31-35.5Q305 6 282-3t-49-9q-99 0-150.5 62.5T31 242q0 66 18 115.5T99.5 441q32.5 34 78.5 51t102 17q18 0 30.5-1t23-2.5q10.5-1.5 20-5T375 493v176l-76 8v39q14 6 38.5 11t51.5 9.5q27 4.5 53 8.5t43 7h34V71l66-8V28q-14-7-36-13T503 4q-24-5-46.5-8.5T419-10h-34l-9 109zm-91-31q35 0 59 22t35 75v269q-13 8-32.5 13t-48.5 5q-58 0-83-52.5T186 247q0-81 22-130t73-49zm275 466q10 22 18.5 48t13.5 52q5 26 8 51t3 45l21 25q7 1 22.5-1.5t33-7Q693 742 709 736t24-13q-5-28-20.5-59.5t-37-61Q654 573 630 549.5T585 514z"/><glyph unicode="Đ" horiz-adv-x="741" d="M22 389h85v244q-23 5-44.5 12.5T25 662v38h116q17 0 42 1t52 2.5q27 1.5 52.5 3T331 708q87 0 155.5-23t116-67q47.5-44 73-109T701 359q0-83-24-151T605 92q-48-48-121.5-74.5T311-9q-13 0-35 1.5t-47 3l-50 3Q154 0 135 0H25v38q17 10 38 17.5T107 67v262H22zm296 254q-18 0-36-1t-31-3V389h153v-60H251V60q4-1 14-1.5t20.5-1 20.5-1q10-.5 15-.5 58 0 98.5 24t66.5 65q26 41 38 96t12 117q0 55-12.5 106T485 555q-26 40-67.5 64T318 643z"/><glyph unicode="đ" horiz-adv-x="599" d="M231 620h144v49l-76 8v39q14 6 38.5 11t51.5 9.5q27 4.5 53 8.5t43 7h34V620h79v-61h-79V71l66-8V28q-14-7-36-13T503 4q-24-5-46.5-8.5T419-10h-34l-9 109h-4q-5-22-18-42t-31-35.5Q305 6 282-3t-49-9q-99 0-150.5 62.5T31 242q0 66 18 115.5T99.5 441q32.5 34 78.5 51t102 17q18 0 30.5-1t23-2.5q10.5-1.5 20-5T375 493v66H231zm50-552q35 0 59 22t35 75v269q-13 8-32.5 13t-48.5 5q-58 0-83-52.5T186 247q0-81 22-130t73-49z"/><glyph unicode="Ē" horiz-adv-x="604" d="M546 700q-2-45-7-93t-13-90h-41l-46 118H252V390h122l44 77h32q5-49 5-109t-5-112h-32l-44 79H252V65h195l53 127h41q4-19 8-43t6.5-49.5q2.5-25.5 4-51.5T561 0H20v38q17 9 38 17t44 12v566q-20 4-42.5 11.5T20 662v38zm-399 79v70h324v-70z"/><glyph unicode="ē" horiz-adv-x="537" d="M486 84q-8-17-25.5-34.5t-43-31Q392 5 358.5-3.5T286-12q-62 0-110 18.5t-80 53Q64 94 47.5 142T31 250q0 128 67 195t186 67q51 0 95.5-14t74-46q29.5-32 41-84T493 241H186q1-79 40.5-126T343 68q33 0 68.5 10t55.5 26zM280 455q-20 0-35.5-7t-27-25.5Q206 404 199 372.5T189 293h161q7 78-9 120t-61 42zM129 619v70h294v-70z"/><glyph unicode="Ė" horiz-adv-x="604" d="M546 700q-2-45-7-93t-13-90h-41l-46 118H252V390h122l44 77h32q5-49 5-109t-5-112h-32l-44 79H252V65h195l53 127h41q4-19 8-43t6.5-49.5q2.5-25.5 4-51.5T561 0H20v38q17 9 38 17t44 12v566q-20 4-42.5 11.5T20 662v38zM218 819q0 32 23 49t68 17q45 0 67-17t22-49q0-31-22-48t-67-17q-45 0-68 17t-23 48z"/><glyph unicode="ė" horiz-adv-x="537" d="M486 84q-8-17-25.5-34.5t-43-31Q392 5 358.5-3.5T286-12q-62 0-110 18.5t-80 53Q64 94 47.5 142T31 250q0 128 67 195t186 67q51 0 95.5-14t74-46q29.5-32 41-84T493 241H186q1-79 40.5-126T343 68q33 0 68.5 10t55.5 26zM280 455q-20 0-35.5-7t-27-25.5Q206 404 199 372.5T189 293h161q7 78-9 120t-61 42zm-96 209q0 35 24 55t62 20q38 0 62-20t24-55q0-34-24-54t-62-20q-38 0-62 20t-24 54z"/><glyph unicode="Ę" horiz-adv-x="604" d="M546 700q-2-45-7-93t-13-90h-41l-46 118H252V390h122l44 77h32q5-49 5-109t-5-112h-32l-44 79H252V65h195l53 127h41q4-13 7.5-38.5t6-54.5q2.5-29 4-56T561 0h-38q-39-28-60.5-65.5T441-135q0-26 16-40t38-14q12 0 23 1t23 4v-43q-14-11-41-19.5t-59-8.5q-61 0-94 28.5T314-157q0 55 40 91.5T456 0H20v38q17 9 38 17t44 12v566q-20 4-42.5 11.5T20 662v38z"/><glyph unicode="ę" horiz-adv-x="537" d="M486 84q-10-20-32-40t-54-34q-39-23-61-58.5T317-119q0-19 12-34.5t36-15.5q23 0 50 9v-46q-7-4-18.5-7.5t-24-6.5q-12.5-3-25-4.5T326-226q-69 0-101 27t-32 65q0 39 24 69t69 53q-62 0-109.5 18.5T96.5 59q-32.5 34-49 82.5T31 250q0 128 67 195t186 67q51 0 95.5-14t74-46q29.5-32 41-84T493 241H186q1-79 40.5-126T343 68q33 0 68.5 10t55.5 26zM280 455q-20 0-35.5-7t-27-25.5Q206 404 199 372.5T189 293h161q7 78-9 120t-61 42z"/><glyph unicode="Ě" horiz-adv-x="604" d="M546 700q-2-45-7-93t-13-90h-41l-46 118H252V390h122l44 77h32q5-49 5-109t-5-112h-32l-44 79H252V65h195l53 127h41q4-19 8-43t6.5-49.5q2.5-25.5 4-51.5T561 0H20v38q17 9 38 17t44 12v566q-20 4-42.5 11.5T20 662v38zM432 902q8 0 19.5-10.5T466 871L339 759q-4-3-12-4.5t-17.5-1.5q-9.5 0-18 1.5T277 759L152 868q3 11 13.5 22.5T186 902l126-55z"/><glyph unicode="ě" horiz-adv-x="537" d="M486 84q-8-17-25.5-34.5t-43-31Q392 5 358.5-3.5T286-12q-62 0-110 18.5t-80 53Q64 94 47.5 142T31 250q0 128 67 195t186 67q51 0 95.5-14t74-46q29.5-32 41-84T493 241H186q1-79 40.5-126T343 68q33 0 68.5 10t55.5 26zM280 455q-20 0-35.5-7t-27-25.5Q206 404 199 372.5T189 293h161q7 78-9 120t-61 42zm105 337q10 0 25-9.5t17-15.5L299 586q-8-5-25-5t-27 5L121 766q1 3 7 7.5t13.5 8.5q7.5 4 15 7t12.5 3l111-93z"/><glyph unicode="Ĝ" horiz-adv-x="709" d="M636 44q-20-10-49-20T526 6q-32-8-64-13t-57-5q-86 0-153.5 22.5t-115 68Q89 124 64 192T39 350q0 98 30.5 166.5t81 112Q201 672 265 692t131 20q66 0 124-9t92-26q0-15-1.5-38.5T606 588q-3-27-7.5-54T588 485h-41l-56 152q-11 5-33 7.5t-44 2.5q-41 0-79-16t-67-51.5q-29-35.5-46-92T205 350q0-66 15.5-120.5T264 136q28-39 67-61t86-22q15 0 31 2.5t30 6.5q14 4 24.5 9t14.5 9v188q-26 2-49 10t-43 19v38h273v-38q-9-9-24-16.5T636 268zM278 743l-28 28 127 117q10 5 31 5t31-5l125-114-28-30-132 56z"/><glyph unicode="ĝ" horiz-adv-x="564" d="M264 512q65 0 108-13.5t65-33.5q47 51 108 71 7-5 14-14.5t12-20.5q5-11 8-22t3-18l-13-24H464q11-14 20.5-36.5T494 347q0-33-14-62t-42.5-51.5Q409 211 365.5 198T264 185q-17 0-30.5.5T210 188q-4-6-8.5-14.5T197 157q0-17 24-27t61-18q37-8 79.5-18T441 67.5q37-16.5 62-43T529-44q1-40-20-71t-57.5-52.5q-36.5-21.5-86-33T260-212q-66 0-112.5 10.5T72-173q-29 18-42.5 41T16-84q0 28 11 48T58-1q20 15 46.5 25T163 42q-15 4-29 10t-25 14.5q-11 8.5-18 20T84 113q0 13 8 25.5t21 23q13 10.5 28 19t30 14.5q-63 14-100 54.5T34 353q0 75 62 117t168 42zM390-76q0 27-16.5 43.5T331-5.5q-26 10.5-58.5 18T208 30q-26-20-37-40t-11-48q0-46 31.5-71.5T280-155q56 0 83 23.5T390-76zM178 348q0-52 17.5-79t68.5-27q49 0 67.5 27.5T350 348q0 54-19 80.5T264 455q-50 0-68-26t-18-81zm-11 229l-42 25 110 186q6 5 24.5 5.5T287 788l114-185-41-26-103 98z"/><glyph unicode="Ğ" horiz-adv-x="709" d="M636 44q-20-10-49-20T526 6q-32-8-64-13t-57-5q-86 0-153.5 22.5t-115 68Q89 124 64 192T39 350q0 98 30.5 166.5t81 112Q201 672 265 692t131 20q66 0 124-9t92-26q0-15-1.5-38.5T606 588q-3-27-7.5-54T588 485h-41l-56 152q-11 5-33 7.5t-44 2.5q-41 0-79-16t-67-51.5q-29-35.5-46-92T205 350q0-66 15.5-120.5T264 136q28-39 67-61t86-22q15 0 31 2.5t30 6.5q14 4 24.5 9t14.5 9v188q-26 2-49 10t-43 19v38h273v-38q-9-9-24-16.5T636 268zM536 897q7 1 20.5-6t20.5-17q-9-22-24-42.5T517 795q-21-16-48-26t-58-10q-67 0-110 31.5T239 876q7 12 21.5 19t29.5 5q7-11 21.5-20t31.5-15q17-6 35.5-9.5T412 852q16 0 34 2t34.5 7.5q16.5 5.5 31 14T536 897z"/><glyph unicode="ğ" horiz-adv-x="564" d="M264 512q65 0 108-13.5t65-33.5q47 51 108 71 7-5 14-14.5t12-20.5q5-11 8-22t3-18l-13-24H464q11-14 20.5-36.5T494 347q0-33-14-62t-42.5-51.5Q409 211 365.5 198T264 185q-17 0-30.5.5T210 188q-4-6-8.5-14.5T197 157q0-17 24-27t61-18q37-8 79.5-18T441 67.5q37-16.5 62-43T529-44q1-40-20-71t-57.5-52.5q-36.5-21.5-86-33T260-212q-66 0-112.5 10.5T72-173q-29 18-42.5 41T16-84q0 28 11 48T58-1q20 15 46.5 25T163 42q-15 4-29 10t-25 14.5q-11 8.5-18 20T84 113q0 13 8 25.5t21 23q13 10.5 28 19t30 14.5q-63 14-100 54.5T34 353q0 75 62 117t168 42zM390-76q0 27-16.5 43.5T331-5.5q-26 10.5-58.5 18T208 30q-26-20-37-40t-11-48q0-46 31.5-71.5T280-155q56 0 83 23.5T390-76zM178 348q0-52 17.5-79t68.5-27q49 0 67.5 27.5T350 348q0 54-19 80.5T264 455q-50 0-68-26t-18-81zm241 376q-9-27-23-52.5t-33.5-45Q343 607 319 595.5T267 584q-29 0-54 11t-45 30.5Q148 645 133.5 671T111 726l37 22q20-26 52-43t68-18q75-2 118 57z"/><glyph unicode="Ģ" horiz-adv-x="709" d="M636 44q-20-10-49-20T526 6q-32-8-64-13t-57-5q-86 0-153.5 22.5t-115 68Q89 124 64 192T39 350q0 98 30.5 166.5t81 112Q201 672 265 692t131 20q66 0 124-9t92-26q0-15-1.5-38.5T606 588q-3-27-7.5-54T588 485h-41l-56 152q-11 5-33 7.5t-44 2.5q-41 0-79-16t-67-51.5q-29-35.5-46-92T205 350q0-66 15.5-120.5T264 136q28-39 67-61t86-22q15 0 31 2.5t30 6.5q14 4 24.5 9t14.5 9v188q-26 2-49 10t-43 19v38h273v-38q-9-9-24-16.5T636 268zM303-231q23 6 40.5 21.5T360-172q-12 11-34 20t-42 13q-6 16-2 33t14 30.5q10 13.5 24 23T349-41q21-1 41.5-7T427-66q16-12 26-30t10-43q0-52-41-88.5T316-273z"/><glyph unicode="ģ" horiz-adv-x="564" d="M264 512q65 0 108-13.5t65-33.5q47 51 108 71 7-5 14-14.5t12-20.5q5-11 8-22t3-18l-13-24H464q11-14 20.5-36.5T494 347q0-33-14-62t-42.5-51.5Q409 211 365.5 198T264 185q-17 0-30.5.5T210 188q-4-6-8.5-14.5T197 157q0-17 24-27t61-18q37-8 79.5-18T441 67.5q37-16.5 62-43T529-44q1-40-20-71t-57.5-52.5q-36.5-21.5-86-33T260-212q-66 0-112.5 10.5T72-173q-29 18-42.5 41T16-84q0 28 11 48T58-1q20 15 46.5 25T163 42q-15 4-29 10t-25 14.5q-11 8.5-18 20T84 113q0 13 8 25.5t21 23q13 10.5 28 19t30 14.5q-63 14-100 54.5T34 353q0 75 62 117t168 42zM390-76q0 27-16.5 43.5T331-5.5q-26 10.5-58.5 18T208 30q-26-20-37-40t-11-48q0-46 31.5-71.5T280-155q56 0 83 23.5T390-76zM178 348q0-52 17.5-79t68.5-27q49 0 67.5 27.5T350 348q0 54-19 80.5T264 455q-50 0-68-26t-18-81zm152 406q-30-8-43-26t-13-35q11-12 30.5-19t39.5-14q5-16 1-32t-13-29q-9-13-21.5-22T284 566q-19 0-37.5 6t-32 17q-13.5 11-22 28t-8.5 41q0 24 9 47.5t26 42q17 18.5 42 31.5t58 17z"/><glyph unicode="Ĥ" horiz-adv-x="769" d="M323 0H20v38q17 9 39.5 17T102 67v566q-24 4-46 12t-36 17v38h303v-38q-15-10-33.5-18T252 633V391h265v242q-22 4-39.5 12T446 662v38h303v-38q-17-11-39-18t-43-11V67q23-4 44.5-12T749 38V0H446v38q15 9 33 17t38 12v259H252V67q20-4 37-11t34-18zm-68 743l-28 28 127 117q10 5 31 5t31-5l125-114-28-30-132 56z"/><glyph unicode="ĥ" horiz-adv-x="640" d="M628 0H363v39q12 7 25 13t30 11v202q0 86-16.5 126.5T337 432q-40 0-68-27.5T229 341V63q16-4 28.5-9T284 39V0H19v39q31 16 66 24v606l-76 8v39q15 6 38.5 12T97 738.5q26 4.5 52 8t46 5.5h34V399h1q10 23 27 43.5t38.5 36Q317 494 342 503t53 9q40 0 71.5-9.5T519 469q21-24 32-64.5T562 302V63q17-4 34-9t32-15zM13 753l-28 28 127 117q10 5 31 5t31-5l125-114-28-30-132 56z"/><glyph unicode="Ħ" horiz-adv-x="769" d="M26 561h76v72q-24 4-46 12t-36 17v38h303v-38q-15-10-33.5-18T252 633v-72h265v72q-22 4-39.5 12T446 662v38h303v-38q-17-11-39-18t-43-11v-72h76v-63h-76V67q23-4 44.5-12T749 38V0H446v38q15 9 33 17t38 12v259H252V67q20-4 37-11t34-18V0H20v38q17 9 39.5 17T102 67v431H26zm491-170v107H252V391z"/><glyph unicode="ħ" horiz-adv-x="640" d="M7 620h78v49l-76 8v39q15 6 38.5 12T97 738.5q26 4.5 52 8t46 5.5h34V620h155v-61H229V399h1q10 23 27 43.5t38.5 36Q317 494 342 503t53 9q40 0 71.5-9.5T519 469q21-24 32-64.5T562 302V63q17-4 34-9t32-15V0H363v39q12 7 25 13t30 11v202q0 86-16.5 126.5T337 432q-40 0-68-27.5T229 341V63q16-4 28.5-9T284 39V0H19v39q31 16 66 24v496H7z"/><glyph unicode="Ī" horiz-adv-x="372" d="M342 0H30v38q40 22 81 29v566q-20 3-42 11t-39 18v38h312v-38q-18-11-39.5-18.5T261 633V67q20-4 41.5-11T342 38zM24 779v70h324v-70z"/><glyph unicode="ī" horiz-adv-x="332" d="M307 0H31v39q15 8 31 13.5T97 63v366l-66 8v39q15 6 37.5 12t47.5 10.5q25 4.5 49 8t42 5.5h34V63q20-5 36-10.5T307 39zM18 619v70h294v-70z"/><glyph unicode="Į" horiz-adv-x="372" d="M342 0h-36q-39-28-60.5-65.5T224-135q0-26 15.5-40t38.5-14q12 0 23 1t23 4v-43q-14-11-41.5-19.5T223-255q-61 0-93.5 28.5T97-157q0 27 10.5 49.5t29 41.5Q155-47 181-31t57 31H30v38q40 22 81 29v566q-20 3-42 11t-39 18v38h312v-38q-18-11-39.5-18.5T261 633V67q20-4 41.5-11T342 38z"/><glyph unicode="į" horiz-adv-x="357" d="M317 0h-35q-32-24-50-56t-18-63q0-19 12-34.5t36-15.5q23 0 50 9v-46q-7-4-18.5-7.5t-24-6.5q-12.5-3-25-4.5T223-226q-69 0-101 27t-32 65q0 45 30.5 77T209 0H41v39q15 8 31 13.5T107 63v366l-66 8v39q15 6 37.5 12t47.5 10.5q25 4.5 49 8t42 5.5h34V63q20-5 36-10.5T317 39zM93 663q0 34 23 53.5t60 19.5q37 0 60.5-19.5T260 663q0-34-23.5-53.5T176 590q-37 0-60 19.5T93 663z"/><glyph unicode="İ" horiz-adv-x="372" d="M342 0H30v38q40 22 81 29v566q-20 3-42 11t-39 18v38h312v-38q-18-11-39.5-18.5T261 633V67q20-4 41.5-11T342 38zM96 819q0 32 23 49t68 17q45 0 67-17t22-49q0-31-22-48t-67-17q-45 0-68 17t-23 48z"/><glyph unicode="ı" horiz-adv-x="332" d="M307 0H31v39q15 8 31 13.5T97 63v366l-66 8v39q15 6 37.5 12t47.5 10.5q25 4.5 49 8t42 5.5h34V63q20-5 36-10.5T307 39z"/><glyph unicode="Ĵ" horiz-adv-x="365" d="M27 700h308v-38q-16-10-36-18t-40-11V121q0-82-24.5-134.5t-58-83Q143-127 108-141t-57-19l-19 26q15 12 29 30.5T85.5-56q10.5 29 17 70.5T109 115v518q-22 5-43.5 11.5T27 662zm27 43l-28 28 127 117q10 5 31 5t31-5l125-114-28-30-132 56z"/><glyph unicode="ĵ" horiz-adv-x="320" d="M97 429l-66 8v39q15 7 37 13t47 10.5q25 4.5 49.5 7.5t42.5 5h34V43q0-47-11.5-84t-30-64q-18.5-27-41-46t-44-31.5Q93-195 75-202t-28-10l-20 30q12 6 24 19.5T73.5-125q10.5 24 17 60.5T97 24zM70 577l-42 25 110 186q6 5 24.5 5.5T190 788l114-185-41-26-103 98z"/><glyph unicode="Ķ" horiz-adv-x="710" d="M399 700h268v-38q-17-11-39-18.5T588 633L398 392q23-32 54-72.5t66-84q35-43.5 72-88T662 63l48-29V0H536l-40 28q-24 30-50.5 66.5t-52.5 76Q367 210 342 250t-47 78h-43V67q22-4 40-12t31-17V0H20v38q20 10 41 17.5T102 67v566q-23 3-44.5 11T20 662v38h303v-38q-13-8-31.5-16T252 633V379l59 14 161 240q-20 4-39.5 12.5T399 662zM265-231q23 6 40.5 21.5T322-172q-12 11-34 20t-42 13q-6 16-2 33t14 30.5q10 13.5 24 23T311-41q21-1 41.5-7T389-66q16-12 26-30t10-43q0-52-41-88.5T278-273z"/><glyph unicode="ķ" horiz-adv-x="583" d="M322 500h234v-39q-19-8-35.5-14T484 437q-15-20-32.5-39.5t-35-37.5Q399 342 383 325.5T354 296q15-20 35-48t43-59.5q23-31.5 48.5-64T532 63l51-24V0H414l-27 24q-23 31-40.5 58T315 134q-14 25-27 48.5T262 229l-33 10V63q17-3 31-9t30-15V0H19v39q33 16 66 24v606l-76 8v39q14 6 38 12t51 10.5q27 4.5 53 8t44 5.5h34V283h26q33 35 61.5 77t50.5 77q-13 4-23.5 10T322 461zM207-230q30 8 43 26t13 35q-11 12-30.5 19T193-136q-5 16-1 32t13 29q9 13 21.5 22T253-42q19 0 37.5-6t32-17q13.5-11 22-28t8.5-41q0-24-9-47.5t-26-42Q301-242 276-255t-58-17z"/><glyph unicode="Ĺ" horiz-adv-x="583" d="M20 700h328v-38q-21-11-46.5-18.5T252 633V65h193l67 179h41q4-23 7.5-54t5.5-65q2-34 3-67t0-58H20v38q23 12 43.5 19T102 67v566q-49 8-82 29zm272 198q16 1 36.5-2t40-8.5q19.5-5.5 35-12.5t21.5-14v-20l-247-96-28 24z"/><glyph unicode="ĺ" horiz-adv-x="332" d="M307 0H31v39q33 16 66 24v606l-76 8v39q13 6 36 12t49.5 10.5q26.5 4.5 53 8T207 752h34V63q33-8 66-24zm-91 908q16 1 36.5-2t40-8.5q19.5-5.5 35-12.5t21.5-14v-20l-247-96-28 24z"/><glyph unicode="Ļ" horiz-adv-x="583" d="M20 700h328v-38q-21-11-46.5-18.5T252 633V65h193l67 179h41q4-23 7.5-54t5.5-65q2-34 3-67t0-58H20v38q23 12 43.5 19T102 67v566q-49 8-82 29zm212-931q23 6 40.5 21.5T289-172q-12 11-34 20t-42 13q-6 16-2 33t14 30.5q10 13.5 24 23T278-41q21-1 41.5-7T356-66q16-12 26-30t10-43q0-52-41-88.5T245-273z"/><glyph unicode="ļ" horiz-adv-x="332" d="M307 0H31v39q33 16 66 24v606l-76 8v39q13 6 36 12t49.5 10.5q26.5 4.5 53 8T207 752h34V63q33-8 66-24zM116-230q30 8 43 26t13 35q-11 12-30.5 19T102-136q-5 16-1 32t13 29q9 13 21.5 22T162-42q19 0 37.5-6t32-17q13.5-11 22-28t8.5-41q0-24-9-47.5t-26-42Q210-242 185-255t-58-17z"/><glyph unicode="Ľ" horiz-adv-x="583" d="M20 700h328v-38q-21-11-46.5-18.5T252 633V65h193l67 179h41q4-23 7.5-54t5.5-65q2-34 3-67t0-58H20v38q23 12 43.5 19T102 67v566q-49 8-82 29zm358-209q10 22 18.5 49t14 54.5q5.5 27.5 8 52.5t2.5 45l21 25q13 0 32.5-3.5T513 704q19-6 34.5-14t22.5-15q-3-26-20-57.5T509 557q-24-29-51-52.5T407 471z"/><glyph unicode="ľ" horiz-adv-x="332" d="M307 0H31v39q33 16 66 24v606l-76 8v39q13 6 36 12t49.5 10.5q26.5 4.5 53 8T207 752h34V63q33-8 66-24zm-30 534q10 22 18.5 48t13.5 52q5 26 8 51t3 45l21 25q7 1 22.5-1.5t33-7Q414 742 430 736t24-13q-5-28-20.5-59.5t-37-61Q375 573 351 549.5T306 514z"/><glyph unicode="Ł" horiz-adv-x="583" d="M20 700h328v-38q-21-11-46.5-18.5T252 633V419l115 71v-79l-115-71V65h193l67 179h41q4-23 7.5-54t5.5-65q2-34 3-67t0-58H20v38q23 12 43.5 19T102 67v181l-82-50v79l82 50v306q-49 8-82 29z"/><glyph unicode="ł" horiz-adv-x="352" d="M23 295l84 51v323l-76 8v39q13 6 36 12t49.5 10.5q26.5 4.5 53 8T217 752h34V433l80 49v-79l-80-49V63q33-8 66-24V0H41v39q33 16 66 24v204l-84-51z"/><glyph unicode="Ń" horiz-adv-x="758" d="M490 700h248v-38q-19-15-42-26.5T653 618V-12h-85L215 498l-40 77h-3l9-80V78q20-5 44.5-16.5T267 38V0H20v38q18 12 39.5 22.5T104 78v546q-20 8-40 18t-36 21v37h216l287-416 46-86h4l-5 86v334q-24 8-46.5 19.5T490 662zm-33 198q16 1 36.5-2t40-8.5q19.5-5.5 35-12.5t21.5-14v-20l-247-96-28 24z"/><glyph unicode="ń" horiz-adv-x="644" d="M632 0H367v39q13 7 25.5 12.5T422 63v235q0 63-18 98.5T340 432q-38 0-65.5-24.5T233 341V63q16-4 28.5-9.5T288 39V0H23v39q25 13 66 24v366l-66 8v39q13 6 34 11.5t45.5 10.5q24.5 5 50 8.5T199 512h34V409h1q21 42 63 72.5T399 512q39 0 70-9.5t52.5-33.5q21.5-24 33-64.5T566 302V63q40-7 66-24zM375 763q8 2 26.5 1.5T440 761q20-3 36.5-8.5T498 741v-24L307 562l-40 22z"/><glyph unicode="Ņ" horiz-adv-x="758" d="M490 700h248v-38q-19-15-42-26.5T653 618V-12h-85L215 498l-40 77h-3l9-80V78q20-5 44.5-16.5T267 38V0H20v38q18 12 39.5 22.5T104 78v546q-20 8-40 18t-36 21v37h216l287-416 46-86h4l-5 86v334q-24 8-46.5 19.5T490 662zM316-231q23 6 40.5 21.5T373-172q-12 11-34 20t-42 13q-6 16-2 33t14 30.5q10 13.5 24 23T362-41q21-1 41.5-7T440-66q16-12 26-30t10-43q0-52-41-88.5T329-273z"/><glyph unicode="ņ" horiz-adv-x="644" d="M632 0H367v39q13 7 25.5 12.5T422 63v235q0 63-18 98.5T340 432q-38 0-65.5-24.5T233 341V63q16-4 28.5-9.5T288 39V0H23v39q25 13 66 24v366l-66 8v39q13 6 34 11.5t45.5 10.5q24.5 5 50 8.5T199 512h34V409h1q21 42 63 72.5T399 512q39 0 70-9.5t52.5-33.5q21.5-24 33-64.5T566 302V63q40-7 66-24zM271-230q30 8 43 26t13 35q-11 12-30.5 19T257-136q-5 16-1 32t13 29q9 13 21.5 22T317-42q19 0 37.5-6t32-17q13.5-11 22-28t8.5-41q0-24-9-47.5t-26-42Q365-242 340-255t-58-17z"/><glyph unicode="Ň" horiz-adv-x="758" d="M490 700h248v-38q-19-15-42-26.5T653 618V-12h-85L215 498l-40 77h-3l9-80V78q20-5 44.5-16.5T267 38V0H20v38q18 12 39.5 22.5T104 78v546q-20 8-40 18t-36 21v37h216l287-416 46-86h4l-5 86v334q-24 8-46.5 19.5T490 662zm17 202q8 0 19.5-10.5T541 871L414 759q-4-3-12-4.5t-17.5-1.5q-9.5 0-18 1.5T352 759L227 868q3 11 13.5 22.5T261 902l126-55z"/><glyph unicode="ň" horiz-adv-x="644" d="M632 0H367v39q13 7 25.5 12.5T422 63v235q0 63-18 98.5T340 432q-38 0-65.5-24.5T233 341V63q16-4 28.5-9.5T288 39V0H23v39q25 13 66 24v366l-66 8v39q13 6 34 11.5t45.5 10.5q24.5 5 50 8.5T199 512h34V409h1q21 42 63 72.5T399 512q39 0 70-9.5t52.5-33.5q21.5-24 33-64.5T566 302V63q40-7 66-24zM432 792q10 0 25-9.5t17-15.5L346 586q-8-5-25-5t-27 5L168 766q1 3 7 7.5t13.5 8.5q7.5 4 15 7t12.5 3l111-93z"/><glyph unicode="Ō" horiz-adv-x="754" d="M39 350q0 78 22 144.5t65 115Q169 658 232 685t145 27q82 0 145-27t105.5-75.5Q670 561 692 494.5T714 350q0-78-22-144.5t-64.5-115Q585 42 522 15T377-12q-82 0-145 27T126 90.5q-43 48.5-65 115T39 350zm170 0q0-64 10-118.5t31.5-94q21.5-39.5 55-62T386 53q43 0 73 22.5t49 62q19 39.5 27.5 94T544 350q0 64-9.5 118.5t-30 94q-20.5 39.5-54 62T369 647q-46 0-77-22.5t-49.5-62q-18.5-39.5-26-94T209 350zm6 429v70h324v-70z"/><glyph unicode="ō" horiz-adv-x="594" d="M31 250q0 61 18.5 109.5t53 82.5q34.5 34 83.5 52t111 18q70 0 120.5-19.5t83-54q32.5-34.5 47.5-83T563 250q0-61-18-109.5T492.5 58q-34.5-34-84-52T297-12q-68 0-118 19.5t-83 54q-33 34.5-49 83T31 250zm155 0q0-45 5.5-82.5T211 104q14-26 38-40.5T311 49q22 0 40 10.5t31 34q13 23.5 19.5 62T408 250q0 46-5.5 83t-19 63Q370 422 347 436.5T289 451q-26 0-45-10.5t-32-34q-13-23.5-19.5-62T186 250zm-36 369v70h294v-70z"/><glyph unicode="Ő" horiz-adv-x="754" d="M39 350q0 78 22 144.5t65 115Q169 658 232 685t145 27q82 0 145-27t105.5-75.5Q670 561 692 494.5T714 350q0-78-22-144.5t-64.5-115Q585 42 522 15T377-12q-82 0-145 27T126 90.5q-43 48.5-65 115T39 350zm170 0q0-64 10-118.5t31.5-94q21.5-39.5 55-62T386 53q43 0 73 22.5t49 62q19 39.5 27.5 94T544 350q0 64-9.5 118.5t-30 94q-20.5 39.5-54 62T369 647q-46 0-77-22.5t-49.5-62q-18.5-39.5-26-94T209 350zm101 538q6 1 21.5-1.5T364 880q17-4 31-9.5t17-10.5v-14l-135-97-37 23zm196 0q7 1 22.5-1.5t33-7q17.5-4.5 32-10.5t19.5-12l-1-10-182-100-39 23z"/><glyph unicode="ő" horiz-adv-x="594" d="M31 250q0 61 18.5 109.5t53 82.5q34.5 34 83.5 52t111 18q70 0 120.5-19.5t83-54q32.5-34.5 47.5-83T563 250q0-61-18-109.5T492.5 58q-34.5-34-84-52T297-12q-68 0-118 19.5t-83 54q-33 34.5-49 83T31 250zm155 0q0-45 5.5-82.5T211 104q14-26 38-40.5T311 49q22 0 40 10.5t31 34q13 23.5 19.5 62T408 250q0 46-5.5 83t-19 63Q370 422 347 436.5T289 451q-26 0-45-10.5t-32-34q-13-23.5-19.5-62T186 250zm54 518q6 2 23 1t35.5-4q18.5-3 34-7.5T351 747v-24L213 585l-41 20zm196 0q7 2 23 1t34-5q18-4 33.5-10t21.5-14v-22L340 585l-37 22z"/><glyph unicode="Œ" horiz-adv-x="983" d="M482 0q-23-5-52.5-8.5T375-12q-82 0-145 27T124.5 90.5q-42.5 48.5-64 115T39 350q0 78 21.5 144.5t64 115Q167 658 230 685t145 27q21 0 51.5-3.5T481 700h444q-2-45-7-93t-13-90h-41l-46 118H631V390h122l44 77h32q5-49 5-109t-5-112h-32l-44 79H631V65h195l53 127h41q4-19 8-43t6.5-49.5q2.5-25.5 4-51.5T940 0zm-96 53q24 0 49.5 6.5T481 77v540q-23 13-52 21.5t-60 8.5q-46 0-77-22.5t-49.5-62q-18.5-39.5-26-94T209 350q0-64 10-118.5t31.5-94q21.5-39.5 55-62T386 53z"/><glyph unicode="œ" horiz-adv-x="913" d="M186 250q0-45 5.5-83t20-65q14.5-27 39-42T314 45q47 0 70.5 46.5T408 250q0 46-5.5 83.5t-19 64.5Q370 425 347 440t-58 15q-53 0-78-46.5T186 250zM484 61q-35-39-82.5-56T297-12q-68 0-118 19.5t-83 54q-33 34.5-49 83T31 250q0 61 18.5 109.5t53 82.5q34.5 34 83.5 52t111 18q62 0 111-19t75-54q31 37 76 55t101 18q51 0 95.5-14t74-46q29.5-32 41-84T869 241H562q1-79 41-126t116-47q34 0 69 10t55 26l19-20q-8-17-25.5-34.5t-43-31Q768 5 734.5-3.5T662-12q-29 0-56 5.5t-50.5 15q-23.5 9.5-42 23T484 61zm172 394q-20 0-35.5-7t-27-25.5Q582 404 575 372.5T565 293h161q7 78-9 120t-61 42z"/><glyph unicode="Ŕ" horiz-adv-x="697" d="M252 67q23-5 41-13t35-16V0H20v38q22 12 42 18.5T102 67v566q-50 11-82 29v38h106q20 0 45.5 1t53.5 2.5q28 1.5 57 3t56 1.5q55 0 101.5-12.5t80-37.5q33.5-25 52-62.5T590 508q0-72-35-118t-96-69q40-63 85-128.5T639 66l48-32V0H520l-43 33q-46 55-81.5 127.5T333 303h-81zm50 576q-31 0-50-6V358h59q51 0 87 36.5T434 503q0 37-10 63.5T396 610q-18 17-42 25t-52 8zm80 255q16 1 36.5-2t40-8.5q19.5-5.5 35-12.5t21.5-14v-20l-247-96-28 24z"/><glyph unicode="ŕ" horiz-adv-x="431" d="M290 385q-12-6-28-20t-29-46V63q20-2 40-7.5T313 39V0H23v39q18 10 34 15t32 9v366l-66 8v39q16 7 39.5 13t48.5 10.5q25 4.5 48.5 7.5t39.5 5h34V379h4q8 22 23.5 46t36.5 44q21 20 46 32t52 11q11-14 19-39.5t13-48.5v-39zm-10 378q8 2 26.5 1.5T345 761q20-3 36.5-8.5T403 741v-24L212 562l-40 22z"/><glyph unicode="Ŗ" horiz-adv-x="697" d="M252 67q23-5 41-13t35-16V0H20v38q22 12 42 18.5T102 67v566q-50 11-82 29v38h106q20 0 45.5 1t53.5 2.5q28 1.5 57 3t56 1.5q55 0 101.5-12.5t80-37.5q33.5-25 52-62.5T590 508q0-72-35-118t-96-69q40-63 85-128.5T639 66l48-32V0H520l-43 33q-46 55-81.5 127.5T333 303h-81zm50 576q-31 0-50-6V358h59q51 0 87 36.5T434 503q0 37-10 63.5T396 610q-18 17-42 25t-52 8zm-30-874q23 6 40.5 21.5T329-172q-12 11-34 20t-42 13q-6 16-2 33t14 30.5q10 13.5 24 23T318-41q21-1 41.5-7T396-66q16-12 26-30t10-43q0-52-41-88.5T285-273z"/><glyph unicode="ŗ" horiz-adv-x="431" d="M290 385q-12-6-28-20t-29-46V63q20-2 40-7.5T313 39V0H23v39q18 10 34 15t32 9v366l-66 8v39q16 7 39.5 13t48.5 10.5q25 4.5 48.5 7.5t39.5 5h34V379h4q8 22 23.5 46t36.5 44q21 20 46 32t52 11q11-14 19-39.5t13-48.5v-39zM136-230q30 8 43 26t13 35q-11 12-30.5 19T122-136q-5 16-1 32t13 29q9 13 21.5 22T182-42q19 0 37.5-6t32-17q13.5-11 22-28t8.5-41q0-24-9-47.5t-26-42Q230-242 205-255t-58-17z"/><glyph unicode="Ř" horiz-adv-x="697" d="M252 67q23-5 41-13t35-16V0H20v38q22 12 42 18.5T102 67v566q-50 11-82 29v38h106q20 0 45.5 1t53.5 2.5q28 1.5 57 3t56 1.5q55 0 101.5-12.5t80-37.5q33.5-25 52-62.5T590 508q0-72-35-118t-96-69q40-63 85-128.5T639 66l48-32V0H520l-43 33q-46 55-81.5 127.5T333 303h-81zm50 576q-31 0-50-6V358h59q51 0 87 36.5T434 503q0 37-10 63.5T396 610q-18 17-42 25t-52 8zm125 259q8 0 19.5-10.5T461 871L334 759q-4-3-12-4.5t-17.5-1.5q-9.5 0-18 1.5T272 759L147 868q3 11 13.5 22.5T181 902l126-55z"/><glyph unicode="ř" horiz-adv-x="431" d="M290 385q-12-6-28-20t-29-46V63q20-2 40-7.5T313 39V0H23v39q18 10 34 15t32 9v366l-66 8v39q16 7 39.5 13t48.5 10.5q25 4.5 48.5 7.5t39.5 5h34V379h4q8 22 23.5 46t36.5 44q21 20 46 32t52 11q11-14 19-39.5t13-48.5v-39zm54 407q10 0 25-9.5t17-15.5L258 586q-8-5-25-5t-27 5L80 766q1 3 7 7.5t13.5 8.5q7.5 4 15 7t12.5 3l111-93z"/><glyph unicode="Ś" horiz-adv-x="558" d="M157 83q11-11 31-20.5t53-9.5q55 0 91.5 28.5T369 161q0 37-23.5 62T286 269q-36 21-77 41.5T132 359q-36 28-59.5 66.5T49 521q0 49 18 85t49.5 59.5q31.5 23.5 74.5 35t93 11.5q61 0 113.5-8.5T492 677q-1-20-3.5-46t-6.5-51.5q-4-25.5-8.5-48T465 494h-41l-46 137q-12 6-35.5 11t-48.5 5q-42 0-71-22t-29-64q0-38 24-64.5t60-48.5q36-22 78.5-43.5T435 355q36-28 60-65.5t24-92.5q0-100-67.5-154.5T253-12q-32 0-64.5 4T127 3q-29 7-51.5 15T42 35q1 23 5 49.5t8.5 53Q60 164 65 188t10 42h41zm218 815q16 1 36.5-2t40-8.5q19.5-5.5 35-12.5t21.5-14v-20l-247-96-28 24z"/><glyph unicode="ś" horiz-adv-x="452" d="M288 109q0 26-18.5 45t-46 35q-27.5 16-60 32t-60 37.5Q76 280 57.5 309T39 380q0 30 14 54.5T91 476q24 17 57.5 26.5T221 512q54 0 100.5-8.5T403 480q-4-32-16-68.5T364 345h-34l-42 102q-12 5-25 6.5t-29 1.5q-30 0-45.5-17.5T173 398q0-25 18.5-43.5t46-34.5q27.5-16 60-32t60-36.5q27.5-20.5 46-48.5t18.5-67q0-69-56-108.5T216-12q-48 0-99 10T29 26q2 36 17 73t32 66h34l49-109q11-8 24.5-9.5T211 45q29 0 53 17t24 47zm-17 654q8 2 26.5 1.5T336 761q20-3 36.5-8.5T394 741v-24L203 562l-40 22z"/><glyph unicode="Ŝ" horiz-adv-x="558" d="M157 83q11-11 31-20.5t53-9.5q55 0 91.5 28.5T369 161q0 37-23.5 62T286 269q-36 21-77 41.5T132 359q-36 28-59.5 66.5T49 521q0 49 18 85t49.5 59.5q31.5 23.5 74.5 35t93 11.5q61 0 113.5-8.5T492 677q-1-20-3.5-46t-6.5-51.5q-4-25.5-8.5-48T465 494h-41l-46 137q-12 6-35.5 11t-48.5 5q-42 0-71-22t-29-64q0-38 24-64.5t60-48.5q36-22 78.5-43.5T435 355q36-28 60-65.5t24-92.5q0-100-67.5-154.5T253-12q-32 0-64.5 4T127 3q-29 7-51.5 15T42 35q1 23 5 49.5t8.5 53Q60 164 65 188t10 42h41zm12 660l-28 28 127 117q10 5 31 5t31-5l125-114-28-30-132 56z"/><glyph unicode="ŝ" horiz-adv-x="452" d="M288 109q0 26-18.5 45t-46 35q-27.5 16-60 32t-60 37.5Q76 280 57.5 309T39 380q0 30 14 54.5T91 476q24 17 57.5 26.5T221 512q54 0 100.5-8.5T403 480q-4-32-16-68.5T364 345h-34l-42 102q-12 5-25 6.5t-29 1.5q-30 0-45.5-17.5T173 398q0-25 18.5-43.5t46-34.5q27.5-16 60-32t60-36.5q27.5-20.5 46-48.5t18.5-67q0-69-56-108.5T216-12q-48 0-99 10T29 26q2 36 17 73t32 66h34l49-109q11-8 24.5-9.5T211 45q29 0 53 17t24 47zM136 577l-42 25 110 186q6 5 24.5 5.5T256 788l114-185-41-26-103 98z"/><glyph unicode="Ş" horiz-adv-x="558" d="M157 83q11-11 31-20.5t53-9.5q55 0 91.5 28.5T369 161q0 37-23.5 62T286 269q-36 21-77 41.5T132 359q-36 28-59.5 66.5T49 521q0 49 18 85t49.5 59.5q31.5 23.5 74.5 35t93 11.5q61 0 113.5-8.5T492 677q-1-20-3.5-46t-6.5-51.5q-4-25.5-8.5-48T465 494h-41l-46 137q-12 6-35.5 11t-48.5 5q-42 0-71-22t-29-64q0-38 24-64.5t60-48.5q36-22 78.5-43.5T435 355q36-28 60-65.5t24-92.5q0-93-58.5-146T289-10l-21-48q60-2 97.5-23.5T403-147q0-33-22.5-57t-55-39.5Q293-259 256-266t-65-7v46q35 5 57.5 20t21.5 43q-1 23-17.5 36T194-113l32 102q-29 1-58 5.5t-53.5 11Q90 12 71 19.5T42 35q1 23 5 49.5t8.5 53Q60 164 65 188t10 42h41z"/><glyph unicode="ş" horiz-adv-x="462" d="M298 109q0 29-19 48t-48 34q-29 15-62.5 30T106 256.5Q77 277 58 306t-19 74q0 60 51.5 96T226 512q54 0 103-8.5t84-23.5q-4-32-16-68.5T374 345h-34l-42 102q-12 5-27.5 6.5T239 455q-34 0-50-17.5T173 398q0-27 19-45t48-33.5q29-15.5 62.5-30T365 255q29-20 48-48t19-69q0-68-52-107.5T233-12l-21-56q60-3 91.5-21.5T336-144q0-29-17-50t-45-35q-28-14-63-21t-70-7v39q70 11 70 57-1 23-19.5 33T138-114l37 104Q135-5 96.5 3.5T29 26q2 36 17 73t32 66h34l49-109q11-8 27-9.5t28-1.5q32 0 57 17t25 47z"/><glyph unicode="Š" horiz-adv-x="558" d="M157 83q11-11 31-20.5t53-9.5q55 0 91.5 28.5T369 161q0 37-23.5 62T286 269q-36 21-77 41.5T132 359q-36 28-59.5 66.5T49 521q0 49 18 85t49.5 59.5q31.5 23.5 74.5 35t93 11.5q61 0 113.5-8.5T492 677q-1-20-3.5-46t-6.5-51.5q-4-25.5-8.5-48T465 494h-41l-46 137q-12 6-35.5 11t-48.5 5q-42 0-71-22t-29-64q0-38 24-64.5t60-48.5q36-22 78.5-43.5T435 355q36-28 60-65.5t24-92.5q0-100-67.5-154.5T253-12q-32 0-64.5 4T127 3q-29 7-51.5 15T42 35q1 23 5 49.5t8.5 53Q60 164 65 188t10 42h41zm267 819q8 0 19.5-10.5T458 871L331 759q-4-3-12-4.5t-17.5-1.5q-9.5 0-18 1.5T269 759L144 868q3 11 13.5 22.5T178 902l126-55z"/><glyph unicode="š" horiz-adv-x="452" d="M288 109q0 26-18.5 45t-46 35q-27.5 16-60 32t-60 37.5Q76 280 57.5 309T39 380q0 30 14 54.5T91 476q24 17 57.5 26.5T221 512q54 0 100.5-8.5T403 480q-4-32-16-68.5T364 345h-34l-42 102q-12 5-25 6.5t-29 1.5q-30 0-45.5-17.5T173 398q0-25 18.5-43.5t46-34.5q27.5-16 60-32t60-36.5q27.5-20.5 46-48.5t18.5-67q0-69-56-108.5T216-12q-48 0-99 10T29 26q2 36 17 73t32 66h34l49-109q11-8 24.5-9.5T211 45q29 0 53 17t24 47zm50 683q10 0 25-9.5t17-15.5L252 586q-8-5-25-5t-27 5L74 766q1 3 7 7.5t13.5 8.5q7.5 4 15 7t12.5 3l111-93z"/><glyph unicode="Ţ" horiz-adv-x="666" d="M505 0H362l-25-58q60-2 97.5-23.5T472-147q0-33-22.5-57T395-243.5Q363-259 325.5-266t-65.5-7v46q35 5 57.5 20t21.5 43q-1 23-17.5 36T263-113L298 0H161v38q20 8 45.5 16.5T258 67v568H142L78 464H37q-4 20-8 51t-7 64q-3 33-5 65.5T15 700h636q0-24-2-56t-5-65q-3-33-7-63.5t-8-51.5h-41l-64 171H408V67q26-5 51.5-12T505 38z"/><glyph unicode="ţ" horiz-adv-x="399" d="M8 476q38 24 80 34v81q8 6 39.5 17.5T198 627h34V500h132v-63H232V178q0-62 15.5-86T299 68q19 0 41 2.5t41 9.5l7-33q-16-15-51.5-32.5T256-8q-8-1-14.5-2T227-11l-21-57q60-3 91.5-21.5T330-144q0-29-17-50t-45-35q-28-14-63-21t-70-7v39q70 11 70 57-1 23-19.5 33T132-114L170-6Q88 13 88 132v305H8z"/><glyph unicode="Ť" horiz-adv-x="666" d="M505 0H161v38q20 8 45.5 16.5T258 67v568H142L78 464H37q-4 20-8 51t-7 64q-3 33-5 65.5T15 700h636q0-24-2-56t-5-65q-3-33-7-63.5t-8-51.5h-41l-64 171H408V67q26-5 51.5-12T505 38zm-35 902q8 0 19.5-10.5T504 871L377 759q-4-3-12-4.5t-17.5-1.5q-9.5 0-18 1.5T315 759L190 868q3 11 13.5 22.5T224 902l126-55z"/><glyph unicode="ť" horiz-adv-x="399" d="M8 476q38 24 80 34v81q8 6 39.5 17.5T198 627h34V500h132v-63H232V178q0-62 15.5-86T299 68q18 0 40.5 2.5T381 80l7-33q-9-9-26.5-19t-40-19q-22.5-9-49-15T217-12q-65 0-97 34T88 132v305H8zm257 73q10 22 18.5 48t13.5 52q5 26 8 51t3 45l21 25q7 1 22.5-1.5t33-7Q402 757 418 751t24-13q-5-28-20.5-59.5t-37-61Q363 588 339 564.5T294 529z"/><glyph unicode="Ū" horiz-adv-x="715" d="M7 700h308v-38q-33-21-76-29V248q0-49 11-82t32-53.5Q303 92 332.5 83t66.5-9q33 0 60.5 9.5t48 30.5q20.5 21 31.5 55t11 84v375q-23 5-47.5 14T462 662v38h248v-38q-18-13-40-21t-43-13V252q0-128-67.5-194.5T369-9Q235-9 162 51T89 243v390q-20 3-42 10.5T7 662zm222 79v70h324v-70z"/><glyph unicode="ū" horiz-adv-x="622" d="M71 198q0 63 3 117t3 114l-66 8v39q16 6 39.5 12T99 498.5q25 4.5 48.5 8T187 512h34q0-75-3-147.5T215 222q0-82 16.5-118T293 68q31 0 57.5 23.5T394 167v262l-65 8v39q15 6 37.5 12t47 10.5q24.5 4.5 48.5 8t42 5.5h34V71l66-8V28q-14-6-35-12T525 4.5q-23-5.5-45.5-9T439-10h-34l-7 119h-4q-5-21-18-42.5t-33.5-39Q322 10 294-1t-62-11q-38 0-67.5 9.5T114 31Q93 55 82 95.5T71 198zm90 421v70h294v-70z"/><glyph unicode="Ŭ" horiz-adv-x="715" d="M7 700h308v-38q-33-21-76-29V248q0-49 11-82t32-53.5Q303 92 332.5 83t66.5-9q33 0 60.5 9.5t48 30.5q20.5 21 31.5 55t11 84v375q-23 5-47.5 14T462 662v38h248v-38q-18-13-40-21t-43-13V252q0-128-67.5-194.5T369-9Q235-9 162 51T89 243v390q-20 3-42 10.5T7 662zm508 197q7 1 20.5-6t20.5-17q-9-22-24-42.5T496 795q-21-16-48-26t-58-10q-67 0-110 31.5T218 876q7 12 21.5 19t29.5 5q7-11 21.5-20t31.5-15q17-6 35.5-9.5T391 852q16 0 34 2t34.5 7.5q16.5 5.5 31 14T515 897z"/><glyph unicode="ŭ" horiz-adv-x="622" d="M71 198q0 63 3 117t3 114l-66 8v39q16 6 39.5 12T99 498.5q25 4.5 48.5 8T187 512h34q0-75-3-147.5T215 222q0-82 16.5-118T293 68q31 0 57.5 23.5T394 167v262l-65 8v39q15 6 37.5 12t47 10.5q24.5 4.5 48.5 8t42 5.5h34V71l66-8V28q-14-6-35-12T525 4.5q-23-5.5-45.5-9T439-10h-34l-7 119h-4q-5-21-18-42.5t-33.5-39Q322 10 294-1t-62-11q-38 0-67.5 9.5T114 31Q93 55 82 95.5T71 198zm387 526q-9-27-23-52.5t-33.5-45Q382 607 358 595.5T306 584q-29 0-54 11t-45 30.5Q187 645 172.5 671T150 726l37 22q20-26 52-43t68-18q75-2 118 57z"/><glyph unicode="Ů" horiz-adv-x="715" d="M7 700h308v-38q-33-21-76-29V248q0-49 11-82t32-53.5Q303 92 332.5 83t66.5-9q33 0 60.5 9.5t48 30.5q20.5 21 31.5 55t11 84v375q-23 5-47.5 14T462 662v38h248v-38q-18-13-40-21t-43-13V252q0-128-67.5-194.5T369-9Q235-9 162 51T89 243v390q-20 3-42 10.5T7 662zm255 88q0 41 36 65.5t97 24.5q26 0 49-5.5t40.5-16.5q17.5-11 27.5-27t10-38q0-39-35.5-63T394 704q-64 0-98 23t-34 61zm83 0q0-17 15-25.5t30-8.5q23 0 36 8.5t13 24.5q0 23-13.5 32t-32.5 9q-21 0-34.5-9T345 788z"/><glyph unicode="ů" horiz-adv-x="622" d="M71 198q0 63 3 117t3 114l-66 8v39q16 6 39.5 12T99 498.5q25 4.5 48.5 8T187 512h34q0-75-3-147.5T215 222q0-82 16.5-118T293 68q31 0 57.5 23.5T394 167v262l-65 8v39q15 6 37.5 12t47 10.5q24.5 4.5 48.5 8t42 5.5h34V71l66-8V28q-14-6-35-12T525 4.5q-23-5.5-45.5-9T439-10h-34l-7 119h-4q-5-21-18-42.5t-33.5-39Q322 10 294-1t-62-11q-38 0-67.5 9.5T114 31Q93 55 82 95.5T71 198zm124 481q0 41 30.5 71t87.5 30q53 0 82.5-27t29.5-71q0-42-31-70t-82-28q-58 0-87.5 26.5T195 679zm75 2q0-23 11-35t28-12q41 0 41 44 0 27-11.5 39.5T310 730q-40 0-40-49z"/><glyph unicode="Ű" horiz-adv-x="715" d="M7 700h308v-38q-33-21-76-29V248q0-49 11-82t32-53.5Q303 92 332.5 83t66.5-9q33 0 60.5 9.5t48 30.5q20.5 21 31.5 55t11 84v375q-23 5-47.5 14T462 662v38h248v-38q-18-13-40-21t-43-13V252q0-128-67.5-194.5T369-9Q235-9 162 51T89 243v390q-20 3-42 10.5T7 662zm327 188q6 1 21.5-1.5T388 880q17-4 31-9.5t17-10.5v-14l-135-97-37 23zm196 0q7 1 22.5-1.5t33-7q17.5-4.5 32-10.5t19.5-12l-1-10-182-100-39 23z"/><glyph unicode="ű" horiz-adv-x="622" d="M71 198q0 63 3 117t3 114l-66 8v39q16 6 39.5 12T99 498.5q25 4.5 48.5 8T187 512h34q0-75-3-147.5T215 222q0-82 16.5-118T293 68q31 0 57.5 23.5T394 167v262l-65 8v39q15 6 37.5 12t47 10.5q24.5 4.5 48.5 8t42 5.5h34V71l66-8V28q-14-6-35-12T525 4.5q-23-5.5-45.5-9T439-10h-34l-7 119h-4q-5-21-18-42.5t-33.5-39Q322 10 294-1t-62-11q-38 0-67.5 9.5T114 31Q93 55 82 95.5T71 198zm162 570q6 2 23 1t35.5-4q18.5-3 34-7.5T344 747v-24L206 585l-41 20zm196 0q7 2 23 1t34-5q18-4 33.5-10t21.5-14v-22L333 585l-37 22z"/><glyph unicode="Ų" horiz-adv-x="715" d="M7 700h308v-38q-33-21-76-29V248q0-49 11-82t32-53.5Q303 92 332.5 83t66.5-9q33 0 60.5 9.5t48 30.5q20.5 21 31.5 55t11 84v375q-23 5-47.5 14T462 662v38h248v-38q-18-13-40-21t-43-13V252q0-93-35.5-153T489 12q-24-13-43-30.5T414.5-56Q402-76 395-96.5t-7-38.5q0-26 16-40t38-14q12 0 23 1t23 4v-43q-14-11-41-19.5t-59-8.5q-61 0-94 28.5T261-157q0 51 34.5 85.5T385-9h-16Q235-9 162 51T89 243v390q-20 3-42 10.5T7 662z"/><glyph unicode="ų" horiz-adv-x="622" d="M71 198q0 63 3 117t3 114l-66 8v39q16 6 40 12.5t50.5 11.5q26.5 5 51 8.5T193 512h28q0-75-3-147.5T215 222q0-82 16.5-118T293 68q31 0 57.5 23.5T394 167v262l-65 8v39q15 6 37.5 12t47 10.5q24.5 4.5 48.5 8t42 5.5h34V71l66-8V28q-10-5-21-8.5T558 11q-39-23-62-59t-23-71q0-19 12.5-34.5T521-169q23 0 50 9v-46q-7-4-18.5-7.5t-24-6.5q-12.5-3-25-4.5T482-226q-69 0-101 27t-32 65q0 41 26 71.5T451-9l-21-1h-25l-7 119h-4q-4-19-15.5-39t-29-36.5Q332 17 308 5t-52-15q-11-1-21.5-1.5T213-11q-33 2-59.5 13T109 37q-18 24-28 63.5T71 198z"/><glyph unicode="Ÿ" horiz-adv-x="698" d="M453 700h245v-38q-15-9-33.5-17.5T627 633L433 293V67q20-2 39.5-10.5T509 38V0H201v38q17 9 38 17t44 12v225L81 633q-23 4-43.5 12T0 662v38h328v-38q-14-8-32-16t-42-13l143-268 136 268q-23 5-44 13t-36 16zm-270 93q0 32 23 48t58 16q35 0 58-16t23-48q0-28-23-43.5T264 734q-35 0-58 15.5T183 793zm245 0q0 32 23.5 48t58.5 16q35 0 58-16t23-48q0-28-23-43.5T510 734q-35 0-58.5 15.5T428 793z"/><glyph unicode="Ź" horiz-adv-x="634" d="M537 211h42q4-21 7.5-47.5t6.5-55q3-28.5 4.5-56.5T599 0H35v65l388 570H175l-59-143H74q-5 22-9 50t-7 56.5q-3 28.5-4 55T53 700h534v-65L201 65h274zM405 898q16 1 36.5-2t40-8.5q19.5-5.5 35-12.5t21.5-14v-20l-247-96-28 24z"/><glyph unicode="ź" horiz-adv-x="516" d="M453 185q11-41 19-91t6-94H32v39l285 404H151l-44-118H73q-11 43-18 91t-7 84h430v-39L192 57h173l54 128zM295 763q8 2 26.5 1.5T360 761q20-3 36.5-8.5T418 741v-24L227 562l-40 22z"/><glyph unicode="Ż" horiz-adv-x="634" d="M537 211h42q4-21 7.5-47.5t6.5-55q3-28.5 4.5-56.5T599 0H35v65l388 570H175l-59-143H74q-5 22-9 50t-7 56.5q-3 28.5-4 55T53 700h534v-65L201 65h274zM228 819q0 32 23 49t68 17q45 0 67-17t22-49q0-31-22-48t-67-17q-45 0-68 17t-23 48z"/><glyph unicode="ż" horiz-adv-x="516" d="M453 185q11-41 19-91t6-94H32v39l285 404H151l-44-118H73q-11 43-18 91t-7 84h430v-39L192 57h173l54 128zM174 664q0 35 24 55t62 20q38 0 62-20t24-55q0-34-24-54t-62-20q-38 0-62 20t-24 54z"/><glyph unicode="Ž" horiz-adv-x="634" d="M537 211h42q4-21 7.5-47.5t6.5-55q3-28.5 4.5-56.5T599 0H35v65l388 570H175l-59-143H74q-5 22-9 50t-7 56.5q-3 28.5-4 55T53 700h534v-65L201 65h274zm-92 691q8 0 19.5-10.5T479 871L352 759q-4-3-12-4.5t-17.5-1.5q-9.5 0-18 1.5T290 759L165 868q3 11 13.5 22.5T199 902l126-55z"/><glyph unicode="ž" horiz-adv-x="516" d="M453 185q11-41 19-91t6-94H32v39l285 404H151l-44-118H73q-11 43-18 91t-7 84h430v-39L192 57h173l54 128zm-81 607q10 0 25-9.5t17-15.5L286 586q-8-5-25-5t-27 5L108 766q1 3 7 7.5t13.5 8.5q7.5 4 15 7t12.5 3l111-93z"/><glyph unicode="ſ" horiz-adv-x="372" d="M321 752q41 0 73.5-7.5T444 730q-3-33-13-68t-18-58h-34l-44 95q-26 0-43.5-5.5t-28-21.5Q253 656 248 626.5t-5-76.5V63q52-6 96-24V0H33v39q31 18 66 24v374H23v39q35 22 76 33v35q0 62 17.5 102.5t47.5 64q30 23.5 70.5 32.5t86.5 9z"/><glyph unicode="ƒ" horiz-adv-x="565" d="M185 437h-70v39q20 11 42.5 19.5T200 509l7 35q13 62 35.5 102.5t52.5 64q30 23.5 67.5 32.5t81.5 9q32 0 65-5.5t54-16.5q2-14-1.5-30.5t-11-31.5q-7.5-15-18-27T510 623l-71 76q-14-3-27.5-9T386 668.5Q374 653 363 625t-21-75l-10-50h111q2-11-.5-30.5T430 437H319L263 43q-11-71-42-118t-68.5-75.5Q115-179 77.5-193T16-212L5-180q12 6 30 20t36 38q18 24 33.5 60T128 24z"/><glyph unicode="Ǵ" horiz-adv-x="709" d="M636 44q-20-10-49-20T526 6q-32-8-64-13t-57-5q-86 0-153.5 22.5t-115 68Q89 124 64 192T39 350q0 98 30.5 166.5t81 112Q201 672 265 692t131 20q66 0 124-9t92-26q0-15-1.5-38.5T606 588q-3-27-7.5-54T588 485h-41l-56 152q-11 5-33 7.5t-44 2.5q-41 0-79-16t-67-51.5q-29-35.5-46-92T205 350q0-66 15.5-120.5T264 136q28-39 67-61t86-22q15 0 31 2.5t30 6.5q14 4 24.5 9t14.5 9v188q-26 2-49 10t-43 19v38h273v-38q-9-9-24-16.5T636 268zM450 898q16 1 36.5-2t40-8.5q19.5-5.5 35-12.5t21.5-14v-20l-247-96-28 24z"/><glyph unicode="ǵ" horiz-adv-x="564" d="M264 512q65 0 108-13.5t65-33.5q47 51 108 71 7-5 14-14.5t12-20.5q5-11 8-22t3-18l-13-24H464q11-14 20.5-36.5T494 347q0-33-14-62t-42.5-51.5Q409 211 365.5 198T264 185q-17 0-30.5.5T210 188q-4-6-8.5-14.5T197 157q0-17 24-27t61-18q37-8 79.5-18T441 67.5q37-16.5 62-43T529-44q1-40-20-71t-57.5-52.5q-36.5-21.5-86-33T260-212q-66 0-112.5 10.5T72-173q-29 18-42.5 41T16-84q0 28 11 48T58-1q20 15 46.5 25T163 42q-15 4-29 10t-25 14.5q-11 8.5-18 20T84 113q0 13 8 25.5t21 23q13 10.5 28 19t30 14.5q-63 14-100 54.5T34 353q0 75 62 117t168 42zM390-76q0 27-16.5 43.5T331-5.5q-26 10.5-58.5 18T208 30q-26-20-37-40t-11-48q0-46 31.5-71.5T280-155q56 0 83 23.5T390-76zM178 348q0-52 17.5-79t68.5-27q49 0 67.5 27.5T350 348q0 54-19 80.5T264 455q-50 0-68-26t-18-81zm147 415q8 2 26.5 1.5T390 761q20-3 36.5-8.5T448 741v-24L257 562l-40 22z"/><glyph unicode="Ș" horiz-adv-x="558" d="M157 83q11-11 31-20.5t53-9.5q55 0 91.5 28.5T369 161q0 37-23.5 62T286 269q-36 21-77 41.5T132 359q-36 28-59.5 66.5T49 521q0 49 18 85t49.5 59.5q31.5 23.5 74.5 35t93 11.5q61 0 113.5-8.5T492 677q-1-20-3.5-46t-6.5-51.5q-4-25.5-8.5-48T465 494h-41l-46 137q-12 6-35.5 11t-48.5 5q-42 0-71-22t-29-64q0-38 24-64.5t60-48.5q36-22 78.5-43.5T435 355q36-28 60-65.5t24-92.5q0-100-67.5-154.5T253-12q-32 0-64.5 4T127 3q-29 7-51.5 15T42 35q1 23 5 49.5t8.5 53Q60 164 65 188t10 42h41zm64-314q23 6 40.5 21.5T278-172q-12 11-34 20t-42 13q-6 16-2 33t14 30.5q10 13.5 24 23T267-41q21-1 41.5-7T345-66q16-12 26-30t10-43q0-52-41-88.5T234-273z"/><glyph unicode="ș" horiz-adv-x="452" d="M288 109q0 26-18.5 45t-46 35q-27.5 16-60 32t-60 37.5Q76 280 57.5 309T39 380q0 30 14 54.5T91 476q24 17 57.5 26.5T221 512q54 0 100.5-8.5T403 480q-4-32-16-68.5T364 345h-34l-42 102q-12 5-25 6.5t-29 1.5q-30 0-45.5-17.5T173 398q0-25 18.5-43.5t46-34.5q27.5-16 60-32t60-36.5q27.5-20.5 46-48.5t18.5-67q0-69-56-108.5T216-12q-48 0-99 10T29 26q2 36 17 73t32 66h34l49-109q11-8 24.5-9.5T211 45q29 0 53 17t24 47zM162-230q30 8 43 26t13 35q-11 12-30.5 19T148-136q-5 16-1 32t13 29q9 13 21.5 22T208-42q19 0 37.5-6t32-17q13.5-11 22-28t8.5-41q0-24-9-47.5t-26-42Q256-242 231-255t-58-17z"/><glyph unicode="Ț" horiz-adv-x="666" d="M505 0H161v38q20 8 45.5 16.5T258 67v568H142L78 464H37q-4 20-8 51t-7 64q-3 33-5 65.5T15 700h636q0-24-2-56t-5-65q-3-33-7-63.5t-8-51.5h-41l-64 171H408V67q26-5 51.5-12T505 38zM278-231q23 6 40.5 21.5T335-172q-12 11-34 20t-42 13q-6 16-2 33t14 30.5q10 13.5 24 23T324-41q21-1 41.5-7T402-66q16-12 26-30t10-43q0-52-41-88.5T291-273z"/><glyph unicode="ț" horiz-adv-x="399" d="M8 476q38 24 80 34v81q8 6 39.5 17.5T198 627h34V500h132v-63H232V178q0-62 15.5-86T299 68q18 0 40.5 2.5T381 80l7-33q-9-9-26.5-19t-40-19q-22.5-9-49-15T217-12q-65 0-97 34T88 132v305H8zm153-706q30 8 43 26t13 35q-11 12-30.5 19T147-136q-5 16-1 32t13 29q9 13 21.5 22T207-42q19 0 37.5-6t32-17q13.5-11 22-28t8.5-41q0-24-9-47.5t-26-42Q255-242 230-255t-58-17z"/><glyph unicode="ȷ" horiz-adv-x="320" d="M97 429l-66 8v39q15 7 37 13t47 10.5q25 4.5 49.5 7.5t42.5 5h34V43q0-47-11.5-84t-30-64q-18.5-27-41-46t-44-31.5Q93-195 75-202t-28-10l-20 30q12 6 24 19.5T73.5-125q10.5 24 17 60.5T97 24z"/><glyph unicode="ʼ" horiz-adv-x="300" d="M60 460q39 10 61 35t20 52q-13 16-32.5 25.5T67 589q-5 18-1.5 36.5t13.5 34Q89 675 102.5 686t27.5 13q20-1 40-8.5t35.5-21q15.5-13.5 25-34T240 587q0-27-12-55t-33.5-52Q173 456 143 438.5T78 414z"/><glyph unicode="ˆ" horiz-adv-x="396" d="M102 577l-42 25 110 186q6 5 24.5 5.5T222 788l114-185-41-26-103 98z"/><glyph unicode="ˇ" horiz-adv-x="426" d="M324 792q10 0 25-9.5t17-15.5L238 586q-8-5-25-5t-27 5L60 766q1 3 7 7.5t13.5 8.5q7.5 4 15 7t12.5 3l111-93z"/><glyph unicode="˘" horiz-adv-x="428" d="M368 724q-9-27-23-52.5t-33.5-45Q292 607 268 595.5T216 584q-29 0-54 11t-45 30.5Q97 645 82.5 671T60 726l37 22q20-26 52-43t68-18q75-2 118 57z"/><glyph unicode="˙" horiz-adv-x="292" d="M60 664q0 35 24 55t62 20q38 0 62-20t24-55q0-34-24-54t-62-20q-38 0-62 20t-24 54z"/><glyph unicode="˚" horiz-adv-x="350" d="M60 679q0 41 30.5 71t87.5 30q53 0 82.5-27t29.5-71q0-42-31-70t-82-28q-58 0-87.5 26.5T60 679zm75 2q0-23 11-35t28-12q41 0 41 44 0 27-11.5 39.5T175 730q-40 0-40-49z"/><glyph unicode="˛" horiz-adv-x="345" d="M285 20q-46-23-73.5-62T184-119q0-19 12-34.5t36-15.5q23 0 50 9v-46q-7-4-18.5-7.5t-24-6.5q-12.5-3-25-4.5T193-226q-69 0-101 27t-32 65q0 54 45 91t129 63z"/><glyph unicode="˜" horiz-adv-x="445" d="M385 667q-30-34-62-49.5T268 602q-18 0-34 5.5T203 619q-15 6-29.5 11.5T144 636q-13 0-26.5-4.5T88 616l-28 42q37 38 70.5 53t56.5 15q18 0 33.5-5t29.5-11q14-6 28.5-11t29.5-5q13 0 26 2.5t29 12.5z"/><glyph unicode="˝" horiz-adv-x="496" d="M128 768q6 2 23 1t35.5-4q18.5-3 34-7.5T239 747v-24L101 585l-41 20zm196 0q7 2 23 1t34-5q18-4 33.5-10t21.5-14v-22L228 585l-37 22z"/><glyph unicode="́" horiz-adv-x="0" d="M-189 763q8 2 26.5 1.5t38.5-3.5q20-3 36.5-8.5T-66 741v-24l-191-155-40 22z"/><glyph unicode="Δ" horiz-adv-x="662" d="M20 0v45l293 655h42L642 45V0zm280 507L109 75h368z"/><glyph unicode="Ω" horiz-adv-x="797" d="M30 0q0 18 1.5 48t4.5 63q3 33 6.5 65t7.5 54h34l44-118h168q-44 16-86 42t-75 62q-33 36-53 83T62 405q0 72 25 129t70.5 96.5Q203 670 266.5 691T406 712q78 0 139.5-20.5t104-59Q692 594 715 538t23-128q0-62-21.5-111.5t-55-86Q628 176 587.5 151T510 112h158l45 118h34q4-23 8-55.5t6.5-65.5q2.5-33 4-62.5T767 0H449v119q21 10 43 35t40 61q18 36 29.5 81.5T573 394q0 117-42.5 185T406 647q-49 0-83-17.5t-55.5-49q-21.5-31.5-31-76T227 405q0-54 13-101t32.5-84.5Q292 182 315 156t43-37V0z"/><glyph unicode="π" horiz-adv-x="678" d="M601 64V29q-14-6-35-12.5T520.5 5q-24.5-5-51-9T419-9h-34v419H239V287q0-95-10.5-168T199 0q-9-5-30-5.5t-42.5 0Q105-5 89-3T73 0l-6 9q22 31 41.5 79.5t34 104Q157 248 165 305t8 105h-17q-28 0-49.5-14.5T62 351l-22 8q6 36 15.5 63.5T82 469q17 19 43.5 28.5T192 506q11 0 43.5-1t75-2q42.5-1 90.5-2t89-1q32 0 53 .5t34.5 3.5q13.5 3 23 8t19.5 14h18q-2-59-25-87.5T547 410h-12V72z"/><glyph unicode="Ё" horiz-adv-x="604" d="M546 700q-2-45-7-93t-13-90h-41l-46 118H252V390h122l44 77h32q5-49 5-109t-5-112h-32l-44 79H252V65h195l53 127h41q4-19 8-43t6.5-49.5q2.5-25.5 4-51.5T561 0H20v38q17 9 38 17t44 12v566q-20 4-42.5 11.5T20 662v38zM95 793q0 32 23 48t58 16q35 0 58-16t23-48q0-28-23-43.5T176 734q-35 0-58 15.5T95 793zm245 0q0 32 23.5 48t58.5 16q35 0 58-16t23-48q0-28-23-43.5T422 734q-35 0-58.5 15.5T340 793z"/><glyph unicode="Ђ" horiz-adv-x="804" d="M776 234q0-72-17-118.5T709.5 42q-32.5-27-79-37T525-3l-6 45q28 6 48 16.5t33 29q13 18.5 19.5 47.5t6.5 73q0 35-4.5 63t-16 48q-11.5 20-32 31T520 361q-33 0-62.5-9.5T403 327V67q17-5 32-13t28-16V0H156v38q20 8 45.5 16.5T253 67v568H137L73 464H32q-4 20-8 51t-7 64q-3 33-5 65.5T10 700h637q0-24-2-51.5t-5-55q-3-27.5-7-53t-8-46.5h-42l-64 141H403V387q28 16 75 30t103 14q40 0 75.5-8.5t62-30.5q26.5-22 42-60t15.5-98z"/><glyph unicode="Ѓ" horiz-adv-x="543" d="M252 67q25-4 49.5-12T348 38V0H20v38q44 22 82 29v566q-20 4-41.5 11T20 662v38h512q0-24-1-55t-3-64q-2-33-6-64.5t-8-56.5h-41l-63 175H252zm114 831q16 1 36.5-2t40-8.5q19.5-5.5 35-12.5t21.5-14v-20l-247-96-28 24z"/><glyph unicode="Є" horiz-adv-x="645" d="M540 210h41q4-16 7.5-38.5t6-48Q597 98 598 73t1-45Q564 6 511.5-3T404-12q-83 0-150.5 20.5t-115 65Q91 118 65 186.5T39 351q0 95 28.5 163.5T144 627q48 44 111.5 64.5T389 712q66 0 119.5-9.5T596 677q0-16-1.5-41t-5-52.5q-3.5-27.5-8-54T573 485h-42l-55 151q-9 5-29 8t-41 3q-39 0-74-15t-62-47.5q-27-32.5-44-83T206 381l269 16q9-24 9.5-54t-4.5-50q-62 9-135 13.5T206 313q7-125 62.5-192.5T417 53q28 0 47.5 4.5T491 70z"/><glyph unicode="Ѕ" horiz-adv-x="558" d="M157 83q11-11 31-20.5t53-9.5q55 0 91.5 28.5T369 161q0 37-23.5 62T286 269q-36 21-77 41.5T132 359q-36 28-59.5 66.5T49 521q0 49 18 85t49.5 59.5q31.5 23.5 74.5 35t93 11.5q61 0 113.5-8.5T492 677q-1-20-3.5-46t-6.5-51.5q-4-25.5-8.5-48T465 494h-41l-46 137q-12 6-35.5 11t-48.5 5q-42 0-71-22t-29-64q0-38 24-64.5t60-48.5q36-22 78.5-43.5T435 355q36-28 60-65.5t24-92.5q0-100-67.5-154.5T253-12q-32 0-64.5 4T127 3q-29 7-51.5 15T42 35q1 23 5 49.5t8.5 53Q60 164 65 188t10 42h41z"/><glyph unicode="І" horiz-adv-x="372" d="M342 0H30v38q40 22 81 29v566q-20 3-42 11t-39 18v38h312v-38q-18-11-39.5-18.5T261 633V67q20-4 41.5-11T342 38z"/><glyph unicode="Ї" horiz-adv-x="372" d="M12 793q0 32 19.5 48T86 857q35 0 54.5-16t19.5-48q0-28-19.5-43.5T86 734q-35 0-54.5 15.5T12 793zm199 0q0 32 20 48t55 16q73 0 73-64 0-28-19-43.5T286 734q-35 0-55 15.5T211 793zM342 0H30v38q40 22 81 29v566q-20 3-42 11t-39 18v38h312v-38q-18-11-39.5-18.5T261 633V67q20-4 41.5-11T342 38z"/><glyph unicode="Ј" horiz-adv-x="365" d="M27 700h308v-38q-16-10-36-18t-40-11V121q0-82-24.5-134.5t-58-83Q143-127 108-141t-57-19l-19 26q15 12 29 30.5T85.5-56q10.5 29 17 70.5T109 115v518q-22 5-43.5 11.5T27 662z"/><glyph unicode="Љ" horiz-adv-x="969" d="M373 0v38q18 10 37 17.5T449 67v568H286q-3-152-14-253.5T245 214q-16-66-35.5-104.5T169 43q-19-26-48-40.5T65-12Q52-7 40 8.5T18 44Q8 64 1.5 86T-6 127l27 38 119-29q13 28 25.5 67.5T188 301q10 58 16 137t6 185q-31 5-58.5 16T104 662v38h583v-38q-19-10-41.5-17.5T599 633V419q18 3 43 5t45 2q52 0 98.5-10t81-34q34.5-24 55-64T942 218q0-56-22-97.5t-60-69q-38-27.5-89-41T662-3q-5 0-20.5.5t-36 1Q585-1 564-.5T528 0zm278 361q-33 0-52-6V66q8-2 26-3t27-1q57 0 91 37t34 119q0 143-126 143z"/><glyph unicode="Њ" horiz-adv-x="1037" d="M446 0v38q17 11 33.5 18T517 67v272H252V67q20-4 37-11t34-18V0H20v38q17 9 39.5 17T102 67v566q-24 4-46 12t-36 17v38h303v-38q-15-10-33.5-18T252 633V404h265v229q-20 4-35.5 10.5T446 662v38h309v-38q-19-10-41.5-17.5T667 633V403q18 3 43 5t45 2q52 0 98.5-9.5t81-33q34.5-23.5 55-62T1010 209q0-56-22-96t-60-65.5q-38-25.5-89-38T730-3q-5 0-20.5.5t-36 1Q653-1 632-.5T596 0zm273 345q-33 0-52-6V66q8-2 26-3t27-1q56 0 90.5 33.5T845 209q0 70-31.5 103T719 345z"/><glyph unicode="Ћ" horiz-adv-x="843" d="M403 635V385q28 17 72.5 31T576 430q40 0 75-8.5t60.5-29.5q25.5-21 40-57.5T766 242V67q19-3 38-11t34-18V0H616v207q0 35-3.5 63t-14 48Q588 338 568 349t-53 11q-33 0-60-9.5T403 325V67q17-5 33-13t29-16V0H156v38q20 8 45.5 16.5T253 67v568H137L73 464H32q-4 20-8 51t-7 64q-3 33-5 65.5T10 700h637q-1-49-7.5-105T625 496h-42l-64 139z"/><glyph unicode="Ќ" horiz-adv-x="710" d="M399 700h268v-38q-17-11-39-18.5T588 633L398 392q23-32 54-72.5t66-84q35-43.5 72-88T662 63l48-29V0H536l-40 28q-24 30-50.5 66.5t-52.5 76Q367 210 342 250t-47 78h-43V67q22-4 40-12t31-17V0H20v38q20 10 41 17.5T102 67v566q-23 3-44.5 11T20 662v38h303v-38q-13-8-31.5-16T252 633V379l59 14 161 240q-20 4-39.5 12.5T399 662zm10 198q16 1 36.5-2t40-8.5q19.5-5.5 35-12.5t21.5-14v-20l-247-96-28 24z"/><glyph unicode="Ў" horiz-adv-x="684" d="M519 633q-24 5-42 12.5T442 662v38h242v-38q-11-8-29.5-15.5T613 633L422 201Q374 91 322 37.5T211-5q-8 8-16.5 24.5t-16 35Q171 73 166 90.5t-6 29.5l28 40 119-37q8 9 15 22t13 29L69 633q-19 5-36.5 12.5T0 662v38h312v-38q-30-18-76-29l141-271 21-64h2l20 66zM372 741q-46 0-83.5 8.5t-64.5 25Q197 791 182.5 816T168 873q18 13 47.5 17t54.5 5l34-18v-78q14-7 32.5-9.5T373 787q14 0 34.5 2t34.5 7v81l34 18q18 2 47-3.5t51-18.5q0-64-54-98t-148-34z"/><glyph unicode="Џ" horiz-adv-x="758" d="M320 662q-16-10-32-17.5T252 633V65h254v568q-26 5-42 13t-26 16v38h300v-38q-22-13-42-20t-40-9V67q21-4 42-10.5T738 38V0H453q-7-48-22.5-101T401-200h-44q-17 50-30.5 101T305 0H20v38q19 11 40.5 18T102 67v566q-27 4-47 12t-35 17v38h300z"/><glyph unicode="А" horiz-adv-x="729" d="M247 0H0v38q16 10 34.5 17.5T71 67l258 645h74L654 67q20-4 40-11.5T729 38V0H416v38q19 9 41 17t42 12l-58 159H219L160 67q46-6 87-29zm-4 291h177l-65 191-19 86h-2l-22-88z"/><glyph unicode="Б" horiz-adv-x="641" d="M102 633q-47 8-82 29v38h537q0-23-2-51t-5-56q-3-28-7-54t-8-47h-41l-62 143H252V407q9 1 22 2.5t26.5 2.5q13.5 1 27 1.5t23.5.5q51 0 97-11t80.5-35.5q34.5-24.5 55-63.5t20.5-94q0-53-21.5-93t-59-66.5q-37.5-26.5-89-40T323-3q-5 0-25 .5t-45 1l-50 1Q178 0 163 0H20v38q19 11 39.5 18.5T102 67zm206-284q-16 0-31-1.5t-25-4.5V66q4-1 12.5-2t17.5-1.5q9-.5 17.5-.5H313q59 0 92.5 38T439 207q0 66-31 104t-100 38z"/><glyph unicode="В" horiz-adv-x="649" d="M20 0v38q19 11 40.5 19T102 67v566q-20 4-42 11.5T20 662v38h161q38 0 72 3t78 3q48 0 93-7t80-25q35-18 56-50.5t21-83.5q0-32-11.5-59.5t-32-48.5q-20.5-21-48-35T430 377v-4q32-4 64.5-15t58.5-32q26-21 42.5-52.5T612 199q0-54-24-93t-64.5-64Q483 17 431 5.5T323-6q-21 0-46 1l-50 2q-25 1-48.5 2T139 0zm302 59q63 0 99 37.5t36 99.5q0 38-12 62.5t-33 39q-21 14.5-50 20t-63 5.5h-53V66q14-3 29.5-5t46.5-2zm-44 329q17 0 34 1.5t32 3.5q39 16 63 49.5t24 76.5q0 63-33 92.5T313 641q-22 0-38-1t-29-3V388z"/><glyph unicode="Г" horiz-adv-x="543" d="M252 67q25-4 49.5-12T348 38V0H20v38q44 22 82 29v566q-20 4-41.5 11T20 662v38h512q0-24-1-55t-3-64q-2-33-6-64.5t-8-56.5h-41l-63 175H252z"/><glyph unicode="Д" horiz-adv-x="727" d="M716 65q0-23-2-52.5T708.5-48q-3.5-31-8-61T690-163h-39L597 0H119L65-163H26q-6 25-11 56T6.5-44.5Q3-13 1.5 16T0 65h87q28 42 51.5 104t40 135.5q16.5 73.5 25 155T212 623q-26 5-54 15t-52 24v38h575v-38q-35-19-82-29V65zm-267 0v570H288q-5-116-17-208t-28.5-162Q226 195 207 145.5T170 65z"/><glyph unicode="Е" horiz-adv-x="604" d="M546 700q-2-45-7-93t-13-90h-41l-46 118H252V390h122l44 77h32q5-49 5-109t-5-112h-32l-44 79H252V65h195l53 127h41q4-19 8-43t6.5-49.5q2.5-25.5 4-51.5T561 0H20v38q17 9 38 17t44 12v566q-20 4-42.5 11.5T20 662v38z"/><glyph unicode="Ж" horiz-adv-x="1023" d="M441 633q-20 5-36.5 13T376 662v38h260v-38q-10-7-24.5-14.5T577 633V378l68 15 144 240q-20 5-38.5 13T716 662v38h265v-38q-15-8-33.5-16T909 633L729 388q26-34 55.5-75t61-84.5q31.5-43.5 66-87T982 58l41-24V0H854l-43 34q-29 34-53 70t-45 73q-21 37-40.5 75.5T631 330h-54V67q17-5 33-12.5T641 38V0H371v38q14 9 31.5 16.5T441 67v272l-57-15q-42-81-80.5-152T212 34L169 0H0v34l41 24q36 40 70 83t65 85q31 42 58 81t50 71L105 633q-20 5-37 13t-30 16v38h264v-38q-13-8-31-16t-38-13l144-246h64z"/><glyph unicode="З" horiz-adv-x="580" d="M252-12q-28 0-58.5 3T134-1q-29 5-54 12.5T38 27q0 16 3.5 39t8.5 47.5q5 24.5 11.5 49T74 207h42l40-142q11-5 35.5-8.5T237 53q66 0 106 38t40 103q0 71-35 100.5T254 324l-77-13q-5 18-6 41t5 42h32q17-1 39.5.5T286 398q38 16 58.5 46.5T365 522q0 59-30.5 92T248 647q-24 0-43.5-5.5T178 628l-49-127H87q-4 15-8 34.5t-7 42q-3 22.5-5.5 46T64 669q19 13 44.5 21t52 13q26.5 5 52.5 7t47 2q48 0 95-7t83.5-26.5q36.5-19.5 59-53T520 540q0-51-33.5-97.5T385 375v-4q31-5 59.5-18t50.5-34q22-21 35-51t13-69q0-53-21-93t-59-66q-38-26-91.5-39T252-12z"/><glyph unicode="И" horiz-adv-x="779" d="M321 0H20v38q19 10 40 18t42 11v566q-20 5-42 11.5T20 662v38h301v-38q-15-9-34-17t-41-12V253l-10-78 49 82 252 352v24q-47 11-79 29v38h301v-38q-17-11-38.5-17.5T677 633V67q23-4 43.5-11.5T759 38V0H458v38q14 7 33.5 15.5T533 67v379l10 79-45-79L242 89V67q23-5 43-13t36-16z"/><glyph unicode="Й" horiz-adv-x="779" d="M321 0H20v38q19 10 40 18t42 11v566q-20 5-42 11.5T20 662v38h301v-38q-15-9-34-17t-41-12V253l-10-78 49 82 252 352v24q-47 11-79 29v38h301v-38q-17-11-38.5-17.5T677 633V67q23-4 43.5-11.5T759 38V0H458v38q14 7 33.5 15.5T533 67v379l10 79-45-79L242 89V67q23-5 43-13t36-16zm73 741q-46 0-83.5 8.5t-64.5 25Q219 791 204.5 816T190 873q18 13 47.5 17t54.5 5l34-18v-78q14-7 32.5-9.5T395 787q14 0 34.5 2t34.5 7v81l34 18q18 2 47-3.5t51-18.5q0-64-54-98t-148-34z"/><glyph unicode="К" horiz-adv-x="710" d="M399 700h268v-38q-17-11-39-18.5T588 633L398 392q23-32 54-72.5t66-84q35-43.5 72-88T662 63l48-29V0H536l-40 28q-24 30-50.5 66.5t-52.5 76Q367 210 342 250t-47 78h-43V67q22-4 40-12t31-17V0H20v38q20 10 41 17.5T102 67v566q-23 3-44.5 11T20 662v38h303v-38q-13-8-31.5-16T252 633V379l59 14 161 240q-20 4-39.5 12.5T399 662z"/><glyph unicode="Л" horiz-adv-x="701" d="M210 623q-31 5-58.5 16T104 662v38h577v-38q-15-9-36.5-17T599 633V67q23-4 43.5-12T681 38V0H373v38q17 9 36.5 16.5T449 67v568H286q-3-152-14-253.5T245 214q-16-66-35.5-104.5T169 43q-19-26-48-40.5T65-12Q52-7 40 8.5T18 44Q8 64 1.5 86T-6 127l27 38 119-29q13 28 25.5 67.5T188 301q10 58 16 137t6 185z"/><glyph unicode="М" horiz-adv-x="930" d="M909 0H610v38q20 10 39 17t41 12v418l5 117h-8l-33-107L461 0h-46L223 491l-36 117h-9l1-127V71q19-4 42-13t43-20V0H20v38q16 8 39.5 19T104 72v561q-20 4-42.5 11T22 662v38h271l153-407 29-96h1l30 98 156 405h248v-38q-17-10-36.5-17.5T834 633V66q21-4 40.5-12T909 38z"/><glyph unicode="Н" horiz-adv-x="769" d="M323 0H20v38q17 9 39.5 17T102 67v566q-24 4-46 12t-36 17v38h303v-38q-15-10-33.5-18T252 633V391h265v242q-22 4-39.5 12T446 662v38h303v-38q-17-11-39-18t-43-11V67q23-4 44.5-12T749 38V0H446v38q15 9 33 17t38 12v259H252V67q20-4 37-11t34-18z"/><glyph unicode="О" horiz-adv-x="754" d="M39 350q0 78 22 144.5t65 115Q169 658 232 685t145 27q82 0 145-27t105.5-75.5Q670 561 692 494.5T714 350q0-78-22-144.5t-64.5-115Q585 42 522 15T377-12q-82 0-145 27T126 90.5q-43 48.5-65 115T39 350zm170 0q0-64 10-118.5t31.5-94q21.5-39.5 55-62T386 53q43 0 73 22.5t49 62q19 39.5 27.5 94T544 350q0 64-9.5 118.5t-30 94q-20.5 39.5-54 62T369 647q-46 0-77-22.5t-49.5-62q-18.5-39.5-26-94T209 350z"/><glyph unicode="П" horiz-adv-x="758" d="M320 0H20v38q15 8 35 16.5T102 67v566q-20 4-41.5 11T20 662v38h718v-38q-19-12-40-18.5T656 633V67q37-4 82-29V0H438v38q10 8 26 15.5T506 67v568H252V67q20-5 36-12t32-17z"/><glyph unicode="Р" horiz-adv-x="640" d="M252 67q27-4 53.5-11.5T353 38V0H20v38q19 11 40.5 18T102 67v566q-23 4-44 11.5T20 662v38h126q40 0 91.5 4t94.5 4q53 0 103.5-10.5t90-35.5q39.5-25 63.5-66.5T613 492q0-59-23.5-102T527 319q-39-28-90-41.5T332 264h-16q-11 0-23.5.5t-24 1Q257 266 252 267zm54 576q-20 0-31.5-1.5T252 637V333q9-3 27-3.5t29-.5q27 0 52 9t44.5 28q19.5 19 31.5 49t12 72q0 80-39 118t-103 38z"/><glyph unicode="С" horiz-adv-x="652" d="M540 210h41q4-16 7.5-38.5t6-48Q597 98 598 73t1-45Q564 6 511.5-3T404-12q-83 0-150.5 20.5t-115 65Q91 118 65 186.5T39 351q0 95 28.5 163.5T144 627q48 44 111.5 64.5T389 712q66 0 119.5-9.5T596 677q0-16-1.5-41t-5-52.5q-3.5-27.5-8-54T573 485h-42l-55 151q-9 5-29 8t-41 3q-41 0-77-16.5T265 578q-28-36-44-92.5T205 350q0-143 57-220t155-77q28 0 47.5 4.5T491 70z"/><glyph unicode="Т" horiz-adv-x="666" d="M505 0H161v38q20 8 45.5 16.5T258 67v568H142L78 464H37q-4 20-8 51t-7 64q-3 33-5 65.5T15 700h636q0-24-2-56t-5-65q-3-33-7-63.5t-8-51.5h-41l-64 171H408V67q26-5 51.5-12T505 38z"/><glyph unicode="У" horiz-adv-x="684" d="M519 633q-24 5-42 12.5T442 662v38h242v-38q-11-8-29.5-15.5T613 633L422 201Q374 91 322 37.5T211-5q-8 8-16.5 24.5t-16 35Q171 73 166 90.5t-6 29.5l28 40 119-37q8 9 15 22t13 29L69 633q-19 5-36.5 12.5T0 662v38h312v-38q-30-18-76-29l141-271 21-64h2l20 66z"/><glyph unicode="Ф" horiz-adv-x="847" d="M284 700h274v-37q-11-7-27-15t-39-14v-43q10 2 23.5 3.5t26.5 2q13 .5 25 .5h20q52 0 94.5-16t73.5-47q31-31 48-75t17-99q0-63-21-109t-56-77q-35-31-80-46t-93-15q-5 0-15 .5t-21.5 1q-11.5.5-23 1.5t-18.5 3V66q20-5 36.5-13T558 37V0H284v37q14 8 32.5 16T355 65v52q-22-2-48.5-3t-46.5-1q-44 0-86 13t-74.5 41.5Q67 196 47 241T27 350q0 59 20 105t54.5 77.5q34.5 31.5 80.5 48t98 16.5h16q10 0 20.5-.5l21-1Q348 595 355 594v40q-23 5-41.5 13T284 663zm254-164q-13 0-24-1t-23-4V177q10-2 21.5-2.5t19.5-.5q26 0 50 10t42.5 32.5Q643 239 654 274t11 86q0 85-32 130.5T538 536zM315 174q11 0 20.5 1t20.5 4v355q-12 2-20.5 2H315q-25 0-49-10t-42.5-32.5q-18.5-22.5-30-58T182 350q0-88 36.5-132t96.5-44z"/><glyph unicode="Х" horiz-adv-x="728" d="M435 700h248v-38q-15-8-31.5-16T615 633L437 372 644 67q23-5 41.5-12.5T721 38V0H397v38q16 9 33.5 16.5T468 67L326 287 194 66q21-3 39-10t35-18V0H12v38q33 20 68 29l201 285L93 633q-19 5-36 13t-33 16v38h317v-38q-12-7-30-14.5T269 633l122-201 120 201q-20 4-40 12.5T435 662z"/><glyph unicode="Ц" horiz-adv-x="780" d="M20 0v38q14 8 35 16t47 13v566q-20 3-41.5 10.5T20 662v38h298v-38q-12-8-28-15.5T252 633V65h250v568q-18 4-35.5 12T435 662v38h299v-38q-20-12-40.5-18.5T652 633V65h117q-1-26-3-56.5T760.5-53q-3.5-31-8-59.5T743-163h-39L650 0z"/><glyph unicode="Ч" horiz-adv-x="686" d="M666 0H358v38q23 11 46 19t46 10v236q-28-17-75-31t-103-14q-40 0-75.5 8.5t-62 29.5q-26.5 21-42 57.5T77 446v187q-19 3-38 11T5 662v38h283v-38q-11-8-26.5-16T227 633V481q0-35 4-63t16-48q12-20 32.5-31t53.5-11q33 0 62.5 9.5T450 363v270q-17 5-33 12.5T388 662v38h278v-38q-13-9-30-16.5T600 633V67q20-4 37-12.5T666 38z"/><glyph unicode="Ш" horiz-adv-x="1006" d="M374 700h259v-38q-11-8-24.5-16T579 633V65h187v568q-29 7-57 29v38h277v-38q-31-20-70-29V67q20-5 37.5-12.5T986 38V0H20v38q16 9 35 17t37 12v566q-40 8-72 29v38h276v-38q-8-6-22.5-14.5T242 633V65h187v568q-34 11-55 29z"/><glyph unicode="Щ" horiz-adv-x="1044" d="M20 0v38q15 8 33 16.5T92 67v566q-19 3-38.5 11T20 662v38h276v-38q-9-8-23.5-16T242 633V65h187v568q-34 12-55 29v38h259v-38q-9-8-23-16t-31-13V65h187v568q-33 10-57 29v38h277v-38q-14-10-31.5-17.5T916 633V65h117q0-23-2-53t-5.5-61q-3.5-31-8-60.5T1007-163h-39L914 0z"/><glyph unicode="Ъ" horiz-adv-x="774" d="M478 700v-38q-17-10-42-17t-50-12V419q18 3 45.5 5t47.5 2q51 0 99-9.5t85.5-32.5q37.5-23 60.5-63t23-101q0-60-23-102.5t-63-69q-40-26.5-95.5-39T446-3q-5 0-21 .5t-37 1q-21 .5-42.5 1T309 0H154v38q18 10 38.5 17.5T236 67v568H132L79 464H37q-6 25-10 57.5T20.5 587q-2.5 33-4 63T15 700zm-36-339q-19 0-32-1.5t-24-4.5V66q9-2 28-3t30-1q28 0 53 8.5t44 27q19 18.5 30 48.5t11 74q0 72-38.5 106.5T442 361z"/><glyph unicode="Ы" horiz-adv-x="930" d="M910 0H607v38q16 9 34.5 16.5T680 67v566q-19 4-39.5 11T602 662v38h308v-38q-34-22-80-29V67q25-4 45-12.5T910 38zM20 0v38q18 10 39.5 17.5T102 67v566q-20 4-41 10.5T20 662v38h320v-38q-19-10-41.5-17.5T252 633V419q18 3 43 5t45 2q52 0 98.5-10t81-34q34.5-24 55-64T595 218q0-56-22-97.5t-60-69q-38-27.5-89-41T315-3q-5 0-20.5.5t-36 1Q238-1 217-.5T181 0zm284 361q-33 0-52-6V66q8-2 26-3t27-1q57 0 91 37t34 119q0 143-126 143z"/><glyph unicode="Ь" horiz-adv-x="640" d="M20 0v38q18 10 39.5 18T102 67v566q-20 4-42 11t-40 18v38h324v-38q-17-10-42-17.5T252 633V419q18 3 45.5 5t47.5 2q57 0 106-11t85-35.5q36-24.5 56.5-64T613 220q0-57-21.5-99T531 51.5q-39-27.5-94-41T315-3q-5 0-22 .5t-38 1q-21 .5-43.5 1T174 0zm288 361q-35 0-56-6V66q9-2 28-3t30-1q27 0 52 8.5t44 27q19 18.5 30.5 48.5t11.5 74q0 72-38.5 106.5T308 361z"/><glyph unicode="Э" horiz-adv-x="650" d="M191 303q-6 20-7 49.5t7 53.5l253-4q-5 121-59 183t-147 62q-27 0-46-5.5T163 628l-52-130H70q-3 11-6 32t-5.5 45Q56 599 55 624t0 45q18 12 42 20.5t50.5 13.5q26.5 5 53 7t47.5 2q86 0 153.5-22.5t114-67.5q46.5-45 71-111.5T611 356q0-101-30-171.5t-80-114Q451 27 385.5 7.5T249-12q-61 0-115 9.5T45 27q0 17 2 41t5 50.5q3 26.5 6.5 53T66 219h42l54-156q11-6 34-8t42-2q39 0 76 17.5t65.5 52.5q28.5 35 46 87.5T444 334z"/><glyph unicode="Ю" horiz-adv-x="1028" d="M328 0H20v38q18 10 38.5 17.5T102 67v566q-20 3-41.5 10.5T20 662v38h308v-38q-12-8-30-16t-46-13V391h110q5 69 28 128t63 101.5q40 42.5 95 67T673 712q77 0 136-27t98.5-75.5q39.5-48.5 60-115T988 350q0-78-19.5-144.5T910 91q-39-48-98.5-75.5T673-12q-77 0-134 25t-96 70q-39 45-59 107t-23 136H252V67q25-5 43.5-13T328 38zm195 350q0-140 36.5-218.5T679 53q41 0 68 22.5t42.5 62q15.5 39.5 22 94T818 350q0 64-7 118.5t-24 94q-17 39.5-46 62T667 647q-43 0-70.5-22.5t-44-62q-16.5-39.5-23-94T523 350z"/><glyph unicode="Я" horiz-adv-x="690" d="M670 700v-38q-13-8-35-16t-47-13V67q26-5 46-13t36-16V0H360v38q17 9 36.5 16.5T438 67v220h-84q-30-69-60.5-134T219 32L178 0H5v34l44 24q64 69 103.5 127T226 293q-26 9-52 24.5T127.5 357q-20.5 24-33 57T82 491q0 58 25 98.5t66 66q41 25.5 95 36.5t111 11q10 0 26.5-.5t35-1q18.5-.5 37.5-1t34-.5zM377 346q14 0 33.5 1.5T438 351v282q-8 2-25 3.5t-29 1.5q-29 0-54.5-7.5t-45-24.5q-19.5-17-31-44T242 496q0-75 36.5-112.5T377 346z"/><glyph unicode="а" horiz-adv-x="557" d="M470 145q0-22 .5-38t2.5-34l69-10V28q-12-6-32.5-12t-43-11.5Q444-1 422-4.5T383-10h-34q-10 23-12 46t-3 56h-5q-5-20-17-38.5t-30.5-33Q263 6 238-3t-56-9q-33 0-61 10T72 26Q51 44 39 69.5T27 127q0 45 17 74t53.5 47.5q36.5 18.5 94 27.5T331 289q8 86-7 126t-65 40q-31 0-57-10l-47-120h-44q-8 12-15.5 27.5t-14 33Q75 403 70.5 421T64 456q38 26 98 41t127 15q57 0 93-12.5t56.5-34Q459 444 467 415t8-62q0-60-2.5-108.5T470 145zM245 68q21 0 36 8t25.5 19q10.5 11 16 24t8.5 23v100q-47-1-77-6t-47-16.5q-17-11.5-23.5-29T177 148q0-38 18-59t50-21z"/><glyph unicode="б" horiz-adv-x="584" d="M31 271q0 125 23.5 209.5t71.5 136Q174 668 246.5 690T417 712l65 50h39q0-19-2.5-43.5t-7-48.5q-4.5-24-9.5-44t-9-30q-105 0-177.5-7t-119-31Q150 534 126 488.5T93 365h5q15 26 38.5 49.5t53 41q29.5 17.5 63 27.5t69.5 10q109 0 170-59.5T553 247q0-56-18-103.5t-52.5-82Q448 27 397 7.5T281-12q-57 0-103 19T99 62q-33 36-50.5 88.5T31 271zm155-9q0-63 7.5-104.5t22-66.5q14.5-25 35-35.5T298 45q50 0 74.5 46.5T397 240q0 101-31 142t-86 41q-24 0-46.5-13T197 380q-11-47-11-118z"/><glyph unicode="в" horiz-adv-x="573" d="M539 146q0-40-17-68.5T475 31q-30-18-70.5-26.5T318-4q-32 0-55 .5T223-2q-17 1-29.5 1.5T170 0H29v39q31 16 66 24v374q-38 7-66 24v39h135q48 0 85 2t74 2q95 0 144.5-26.5T517 385q0-24-10.5-43t-28-33Q461 295 440 286t-42-13q28-2 53.5-11t45-25q19.5-16 31-38.5T539 146zM239 57q14-3 30.5-3.5T298 53q45 0 68 23t23 67q0 43-26.5 64.5T293 229h-54zm0 215l89 10q16 10 31 32.5t15 55.5q0 77-89 77-11 0-23-.5t-23-3.5z"/><glyph unicode="г" horiz-adv-x="466" d="M456 500q-1-19-3.5-44t-6-52q-3.5-27-8.5-53t-10-46h-41l-44 138H239V63q57-11 90-24V0H29v39q17 10 33 15t33 9v375q-37 6-66 23v39z"/><glyph unicode="д" horiz-adv-x="605" d="M108 0L54-148H15Q9-99 4.5-42.5T0 63h73q12 14 27 42t28.5 72.5q13.5 44.5 23 106T161 427q-21 5-40.5 14T87 461v39h475v-39q-27-18-66-24V63h93q1-49-3.5-105.5T574-148h-39L481 0zm126 437q0-84-9-146t-22-107q-13-45-27-74.5T152 63h200v374z"/><glyph unicode="е" horiz-adv-x="537" d="M486 84q-8-17-25.5-34.5t-43-31Q392 5 358.5-3.5T286-12q-62 0-110 18.5t-80 53Q64 94 47.5 142T31 250q0 128 67 195t186 67q51 0 95.5-14t74-46q29.5-32 41-84T493 241H186q1-79 40.5-126T343 68q33 0 68.5 10t55.5 26zM280 455q-20 0-35.5-7t-27-25.5Q206 404 199 372.5T189 293h161q7 78-9 120t-61 42z"/><glyph unicode="ж" horiz-adv-x="803" d="M570 500h209v-39q-17-12-57-24-32-42-61.5-77.5T599 286q13-18 32-44t41-56q22-30 46.5-61.5T767 63l36-24V0H661l-28 23q-17 21-35 49.5T563 130q-17 29-30.5 55T511 228h-44V63q31-8 60-24V0H281v39q14 7 27.5 13T337 63v171l-50-10q-8-14-20-39.5T239 130q-16-29-33.5-58T170 23L140 0H0v39l42 24q25 29 48 60t43 60q20 29 37 54t31 43q-36 38-65.5 75T74 437q-26 6-50 24v39h209v-39q-19-14-50-24 13-24 25-43t24.5-37q12.5-18 26-36.5T290 278h47v159q-17 4-28.5 10T286 461v39h230v-39q-10-8-20.5-14T467 437V272l51 10q18 24 30.5 42t24 35.5Q584 377 595 395t25 42q-14 5-26 10t-24 14z"/><glyph unicode="з" horiz-adv-x="498" d="M201 53q54 0 80 28t26 68q0 43-19 58.5T234 228l-89-15q-5 12-6 33.5t6 35.5h97q17 8 34.5 30t17.5 61q0 38-21.5 60T211 455q-17 0-32.5-2.5T158 448l-45-113H79q-14 28-26.5 65.5T39 470q23 15 73 28.5T235 512q99 0 153-29.5t54-87.5q0-26-11-47t-29.5-36q-18.5-15-42-25.5T311 271q29-3 56.5-10.5t48.5-22q21-14.5 33.5-36.5t12.5-53q0-80-62.5-120.5T225-12q-68 0-117.5 17T29 48l27 94h29q15-14 33-38t32-43q10-4 22-6t29-2z"/><glyph unicode="и" horiz-adv-x="669" d="M29 500h266v-39q-11-6-25.5-12T235 437V212l-11-93h5l39 75 183 306h189v-39q-32-18-66-24V63q19-5 36-10.5T640 39V0H374v39q28 16 60 24v236l10 79h-5l-38-75L220 0H29v39q17 8 33 13.5T95 63v374q-39 6-66 24z"/><glyph unicode="й" horiz-adv-x="669" d="M29 500h266v-39q-11-6-25.5-12T235 437V212l-11-93h5l39 75 183 306h189v-39q-32-18-66-24V63q19-5 36-10.5T640 39V0H374v39q28 16 60 24v236l10 79h-5l-38-75L220 0H29v39q17 8 33 13.5T95 63v374q-39 6-66 24zm318 56q-99 0-144 36t-45 96q14 12 41 18.5t56 8.5l34-13v-89q25-11 59-11 10 0 27.5 2t31.5 6v92l34 13q27-2 53-8t40-19q0-60-45.5-96T347 556z"/><glyph unicode="к" horiz-adv-x="594" d="M342 500h229v-39q-10-8-24.5-13.5T508 434q-34-41-70-78.5T368 286q22-24 45-52t45.5-57.5q22.5-29.5 46-58.5T552 63l42-24V0H437l-32 23q-43 52-70.5 104T279 230h-40V63q32-9 56-24V0H29v39q27 16 66 24v374q-35 7-66 24v39h255v-39q-10-7-19.5-13T239 437V274l46 10q29 33 58 71t53 79q-17 7-29 13t-25 14z"/><glyph unicode="л" horiz-adv-x="590" d="M119 113q25 47 37 131.5T169 427q-20 6-38.5 15T98 461v39h463v-39q-32-18-66-24V63q21-5 37-11t29-13V0H296v39q12 8 24.5 14T351 63v380H241q-1-53-6-110.5T219.5 220Q209 165 192 116.5T151 34Q131 6 107-6t-43-8Q51-7 40 8.5T21 41Q13 58 8 75t-6 29l23 34z"/><glyph unicode="м" horiz-adv-x="800" d="M220 0H21v39q33 16 66 24l20 364q-21 8-37 17t-29 17v39h249l86-242 19-69h3l21 70 88 241h252v-39q-13-8-29-14t-37-10l20-374q33-6 66-24V0H513v39q10 5 24 11t36 13l-20 360h-8L393 0h-50L183 423h-8L160 63q36-11 60-24z"/><glyph unicode="н" horiz-adv-x="664" d="M294 0H29v39q14 8 31 13.5T95 63v374q-18 5-35 10.5T29 461v39h265v-39q-23-14-55-24V281h186v156q-29 6-55 24v39h265v-39q-27-17-66-24V63q18-4 35-9t31-15V0H370v39q26 19 55 24v161H239V63q17-4 30.5-10T294 39z"/><glyph unicode="о" horiz-adv-x="594" d="M31 250q0 61 18.5 109.5t53 82.5q34.5 34 83.5 52t111 18q70 0 120.5-19.5t83-54q32.5-34.5 47.5-83T563 250q0-61-18-109.5T492.5 58q-34.5-34-84-52T297-12q-68 0-118 19.5t-83 54q-33 34.5-49 83T31 250zm155 0q0-45 5.5-82.5T211 104q14-26 38-40.5T311 49q22 0 40 10.5t31 34q13 23.5 19.5 62T408 250q0 46-5.5 83t-19 63Q370 422 347 436.5T289 451q-26 0-45-10.5t-32-34q-13-23.5-19.5-62T186 250z"/><glyph unicode="п" horiz-adv-x="659" d="M294 0H29v39q19 11 35 16.5T95 63v374q-21 5-38 11t-28 13v39h601v-39q-13-8-29-15t-37-9V63q34-6 66-24V0H365v39q10 7 21.5 13T420 63v380H239V63q20-6 32-12t23-12z"/><glyph unicode="р" horiz-adv-x="609" d="M297-200H21v39q34 16 66 24v566l-66 8v39q16 7 39.5 13t48.5 10.5q25 4.5 48.5 7.5t39.5 5h34V400h1q17 48 53.5 80T387 512q44 0 79.5-14.5t60-45q24.5-30.5 38-78T578 261q0-63-17.5-114t-50-86q-32.5-35-79-54T326-12q-34 0-53.5 4.5T231 8v-145q16-2 32-7.5t34-16.5zm32 632q-34 0-60.5-24T231 334V68q16-12 34-17.5t47-5.5q57 0 84 55t27 161q0 82-20.5 126.5T329 432z"/><glyph unicode="с" horiz-adv-x="484" d="M456 81q-7-20-23-36.5T394.5 15Q372 2 343.5-5T284-12q-66 0-113.5 18.5T92 59.5q-31 34.5-46 83T31 250q0 127 69.5 194.5T298 512q49 0 90-10.5t68-24.5q-2-17-5.5-37.5t-8-41q-4.5-20.5-10.5-40T420 326h-49l-42 119q-7 5-15 7.5t-24 2.5q-26 0-45-9.5T212.5 413q-13.5-23-20-61t-6.5-94q0-41 9-75.5t27.5-60Q241 97 269 82.5T335 68q35 0 61 10t44 24z"/><glyph unicode="т" horiz-adv-x="542" d="M413 0H129v39q15 8 34 14t36 10v380h-73L82 305H40q-5 21-9.5 47T23 404.5Q20 431 17.5 456T15 500h512q0-18-2-43t-5.5-51.5q-3.5-26.5-8-53T502 305h-42l-44 138h-73V63q23-6 39-11t31-13z"/><glyph unicode="у" horiz-adv-x="528" d="M38 437q-15 4-27.5 10T-15 461v39h263v-38q-21-14-57-25l101-251 17-64h2l16 65 78 250q-30 6-55 24v39h193v-39q-21-14-57-24L323 0q-24-64-48-104.5T227-169q-24-24-48-33.5T131-215q-10 9-18 22.5t-14 29Q93-148 89-132t-5 30l13 24h122q9 14 15.5 30T250 0z"/><glyph unicode="ф" horiz-adv-x="791" d="M531-200H259v39q28 16 66 24V21Q313 6 288-3t-50-9q-46 0-84.5 14.5T87 47q-28 30-43.5 76T28 232q0 72 16 124.5t45 87q29 34.5 69.5 51.5t90.5 17q25 0 46-7.5t30-19.5v184l-76 8v39q14 6 38 12t50.5 11q26.5 5 51.5 8.5t42 4.5h34V479q14 15 39.5 24t53.5 9q45 0 82.5-14t64.5-43q27-29 42-72.5T762 280q0-76-16.5-131T700 58q-29-36-69-53t-86-17q-22 0-45 6.5T465 14v-151q37-6 66-24zM273 51q17 0 30 4.5T330 74v358q-12 8-25 12.5t-33 4.5q-20 0-37-9t-30-29.5Q192 390 185 356t-7-85q0-68 7-110.5t19.5-67Q217 69 234.5 60t38.5-9zm243 398q-17 0-29.5-4.5T460 428V69q12-10 25-14t33-4q18 0 35 9t30 31.5q13 22.5 21 59.5t8 94q0 61-6.5 101T587 408.5Q575 431 557 440t-41 9z"/><glyph unicode="х" horiz-adv-x="560" d="M343 268L501 63q26-8 49-24V0H295v38q11 8 22.5 14.5T341 63l-95 136-92-136q14-5 24.5-11T199 39V0H10v39q14 8 25.5 14T62 63l148 184L61 437q-14 5-25 10.5T16 461v39h251v-38q-12-8-21.5-14.5T222 437l87-124 83 124q-17 5-27 11t-18 13v39h185v-39q-10-7-22-13t-30-11z"/><glyph unicode="ц" horiz-adv-x="667" d="M29 0v39q27 16 66 24v374q-38 6-66 24v39h265v-39q-11-7-23.5-13T239 437V57h171v380q-14 3-26.5 9T355 461v39h265v-39q-13-7-29-13t-37-11V57h98q-2-48-8.5-103T632-148h-39L539 0z"/><glyph unicode="ч" horiz-adv-x="604" d="M3 500h262v-39q-20-16-52-24V326q0-42 14.5-66.5T278 235q26 0 48 8t39 19v175q-16 3-28 9t-25 15v39h263v-39q-27-17-66-24V63q20-5 36-10.5T575 39V0H285v39q41 17 80 24v156q-24-26-63-42.5T218 160q-70 0-109.5 38T69 301v136q-38 7-66 24z"/><glyph unicode="ш" horiz-adv-x="902" d="M663 57v380q-25 7-45 24v39h255v-39q-14-8-30-14t-36-10V63q37-8 66-24V0H29v39q28 16 66 24v374q-17 2-33 7.5T29 461v39h255v-39q-19-16-45-24V57h140v380q-14 5-27 10.5T328 461v39h240v-39q-7-7-18-13t-27-11V57z"/><glyph unicode="щ" horiz-adv-x="920" d="M29 0v39q28 16 66 24v374q-20 4-36 10t-30 14v39h255v-39q-8-7-19.5-13T239 437V57h140v380q-13 4-26.5 10T328 461v39h240v-39q-18-16-45-24V57h140v380q-26 8-45 24v39h255v-39q-14-8-30-13.5T807 437V57h98q-1-48-7-103t-13-102h-39L792 0z"/><glyph unicode="ъ" horiz-adv-x="635" d="M320 57q9-2 19.5-3t22.5-1q43 0 68.5 22.5T456 160q0 28-7 46t-18.5 28.5q-11.5 10.5-27 14T371 252q-13 0-25.5-1t-25.5-4zm60 443v-39q-12-8-27-13.5T320 437V301q17 2 45 5t68 3q82 0 131-37.5T613 159q0-40-16-70.5t-44-51q-28-20.5-66.5-31T403-4q-14 0-38 .5T313.5-2Q286-1 259-.5T213 0H110v39q28 16 66 24v380h-60L67 305H28q-4 19-8.5 44.5t-8 53q-3.5 27.5-6 53T3 500z"/><glyph unicode="ы" horiz-adv-x="830" d="M239 301l42.5 5q25.5 3 65.5 3 78 0 126.5-37.5T522 159q0-40-15.5-70.5t-43-51q-27.5-20.5-65-31T317-4q-14 0-38.5.5t-53 1.5Q197-1 169-.5T122 0H29v39q16 9 32.5 14T95 63v374q-19 3-35 9.5T29 461v39h270v-39q-24-14-60-24zm0-244q10-2 21.5-3t22.5-1q40 0 61 24.5t21 82.5q0 54-22.5 73T288 252q-11 0-24-1t-25-4zM801 0H536v39q12 7 25 13t30 11v374q-38 7-60 24v39h270v-39q-12-8-29-13.5T735 437V63q17-5 33-10.5T801 39z"/><glyph unicode="ь" horiz-adv-x="554" d="M239 301q17 2 45 5t68 3q82 0 131-37.5T532 159q0-40-16-70.5t-44-51q-28-20.5-66.5-31T322-4q-14 0-39.5.5t-55 1.5q-29.5 1-58 1.5T122 0H29v39q15 8 32 13.5T95 63v374q-19 4-35 10t-31 14v39h270v-39q-24-14-60-24zm0-244q10-2 21.5-3t22.5-1q21 0 38 5t29 17.5q12 12.5 18.5 33T375 160q0 27-6.5 44.5t-18 28q-11.5 10.5-27 15T290 252q-12 0-25.5-1t-25.5-4z"/><glyph unicode="э" horiz-adv-x="513" d="M224-12q-65 0-115.5 17T29 48l27 94h29q15-14 33-38t31-43q21-8 53-8 64 0 94 47.5T327 228l-175-20q-3 6-5 17t-2 22.5q0 11.5 2 22.5t5 17h174q-1 46-10 78.5t-24.5 52Q276 437 254.5 446t-47.5 9q-16 0-30-1.5t-19-5.5l-45-118H79q-13 29-25.5 65T37 466q28 17 73.5 31.5T230 512q48 0 93.5-13t80.5-43q35-30 56.5-78T482 260q0-71-22.5-122.5t-59-84.5Q364 20 318 4t-94-16z"/><glyph unicode="ю" horiz-adv-x="865" d="M294 0H29v39q14 8 31 13.5T95 63v374q-17 5-33 10.5T29 461v39h265v-39q-11-7-23-13t-32-11V281h86q3 54 22 97t51.5 73q32.5 30 77.5 45.5T577 512q124 0 190.5-67T834 247q0-60-17-108t-50-81.5Q734 24 686 6T577-12q-115 0-181 60.5T325 224h-86V63q20-4 32-10t23-14zm179 250q0-108 27.5-156.5T582 45q53 0 75 51t22 154q0 109-24 157t-82 48q-100 0-100-205z"/><glyph unicode="я" horiz-adv-x="584" d="M56 348q0 34 12 63t37.5 50q25.5 21 64.5 33t93 12q12 0 34.5-1t47.5-2q25-1 48-2t36-1h126v-39q-8-7-22.5-13T489 437V63q37-11 66-24V0H290v39q24 16 55 24v143l-66-10q-16-34-39.5-80T179 23L148 0H0v39l47 24q34 34 64.5 75.5T163 208q-22 7-41.5 18t-34 28q-14.5 17-23 40T56 348zm289 95q-10 2-25.5 4t-27.5 2q-88 1-88-98 0-45 28-73t86-28h27z"/><glyph unicode="ё" horiz-adv-x="537" d="M486 84q-8-17-25.5-34.5t-43-31Q392 5 358.5-3.5T286-12q-62 0-110 18.5t-80 53Q64 94 47.5 142T31 250q0 128 67 195t186 67q51 0 95.5-14t74-46q29.5-32 41-84T493 241H186q1-79 40.5-126T343 68q33 0 68.5 10t55.5 26zM280 455q-20 0-35.5-7t-27-25.5Q206 404 199 372.5T189 293h161q7 78-9 120t-61 42zM85 659q0 32 20 51t53 19q32 0 52.5-19t20.5-51q0-30-20.5-49T158 591q-33 0-53 19t-20 49zm239 0q0 32 20 51t52 19q33 0 53.5-19t20.5-51q0-30-20.5-49T396 591q-32 0-52 19t-20 49z"/><glyph unicode="ђ" horiz-adv-x="623" d="M17 597h68v72l-76 8v39q15 6 38.5 12T97 738.5q26 4.5 52 8t46 5.5h34V597h190v-61H229V365h1q10 23 27 43.5t38.5 36Q317 460 342 469t53 9q40 0 71.5-9.5T519 435q21-24 32-64.5T562 268V1q0-62-14-103t-43-65.5Q476-192 432.5-202T329-212l-5 46q27 7 45 18t29 30.5q11 19.5 15.5 48T418 0v231q0 87-16.5 127T337 398q-40 0-68-27.5T229 307V63q16-4 28.5-9T284 39V0H19v39q31 16 66 24v473H17z"/><glyph unicode="ѓ" horiz-adv-x="466" d="M456 500q-1-19-3.5-44t-6-52q-3.5-27-8.5-53t-10-46h-41l-44 138H239V63q57-11 90-24V0H29v39q17 10 33 15t33 9v375q-37 6-66 23v39zM293 763q8 2 26.5 1.5T358 761q20-3 36.5-8.5T416 741v-24L225 562l-40 22z"/><glyph unicode="є" horiz-adv-x="504" d="M476 81q-7-20-23-36.5T414.5 15Q392 2 363.5-5T304-12q-68 0-119 18.5t-85.5 53Q65 94 48 142.5T31 250q0 63 20 112t55.5 82q35.5 33 84.5 50.5T299 512q63 0 107.5-13.5T478 471q-2-17-6.5-36.5T460 396q-7-19-14-36.5T433 330h-34l-44 116q-14 9-45 9-24 0-46-9t-39-30q-17-21-27.5-55.5T186 275l168 13q7-13 7-36.5t-7-36.5l-164 2q11-65 54-107t111-42q35 0 61 10t44 24z"/><glyph unicode="ѕ" horiz-adv-x="452" d="M288 109q0 26-18.5 45t-46 35q-27.5 16-60 32t-60 37.5Q76 280 57.5 309T39 380q0 30 14 54.5T91 476q24 17 57.5 26.5T221 512q54 0 100.5-8.5T403 480q-4-32-16-68.5T364 345h-34l-42 102q-12 5-25 6.5t-29 1.5q-30 0-45.5-17.5T173 398q0-25 18.5-43.5t46-34.5q27.5-16 60-32t60-36.5q27.5-20.5 46-48.5t18.5-67q0-69-56-108.5T216-12q-48 0-99 10T29 26q2 36 17 73t32 66h34l49-109q11-8 24.5-9.5T211 45q29 0 53 17t24 47z"/><glyph unicode="і" horiz-adv-x="332" d="M307 0H31v39q15 8 31 13.5T97 63v366l-66 8v39q15 6 37.5 12t47.5 10.5q25 4.5 49 8t42 5.5h34V63q20-5 36-10.5T307 39zM80 664q0 35 24 55t62 20q38 0 62-20t24-55q0-34-24-54t-62-20q-38 0-62 20t-24 54z"/><glyph unicode="ї" horiz-adv-x="380" d="M32 663q0 34 18 53.5t51 19.5q32 0 49.5-19.5T168 663q0-32-17.5-51.5T101 592q-33 0-51 19.5T32 663zm179 0q0 34 18 53.5t50 19.5q33 0 50.5-19.5T347 663q0-32-17.5-51.5T279 592q-32 0-50 19.5T211 663zM328 0H52v39q15 8 31 13.5T118 63v366l-66 8v39q15 6 37.5 12t47.5 10.5q25 4.5 49.5 8T228 512h34V63q20-5 36-10.5T328 39z"/><glyph unicode="ј" horiz-adv-x="320" d="M97 429l-66 8v39q15 7 37 13t47 10.5q25 4.5 49.5 7.5t42.5 5h34V43q0-47-11.5-84t-30-64q-18.5-27-41-46t-44-31.5Q93-195 75-202t-28-10l-20 30q12 6 24 19.5T73.5-125q10.5 24 17 60.5T97 24zM80 664q0 35 24 55t62 20q38 0 62-20t24-55q0-34-24-54t-62-20q-38 0-62 20t-24 54z"/><glyph unicode="љ" horiz-adv-x="800" d="M561 461q-12-7-30-13t-36-11V301l42.5 5q25.5 3 65.5 3 78 0 126.5-37.5T778 159q0-40-15.5-70.5t-43-51q-27.5-20.5-65-31T573-4q-14 0-38.5.5t-53 1.5Q453-1 425-.5T378 0h-82v39q12 8 24.5 14T351 63v380H241q-1-53-6-110.5T219.5 220Q209 165 192 116.5T151 34Q131 6 107-6t-43-8Q51-7 40 8.5T21 41Q13 58 8 75t-6 29l23 34 94-25q25 47 37 131.5T169 427q-20 6-38.5 15T98 461v39h463zM495 57q10-2 21.5-3t22.5-1q40 0 61 24.5t21 82.5q0 54-22.5 73T544 252q-11 0-24-1t-25-4z"/><glyph unicode="њ" horiz-adv-x="874" d="M370 0v39q26 19 55 24v161H239V63q17-4 30.5-10T294 39V0H29v39q14 8 31 13.5T95 63v374q-18 5-35 10.5T29 461v39h265v-39q-23-14-55-24V281h186v156q-29 6-55 24v39h265v-39q-12-7-30-13t-36-11V301l42.5 5q25.5 3 65.5 3 78 0 126.5-37.5T852 159q0-40-15.5-70.5t-43-51q-27.5-20.5-65-31T647-4q-14 0-38.5.5t-53 1.5Q527-1 499-.5T452 0zm199 57q10-2 21.5-3t22.5-1q40 0 61 24.5t21 82.5q0 54-22.5 73T618 252q-11 0-24-1t-25-4z"/><glyph unicode="ћ" horiz-adv-x="631" d="M17 597h68v72l-76 8v39q15 6 38.5 12T97 738.5q26 4.5 52 8t46 5.5h34V597h190v-61H229V364h1q10 23 27 43.5t38.5 36Q317 459 342 468t53 9q40 0 71.5-9.5T519 434q21-24 32-64.5T562 267V72l63-9V28q-14-6-36-12T542.5 4.5q-24.5-5.5-48-9T453-10h-34l-1 240q0 87-16.5 127T337 397q-40 0-68-27.5T229 306V63q16-4 28.5-9T284 39V0H19v39q31 16 66 24v473H17z"/><glyph unicode="ќ" horiz-adv-x="594" d="M342 500h229v-39q-10-8-24.5-13.5T508 434q-34-41-70-78.5T368 286q22-24 45-52t45.5-57.5q22.5-29.5 46-58.5T552 63l42-24V0H437l-32 23q-43 52-70.5 104T279 230h-40V63q32-9 56-24V0H29v39q27 16 66 24v374q-35 7-66 24v39h255v-39q-10-7-19.5-13T239 437V274l46 10q29 33 58 71t53 79q-17 7-29 13t-25 14zm5 263q8 2 26.5 1.5T412 761q20-3 36.5-8.5T470 741v-24L279 562l-40 22z"/><glyph unicode="ў" horiz-adv-x="528" d="M38 437q-15 4-27.5 10T-15 461v39h263v-38q-21-14-57-25l101-251 17-64h2l16 65 78 250q-30 6-55 24v39h193v-39q-21-14-57-24L323 0q-24-64-48-104.5T227-169q-24-24-48-33.5T131-215q-10 9-18 22.5t-14 29Q93-148 89-132t-5 30l13 24h122q9 14 15.5 30T250 0zm247 119q-99 0-144 36t-45 96q14 12 41 18.5t56 8.5l34-13v-89q25-11 59-11 10 0 27.5 2t31.5 6v92l34 13q27-2 53-8t40-19q0-60-45.5-96T285 556z"/><glyph unicode="џ" horiz-adv-x="654" d="M294 461q-11-6-23-12t-32-12V57h176v380q-22 5-33.5 11T360 461v39h265v-39q-32-18-66-24V63q21-2 37-9t29-15V0H398q-6-48-20-96.5T349-190h-44q-16 48-28.5 95T256 0H29v39q11 7 28 13t38 11v374q-15 2-31 7.5T29 461v39h265z"/><glyph unicode="Ѣ" horiz-adv-x="769" d="M381 558V402q18 2 45.5 4t47.5 2q57 0 106-10t85-33.5q36-23.5 56.5-61.5t20.5-94q0-57-21.5-97.5t-60.5-66q-39-25.5-94-37T444-3q-5 0-22 .5t-38 1q-21 .5-43.5 1T303 0H149v38q18 10 39.5 18T231 67v491h-94L73 392H32q-4 20-8 49.5t-7 61Q14 534 12 565t-2 54h221v42q-20 4-42 11t-40 18v34h324v-34q-17-10-42-17.5T381 661v-42h248q-1-45-8-94.5T607 440h-42l-58 118zm56-215q-19 0-32-1t-24-4V66q9-2 28-3t30-1q27 0 52 6.5T535 92q19 17 30.5 45t11.5 72q0 72-38.5 103T437 343z"/><glyph unicode="ѣ" horiz-adv-x="646" d="M331 443V296q17 2 45 5t68 3q82 0 131-36.5T624 156q0-40-16-70t-44-50q-28-20-66.5-30T414-4q-14 0-39.5.5t-55 1.5q-29.5 1-58 1.5T214 0h-93v39q15 8 32 13.5T187 63v380h-68L75 305H33q-5 21-9.5 47T16 404.5Q13 431 10.5 456T8 500h179v169l-76 8v39q13 6 36 12t49.5 10.5q26.5 4.5 53 8T297 752h34V500h199q0-36-4-72t-11-78h-43l-69 93zm0-386q10-2 21.5-3t22.5-1q21 0 38 4.5T442 74q12 12 18.5 32t6.5 51q0 27-6.5 44.5t-18 27.5q-11.5 10-27 14t-33.5 4q-12 0-25.5-1t-25.5-4z"/><glyph unicode="Ѳ" horiz-adv-x="754" d="M39 350q0 78 22 144.5t65 115Q169 658 232 685t145 27q82 0 145-27t105.5-75.5Q670 561 692 494.5T714 350q0-78-22-144.5t-64.5-115Q585 42 522 15T377-12q-82 0-145 27T126 90.5q-43 48.5-65 115T39 350zM386 53q40 0 70 20t50 55.5q20 35.5 30.5 84T549 319q-42-51-91-51-24 0-46 10.5T368.5 301Q347 313 326 323.5T285 334q-17 0-39-6.5T205 300q4-54 16.5-99.5t35-78.5q22.5-33 55-51T386 53zm-17 594q-45 0-76-21t-50.5-58.5Q223 530 214 479.5T204 369q39 53 85 62 22 3 40-1 21-3 40.5-13t38-20.5q18.5-10.5 37-19T482 369q14 0 32 2.5t34 15.5q-2 56-13.5 104T501 573.5q-22 34.5-54.5 54T369 647z"/><glyph unicode="ѳ" horiz-adv-x="594" d="M31 250q0 61 18.5 109.5t53 82.5q34.5 34 83.5 52t111 18q70 0 120.5-19.5t83-54q32.5-34.5 47.5-83T563 250q0-61-18-109.5T492.5 58q-34.5-34-84-52T297-12q-68 0-118 19.5t-83 54q-33 34.5-49 83T31 250zm340 23q8 0 21 5t24 16q-6 73-36 117t-91 44q-51 0-81-43t-32-144q24 25 47 36t41 11q16 0 29.5-6.5t26-14.5q12.5-8 25-14.5T371 273zm-145-41q-11 0-24-8t-24-23q6-70 37.5-113T314 45q44 0 72.5 42.5T417 231q-43-43-82-43-16 0-30 7t-27 15q-13 8-26 15t-26 7z"/><glyph unicode="Ѵ" horiz-adv-x="763" d="M688 712q15-4 29.5-20t26.5-37.5q12-21.5 19.5-44.5t8.5-41l-31-35-107 28q-28-40-59-105t-61-142.5Q484 237 459 152T418-12h-84L75 633q-20 5-40 12.5T0 662v38h333v-38q-17-8-38-16t-44-13l128-374 23-94h2l18 95q20 79 45.5 146.5t52.5 121q27 53.5 53 92t46 59.5q17 18 34.5 25t34.5 8z"/><glyph unicode="ѵ" horiz-adv-x="558" d="M324 0l-86-12L43 437q-29 10-53 24v39h263v-38q-13-7-26.5-13.5T196 437l93-256 15-62h2l10 67q9 36 19 74t22.5 74.5q12.5 36.5 27.5 70t35 60.5q20 28 43.5 38.5T506 510q13-7 25-20.5t20.5-30q8.5-16.5 14-34.5t7.5-33l-28-39-84 25q-12-18-24-43t-23-53q-11-28-21-58t-18-57z"/><glyph unicode="Ҋ" horiz-adv-x="812" d="M321 0H20v38q19 10 40 18t42 11v566q-20 5-42 11.5T20 662v38h301v-38q-15-9-34-17t-41-12V253l-10-78 49 82 252 352v24q-47 11-79 29v38h301v-38q-17-11-38.5-17.5T677 633V65h112l10-13q-4-19-15.5-45.5t-28-55Q739-77 719-104t-40-46h-54L659 0H458v38q14 7 33.5 15.5T533 67v379l10 79-45-79L242 89V67q23-5 43-13t36-16zm69 741q-46 0-83.5 8.5t-64.5 25Q215 791 200.5 816T186 873q18 13 48 17t54 5l34-18v-78q14-7 32.5-9.5T391 787q14 0 34.5 2t34.5 7v81l34 18q19 2 47.5-3.5T592 873q0-64-54-98t-148-34z"/><glyph unicode="ҋ" horiz-adv-x="691" d="M29 500h266v-39q-11-6-25.5-12T235 437V212l-11-93h5l39 75 183 306h189v-39q-32-18-66-24V57h106l6-10q-5-24-19.5-53T633-62q-19-27-38.5-50T561-148h-49L543 0H374v39q28 16 60 24v236l10 79h-5l-38-75L220 0H29v39q17 8 33 13.5T95 63v374q-39 6-66 24zm323 51q-99 0-144 36t-45 96q8 6 20.5 10.5t26 8q13.5 3.5 27 5.5t23.5 3l34-13v-89q25-11 59-11 10 0 27.5 2t31.5 6v92l34 13q10-1 23.5-3.5t27-6q13.5-3.5 25-8T539 683q0-60-45.5-96T352 551z"/><glyph unicode="Ҍ" horiz-adv-x="683" d="M10 565h135v68q-20 4-42 11t-40 18v38h324v-38q-17-10-42-17.5T295 633v-68h194v-64H295v-82q18 3 45.5 5t47.5 2q57 0 106-11t85-35.5q36-24.5 56.5-64T656 220q0-57-21.5-99T574 51.5q-39-27.5-94-41T358-3q-5 0-22 .5t-38 1q-21 .5-43.5 1T217 0H63v38q18 10 39.5 18T145 67v434H10zm341-204q-35 0-56-6V66q9-2 28-3t30-1q27 0 52 8.5t44 27q19 18.5 30.5 48.5t11.5 74q0 72-38.5 106.5T351 361z"/><glyph unicode="ҍ" horiz-adv-x="544" d="M2 495h93v174l-76 8v39q14 6 38 12t51 10.5q27 4.5 53 8t44 5.5h34V495h145v-61H239V301l42.5 5q25.5 3 65.5 3 78 0 126.5-37.5T522 159q0-40-15.5-70.5t-43-51q-27.5-20.5-65-31T317-4q-14 0-38.5.5t-53 1.5Q197-1 169-.5T122 0H29v39q16 9 32.5 14T95 63v371H2zM239 57q10-2 21.5-3t22.5-1q40 0 61 24.5t21 82.5q0 54-22.5 73T288 252q-11 0-24-1t-25-4z"/><glyph unicode="Ҏ" horiz-adv-x="640" d="M252 67q27-4 53.5-11.5T353 38V0H20v38q19 11 40.5 18T102 67v566q-23 4-44 11.5T20 662v38h105q19 0 44 1t53 2.5q28 1.5 56.5 3T332 708q53 0 103.5-10.5t90-35.5q39.5-25 63.5-66.5T613 492q0-41-11.5-73.5t-31.5-58q-20-25.5-47.5-44T463 286l37-63-80-43-50 89q-15-3-31-4t-33-1q-10 0-28.5.5T252 267zm54 576q-20 0-31.5-1.5T252 637V333q9-3 27-3.5t29-.5q22 0 45 6l-54 93 48 26 52-92q22 19 35.5 49.5T448 487q0 80-39 118t-103 38z"/><glyph unicode="ҏ" horiz-adv-x="609" d="M297-200H21v39q34 16 66 24v566l-66 8v39q16 7 40 13.5t50 11.5q26 5 50.5 8t41.5 3h28V400q17 44 47 73.5t83 35.5q11 2 23 2t24-1q39-3 70.5-19t53.5-46.5q22-30.5 34-76T578 261q0-93-36.5-157T439 10l49-77-74-39-62 98q-25-4-52-1-23 1-37.5 5T231 8v-145q16-2 32-7.5t34-16.5zm32 632q-35 0-64-27.5T231 318V68q16-12 34-17.5t47-5.5q11 0 22 3l-54 87 50 31 52-83q20 26 30.5 71.5T423 261q0 82-20.5 126.5T329 432z"/><glyph unicode="Ґ" horiz-adv-x="538" d="M252 67q25-4 49.5-12T348 38V0H20v38q44 22 82 29v566q-20 4-41.5 11T20 662v38h390l60 150h42q4-24 7-54t5-60q2-30 2.5-56.5t.5-44.5H252z"/><glyph unicode="ґ" horiz-adv-x="441" d="M333 500q2 7 5 13.5t5 13.5l44 111h41q4-22 7-48t5-52.5q2-26.5 3.5-51.5t2.5-43H239V63q57-11 90-24V0H29v39q17 10 33 15t33 9v375q-37 6-66 23v39z"/><glyph unicode="Ғ" horiz-adv-x="562" d="M29 384h82v249q-20 4-41.5 11T29 662v38h512q0-24-1-55t-3-63q-2-32-6-63.5t-8-56.5h-41l-63 173H261V384h135v-70H261V67q25-4 49.5-12T357 38V0H29v38q44 22 82 29v247H29z"/><glyph unicode="ғ" horiz-adv-x="466" d="M456 500q-1-19-3.5-44t-6-52q-3.5-27-8.5-53t-10-46h-41l-44 138H239V259h94v-70h-94V63q57-11 90-24V0H29v39q17 10 33 15t33 9v126H26v70h69v179q-37 6-66 23v39z"/><glyph unicode="Ҕ" horiz-adv-x="652" d="M252 67q20-5 39-13t35-16V0H20v38q44 22 82 29v566q-20 4-41.5 11T20 662v38h512q0-24-1-52.5t-3-58q-2-29.5-6-58.5t-8-54h-41l-63 158H252V358q28 17 72.5 31T426 403q43 0 79.5-12t63-38.5Q595 326 610 283t15-104q0-71-13-124t-43.5-88Q538-68 488-86t-123-19l-6 45q40 12 63.5 30.5T458 15q12 26 15 60.5t2 78.5q-1 41-6 74t-17 56.5q-12 23.5-33 36T365 333q-33 0-61-9.5T252 298z"/><glyph unicode="ҕ" horiz-adv-x="596" d="M456 500q-1-38-5.5-83.5T438 330h-41l-54 113H239V222q24 26 63 42t84 16q70 0 112-38t42-103V0q0-62-14.5-103t-43-65q-28.5-24-72-34T307-212l-5 46q27 7 45 18t29 30.5q11 19.5 15.5 48T396 1v113q0 42-17.5 66.5T326 205q-26 0-48-8t-39-19V63q23-5 40.5-10.5T314 39V0H29v39q17 10 33 15t33 9v375q-37 6-66 23v39z"/><glyph unicode="Җ" horiz-adv-x="1040" d="M441 633q-20 5-36.5 13T376 662v38h260v-38q-10-7-24.5-14.5T577 633V378l68 15 144 240q-20 5-38.5 13T716 662v38h265v-38q-15-8-33.5-16T909 633L729 388q25-33 53.5-73t59.5-82.5q31-42.5 64.5-85.5T975 65h82q-1-26-3.5-56.5T1048-53q-3-31-7.5-59.5T1030-163h-39L937 0h-83l-43 34q-29 34-53 70t-45 73q-21 37-40.5 75.5T631 330h-54V67q17-5 33-12.5T641 38V0H371v38q14 9 31.5 16.5T441 67v272l-57-15q-42-81-80.5-152T212 34L169 0H0v34l41 24q36 40 70 83t65 85q31 42 58 81t50 71L105 633q-20 5-37 13t-30 16v38h264v-38q-13-8-31-16t-38-13l144-246h64z"/><glyph unicode="җ" horiz-adv-x="836" d="M633 23q-17 21-36 49.5T560.5 130q-17.5 29-32 55T506 228h-39V63q31-8 60-24V0H281v39q14 7 27.5 13T337 63v171l-45-10q-8-14-21-39.5T241.5 130q-16.5-29-35-58T170 23L140 0H0v39l42 24q25 29 48.5 60t44.5 60q21 29 39 54t32 43q-36 38-68 75t-64 82q-26 6-50 24v39h209v-39q-19-14-50-24 13-24 26-43t26-37q13-18 27.5-36.5T295 278h42v159q-17 4-28.5 10T286 461v39h230v-39q-10-8-20.5-14T467 437V272l46 10 31.5 42q13.5 18 25.5 35.5t24 35.5q12 18 26 42-14 5-26 10t-24 14v39h209v-39q-17-12-57-24-32-42-64-77.5T594 286q13-18 34-45t46-58q25-31 51.5-63.5T776 57h66q-2-48-8.5-103T822-148h-39L729 0h-68z"/><glyph unicode="Ҙ" horiz-adv-x="580" d="M543 199q0-45-15-80t-42.5-60.5Q458 33 419.5 17T333-6q-7-47-19.5-98T287-200h-44q-16 47-27 96T197-9q-47 4-90 13.5T38 27q0 16 3.5 39t8.5 47.5q5 24.5 11.5 49T74 207h42l40-142q11-5 35.5-8.5T237 53q66 0 106 38t40 103q0 71-35 100.5T254 324l-77-13q-5 18-6 41t5 42h32q17-1 39.5.5T286 398q77 32 79 124-2 59-31.5 92T248 647q-24 0-43.5-5.5T178 628l-49-127H87q-4 15-8 34.5t-7 42q-3 22.5-5.5 46T64 669q19 13 44.5 21t52 13q26.5 5 52.5 7t47 2q48 0 95-7t83.5-26.5q36.5-19.5 59-53T520 540q0-51-33.5-97.5T385 375v-4q31-5 59.5-18t50.5-34q22-21 35-51t13-69z"/><glyph unicode="ҙ" horiz-adv-x="498" d="M201 52q54 0 80 28.5t26 68.5q0 43-19 58.5T234 228l-89-15q-5 12-6 33.5t6 35.5h97q17 8 34.5 30t17.5 61q0 38-21.5 60T211 455q-17 0-32.5-2.5T158 448l-45-113H79q-14 28-26.5 65.5T39 470q23 15 73 28.5T235 512q99 0 153-29.5t54-87.5q0-26-11-47t-29.5-36q-18.5-15-42-25.5T311 271q29-3 56.5-10.5t48.5-22q21-14.5 33.5-36.5t12.5-53q0-68-45.5-107T290-8q-7-45-15.5-87.5T252-180h-44q-13 45-22 85.5T170-9q-48 5-83 20.5T29 48l27 94h29q15-14 33-38t32-43q10-4 22-6.5t29-2.5z"/><glyph unicode="Қ" horiz-adv-x="725" d="M399 700h268v-38q-17-11-39-18.5T588 633L398 392q23-32 53.5-72.5T517 236q35-43 71.5-87T660 65h84q-1-26-3-56.5T735.5-53q-3.5-31-8-59.5T718-163h-39L625 0h-89l-40 28q-24 30-50.5 66.5t-52.5 76Q367 210 342 250t-47 78h-43V67q22-4 40-12t31-17V0H20v38q20 10 41 17.5T102 67v566q-23 3-44.5 11T20 662v38h303v-38q-13-8-31.5-16T252 633V379l59 14 161 240q-20 4-39.5 12.5T399 662z"/><glyph unicode="қ" horiz-adv-x="610" d="M405 23q-43 52-70.5 104T279 230h-40V63q32-9 56-24V0H29v39q27 16 66 24v374q-35 7-66 24v39h255v-39q-10-7-19.5-13T239 437V274l46 10q29 33 58 71t53 79q-17 7-29 13t-25 14v39h229v-39q-10-8-24.5-13.5T508 434q-34-41-70-78.5T368 286q22-24 46-53t48-59.5q24-30.5 48.5-61T559 57h57q-2-48-8.5-103T596-148h-39L503 0h-66z"/><glyph unicode="Ҝ" horiz-adv-x="790" d="M484 700h258v-38q-17-11-39-18.5T663 633L484 401q22-33 52-75t64-87q34-45 70-90.5T741 63l48-29V0H615l-40 28q-24 30-49.5 67T475 171.5q-25 39.5-48.5 80T383 329h-21V184h-64v145h-48V67q22-4 40-12t31-17V0H20v38q20 10 41 17.5T102 67v566q-23 3-44.5 11T20 662v38h301v-38q-13-8-31.5-16T250 633V378l48 5v148h64V388l37 4 158 241q-20 4-39.5 12.5T484 662z"/><glyph unicode="ҝ" horiz-adv-x="694" d="M442 500h229v-39q-10-8-25-14t-38-13q-34-41-70-78.5T468 286q22-24 45-52t45.5-57.5q22.5-29.5 46-58.5T652 63l42-24V0H537l-32 23q-43 52-70.5 104T379 230h-26V112h-59v118h-55V63q32-9 56-24V0H29v39q27 16 66 24v374q-35 7-66 24v39h255v-39q-10-7-19.5-13T239 437V265l55 7v134h59V280l32 4q29 33 58 71t53 79q-17 7-29 13t-25 14z"/><glyph unicode="Ҟ" horiz-adv-x="725" d="M10 574h112v59q-23 3-44.5 11T40 662v38h303v-38q-13-8-31.5-16T272 633v-59h91v-63h-91V377l66 14 156 242q-20 4-39.5 12.5T421 662v38h258v-38q-17-11-39-18.5T600 633L424 401q22-33 51-75t62.5-87q33.5-45 69-90.5T677 63l48-29V0H551l-40 28q-24 30-49 66.5T412.5 171Q388 211 365 251t-42 77h-51V67q22-4 40-12t31-17V0H40v38q20 10 41 17.5T122 67v444H10z"/><glyph unicode="ҟ" horiz-adv-x="584" d="M229 274l46 10q30 33 59 71t52 79q-17 7-29 13t-25 14v39h229v-39q-10-8-24.5-13.5T498 434q-34-41-70-78.5T358 286q22-24 45-52t45.5-57.5q22.5-29.5 46-58.5T542 63l42-24V0H427l-32 23q-43 52-70.5 104T269 230h-40V63q31-9 56-24V0H19v39q27 16 66 24v496H7v61h78v49l-76 8v39q14 6 38 12t51 10.5q27 4.5 53 8t44 5.5h34V620h135v-61H229z"/><glyph unicode="Ҡ" horiz-adv-x="834" d="M528 700h258v-38q-17-11-39-18.5T707 633L526 401q22-33 52-75t64.5-87q34.5-45 71.5-90.5T786 63l48-29V0H661l-41 28q-24 30-50 66.5T518 171q-26 40-50 80t-43 77h-44V67q22-4 40-12t31-17V0H149v38q20 10 41 17.5T231 67v568H127L74 484H32q-6 25-10 54.5T15.5 597q-2.5 29-4 56T10 700h442v-38q-13-8-31.5-16T381 633V379l59 14 161 240q-20 4-39.5 12.5T528 662z"/><glyph unicode="ҡ" horiz-adv-x="675" d="M365 500v-39q-10-7-19.5-13T320 437V274l46 10q29 30 58.5 69.5T477 434q-17 7-29 13t-25 14v39h229v-39q-10-8-24.5-13.5T589 434q-34-41-70-78.5T449 286q22-24 45-52t45.5-57.5q22.5-29.5 46-58.5T633 63l42-24V0H518l-32 23q-43 52-70.5 104T360 230h-40V63q31-9 56-24V0H110v39q27 16 66 24v380h-60L67 315H33q-4 19-8.5 43t-8 49.5Q13 433 10.5 457T8 500z"/><glyph unicode="Ң" horiz-adv-x="787" d="M323 0H20v38q17 9 39.5 17T102 67v566q-24 4-46 12t-36 17v38h303v-38q-15-10-33.5-18T252 633V391h265v242q-22 4-39.5 12T446 662v38h303v-38q-17-11-39-18t-43-11V65h110q-1-26-3.5-56.5T768-53q-3-31-7.5-59.5T750-163h-39L657 0H446v38q15 9 33 17t38 12v259H252V67q20-4 37-11t34-18z"/><glyph unicode="ң" horiz-adv-x="676" d="M294 0H29v39q14 8 31 13.5T95 63v374q-18 5-35 10.5T29 461v39h265v-39q-23-14-55-24V281h186v156q-29 6-55 24v39h265v-39q-27-17-66-24V57h93q-2-48-8.5-103T642-148h-39L549 0H370v39q26 19 55 24v161H239V63q17-4 30.5-10T294 39z"/><glyph unicode="Ҥ" horiz-adv-x="958" d="M667 67q25-4 49.5-12T763 38V0H446v38q19 11 35 16.5T517 67v259H252V67q20-4 37-11t34-18V0H20v38q17 9 39.5 17T102 67v566q-24 4-46 12t-36 17v38h303v-38q-15-10-33.5-18T252 633V391h265v242q-19 2-40 10.5T446 662v38h501q0-24-1-55t-3-63q-2-32-6-63.5t-8-56.5h-41l-63 173H667z"/><glyph unicode="ҥ" horiz-adv-x="796" d="M370 0v39q26 19 55 24v161H239V63q17-4 30.5-10T294 39V0H29v39q14 8 31 13.5T95 63v374q-18 5-35 10.5T29 461v39h265v-39q-23-14-55-24V281h186v156q-29 6-55 24v39h416q-1-19-3.5-44t-6-52q-3.5-27-8.5-53t-10-46h-41l-44 138H569V63q57-11 90-24V0z"/><glyph unicode="Ҧ" horiz-adv-x="1056" d="M320 0H20v38q15 8 35 16.5T102 67v566q-20 4-41.5 11T20 662v38h718v-38q-19-12-40-18.5T656 633V358q28 17 72.5 31T830 403q43 0 79.5-12t63-38.5Q999 326 1014 283t15-104q0-71-13-124t-43.5-88Q942-68 892-86t-123-19l-6 45q40 12 63.5 30.5T862 15q12 26 15 60.5t2 78.5q-1 41-6 74t-17 56.5q-12 23.5-33 36T769 333q-33 0-61-9.5T656 298V67q19-5 35-12.5T723 38V0H438v38q10 8 26 15.5T506 67v568H252V67q20-5 36-12t32-17z"/><glyph unicode="ҧ" horiz-adv-x="922" d="M746 105q0 86-19.5 121.5T661 262q-36 0-60.5-19T564 191V63q34-6 66-24V0H365v39q10 7 21.5 13T420 63v380H239V63q20-6 32-12t23-12V0H29v39q19 11 35 16.5T95 63v374q-21 5-38 11t-28 13v39h601v-39q-13-8-29-15t-37-9V247q20 41 61 68t92 27q43 0 75-11t54-37q22-26 33-68t11-104V35q-1-125-57.5-186T656-212l-5 46q54 14 74.5 66T746 35z"/><glyph unicode="Ҩ" horiz-adv-x="909" d="M849 71q-10-35-48-59t-98-24q-46 0-84.5 13.5T562 31Q540 13 497 .5T409-12q-84 0-152.5 27T140 91q-48 49-74.5 116T39 354q0 75 23 140t64.5 113.5Q168 656 226 684t129 28q85 0 111-50l-9-23q-13 5-27 6.5t-22 1.5q-49 0-87-22.5t-64-63Q231 521 217.5 466T204 345q0-64 18.5-117.5T273 135q32-39 76-60.5T443 53q18 0 34 2.5t30 9.5q-28 15-57.5 41t-54 63.5q-24.5 37.5-40 85T340 360q0 67 21.5 121.5T420 575q37 39 84.5 60.5T605 657q52 0 100-18t84.5-55q36.5-37 58-92T869 364q0-62-22-112.5T793 163q-32-38-68-62.5T662 67q11-7 28-10.5t33-3.5q30 0 57.5 9.5T831 93zM490 352q0-45 9-83.5t23.5-70.5q14.5-32 33-56.5T593 101q22 15 42 41t35.5 60q15.5 34 24.5 75.5t9 88.5q0 44-5 85t-16.5 72.5Q671 555 652 573.5T605 592q-31 0-53-18t-35.5-50.5Q503 491 496.5 447t-6.5-95z"/><glyph unicode="ҩ" horiz-adv-x="726" d="M698 52q-3-18-13-30T662 2.5q-13-7.5-27.5-11T608-12q-35 0-69 8t-51 21q-13-6-30-11.5t-36.5-9Q402-7 382-9.5T344-12q-73 0-131 18.5t-98.5 53q-40.5 34.5-62 83T31 250q0 54 19 101.5t53 83.5q34 36 82 56.5T290 512q48 0 70.5-15.5T384 456l-5-7q-23 6-44 6-33-1-60.5-16.5t-47-42.5Q208 369 197 332t-11-82q0-45 14.5-83t40-65Q266 75 299 60t71-15q7 0 16.5.5l19 1Q415 47 423 48t12 3q-27 7-53.5 25T334 119.5Q313 145 300.5 177T288 243q0 54 17.5 93.5t46.5 65q29 25.5 67 38t80 12.5q38 0 74-12.5t63.5-37.5q27.5-25 44.5-63.5t17-89.5q0-35-13.5-68T649 121q-22-27-49.5-45.5T544 50q14-5 38-6.5t41-.5q17 1 35 7t31 17zM409 242q0-52 19.5-99T483 70q28 20 48.5 66.5T552 257q0 27-3.5 52T537 353q-8 19-20.5 30.5T485 395q-33 0-54.5-41T409 242z"/><glyph unicode="Ҫ" horiz-adv-x="652" d="M540 210h41q4-16 7.5-38.5t6-48Q597 98 598 73t1-45q-27-18-66.5-26.5T452-10q-6-45-18.5-95.5T407-200h-44q-17 48-28 98T316-5q-64 9-115.5 35T113 100q-36 44-55 106T39 351q0 95 28.5 163.5T144 627q48 44 111.5 64.5T389 712q66 0 119.5-9.5T596 677q0-16-1.5-41t-5-52.5q-3.5-27.5-8-54T573 485h-42l-55 151q-9 5-29 8t-41 3q-41 0-77-16.5T265 578q-28-36-44-92.5T205 350q0-143 57-220t155-77q28 0 47.5 4.5T491 70z"/><glyph unicode="ҫ" horiz-adv-x="484" d="M456 81q-12-33-47-57T324-8q-11-90-37-172h-44q-13 46-22 88.5T204-3Q115 17 73 84T31 250q0 127 69.5 194.5T298 512q49 0 90-10.5t68-24.5q-2-17-5.5-37.5t-8-41q-4.5-20.5-10.5-40T420 326h-49l-42 119q-7 5-15 7.5t-24 2.5q-26 0-45-9.5T212.5 413q-13.5-23-20-61t-6.5-94q0-41 9-75.5t27.5-60Q241 97 269 82.5T335 68q35 0 61 10t44 24z"/><glyph unicode="Ҭ" horiz-adv-x="666" d="M161 38q20 8 45.5 16.5T258 67v568H142L78 464H37q-4 20-8 51t-7 64q-3 33-5 65.5T15 700h636q0-24-2-56t-5-65q-3-33-7-63.5t-8-51.5h-41l-64 171H408V67q8-1 16.5-1H523q-1-26-3-57t-5.5-61.5q-3.5-30.5-8-59.5t-9.5-51h-39L404 0H161z"/><glyph unicode="ҭ" horiz-adv-x="542" d="M128 39q16 8 35 14t36 10v380h-73L82 305H40q-5 21-9.5 47T23 404.5Q20 431 17.5 456T15 500h512q0-18-2-43t-5.5-51.5q-3.5-26.5-8-53T502 305h-43l-44 138h-72V57h102q-2-48-8.5-103T425-148h-39L332 0H128z"/><glyph unicode="Ү" horiz-adv-x="698" d="M453 700h245v-38q-15-9-33.5-17.5T627 633L433 293V67q20-2 39.5-10.5T509 38V0H201v38q17 9 38 17t44 12v225L81 633q-23 4-43.5 12T0 662v38h328v-38q-14-8-32-16t-42-13l143-268 136 268q-23 5-44 13t-36 16z"/><glyph unicode="ү" horiz-adv-x="539" d="M414-200H138v39q15 8 31 13.5t35 10.5V23L43 437q-29 10-53 24v39h263v-38q-13-7-26.5-13.5T196 437l90-261 22-87h2l19 88 82 260q-16 4-29.5 10T356 461v39h193v-39q-10-7-24.5-13T492 437L348 22v-159q20-5 36-10.5t30-13.5z"/><glyph unicode="Ұ" horiz-adv-x="698" d="M458 700h240v-38q-15-9-36-17.5T622 633L434 294h140v-67H433V67q20-2 39.5-10.5T509 38V0H201v38q17 9 38 17t44 12v160H142v67h140L81 633q-23 4-43.5 12T0 662v38h328v-38q-14-8-32-16t-42-13l144-274 140 274q-23 5-44 13t-36 16z"/><glyph unicode="ұ" horiz-adv-x="539" d="M98 61h92L43 437q-29 10-53 24v39h263v-38q-13-7-26.5-13.5T196 437l78-236 33-112h2l30 113 72 235q-16 4-29.5 10T356 461v39h193v-39q-10-7-24.5-13T492 437L359 61h96V0L348-1v-136q20-5 36-10.5t30-13.5v-39H138v39q15 8 31 13.5t35 10.5V0H98z"/><glyph unicode="Ҳ" horiz-adv-x="729" d="M394 38q16 9 33.5 16.5T465 67L323 287 191 66q21-3 39-10t35-18V0H9v38q33 20 68 29l201 285L90 633q-19 5-36 13t-33 16v38h317v-38q-12-7-30-14.5T266 633l122-201 120 201q-20 4-40 12.5T432 662v38h248v-38q-15-8-31.5-16T612 633L434 372 644 65h106q-1-26-3.5-56.5T741-53q-3-31-7.5-59.5T723-163h-39L630 0H394z"/><glyph unicode="ҳ" horiz-adv-x="560" d="M295 38q11 8 22.5 14.5T341 63l-94 137-93-137q14-5 24.5-11T199 39V0H10v39q14 8 25.5 14T62 63l149 185L61 437q-14 5-25 10.5T16 461v39h251v-38q-12-8-21.5-14.5T222 437l87-124 83 124q-17 5-27 11t-18 13v39h185v-39q-10-7-22-13t-30-11L343 268 506 57h76q-2-48-8.5-103T562-148h-39L469 0H295z"/><glyph unicode="Ҵ" horiz-adv-x="967" d="M170 0v38q20 8 45.5 16.5T267 67v573H149L87 464H45q-4 20-7.5 51T31 579q-3 33-5.5 65.5T23 700h579q0-24-2-56t-5-65q-3-33-7-63.5t-8-51.5h-42l-58 176h-66V65h278v568q-33 9-54 29v38h283v-38q-19-12-40-18.5T839 633V65h118q-1-26-3.5-56.5T948-53q-3-31-7.5-59.5T930-163h-39L837 0z"/><glyph unicode="ҵ" horiz-adv-x="856" d="M338 57h261v380q-14 3-26 9t-24 15v39h260v-39q-13-7-29-13t-37-11V57h98q-2-48-8.5-103T821-148h-39L728 0H128v39q27 16 66 24v380h-68L82 305H40q-5 21-9.5 47T23 404.5Q20 431 17.5 456T15 500h502q0-18-2-43t-5.5-51.5q-3.5-26.5-8-53T492 305h-43l-44 138h-67z"/><glyph unicode="Ҷ" horiz-adv-x="725" d="M358 38q23 11 46 19t46 10v236q-28-17-75-31t-103-14q-40 0-75.5 8.5t-62 29.5q-26.5 21-42 57.5T77 446v187q-19 3-38 11T5 662v38h283v-38q-11-8-26.5-16T227 633V481q0-35 4-63t16-48q12-20 32.5-31t53.5-11q33 0 62.5 9.5T450 363v270q-17 5-33 12.5T388 662v38h278v-38q-13-9-30-16.5T600 633V65h115q-1-26-3.5-56.5T706-53q-3-31-7.5-59.5T688-163h-39L595 0H358z"/><glyph unicode="ҷ" horiz-adv-x="604" d="M285 39q41 17 80 24v156q-24-26-63-42.5T218 160q-70 0-109.5 38T69 301v136q-38 7-66 24v39h262v-39q-20-16-52-24V326q0-42 14.5-66.5T278 235q26 0 48 8t39 19v175q-16 3-28 9t-25 15v39h263v-39q-27-17-66-24V57h95q-2-48-8.5-103T584-148h-39L491 0H285z"/><glyph unicode="Ҹ" horiz-adv-x="729" d="M334 261q-29-3-59-3-40 0-76 8.5T136 296q-27 21-43 57.5T77 446v187q-19 3-38 11T5 662v38h288v-38q-11-8-29-16t-37-13V481q0-34 5-62t17.5-47.5q12.5-19.5 33-31T334 328v147h64V333q28 5 53.5 12.5T493 363v270q-16 5-32 12.5T431 662v38h278v-38q-13-9-30-16.5T643 633V67q20-4 37-12.5T709 38V0H401v38q23 11 46 19t46 10v236q-15-8-40-16.5T398 271V133h-64z"/><glyph unicode="ҹ" horiz-adv-x="679" d="M302 163q-26-3-49-3-53 0-88.5 10T108 198.5Q87 217 78 243t-9 58v136q-38 7-66 24v39h262v-39q-20-16-52-24V326q0-40 19.5-64t69.5-27v156h59V239q23 4 45.5 9.5T440 262v175q-16 3-28 9t-25 15v39h263v-39q-27-17-66-24V63q20-5 36-10.5T650 39V0H360v39q41 17 80 24v156q-13-14-33.5-24.5T361 176V97h-59z"/><glyph unicode="Һ" horiz-adv-x="686" d="M20 700h308v-38q-23-11-46-19t-46-10V397q28 17 75 31t103 14q40 0 75.5-8.5t62-29.5q26.5-21 42-57.5T609 254V67q19-3 38-11t34-18V0H398v38q11 8 26.5 16T459 67v152q0 35-4 63t-16 48q-12 20-32.5 31T353 372q-33 0-62.5-9.5T236 337V67q17-5 33-12.5T298 38V0H20v38q13 9 30 16.5T86 67v566q-20 4-37 12.5T20 662z"/><glyph unicode="һ" horiz-adv-x="640" d="M628 0H363v39q12 7 25 13t30 11v202q0 86-16.5 126.5T337 432q-40 0-68-27.5T229 341V63q16-4 28.5-9T284 39V0H19v39q31 16 66 24v606l-76 8v39q15 6 38.5 12T97 738.5q26 4.5 52 8t46 5.5h34V399h1q10 23 27 43.5t38.5 36Q317 494 342 503t53 9q40 0 71.5-9.5T519 469q21-24 32-64.5T562 302V63q17-4 34-9t32-15z"/><glyph unicode="Ҽ" horiz-adv-x="849" d="M506 712q65 0 120-19.5t94.5-57q39.5-37.5 62-93.5T805 413q0-51-6-82H333q2-102 44-161.5t104.5-81q62.5-21.5 134-9T748 134l15-33q-20-29-48.5-50T654 16Q622 2 589-5t-62-7q-74 0-138 20.5T277 71q-48 42-76.5 106.5T169 331q-43 1-75.5 13.5t-54.5 33q-22 20.5-33.5 48T-6 484q0 12 2.5 28t8 31.5q5.5 15.5 14 30T38 599q23-2 54-15.5t54-32.5l8-29-84-71q11-26 38-40t62-15q7 79 36.5 138.5t74.5 99q45 39.5 103 59T506 712zm-6-65q-79 0-121.5-61.5T333 396h307q1 11 1.5 21t.5 20q0 101-38 155.5T500 647z"/><glyph unicode="ҽ" horiz-adv-x="661" d="M610 84q-8-17-25.5-34.5t-43-31Q516 5 482.5-3.5T410-12q-61 0-108 18t-79 51q-32 33-49.5 79.5T155 241q-41 1-69.5 12T39 282q-18 18-26 41.5T5 373q0 29 11.5 58.5T49 482q11 1 25-4.5t27-14.5q13-9 23.5-20.5T140 420q1-5 1.5-9t1.5-8l-73-62q8-25 33-35.5t54-12.5q11 106 76.5 162.5T408 512q51 0 95.5-14t74-46q29.5-32 41-84T617 241H310q1-79 41-126t116-47q32 0 68 10t56 26zM404 455q-20 0-35.5-7t-27-25.5Q330 404 323 372.5T313 293h161q7 78-9 120t-61 42z"/><glyph unicode="Ҿ" horiz-adv-x="849" d="M431-3q-8 1-15.5 3.5T400 5q-50 14-91.5 41T237 113.5Q207 154 189 208t-20 123q-43 1-75.5 13.5t-54.5 33q-22 20.5-33.5 48T-6 484q0 12 2.5 28t8 31.5q5.5 15.5 14 30T38 599q23-2 54-15.5t54-32.5l8-29-84-71q11-26 38-40t62-15q7 79 36.5 138.5t74.5 99q45 39.5 103 59T506 712q65 0 120-19.5t94.5-57q39.5-37.5 62-93.5T805 413q0-51-6-82H333q2-102 44-161.5t104.5-81q62.5-21.5 134-9T748 134l15-33q-34-48-88-75T567-9q-6-45-18.5-96T522-200h-44q-17 48-28 99T431-3zm69 650q-79 0-121.5-61.5T333 396h307q1 11 1.5 21t.5 20q0 101-38 155.5T500 647z"/><glyph unicode="ҿ" horiz-adv-x="661" d="M610 84q-14-30-53.5-56.5T459-8q-11-90-37-172h-44q-13 46-22 88T339-5q-88 19-135 83.5T155 241q-41 1-69.5 12T39 282q-18 18-26 41.5T5 373q0 29 11.5 58.5T49 482q11 1 25-4.5t27-14.5q13-9 23.5-20.5T140 420q1-5 1.5-9t1.5-8l-73-62q8-25 33-35.5t54-12.5q11 106 76.5 162.5T408 512q51 0 95.5-14t74-46q29.5-32 41-84T617 241H310q1-79 41-126t116-47q32 0 68 10t56 26zM404 455q-20 0-35.5-7t-27-25.5Q330 404 323 372.5T313 293h161q7 78-9 120t-61 42z"/><glyph unicode="Ӏ" horiz-adv-x="372" d="M342 0H30v38q40 22 81 29v566q-20 3-42 11t-39 18v38h312v-38q-18-11-39.5-18.5T261 633V67q20-4 41.5-11T342 38z"/><glyph unicode="Ӄ" horiz-adv-x="705" d="M504 7q0 48-21.5 98.5t-52.5 95Q399 245 364.5 279T303 328h-51V67q22-4 40-12t31-17V0H20v38q20 10 41 17.5T102 67v566q-23 3-44.5 11T20 662v38h303v-38q-13-8-31.5-16T252 633V379l59 14 156 240q-20 4-37 12.5T399 662v38h258v-38q-17-11-39-18.5T578 633L401 396q34-18 78.5-55t84.5-86.5Q604 205 631.5 147T659 28q0-59-19.5-103T584-149q-36-30-86.5-45.5T384-211l-6 45q58 13 92 53.5T504 7z"/><glyph unicode="ӄ" horiz-adv-x="594" d="M422-21q0 39-14 76.5T373 126q-21 33-46 60t-48 44h-40V63q32-9 56-24V0H29v39q27 16 66 24v374q-35 7-66 24v39h255v-39q-10-7-19.5-13T239 437V274l46 10q29 33 58 71t53 79q-17 7-29 13t-25 14v39h229v-39q-10-8-24.5-13.5T508 434q-34-41-70-78.5T368 286q30-15 65-44t66-68q31-39 51.5-86.5T571-12q0-105-56.5-152.5T338-212l-5 46q50 13 69.5 49T422-21z"/><glyph unicode="Ӆ" horiz-adv-x="726" d="M210 623q-31 5-58.5 16T104 662v38h577v-38q-15-9-36.5-17T599 633V66h105l10-14q-4-19-15.5-45.5t-28-55Q654-77 634-104t-40-46h-54L574 0H373v38q17 9 36.5 16.5T449 67v568H286q-3-152-14-253.5T245 214q-16-66-35.5-104.5T169 43q-19-26-48-40.5T65-12Q52-7 40 8.5T18 44Q8 64 1.5 86T-6 127l27 38 119-29q13 28 25.5 67.5T188 301q10 58 16 137t6 185z"/><glyph unicode="ӆ" horiz-adv-x="595" d="M106 113q13 23 22 57t15 74.5q6 40.5 9.5 87T156 427q-20 6-38.5 15T85 461v39h463v-39q-32-18-66-24V57h105l6-10q-5-24-19.5-53T540-62q-19-27-38.5-50T468-148h-49L450 0H283v39q12 8 24.5 14T338 63v380H228q-1-53-6-110.5T206.5 220q-10.5-55-27-103.5T138 34Q118 6 94-6t-43-8Q38-7 27 8.5T8 41Q0 58-5 75t-6 29l23 34z"/><glyph unicode="Ӈ" horiz-adv-x="769" d="M323 0H20v38q17 9 39.5 17T102 67v566q-24 4-46 12t-36 17v38h303v-38q-15-10-33.5-18T252 633V391h265v242q-22 4-39.5 12T446 662v38h303v-38q-17-11-39-18t-43-11V0q0-68-16-109.5t-46.5-64q-30.5-22.5-77-30T419-211l-6 45q27 6 47 16t32.5 28.5Q505-103 511-74t6 74v326H252V67q20-4 37-11t34-18z"/><glyph unicode="ӈ" horiz-adv-x="664" d="M294 0H29v39q14 8 31 13.5T95 63v374q-18 5-35 10.5T29 461v39h265v-39q-23-14-55-24V281h186v156q-29 6-55 24v39h265v-39q-27-17-66-24V0q0-62-14.5-103t-43-65q-28.5-24-72-34T336-212l-5 46q27 7 45 18t29 30.5q11 19.5 15.5 48T425 0v224H239V63q17-4 30.5-10T294 39z"/><glyph unicode="Ӊ" horiz-adv-x="799" d="M323 0H20v38q17 9 39.5 17T102 67v566q-24 4-46 12t-36 17v38h303v-38q-15-10-33.5-18T252 633V391h265v242q-22 4-39.5 12T446 662v38h303v-38q-17-11-39-18t-43-11V66h110l10-14q-4-19-15.5-45.5t-28-55Q727-77 707-104t-40-46h-54L647 0H446v38q15 9 33 17t38 12v259H252V67q20-4 37-11t34-18z"/><glyph unicode="ӊ" horiz-adv-x="682" d="M294 0H29v39q14 8 31 13.5T95 63v374q-18 5-35 10.5T29 461v39h265v-39q-23-14-55-24V281h186v156q-29 6-55 24v39h265v-39q-27-17-66-24V57h103l6-10q-5-24-19.5-53T625-62q-19-27-38.5-50T553-148h-49L535 0H370v39q26 19 55 24v161H239V63q17-4 30.5-10T294 39z"/><glyph unicode="Ӌ" horiz-adv-x="686" d="M666 0H454l-54-163h-39q-5 22-9.5 50.5t-8 59.5Q340-22 338 8.5T335 65h115v238q-28-17-75-31t-103-14q-40 0-75.5 8.5t-62 29.5q-26.5 21-42 57.5T77 446v187q-19 3-38 11T5 662v38h283v-38q-11-8-26.5-16T227 633V481q0-35 4-63t16-48q12-20 32.5-31t53.5-11q33 0 62.5 9.5T450 363v270q-17 5-33 12.5T388 662v38h278v-38q-13-9-30-16.5T600 633V67q20-4 37-12.5T666 38z"/><glyph unicode="ӌ" horiz-adv-x="604" d="M3 500h262v-39q-20-16-52-24V326q0-42 14.5-66.5T278 235q26 0 48 8t39 19v175q-16 3-28 9t-25 15v39h263v-39q-27-17-66-24V63q20-5 36-10.5T575 39V0H362l-54-148h-39q-5 47-11.5 102T249 57h116v162q-24-26-63-42.5T218 160q-70 0-109.5 38T69 301v136q-38 7-66 24z"/><glyph unicode="Ӎ" horiz-adv-x="931" d="M834 65h107l10-13q-4-19-15.5-45.5t-28-55Q891-77 871-104t-40-46h-54L811 0H610v38q20 10 39 17t41 12v418l5 117h-8l-33-107L461 0h-46L223 491l-36 117h-9l1-127V71q19-4 42-13t43-20V0H20v38q16 8 39.5 19T104 72v561q-20 4-42.5 11T22 662v38h271l153-407 29-96h1l30 98 156 405h248v-38q-17-10-36.5-17.5T834 633z"/><glyph unicode="ӎ" horiz-adv-x="826" d="M220 0H21v39q33 16 66 24l20 364q-21 8-37 17t-29 17v39h249l84-257 19-69h3l21 70 90 256h252v-39q-13-8-29-14t-37-10V57h125l5-10q-5-24-19.5-53t-33-56q-18.5-27-38-50T698-148h-49L680 0H513v39q10 5 24 11t36 13l-20 360h-8L399 0h-69L183 423h-8L160 63q36-11 60-24z"/><glyph unicode="ӏ" horiz-adv-x="338" d="M309 0H29v39q12 7 32.5 13T99 63v574q-19 4-39 10t-31 14v39h280v-39q-12-8-29-13.5T243 637V63q17-5 33-10.5T309 39z"/><glyph unicode="Ӑ" horiz-adv-x="729" d="M247 0H0v38q16 10 34.5 17.5T71 67l258 645h74L654 67q20-4 40-11.5T729 38V0H416v38q19 9 41 17t42 12l-58 159H219L160 67q46-6 87-29zm-4 291h177l-65 191-19 86h-2l-22-88zm126 450q-46 0-83.5 8.5t-64.5 25Q194 791 179.5 816T165 873q18 13 47.5 17t54.5 5l34-18v-78q14-7 32.5-9.5T370 787q14 0 34.5 2t34.5 7v81l34 18q18 2 47-3.5t51-18.5q0-64-54-98t-148-34z"/><glyph unicode="ӑ" horiz-adv-x="557" d="M470 145q0-22 .5-38t2.5-34l69-10V28q-12-6-32.5-12t-43-11.5Q444-1 422-4.5T383-10h-34q-10 23-12 46t-3 56h-5q-5-20-17-38.5t-30.5-33Q263 6 238-3t-56-9q-33 0-61 10T72 26Q51 44 39 69.5T27 127q0 45 17 74t53.5 47.5q36.5 18.5 94 27.5T331 289q8 86-7 126t-65 40q-31 0-57-10l-47-120h-44q-8 12-15.5 27.5t-14 33Q75 403 70.5 421T64 456q38 26 98 41t127 15q57 0 93-12.5t56.5-34Q459 444 467 415t8-62q0-60-2.5-108.5T470 145zM245 68q21 0 36 8t25.5 19q10.5 11 16 24t8.5 23v100q-47-1-77-6t-47-16.5q-17-11.5-23.5-29T177 148q0-38 18-59t50-21zm35 488q-99 0-144 36t-45 96q14 12 41 18.5t56 8.5l34-13v-89q25-11 59-11 10 0 27.5 2t31.5 6v92l34 13q27-2 53-8t40-19q0-60-45.5-96T280 556z"/><glyph unicode="Ӓ" horiz-adv-x="729" d="M247 0H0v38q16 10 34.5 17.5T71 67l258 645h74L654 67q20-4 40-11.5T729 38V0H416v38q19 9 41 17t42 12l-58 159H219L160 67q46-6 87-29zm-4 291h177l-65 191-19 86h-2l-22-88zm-82 502q0 32 23 48t58 16q35 0 58-16t23-48q0-28-23-43.5T242 734q-35 0-58 15.5T161 793zm245 0q0 32 23.5 48t58.5 16q35 0 58-16t23-48q0-28-23-43.5T488 734q-35 0-58.5 15.5T406 793z"/><glyph unicode="ӓ" horiz-adv-x="557" d="M470 145q0-22 .5-38t2.5-34l69-10V28q-12-6-32.5-12t-43-11.5Q444-1 422-4.5T383-10h-34q-10 23-12 46t-3 56h-5q-5-20-17-38.5t-30.5-33Q263 6 238-3t-56-9q-33 0-61 10T72 26Q51 44 39 69.5T27 127q0 45 17 74t53.5 47.5q36.5 18.5 94 27.5T331 289q8 86-7 126t-65 40q-31 0-57-10l-47-120h-44q-8 12-15.5 27.5t-14 33Q75 403 70.5 421T64 456q38 26 98 41t127 15q57 0 93-12.5t56.5-34Q459 444 467 415t8-62q0-60-2.5-108.5T470 145zM245 68q21 0 36 8t25.5 19q10.5 11 16 24t8.5 23v100q-47-1-77-6t-47-16.5q-17-11.5-23.5-29T177 148q0-38 18-59t50-21zM81 659q0 32 20 51t53 19q32 0 52.5-19t20.5-51q0-30-20.5-49T154 591q-33 0-53 19t-20 49zm239 0q0 32 20 51t52 19q33 0 53.5-19t20.5-51q0-30-20.5-49T392 591q-32 0-52 19t-20 49z"/><glyph unicode="Ӕ" horiz-adv-x="959" d="M901 700q-2-45-7-93t-13-90h-42l-46 118H606V390h123l44 77h31q5-49 5-109t-5-112h-31l-44 79H606V65h195l53 127h42q4-19 7.5-43t6.5-49.5q3-25.5 4.5-51.5T916 0H379v38q16 8 36 16t41 13l2 177H273L170 67q41-8 77-29V0H5v38q16 10 34 17.5T75 67l348 571q-15 5-30 10.5T365 662v38zM310 309h148l3 285h-2l-36-90z"/><glyph unicode="ӕ" horiz-adv-x="823" d="M424 465q17 18 50 32.5t96 14.5q51 0 95.5-14t74-46q29.5-32 41-84T779 241H472q1-79 41-126t116-47q34 0 69 10t55 26l19-20q-8-17-25.5-34.5t-43-31Q678 5 644.5-3.5T572-12q-66 0-123 24.5T357 94q-7-21-23.5-40.5t-40-34Q270 5 241.5-3.5T182-12q-33 0-61 10T72 26Q51 44 39 69.5T27 127q0 45 16.5 74t53 47.5q36.5 18.5 94 27.5T330 289q8 86-6.5 126T259 455q-31 0-57-10l-47-120h-44q-8 12-15.5 27.5t-14 33Q75 403 70.5 421T64 456q38 26 98 41t127 15q61 0 91-13t44-34zM245 68q21 0 36 7.5T306 94q10 11 15.5 23.5T330 140v102q-47-1-76.5-6T207 219.5q-17-11.5-23.5-29T177 148q0-38 18-59t50-21zm321 387q-20 0-35.5-7t-27-25.5Q492 404 485 372.5T475 293h161q7 78-9 120t-61 42z"/><glyph unicode="Ӗ" horiz-adv-x="604" d="M546 700q-2-45-7-93t-13-90h-41l-46 118H252V390h122l44 77h32q5-49 5-109t-5-112h-32l-44 79H252V65h195l53 127h41q4-19 8-43t6.5-49.5q2.5-25.5 4-51.5T561 0H20v38q17 9 38 17t44 12v566q-20 4-42.5 11.5T20 662v38zm-244 41q-46 0-83.5 8.5t-64.5 25Q127 791 112.5 816T98 873q18 13 47.5 17t54.5 5l34-18v-78q14-7 32.5-9.5T303 787q14 0 34.5 2t34.5 7v81l34 18q18 2 47-3.5t51-18.5q0-64-54-98t-148-34z"/><glyph unicode="ӗ" horiz-adv-x="537" d="M486 84q-8-17-25.5-34.5t-43-31Q392 5 358.5-3.5T286-12q-62 0-110 18.5t-80 53Q64 94 47.5 142T31 250q0 128 67 195t186 67q51 0 95.5-14t74-46q29.5-32 41-84T493 241H186q1-79 40.5-126T343 68q33 0 68.5 10t55.5 26zM280 455q-20 0-35.5-7t-27-25.5Q206 404 199 372.5T189 293h161q7 78-9 120t-61 42zm-1 101q-99 0-144 36t-45 96q14 12 41 18.5t56 8.5l34-13v-89q25-11 59-11 10 0 27.5 2t31.5 6v92l34 13q27-2 53-8t40-19q0-60-45.5-96T279 556z"/><glyph unicode="Ә" horiz-adv-x="717" d="M350-12q-71 0-128.5 19.5t-98 59.5Q83 107 61 167T39 308q0 14 1.5 33.5T44 378h470q-2 134-56 201.5T302 647q-22 0-49.5-3.5T211 632l-56-154h-42q-5 23-9.5 49.5t-7 52.5q-2.5 26-4 48.5T92 666q41 21 102.5 33.5T315 712q85 0 152.5-24t114-70q46.5-46 71-113T677 351q0-179-86.5-271T350-12zm9 65q77 0 114.5 70T514 313H207q-1-10-1.5-25t-.5-25q0-42 9-80.5t28-67Q261 87 290 70t69-17z"/><glyph unicode="ә" horiz-adv-x="549" d="M252 451q-13 0-29-2t-30-9l-53-110h-39q-10 31-16.5 65.5T76 461q38 23 81.5 37T266 512q64 0 111.5-18.5t78.5-53q31-34.5 46.5-82.5T518 250q0-63-17.5-112t-50-82.5Q418 22 371.5 5T267-12q-51 0-98 16.5T89 56q-33 35-46.5 88.5T45 272h320q0 41-5.5 74T341 402.5q-13 23.5-34.5 36T252 451zm16-406q43 0 68 40t27 135H192q-7-86 15-130.5T268 45z"/><glyph unicode="Ӛ" horiz-adv-x="717" d="M350-12q-71 0-128.5 19.5t-98 59.5Q83 107 61 167T39 308q0 14 1.5 33.5T44 378h470q-2 134-56 201.5T302 647q-22 0-49.5-3.5T211 632l-56-154h-42q-5 23-9.5 49.5t-7 52.5q-2.5 26-4 48.5T92 666q41 21 102.5 33.5T315 712q85 0 152.5-24t114-70q46.5-46 71-113T677 351q0-179-86.5-271T350-12zm9 65q77 0 114.5 70T514 313H207q-1-10-1.5-25t-.5-25q0-42 9-80.5t28-67Q261 87 290 70t69-17zM130 793q0 32 23 48t58 16q35 0 58-16t23-48q0-28-23-43.5T211 734q-35 0-58 15.5T130 793zm245 0q0 32 23.5 48t58.5 16q35 0 58-16t23-48q0-28-23-43.5T457 734q-35 0-58.5 15.5T375 793z"/><glyph unicode="ӛ" horiz-adv-x="549" d="M252 451q-13 0-29-2t-30-9l-53-110h-39q-10 31-16.5 65.5T76 461q38 23 81.5 37T266 512q64 0 111.5-18.5t78.5-53q31-34.5 46.5-82.5T518 250q0-63-17.5-112t-50-82.5Q418 22 371.5 5T267-12q-51 0-98 16.5T89 56q-33 35-46.5 88.5T45 272h320q0 41-5.5 74T341 402.5q-13 23.5-34.5 36T252 451zm16-406q43 0 68 40t27 135H192q-7-86 15-130.5T268 45zM81 659q0 32 20 51t53 19q32 0 52.5-19t20.5-51q0-30-20.5-49T154 591q-33 0-53 19t-20 49zm239 0q0 32 20 51t52 19q33 0 53.5-19t20.5-51q0-30-20.5-49T392 591q-32 0-52 19t-20 49z"/><glyph unicode="Ӝ" horiz-adv-x="1023" d="M441 633q-20 5-36.5 13T376 662v38h260v-38q-10-7-24.5-14.5T577 633V378l68 15 144 240q-20 5-38.5 13T716 662v38h265v-38q-15-8-33.5-16T909 633L729 388q26-34 55.5-75t61-84.5q31.5-43.5 66-87T982 58l41-24V0H854l-43 34q-29 34-53 70t-45 73q-21 37-40.5 75.5T631 330h-54V67q17-5 33-12.5T641 38V0H371v38q14 9 31.5 16.5T441 67v272l-57-15q-42-81-80.5-152T212 34L169 0H0v34l41 24q36 40 70 83t65 85q31 42 58 81t50 71L105 633q-20 5-37 13t-30 16v38h264v-38q-13-8-31-16t-38-13l144-246h64zM307 793q0 32 23 48t58 16q35 0 58-16t23-48q0-28-23-43.5T388 734q-35 0-58 15.5T307 793zm245 0q0 32 23.5 48t58.5 16q35 0 58-16t23-48q0-28-23-43.5T634 734q-35 0-58.5 15.5T552 793z"/><glyph unicode="ӝ" horiz-adv-x="803" d="M570 500h209v-39q-17-12-57-24-32-42-61.5-77.5T599 286q13-18 32-44t41-56q22-30 46.5-61.5T767 63l36-24V0H661l-28 23q-17 21-35 49.5T563 130q-17 29-30.5 55T511 228h-44V63q31-8 60-24V0H281v39q14 7 27.5 13T337 63v171l-50-10q-8-14-20-39.5T239 130q-16-29-33.5-58T170 23L140 0H0v39l42 24q25 29 48 60t43 60q20 29 37 54t31 43q-36 38-65.5 75T74 437q-26 6-50 24v39h209v-39q-19-14-50-24 13-24 25-43t24.5-37q12.5-18 26-36.5T290 278h47v159q-17 4-28.5 10T286 461v39h230v-39q-10-8-20.5-14T467 437V272l51 10q18 24 30.5 42t24 35.5Q584 377 595 395t25 42q-14 5-26 10t-24 14zM210 659q0 32 20 51t53 19q32 0 52.5-19t20.5-51q0-30-20.5-49T283 591q-33 0-53 19t-20 49zm239 0q0 32 20 51t52 19q33 0 53.5-19t20.5-51q0-30-20.5-49T521 591q-32 0-52 19t-20 49z"/><glyph unicode="Ӟ" horiz-adv-x="580" d="M252-12q-28 0-58.5 3T134-1q-29 5-54 12.5T38 27q0 16 3.5 39t8.5 47.5q5 24.5 11.5 49T74 207h42l40-142q11-5 35.5-8.5T237 53q66 0 106 38t40 103q0 71-35 100.5T254 324l-77-13q-5 18-6 41t5 42h32q17-1 39.5.5T286 398q38 16 58.5 46.5T365 522q0 59-30.5 92T248 647q-24 0-43.5-5.5T178 628l-49-127H87q-4 15-8 34.5t-7 42q-3 22.5-5.5 46T64 669q19 13 44.5 21t52 13q26.5 5 52.5 7t47 2q48 0 95-7t83.5-26.5q36.5-19.5 59-53T520 540q0-51-33.5-97.5T385 375v-4q31-5 59.5-18t50.5-34q22-21 35-51t13-69q0-53-21-93t-59-66q-38-26-91.5-39T252-12zM74 793q0 32 23 48t58 16q35 0 58-16t23-48q0-28-23-43.5T155 734q-35 0-58 15.5T74 793zm245 0q0 32 23.5 48t58.5 16q35 0 58-16t23-48q0-28-23-43.5T401 734q-35 0-58.5 15.5T319 793z"/><glyph unicode="ӟ" horiz-adv-x="498" d="M201 53q54 0 80 28t26 68q0 43-19 58.5T234 228l-89-15q-5 12-6 33.5t6 35.5h97q17 8 34.5 30t17.5 61q0 38-21.5 60T211 455q-17 0-32.5-2.5T158 448l-45-113H79q-14 28-26.5 65.5T39 470q23 15 73 28.5T235 512q99 0 153-29.5t54-87.5q0-26-11-47t-29.5-36q-18.5-15-42-25.5T311 271q29-3 56.5-10.5t48.5-22q21-14.5 33.5-36.5t12.5-53q0-80-62.5-120.5T225-12q-68 0-117.5 17T29 48l27 94h29q15-14 33-38t32-43q10-4 22-6t29-2zM48 659q0 32 20 51t53 19q32 0 52.5-19t20.5-51q0-30-20.5-49T121 591q-33 0-53 19t-20 49zm239 0q0 32 20 51t52 19q33 0 53.5-19t20.5-51q0-30-20.5-49T359 591q-32 0-52 19t-20 49z"/><glyph unicode="Ӡ" horiz-adv-x="600" d="M315 396q106 0 170.5-45.5T552 213q1-63-25.5-106.5T458 37Q416 11 364-.5T262-12q-28 0-58.5 3t-60 8Q114 4 89 11.5T47 27q0 16 3.5 39t9 48.5q5.5 25.5 12 50T84 207h41l41-142q11-6 34-9t49-3q36 0 63 12.5t45 33q18 20.5 26.5 45.5t8.5 51q0 41-11.5 67.5t-31.5 42Q329 320 303 326t-56 6l-66-14q-5 18-6.5 38.5T180 398l62 1 125 173 35 36v4l-71-8H156l-40-110H82q-6 22-11 50.5t-9 57Q58 630 55.5 656T53 700h466v-49L360 445z"/><glyph unicode="ӡ" horiz-adv-x="495" d="M267 190q49 0 86.5-14t62.5-39q25-25 37.5-59T466 4q0-53-18-93.5T397-157q-33-27-79.5-41T214-212q-61 0-111.5 17T23-152l27 94h29q15-14 33-38t32-43q10-4 22-6t29-2q30 0 52 11t37 30q15 19 22.5 45.5T314-4q0 66-30.5 102T206 136l-65-13q-5 13-6 34.5t5 35.5h57l97 170 29 38v4l-54-6H129L90 298H56q-6 21-11 48.5T35.5 402q-4.5 28-7 54T26 500h416v-49L307 237z"/><glyph unicode="Ӣ" horiz-adv-x="779" d="M321 0H20v38q19 10 40 18t42 11v566q-20 5-42 11.5T20 662v38h301v-38q-15-9-34-17t-41-12V253l-10-78 49 82 252 352v24q-47 11-79 29v38h301v-38q-17-11-38.5-17.5T677 633V67q23-4 43.5-11.5T759 38V0H458v38q14 7 33.5 15.5T533 67v379l10 79-45-79L242 89V67q23-5 43-13t36-16zm-93 779v70h324v-70z"/><glyph unicode="ӣ" horiz-adv-x="669" d="M29 500h266v-39q-11-6-25.5-12T235 437V212l-11-93h5l39 75 183 306h189v-39q-32-18-66-24V63q19-5 36-10.5T640 39V0H374v39q28 16 60 24v236l10 79h-5l-38-75L220 0H29v39q17 8 33 13.5T95 63v374q-39 6-66 24zm164 119v70h294v-70z"/><glyph unicode="Ӥ" horiz-adv-x="779" d="M321 0H20v38q19 10 40 18t42 11v566q-20 5-42 11.5T20 662v38h301v-38q-15-9-34-17t-41-12V253l-10-78 49 82 252 352v24q-47 11-79 29v38h301v-38q-17-11-38.5-17.5T677 633V67q23-4 43.5-11.5T759 38V0H458v38q14 7 33.5 15.5T533 67v379l10 79-45-79L242 89V67q23-5 43-13t36-16zM188 793q0 32 23 48t58 16q35 0 58-16t23-48q0-28-23-43.5T269 734q-35 0-58 15.5T188 793zm245 0q0 32 23.5 48t58.5 16q35 0 58-16t23-48q0-28-23-43.5T515 734q-35 0-58.5 15.5T433 793z"/><glyph unicode="ӥ" horiz-adv-x="669" d="M29 500h266v-39q-11-6-25.5-12T235 437V212l-11-93h5l39 75 183 306h189v-39q-32-18-66-24V63q19-5 36-10.5T640 39V0H374v39q28 16 60 24v236l10 79h-5l-38-75L220 0H29v39q17 8 33 13.5T95 63v374q-39 6-66 24zm119 159q0 32 20 51t53 19q32 0 52.5-19t20.5-51q0-30-20.5-49T221 591q-33 0-53 19t-20 49zm239 0q0 32 20 51t52 19q33 0 53.5-19t20.5-51q0-30-20.5-49T459 591q-32 0-52 19t-20 49z"/><glyph unicode="Ӧ" horiz-adv-x="754" d="M39 350q0 78 22 144.5t65 115Q169 658 232 685t145 27q82 0 145-27t105.5-75.5Q670 561 692 494.5T714 350q0-78-22-144.5t-64.5-115Q585 42 522 15T377-12q-82 0-145 27T126 90.5q-43 48.5-65 115T39 350zm170 0q0-64 10-118.5t31.5-94q21.5-39.5 55-62T386 53q43 0 73 22.5t49 62q19 39.5 27.5 94T544 350q0 64-9.5 118.5t-30 94q-20.5 39.5-54 62T369 647q-46 0-77-22.5t-49.5-62q-18.5-39.5-26-94T209 350zm-36 443q0 32 23 48t58 16q35 0 58-16t23-48q0-28-23-43.5T254 734q-35 0-58 15.5T173 793zm245 0q0 32 23.5 48t58.5 16q35 0 58-16t23-48q0-28-23-43.5T500 734q-35 0-58.5 15.5T418 793z"/><glyph unicode="ӧ" horiz-adv-x="594" d="M31 250q0 61 18.5 109.5t53 82.5q34.5 34 83.5 52t111 18q70 0 120.5-19.5t83-54q32.5-34.5 47.5-83T563 250q0-61-18-109.5T492.5 58q-34.5-34-84-52T297-12q-68 0-118 19.5t-83 54q-33 34.5-49 83T31 250zm155 0q0-45 5.5-82.5T211 104q14-26 38-40.5T311 49q22 0 40 10.5t31 34q13 23.5 19.5 62T408 250q0 46-5.5 83t-19 63Q370 422 347 436.5T289 451q-26 0-45-10.5t-32-34q-13-23.5-19.5-62T186 250zm-82 409q0 32 20 51t53 19q32 0 52.5-19t20.5-51q0-30-20.5-49T177 591q-33 0-53 19t-20 49zm239 0q0 32 20 51t52 19q33 0 53.5-19t20.5-51q0-30-20.5-49T415 591q-32 0-52 19t-20 49z"/><glyph unicode="Ө" horiz-adv-x="754" d="M39 350q0 78 22 144.5t65 115Q169 658 232 685t145 27q82 0 145-27t105.5-75.5Q670 561 692 494.5T714 350q0-78-22-144.5t-64.5-115Q585 42 522 15T377-12q-82 0-145 27T126 90.5q-43 48.5-65 115T39 350zM386 53q40 0 69 19.5t48 54.5q19 35 28.5 83.5T543 317H210q2-58 13-106.5t32.5-83.5q21.5-35 54-54.5T386 53zm-17 594q-42 0-71.5-19t-48-52.5q-18.5-33.5-28-80T210 394h333q-3 55-14 101.5t-32 80Q476 609 444.5 628T369 647z"/><glyph unicode="ө" horiz-adv-x="594" d="M31 250q0 61 18.5 109.5t53 82.5q34.5 34 83.5 52t111 18q70 0 120.5-19.5t83-54q32.5-34.5 47.5-83T563 250q0-61-18-109.5T492.5 58q-34.5-34-84-52T297-12q-68 0-118 19.5t-83 54q-33 34.5-49 83T31 250zm258 205q-49 0-74-39t-29-130h222q-4 76-30.5 122.5T289 455zm25-410q43 0 67.5 39.5T408 216H186q1-38 8-69.5t22-54q15-22.5 39-35T314 45z"/><glyph unicode="Ӫ" horiz-adv-x="754" d="M39 350q0 78 22 144.5t65 115Q169 658 232 685t145 27q82 0 145-27t105.5-75.5Q670 561 692 494.5T714 350q0-78-22-144.5t-64.5-115Q585 42 522 15T377-12q-82 0-145 27T126 90.5q-43 48.5-65 115T39 350zM386 53q40 0 69 19.5t48 54.5q19 35 28.5 83.5T543 317H210q2-58 13-106.5t32.5-83.5q21.5-35 54-54.5T386 53zm-17 594q-42 0-71.5-19t-48-52.5q-18.5-33.5-28-80T210 394h333q-3 55-14 101.5t-32 80Q476 609 444.5 628T369 647zM172 793q0 32 23 48t58 16q35 0 58-16t23-48q0-28-23-43.5T253 734q-35 0-58 15.5T172 793zm245 0q0 32 23.5 48t58.5 16q35 0 58-16t23-48q0-28-23-43.5T499 734q-35 0-58.5 15.5T417 793z"/><glyph unicode="ӫ" horiz-adv-x="594" d="M31 250q0 61 18.5 109.5t53 82.5q34.5 34 83.5 52t111 18q70 0 120.5-19.5t83-54q32.5-34.5 47.5-83T563 250q0-61-18-109.5T492.5 58q-34.5-34-84-52T297-12q-68 0-118 19.5t-83 54q-33 34.5-49 83T31 250zm258 205q-49 0-74-39t-29-130h222q-4 76-30.5 122.5T289 455zm25-410q43 0 67.5 39.5T408 216H186q1-38 8-69.5t22-54q15-22.5 39-35T314 45zM104 659q0 32 20 51t53 19q32 0 52.5-19t20.5-51q0-30-20.5-49T177 591q-33 0-53 19t-20 49zm239 0q0 32 20 51t52 19q33 0 53.5-19t20.5-51q0-30-20.5-49T415 591q-32 0-52 19t-20 49z"/><glyph unicode="Ӭ" horiz-adv-x="650" d="M191 303q-6 20-7 49.5t7 53.5l253-4q-5 121-59 183t-147 62q-27 0-46-5.5T163 628l-52-130H70q-3 11-6 32t-5.5 45Q56 599 55 624t0 45q18 12 42 20.5t50.5 13.5q26.5 5 53 7t47.5 2q86 0 153.5-22.5t114-67.5q46.5-45 71-111.5T611 356q0-101-30-171.5t-80-114Q451 27 385.5 7.5T249-12q-61 0-115 9.5T45 27q0 17 2 41t5 50.5q3 26.5 6.5 53T66 219h42l54-156q11-6 34-8t42-2q39 0 76 17.5t65.5 52.5q28.5 35 46 87.5T444 334zM67 793q0 32 23 48t58 16q35 0 58-16t23-48q0-28-23-43.5T148 734q-35 0-58 15.5T67 793zm245 0q0 32 23.5 48t58.5 16q35 0 58-16t23-48q0-28-23-43.5T394 734q-35 0-58.5 15.5T312 793z"/><glyph unicode="ӭ" horiz-adv-x="513" d="M224-12q-65 0-115.5 17T29 48l27 94h29q15-14 33-38t31-43q21-8 53-8 64 0 94 47.5T327 228l-175-20q-3 6-5 17t-2 22.5q0 11.5 2 22.5t5 17h174q-1 46-10 78.5t-24.5 52Q276 437 254.5 446t-47.5 9q-16 0-30-1.5t-19-5.5l-45-118H79q-13 29-25.5 65T37 466q28 17 73.5 31.5T230 512q48 0 93.5-13t80.5-43q35-30 56.5-78T482 260q0-71-22.5-122.5t-59-84.5Q364 20 318 4t-94-16zM39 659q0 32 20 51t53 19q32 0 52.5-19t20.5-51q0-30-20.5-49T112 591q-33 0-53 19t-20 49zm239 0q0 32 20 51t52 19q33 0 53.5-19t20.5-51q0-30-20.5-49T350 591q-32 0-52 19t-20 49z"/><glyph unicode="Ӯ" horiz-adv-x="684" d="M519 633q-24 5-42 12.5T442 662v38h242v-38q-11-8-29.5-15.5T613 633L422 201Q374 91 322 37.5T211-5q-8 8-16.5 24.5t-16 35Q171 73 166 90.5t-6 29.5l28 40 119-37q8 9 15 22t13 29L69 633q-19 5-36.5 12.5T0 662v38h312v-38q-30-18-76-29l141-271 21-64h2l20 66zM197 779v70h324v-70z"/><glyph unicode="ӯ" horiz-adv-x="528" d="M38 437q-15 4-27.5 10T-15 461v39h263v-38q-21-14-57-25l101-251 17-64h2l16 65 78 250q-30 6-55 24v39h193v-39q-21-14-57-24L323 0q-24-64-48-104.5T227-169q-24-24-48-33.5T131-215q-10 9-18 22.5t-14 29Q93-148 89-132t-5 30l13 24h122q9 14 15.5 30T250 0zm93 182v70h294v-70z"/><glyph unicode="Ӱ" horiz-adv-x="684" d="M519 633q-24 5-42 12.5T442 662v38h242v-38q-11-8-29.5-15.5T613 633L422 201Q374 91 322 37.5T211-5q-8 8-16.5 24.5t-16 35Q171 73 166 90.5t-6 29.5l28 40 119-37q8 9 15 22t13 29L69 633q-19 5-36.5 12.5T0 662v38h312v-38q-30-18-76-29l141-271 21-64h2l20 66zM176 793q0 32 23 48t58 16q35 0 58-16t23-48q0-28-23-43.5T257 734q-35 0-58 15.5T176 793zm245 0q0 32 23.5 48t58.5 16q35 0 58-16t23-48q0-28-23-43.5T503 734q-35 0-58.5 15.5T421 793z"/><glyph unicode="ӱ" horiz-adv-x="528" d="M38 437q-15 4-27.5 10T-15 461v39h263v-38q-21-14-57-25l101-251 17-64h2l16 65 78 250q-30 6-55 24v39h193v-39q-21-14-57-24L323 0q-24-64-48-104.5T227-169q-24-24-48-33.5T131-215q-10 9-18 22.5t-14 29Q93-148 89-132t-5 30l13 24h122q9 14 15.5 30T250 0zm52 222q0 32 20 51t53 19q32 0 52.5-19t20.5-51q0-30-20.5-49T163 591q-33 0-53 19t-20 49zm239 0q0 32 20 51t52 19q33 0 53.5-19t20.5-51q0-30-20.5-49T401 591q-32 0-52 19t-20 49z"/><glyph unicode="Ӳ" horiz-adv-x="684" d="M519 633q-24 5-42 12.5T442 662v38h242v-38q-11-8-29.5-15.5T613 633L422 201Q374 91 322 37.5T211-5q-8 8-16.5 24.5t-16 35Q171 73 166 90.5t-6 29.5l28 40 119-37q8 9 15 22t13 29L69 633q-19 5-36.5 12.5T0 662v38h312v-38q-30-18-76-29l141-271 21-64h2l20 66zM293 888q6 1 21.5-1.5T347 880q17-4 31-9.5t17-10.5v-14l-135-97-37 23zm196 0q7 1 22.5-1.5t33-7q17.5-4.5 32-10.5t19.5-12l-1-10-182-100-39 23z"/><glyph unicode="ӳ" horiz-adv-x="528" d="M38 437q-15 4-27.5 10T-15 461v39h263v-38q-21-14-57-25l101-251 17-64h2l16 65 78 250q-30 6-55 24v39h193v-39q-21-14-57-24L323 0q-24-64-48-104.5T227-169q-24-24-48-33.5T131-215q-10 9-18 22.5t-14 29Q93-148 89-132t-5 30l13 24h122q9 14 15.5 30T250 0zm174 331q6 2 23 1t35.5-4q18.5-3 34-7.5T323 747v-24L185 585l-41 20zm196 0q7 2 23 1t34-5q18-4 33.5-10t21.5-14v-22L312 585l-37 22z"/><glyph unicode="Ӵ" horiz-adv-x="686" d="M666 0H358v38q23 11 46 19t46 10v236q-28-17-75-31t-103-14q-40 0-75.5 8.5t-62 29.5q-26.5 21-42 57.5T77 446v187q-19 3-38 11T5 662v38h283v-38q-11-8-26.5-16T227 633V481q0-35 4-63t16-48q12-20 32.5-31t53.5-11q33 0 62.5 9.5T450 363v270q-17 5-33 12.5T388 662v38h278v-38q-13-9-30-16.5T600 633V67q20-4 37-12.5T666 38zM136 793q0 32 23 48t58 16q35 0 58-16t23-48q0-28-23-43.5T217 734q-35 0-58 15.5T136 793zm245 0q0 32 23.5 48t58.5 16q35 0 58-16t23-48q0-28-23-43.5T463 734q-35 0-58.5 15.5T381 793z"/><glyph unicode="ӵ" horiz-adv-x="604" d="M3 500h262v-39q-20-16-52-24V326q0-42 14.5-66.5T278 235q26 0 48 8t39 19v175q-16 3-28 9t-25 15v39h263v-39q-27-17-66-24V63q20-5 36-10.5T575 39V0H285v39q41 17 80 24v156q-24-26-63-42.5T218 160q-70 0-109.5 38T69 301v136q-38 7-66 24zm99 159q0 32 20 51t53 19q32 0 52.5-19t20.5-51q0-30-20.5-49T175 591q-33 0-53 19t-20 49zm239 0q0 32 20 51t52 19q33 0 53.5-19t20.5-51q0-30-20.5-49T413 591q-32 0-52 19t-20 49z"/><glyph unicode="Ӷ" horiz-adv-x="543" d="M20 38q44 22 82 29v566q-20 4-41.5 11T20 662v38h512q0-24-1-55t-3-63q-2-32-6-63.5t-8-56.5h-41l-63 173H252V66q7-1 14.5-1H362q-1-26-3.5-56.5T353-53q-3-31-7.5-59.5T335-163h-39L242 0H20z"/><glyph unicode="ӷ" horiz-adv-x="466" d="M456 500q-1-19-3.5-44t-6-52q-3.5-27-8.5-53t-10-46h-41l-44 138H239V57h111q-2-48-8.5-103T330-148h-39L237 0H29v39q17 10 33 15t33 9v375q-37 6-66 23v39z"/><glyph unicode="Ӹ" horiz-adv-x="930" d="M910 0H607v38q16 9 34.5 16.5T680 67v566q-19 4-39.5 11T602 662v38h308v-38q-34-22-80-29V67q25-4 45-12.5T910 38zM20 0v38q18 10 39.5 17.5T102 67v566q-20 4-41 10.5T20 662v38h320v-38q-19-10-41.5-17.5T252 633V419q18 3 43 5t45 2q52 0 98.5-10t81-34q34.5-24 55-64T595 218q0-56-22-97.5t-60-69q-38-27.5-89-41T315-3q-5 0-20.5.5t-36 1Q238-1 217-.5T181 0zm284 361q-33 0-52-6V66q8-2 26-3t27-1q57 0 91 37t34 119q0 143-126 143zm-38 432q0 32 23 48t58 16q35 0 58-16t23-48q0-28-23-43.5T347 734q-35 0-58 15.5T266 793zm245 0q0 32 23.5 48t58.5 16q35 0 58-16t23-48q0-28-23-43.5T593 734q-35 0-58.5 15.5T511 793z"/><glyph unicode="ӹ" horiz-adv-x="830" d="M239 301l42.5 5q25.5 3 65.5 3 78 0 126.5-37.5T522 159q0-40-15.5-70.5t-43-51q-27.5-20.5-65-31T317-4q-14 0-38.5.5t-53 1.5Q197-1 169-.5T122 0H29v39q16 9 32.5 14T95 63v374q-19 3-35 9.5T29 461v39h270v-39q-24-14-60-24zm0-244q10-2 21.5-3t22.5-1q40 0 61 24.5t21 82.5q0 54-22.5 73T288 252q-11 0-24-1t-25-4zM801 0H536v39q12 7 25 13t30 11v374q-38 7-60 24v39h270v-39q-12-8-29-13.5T735 437V63q17-5 33-10.5T801 39zM224 659q0 32 20 51t53 19q32 0 52.5-19t20.5-51q0-30-20.5-49T297 591q-33 0-53 19t-20 49zm239 0q0 32 20 51t52 19q33 0 53.5-19t20.5-51q0-30-20.5-49T535 591q-32 0-52 19t-20 49z"/><glyph unicode="Ӽ" horiz-adv-x="720" d="M434 374q64-87 105.5-146t66-102q24.5-43 34-75t9.5-66q0-55-19-92.5T578-168q-33-23-77-33t-94-10l-6 45q47 17 72.5 45.5T499-41q0 21-7 47.5T465.5 72Q446 111 412 164t-89 126L180 66q21-3 41.5-10T259 38V0H9v38q17 11 35.5 17.5T81 67l200 282L92 633q-19 5-36 13t-33 16v38h317v-38q-12-7-30-14.5T268 633l124-202 123 202q-20 4-42.5 12.5T434 662v38h248v-38q-15-8-34-16t-39-13L434 374z"/><glyph unicode="ӽ" horiz-adv-x="560" d="M378-39q0 32-16 67t-37.5 67.5Q303 128 281 155.5T247 200L154 63q14-5 24.5-11T199 39V0H10v39q14 8 25.5 14T62 63l149 185L61 437q-14 5-25 10.5T16 461v39h251v-38q-12-8-21.5-14.5T222 437l87-124 83 124q-17 5-27 11t-18 13v39h185v-39q-10-7-22-13t-30-11L343 268q19-26 49.5-60t59-74Q480 94 501 50.5T522-37q0-91-56-133t-177-42l-5 46q55 14 74.5 46.5T378-39z"/><glyph unicode="Ԑ" horiz-adv-x="570" d="M320-12q-66 0-118 13t-89 38.5Q76 65 56.5 103T37 192q0 39 12.5 70T84 316q22 23 51 36.5t62 18.5v4q-37 9-63 25.5t-42 37Q76 458 68.5 482T61 532q0 53 22.5 88t59 55.5q36.5 20.5 83 28.5t94.5 8q21 0 47-2.5t52.5-8q26.5-5.5 51-14T515 666q0-22-2.5-46t-5.5-46.5q-3-22.5-7-42t-8-34.5h-42l-49 127q-7 8-26 15.5t-43 7.5q-113 0-113-126 0-91 77-123 16-2 38.5-3.5t39.5-.5h32q6-19 5-42t-6-41l-77 13q-60 0-95.5-32T197 188q0-65 36-100t102-35q21 0 44.5 5.5T414 70l40 142h42q6-20 12.5-44.5T520 118q5-25 8.5-47.5T532 32q-17-8-42-16T436.5 2Q408-4 378-8t-58-4z"/><glyph unicode="ԑ" horiz-adv-x="487" d="M309 68q28 0 48.5 2.5t36 7q15.5 4.5 27 11T442 102l16-21q-7-20-25-36.5T388.5 15Q362 2 330-5t-67-7Q154-12 95 29.5T36 140q0 53 34 84.5t94 40.5q-49 15-81 46t-32 75q0 64 58.5 95T267 512q66 0 112.5-13.5T449 470q-1-32-11.5-65.5T414 342h-44l-40 106q-5 2-18.5 4.5T282 455q-83 0-83-88 0-17 5-32t12.5-27q7.5-12 16.5-20.5t18-12.5l92 13q7-14 6-35t-6-34l-84 2q-34-3-50.5-22T192 149q0-36 32-58.5T309 68z"/><glyph unicode="Ԓ" horiz-adv-x="706" d="M449 635H286q-3-152-14-253.5T245 214q-16-66-35.5-104.5T169 43q-19-26-48-40.5T65-12Q52-7 40 8.5T18 44Q8 64 1.5 86T-6 127l27 38 119-29q13 28 25.5 67.5T188 301q10 58 16 137t6 185q-31 5-58.5 16T104 662v38h577v-38q-15-9-36.5-17T599 633V1q0-68-15.5-110T537-173.5q-31-22.5-77.5-30T351-211l-6 45q28 6 47.5 16t32 28.5Q437-103 443-74t6 74z"/><glyph unicode="ԓ" horiz-adv-x="572" d="M338 443H228q-1-53-6-110.5T206.5 220q-10.5-55-27-103.5T138 34Q118 6 94-6t-43-8Q38-7 27 8.5T8 41Q0 58-5 75t-6 29l23 34 94-25q13 23 22 57t15 74.5q6 40.5 9.5 87T156 427q-20 6-38.5 15T85 461v39h463v-39q-32-18-66-24V0q0-62-14.5-103t-43-65q-28.5-24-72-34T249-212l-5 46q27 7 45.5 18t29 30.5q10.5 19.5 15 48T338 0z"/><glyph unicode="Ԝ" horiz-adv-x="1033" d="M865 633q-40 6-84 29v38h252v-38q-17-11-36-18t-37-11L783 0 679-12 524 472 373 0 268-12 73 633q-21 4-39 11.5T0 662v38h324v-38q-17-9-38.5-16.5T241 633l93-353 21-130h2l35 135 133 415h59l142-410 34-130h2l23 132z"/><glyph unicode="ԝ" horiz-adv-x="784" d="M200-12L43 437q-14 5-27.5 10.5T-10 461v39h253v-38q-14-8-28-14.5T186 437l69-256 13-77h2l18 80 106 310 49 6 114-317 21-79h2l16 78 60 255q-11 2-25.5 8T601 461v39h193v-39q-21-14-57-24L598 0l-94-12-86 247-19 83h-3l-23-83L293 0z"/></font>
</defs>
</svg>
