<svg xmlns="http://www.w3.org/2000/svg"><defs><font id="PTSerif-Caption" horiz-adv-x="632"><font-face ascent="1018" descent="276"/><glyph horiz-adv-x="274"/><glyph horiz-adv-x="274"/><glyph unicode="!" horiz-adv-x="368" d="M195 218l-38 177v305h105V395l-37-177zM133 58q0 31 21.5 49t55.5 18q35 0 57-18t22-49q0-30-22-48T210-8q-34 0-55.5 18T133 58z"/><glyph unicode="&quot;" horiz-adv-x="454" d="M254 750h128l-35-258h-58zm-182 0h128l-35-258h-58z"/><glyph unicode="#" horiz-adv-x="600" d="M345 233H185L139 58H80l46 175H36l17 47h85l40 149H92l17 47h83l44 166h59l-44-166h159l45 166h59l-45-166h90l-20-47h-83l-40-149h87l-21-47h-78L358 58h-59zm-148 47h160l40 149H237z"/><glyph unicode="$" horiz-adv-x="600" d="M267-12q-34 0-64 6T148.5 9.5Q124 19 105 29.5T74 49v139h72V88l20-26q18-9 39-15t62-7v284q-1 0-8 2.5T225 340q-33 13-63 29t-53.5 38.5Q85 430 71 460.5T57 533q0 36 15.5 67t43.5 55q28 24 66.5 38.5T267 711v49h60v-49q54-3 92.5-12.5T488 676V545h-72v82l-20 20q-35 12-69 12V393q48-20 88-39t69-43q29-24 45-56.5t16-78.5q0-74-57.5-124T327-9v-61h-60zm173 180q0 26-9 46t-24.5 35.5Q391 265 370 277.5T325 300V46q51 12 83 43t32 79zM162 550q0-52 30.5-82t76.5-52v242q-50-5-78.5-35.5T162 550z"/><glyph unicode="%" horiz-adv-x="908" d="M757 714l41-38L141-10l-39 39zM58 542q0 39 15 70t41 53.5q26 22.5 62.5 34.5t78.5 12q43 0 79-10.5t62-31.5q26-21 40.5-53t14.5-75q0-39-14.5-70.5T396 418q-26-22-62-34t-79-12q-42 0-78.5 10.5T114 414q-26 21-41 53t-15 75zm96 0q0-60 26-96t75-36q100 0 100 132T255 674q-49 0-75-33t-26-99zm302-384q0 39 15 70t41 53.5q26 22.5 62.5 34.5t78.5 12q43 0 79-10.5t62-31.5q26-21 40.5-53t14.5-75q0-39-14.5-70.5T794 34q-26-22-62-34t-79-12q-42 0-78.5 10.5T512 30q-26 21-41 53t-15 75zm96 0q0-60 26-96t75-36q100 0 100 132T653 290q-49 0-75-33t-26-99z"/><glyph unicode="&amp;" horiz-adv-x="977" d="M605 123q-34 27-73.5 63.5t-76.5 74Q418 298 387 333t-48 58q-47-41-69-80.5T248 219q0-38 14-70.5t39-56q25-23.5 60-37T437 42q49 0 92 20t76 61zM319 583q0-18 8-38t20.5-40.5q12.5-20.5 28-39T405 432q41 30 63 67.5t22 94.5q0 32-21 54t-65 22q-24 0-40.5-7.5t-26-20q-9.5-12.5-14-28T319 583zM780 0q-23 14-58.5 34.5T644 90q-15-18-39-36t-55.5-33Q518 6 478.5-3T394-12q-61 0-109.5 16.5t-82 43.5Q169 75 151 110t-18 73q0 49 20 88t47.5 69q27.5 30 58 50.5T310 424q-32 32-54.5 74.5T233 578q0 25 11 49.5t33 43q22 18.5 54 30t73 11.5q75 0 121-29t46-83q0-33-13-61t-33-52q-20-24-45.5-44T429 406q46-51 106-104.5T662 194q8 10 20 32.5t23 53.5q11 31 19 67.5t8 74.5v14q0 7-1 14h-66v50h230v-50h-75q-10-58-25-106t-31.5-84.5q-16.5-36.5-32-62T707 160q42-31 83-58t91-52h61V0z"/><glyph unicode="'" horiz-adv-x="272" d="M72 750h128l-35-258h-58z"/><glyph unicode="(" horiz-adv-x="389" d="M341-210q-57 36-107 80t-87 98.5Q110 23 88.5 91T67 243q0 82 22 148.5T148.5 513q37.5 55 88 101T344 702l28-30q-45-43-82.5-86.5T225 492q-27-50-42-111t-15-138q0-74 16-135.5T227.5-5q27.5-51 64-93.5T370-177z"/><glyph unicode=")" horiz-adv-x="389" d="M20-180q42 36 78.5 80.5t64 98q27.5 53.5 43 117T221 253q0 77-15 136t-42 108q-27 49-64.5 90.5T17 672l28 30q58-38 108.5-82.5t88-98.5q37.5-54 59-120T322 253q0-83-20.5-151.5T244-24q-37-57-87-103T47-210z"/><glyph unicode="*" horiz-adv-x="522" d="M465 507l-66-110-103 113 16 28zm-67 188l66-109-151-30-18 25zm-203 48h128l-47-148h-35zM60 583l64 110 100-111-16-26zm63-186L60 505l149 35 15-29zm203-48H199l44 148h35z"/><glyph unicode="+" horiz-adv-x="600" d="M48 371h222v209h60V371h222v-54H330V102h-60v215H48z"/><glyph unicode="," horiz-adv-x="319" d="M61-144q21 7 38.5 21.5t31 32.5q13.5 18 21 39T159-9v9H89Q79 16 75 30t-4 28q0 17 5 32t13 30h126q10-25 14-48.5t4-45.5q0-40-12.5-74t-34-60.5Q165-135 137.5-153T80-179z"/><glyph unicode="-" horiz-adv-x="475" d="M80 314h316v-64H80z"/><glyph unicode="." horiz-adv-x="314" d="M80 58q0 31 21 49t56 18q35 0 57-18t22-49q0-30-22-48T157-8q-35 0-56 18T80 58z"/><glyph unicode="/" horiz-adv-x="386" d="M366 713l49-19L5-130l-48 20z"/><glyph unicode="0" horiz-adv-x="600" d="M37 350q0 180 68.5 271T300 712q135 0 199-89.5T563 350q0-180-69-271T293-12q-69 0-117.5 24.5t-79 71Q66 130 51.5 197T37 350zm112 0q0-72 7.5-131t25-101Q199 76 226 53t66-23q88 0 123.5 77.5T451 350q0 72-6.5 131t-24 101Q403 624 374 647t-74 23q-83 0-117-77.5T149 350z"/><glyph unicode="1" horiz-adv-x="600" d="M479 0H148v64h114v564l-118-62-27 49 145 85h105V64h112z"/><glyph unicode="2" horiz-adv-x="600" d="M170 533H74v111q39 30 94 48t121 18q56 0 97-14t67.5-37.5q26.5-23.5 39-54.5t12.5-66q0-63-31-126t-78-119q-47-56-103-103t-107-80l-22-14q-8-5-16-10.5T137 78v-4l65 6h232l20 20v96h64V0H64v84q26 15 60.5 40t71.5 58q37 33 73 72.5t64 83q28 43.5 45.5 89T396 518q0 29-8.5 54t-25 44q-16.5 19-41 29.5T266 656q-33 0-54.5-5T170 638z"/><glyph unicode="3" horiz-adv-x="600" d="M271 44q37 0 67 11.5T390 87q22 20 34 46.5t12 57.5q0 36-13 63.5t-35.5 46Q365 319 335 328.5t-64 9.5h-71v68l225 216v4l-60-6H164l-20-20v-80H80v180h432v-78L324 446q-12-11-23-21-9-8-16.5-15t-9.5-8v-2q1 0 7 1t13 3q8 2 18 3 53-2 96-15.5t74-39q31-25.5 47.5-62T547 206q0-50-21.5-90T467 48q-37-28-87-43T273-10q-26 0-55.5 4T160 4.5q-28 6.5-52.5 16T67 42v118h96V71q14-10 43.5-18.5T271 44z"/><glyph unicode="4" horiz-adv-x="600" d="M548 0H254v64h103v129H14v64l343 443h105V257h124v-64H462V64h86zM357 549l7 72h-3l-39-72-208-266-37-33 72 7h208z"/><glyph unicode="5" horiz-adv-x="600" d="M438 750h64V620H197V430h64q56 0 103-14t80.5-40q33.5-26 52-65t18.5-88q0-58-22.5-101.5t-59.5-73q-37-29.5-85.5-44T248-10q-46 0-90 10T82 33v107h96V53q11-2 30-5.5t39-3.5q37 0 67 11.5T365.5 88q21.5 21 33 49.5T410 201q0 40-16 68.5t-44 47q-28 18.5-65.5 27T204 352h-71v348h285l20 20z"/><glyph unicode="6" horiz-adv-x="600" d="M565 212q0-47-18-88t-50.5-71Q464 23 418 5.5T315-12q-63 0-112 19.5T121 62q-33 35-50 83T54 250q0 94 34.5 171T181 556q58 58 133 96t156 55l14-50q-52-15-104.5-42t-96-66q-43.5-39-74-90T172 345q9 13 25.5 26t38.5 23q22 10 49.5 16.5T344 417q48 0 89-14t70-40q29-26 45.5-64t16.5-87zm-112-9q0 72-37.5 116T310 363q-53 0-89-23t-53-52q-2-14-2-33v-30q0-32 9.5-65.5t28.5-61Q223 71 252.5 53T321 35q35 0 60 14.5T422 88q16 24 23.5 54t7.5 61z"/><glyph unicode="7" horiz-adv-x="600" d="M135 519H71v181h470v-79L290 0H184l276 578 34 47-57-5H155l-20-20z"/><glyph unicode="8" horiz-adv-x="600" d="M55 157q0 34 12.5 64.5t35 56q22.5 25.5 52.5 46t65 35.5q-63 29-99.5 70T84 536q0 39 15.5 71t44.5 55.5q29 23.5 70.5 36.5t92.5 13q100 0 155.5-44.5T518 553q0-58-37.5-106.5T378 374q79-38 124.5-85.5T548 171q0-38-16.5-71t-49-58Q450 17 403 2.5T295-12q-61 0-106 14t-75 37Q84 62 69.5 93T55 157zm390-4q0 34-15 61t-40.5 48.5Q364 284 331.5 302T263 335q-31-17-52-37.5t-33.5-43Q165 232 160 210t-5-41q0-24 8-48t25.5-43q17.5-19 46-31T304 35q35 0 61.5 10.5t44 27Q427 89 436 110.5t9 42.5zM187 550q0-30 12-53.5t32.5-41.5q20.5-18 47.5-33t57-28q47 34 64.5 67.5T418 536q0 62-29.5 95.5T305 665q-30 0-52-10t-36.5-26q-14.5-16-22-36.5T187 550z"/><glyph unicode="9" horiz-adv-x="600" d="M52 487q0 49 17 90t49 71q32 30 79 47t107 17q66 0 113.5-19.5t79-54.5q31.5-35 46.5-85.5T558 441q0-93-32-171.5t-87-138q-55-59.5-128.5-96T153-10l-14 50q132 26 207.5 106T440 339q-26-24-61.5-40.5T284 282q-51 0-93.5 13.5t-73 40Q87 362 69.5 400T52 487zm112 1q0-29 10-56.5t28.5-48.5q18.5-21 45-34t59.5-13q52 0 87 16t52 41q2 13 2.5 32t.5 31q0 36-8 73.5T415 597q-18 30-46.5 49T300 665q-67 0-101.5-47.5T164 488z"/><glyph unicode=":" horiz-adv-x="368" d="M134 441q0 31 21 49t56 18q35 0 57-18t22-49q0-30-22-48t-57-18q-35 0-56 18t-21 48zm0-383q0 31 21 49t56 18q35 0 57-18t22-49q0-30-22-48T211-8q-35 0-56 18t-21 48z"/><glyph unicode=";" horiz-adv-x="373" d="M138 441q0 31 21 49t56 18q35 0 57-18t22-49q0-30-22-48t-57-18q-35 0-56 18t-21 48zm-19-585q21 7 38.5 21.5t31 32.5q13.5 18 21 39T217-9v9h-70q-10 16-14 30t-4 28q0 17 5 32t13 30h126q10-25 14-48.5t4-45.5q0-40-12.5-74t-34-60.5Q223-135 195.5-153T138-179z"/><glyph unicode="&lt;" horiz-adv-x="600" d="M52 324v31l431 235 30-59-351-186 357-186-37-56z"/><glyph unicode="=" horiz-adv-x="600" d="M47 452h505v-54H47zm0-162h505v-54H47z"/><glyph unicode="&gt;" horiz-adv-x="600" d="M551 369v-31L119 103l-33 55 354 194L83 535l37 55z"/><glyph unicode="?" horiz-adv-x="531" d="M174 548H78v121q42 23 88 33t100 10q118 0 173-53.5T494 510q0-44-15.5-82t-45-68Q404 330 362 309.5T266 282V182h-64v142q45 9 78.5 23t56 36q22.5 22 34 53.5T382 512q0 27-7 53.5T353 613q-15 21-38.5 34T258 660q-35 0-54.5-5.5T174 641zM155 58q0 31 21 49t56 18q35 0 57-18t22-49q0-30-22-48T232-8q-35 0-56 18t-21 48z"/><glyph unicode="@" horiz-adv-x="1111" d="M792 490l-57-285V57h13q45 0 83.5 19.5t66 55q27.5 35.5 43.5 85T957 326q0 76-30.5 137.5t-82.5 105Q792 612 721.5 635T572 658q-95 0-172-32t-131.5-88.5Q214 481 184 405t-30-163q0-89 35-157.5t93-115q58-46.5 132.5-71T568-126q32 0 73.5 7T717-98l18-46q-40-20-87-28t-104-8q-51 0-105 11.5T334.5-134q-50.5 23-95 58T162 5q-33 46-52.5 104T90 236q0 109 39 197t105.5 150q66.5 62 155 95.5T577 712q94 0 175.5-26.5t141-76Q953 560 987 488.5t34-162.5q0-59-16.5-117.5t-53-104.5Q915 58 857 29.5T716 1q-17 0-33.5 1.5T647 6v176h-6q-13-32-34.5-63T557 62.5q-28-25.5-59.5-41T433 6q-67 0-103.5 41.5T293 158q0 63 23.5 124t64 109q40.5 48 94 77T588 497q40 0 65-6.5t51-17.5zm-107-65q-17 10-36 15t-46 5q-43 0-80.5-26.5t-65.5-67Q429 311 412.5 262T396 169q0-48 17-74t62-26q21 0 45.5 18t48.5 47.5q24 29.5 46.5 66T656 275z"/><glyph unicode="A" horiz-adv-x="755" d="M245 0H0v56h78l259 644h106L680 56h75V0H469v56h89l-65 176H227L159 56h86zm5 288h226l-82 231-25 106h-4l-29-108z"/><glyph unicode="B" horiz-adv-x="690" d="M32 0v56h91v588H32v56h131q21 0 40 1t40 2q21 1 45.5 2t54.5 1q44 0 90-6.5t83-24.5q37-18 60.5-50.5T600 540q0-27-9.5-53t-28-48Q544 417 516 400t-65-25v-4q33-5 66-17t59.5-32.5Q603 301 619 271t16-72q0-54-26.5-93T539 42q-43-25-97.5-36.5T331-6q-39 0-87.5 3T150 0zm307 50q39 0 72.5 10.5T469 90q24 19 37.5 45.5T520 194q0 40-16.5 66.5t-44 42Q432 318 395 324t-78 6h-82V59q15-4 36.5-6.5T339 50zm-50 332q20 0 44.5 1.5T375 387q51 16 82 51.5t31 83.5q0 66-42 97t-114 31q-34 0-57.5-1.5T235 645V382z"/><glyph unicode="C" horiz-adv-x="698" d="M569 184h64V27q-31-17-82-28T450-12q-92 0-165 21T161.5 74.5Q111 119 84 187T57 350q0 98 30 166.5t81 112Q219 672 286 692t141 20q36 0 65-2.5t52.5-7.5q23.5-5 43.5-12t39-15V504h-64v105l-14 20q-11 5-34.5 12t-75.5 7q-54 0-101-17t-81.5-53Q222 542 202 485.5T182 350q0-143 72.5-220.5T458 52q36 0 60.5 5.5T555 72l14 19z"/><glyph unicode="D" horiz-adv-x="782" d="M32 0v56h91v588H32v56h123q19 0 44.5 1t52.5 2.5q27 1.5 51.5 3T345 708q93 0 164-23.5t119-68Q676 572 700.5 507T725 359q0-80-23-147T630 95.5q-49-49.5-125.5-77T322-9q-16 0-37 1.5t-44.5 3Q217-3 193-1.5T148 0zm298 652q-28 0-54-1t-41-4V51q6-1 20-1.5t30.5-1q16.5-.5 31.5-1t21-.5q75 0 125 25.5t80.5 68q30.5 42.5 43.5 99T600 359q0 49-12.5 101T544 555q-31 43-83 70t-131 27z"/><glyph unicode="E" horiz-adv-x="645" d="M564 700V536h-64v86l-20 22H235V385h169l15 15v42h64V271h-64v42l-15 16H235V56h262l20 20v98h64V0H32v56h91v588H32v56z"/><glyph unicode="F" horiz-adv-x="623" d="M235 56h107V0H32v56h91v588H32v56h541V536h-64v86l-20 22H235V370h181l15 15v48h64V250h-64v48l-15 16H235z"/><glyph unicode="G" horiz-adv-x="774" d="M669 48q-21-12-48-23T564.5 6Q535-2 505-7t-58-5q-93 0-165.5 21.5T159 75.5q-50 44.5-76 113T57 350q0 98 31.5 167T172 629.5q52 43.5 119.5 63T430 712q74 0 122-10t86-27V504h-64v105l-14 20q-9 5-23 8.5t-29.5 6q-15.5 2.5-32 3.5t-30.5 1q-55 0-103-17t-83.5-53q-35.5-36-56-92.5T182 350q0-142 70.5-220T455 52q33 0 56.5 4.5T553 68l15 18v189H462v56h277v-56h-70z"/><glyph unicode="H" horiz-adv-x="820" d="M318 56V0H32v56h91v588H32v56h286v-56h-83V387h350v257h-83v56h286v-56h-91V56h91V0H502v56h83v275H235V56z"/><glyph unicode="I" horiz-adv-x="398" d="M346 0H52v56h91v588H52v56h294v-56h-91V56h91z"/><glyph unicode="J" horiz-adv-x="380" d="M36-113q17 8 33 19.5t28.5 32Q110-41 117.5-8t7.5 86v566H42v56h286v-56h-91V88q0-71-18.5-116.5t-45.5-73Q146-129 115-142t-56-18z"/><glyph unicode="K" horiz-adv-x="712" d="M300 382l218 262h-81v56h247v-56h-79L367 377 650 56h62V0H551L288 332h-53V56h83V0H32v56h91v588H32v56h286v-56h-83V382z"/><glyph unicode="L" horiz-adv-x="609" d="M32 644v56h311v-56H235V56h266l20 22v138h72V0H32v56h91v588z"/><glyph unicode="M" horiz-adv-x="984" d="M32 644v56h228l236-448 241 448h215v-56h-91V56h91V0H662v56h91v446q1 5 1.5 23.5T756 565q1 25 2 54h-9l-43-107-205-362h-61L240 512l-44 117h-10v-62q0-23 .5-43.5t.5-21.5V56h85V0H32v56h91v588z"/><glyph unicode="N" horiz-adv-x="820" d="M542 700h246v-56h-91V-12h-65L225 537l-44 77h-4l10-78V56h91V0H32v56h91v588H32v56h200l350-471 52-86h5l-6 86v415h-91z"/><glyph unicode="O" horiz-adv-x="830" d="M57 350q0 78 24 144.5t69.5 115Q196 658 262.5 685T414 712q85 0 152-27t113-75.5q46-48.5 70-115T773 350q0-78-24-144.5t-70-115Q633 42 566 15T414-12q-85 0-151.5 27t-112 75.5Q105 139 81 205.5T57 350zm125 0q0-64 14.5-120t44.5-97q30-41 75.5-65T424 44q57 0 99 24t69.5 65q27.5 41 41.5 97t14 120q0 64-14.5 120T589 567q-30 41-75.5 65T405 656q-60 0-102.5-24T233 567q-27-41-39-97t-12-120z"/><glyph unicode="P" horiz-adv-x="667" d="M32 644v56h104q45 0 97.5 4t101.5 4q55 0 108-10.5t94-35.5q41-25 66.5-66.5T629 492q0-59-26-101.5T534.5 321q-42.5-27-98-40T322 268h-18q-12 0-25.5.5T253 270q-12 1-18 2V56h100V0H32v56h91v588zm203-315q5-2 15.5-2.5T273 325q12-1 23.5-1H314q39 0 73.5 9.5T448 363q26 20 41 52t15 77q0 82-51.5 121T312 652q-27 0-45-1.5t-32-4.5z"/><glyph unicode="Q" horiz-adv-x="830" d="M859-131q-44-37-94.5-54T660-202q-46 0-99.5 17T448-146.5q-59 21.5-122 42T197-77l8 40q24 3 47 3 57 0 113-12.5T478-74q57-15 115-27.5T711-114q32 0 65 5t67 16zM57 350q0 78 24 144.5t69.5 115Q196 658 262.5 685T414 712q85 0 152-27t113-75.5q46-48.5 70-115T773 350q0-78-24-144.5t-70-115Q633 42 566 15T414-12q-85 0-151.5 27t-112 75.5Q105 139 81 205.5T57 350zm125 0q0-64 14.5-120t44.5-97q30-41 75.5-65T424 44q57 0 99 24t69.5 65q27.5 41 41.5 97t14 120q0 64-14.5 120T589 567q-30 41-75.5 65T405 656q-60 0-102.5-24T233 567q-27-41-39-97t-12-120z"/><glyph unicode="R" horiz-adv-x="708" d="M235 56h86V0H32v56h91v588H32v56h101q45 0 98 4t104 4q55 0 103.5-11.5T522 661q35-24 55.5-61.5T598 510q0-72-44.5-122.5T437 316L636 56h62V0H536L337 302H235zm79 298q77 0 120.5 42T478 510q0 74-46 108t-122 34q-26 0-43.5-2t-31.5-4V354z"/><glyph unicode="S" horiz-adv-x="596" d="M126 98l18-24q18-13 49.5-21.5T263 44q36 0 66.5 7.5T383 74q23 15 36 38t13 55q0 41-27.5 68T336 283q-41 21-89 41t-89 47q-41 27-68.5 65T62 532q0 85 64.5 132.5T301 712q69 0 119-9t85-24V507h-64v108l-16 25q-19 8-55 12t-71 4q-60 0-94-27.5T171 551q0-41 27.5-68.5T267 433q41-22 89-42.5t89-47q41-26.5 68.5-63.5t27.5-92q0-97-75-148.5T261-12q-71 0-123 15T62 35v182h64z"/><glyph unicode="T" horiz-adv-x="698" d="M508 0H190v56h103v588H114l-20-22V493H22v207h654V493h-72v129l-20 22H405V56h103z"/><glyph unicode="U" horiz-adv-x="762" d="M659 239q0-64-19-110.5t-53.5-77Q552 21 503 6T394-9Q252-9 177.5 47.5T103 222v422H12v56h284v-56h-81V243q0-52 13-87.5t37.5-57Q290 77 326 67.5t82-9.5q88 0 137.5 44T595 246v398h-81v56h236v-56h-91V239z"/><glyph unicode="V" horiz-adv-x="771" d="M614 644h-91v56h248v-56h-82L457 0H346L86 644H0v56h307v-56h-96l180-467 29-95h4l30 97z"/><glyph unicode="W" horiz-adv-x="1056" d="M897 644h-87v56h246v-56h-83L806 0H690L534 554 377 0H261L86 644H0v56h299v-56h-95l107-428 26-133h4l39 135q0 1 6 22.5t16 55.5q10 34 22 77.5t25 88.5q30 106 68 238h74l142-482 31-133h5l30 135z"/><glyph unicode="X" horiz-adv-x="756" d="M449 700h252v-56h-82L423 375 653 56h91V0H453v56h73L350 303 184 56h77V0H10v56h84l219 296-210 292H14v56h298v-56h-80l155-223 150 223h-88z"/><glyph unicode="Y" horiz-adv-x="727" d="M478 700h249v-56h-85L429 297V56h91V0H226v56h91v240L91 644H0v56h302v-56h-84l181-291 171 291h-92z"/><glyph unicode="Z" horiz-adv-x="672" d="M40 56l458 588H157l-20-22V497H65v203h561v-56L168 56h372l20 22v125h72V0H40z"/><glyph unicode="[" horiz-adv-x="346" d="M92 700h215v-42H192v-846h115v-42H92z"/><glyph unicode="\" horiz-adv-x="428" d="M459-107l-58-27-455 823 58 29z"/><glyph unicode="]" horiz-adv-x="346" d="M254-230H39v42h115v846H39v42h215z"/><glyph unicode="^" horiz-adv-x="600" d="M284 711h39l191-277H412L286 633 140 434H76z"/><glyph unicode="_" horiz-adv-x="460" d="M0-141h460v-55H0z"/><glyph unicode="`" horiz-adv-x="344" d="M284 615l-28-23L60 709v41h126z"/><glyph unicode="a" horiz-adv-x="569" d="M464 139q0-23 1-46.5t3-42.5h66V0H377l-10 95h-5q-5-20-18.5-39t-34-34Q289 7 261-2t-62-9q-34 0-62.5 10T87 27Q66 45 54.5 70.5T43 128q0 49 20.5 81t60.5 50.5Q164 278 224 286t140 9q2 16 2 30.5V354q0 62-21 94.5T270 481q-20 0-43-2t-42-12v-92H95v111q36 19 85 34t115 15q57 0 91.5-14.5t53-38q18.5-23.5 24-53T469 371q0-63-2.5-120.5T464 139zM245 56q24 0 43 7.5t33.5 19Q336 94 346.5 108t17.5 27v119q-65 0-105.5-8.5T195 223q-23-14-31.5-33.5T155 148q0-45 24-68.5T245 56z"/><glyph unicode="b" horiz-adv-x="614" d="M85 700H0v50h190V422h3q19 53 64 83t101 30q102 0 156.5-64T569 272q0-139-75.5-210.5T278-10q-28 0-56.5 3.5t-55 9Q140 8 119 15T85 30zm240-232q-54 0-86.5-32.5T190 352V61q20-11 48.5-17.5T300 37q74 0 115 60t41 175q0 41-7 77t-23 62.5Q410 438 385.5 453T325 468z"/><glyph unicode="c" horiz-adv-x="523" d="M482 67q-21-29-66.5-53.5T308-11q-66 0-115.5 19.5t-82.5 55q-33 35.5-49 86T45 262q0 133 70.5 203T307 535q55 0 91-7t66-22V376h-90v96q-15 9-60 9-38 0-67-11t-49-36q-20-25-30-67t-10-103q0-40 11-76.5t33-64Q224 96 257.5 80T336 64q24 0 42.5 5T411 79.5Q425 85 436 92t21 15z"/><glyph unicode="d" horiz-adv-x="625" d="M418 104q-6-23-19.5-44t-33-37Q346 7 321-2t-54-9q-111 0-166.5 65.5T45 259q0 67 18.5 118.5T116 464q34 35 82 53t107 18q21 0 36-1t28-3q13-2 25-5.5t26-7.5v182h-85v50h190V50h68V0H431l-9 104zM290 56q55 0 86 31t44 86v295q-20 10-44.5 15t-64.5 5q-37 0-65.5-16t-48-46Q178 396 168 353.5T158 259q0-42 7.5-79t23.5-64.5Q205 88 230 72t60-16z"/><glyph unicode="e" horiz-adv-x="566" d="M499 69q-26-37-73.5-58.5T315-11q-66 0-116.5 19.5t-84.5 55q-34 35.5-51.5 86T45 262q0 134 67 203.5T300 535q40 0 78.5-10t68.5-33q30-23 48.5-61t18.5-94q0-17-2-36t-6-40H158q0-44 11.5-80t35-62Q228 93 263 78.5T346 64q39 0 72.5 13t53.5 30zM296 488q-31 0-54.5-9T201 449q-17-21-27-55.5T161 308h241q1 9 1.5 18.5t.5 17.5q0 66-26.5 105T296 488z"/><glyph unicode="f" horiz-adv-x="385" d="M347 750q35 0 62.5-6t41.5-11v-97h-96v64q-33 0-57.5-6T257 671q-16-17-24-46.5t-8-77.5v-22h128v-64H225V50h107V0H46v50h74v411H35v64h85v16q0 101 60.5 155T347 750z"/><glyph unicode="g" horiz-adv-x="592" d="M582 525v-64H465q14-14 26-39t12-60q0-74-58-119t-167-45q-20 0-34 .5t-30 4.5q-5-10-12.5-21.5T194 157q0-21 26-31.5t65-19q39-8.5 85-17t85.5-25Q495 48 521 21t26-71q0-38-19.5-66.5t-55-47Q437-182 388-191t-107-9q-125 0-187 33T32-76q0 56 38 86t107 50q-26 11-42 24t-16 39q0 12 6 24.5t16 24q10 11.5 22 21t23 15.5q-64 17-98.5 58T53 364q0 73 57 117t168 44zM442-74q0 33-23.5 52.5t-59 32Q324 23 283 31t-77 19Q164 25 150.5-.5T137-55q0-42 42-70t122-28q41 0 68 6.5t43.5 17.5q16.5 11 23 25t6.5 30zM158 364q0-26 6-48t19.5-37.5Q197 263 220 254t58-9q64 0 92 32.5t28 86.5q0 21-1.5 35t-4 25q-2.5 11-5.5 19.5t-6 17.5q-23 10-49 13.5t-54 3.5q-68 0-94-28t-26-86z"/><glyph unicode="h" horiz-adv-x="661" d="M642 0H397v50h66v246q0 83-22 127.5T363 468q-30 0-56-10t-46-26q-20-16-34.5-35.5T205 358V50h66V0H26v50h74v650H15v50h190V419h1q23 49 72.5 82.5T397 535q39 0 71-9.5t54-34.5q22-25 34-67t12-107V50h74z"/><glyph unicode="i" horiz-adv-x="339" d="M298 0H45v50h74v425H45v50h179V50h74zM97 687q0 29 20.5 46t52.5 17q34 0 53.5-17t19.5-46q0-29-19.5-46T170 624q-32 0-52.5 17T97 687z"/><glyph unicode="j" horiz-adv-x="326" d="M119 475H45v50h179V62q0-75-20.5-124T155-141.5q-28-30.5-56.5-45T54-206l-27 43q13 6 29 18.5T86-109q14 23 23.5 59.5T119 42zM96 687q0 29 20.5 46t52.5 17q34 0 53.5-17t19.5-46q0-29-19.5-46T169 624q-32 0-52.5 17T96 687z"/><glyph unicode="k" horiz-adv-x="582" d="M317 525h220v-50h-64L318 296 522 50h50V0H428L242 249h-37V50h74V0H26v50h74v650H15v50h190V289h35l153 186h-76z"/><glyph unicode="l" horiz-adv-x="339" d="M298 0H45v50h74v650H34v50h190V50h74z"/><glyph unicode="m" horiz-adv-x="971" d="M617 0H375v50h65v243q0 42-3.5 75t-14 55Q412 445 392 456.5T340 468q-24 0-44-8.5T260 436q-16-15-27.5-34.5T214 360V50h65V0H35v50h74v425H35v50h179V419h1q17 49 60.5 82.5T382 535q26 0 51.5-5t46.5-19q21-14 36.5-38.5T538 408q10 25 26.5 48t39 40.5q22.5 17.5 50.5 28t61 10.5q41 0 71.5-10t51-34.5q20.5-24.5 30.5-67T878 315V50h74V0H708v50h65v262q0 37-4 66.5t-15 49q-11 19.5-31 30T670 468q-53 0-82.5-32.5T545 350V50h72z"/><glyph unicode="n" horiz-adv-x="670" d="M651 0H406v50h66v251q0 79-24 123t-88 44q-28 0-51.5-9t-42-24q-18.5-15-32-35T214 358V50h66V0H35v50h74v425H35v50h179V421h1q23 48 67.5 81T390 535q45 0 80-9.5t58.5-34.5q23.5-25 36-67T577 317V50h74z"/><glyph unicode="o" horiz-adv-x="622" d="M45 262q0 66 19 117t53.5 85.5q34.5 34.5 84 52.5T311 535q70 0 120.5-19.5t82.5-55q32-35.5 47.5-86T577 262q0-66-18.5-116.5t-53-85Q471 26 421.5 8T311-10q-68 0-118 19.5t-83 55Q77 100 61 150T45 262zm113 0q0-48 9-89t29.5-71q20.5-30 53-47.5T329 37q59 0 97 54t38 171q0 48-9 89.5t-28.5 72Q407 454 376.5 471T302 488q-66 0-105-54t-39-172z"/><glyph unicode="p" horiz-adv-x="636" d="M287-200H34v50h74v625H34v50h179V420h1q22 53 62.5 84T383 535q99 0 153.5-61T591 274q0-66-18.5-119t-53-90q-34.5-37-83-56.5T328-11q-20 0-35.5 1T264-7q-13 2-25.5 6T213 8v-158h74zm57 668q-54 0-85.5-30.5T213 351V58q20-13 44.5-17.5T323 36q37 0 66 17.5t49 49q20 31.5 30.5 75T479 274q0 43-7 78.5t-22.5 61Q434 439 408 453.5T344 468z"/><glyph unicode="q" horiz-adv-x="616" d="M417 93q-8-21-22-39.5t-33.5-33Q342 6 317-2.5T261-11q-106 0-161 66T45 258q0 137 73 207t210 70q30 0 60-3t56.5-8q26.5-5 48-10.5T526 502v-652h74v-50H347v50h74V93zM290 56q54 0 85.5 31t45.5 85v301q-20 5-47.5 10t-62.5 5q-74 0-113.5-54.5T158 261q0-44 7-81.5t22.5-65Q203 87 228 71.5T290 56z"/><glyph unicode="r" horiz-adv-x="433" d="M284 435q-23-12-38-28t-32-46V50h88V0H35v50h74v425H35v50h179V424h4q17 33 40 57.5t52 43.5h96v-90z"/><glyph unicode="s" horiz-adv-x="486" d="M332 119q0 27-20 47.5t-50 38q-30 17.5-65 35t-65 40q-30 22.5-50 53T62 406q0 29 14 52.5t37.5 40.5q23.5 17 55.5 26.5t68 9.5q30 0 53-2t42-5.5q19-3.5 36-8.5t35-11V373h-64v79l-19 22q-13 3-28 5t-32 2q-48 0-71.5-18.5T165 416q0-27 20-47t50-37.5q30-17.5 65-34.5t65-38.5q30-21.5 50-49.5t20-67q0-36-16.5-64t-45-47.5Q345 11 306.5.5T225-10q-48 0-93.5 12.5T60 32v131h64V87l20-21q13-10 31-16t47-6q48 0 79 20t31 55z"/><glyph unicode="t" horiz-adv-x="418" d="M17 525h89v125h105V525h166v-64H211V169q0-63 16-89t52-26q31 0 53.5 11T374 89l25-39q-9-9-24.5-19.5T339 11q-20-9-44.5-15T244-10q-67 0-102.5 34.5T106 139v322H17z"/><glyph unicode="u" horiz-adv-x="647" d="M87 208q0 66 3 135t3 132H19v50h178q-2-78-3.5-149.5T192 227q0-41 4.5-72.5t17-53.5Q226 79 248 68t56-11q50 0 84 32t52 86v300h-73v50h178V50h74V0H452l-7 114h-5q-5-21-19.5-43T384 31q-22-18-51-29.5T270-10q-45 0-79 9.5T134 34q-23 25-35 67T87 208z"/><glyph unicode="v" horiz-adv-x="571" d="M238 0L46 475h-57v50h238v-50h-67l120-315 26-109h5l28 109 112 315h-61v50h192v-50h-62L346 0z"/><glyph unicode="w" horiz-adv-x="820" d="M176 0L49 475h-60v50h236v-50h-67l83-337 12-77h6l15 78 120 373h79l102-351 22-100h5l19 98 79 316h-62v50h193v-50h-63L636 0H519l-80 299q-1 1-3.5 14.5T429 344q-4 19-10 43h-6q-7-25-12-43-5-17-9-30t-4-15L286 0z"/><glyph unicode="x" horiz-adv-x="586" d="M338 281L515 50h59V0H330v50h67L274 224 150 50h55V0H12v50h63l167 210L74 475H19v50h240v-50h-65l115-159 112 159h-55v50h188v-50h-62z"/><glyph unicode="y" horiz-adv-x="568" d="M47 475h-59v50h258v-50h-84l136-332 20-76h5l19 77 107 331h-61v50h192v-50h-64L352 0q-14-41-30.5-75.5t-32-61q-15.5-26.5-30-43T235-200H134v90h102q7 8 13 16t12 20q6 12 13 29.5T290 0h-37z"/><glyph unicode="z" horiz-adv-x="549" d="M491 181V0H57v50l329 425H169l-20-20V355H85v170h416v-50L170 50h237l20 20v111z"/><glyph unicode="{" horiz-adv-x="391" d="M150 110q0 51-23 80t-67 29v32q44 0 67 30.5t23 74.5v238q0 48 27 77t81 29h103v-42h-53q-30 0-44-14t-14-46V365q0-33-12-56t-30-37.5q-18-14.5-40-22t-42-9.5v-6q19-2 41-10t40.5-24q18.5-16 30.5-39.5t12-55.5v-233q0-31 14-45.5t46-14.5h51v-42H258q-50 0-79 26.5T150-125z"/><glyph unicode="|" horiz-adv-x="266" d="M103 700h59v-830h-59z"/><glyph unicode="}" horiz-adv-x="391" d="M241 361q0-51 23.5-80t66.5-29v-32q-43 0-66.5-30.5T241 115v-239q0-48-27-77t-82-29H30v42h53q30 0 44 14t14 46v234q0 33 10 56t26.5 37.5q16.5 14.5 36.5 22t40 9.5v6q-20 2-40 10t-36 24q-16 16-26.5 39.5T141 366v232q0 31-13.5 45.5T82 658H30v42h103q50 0 79-26.5t29-78.5z"/><glyph unicode="~" horiz-adv-x="600" d="M61 331q41 54 82 70.5t76 16.5q29 0 55.5-10.5T327 384q26-13 52-23.5t54-10.5q21 0 42.5 7.5T520 384l19-32q-32-42-65.5-54.5T408 285q-29 0-56.5 10.5T297 319q-27 13-54 23.5T189 353q-25 0-49.5-10.5T89 301z"/><glyph horiz-adv-x="274"/><glyph unicode="¡" horiz-adv-x="368" d="M173 286l38-177v-305H106v305l37 177zm62 160q0-31-21.5-49T158 379q-35 0-57 18t-22 49q0 30 22 48t57 18q34 0 55.5-18t21.5-48z"/><glyph unicode="¢" horiz-adv-x="600" d="M547 78q-10-18-27.5-34t-41-28.5Q455 3 427.5-4.5T369-12v-158h-64V-8q-53 6-96.5 27t-75 54.5Q102 107 85 152t-17 98q0 62 17 111t48.5 84q31.5 35 75 56.5T305 531v129h64V535q54 0 87.5-8t63.5-22V338h-64v137q-3 2-11.5 4.5t-19.5 5q-11 2.5-23 4t-24 1.5h-11V50q4 0 8-.5t8-.5q38 0 72 14t67 46zM181 269q0-71 32-123.5T309 68v414q-57-16-92.5-70.5T181 269z"/><glyph unicode="£" horiz-adv-x="600" d="M34 381h95q-17 32-30 67t-13 86q0 41 17 74t47.5 56q30.5 23 73 35.5T318 712q69 0 121-9.5t84-23.5V507h-64v115l-20 24q-11 3-21 5.5t-23.5 4q-13.5 1.5-32 2t-45.5.5q-24 0-46.5-7T231 630q-17-14-27-34.5T194 548q0-51 15-90.5t29-76.5h173v-52H258q8-25 10-50t2-53q0-16-2.5-31.5T256 162q-9-17-26-36t-45-43h279l20 20v93h64V0H37v33q72 27 107.5 66t35.5 99q0 32-5.5 62.5T155 329H34z"/><glyph unicode="¤" horiz-adv-x="600" d="M40 171l93 81 38 12q-16 17-22 37.5t-6 44.5q0 23 7 44t21 38l-38 12-92 82 61 56 92-83 14-34q20 13 42.5 20t49.5 7q56-2 92-27l14 34 91 82 62-56-92-81-38-11q14-17 20.5-38t7.5-45q0-49-28-83l38-11 92-82-63-56-91 82-13 34q-38-24-92-24-27 0-50 6.5T205 230l-11-33-93-82zm260 93q41 0 68 23t27 59q0 36-27 60t-68 24q-41 0-68-24t-27-60q0-36 27-59t68-23z"/><glyph unicode="¥" horiz-adv-x="600" d="M404 700h247v-50h-86L388 335h159v-52H366v-63h181v-52H366V50h91V0H163v50h91v118H73v52h181v63H73v52h158L38 650h-91v50h303v-50h-86l171-299 160 299h-91z"/><glyph unicode="¦" horiz-adv-x="266" d="M103 190h59v-320h-59zm59 190h-59v320h59z"/><glyph unicode="§" horiz-adv-x="595" d="M390 43q0 30-24 48t-60 31.5q-36 13.5-78 26T150 180q-36 19-60 48t-24 76q0 25 11.5 46.5T109 390q20 18 46.5 32.5T213 449q-23 10-43.5 22T134 499.5q-15 16.5-24 38t-9 49.5q0 27 13.5 50t38 39.5q24.5 16.5 59 26T288 712q60 0 103.5-6t79.5-17V587h-72v63q-12 5-35 11.5t-49 6.5q-30 0-51-6.5T229.5 645Q216 635 210 622t-6-26q0-30 24-49t60-34q36-15 78-29t78-32.5q36-18.5 60-46t24-68.5q0-29-13.5-52.5t-34.5-42Q459 224 433.5 209T384 184q22-9 42-19.5t35-24.5q15-14 23.5-31.5T493 68q0-35-15.5-62.5t-44.5-47q-29-19.5-70-30T272-82q-97 0-182 30V53h72v-63q12-8 41-18t67-10q54 0 87 24t33 57zm35 269q0 24-13.5 41t-36 30Q353 396 324 406.5T265 428q-18-8-35.5-19t-31-24Q185 372 177 357t-8-31q0-26 14-45t37-33q23-14 52.5-24.5T333 203q18 10 34.5 23.5t29.5 28q13 14.5 20.5 29T425 312z"/><glyph unicode="¨" horiz-adv-x="494" d="M60 688q0 29 17.5 46.5T124 752q29 0 46.5-17.5T188 688q0-27-17.5-44.5T124 626q-29 0-46.5 17.5T60 688zm246 0q0 29 18.5 46.5T371 752q29 0 46-17.5t17-46.5q0-27-17-44.5T371 626q-28 0-46.5 17.5T306 688z"/><glyph unicode="©" horiz-adv-x="907" d="M78 290q0 83 31 148.5T192 549q52 45 120 69t141 24q73 0 139.5-24t117-69q50.5-45 80-110.5T819 290q0-83-29.5-148.5T709.5 31q-50.5-45-117-69T453-62q-81 0-149.5 24t-119 69Q134 76 106 141.5T78 290zm54 0q0-69 24-125t67-95.5Q266 30 325 8t128-22q70 0 127.5 22T679 69.5q41 39.5 63.5 95.5T765 290q0 69-24 125t-66 96q-42 40-99 61.5T453 594q-74 0-133-22t-101-61.5Q177 471 154.5 415T132 290zm413-83h46V107q-20-14-49-19.5T481 82q-54 0-99.5 13.5t-78.5 40Q270 162 251.5 201T233 291q0 52 20.5 91t53.5 65q33 26 75 39.5t85 13.5q45 0 75-5.5t53-16.5V369h-50v78q-3 2-11.5 4t-18.5 3.5q-10 1.5-21 2.5t-19 1q-63 0-98.5-44.5T341 291q0-33 8-63.5t25.5-53.5q17.5-23 45.5-36.5t67-13.5q21 0 37 5t21 9z"/><glyph unicode="ª" horiz-adv-x="484" d="M96 600l-6 73q14 6 29.5 12t36 10q20.5 4 47 6.5T265 704q72 0 99-26t27-75q0-19-.5-42.5t-1-47.5q-.5-24-1-45.5T388 430h56v-50H321l-10 59h-5q-6-9-16-21t-25.5-22Q249 386 226 379t-54-7q-52 0-84.5 24.5T55 465q0 31 17.5 50.5T120 546q30 11 70 15.5t84 4.5q8 0 15.5-.5t15.5-.5q1 6 1 17.5V599q0 13-3 25t-12 21.5q-9 9.5-24.5 15T227 666q-13 0-28.5-2.5T167 656v-56zm110-181q23 0 39.5 6.5T274 441q12 9 19 19.5t12 19.5v52q-11 1-23 1h-23q-22 0-42.5-3.5t-36-11Q165 511 156 499t-9-28q0-20 15-36t44-16z"/><glyph unicode="«" horiz-adv-x="530" d="M246 259l191 206 29-20-119-179L472 77l-27-21zm-219 0l241 208 29-21-155-181L304 76l-30-22z"/><glyph unicode="¬" horiz-adv-x="600" d="M67 388h478V198h-71v126H67z"/><glyph unicode="­" horiz-adv-x="475" d="M80 314h316v-64H80z"/><glyph unicode="®" horiz-adv-x="785" d="M109 451q0 64 23 114t62 84q39 34 90.5 51.5T393 718q59 0 111-17.5t90.5-51.5q38.5-34 61-84T678 451q0-65-23-114.5T592.5 253q-39.5-34-91-51.5T393 184q-56 0-107 17.5T195.5 253q-39.5 34-63 83.5T109 451zm48 0q0-52 19.5-93.5t52-71q32.5-29.5 75-45T393 226q49 0 92 15.5t75.5 44.5q32.5 29 51 70.5T630 451q0 52-19.5 93.5t-52 70.5Q526 644 483 660t-90 16q-50 0-93-16t-75-45q-32-29-50-70.5T157 451zm199-108h40v-34H256v34h39v231h-39v34h44q20 0 48 2t46 2q25 0 48.5-4.5t41-15q17.5-10.5 28-26.5t10.5-38q0-31-21.5-51.5T448 447l73-104h27v-34h-77l-76 134h-39zm33 236q-13 0-19.5-.5T356 576V473h35q65 0 65 55 0 26-19 38.5T389 579z"/><glyph unicode="¯" horiz-adv-x="408" d="M60 668v55h288v-55z"/><glyph unicode="°" horiz-adv-x="474" d="M101 571q0 31 11 57t31 44.5q20 18.5 47.5 29T251 712q66 0 108.5-35.5T402 571q0-66-42.5-103.5T251 430q-33 0-60.5 9.5t-47.5 28Q123 486 112 512t-11 59zm60 0q0-40 26-65.5t64-25.5q43 0 67 23.5t24 67.5q0 42-24.5 66.5T251 662q-43 0-66.5-24.5T161 571z"/><glyph unicode="±" horiz-adv-x="600" d="M48 491h222v209h60V491h222v-54H330V284h-60v153H48zm0-260h504v-54H48z"/><glyph unicode="²" horiz-adv-x="480" d="M143 633H79v124q17 11 33 20t35 16q19 7 43 10.5t58 3.5q43 0 72.5-9.5t47.5-25q18-15.5 26-36.5t8-45q0-33-18-66.5T333 559q-33-32-78.5-61.5T155 443v-6l35 6h172v68h64V380H66v63q46 23 89 50t76.5 57q33.5 30 54 62t20.5 65q0 19-4 33.5t-14.5 25Q277 746 259 751.5t-46 5.5q-20 0-37.5-3T143 743z"/><glyph unicode="³" horiz-adv-x="480" d="M231 420q27 0 46 7t31 18q12 11 17.5 24.5T331 496q0 42-26.5 60T217 574h-38v32l146 144H135v-94H71v144h334v-50L258 619v-1l35 4q27 0 51-7.5t42.5-22Q405 578 416 556t11-51q0-65-56.5-98.5T218 373q-46 0-89 16t-72 35v72h90v-53q10-6 30-14.5t54-8.5z"/><glyph unicode="´" horiz-adv-x="344" d="M158 750h126v-41L88 592l-28 23z"/><glyph unicode="µ" horiz-adv-x="653" d="M177-200H93v675H19v50h179V227q0-41 4.5-73t17-54.5Q232 77 254 65.5T310 54q50 0 84 33.5t52 87.5v300h-74v50h179V50h74V0H450v114h-5q-5-21-19-43.5t-36-41Q368 11 339.5-1T278-13q-35 0-57.5 8T177 19z"/><glyph unicode="¶" horiz-adv-x="592" d="M444 94q0-67-12-109.5t-33-68q-21-25.5-49.5-38T288-140q-23-32-53-48t-59-24l-23 33q25 9 46 22.5t36 36Q250-98 258.5-63t8.5 87v286q-36 0-71.5 10t-64 32.5Q103 375 85 411.5T67 500q0 42 14 78.5t42 63.5q28 27 70.5 42.5T293 700h235v-50h-84zM310-94q35 13 52.5 56T380 94v556h-49V24q0-40-4-68.5T310-94z"/><glyph unicode="·" horiz-adv-x="269" d="M58 308q0 31 21 49t56 18q35 0 57-18t22-49q0-30-22-48t-57-18q-35 0-56 18t-21 48z"/><glyph unicode="¸" horiz-adv-x="306" d="M125-61q63-2 92-17.5t29-48.5q0-32-17.5-51T184-207q-27-10-60-13.5T60-224v32q21 1 38.5 3t29.5 7q12 5 18.5 14t6.5 25q0 26-23 32t-69 10L103 1h51z"/><glyph unicode="¹" horiz-adv-x="480" d="M410 380H95v50h112v309l-99-37-22 45 121 53h91V430h112z"/><glyph unicode="º" horiz-adv-x="490" d="M48 542q0 39 15 70t41 53.5q26 22.5 62.5 34.5t78.5 12q43 0 79-10.5t62-31.5q26-21 40.5-53t14.5-75q0-39-14.5-70.5T386 418q-26-22-62-34t-79-12q-42 0-78.5 10.5T104 414q-26 21-41 53t-15 75zm96 0q0-60 26-96t75-36q100 0 100 132T245 674q-49 0-75-33t-26-99z"/><glyph unicode="»" horiz-adv-x="530" d="M88 56L59 77l125 184L65 445l29 20 191-206zm169-2l-31 22 164 184-157 186 29 21 242-208z"/><glyph unicode="¼" horiz-adv-x="1055" d="M392 280H77v50h112v309l-99-37-22 45 121 53h91V330h112zm453 434l41-38L229-10l-39 39zM941 0H701v50h89v69H540v50l250 251h84V169h95v-50h-95V50h67zM790 344L611 169h179z"/><glyph unicode="½" horiz-adv-x="1129" d="M392 280H77v50h112v309l-99-37-22 45 121 53h91V330h112zm453 434l41-38L229-10l-39 39zm-78-461h-64v124q17 11 33 20t35 16q19 7 43 10.5t58 3.5q43 0 72.5-9.5t47.5-25q18-15.5 26-36.5t8-45q0-33-18-66.5T957 179q-33-32-78.5-61.5T779 63v-6l35 6h172v68h64V0H690v63q46 23 89 50t76.5 57q33.5 30 54 62t20.5 65q0 19-4 33.5t-14.5 25Q901 366 883 371.5t-46 5.5q-20 0-37.5-3T767 363z"/><glyph unicode="¾" horiz-adv-x="1111" d="M260 320q27 0 46 7t31 18q12 11 17.5 24.5T360 396q0 42-26.5 60T246 474h-38v32l146 144H164v-94h-64v144h334v-50L287 519v-1l35 4q27 0 51-7.5t42.5-22Q434 478 445 456t11-51q0-65-56.5-98.5T247 273q-46 0-89 16t-72 35v72h90v-53q10-6 30-14.5t54-8.5zm641 394l41-38L285-10l-39 39zM998 0H758v50h89v69H597v50l250 251h84V169h95v-50h-95V50h67zM847 344L668 169h179z"/><glyph unicode="¿" horiz-adv-x="531" d="M352-44h96v-121q-42-23-88-33t-100-10q-118 0-173 53.5T32-6q0 44 15.5 82t45 68q29.5 30 71.5 50.5t96 27.5v100h64V180q-45-9-78.5-23t-56-36q-22.5-22-34-53.5T144-8q0-27 7-53.5t22-47.5q15-21 38.5-34t56.5-13q35 0 54.5 5.5T352-137zm19 490q0-31-21-49t-56-18q-35 0-57 18t-22 49q0 30 22 48t57 18q35 0 56-18t21-48z"/><glyph unicode="À" horiz-adv-x="755" d="M245 0H0v56h78l259 644h106L680 56h75V0H469v56h89l-65 176H227L159 56h86zm5 288h226l-82 231-25 106h-4l-29-108zm183 505l-13-24-256 72v40l123 33z"/><glyph unicode="Á" horiz-adv-x="755" d="M245 0H0v56h78l259 644h106L680 56h75V0H469v56h89l-65 176H227L159 56h86zm5 288h226l-82 231-25 106h-4l-29-108zm235 626l123-33v-40l-256-72-13 24z"/><glyph unicode="Â" horiz-adv-x="755" d="M245 0H0v56h78l259 644h106L680 56h75V0H469v56h89l-65 176H227L159 56h86zm5 288h226l-82 231-25 106h-4l-29-108zm-6 473l-16 20 142 133h31l141-130-18-22-142 56z"/><glyph unicode="Ã" horiz-adv-x="755" d="M245 0H0v56h78l259 644h106L680 56h75V0H469v56h89l-65 176H227L159 56h86zm5 288h226l-82 231-25 106h-4l-29-108zm314 555q-36-38-65.5-53T440 775q-21 0-39.5 6.5t-36.5 14q-18 7.5-35 14t-35 6.5q-14 0-31-6.5T228 786l-22 36q43 42 76 57t62 15q21 0 39-6t35-13.5q17-7.5 33.5-13.5t34.5-6q14 0 30.5 5t33.5 19z"/><glyph unicode="Ä" horiz-adv-x="755" d="M245 0H0v56h78l259 644h106L680 56h75V0H469v56h89l-65 176H227L159 56h86zm5 288h226l-82 231-25 106h-4l-29-108zm-56 508q0 29 18.5 43.5T259 854q29 0 48-14.5t19-43.5q0-26-19-40t-48-14q-28 0-46.5 14T194 796zm252 0q0 29 19 43.5t46 14.5q29 0 48-14.5t19-43.5q0-26-19-40t-48-14q-27 0-46 14t-19 40z"/><glyph unicode="Å" horiz-adv-x="755" d="M245 0H0v56h78l259 644h106L680 56h75V0H469v56h89l-65 176H227L159 56h86zm5 288h226l-82 231-25 106h-4l-29-108zm9 500q0 41 38 63.5t93 22.5q22 0 44-5t39.5-15q17.5-10 28.5-25.5t11-37.5q0-20-10-35t-27.5-26q-17.5-11-40-16.5T389 708q-58 0-94 21t-36 59zm75 0q0-17 14.5-27.5T383 750q29 0 42 10t13 27q0 26-15 35.5t-36 9.5q-27 0-40-12.5T334 788z"/><glyph unicode="Æ" horiz-adv-x="1027" d="M943 700V536h-64v86l-20 22H617V385h169l15 15v42h64V271h-64v42l-15 16H617V56h262l20 20v98h64V0H417v56h88v197H287L158 56h94V0H0v56h82l390 588h-60v56zM321 309h184v301h-2l-45-93z"/><glyph unicode="Ç" horiz-adv-x="698" d="M569 184h64V27q-31-17-82-28T450-12h-7l-27-52q68-2 101-18.5t33-52.5q0-30-20-49t-50.5-29.5Q449-224 413-228t-68-4v33q22 1 40.5 3.5T418-188q14 5 22 13.5t8 22.5q0 27-25 35t-75 10l40 98q-78 6-139.5 30.5t-104 69q-42.5 44.5-65 109T57 350q0 98 30 166.5t81 112Q219 672 286 692t141 20q36 0 65-2.5t52.5-7.5q23.5-5 43.5-12t39-15V504h-64v105l-14 20q-11 5-34.5 12t-75.5 7q-54 0-101-17t-81.5-53Q222 542 202 485.5T182 350q0-143 72.5-220.5T458 52q36 0 60.5 5.5T555 72l14 19z"/><glyph unicode="È" horiz-adv-x="645" d="M564 700V536h-64v86l-20 22H235V385h169l15 15v42h64V271h-64v42l-15 16H235V56h262l20 20v98h64V0H32v56h91v588H32v56zm-153 93l-13-24-256 72v40l123 33z"/><glyph unicode="É" horiz-adv-x="645" d="M564 700V536h-64v86l-20 22H235V385h169l15 15v42h64V271h-64v42l-15 16H235V56h262l20 20v98h64V0H32v56h91v588H32v56zM379 914l123-33v-40l-256-72-13 24z"/><glyph unicode="Ê" horiz-adv-x="645" d="M564 700V536h-64v86l-20 22H235V385h169l15 15v42h64V271h-64v42l-15 16H235V56h262l20 20v98h64V0H32v56h91v588H32v56zm-383 61l-16 20 142 133h31l141-130-18-22-142 56z"/><glyph unicode="Ë" horiz-adv-x="645" d="M564 700V536h-64v86l-20 22H235V385h169l15 15v42h64V271h-64v42l-15 16H235V56h262l20 20v98h64V0H32v56h91v588H32v56zm-429 96q0 29 18.5 43.5T200 854q29 0 48-14.5t19-43.5q0-26-19-40t-48-14q-28 0-46.5 14T135 796zm252 0q0 29 19 43.5t46 14.5q29 0 48-14.5t19-43.5q0-26-19-40t-48-14q-27 0-46 14t-19 40z"/><glyph unicode="Ì" horiz-adv-x="398" d="M346 0H52v56h91v588H52v56h294v-56h-91V56h91zm-37 793l-13-24-256 72v40l123 33z"/><glyph unicode="Í" horiz-adv-x="398" d="M346 0H52v56h91v588H52v56h294v-56h-91V56h91zm-88 914l123-33v-40l-256-72-13 24z"/><glyph unicode="Î" horiz-adv-x="398" d="M346 0H52v56h91v588H52v56h294v-56h-91V56h91zM58 761l-16 20 142 133h31l141-130-18-22-142 56z"/><glyph unicode="Ï" horiz-adv-x="398" d="M346 0H52v56h91v588H52v56h294v-56h-91V56h91zM7 796q0 29 18.5 43.5T72 854q29 0 48-14.5t19-43.5q0-26-19-40t-48-14q-28 0-46.5 14T7 796zm252 0q0 29 19 43.5t46 14.5q29 0 48-14.5t19-43.5q0-26-19-40t-48-14q-27 0-46 14t-19 40z"/><glyph unicode="Ð" horiz-adv-x="782" d="M32 0v56h91v275H23v54h100v259H32v56h123q19 0 44.5 1t52.5 2.5q27 1.5 51.5 3T345 708q93 0 164-23.5t119-68Q676 572 700.5 507T725 359q0-80-23-147T630 95.5q-49-49.5-125.5-77T322-9q-16 0-37 1.5t-44.5 3Q217-3 193-1.5T148 0zm298 652q-28 0-54-1t-41-4V385h179v-54H235V51q6-1 20-1.5t30.5-1q16.5-.5 31.5-1t21-.5q75 0 125 25.5t80.5 68q30.5 42.5 43.5 99T600 359q0 49-12.5 101T544 555q-31 43-83 70t-131 27z"/><glyph unicode="Ñ" horiz-adv-x="820" d="M542 700h246v-56h-91V-12h-65L225 537l-44 77h-4l10-78V56h91V0H32v56h91v588H32v56h200l350-471 52-86h5l-6 86v415h-91zm51 143q-36-38-65.5-53T469 775q-21 0-39.5 6.5t-36.5 14q-18 7.5-35 14t-35 6.5q-14 0-31-6.5T257 786l-22 36q43 42 76 57t62 15q21 0 39-6t35-13.5q17-7.5 33.5-13.5t34.5-6q14 0 30.5 5t33.5 19z"/><glyph unicode="Ò" horiz-adv-x="830" d="M57 350q0 78 24 144.5t69.5 115Q196 658 262.5 685T414 712q85 0 152-27t113-75.5q46-48.5 70-115T773 350q0-78-24-144.5t-70-115Q633 42 566 15T414-12q-85 0-151.5 27t-112 75.5Q105 139 81 205.5T57 350zm125 0q0-64 14.5-120t44.5-97q30-41 75.5-65T424 44q57 0 99 24t69.5 65q27.5 41 41.5 97t14 120q0 64-14.5 120T589 567q-30 41-75.5 65T405 656q-60 0-102.5-24T233 567q-27-41-39-97t-12-120zm306 443l-13-24-256 72v40l123 33z"/><glyph unicode="Ó" horiz-adv-x="830" d="M57 350q0 78 24 144.5t69.5 115Q196 658 262.5 685T414 712q85 0 152-27t113-75.5q46-48.5 70-115T773 350q0-78-24-144.5t-70-115Q633 42 566 15T414-12q-85 0-151.5 27t-112 75.5Q105 139 81 205.5T57 350zm125 0q0-64 14.5-120t44.5-97q30-41 75.5-65T424 44q57 0 99 24t69.5 65q27.5 41 41.5 97t14 120q0 64-14.5 120T589 567q-30 41-75.5 65T405 656q-60 0-102.5-24T233 567q-27-41-39-97t-12-120zm280 564l123-33v-40l-256-72-13 24z"/><glyph unicode="Ô" horiz-adv-x="830" d="M57 350q0 78 24 144.5t69.5 115Q196 658 262.5 685T414 712q85 0 152-27t113-75.5q46-48.5 70-115T773 350q0-78-24-144.5t-70-115Q633 42 566 15T414-12q-85 0-151.5 27t-112 75.5Q105 139 81 205.5T57 350zm125 0q0-64 14.5-120t44.5-97q30-41 75.5-65T424 44q57 0 99 24t69.5 65q27.5 41 41.5 97t14 120q0 64-14.5 120T589 567q-30 41-75.5 65T405 656q-60 0-102.5-24T233 567q-27-41-39-97t-12-120zm91 411l-16 20 142 133h31l141-130-18-22-142 56z"/><glyph unicode="Õ" horiz-adv-x="830" d="M57 350q0 78 24 144.5t69.5 115Q196 658 262.5 685T414 712q85 0 152-27t113-75.5q46-48.5 70-115T773 350q0-78-24-144.5t-70-115Q633 42 566 15T414-12q-85 0-151.5 27t-112 75.5Q105 139 81 205.5T57 350zm125 0q0-64 14.5-120t44.5-97q30-41 75.5-65T424 44q57 0 99 24t69.5 65q27.5 41 41.5 97t14 120q0 64-14.5 120T589 567q-30 41-75.5 65T405 656q-60 0-102.5-24T233 567q-27-41-39-97t-12-120zm411 493q-36-38-65.5-53T469 775q-21 0-39.5 6.5t-36.5 14q-18 7.5-35 14t-35 6.5q-14 0-31-6.5T257 786l-22 36q43 42 76 57t62 15q21 0 39-6t35-13.5q17-7.5 33.5-13.5t34.5-6q14 0 30.5 5t33.5 19z"/><glyph unicode="Ö" horiz-adv-x="830" d="M57 350q0 78 24 144.5t69.5 115Q196 658 262.5 685T414 712q85 0 152-27t113-75.5q46-48.5 70-115T773 350q0-78-24-144.5t-70-115Q633 42 566 15T414-12q-85 0-151.5 27t-112 75.5Q105 139 81 205.5T57 350zm125 0q0-64 14.5-120t44.5-97q30-41 75.5-65T424 44q57 0 99 24t69.5 65q27.5 41 41.5 97t14 120q0 64-14.5 120T589 567q-30 41-75.5 65T405 656q-60 0-102.5-24T233 567q-27-41-39-97t-12-120zm41 446q0 29 18.5 43.5T288 854q29 0 48-14.5t19-43.5q0-26-19-40t-48-14q-28 0-46.5 14T223 796zm252 0q0 29 19 43.5t46 14.5q29 0 48-14.5t19-43.5q0-26-19-40t-48-14q-27 0-46 14t-19 40z"/><glyph unicode="×" horiz-adv-x="600" d="M98 205l156 139-154 138 44 39 155-138 156 140 44-39-158-139 160-142-44-40-159 143-156-140z"/><glyph unicode="Ø" horiz-adv-x="830" d="M57 350q0 78 24 144.5t69.5 115Q196 658 262.5 685T414 712q54 0 100.5-11.5T600 669l52 74 52-35-52-74q59-49 90-122t31-162q0-78-24-144.5t-70-115Q633 42 566 15T414-12q-107 0-187 43l-62-88-50 36 61 87q-58 49-88.5 121.5T57 350zm591 0q0 60-12.5 112.5T597 556L273 96q29-26 66-40t85-14q57 0 99 24t69.5 66q27.5 42 41.5 98t14 120zm-466 0q0-60 12-112t38-93l323 460q-29 25-66 39t-84 14q-60 0-102.5-24T233 568q-27-42-39-98t-12-120z"/><glyph unicode="Ù" horiz-adv-x="762" d="M659 239q0-64-19-110.5t-53.5-77Q552 21 503 6T394-9Q252-9 177.5 47.5T103 222v422H12v56h284v-56h-81V243q0-52 13-87.5t37.5-57Q290 77 326 67.5t82-9.5q88 0 137.5 44T595 246v398h-81v56h236v-56h-91V239zM448 793l-13-24-256 72v40l123 33z"/><glyph unicode="Ú" horiz-adv-x="762" d="M659 239q0-64-19-110.5t-53.5-77Q552 21 503 6T394-9Q252-9 177.5 47.5T103 222v422H12v56h284v-56h-81V243q0-52 13-87.5t37.5-57Q290 77 326 67.5t82-9.5q88 0 137.5 44T595 246v398h-81v56h236v-56h-91V239zM515 914l123-33v-40l-256-72-13 24z"/><glyph unicode="Û" horiz-adv-x="762" d="M659 239q0-64-19-110.5t-53.5-77Q552 21 503 6T394-9Q252-9 177.5 47.5T103 222v422H12v56h284v-56h-81V243q0-52 13-87.5t37.5-57Q290 77 326 67.5t82-9.5q88 0 137.5 44T595 246v398h-81v56h236v-56h-91V239zM262 761l-16 20 142 133h31l141-130-18-22-142 56z"/><glyph unicode="Ü" horiz-adv-x="762" d="M659 239q0-64-19-110.5t-53.5-77Q552 21 503 6T394-9Q252-9 177.5 47.5T103 222v422H12v56h284v-56h-81V243q0-52 13-87.5t37.5-57Q290 77 326 67.5t82-9.5q88 0 137.5 44T595 246v398h-81v56h236v-56h-91V239zM213 796q0 29 18.5 43.5T278 854q29 0 48-14.5t19-43.5q0-26-19-40t-48-14q-28 0-46.5 14T213 796zm252 0q0 29 19 43.5t46 14.5q29 0 48-14.5t19-43.5q0-26-19-40t-48-14q-27 0-46 14t-19 40z"/><glyph unicode="Ý" horiz-adv-x="727" d="M478 700h249v-56h-85L429 297V56h91V0H226v56h91v240L91 644H0v56h302v-56h-84l181-291 171 291h-92zm26 214l123-33v-40l-256-72-13 24z"/><glyph unicode="Þ" horiz-adv-x="666" d="M32 644v56h292v-56h-89v-47q25 2 50.5 3t50.5 1q55 0 107.5-10.5T537 556q41-24 66-64.5T628 391q0-57-26-97.5t-68.5-67q-42.5-26.5-98-39T321 175h-18q-12 0-25 .5t-25 1q-12 .5-18 1.5V56h109V0H32v56h91v588zm279-99q-27 0-44.5-1.5T235 539V236q5-2 15.5-2.5T273 232q12-1 23-1h17q39 0 73.5 9t60.5 28.5q26 19.5 41 49.5t15 73q0 78-51.5 116T311 545z"/><glyph unicode="ß" horiz-adv-x="719" d="M487 589q-1 47-34 77t-80 30q-34 0-61.5-6.5t-47-25.5q-19.5-19-30-52.5T224 523V0H45v50h74v425H35v50h84v16q0 60 25 100t62 64q37 24 80 34.5t80 10.5q61 0 103.5-14.5t69-38.5q26.5-24 38.5-56t13-68q-84-11-132-37.5T410 461q0-32 20-56t49.5-44.5Q509 340 544 320t64.5-44.5q29.5-24.5 49.5-56t20-74.5q0-74-55-114.5T468-10q-24 0-48 4.5T374.5 6q-21.5 7-39 16.5T307 41v92h72V75q12-11 37-21t49-10q54 0 82 21t28 64q0 28-20 50t-49.5 42Q476 241 441 260.5t-64.5 43Q347 327 327 357t-20 70q0 49 41 92t139 70z"/><glyph unicode="à" horiz-adv-x="569" d="M464 139q0-23 1-46.5t3-42.5h66V0H377l-10 95h-5q-5-20-18.5-39t-34-34Q289 7 261-2t-62-9q-34 0-62.5 10T87 27Q66 45 54.5 70.5T43 128q0 49 20.5 81t60.5 50.5Q164 278 224 286t140 9q2 16 2 30.5V354q0 62-21 94.5T270 481q-20 0-43-2t-42-12v-92H95v111q36 19 85 34t115 15q57 0 91.5-14.5t53-38q18.5-23.5 24-53T469 371q0-63-2.5-120.5T464 139zM245 56q24 0 43 7.5t33.5 19Q336 94 346.5 108t17.5 27v119q-65 0-105.5-8.5T195 223q-23-14-31.5-33.5T155 148q0-45 24-68.5T245 56zm119 559l-28-23-196 117v41h126z"/><glyph unicode="á" horiz-adv-x="569" d="M464 139q0-23 1-46.5t3-42.5h66V0H377l-10 95h-5q-5-20-18.5-39t-34-34Q289 7 261-2t-62-9q-34 0-62.5 10T87 27Q66 45 54.5 70.5T43 128q0 49 20.5 81t60.5 50.5Q164 278 224 286t140 9q2 16 2 30.5V354q0 62-21 94.5T270 481q-20 0-43-2t-42-12v-92H95v111q36 19 85 34t115 15q57 0 91.5-14.5t53-38q18.5-23.5 24-53T469 371q0-63-2.5-120.5T464 139zM245 56q24 0 43 7.5t33.5 19Q336 94 346.5 108t17.5 27v119q-65 0-105.5-8.5T195 223q-23-14-31.5-33.5T155 148q0-45 24-68.5T245 56zm77 694h126v-41L252 592l-28 23z"/><glyph unicode="â" horiz-adv-x="569" d="M464 139q0-23 1-46.5t3-42.5h66V0H377l-10 95h-5q-5-20-18.5-39t-34-34Q289 7 261-2t-62-9q-34 0-62.5 10T87 27Q66 45 54.5 70.5T43 128q0 49 20.5 81t60.5 50.5Q164 278 224 286t140 9q2 16 2 30.5V354q0 62-21 94.5T270 481q-20 0-43-2t-42-12v-92H95v111q36 19 85 34t115 15q57 0 91.5-14.5t53-38q18.5-23.5 24-53T469 371q0-63-2.5-120.5T464 139zM245 56q24 0 43 7.5t33.5 19Q336 94 346.5 108t17.5 27v119q-65 0-105.5-8.5T195 223q-23-14-31.5-33.5T155 148q0-45 24-68.5T245 56zm-67 563l-32 17 125 196h29l126-195-32-18-113 112z"/><glyph unicode="ã" horiz-adv-x="569" d="M464 139q0-23 1-46.5t3-42.5h66V0H377l-10 95h-5q-5-20-18.5-39t-34-34Q289 7 261-2t-62-9q-34 0-62.5 10T87 27Q66 45 54.5 70.5T43 128q0 49 20.5 81t60.5 50.5Q164 278 224 286t140 9q2 16 2 30.5V354q0 62-21 94.5T270 481q-20 0-43-2t-42-12v-92H95v111q36 19 85 34t115 15q57 0 91.5-14.5t53-38q18.5-23.5 24-53T469 371q0-63-2.5-120.5T464 139zM245 56q24 0 43 7.5t33.5 19Q336 94 346.5 108t17.5 27v119q-65 0-105.5-8.5T195 223q-23-14-31.5-33.5T155 148q0-45 24-68.5T245 56zm201 649q-36-34-66.5-46.5T324 646q-20 0-38 5.5t-35 12q-17 6.5-33 12t-33 5.5q-14 0-29.5-5.5T122 655l-22 32q42 36 74.5 49t58.5 13q20 0 37.5-5.5T304 732q16-6 32-11.5t33-5.5q14 0 29 4.5t32 16.5z"/><glyph unicode="ä" horiz-adv-x="569" d="M464 139q0-23 1-46.5t3-42.5h66V0H377l-10 95h-5q-5-20-18.5-39t-34-34Q289 7 261-2t-62-9q-34 0-62.5 10T87 27Q66 45 54.5 70.5T43 128q0 49 20.5 81t60.5 50.5Q164 278 224 286t140 9q2 16 2 30.5V354q0 62-21 94.5T270 481q-20 0-43-2t-42-12v-92H95v111q36 19 85 34t115 15q57 0 91.5-14.5t53-38q18.5-23.5 24-53T469 371q0-63-2.5-120.5T464 139zM245 56q24 0 43 7.5t33.5 19Q336 94 346.5 108t17.5 27v119q-65 0-105.5-8.5T195 223q-23-14-31.5-33.5T155 148q0-45 24-68.5T245 56zM85 688q0 29 17.5 46.5T149 752q29 0 46.5-17.5T213 688q0-27-17.5-44.5T149 626q-29 0-46.5 17.5T85 688zm246 0q0 29 18.5 46.5T396 752q29 0 46-17.5t17-46.5q0-27-17-44.5T396 626q-28 0-46.5 17.5T331 688z"/><glyph unicode="å" horiz-adv-x="569" d="M464 139q0-23 1-46.5t3-42.5h66V0H377l-10 95h-5q-5-20-18.5-39t-34-34Q289 7 261-2t-62-9q-34 0-62.5 10T87 27Q66 45 54.5 70.5T43 128q0 49 20.5 81t60.5 50.5Q164 278 224 286t140 9q2 16 2 30.5V354q0 62-21 94.5T270 481q-20 0-43-2t-42-12v-92H95v111q36 19 85 34t115 15q57 0 91.5-14.5t53-38q18.5-23.5 24-53T469 371q0-63-2.5-120.5T464 139zM245 56q24 0 43 7.5t33.5 19Q336 94 346.5 108t17.5 27v119q-65 0-105.5-8.5T195 223q-23-14-31.5-33.5T155 148q0-45 24-68.5T245 56zm-83 661q0 43 32 72.5t81 29.5q45 0 75.5-26.5T381 720q0-21-9-39t-23.5-31q-14.5-13-34-20.5T274 622q-51 0-81.5 25.5T162 717zm60 2q0-26 15-39.5t33-13.5q22 0 36.5 12t14.5 38q0 29-14 44t-36 15q-26 0-37.5-15T222 719z"/><glyph unicode="æ" horiz-adv-x="875" d="M245 57q24 0 43 7.5T321.5 83Q336 94 346 108t17 27v119q-64 0-104.5-8.5T195 223q-23-14-31.5-33.5T155 148q0-45 24-68t66-23zm146 48q-8-13-21-32.5t-34-38Q315 16 284.5 3T212-10q-78 0-123.5 37.5T43 128q0 49 20 81t60.5 50.5Q164 278 223.5 286t139.5 9q3 31 3 59 0 62-21 94.5T270 481q-20 0-43-2t-42-12v-92H95v111q36 19 85 34t115 15q60 0 94.5-15.5T442 479q28 30 73 43t94 13q40 0 78.5-10t68.5-33q30-23 48.5-61t18.5-94q0-17-2-36t-6-40H468q0-44 11.5-80t34.5-62q23-26 58-40.5T655 64q39 0 72.5 13t53.5 30l27-38q-26-37-73.5-58.5T624-11q-85 0-143 30.5T391 105zm214 383q-31 0-54.5-9T510 449q-17-21-27-55.5T470 308h241q1 9 1.5 18.5t.5 17.5q0 66-26.5 105T605 488z"/><glyph unicode="ç" horiz-adv-x="523" d="M482 64q-21-29-66-52T311-11h-4l-23-50q63-2 92-17t29-49q0-32-17.5-51T343-207.5Q316-218 283-221t-64-3v32q21 1 38.5 3t29.5 7q12 5 18.5 14t6.5 25q0 26-23 32t-69 10l38 93Q150 6 97.5 78T45 262q0 133 70.5 203T307 535q55 0 91-7t66-22V376h-90v96q-15 9-60 9-38 0-67-11t-49-36q-20-25-30-67t-10-103q0-40 11-76.5t33-64Q224 96 257.5 80T336 64q24 0 42.5 3.5t32.5 9Q425 82 436 89t21 15z"/><glyph unicode="è" horiz-adv-x="566" d="M499 69q-26-37-73.5-58.5T315-11q-66 0-116.5 19.5t-84.5 55q-34 35.5-51.5 86T45 262q0 134 67 203.5T300 535q40 0 78.5-10t68.5-33q30-23 48.5-61t18.5-94q0-17-2-36t-6-40H158q0-44 11.5-80t35-62Q228 93 263 78.5T346 64q39 0 72.5 13t53.5 30zM296 488q-31 0-54.5-9T201 449q-17-21-27-55.5T161 308h241q1 9 1.5 18.5t.5 17.5q0 66-26.5 105T296 488zm77 127l-28-23-196 117v41h126z"/><glyph unicode="é" horiz-adv-x="566" d="M499 69q-26-37-73.5-58.5T315-11q-66 0-116.5 19.5t-84.5 55q-34 35.5-51.5 86T45 262q0 134 67 203.5T300 535q40 0 78.5-10t68.5-33q30-23 48.5-61t18.5-94q0-17-2-36t-6-40H158q0-44 11.5-80t35-62Q228 93 263 78.5T346 64q39 0 72.5 13t53.5 30zM296 488q-31 0-54.5-9T201 449q-17-21-27-55.5T161 308h241q1 9 1.5 18.5t.5 17.5q0 66-26.5 105T296 488zm43 262h126v-41L269 592l-28 23z"/><glyph unicode="ê" horiz-adv-x="566" d="M499 69q-26-37-73.5-58.5T315-11q-66 0-116.5 19.5t-84.5 55q-34 35.5-51.5 86T45 262q0 134 67 203.5T300 535q40 0 78.5-10t68.5-33q30-23 48.5-61t18.5-94q0-17-2-36t-6-40H158q0-44 11.5-80t35-62Q228 93 263 78.5T346 64q39 0 72.5 13t53.5 30zM296 488q-31 0-54.5-9T201 449q-17-21-27-55.5T161 308h241q1 9 1.5 18.5t.5 17.5q0 66-26.5 105T296 488zM187 619l-32 17 125 196h29l126-195-32-18-113 112z"/><glyph unicode="ë" horiz-adv-x="566" d="M499 69q-26-37-73.5-58.5T315-11q-66 0-116.5 19.5t-84.5 55q-34 35.5-51.5 86T45 262q0 134 67 203.5T300 535q40 0 78.5-10t68.5-33q30-23 48.5-61t18.5-94q0-17-2-36t-6-40H158q0-44 11.5-80t35-62Q228 93 263 78.5T346 64q39 0 72.5 13t53.5 30zM296 488q-31 0-54.5-9T201 449q-17-21-27-55.5T161 308h241q1 9 1.5 18.5t.5 17.5q0 66-26.5 105T296 488zM103 688q0 29 17.5 46.5T167 752q29 0 46.5-17.5T231 688q0-27-17.5-44.5T167 626q-29 0-46.5 17.5T103 688zm246 0q0 29 18.5 46.5T414 752q29 0 46-17.5t17-46.5q0-27-17-44.5T414 626q-28 0-46.5 17.5T349 688z"/><glyph unicode="ì" horiz-adv-x="339" d="M298 0H45v50h74v425H45v50h179V50h74zm-64 615l-28-23L10 709v41h126z"/><glyph unicode="í" horiz-adv-x="339" d="M298 0H45v50h74v425H45v50h179V50h74zm-97 750h126v-41L131 592l-28 23z"/><glyph unicode="î" horiz-adv-x="339" d="M298 0H45v50h74v425H45v50h179V50h74zM61 619l-32 17 125 196h29l126-195-32-18-113 112z"/><glyph unicode="ï" horiz-adv-x="339" d="M298 0H45v50h74v425H45v50h179V50h74zM-18 688q0 29 17.5 46.5T46 752q29 0 46.5-17.5T110 688q0-27-17.5-44.5T46 626q-29 0-46.5 17.5T-18 688zm246 0q0 29 18.5 46.5T293 752q29 0 46-17.5t17-46.5q0-27-17-44.5T293 626q-28 0-46.5 17.5T228 688z"/><glyph unicode="ð" horiz-adv-x="603" d="M233 600l89 53q-45 39-124 65l22 44q45-8 87.5-29.5T379 690l101 64 28-41-91-58q28-29 54-65.5t45.5-81q19.5-44.5 31.5-96T560 303q0-68-16.5-126T494 77q-33-42-82.5-66T295-13q-62 0-111 20t-83 55q-34 35-52.5 84T30 254q0 67 21.5 116t56 81.5q34.5 32.5 78 48T274 515q60 0 99-11t64-26q-14 39-32 73.5T355 615l-92-56zm-90-346q0-43 10.5-82t30.5-69q20-30 50-48t68-18q73 0 113 67.5T455 288q0 55-4.5 88t-8.5 47q-19 14-56 25t-88 11q-34 0-62.5-12t-49-37q-20.5-25-32-64T143 254z"/><glyph unicode="ñ" horiz-adv-x="670" d="M651 0H406v50h66v251q0 79-24 123t-88 44q-28 0-51.5-9t-42-24q-18.5-15-32-35T214 358V50h66V0H35v50h74v425H35v50h179V421h1q23 48 67.5 81T390 535q45 0 80-9.5t58.5-34.5q23.5-25 36-67T577 317V50h74zM509 705q-36-34-66.5-46.5T387 646q-20 0-38 5.5t-35 12q-17 6.5-33 12t-33 5.5q-14 0-29.5-5.5T185 655l-22 32q42 36 74.5 49t58.5 13q20 0 37.5-5.5T367 732q16-6 32-11.5t33-5.5q14 0 29 4.5t32 16.5z"/><glyph unicode="ò" horiz-adv-x="622" d="M45 262q0 66 19 117t53.5 85.5q34.5 34.5 84 52.5T311 535q70 0 120.5-19.5t82.5-55q32-35.5 47.5-86T577 262q0-66-18.5-116.5t-53-85Q471 26 421.5 8T311-10q-68 0-118 19.5t-83 55Q77 100 61 150T45 262zm113 0q0-48 9-89t29.5-71q20.5-30 53-47.5T329 37q59 0 97 54t38 171q0 48-9 89.5t-28.5 72Q407 454 376.5 471T302 488q-66 0-105-54t-39-172zm233 353l-28-23-196 117v41h126z"/><glyph unicode="ó" horiz-adv-x="622" d="M45 262q0 66 19 117t53.5 85.5q34.5 34.5 84 52.5T311 535q70 0 120.5-19.5t82.5-55q32-35.5 47.5-86T577 262q0-66-18.5-116.5t-53-85Q471 26 421.5 8T311-10q-68 0-118 19.5t-83 55Q77 100 61 150T45 262zm113 0q0-48 9-89t29.5-71q20.5-30 53-47.5T329 37q59 0 97 54t38 171q0 48-9 89.5t-28.5 72Q407 454 376.5 471T302 488q-66 0-105-54t-39-172zm191 488h126v-41L279 592l-28 23z"/><glyph unicode="ô" horiz-adv-x="622" d="M45 262q0 66 19 117t53.5 85.5q34.5 34.5 84 52.5T311 535q70 0 120.5-19.5t82.5-55q32-35.5 47.5-86T577 262q0-66-18.5-116.5t-53-85Q471 26 421.5 8T311-10q-68 0-118 19.5t-83 55Q77 100 61 150T45 262zm113 0q0-48 9-89t29.5-71q20.5-30 53-47.5T329 37q59 0 97 54t38 171q0 48-9 89.5t-28.5 72Q407 454 376.5 471T302 488q-66 0-105-54t-39-172zm45 357l-32 17 125 196h29l126-195-32-18-113 112z"/><glyph unicode="õ" horiz-adv-x="622" d="M45 262q0 66 19 117t53.5 85.5q34.5 34.5 84 52.5T311 535q70 0 120.5-19.5t82.5-55q32-35.5 47.5-86T577 262q0-66-18.5-116.5t-53-85Q471 26 421.5 8T311-10q-68 0-118 19.5t-83 55Q77 100 61 150T45 262zm113 0q0-48 9-89t29.5-71q20.5-30 53-47.5T329 37q59 0 97 54t38 171q0 48-9 89.5t-28.5 72Q407 454 376.5 471T302 488q-66 0-105-54t-39-172zm326 443q-36-34-66.5-46.5T362 646q-20 0-38 5.5t-35 12q-17 6.5-33 12t-33 5.5q-14 0-29.5-5.5T160 655l-22 32q42 36 74.5 49t58.5 13q20 0 37.5-5.5T342 732q16-6 32-11.5t33-5.5q14 0 29 4.5t32 16.5z"/><glyph unicode="ö" horiz-adv-x="622" d="M45 262q0 66 19 117t53.5 85.5q34.5 34.5 84 52.5T311 535q70 0 120.5-19.5t82.5-55q32-35.5 47.5-86T577 262q0-66-18.5-116.5t-53-85Q471 26 421.5 8T311-10q-68 0-118 19.5t-83 55Q77 100 61 150T45 262zm113 0q0-48 9-89t29.5-71q20.5-30 53-47.5T329 37q59 0 97 54t38 171q0 48-9 89.5t-28.5 72Q407 454 376.5 471T302 488q-66 0-105-54t-39-172zm-34 426q0 29 17.5 46.5T188 752q29 0 46.5-17.5T252 688q0-27-17.5-44.5T188 626q-29 0-46.5 17.5T124 688zm246 0q0 29 18.5 46.5T435 752q29 0 46-17.5t17-46.5q0-27-17-44.5T435 626q-28 0-46.5 17.5T370 688z"/><glyph unicode="÷" horiz-adv-x="600" d="M47 373h505v-54H47zm175 163q0 31 21 49t56 18q35 0 57-18t22-49q0-30-22-48t-57-18q-35 0-56 18t-21 48zm0-381q0 31 21 49t56 18q35 0 57-18t22-49q0-30-22-48t-57-18q-35 0-56 18t-21 48z"/><glyph unicode="ø" horiz-adv-x="622" d="M130 43q-43 37-64 93T45 262q0 66 19 117t53.5 85.5q34.5 34.5 84 52.5T311 535q43 0 79-6.5t64-21.5l51 74 45-29-53-73q42-38 61-92.5T577 262q0-66-18.5-116.5t-53-85Q471 26 421.5 8T311-10q-40 0-74.5 6T174 16l-56-80-43 28zm28 219q0-40 6.5-75t21.5-64l224 322q-20 23-46.5 33T302 488q-66 0-105-54t-39-172zm306 0q0 38-6 72t-19 62L216 76q20-21 48-30t66-9q59 0 96.5 54T464 262z"/><glyph unicode="ù" horiz-adv-x="647" d="M87 208q0 66 3 135t3 132H19v50h178q-2-78-3.5-149.5T192 227q0-41 4.5-72.5t17-53.5Q226 79 248 68t56-11q50 0 84 32t52 86v300h-73v50h178V50h74V0H452l-7 114h-5q-5-21-19.5-43T384 31q-22-18-51-29.5T270-10q-45 0-79 9.5T134 34q-23 25-35 67T87 208zm316 407l-28-23-196 117v41h126z"/><glyph unicode="ú" horiz-adv-x="647" d="M87 208q0 66 3 135t3 132H19v50h178q-2-78-3.5-149.5T192 227q0-41 4.5-72.5t17-53.5Q226 79 248 68t56-11q50 0 84 32t52 86v300h-73v50h178V50h74V0H452l-7 114h-5q-5-21-19.5-43T384 31q-22-18-51-29.5T270-10q-45 0-79 9.5T134 34q-23 25-35 67T87 208zm271 542h126v-41L288 592l-28 23z"/><glyph unicode="û" horiz-adv-x="647" d="M87 208q0 66 3 135t3 132H19v50h178q-2-78-3.5-149.5T192 227q0-41 4.5-72.5t17-53.5Q226 79 248 68t56-11q50 0 84 32t52 86v300h-73v50h178V50h74V0H452l-7 114h-5q-5-21-19.5-43T384 31q-22-18-51-29.5T270-10q-45 0-79 9.5T134 34q-23 25-35 67T87 208zm128 411l-32 17 125 196h29l126-195-32-18-113 112z"/><glyph unicode="ü" horiz-adv-x="647" d="M87 208q0 66 3 135t3 132H19v50h178q-2-78-3.5-149.5T192 227q0-41 4.5-72.5t17-53.5Q226 79 248 68t56-11q50 0 84 32t52 86v300h-73v50h178V50h74V0H452l-7 114h-5q-5-21-19.5-43T384 31q-22-18-51-29.5T270-10q-45 0-79 9.5T134 34q-23 25-35 67T87 208zm47 480q0 29 17.5 46.5T198 752q29 0 46.5-17.5T262 688q0-27-17.5-44.5T198 626q-29 0-46.5 17.5T134 688zm246 0q0 29 18.5 46.5T445 752q29 0 46-17.5t17-46.5q0-27-17-44.5T445 626q-28 0-46.5 17.5T380 688z"/><glyph unicode="ý" horiz-adv-x="568" d="M47 475h-59v50h258v-50h-84l136-332 20-76h5l19 77 107 331h-61v50h192v-50h-64L352 0q-14-41-30.5-75.5t-32-61q-15.5-26.5-30-43T235-200H134v90h102q7 8 13 16t12 20q6 12 13 29.5T290 0h-37zm285 275h126v-41L262 592l-28 23z"/><glyph unicode="þ" horiz-adv-x="636" d="M287-200H34v50h74v850H34v50h179V420h1q22 53 62.5 84T383 535q99 0 153.5-61T591 274q0-66-18.5-119t-53-90q-34.5-37-83-56.5T328-11q-20 0-35.5 1T264-7q-13 2-25.5 6T213 8v-158h74zm57 668q-54 0-85.5-30.5T213 351V58q20-13 44.5-17.5T323 36q37 0 66 17.5t49 49q20 31.5 30.5 75T479 274q0 43-7 78.5t-22.5 61Q434 439 408 453.5T344 468z"/><glyph unicode="ÿ" horiz-adv-x="568" d="M47 475h-59v50h258v-50h-84l136-332 20-76h5l19 77 107 331h-61v50h192v-50h-64L352 0q-14-41-30.5-75.5t-32-61q-15.5-26.5-30-43T235-200H134v90h102q7 8 13 16t12 20q6 12 13 29.5T290 0h-37zm61 213q0 29 17.5 46.5T172 752q29 0 46.5-17.5T236 688q0-27-17.5-44.5T172 626q-29 0-46.5 17.5T108 688zm246 0q0 29 18.5 46.5T419 752q29 0 46-17.5t17-46.5q0-27-17-44.5T419 626q-28 0-46.5 17.5T354 688z"/><glyph unicode="Ā" horiz-adv-x="755" d="M245 0H0v56h78l259 644h106L680 56h75V0H469v56h89l-65 176H227L159 56h86zm5 288h226l-82 231-25 106h-4l-29-108zm-36 499v64h340v-64z"/><glyph unicode="ā" horiz-adv-x="569" d="M464 139q0-23 1-46.5t3-42.5h66V0H377l-10 95h-5q-5-20-18.5-39t-34-34Q289 7 261-2t-62-9q-34 0-62.5 10T87 27Q66 45 54.5 70.5T43 128q0 49 20.5 81t60.5 50.5Q164 278 224 286t140 9q2 16 2 30.5V354q0 62-21 94.5T270 481q-20 0-43-2t-42-12v-92H95v111q36 19 85 34t115 15q57 0 91.5-14.5t53-38q18.5-23.5 24-53T469 371q0-63-2.5-120.5T464 139zM245 56q24 0 43 7.5t33.5 19Q336 94 346.5 108t17.5 27v119q-65 0-105.5-8.5T195 223q-23-14-31.5-33.5T155 148q0-45 24-68.5T245 56zM138 668v55h288v-55z"/><glyph unicode="Ă" horiz-adv-x="755" d="M245 0H0v56h78l259 644h106L680 56h75V0H469v56h89l-65 176H227L159 56h86zm5 288h226l-82 231-25 106h-4l-29-108zm307 602q-9-26-25.5-50T493 798q-22-18-48.5-28.5T390 759q-31 0-59.5 10T279 797q-23 18-40 42.5T215 892l47 15q8-12 23-22.5t33-18q18-7.5 37-11.5t36-4q36 0 71.5 11.5T521 904z"/><glyph unicode="ă" horiz-adv-x="569" d="M464 139q0-23 1-46.5t3-42.5h66V0H377l-10 95h-5q-5-20-18.5-39t-34-34Q289 7 261-2t-62-9q-34 0-62.5 10T87 27Q66 45 54.5 70.5T43 128q0 49 20.5 81t60.5 50.5Q164 278 224 286t140 9q2 16 2 30.5V354q0 62-21 94.5T270 481q-20 0-43-2t-42-12v-92H95v111q36 19 85 34t115 15q57 0 91.5-14.5t53-38q18.5-23.5 24-53T469 371q0-63-2.5-120.5T464 139zM245 56q24 0 43 7.5t33.5 19Q336 94 346.5 108t17.5 27v119q-65 0-105.5-8.5T195 223q-23-14-31.5-33.5T155 148q0-45 24-68.5T245 56zm193 700q-10-24-24.5-47t-33-41q-18.5-18-42-29.5T287 627q-60 0-98 37t-58 94l32 14q9-15 24-27.5t32.5-21.5q17.5-9 36-14.5T291 703q36 0 67 16.5t53 48.5z"/><glyph unicode="Ą" horiz-adv-x="755" d="M245 0H0v56h78l259 644h106L680 56h75V0h-56q-46-19-72.5-43.5T600-110q0-27 20-37.5t53-10.5q34 0 63 6v-31q-16-11-41-19.5t-62-8.5q-26 0-49.5 5t-41 15q-17.5 10-28 25.5T504-128q0 46 34.5 77.5T624 0H469v56h89l-65 176H227L159 56h86zm5 288h226l-82 231-25 106h-4l-29-108z"/><glyph unicode="ą" horiz-adv-x="569" d="M464 139q0-23 1-46.5t3-42.5h66V0h-12q-49-9-82-31.5T407-100q0-20 14.5-36.5T471-153q30 0 59 10v-36q-16-9-40.5-15t-44.5-6q-66 0-100 21.5T311-117q0 27 14.5 47T361-36q21 14 45.5 22.5T451 0h-74l-10 95h-5q-5-20-18.5-39t-34-34Q289 7 261-2t-62-9q-34 0-62.5 10T87 27Q66 45 54.5 70.5T43 128q0 49 20.5 81t60.5 50.5Q164 278 224 286t140 9q3 31 3 59 0 62-21.5 94.5T270 481q-20 0-43-2t-42-12v-92H95v111q36 19 85 34t115 15q57 0 91.5-14.5t53-38q18.5-23.5 24-53T469 371q0-63-2.5-120.5T464 139zM245 56q24 0 43 7.5t33.5 19Q336 94 346.5 108t17.5 27v119q-64 0-104.5-8.5t-64-22.5q-23.5-14-32-33.5T155 148q0-45 24-68.5T245 56z"/><glyph unicode="Ć" horiz-adv-x="698" d="M569 184h64V27q-31-17-82-28T450-12q-92 0-165 21T161.5 74.5Q111 119 84 187T57 350q0 98 30 166.5t81 112Q219 672 286 692t141 20q36 0 65-2.5t52.5-7.5q23.5-5 43.5-12t39-15V504h-64v105l-14 20q-11 5-34.5 12t-75.5 7q-54 0-101-17t-81.5-53Q222 542 202 485.5T182 350q0-143 72.5-220.5T458 52q36 0 60.5 5.5T555 72l14 19zm-86 730l123-33v-40l-256-72-13 24z"/><glyph unicode="ć" horiz-adv-x="523" d="M482 67q-21-29-66.5-53.5T308-11q-66 0-115.5 19.5t-82.5 55q-33 35.5-49 86T45 262q0 133 70.5 203T307 535q55 0 91-7t66-22V376h-90v96q-15 9-60 9-38 0-67-11t-49-36q-20-25-30-67t-10-103q0-40 11-76.5t33-64Q224 96 257.5 80T336 64q24 0 42.5 5T411 79.5Q425 85 436 92t21 15zM332 750h126v-41L262 592l-28 23z"/><glyph unicode="Ĉ" horiz-adv-x="698" d="M569 184h64V27q-31-17-82-28T450-12q-92 0-165 21T161.5 74.5Q111 119 84 187T57 350q0 98 30 166.5t81 112Q219 672 286 692t141 20q36 0 65-2.5t52.5-7.5q23.5-5 43.5-12t39-15V504h-64v105l-14 20q-11 5-34.5 12t-75.5 7q-54 0-101-17t-81.5-53Q222 542 202 485.5T182 350q0-143 72.5-220.5T458 52q36 0 60.5 5.5T555 72l14 19zM279 761l-16 20 142 133h31l141-130-18-22-142 56z"/><glyph unicode="ĉ" horiz-adv-x="523" d="M482 67q-21-29-66.5-53.5T308-11q-66 0-115.5 19.5t-82.5 55q-33 35.5-49 86T45 262q0 133 70.5 203T307 535q55 0 91-7t66-22V376h-90v96q-15 9-60 9-38 0-67-11t-49-36q-20-25-30-67t-10-103q0-40 11-76.5t33-64Q224 96 257.5 80T336 64q24 0 42.5 5T411 79.5Q425 85 436 92t21 15zM187 619l-32 17 125 196h29l126-195-32-18-113 112z"/><glyph unicode="Č" horiz-adv-x="698" d="M569 184h64V27q-31-17-82-28T450-12q-92 0-165 21T161.5 74.5Q111 119 84 187T57 350q0 98 30 166.5t81 112Q219 672 286 692t141 20q36 0 65-2.5t52.5-7.5q23.5-5 43.5-12t39-15V504h-64v105l-14 20q-11 5-34.5 12t-75.5 7q-54 0-101-17t-81.5-53Q222 542 202 485.5T182 350q0-143 72.5-220.5T458 52q36 0 60.5 5.5T555 72l14 19zm-6 735l28-18-142-142h-31L277 898l28 21 133-55z"/><glyph unicode="č" horiz-adv-x="523" d="M482 67q-21-29-66.5-53.5T308-11q-66 0-115.5 19.5t-82.5 55q-33 35.5-49 86T45 262q0 133 70.5 203T307 535q55 0 91-7t66-22V376h-90v96q-15 9-60 9-38 0-67-11t-49-36q-20-25-30-67t-10-103q0-40 11-76.5t33-64Q224 96 257.5 80T336 64q24 0 42.5 5T411 79.5Q425 85 436 92t21 15zm-77 739l32-17-139-195h-29L132 788l40 18 119-110z"/><glyph unicode="Ď" horiz-adv-x="782" d="M32 0v56h91v588H32v56h123q19 0 44.5 1t52.5 2.5q27 1.5 51.5 3T345 708q93 0 164-23.5t119-68Q676 572 700.5 507T725 359q0-80-23-147T630 95.5q-49-49.5-125.5-77T322-9q-16 0-37 1.5t-44.5 3Q217-3 193-1.5T148 0zm298 652q-28 0-54-1t-41-4V51q6-1 20-1.5t30.5-1q16.5-.5 31.5-1t21-.5q75 0 125 25.5t80.5 68q30.5 42.5 43.5 99T600 359q0 49-12.5 101T544 555q-31 43-83 70t-131 27zm137 267l28-18-142-142h-31L181 898l28 21 133-55z"/><glyph unicode="ď" horiz-adv-x="625" d="M418 104q-6-23-19.5-44t-33-37Q346 7 321-2t-54-9q-111 0-166.5 65.5T45 259q0 67 18.5 118.5T116 464q34 35 82 53t107 18q21 0 36-1t28-3q13-2 25-5.5t26-7.5v182h-85v50h190V50h68V0H431l-9 104zM290 56q55 0 86 31t44 86v295q-20 10-44.5 15t-64.5 5q-37 0-65.5-16t-48-46Q178 396 168 353.5T158 259q0-42 7.5-79t23.5-64.5Q205 88 230 72t60-16zm281 513q24 48 36 103.5t12 98.5l15 18q8 0 21-2t27-5.5q14-3.5 26.5-8T728 763q-5-29-19.5-59T675 646.5Q656 619 634.5 596T595 558z"/><glyph unicode="Đ" horiz-adv-x="782" d="M32 0v56h91v275H23v54h100v259H32v56h123q19 0 44.5 1t52.5 2.5q27 1.5 51.5 3T345 708q93 0 164-23.5t119-68Q676 572 700.5 507T725 359q0-80-23-147T630 95.5q-49-49.5-125.5-77T322-9q-16 0-37 1.5t-44.5 3Q217-3 193-1.5T148 0zm298 652q-28 0-54-1t-41-4V385h179v-54H235V51q6-1 20-1.5t30.5-1q16.5-.5 31.5-1t21-.5q75 0 125 25.5t80.5 68q30.5 42.5 43.5 99T600 359q0 49-12.5 101T544 555q-31 43-83 70t-131 27z"/><glyph unicode="đ" horiz-adv-x="625" d="M251 653h169v47h-84v50h189v-97h102v-55H525V50h68V0H431l-10 104h-4q-6-23-19.5-44t-33-37Q345 7 320.5-2T267-11q-111 0-166.5 65.5T45 259q0 67 18.5 118.5T116 464q34 35 82 53t107 18q21 0 36-1t28-3q13-2 25-5.5t26-7.5v80H251zm39-597q55 0 86 31t44 86v295q-20 10-44.5 15t-64.5 5q-37 0-65.5-16t-48-46Q178 396 168 353.5T158 259q0-42 7.5-79t23.5-64.5Q205 88 230 72t60-16z"/><glyph unicode="Ē" horiz-adv-x="645" d="M564 700V536h-64v86l-20 22H235V385h169l15 15v42h64V271h-64v42l-15 16H235V56h262l20 20v98h64V0H32v56h91v588H32v56zm-410 87v64h340v-64z"/><glyph unicode="ē" horiz-adv-x="566" d="M499 69q-26-37-73.5-58.5T315-11q-66 0-116.5 19.5t-84.5 55q-34 35.5-51.5 86T45 262q0 134 67 203.5T300 535q40 0 78.5-10t68.5-33q30-23 48.5-61t18.5-94q0-17-2-36t-6-40H158q0-44 11.5-80t35-62Q228 93 263 78.5T346 64q39 0 72.5 13t53.5 30zM296 488q-31 0-54.5-9T201 449q-17-21-27-55.5T161 308h241q1 9 1.5 18.5t.5 17.5q0 66-26.5 105T296 488zM150 668v55h288v-55z"/><glyph unicode="Ė" horiz-adv-x="645" d="M564 700V536h-64v86l-20 22H235V385h169l15 15v42h64V271h-64v42l-15 16H235V56h262l20 20v98h64V0H32v56h91v588H32v56zM250 821q0 29 23 44t57 15q35 0 58-15t23-44q0-29-23-44t-58-15q-34 0-57 15t-23 44z"/><glyph unicode="ė" horiz-adv-x="566" d="M499 69q-26-37-73.5-58.5T315-11q-66 0-116.5 19.5t-84.5 55q-34 35.5-51.5 86T45 262q0 134 67 203.5T300 535q40 0 78.5-10t68.5-33q30-23 48.5-61t18.5-94q0-17-2-36t-6-40H158q0-44 11.5-80t35-62Q228 93 263 78.5T346 64q39 0 72.5 13t53.5 30zM296 488q-31 0-54.5-9T201 449q-17-21-27-55.5T161 308h241q1 9 1.5 18.5t.5 17.5q0 66-26.5 105T296 488zm-78 199q0 29 20.5 46t52.5 17q34 0 53.5-17t19.5-46q0-29-19.5-46T291 624q-32 0-52.5 17T218 687z"/><glyph unicode="Ę" horiz-adv-x="645" d="M564 700V536h-64v86l-20 22H235V385h169l15 15v42h64V271h-64v42l-15 16H235V56h262l20 20v98h64V0h-56q-46-19-72.5-43.5T426-110q0-27 20-37.5t53-10.5q34 0 63 6v-31q-16-11-41-19.5t-62-8.5q-26 0-49.5 5t-41 15q-17.5 10-28 25.5T330-128q0 46 34.5 77.5T450 0H32v56h91v588H32v56z"/><glyph unicode="ę" horiz-adv-x="566" d="M499 69q-33-47-94-66-38-19-62.5-41T318-100q0-20 14.5-36.5T382-153q30 0 59 10v-36q-16-9-40.5-15t-44.5-6q-66 0-100 21.5T222-117q0 39 25 63.5T314-11q-66 0-116.5 19.5t-84 55q-33.5 35.5-51 86T45 262q0 134 67 203.5T300 535q40 0 78.5-10t68.5-33q30-23 48.5-61t18.5-94q0-17-2-36t-6-40H158q0-44 11.5-80t35-62Q228 93 263 78.5T346 64q39 0 72.5 13t53.5 30zM296 488q-31 0-54.5-9T201 449q-17-21-27-55.5T161 308h241q1 9 1.5 18.5t.5 17.5q0 66-26.5 105T296 488z"/><glyph unicode="Ě" horiz-adv-x="645" d="M564 700V536h-64v86l-20 22H235V385h169l15 15v42h64V271h-64v42l-15 16H235V56h262l20 20v98h64V0H32v56h91v588H32v56zm-99 219l28-18-142-142h-31L179 898l28 21 133-55z"/><glyph unicode="ě" horiz-adv-x="566" d="M499 69q-26-37-73.5-58.5T315-11q-66 0-116.5 19.5t-84.5 55q-34 35.5-51.5 86T45 262q0 134 67 203.5T300 535q40 0 78.5-10t68.5-33q30-23 48.5-61t18.5-94q0-17-2-36t-6-40H158q0-44 11.5-80t35-62Q228 93 263 78.5T346 64q39 0 72.5 13t53.5 30zM296 488q-31 0-54.5-9T201 449q-17-21-27-55.5T161 308h241q1 9 1.5 18.5t.5 17.5q0 66-26.5 105T296 488zm129 318l32-17-139-195h-29L152 788l40 18 119-110z"/><glyph unicode="Ĝ" horiz-adv-x="774" d="M669 48q-21-12-48-23T564.5 6Q535-2 505-7t-58-5q-93 0-165.5 21.5T159 75.5q-50 44.5-76 113T57 350q0 98 31.5 167T172 629.5q52 43.5 119.5 63T430 712q74 0 122-10t86-27V504h-64v105l-14 20q-9 5-23 8.5t-29.5 6q-15.5 2.5-32 3.5t-30.5 1q-55 0-103-17t-83.5-53q-35.5-36-56-92.5T182 350q0-142 70.5-220T455 52q33 0 56.5 4.5T553 68l15 18v189H462v56h277v-56h-70zM281 761l-16 20 142 133h31l141-130-18-22-142 56z"/><glyph unicode="ĝ" horiz-adv-x="592" d="M582 525v-64H465q14-14 26-39t12-60q0-74-58-119t-167-45q-20 0-34 .5t-30 4.5q-5-10-12.5-21.5T194 157q0-21 26-31.5t65-19q39-8.5 85-17t85.5-25Q495 48 521 21t26-71q0-38-19.5-66.5t-55-47Q437-182 388-191t-107-9q-125 0-187 33T32-76q0 56 38 86t107 50q-26 11-42 24t-16 39q0 12 6 24.5t16 24q10 11.5 22 21t23 15.5q-64 17-98.5 58T53 364q0 73 57 117t168 44zM442-74q0 33-23.5 52.5t-59 32Q324 23 283 31t-77 19Q164 25 150.5-.5T137-55q0-42 42-70t122-28q41 0 68 6.5t43.5 17.5q16.5 11 23 25t6.5 30zM158 364q0-26 6-48t19.5-37.5Q197 263 220 254t58-9q64 0 92 32.5t28 86.5q0 21-1.5 35t-4 25q-2.5 11-5.5 19.5t-6 17.5q-23 10-49 13.5t-54 3.5q-68 0-94-28t-26-86zm10 255l-32 17 125 196h29l126-195-32-18-113 112z"/><glyph unicode="Ğ" horiz-adv-x="774" d="M669 48q-21-12-48-23T564.5 6Q535-2 505-7t-58-5q-93 0-165.5 21.5T159 75.5q-50 44.5-76 113T57 350q0 98 31.5 167T172 629.5q52 43.5 119.5 63T430 712q74 0 122-10t86-27V504h-64v105l-14 20q-9 5-23 8.5t-29.5 6q-15.5 2.5-32 3.5t-30.5 1q-55 0-103-17t-83.5-53q-35.5-36-56-92.5T182 350q0-142 70.5-220T455 52q33 0 56.5 4.5T553 68l15 18v189H462v56h277v-56h-70zm-53 842q-9-26-25.5-50T552 798q-22-18-48.5-28.5T449 759q-31 0-59.5 10T338 797q-23 18-40 42.5T274 892l47 15q8-12 23-22.5t33-18q18-7.5 37-11.5t36-4q36 0 71.5 11.5T580 904z"/><glyph unicode="ğ" horiz-adv-x="592" d="M582 525v-64H465q14-14 26-39t12-60q0-74-58-119t-167-45q-20 0-34 .5t-30 4.5q-5-10-12.5-21.5T194 157q0-21 26-31.5t65-19q39-8.5 85-17t85.5-25Q495 48 521 21t26-71q0-38-19.5-66.5t-55-47Q437-182 388-191t-107-9q-125 0-187 33T32-76q0 56 38 86t107 50q-26 11-42 24t-16 39q0 12 6 24.5t16 24q10 11.5 22 21t23 15.5q-64 17-98.5 58T53 364q0 73 57 117t168 44zM442-74q0 33-23.5 52.5t-59 32Q324 23 283 31t-77 19Q164 25 150.5-.5T137-55q0-42 42-70t122-28q41 0 68 6.5t43.5 17.5q16.5 11 23 25t6.5 30zM158 364q0-26 6-48t19.5-37.5Q197 263 220 254t58-9q64 0 92 32.5t28 86.5q0 21-1.5 35t-4 25q-2.5 11-5.5 19.5t-6 17.5q-23 10-49 13.5t-54 3.5q-68 0-94-28t-26-86zm280 392q-10-24-24.5-47t-33-41q-18.5-18-42-29.5T287 627q-60 0-98 37t-58 94l32 14q9-15 24-27.5t32.5-21.5q17.5-9 36-14.5T291 703q36 0 67 16.5t53 48.5z"/><glyph unicode="Ģ" horiz-adv-x="774" d="M669 48q-21-12-48-23T564.5 6Q535-2 505-7t-58-5q-93 0-165.5 21.5T159 75.5q-50 44.5-76 113T57 350q0 98 31.5 167T172 629.5q52 43.5 119.5 63T430 712q74 0 122-10t86-27V504h-64v105l-14 20q-9 5-23 8.5t-29.5 6q-15.5 2.5-32 3.5t-30.5 1q-55 0-103-17t-83.5-53q-35.5-36-56-92.5T182 350q0-142 70.5-220T455 52q33 0 56.5 4.5T553 68l15 18v189H462v56h277v-56h-70zM330-236q42 11 67.5 30.5T423-156v7h-60q-10 12-14 25t-4 27q0 30 18 56h126q17-34 17-69 0-32-14-59t-36.5-48q-22.5-21-52-35.5T344-273z"/><glyph unicode="ģ" horiz-adv-x="592" d="M582 525v-64H465q14-14 26-39t12-60q0-74-58-119t-167-45q-20 0-34 .5t-30 4.5q-5-10-12.5-21.5T194 157q0-21 26-31.5t65-19q39-8.5 85-17t85.5-25Q495 48 521 21t26-71q0-38-19.5-66.5t-55-47Q437-182 388-191t-107-9q-125 0-187 33T32-76q0 56 38 86t107 50q-26 11-42 24t-16 39q0 12 6 24.5t16 24q10 11.5 22 21t23 15.5q-64 17-98.5 58T53 364q0 73 57 117t168 44zM442-74q0 33-23.5 52.5t-59 32Q324 23 283 31t-77 19Q164 25 150.5-.5T137-55q0-42 42-70t122-28q41 0 68 6.5t43.5 17.5q16.5 11 23 25t6.5 30zM158 364q0-26 6-48t19.5-37.5Q197 263 220 254t58-9q64 0 92 32.5t28 86.5q0 21-1.5 35t-4 25q-2.5 11-5.5 19.5t-6 17.5q-23 10-49 13.5t-54 3.5q-68 0-94-28t-26-86zm234 440q-42-11-67.5-33T299 719v-7h60q10-12 14-24.5t4-24.5q0-28-18-54H243q-10 20-14 38t-4 35q0 31 12.5 57.5t34 47q21.5 20.5 49 34.5t57.5 20z"/><glyph unicode="Ĥ" horiz-adv-x="820" d="M318 56V0H32v56h91v588H32v56h286v-56h-83V387h350v257h-83v56h286v-56h-91V56h91V0H502v56h83v275H235V56zm-48 705l-16 20 142 133h31l141-130-18-22-142 56z"/><glyph unicode="ĥ" horiz-adv-x="661" d="M642 0H397v50h66v246q0 83-22 127.5T363 468q-30 0-56-10t-46-26q-20-16-34.5-35.5T205 358V50h66V0H26v50h74v650H15v50h190V419h1q23 49 72.5 82.5T397 535q39 0 71-9.5t54-34.5q22-25 34-67t12-107V50h74zM1 761l-16 20 142 133h31l141-130-18-22-142 56z"/><glyph unicode="Ħ" horiz-adv-x="820" d="M34 560h89v84H32v56h286v-56h-83v-84h350v84h-83v56h286v-56h-91v-84h89v-54h-89V56h91V0H502v56h83v275H235V56h83V0H32v56h91v450H34zm551-173v119H235V387z"/><glyph unicode="ħ" horiz-adv-x="661" d="M5 653h95v47H15v50h190v-97h176v-55H205V419h1q23 49 72.5 82.5T397 535q39 0 71-9.5t54-34.5q22-25 34-67t12-107V50h74V0H397v50h66v246q0 83-22 127.5T363 468q-30 0-56-10t-46-26q-20-16-34.5-35.5T205 358V50h66V0H26v50h74v548H5z"/><glyph unicode="Ī" horiz-adv-x="398" d="M346 0H52v56h91v588H52v56h294v-56h-91V56h91zM28 787v64h340v-64z"/><glyph unicode="ī" horiz-adv-x="339" d="M298 0H45v50h74v425H45v50h179V50h74zM25 668v55h288v-55z"/><glyph unicode="Į" horiz-adv-x="398" d="M346 0h-56q-46-19-72.5-43.5T191-110q0-27 20-37.5t53-10.5q34 0 63 6v-31q-16-11-41-19.5t-62-8.5q-26 0-49.5 5t-41 15q-17.5 10-28 25.5T95-128q0 46 34.5 77.5T215 0H52v56h91v588H52v56h294v-56h-91V56h91z"/><glyph unicode="į" horiz-adv-x="339" d="M298 0h-16q-24-6-44.5-17T202-41.5Q187-55 178.5-70t-8.5-30q0-20 14.5-36.5T234-153q30 0 59 10v-36q-16-9-40.5-15t-44.5-6q-66 0-100 21.5T74-117q0 41 34.5 66.5T215 0H45v50h74v425H45v50h179V50h74zM97 687q0 29 20.5 46t52.5 17q34 0 53.5-17t19.5-46q0-29-19.5-46T170 624q-32 0-52.5 17T97 687z"/><glyph unicode="İ" horiz-adv-x="398" d="M346 0H52v56h91v588H52v56h294v-56h-91V56h91zM117 821q0 29 23 44t57 15q35 0 58-15t23-44q0-29-23-44t-58-15q-34 0-57 15t-23 44z"/><glyph unicode="ı" horiz-adv-x="339" d="M298 0H45v50h74v425H45v50h179V50h74z"/><glyph unicode="Ĵ" horiz-adv-x="380" d="M36-113q17 8 33 19.5t28.5 32Q110-41 117.5-8t7.5 86v566H42v56h286v-56h-91V88q0-71-18.5-116.5t-45.5-73Q146-129 115-142t-56-18zm3 874l-16 20 142 133h31l141-130-18-22-142 56z"/><glyph unicode="ĵ" horiz-adv-x="326" d="M119 475H45v50h179V62q0-75-20.5-124T155-141.5q-28-30.5-56.5-45T54-206l-27 43q13 6 29 18.5T86-109q14 23 23.5 59.5T119 42zM61 619l-32 17 125 196h29l126-195-32-18-113 112z"/><glyph unicode="Ķ" horiz-adv-x="712" d="M300 382l218 262h-81v56h247v-56h-79L367 377 650 56h62V0H551L288 332h-53V56h83V0H32v56h91v588H32v56h286v-56h-83V382zm-35-618q42 11 67.5 30.5T358-156v7h-60q-10 12-14 25t-4 27q0 30 18 56h126q17-34 17-69 0-32-14-59t-36.5-48q-22.5-21-52-35.5T279-273z"/><glyph unicode="ķ" horiz-adv-x="582" d="M317 525h220v-50h-64L318 296 522 50h50V0H428L242 249h-37V50h74V0H26v50h74v650H15v50h190V289h35l153 186h-76zM199-236q42 11 67.5 33t25.5 52v7h-60q-10 12-14 24.5T214-95q0 28 18 54h116q10-20 14-38t4-35q0-31-12.5-57.5t-34-47Q298-239 270.5-253T213-273z"/><glyph unicode="Ĺ" horiz-adv-x="609" d="M32 644v56h311v-56H235V56h266l20 22v138h72V0H32v56h91v588zm285 270l123-33v-40l-256-72-13 24z"/><glyph unicode="ĺ" horiz-adv-x="339" d="M298 0H45v50h74v650H34v50h190V50h74zm-51 926l123-33v-40l-256-72-13 24z"/><glyph unicode="Ļ" horiz-adv-x="609" d="M32 644v56h311v-56H235V56h266l20 22v138h72V0H32v56h91v588zm187-880q42 11 67.5 30.5T312-156v7h-60q-10 12-14 25t-4 27q0 30 18 56h126q17-34 17-69 0-32-14-59t-36.5-48q-22.5-21-52-35.5T233-273z"/><glyph unicode="ļ" horiz-adv-x="339" d="M298 0H45v50h74v650H34v50h190V50h74zM84-236q42 11 67.5 33t25.5 52v7h-60q-10 12-14 24.5T99-95q0 28 18 54h116q10-20 14-38t4-35q0-31-12.5-57.5t-34-47Q183-239 155.5-253T98-273z"/><glyph unicode="Ľ" horiz-adv-x="609" d="M32 644v56h311v-56H235V56h266l20 22v138h72V0H32v56h91v588zm355-144l46 99 1 84 15 17h107q-3-41-19-76.5t-37.5-64q-21.5-28.5-46-49T410 479z"/><glyph unicode="ľ" horiz-adv-x="339" d="M298 0H45v50h74v650H34v50h190V50h74zm-25 569q24 48 36 103.5t12 98.5l15 18q8 0 21-2t27-5.5q14-3.5 26.5-8T430 763q-5-29-19.5-59T377 646.5Q358 619 336.5 596T297 558z"/><glyph unicode="Ł" horiz-adv-x="609" d="M32 644v56h311v-56H235V404l150 83v-77l-150-83V56h266l20 22v138h72V0H32v56h91v210L19 209v76l104 57v302z"/><glyph unicode="ł" horiz-adv-x="360" d="M27 310l106 61v329H48v50h190V431l101 59v-69l-101-59V50h74V0H59v50h74v251L27 240z"/><glyph unicode="Ń" horiz-adv-x="820" d="M542 700h246v-56h-91V-12h-65L225 537l-44 77h-4l10-78V56h91V0H32v56h91v588H32v56h200l350-471 52-86h5l-6 86v415h-91zm-47 214l123-33v-40l-256-72-13 24z"/><glyph unicode="ń" horiz-adv-x="670" d="M651 0H406v50h66v251q0 79-24 123t-88 44q-28 0-51.5-9t-42-24q-18.5-15-32-35T214 358V50h66V0H35v50h74v425H35v50h179V421h1q23 48 67.5 81T390 535q45 0 80-9.5t58.5-34.5q23.5-25 36-67T577 317V50h74zM402 750h126v-41L332 592l-28 23z"/><glyph unicode="Ņ" horiz-adv-x="820" d="M542 700h246v-56h-91V-12h-65L225 537l-44 77h-4l10-78V56h91V0H32v56h91v588H32v56h200l350-471 52-86h5l-6 86v415h-91zM317-236q42 11 67.5 30.5T410-156v7h-60q-10 12-14 25t-4 27q0 30 18 56h126q17-34 17-69 0-32-14-59t-36.5-48q-22.5-21-52-35.5T331-273z"/><glyph unicode="ņ" horiz-adv-x="670" d="M651 0H406v50h66v251q0 79-24 123t-88 44q-28 0-51.5-9t-42-24q-18.5-15-32-35T214 358V50h66V0H35v50h74v425H35v50h179V421h1q23 48 67.5 81T390 535q45 0 80-9.5t58.5-34.5q23.5-25 36-67T577 317V50h74zM253-236q42 11 67.5 33t25.5 52v7h-60q-10 12-14 24.5T268-95q0 28 18 54h116q10-20 14-38t4-35q0-31-12.5-57.5t-34-47Q352-239 324.5-253T267-273z"/><glyph unicode="Ň" horiz-adv-x="820" d="M542 700h246v-56h-91V-12h-65L225 537l-44 77h-4l10-78V56h91V0H32v56h91v588H32v56h200l350-471 52-86h5l-6 86v415h-91zm1 219l28-18-142-142h-31L257 898l28 21 133-55z"/><glyph unicode="ň" horiz-adv-x="670" d="M651 0H406v50h66v251q0 79-24 123t-88 44q-28 0-51.5-9t-42-24q-18.5-15-32-35T214 358V50h66V0H35v50h74v425H35v50h179V421h1q23 48 67.5 81T390 535q45 0 80-9.5t58.5-34.5q23.5-25 36-67T577 317V50h74zM455 806l32-17-139-195h-29L182 788l40 18 119-110z"/><glyph unicode="Ō" horiz-adv-x="830" d="M57 350q0 78 24 144.5t69.5 115Q196 658 262.5 685T414 712q85 0 152-27t113-75.5q46-48.5 70-115T773 350q0-78-24-144.5t-70-115Q633 42 566 15T414-12q-85 0-151.5 27t-112 75.5Q105 139 81 205.5T57 350zm125 0q0-64 14.5-120t44.5-97q30-41 75.5-65T424 44q57 0 99 24t69.5 65q27.5 41 41.5 97t14 120q0 64-14.5 120T589 567q-30 41-75.5 65T405 656q-60 0-102.5-24T233 567q-27-41-39-97t-12-120zm63 437v64h340v-64z"/><glyph unicode="ō" horiz-adv-x="622" d="M45 262q0 66 19 117t53.5 85.5q34.5 34.5 84 52.5T311 535q70 0 120.5-19.5t82.5-55q32-35.5 47.5-86T577 262q0-66-18.5-116.5t-53-85Q471 26 421.5 8T311-10q-68 0-118 19.5t-83 55Q77 100 61 150T45 262zm113 0q0-48 9-89t29.5-71q20.5-30 53-47.5T329 37q59 0 97 54t38 171q0 48-9 89.5t-28.5 72Q407 454 376.5 471T302 488q-66 0-105-54t-39-172zm9 406v55h288v-55z"/><glyph unicode="Ő" horiz-adv-x="830" d="M57 350q0 78 24 144.5t69.5 115Q196 658 262.5 685T414 712q85 0 152-27t113-75.5q46-48.5 70-115T773 350q0-78-24-144.5t-70-115Q633 42 566 15T414-12q-85 0-151.5 27t-112 75.5Q105 139 81 205.5T57 350zm125 0q0-64 14.5-120t44.5-97q30-41 75.5-65T424 44q57 0 99 24t69.5 65q27.5 41 41.5 97t14 120q0 64-14.5 120T589 567q-30 41-75.5 65T405 656q-60 0-102.5-24T233 567q-27-41-39-97t-12-120zm200 558l101-24v-24L306 757l-22 19zm197 0l106-22v-25L455 755l-25 19z"/><glyph unicode="ő" horiz-adv-x="622" d="M45 262q0 66 19 117t53.5 85.5q34.5 34.5 84 52.5T311 535q70 0 120.5-19.5t82.5-55q32-35.5 47.5-86T577 262q0-66-18.5-116.5t-53-85Q471 26 421.5 8T311-10q-68 0-118 19.5t-83 55Q77 100 61 150T45 262zm113 0q0-48 9-89t29.5-71q20.5-30 53-47.5T329 37q59 0 97 54t38 171q0 48-9 89.5t-28.5 72Q407 454 376.5 471T302 488q-66 0-105-54t-39-172zm117 544l97-22v-26L217 628l-27 16zm196 0l98-29v-25L345 628l-23 18z"/><glyph unicode="Œ" horiz-adv-x="1064" d="M414 712q26 0 61-3t67-9h438V536h-64v86l-20 22H654V385h169l15 15v42h64V271h-64v42l-15 16H654V56h262l20 20v98h64V0H543q-29-5-63.5-8.5T414-12q-85 0-151.5 27t-112 75.5Q105 139 81 205.5T57 350q0 78 24 144.5t69.5 115Q196 658 262.5 685T414 712zm10-670q29 0 59.5 4.5T542 62v571q-29 11-64 18t-73 7q-60 0-102.5-24T233 568q-27-42-39-98t-12-120q0-64 14.5-120t44.5-98q30-42 75.5-66T424 42z"/><glyph unicode="œ" horiz-adv-x="984" d="M158 262q0-48 9-89t29.5-71Q217 72 250 54.5T330 37q59 0 97 54t38 171q0 48-9 89.5t-28.5 72Q408 454 377 471t-75 17q-66 0-105-54t-39-172zM521 79q-20-25-44.5-42t-52-27.5Q397-1 368-5.5T311-10q-68 0-118 19.5t-83 55Q77 100 61 150T45 262q0 66 19 117t53.5 85.5q34.5 34.5 84 52.5T311 535q30 0 60.5-4.5t57.5-15q27-10.5 50-27t40-40.5q14 22 36.5 38.5T605 514q27 11 56 16t58 5q40 0 78-9.5t68-32.5q30-23 48.5-61t18.5-95q0-17-2-36t-6-40H576q0-44 11.5-81.5t35-64.5q23.5-27 59-42.5T765 57q38 0 71.5 16t55.5 40l30-35q-9-18-28.5-34T849 16Q824 4 794-3t-60-7q-31 0-63.5 6t-62 17.5Q579 25 556 41.5T521 79zm194 409q-31 0-55-9t-41-30q-17-21-27-55.5T579 308h242q1 9 1 18v17q0 67-26 106t-81 39z"/><glyph unicode="Ŕ" horiz-adv-x="708" d="M235 56h86V0H32v56h91v588H32v56h101q45 0 98 4t104 4q55 0 103.5-11.5T522 661q35-24 55.5-61.5T598 510q0-72-44.5-122.5T437 316L636 56h62V0H536L337 302H235zm79 298q77 0 120.5 42T478 510q0 74-46 108t-122 34q-26 0-43.5-2t-31.5-4V354zm103 560l123-33v-40l-256-72-13 24z"/><glyph unicode="ŕ" horiz-adv-x="433" d="M284 435q-23-12-38-28t-32-46V50h88V0H35v50h74v425H35v50h179V424h4q17 33 40 57.5t52 43.5h96v-90zm3 315h126v-41L217 592l-28 23z"/><glyph unicode="Ŗ" horiz-adv-x="708" d="M235 56h86V0H32v56h91v588H32v56h101q45 0 98 4t104 4q55 0 103.5-11.5T522 661q35-24 55.5-61.5T598 510q0-72-44.5-122.5T437 316L636 56h62V0H536L337 302H235zm79 298q77 0 120.5 42T478 510q0 74-46 108t-122 34q-26 0-43.5-2t-31.5-4V354zm-51-590q42 11 67.5 30.5T356-156v7h-60q-10 12-14 25t-4 27q0 30 18 56h126q17-34 17-69 0-32-14-59t-36.5-48q-22.5-21-52-35.5T277-273z"/><glyph unicode="ŗ" horiz-adv-x="433" d="M284 435q-23-12-38-28t-32-46V50h88V0H35v50h74v425H35v50h179V424h4q17 33 40 57.5t52 43.5h96v-90zM97-236q42 11 67.5 33t25.5 52v7h-60q-10 12-14 24.5T112-95q0 28 18 54h116q10-20 14-38t4-35q0-31-12.5-57.5t-34-47Q196-239 168.5-253T111-273z"/><glyph unicode="Ř" horiz-adv-x="708" d="M235 56h86V0H32v56h91v588H32v56h101q45 0 98 4t104 4q55 0 103.5-11.5T522 661q35-24 55.5-61.5T598 510q0-72-44.5-122.5T437 316L636 56h62V0H536L337 302H235zm79 298q77 0 120.5 42T478 510q0 74-46 108t-122 34q-26 0-43.5-2t-31.5-4V354zm135 565l28-18-142-142h-31L163 898l28 21 133-55z"/><glyph unicode="ř" horiz-adv-x="433" d="M284 435q-23-12-38-28t-32-46V50h88V0H35v50h74v425H35v50h179V424h4q17 33 40 57.5t52 43.5h96v-90zm83 371l32-17-139-195h-29L94 788l40 18 119-110z"/><glyph unicode="Ś" horiz-adv-x="596" d="M126 98l18-24q18-13 49.5-21.5T263 44q36 0 66.5 7.5T383 74q23 15 36 38t13 55q0 41-27.5 68T336 283q-41 21-89 41t-89 47q-41 27-68.5 65T62 532q0 85 64.5 132.5T301 712q69 0 119-9t85-24V507h-64v108l-16 25q-19 8-55 12t-71 4q-60 0-94-27.5T171 551q0-41 27.5-68.5T267 433q41-22 89-42.5t89-47q41-26.5 68.5-63.5t27.5-92q0-97-75-148.5T261-12q-71 0-123 15T62 35v182h64zm269 816l123-33v-40l-256-72-13 24z"/><glyph unicode="ś" horiz-adv-x="486" d="M332 119q0 27-20 47.5t-50 38q-30 17.5-65 35t-65 40q-30 22.5-50 53T62 406q0 29 14 52.5t37.5 40.5q23.5 17 55.5 26.5t68 9.5q30 0 53-2t42-5.5q19-3.5 36-8.5t35-11V373h-64v79l-19 22q-13 3-28 5t-32 2q-48 0-71.5-18.5T165 416q0-27 20-47t50-37.5q30-17.5 65-34.5t65-38.5q30-21.5 50-49.5t20-67q0-36-16.5-64t-45-47.5Q345 11 306.5.5T225-10q-48 0-93.5 12.5T60 32v131h64V87l20-21q13-10 31-16t47-6q48 0 79 20t31 55zm-42 631h126v-41L220 592l-28 23z"/><glyph unicode="Ŝ" horiz-adv-x="596" d="M126 98l18-24q18-13 49.5-21.5T263 44q36 0 66.5 7.5T383 74q23 15 36 38t13 55q0 41-27.5 68T336 283q-41 21-89 41t-89 47q-41 27-68.5 65T62 532q0 85 64.5 132.5T301 712q69 0 119-9t85-24V507h-64v108l-16 25q-19 8-55 12t-71 4q-60 0-94-27.5T171 551q0-41 27.5-68.5T267 433q41-22 89-42.5t89-47q41-26.5 68.5-63.5t27.5-92q0-97-75-148.5T261-12q-71 0-123 15T62 35v182h64zm49 663l-16 20 142 133h31l141-130-18-22-142 56z"/><glyph unicode="ŝ" horiz-adv-x="486" d="M332 119q0 27-20 47.5t-50 38q-30 17.5-65 35t-65 40q-30 22.5-50 53T62 406q0 29 14 52.5t37.5 40.5q23.5 17 55.5 26.5t68 9.5q30 0 53-2t42-5.5q19-3.5 36-8.5t35-11V373h-64v79l-19 22q-13 3-28 5t-32 2q-48 0-71.5-18.5T165 416q0-27 20-47t50-37.5q30-17.5 65-34.5t65-38.5q30-21.5 50-49.5t20-67q0-36-16.5-64t-45-47.5Q345 11 306.5.5T225-10q-48 0-93.5 12.5T60 32v131h64V87l20-21q13-10 31-16t47-6q48 0 79 20t31 55zM137 619l-32 17 125 196h29l126-195-32-18-113 112z"/><glyph unicode="Ş" horiz-adv-x="596" d="M126 98l18-24q18-13 49.5-21.5T263 44q36 0 66.5 7.5T383 74q23 15 36 38t13 55q0 41-27.5 68T336 283q-41 21-89 41t-89 47q-41 27-68.5 65T62 532q0 85 64.5 132.5T301 712q69 0 119-9t85-24V507h-64v108l-16 25q-19 8-55 12t-71 4q-60 0-94-27.5T171 551q0-41 27.5-68.5T267 433q41-22 89-42.5t89-47q41-26.5 68.5-63.5t27.5-92q0-88-62-139T307-10l-27-54q68-2 101-18.5t33-52.5q0-30-20-49t-50.5-29.5Q313-224 277-228t-68-4v33q22 1 40.5 3.5T282-188q14 5 22 13.5t8 22.5q0 27-25 35t-75 10l39 95q-67 2-116.5 16.5T62 35v182h64z"/><glyph unicode="ş" horiz-adv-x="486" d="M332 119q0 27-20 47.5t-50 38q-30 17.5-65 35t-65 40q-30 22.5-50 53T62 406q0 29 14 52.5t37.5 40.5q23.5 17 55.5 26.5t68 9.5q30 0 53-2t42-5.5q19-3.5 36-8.5t35-11V373h-64v79l-19 22q-13 3-28 5t-32 2q-48 0-71.5-18.5T165 416q0-27 20-47t50-37.5q30-17.5 65-34.5t65-38.5q30-21.5 50-49.5t20-67q0-33-14.5-60t-40-46.5Q355 16 321 4.5T248-10l-24-51q63-2 92-17t29-49q0-31-17.5-50T283-206.5q-27-10.5-60-14t-64-3.5v32q21 1 38.5 3t29.5 7q12 5 18.5 14t6.5 25q0 26-23 32t-69 10l38 91q-42 4-79 15.5T60 32v131h64V87l20-21q13-10 31-16t47-6q48 0 79 20t31 55z"/><glyph unicode="Š" horiz-adv-x="596" d="M126 98l18-24q18-13 49.5-21.5T263 44q36 0 66.5 7.5T383 74q23 15 36 38t13 55q0 41-27.5 68T336 283q-41 21-89 41t-89 47q-41 27-68.5 65T62 532q0 85 64.5 132.5T301 712q69 0 119-9t85-24V507h-64v108l-16 25q-19 8-55 12t-71 4q-60 0-94-27.5T171 551q0-41 27.5-68.5T267 433q41-22 89-42.5t89-47q41-26.5 68.5-63.5t27.5-92q0-97-75-148.5T261-12q-71 0-123 15T62 35v182h64zm309 821l28-18-142-142h-31L149 898l28 21 133-55z"/><glyph unicode="š" horiz-adv-x="486" d="M332 119q0 27-20 47.5t-50 38q-30 17.5-65 35t-65 40q-30 22.5-50 53T62 406q0 29 14 52.5t37.5 40.5q23.5 17 55.5 26.5t68 9.5q30 0 53-2t42-5.5q19-3.5 36-8.5t35-11V373h-64v79l-19 22q-13 3-28 5t-32 2q-48 0-71.5-18.5T165 416q0-27 20-47t50-37.5q30-17.5 65-34.5t65-38.5q30-21.5 50-49.5t20-67q0-36-16.5-64t-45-47.5Q345 11 306.5.5T225-10q-48 0-93.5 12.5T60 32v131h64V87l20-21q13-10 31-16t47-6q48 0 79 20t31 55zm32 687l32-17-139-195h-29L91 788l40 18 119-110z"/><glyph unicode="Ţ" horiz-adv-x="698" d="M508 0H377l-33-64q68-2 101-18.5t33-52.5q0-30-20-49t-50.5-29.5Q377-224 341-228t-68-4v33q22 1 40.5 3.5T346-188q14 5 22 13.5t8 22.5q0 27-25 35t-75 10L320 0H190v56h103v588H114l-20-22V493H22v207h654V493h-72v129l-20 22H405V56h103z"/><glyph unicode="ţ" horiz-adv-x="418" d="M17 525h89v125h105V525h166v-64H211V169q0-63 16-89t52-26q31 0 53.5 11T374 89l25-39q-9-9-24-19t-34.5-19Q321 3 297-3t-49-7l-24-51q63-2 92-17t29-49q0-32-17.5-51T283-207q-27-10-60-13.5t-64-3.5v32q21 1 38.5 3t29.5 7q12 5 18.5 14t6.5 25q0 26-23 32t-69 10l39 96q-45 10-69 44t-24 100v322H17z"/><glyph unicode="Ť" horiz-adv-x="698" d="M508 0H190v56h103v588H114l-20-22V493H22v207h654V493h-72v129l-20 22H405V56h103zm-29 919l28-18-142-142h-31L193 898l28 21 133-55z"/><glyph unicode="ť" horiz-adv-x="418" d="M17 525h89v125h105V525h166v-64H211V169q0-63 16-89t52-26q31 0 53.5 11T374 89l25-39q-9-9-24.5-19.5T339 11q-20-9-44.5-15T244-10q-67 0-102.5 34.5T106 139v322H17zm245 46q24 48 36 103.5t12 98.5l15 18q8 0 21-2t27-5.5q14-3.5 26.5-8T419 765q-5-29-19.5-59T366 648.5Q347 621 325.5 598T286 560z"/><glyph unicode="Ū" horiz-adv-x="762" d="M659 239q0-64-19-110.5t-53.5-77Q552 21 503 6T394-9Q252-9 177.5 47.5T103 222v422H12v56h284v-56h-81V243q0-52 13-87.5t37.5-57Q290 77 326 67.5t82-9.5q88 0 137.5 44T595 246v398h-81v56h236v-56h-91V239zM230 787v64h340v-64z"/><glyph unicode="ū" horiz-adv-x="647" d="M87 208q0 66 3 135t3 132H19v50h178q-2-78-3.5-149.5T192 227q0-41 4.5-72.5t17-53.5Q226 79 248 68t56-11q50 0 84 32t52 86v300h-73v50h178V50h74V0H452l-7 114h-5q-5-21-19.5-43T384 31q-22-18-51-29.5T270-10q-45 0-79 9.5T134 34q-23 25-35 67T87 208zm92 460v55h288v-55z"/><glyph unicode="Ŭ" horiz-adv-x="762" d="M659 239q0-64-19-110.5t-53.5-77Q552 21 503 6T394-9Q252-9 177.5 47.5T103 222v422H12v56h284v-56h-81V243q0-52 13-87.5t37.5-57Q290 77 326 67.5t82-9.5q88 0 137.5 44T595 246v398h-81v56h236v-56h-91V239zm-96 651q-9-26-25.5-50T499 798q-22-18-48.5-28.5T396 759q-31 0-59.5 10T285 797q-23 18-40 42.5T221 892l47 15q8-12 23-22.5t33-18q18-7.5 37-11.5t36-4q36 0 71.5 11.5T527 904z"/><glyph unicode="ŭ" horiz-adv-x="647" d="M87 208q0 66 3 135t3 132H19v50h178q-2-78-3.5-149.5T192 227q0-41 4.5-72.5t17-53.5Q226 79 248 68t56-11q50 0 84 32t52 86v300h-73v50h178V50h74V0H452l-7 114h-5q-5-21-19.5-43T384 31q-22-18-51-29.5T270-10q-45 0-79 9.5T134 34q-23 25-35 67T87 208zm387 548q-10-24-24.5-47t-33-41q-18.5-18-42-29.5T323 627q-60 0-98 37t-58 94l32 14q9-15 24-27.5t32.5-21.5q17.5-9 36-14.5T327 703q36 0 67 16.5t53 48.5z"/><glyph unicode="Ů" horiz-adv-x="762" d="M659 239q0-64-19-110.5t-53.5-77Q552 21 503 6T394-9Q252-9 177.5 47.5T103 222v422H12v56h284v-56h-81V243q0-52 13-87.5t37.5-57Q290 77 326 67.5t82-9.5q88 0 137.5 44T595 246v398h-81v56h236v-56h-91V239zM276 788q0 41 38 63.5t93 22.5q22 0 44-5t39.5-15q17.5-10 28.5-25.5t11-37.5q0-20-10-35t-27.5-26q-17.5-11-40-16.5T406 708q-58 0-94 21t-36 59zm75 0q0-17 14.5-27.5T400 750q29 0 42 10t13 27q0 26-15 35.5t-36 9.5q-27 0-40-12.5T351 788z"/><glyph unicode="ů" horiz-adv-x="647" d="M87 208q0 66 3 135t3 132H19v50h178q-2-78-3.5-149.5T192 227q0-41 4.5-72.5t17-53.5Q226 79 248 68t56-11q50 0 84 32t52 86v300h-73v50h178V50h74V0H452l-7 114h-5q-5-21-19.5-43T384 31q-22-18-51-29.5T270-10q-45 0-79 9.5T134 34q-23 25-35 67T87 208zm126 509q0 43 32 72.5t81 29.5q45 0 75.5-26.5T432 720q0-21-9-39t-23.5-31q-14.5-13-34-20.5T325 622q-51 0-81.5 25.5T213 717zm60 2q0-26 15-39.5t33-13.5q22 0 36.5 12t14.5 38q0 29-14 44t-36 15q-26 0-37.5-15T273 719z"/><glyph unicode="Ű" horiz-adv-x="762" d="M659 239q0-64-19-110.5t-53.5-77Q552 21 503 6T394-9Q252-9 177.5 47.5T103 222v422H12v56h284v-56h-81V243q0-52 13-87.5t37.5-57Q290 77 326 67.5t82-9.5q88 0 137.5 44T595 246v398h-81v56h236v-56h-91V239zM368 908l101-24v-24L292 757l-22 19zm197 0l106-22v-25L441 755l-25 19z"/><glyph unicode="ű" horiz-adv-x="647" d="M87 208q0 66 3 135t3 132H19v50h178q-2-78-3.5-149.5T192 227q0-41 4.5-72.5t17-53.5Q226 79 248 68t56-11q50 0 84 32t52 86v300h-73v50h178V50h74V0H452l-7 114h-5q-5-21-19.5-43T384 31q-22-18-51-29.5T270-10q-45 0-79 9.5T134 34q-23 25-35 67T87 208zm187 598l97-22v-26L216 628l-27 16zm196 0l98-29v-25L344 628l-23 18z"/><glyph unicode="Ų" horiz-adv-x="762" d="M659 239q0-102-46-160T486 1q-47-18-73.5-43.5T386-110q0-27 20-37.5t53-10.5q34 0 63 6v-31q-16-11-41-19.5t-62-8.5q-26 0-49.5 5t-41 15q-17.5 10-28 25.5T290-128q0 41 27.5 70T388-9Q249-7 176 49t-73 173v422H12v56h284v-56h-81V243q0-52 13-87.5t37.5-57Q290 77 326 67.5t82-9.5q88 0 137.5 44T595 246v398h-81v56h236v-56h-91V239z"/><glyph unicode="ų" horiz-adv-x="647" d="M87 208q0 66 3 135t3 132H19v50h178q-2-78-3.5-149.5T192 227q0-41 4.5-72.5t17-53.5Q226 79 248 68t56-11q50 0 84 32t52 86v300h-73v50h178V50h74V0h-13q-49-9-82-31.5T491-100q0-20 14.5-36.5T555-153q30 0 59 10v-36q-16-9-40.5-15t-44.5-6q-66 0-100 21.5T395-117q0 27 14.5 47T445-36q21 14 45.5 22.5T535 0h-83l-7 114h-5q-5-21-19.5-43T384 31q-22-18-51-29.5T270-10q-45 0-79 9.5T134 34q-23 25-35 67T87 208z"/><glyph unicode="Ÿ" horiz-adv-x="727" d="M478 700h249v-56h-85L429 297V56h91V0H226v56h91v240L91 644H0v56h302v-56h-84l181-291 171 291h-92zm-279 96q0 29 18.5 43.5T264 854q29 0 48-14.5t19-43.5q0-26-19-40t-48-14q-28 0-46.5 14T199 796zm252 0q0 29 19 43.5t46 14.5q29 0 48-14.5t19-43.5q0-26-19-40t-48-14q-27 0-46 14t-19 40z"/><glyph unicode="Ź" horiz-adv-x="672" d="M40 56l458 588H157l-20-22V497H65v203h561v-56L168 56h372l20 22v125h72V0H40zm396 858l123-33v-40l-256-72-13 24z"/><glyph unicode="ź" horiz-adv-x="549" d="M491 181V0H57v50l329 425H169l-20-20V355H85v170h416v-50L170 50h237l20 20v111zM311 750h126v-41L241 592l-28 23z"/><glyph unicode="Ż" horiz-adv-x="672" d="M40 56l458 588H157l-20-22V497H65v203h561v-56L168 56h372l20 22v125h72V0H40zm213 765q0 29 23 44t57 15q35 0 58-15t23-44q0-29-23-44t-58-15q-34 0-57 15t-23 44z"/><glyph unicode="ż" horiz-adv-x="549" d="M491 181V0H57v50l329 425H169l-20-20V355H85v170h416v-50L170 50h237l20 20v111zM201 687q0 29 20.5 46t52.5 17q34 0 53.5-17t19.5-46q0-29-19.5-46T274 624q-32 0-52.5 17T201 687z"/><glyph unicode="Ž" horiz-adv-x="672" d="M40 56l458 588H157l-20-22V497H65v203h561v-56L168 56h372l20 22v125h72V0H40zm429 863l28-18-142-142h-31L183 898l28 21 133-55z"/><glyph unicode="ž" horiz-adv-x="549" d="M491 181V0H57v50l329 425H169l-20-20V355H85v170h416v-50L170 50h237l20 20v111zm-95 625l32-17-139-195h-29L123 788l40 18 119-110z"/><glyph unicode="ſ" horiz-adv-x="385" d="M307 750q17 0 35.5-2.5t35-7q16.5-4.5 30-10T429 719v-93h-96v66q-11 2-18 3t-17 1q-44 0-58.5-35.5T225 547V50h107V0H46v50h74v425H35v50h85v16q0 60 16 100t42 64q26 24 60 34.5t69 10.5z"/><glyph unicode="ƒ" horiz-adv-x="600" d="M219 475h-80v50h93l3 14q22 103 82 157t153 54q9 0 21.5-1.5t25-3.5q12.5-2 24-5t20.5-7v-83h-98v46q-31 0-51.5-8T377 662.5q-14-17.5-24-46T333 546l-5-21h113v-50H317L246 45q-12-74-41-121t-62.5-74.5Q109-178 77-190t-50-17l-11 28q14 6 32.5 19.5t37.5 37Q105-99 121.5-63T147 25z"/><glyph unicode="Ǵ" horiz-adv-x="774" d="M669 48q-21-12-48-23T564.5 6Q535-2 505-7t-58-5q-93 0-165.5 21.5T159 75.5q-50 44.5-76 113T57 350q0 98 31.5 167T172 629.5q52 43.5 119.5 63T430 712q74 0 122-10t86-27V504h-64v105l-14 20q-9 5-23 8.5t-29.5 6q-15.5 2.5-32 3.5t-30.5 1q-55 0-103-17t-83.5-53q-35.5-36-56-92.5T182 350q0-142 70.5-220T455 52q33 0 56.5 4.5T553 68l15 18v189H462v56h277v-56h-70zM515 914l123-33v-40l-256-72-13 24z"/><glyph unicode="ǵ" horiz-adv-x="592" d="M582 525v-64H465q14-14 26-39t12-60q0-74-58-119t-167-45q-20 0-34 .5t-30 4.5q-5-10-12.5-21.5T194 157q0-21 26-31.5t65-19q39-8.5 85-17t85.5-25Q495 48 521 21t26-71q0-38-19.5-66.5t-55-47Q437-182 388-191t-107-9q-125 0-187 33T32-76q0 56 38 86t107 50q-26 11-42 24t-16 39q0 12 6 24.5t16 24q10 11.5 22 21t23 15.5q-64 17-98.5 58T53 364q0 73 57 117t168 44zM442-74q0 33-23.5 52.5t-59 32Q324 23 283 31t-77 19Q164 25 150.5-.5T137-55q0-42 42-70t122-28q41 0 68 6.5t43.5 17.5q16.5 11 23 25t6.5 30zM158 364q0-26 6-48t19.5-37.5Q197 263 220 254t58-9q64 0 92 32.5t28 86.5q0 21-1.5 35t-4 25q-2.5 11-5.5 19.5t-6 17.5q-23 10-49 13.5t-54 3.5q-68 0-94-28t-26-86zm195 386h126v-41L283 592l-28 23z"/><glyph unicode="Ș" horiz-adv-x="596" d="M126 98l18-24q18-13 49.5-21.5T263 44q36 0 66.5 7.5T383 74q23 15 36 38t13 55q0 41-27.5 68T336 283q-41 21-89 41t-89 47q-41 27-68.5 65T62 532q0 85 64.5 132.5T301 712q69 0 119-9t85-24V507h-64v108l-16 25q-19 8-55 12t-71 4q-60 0-94-27.5T171 551q0-41 27.5-68.5T267 433q41-22 89-42.5t89-47q41-26.5 68.5-63.5t27.5-92q0-97-75-148.5T261-12q-71 0-123 15T62 35v182h64zm76-334q42 11 67.5 30.5T295-156v7h-60q-10 12-14 25t-4 27q0 30 18 56h126q17-34 17-69 0-32-14-59t-36.5-48q-22.5-21-52-35.5T216-273z"/><glyph unicode="ș" horiz-adv-x="486" d="M332 119q0 27-20 47.5t-50 38q-30 17.5-65 35t-65 40q-30 22.5-50 53T62 406q0 29 14 52.5t37.5 40.5q23.5 17 55.5 26.5t68 9.5q30 0 53-2t42-5.5q19-3.5 36-8.5t35-11V373h-64v79l-19 22q-13 3-28 5t-32 2q-48 0-71.5-18.5T165 416q0-27 20-47t50-37.5q30-17.5 65-34.5t65-38.5q30-21.5 50-49.5t20-67q0-36-16.5-64t-45-47.5Q345 11 306.5.5T225-10q-48 0-93.5 12.5T60 32v131h64V87l20-21q13-10 31-16t47-6q48 0 79 20t31 55zM139-236q42 11 67.5 33t25.5 52v7h-60q-10 12-14 24.5T154-95q0 28 18 54h116q10-20 14-38t4-35q0-31-12.5-57.5t-34-47Q238-239 210.5-253T153-273z"/><glyph unicode="Ț" horiz-adv-x="698" d="M508 0H190v56h103v588H114l-20-22V493H22v207h654V493h-72v129l-20 22H405V56h103zM263-236q42 11 67.5 30.5T356-156v7h-60q-10 12-14 25t-4 27q0 30 18 56h126q17-34 17-69 0-32-14-59t-36.5-48q-22.5-21-52-35.5T277-273z"/><glyph unicode="ț" horiz-adv-x="418" d="M17 525h89v125h105V525h166v-64H211V169q0-63 16-89t52-26q31 0 53.5 11T374 89l25-39q-9-9-24.5-19.5T339 11q-20-9-44.5-15T244-10q-67 0-102.5 34.5T106 139v322H17zm113-761q42 11 67.5 33t25.5 52v7h-60q-10 12-14 24.5T145-95q0 28 18 54h116q10-20 14-38t4-35q0-31-12.5-57.5t-34-47Q229-239 201.5-253T144-273z"/><glyph unicode="ȷ" horiz-adv-x="326" d="M119 475H45v50h179V62q0-75-20.5-124T155-141.5q-28-30.5-56.5-45T54-206l-27 43q13 6 29 18.5T86-109q14 23 23.5 59.5T119 42z"/><glyph unicode="ʼ" horiz-adv-x="281" d="M60 462q21 6 38 19t29 29.5q12 16.5 17.5 35.5t4.5 37H92q-8 12-13 24.5T74 634q0 12 2.5 22.5T83 676q4 9 9 17h111q8-20 13-39t5-39q0-28-9.5-59T183 501q-15-20-41.5-40T78 433z"/><glyph unicode="ˆ" horiz-adv-x="400" d="M92 619l-32 17 125 196h29l126-195-32-18-113 112z"/><glyph unicode="ˇ" horiz-adv-x="425" d="M333 806l32-17-139-195h-29L60 788l40 18 119-110z"/><glyph unicode="˘" horiz-adv-x="427" d="M367 756q-10-24-24.5-47t-33-41q-18.5-18-42-29.5T216 627q-60 0-98 37t-58 94l32 14q9-15 24-27.5t32.5-21.5q17.5-9 36-14.5T220 703q36 0 67 16.5t53 48.5z"/><glyph unicode="˙" horiz-adv-x="333" d="M97 687q0 29 20.5 46t52.5 17q34 0 53.5-17t19.5-46q0-29-19.5-46T170 624q-32 0-52.5 17T97 687z"/><glyph unicode="˚" horiz-adv-x="339" d="M60 717q0 43 32 72.5t81 29.5q45 0 75.5-26.5T279 720q0-21-9-39t-23.5-31q-14.5-13-34-20.5T172 622q-51 0-81.5 25.5T60 717zm60 2q0-26 15-39.5t33-13.5q22 0 36.5 12t14.5 38q0 29-14 44t-36 15q-26 0-37.5-15T120 719z"/><glyph unicode="˛" horiz-adv-x="470" d="M418 21Q391 9 368-2.5t-40-25q-17-13.5-27-31T291-100q0-20 14.5-36.5T355-153q30 0 59 10v-36q-16-9-40.5-15t-44.5-6q-66 0-100 21.5T195-117q0 28 14 48.5t38 36q24 15.5 57 28T375 21z"/><glyph unicode="˜" horiz-adv-x="466" d="M406 705q-36-34-66.5-46.5T284 646q-20 0-38 5.5t-35 12q-17 6.5-33 12t-33 5.5q-14 0-29.5-5.5T82 655l-22 32q42 36 74.5 49t58.5 13q20 0 37.5-5.5T264 732q16-6 32-11.5t33-5.5q14 0 29 4.5t32 16.5z"/><glyph unicode="˝" horiz-adv-x="499" d="M145 806l97-22v-26L87 628l-27 16zm196 0l98-29v-25L215 628l-23 18z"/><glyph unicode="́" horiz-adv-x="0" d="M-228 750h126v-41l-196-117-28 23z"/><glyph unicode="Δ" horiz-adv-x="728" d="M22 0v32l329 668h33L706 32V0zm322 559L103 62h469z"/><glyph unicode="Ω" horiz-adv-x="895" d="M62 0v146h64V78h207q-50 16-95 43.5T158.5 187Q124 225 104 273T84 379q0 75 26 136.5t74 105q48 43.5 117 67T456 711q87 0 153.5-23t112-65q45.5-42 69-101.5T814 389q0-62-22-113t-57-90.5Q700 146 657 119t-85-41h200v68h64V0H512l1 85q27 10 57.5 34t57 61q26.5 37 44 86.5T689 377q0 58-14 109.5t-43 90Q603 615 559 637t-103 22q-67 0-114-22t-76.5-59q-29.5-37-43-86T209 388q0-62 18.5-113t46.5-90q28-39 60-64.5T393 85V0z"/><glyph unicode="π" horiz-adv-x="693" d="M626 50V0H440v458H230V261q0-35-3-71t-9-70q-6-34-14.5-65T185 0H65q22 39 42 96t35 121q15 64 24 127t9 114h-19q-32 0-57-15t-51-47l-28 14q6 27 16 49.5T64 498q18 16 47.5 24.5T187 531q12 0 45.5-1t78-2q44.5-1 95-2t96.5-1q36 0 60 .5t40.5 3.5q16.5 3 27.5 8.5t22 14.5h16q-5-44-29.5-69T566 458h-14V50z"/><glyph unicode="Ё" horiz-adv-x="645" d="M564 700V536h-64v86l-20 22H235V385h169l15 15v42h64V271h-64v42l-15 16H235V56h262l20 20v98h64V0H32v56h91v588H32v56zm-431 96q0 29 18.5 43.5T198 854q29 0 48-14.5t19-43.5q0-26-19-40t-48-14q-28 0-46.5 14T133 796zm252 0q0 29 19 43.5t46 14.5q29 0 48-14.5t19-43.5q0-26-19-40t-48-14q-27 0-46 14t-19 40z"/><glyph unicode="Ђ" horiz-adv-x="842" d="M473 0H178v56h105v588H104l-20-22V493H12v207h654V493h-72v129l-20 22H395V389q31 15 81 30t115 15q46 0 85.5-8.5T744 395q28-22 44-60t16-98q0-75-17.5-121.5t-48.5-73q-31-26.5-74.5-36T569-3l-4 37q27 5 50 16t40.5 33q17.5 22 27 56.5T692 227q0 70-31 111.5T557 380q-47 0-89-11.5T395 340V56h78z"/><glyph unicode="Ѓ" horiz-adv-x="557" d="M32 644v56h513V493h-72v129l-20 22H235V56h108V0H32v56h91v588zm372 270l123-33v-40l-256-72-13 24z"/><glyph unicode="Є" horiz-adv-x="698" d="M569 184h64V27q-31-17-82-28T450-12q-92 0-165 21T161.5 74.5Q111 119 84 187T57 350q0 98 30 166.5t81 112Q219 672 286 692t141 20q36 0 65-2.5t52.5-7.5q23.5-5 43.5-12t39-15V504h-64v105l-14 20q-11 5-34.5 12t-75.5 7q-50 0-94.5-14.5t-78-45.5Q233 557 211 508.5T184 392h336v-64H182q6-133 78.5-204.5T458 52q36 0 60.5 5.5T555 72l14 19z"/><glyph unicode="Ѕ" horiz-adv-x="596" d="M126 98l18-24q18-13 49.5-21.5T263 44q36 0 66.5 7.5T383 74q23 15 36 38t13 55q0 41-27.5 68T336 283q-41 21-89 41t-89 47q-41 27-68.5 65T62 532q0 85 64.5 132.5T301 712q69 0 119-9t85-24V507h-64v108l-16 25q-19 8-55 12t-71 4q-60 0-94-27.5T171 551q0-41 27.5-68.5T267 433q41-22 89-42.5t89-47q41-26.5 68.5-63.5t27.5-92q0-97-75-148.5T261-12q-71 0-123 15T62 35v182h64z"/><glyph unicode="І" horiz-adv-x="398" d="M346 0H52v56h91v588H52v56h294v-56h-91V56h91z"/><glyph unicode="Ї" horiz-adv-x="398" d="M32 789q0 25 18.5 37.5T97 839q29 0 48-12.5t19-37.5q0-23-19-35t-48-12q-28 0-46.5 12T32 789zm201 0q0 25 19 37.5t46 12.5q29 0 48-12.5t19-37.5q0-23-19-35t-48-12q-27 0-46 12t-19 35zM346 0H52v56h91v588H52v56h294v-56h-91V56h91z"/><glyph unicode="Ј" horiz-adv-x="380" d="M36-113q17 8 33 19.5t28.5 32Q110-41 117.5-8t7.5 86v566H42v56h286v-56h-91V88q0-71-18.5-116.5t-45.5-73Q146-129 115-142t-56-18z"/><glyph unicode="Љ" horiz-adv-x="1033" d="M616 417q20 3 49 5t52 2q56 0 106.5-9t88.5-32.5q38-23.5 60.5-63.5T995 218q0-59-23.5-100.5t-64-68.5q-40.5-27-94-39.5T699-3q-5 0-17 .5t-28 1q-16 .5-34.5 1T584 0H413v56h91v588H295q-5-141-15.5-235.5t-24-159Q242 185 225 143.5T190 68q-9-17-22-34T141 0H25v126h116q15 25 30.5 66.5t27.5 104Q211 359 218.5 445t7.5 199H122v56h594v-56H616zm76-49q-27 0-44.5-1.5T616 362V58q6-2 16.5-2.5T655 54q12-1 23-1h17q38 0 70 9t55.5 29q23.5 20 36.5 51.5t13 76.5q0 81-44.5 115T692 368z"/><glyph unicode="Њ" horiz-adv-x="1115" d="M697 397q20 3 49 5t52 2q55 0 105.5-9t89-31.5q38.5-22.5 61.5-61t23-97.5q0-57-25.5-97T984 43.5Q942 19 889 8T781-3q-6 0-22 .5t-37 1q-21 .5-43 1T640 0H502v56h83v275H235V56h83V0H32v56h91v588H32v56h286v-56h-83V387h350v257h-83v56h296v-56H697zm75-49q-26 0-43.5-1t-31.5-5V58q5-2 15.5-2.5T735 54q12-1 23-1h17q38 0 70.5 8.5t56 26.5q23.5 18 37 47t13.5 71q0 69-44.5 105.5T772 348z"/><glyph unicode="Ћ" horiz-adv-x="886" d="M473 0H178v56h105v588H104l-20-22V493H12v207h654V493h-72v129l-20 22H395V388q31 16 76 30.5T579 433q47 0 85-8t64.5-29q26.5-21 40.5-57t14-92V56h91V0H671v224q0 35-5.5 63t-20 48Q631 355 607 366t-60 11q-48 0-84.5-12T395 336V56h78z"/><glyph unicode="Ќ" horiz-adv-x="712" d="M300 382l218 262h-81v56h247v-56h-79L367 377 650 56h62V0H551L288 332h-53V56h83V0H32v56h91v588H32v56h286v-56h-83V382zm159 532l123-33v-40l-256-72-13 24z"/><glyph unicode="Ў" horiz-adv-x="742" d="M584 644h-93v56h251v-56h-81L446 201q-31-63-60.5-114.5T326 0h-95v123h111q16 24 23 46L85 644H0v56h300v-56h-90l183-326 23-64h2l23 66zm-187 99q-103 0-152 34t-49 104h116v-79q14-7 37-10.5t49-3.5q19 0 45 3t41 8v82h111q0-69-46.5-103.5T397 743z"/><glyph unicode="Џ" horiz-adv-x="808" d="M573 56v588h-83v56h286v-56h-91V56h91V0H444v-200h-80V0H32v56h91v588H32v56h286v-56h-83V56z"/><glyph unicode="А" horiz-adv-x="755" d="M245 0H0v56h78l259 644h106L680 56h75V0H469v56h89l-65 176H227L159 56h86zm5 288h226l-82 231-25 106h-4l-29-108z"/><glyph unicode="Б" horiz-adv-x="665" d="M235 407q20 2 49.5 4.5T337 414q55 0 105.5-10.5T532 369q39-24 62-63.5t23-97.5q0-55-24-94.5T528 48q-41-26-94.5-38.5T320-3q-6 0-23 .5t-38.5 1Q237-1 214-.5T174 0H32v56h91v588H32v56h537V517h-72v105l-20 22H235zm76-49q-26 0-44-1t-32-5V58q5-2 16-2.5t23-1.5q12-1 23-1h17q39 0 71.5 9t56 28.5q23.5 19.5 37 48.5t13.5 70q0 73-45 111t-136 38z"/><glyph unicode="В" horiz-adv-x="690" d="M32 0v56h91v588H32v56h131q21 0 40 1t40 2q21 1 45.5 2t54.5 1q44 0 90-6.5t83-24.5q37-18 60.5-50.5T600 540q0-27-9.5-53t-28-48Q544 417 516 400t-65-25v-4q33-5 66-17t59.5-32.5Q603 301 619 271t16-72q0-54-26.5-93T539 42q-43-25-97.5-36.5T331-6q-39 0-87.5 3T150 0zm307 50q39 0 72.5 10.5T469 90q24 19 37.5 45.5T520 194q0 40-16.5 66.5t-44 42Q432 318 395 324t-78 6h-82V59q15-4 36.5-6.5T339 50zm-50 332q20 0 44.5 1.5T375 387q51 16 82 51.5t31 83.5q0 66-42 97t-114 31q-34 0-57.5-1.5T235 645V382z"/><glyph unicode="Г" horiz-adv-x="557" d="M32 644v56h513V493h-72v129l-20 22H235V56h108V0H32v56h91v588z"/><glyph unicode="Д" horiz-adv-x="769" d="M729 644h-91V56h104v-218h-75v140L647 0H105L85-22v-140H10V56h98q28 42 53 108t43.5 144.5Q223 387 234 473.5T245 644H137v56h592zM526 56v588H314q-6-123-20.5-218.5t-33-167.5q-18.5-72-39-121.5T185 56z"/><glyph unicode="Е" horiz-adv-x="645" d="M564 700V536h-64v86l-20 22H235V385h169l15 15v42h64V271h-64v42l-15 16H235V56h262l20 20v98h64V0H32v56h91v588H32v56z"/><glyph unicode="Ж" horiz-adv-x="1053" d="M403 332L153 0H0v56h60q74 87 133 156 25 29 48.5 57t42.5 50q19 22 30.5 35.5L326 368 103 644H25v56h249v-56h-75l195-262h75v262h-77v56h262v-56h-77V382h79l196 262h-80v56h249v-56h-85L721 376 993 56h60V0H900L645 332h-68V56h77V0H392v56h77v276z"/><glyph unicode="З" horiz-adv-x="611" d="M261-12q-62 0-115 11T55 27v167h64V82l15-19q9-5 24.5-8.5t33-6Q209 46 227 45t32-1q41 0 74.5 11t57 31q23.5 20 36.5 47.5t13 60.5q0 39-13.5 65t-36 41.5Q368 316 338 322t-63 6h-87v64h127q51 16 78 49t27 81q0 65-40.5 99.5T265 656q-33 0-64.5-6T156 636l-13-19v-99H79v153q18 12 41 19.5t48.5 12.5q25.5 5 51.5 7t50 2q46 0 92.5-7t84-26.5q37.5-19.5 61.5-53t24-85.5q0-51-33.5-96T393 375v-4q34-5 63.5-17.5t51.5-33q22-20.5 34.5-50.5t12.5-71q0-54-24-94t-64.5-66Q426 13 373 .5T261-12z"/><glyph unicode="И" horiz-adv-x="833" d="M318 0H32v56h91v588H32v56h286v-56h-83V215l-12-75 54 79 327 403v22h-91v56h288v-56h-91V56h91V0H513v56h85v428l11 75-49-75L228 76V56h90z"/><glyph unicode="Й" horiz-adv-x="833" d="M318 0H32v56h91v588H32v56h286v-56h-83V215l-12-75 54 79 327 403v22h-91v56h288v-56h-91V56h91V0H513v56h85v428l11 75-49-75L228 76V56h90zm104 743q-103 0-152 34t-49 104h116v-79q14-7 37-10.5t49-3.5q19 0 45 3t41 8v82h111q0-69-46.5-103.5T422 743z"/><glyph unicode="К" horiz-adv-x="712" d="M300 382l218 262h-81v56h247v-56h-79L367 377 650 56h62V0H551L288 332h-53V56h83V0H32v56h91v588H32v56h286v-56h-83V382z"/><glyph unicode="Л" horiz-adv-x="739" d="M295 644q-5-141-15.5-235.5t-24-159Q242 185 225 143.5T190 68q-9-17-22-34T141 0H25v126h116q15 25 30.5 66.5t27.5 104Q211 359 218.5 445t7.5 199H122v56h585v-56h-91V56h91V0H418v56h86v588z"/><glyph unicode="М" horiz-adv-x="984" d="M32 644v56h228l236-448 241 448h215v-56h-91V56h91V0H662v56h91v446q1 5 1.5 23.5T756 565q1 25 2 54h-9l-43-107-205-362h-61L240 512l-44 117h-10v-62q0-23 .5-43.5t.5-21.5V56h85V0H32v56h91v588z"/><glyph unicode="Н" horiz-adv-x="820" d="M318 56V0H32v56h91v588H32v56h286v-56h-83V387h350v257h-83v56h286v-56h-91V56h91V0H502v56h83v275H235V56z"/><glyph unicode="О" horiz-adv-x="830" d="M57 350q0 78 24 144.5t69.5 115Q196 658 262.5 685T414 712q85 0 152-27t113-75.5q46-48.5 70-115T773 350q0-78-24-144.5t-70-115Q633 42 566 15T414-12q-85 0-151.5 27t-112 75.5Q105 139 81 205.5T57 350zm125 0q0-64 14.5-120t44.5-97q30-41 75.5-65T424 44q57 0 99 24t69.5 65q27.5 41 41.5 97t14 120q0 64-14.5 120T589 567q-30 41-75.5 65T405 656q-60 0-102.5-24T233 567q-27-41-39-97t-12-120z"/><glyph unicode="П" horiz-adv-x="808" d="M235 644V56h83V0H32v56h91v588H32v56h744v-56h-91V56h91V0H490v56h83v588z"/><glyph unicode="Р" horiz-adv-x="667" d="M32 644v56h104q45 0 97.5 4t101.5 4q55 0 108-10.5t94-35.5q41-25 66.5-66.5T629 492q0-59-26-101.5T534.5 321q-42.5-27-98-40T322 268h-18q-12 0-25.5.5T253 270q-12 1-18 2V56h100V0H32v56h91v588zm203-315q5-2 15.5-2.5T273 325q12-1 23.5-1H314q39 0 73.5 9.5T448 363q26 20 41 52t15 77q0 82-51.5 121T312 652q-27 0-45-1.5t-32-4.5z"/><glyph unicode="С" horiz-adv-x="698" d="M569 184h64V27q-31-17-82-28T450-12q-92 0-165 21T161.5 74.5Q111 119 84 187T57 350q0 98 30 166.5t81 112Q219 672 286 692t141 20q36 0 65-2.5t52.5-7.5q23.5-5 43.5-12t39-15V504h-64v105l-14 20q-11 5-34.5 12t-75.5 7q-54 0-101-17t-81.5-53Q222 542 202 485.5T182 350q0-143 72.5-220.5T458 52q36 0 60.5 5.5T555 72l14 19z"/><glyph unicode="Т" horiz-adv-x="698" d="M508 0H190v56h103v588H114l-20-22V493H22v207h654V493h-72v129l-20 22H405V56h103z"/><glyph unicode="У" horiz-adv-x="742" d="M584 644h-93v56h251v-56h-81L446 201q-31-63-60.5-114.5T326 0h-95v123h111q16 24 23 46L85 644H0v56h300v-56h-90l183-326 23-64h2l23 66z"/><glyph unicode="Ф" horiz-adv-x="885" d="M317 603q15 0 37.5-1t36.5-3v45h-78v56h259v-56h-78v-48q20 4 48.5 5.5T590 603q54 0 101-15t81.5-44.5q34.5-29.5 54.5-73T847 370q0-64-24.5-113t-64-82q-39.5-33-89-50T570 108q-6 0-16 .5t-21 1q-11 .5-21.5 2T494 115V56h78V0H313v56h78v57q-22-3-48-4t-48-1q-45 0-91 15t-83 46q-37 31-60 78.5T38 360q0 60 23 105.5t61.5 76q38.5 30.5 89 46T317 603zm236-54q-17 0-31-1t-29-5V165q11-2 27-2.5t26-.5q36 0 69 12.5t57.5 38Q697 238 712 277t15 93q0 91-44.5 135T553 549zM338 162q14 0 26 1t28 4v379q-29 3-54 3-35 0-67-9.5T213.5 508Q188 486 173 449.5T158 360q0-47 13-83.5t37-62q24-25.5 57-39t73-13.5z"/><glyph unicode="Х" horiz-adv-x="756" d="M449 700h252v-56h-82L423 375 653 56h91V0H453v56h73L350 303 184 56h77V0H10v56h84l219 296-210 292H14v56h298v-56h-80l155-223 150 223h-88z"/><glyph unicode="Ц" horiz-adv-x="809" d="M569 56v588h-83v56h286v-56h-91V56h111v-218h-69v140L703 0H32v56h91v588H32v56h286v-56h-83V56z"/><glyph unicode="Ч" horiz-adv-x="748" d="M625 56h91V0H409v56h104v254q-31-16-81-30.5T317 265q-47 0-86 8t-67.5 29Q135 323 119 359t-16 92v193H12v56h276v-56h-73V474q0-70 31-111.5T351 321q47 0 89 12t73 29v282h-83v56h286v-56h-91z"/><glyph unicode="Ш" horiz-adv-x="1074" d="M32 644v56h275v-56h-72V56h246v588h-72v56h256v-56h-72V56h246v588h-72v56h275v-56h-91V56h91V0H32v56h91v588z"/><glyph unicode="Щ" horiz-adv-x="1080" d="M32 644v56h275v-56h-72V56h246v588h-72v56h256v-56h-72V56h246v588h-72v56h275v-56h-91V56h112v-218h-69v140L974 0H32v56h91v588z"/><glyph unicode="Ъ" horiz-adv-x="803" d="M371 417q20 3 49 5t52 2q56 0 109-9t94-32.5q41-23.5 65.5-63.5T765 218q0-59-26-100.5T670 49q-43-27-99-39.5T454-3q-5 0-21.5.5t-37.5 1q-21 .5-43.5 1T312 0H168v56h91v588H104l-20-22V493H20v207h451v-56H371zm76-49q-27 0-44.5-1.5T371 362V58q6-2 16.5-2.5T410 54q12-1 23-1h17q38 0 72.5 9T583 91q26 20 41.5 51.5T640 219q0 40-13.5 68.5T588 334q-25 18-61 26t-80 8z"/><glyph unicode="Ы" horiz-adv-x="953" d="M32 644v56h302v-56h-99V417q22 3 50 5t51 2q55 0 105.5-9t89-32q38.5-23 61.5-63t23-102q0-59-25.5-100.5T522 49q-42-27-95.5-39.5T318-3q-5 0-21 .5t-37 1q-21 .5-43 1T178 0H32v56h91v588zm599 0v56h290v-56h-91V56h91V0H631v56h87v588zM310 368q-26 0-43.5-1.5T235 362V58q5-2 15.5-2.5T273 54q12-1 23-1h17q39 0 71.5 10t56 30.5q23.5 20.5 36.5 52t13 73.5q0 149-180 149z"/><glyph unicode="Ь" horiz-adv-x="667" d="M235 417q20 3 49 5t52 2q56 0 109-9t94-32.5q41-23.5 65.5-63.5T629 218q0-59-26-100.5T534 49q-43-27-99-39.5T318-3q-5 0-21.5.5t-37.5 1q-21 .5-43.5 1T176 0H32v56h91v588H32v56h303v-56H235zm76-49q-27 0-44.5-1.5T235 362V58q6-2 16.5-2.5T274 54q12-1 23-1h17q38 0 72.5 9T447 91q26 20 41.5 51.5T504 219q0 40-13.5 68.5T452 334q-25 18-61 26t-80 8z"/><glyph unicode="Э" horiz-adv-x="686" d="M202 328v64h305q-18 256-264 256-33 0-57-6t-35-13l-14-20v-92H73v154q36 23 85.5 32t97.5 9q88 0 157-20.5t117-64Q578 584 603.5 517T629 358q0-95-29.5-164.5T520.5 78Q471 32 405 10T267-12q-36 0-65.5 2T148-3.5q-24 4.5-44 11T65 23v173h64V91l15-21q14-7 42.5-12.5T242 52q50 0 97.5 15t84.5 48q37 33 59.5 85.5T507 328z"/><glyph unicode="Ю" horiz-adv-x="1088" d="M32 644v56h288v-56h-85V387h132q4 69 27 128.5t64.5 103Q500 662 559.5 687T696 712q84 0 147-27t104.5-75.5q41.5-48.5 62.5-115t21-144.5q0-77-21-143.5t-63-115q-42-48.5-105-76T696-12q-83 0-144 25.5t-101.5 71Q410 130 389 193t-23 138H235V56h85V0H32v56h91v588zm455-294q0-65 11.5-121t37.5-97q26-41 68-64.5T706 44q56 0 94.5 24t62 65q23.5 41 33.5 97t10 120q0 64-11 120t-36.5 97Q833 608 791 632t-105 24q-60 0-98.5-24t-61-65q-22.5-41-31-97T487 350z"/><glyph unicode="Я" horiz-adv-x="710" d="M678 700v-56h-91V56h91V0H378v56h97v236H363L172 0H10v56h62l190 243q-35 8-65 24t-52.5 40.5Q122 388 109 421t-13 75q0 55 26 94.5t69.5 64.5q43.5 25 100 36.5T408 703q23 0 56.5-1.5T533 700zM398 344q20 0 41.5 1.5T475 350v292q-11 2-31 3.5t-37 1.5q-85 0-135.5-34.5T221 496q0-75 43.5-113.5T398 344z"/><glyph unicode="а" horiz-adv-x="569" d="M464 139q0-23 1-46.5t3-42.5h66V0H377l-10 95h-5q-5-20-18.5-39t-34-34Q289 7 261-2t-62-9q-34 0-62.5 10T87 27Q66 45 54.5 70.5T43 128q0 49 20.5 81t60.5 50.5Q164 278 224 286t140 9q2 16 2 30.5V354q0 62-21 94.5T270 481q-20 0-43-2t-42-12v-92H95v111q36 19 85 34t115 15q57 0 91.5-14.5t53-38q18.5-23.5 24-53T469 371q0-63-2.5-120.5T464 139zM245 56q24 0 43 7.5t33.5 19Q336 94 346.5 108t17.5 27v119q-65 0-105.5-8.5T195 223q-23-14-31.5-33.5T155 148q0-45 24-68.5T245 56z"/><glyph unicode="б" horiz-adv-x="608" d="M45 276q0 134 26.5 221t78 137.5Q201 685 277 704.5T452 724v36h64V628H379q-56 0-104-10.5t-84-38q-36-27.5-59-75T105 383h6q27 55 86 92t139 37q105 0 166-62.5T563 265q0-61-18-111.5t-52.5-87Q458 30 408.5 10T296-10q-56 0-102.5 19T114 64.5q-33 36.5-51 90T45 276zm113-1q0-66 12-111t33.5-73.5q21.5-28.5 50-41T315 37q66 0 100.5 55T450 252q0 52-11.5 89t-31 61Q388 426 362 437t-56 11q-51 0-85-15.5T169 397q-6-27-8.5-56t-2.5-66z"/><glyph unicode="в" horiz-adv-x="595" d="M542 153q0-42-20-71.5T468.5 33Q435 14 390 5t-94-9q-36 0-58 .5T201.5-2q-14.5 1-25 1.5T153 0H43v50h74v425H43v50h104q26 0 45.5.5t37 1.5q17.5 1 34 1.5t37.5.5q98 0 154-27.5t56-97.5q0-25-11.5-45.5t-30-35.5q-18.5-15-41-25T385 284q31-3 59.5-12t50.5-25q22-16 34.5-39.5T542 153zM222 47q16-3 39-3.5t39-.5q65 0 97 27t32 76q0 51-38.5 76T291 247h-69zm0 241h123q10 4 20.5 13.5T385 324q9 13 15 30.5t6 38.5q0 51-32.5 70T278 482q-12 0-28.5-.5T222 478z"/><glyph unicode="г" horiz-adv-x="486" d="M461 525V350h-64v105l-20 20H222V50h101V0H43v50h74v425H43v50z"/><glyph unicode="д" horiz-adv-x="645" d="M111 0L91-20v-130H19V50h67q13 15 30 44t32 79q15 50 25.5 124T184 475h-78v50h481v-50h-74V50h90v-200h-72v130L511 0zm137 472q-1-95-11-165t-24-120.5Q199 136 183.5 103T156 50h252v422z"/><glyph unicode="е" horiz-adv-x="566" d="M499 69q-26-37-73.5-58.5T315-11q-66 0-116.5 19.5t-84.5 55q-34 35.5-51.5 86T45 262q0 134 67 203.5T300 535q40 0 78.5-10t68.5-33q30-23 48.5-61t18.5-94q0-17-2-36t-6-40H158q0-44 11.5-80t35-62Q228 93 263 78.5T346 64q39 0 72.5 13t53.5 30zM296 488q-31 0-54.5-9T201 449q-17-21-27-55.5T161 308h241q1 9 1.5 18.5t.5 17.5q0 66-26.5 105T296 488z"/><glyph unicode="ж" horiz-adv-x="814" d="M594 525h199v-50h-63L584 292 767 50h47V0H678L511 244h-54V50h59V0H298v50h59v194h-59L137 0H0v50h52l176 238L74 475H22v50h196v-50h-59l142-191h56v191h-59v50h218v-50h-59V284h56l140 191h-59z"/><glyph unicode="з" horiz-adv-x="532" d="M244 44q29 0 51 9t37 24q15 15 22.5 34t7.5 38q0 46-23 64.5T276 238H171v54h113q10 4 21 12.5t20.5 21.5q9.5 13 15.5 30t6 39q0 50-29 68t-78 18q-25 0-44-2t-25-5l-19-22v-87H88v134q23 12 61.5 24T259 535q93 0 143-29.5t50-90.5q0-26-11-47t-29-37.5q-18-16.5-40-28T328 285q31-3 57.5-12.5T432 247q20-16 31.5-39t11.5-52q0-42-16.5-73T412 31.5Q382 11 340 .5T246-10q-58 0-102.5 18.5T70 53v100h64V84l17-22q11-7 33-12.5t60-5.5z"/><glyph unicode="и" horiz-adv-x="691" d="M43 525h240v-50h-66V167l-6-108h6l38 89 198 377h195v-50h-74V50h74V0H408v50h66v320l11 103h-6l-42-99L236 0H43v50h74v425H43z"/><glyph unicode="й" horiz-adv-x="691" d="M43 525h240v-50h-66V167l-6-108h6l38 89 198 377h195v-50h-74V50h74V0H408v50h66v320l11 103h-6l-42-99L236 0H43v50h74v425H43zm314 63q-36 0-68 6.5t-56.5 18q-24.5 11.5-41 26T169 670v58h114v-79q13-9 31-12.5t44-3.5q27 0 43.5 2.5T434 646v82h109v-58q-3-17-19-32t-41.5-26Q457 601 425 594.5t-68-6.5z"/><glyph unicode="к" horiz-adv-x="610" d="M367 525h207v-50h-64L355 296 559 50h50V0H465L279 248h-57V50h72V0H43v50h74v425H43v50h235v-50h-56V289h52l156 186h-63z"/><glyph unicode="л" horiz-adv-x="612" d="M116 107q19 25 32 66.5t21 91.5q8 50 11.5 104.5T184 475h-78v50h463v-50h-74V50h74V0H324v50h66v425H244q-1-94-11.5-172T204 164.5q-18-60.5-41.5-102T112 0H22v107z"/><glyph unicode="м" horiz-adv-x="828" d="M239 0H39v50h74v425H42v50h222l145-322h3l150 322h217v-50h-74V50h74V0H539v50h66v425h-9L404 70h-31L182 475h-9V50h66z"/><glyph unicode="н" horiz-adv-x="689" d="M288 0H43v50h74v425H43v50h245v-50h-66V293h245v182h-66v50h245v-50h-74V50h74V0H401v50h66v189H222V50h66z"/><glyph unicode="о" horiz-adv-x="622" d="M45 262q0 66 19 117t53.5 85.5q34.5 34.5 84 52.5T311 535q70 0 120.5-19.5t82.5-55q32-35.5 47.5-86T577 262q0-66-18.5-116.5t-53-85Q471 26 421.5 8T311-10q-68 0-118 19.5t-83 55Q77 100 61 150T45 262zm113 0q0-48 9-89t29.5-71q20.5-30 53-47.5T329 37q59 0 97 54t38 171q0 48-9 89.5t-28.5 72Q407 454 376.5 471T302 488q-66 0-105-54t-39-172z"/><glyph unicode="п" horiz-adv-x="688" d="M288 0H43v50h74v425H43v50h602v-50h-74V50h74V0H400v50h66v425H222V50h66z"/><glyph unicode="р" horiz-adv-x="636" d="M287-200H34v50h74v625H34v50h179V420h1q22 53 62.5 84T383 535q99 0 153.5-61T591 274q0-66-18.5-119t-53-90q-34.5-37-83-56.5T328-11q-20 0-35.5 1T264-7q-13 2-25.5 6T213 8v-158h74zm57 668q-54 0-85.5-30.5T213 351V58q20-13 44.5-17.5T323 36q37 0 66 17.5t49 49q20 31.5 30.5 75T479 274q0 43-7 78.5t-22.5 61Q434 439 408 453.5T344 468z"/><glyph unicode="с" horiz-adv-x="523" d="M482 67q-21-29-66.5-53.5T308-11q-66 0-115.5 19.5t-82.5 55q-33 35.5-49 86T45 262q0 133 70.5 203T307 535q55 0 91-7t66-22V376h-90v96q-15 9-60 9-38 0-67-11t-49-36q-20-25-30-67t-10-103q0-40 11-76.5t33-64Q224 96 257.5 80T336 64q24 0 42.5 5T411 79.5Q425 85 436 92t21 15z"/><glyph unicode="т" horiz-adv-x="559" d="M406 0H153v50h74v425H125l-20-20V350H41v175h477V350h-64v105l-20 20H332V50h74z"/><glyph unicode="у" horiz-adv-x="568" d="M47 475h-59v50h258v-50h-84l136-332 20-76h5l19 77 107 331h-61v50h192v-50h-64L352 0q-14-41-30.5-75.5t-32-61q-15.5-26.5-30-43T235-200H134v90h102q7 8 13 16t12 20q6 12 13 29.5T290 0h-37z"/><glyph unicode="ф" horiz-adv-x="816" d="M532-200H284v50h74V28Q341 10 316.5-.5T260-11q-48 0-87.5 15t-68 46q-28.5 31-44 79T45 244q0 75 16 130t45.5 90.5q29.5 35.5 71.5 53t94 17.5q28 0 51.5-11t34.5-22v198h-86v50h186V496q17 17 45 28t59 11q47 0 85.5-14.5t66-44q27.5-29.5 42.5-75T771 294q0-80-17-137.5t-46.5-95Q678 24 637 6.5T548-11q-27 0-51.5 9T458 21v-171h74zM286 43q18 0 38 5t35 19v396q-14 9-30 13.5t-45 4.5q-28 0-51.5-11t-41-34.5Q174 412 164.5 375t-9.5-90q0-71 10-117.5T192.5 93Q210 65 234 54t52-11zm248 438q-23 0-42.5-4.5T457 459V62q14-11 30.5-15t43.5-4q25 0 48.5 11T621 90.5q18 25.5 29 66.5t11 100q0 64-8 107.5t-24 69Q613 459 589 470t-55 11z"/><glyph unicode="х" horiz-adv-x="586" d="M338 281L515 50h59V0H330v50h67L274 224 150 50h55V0H12v50h63l167 210L74 475H19v50h240v-50h-65l115-159 112 159h-55v50h188v-50h-62z"/><glyph unicode="ц" horiz-adv-x="691" d="M43 0v50h74v425H43v50h245v-50h-66V50h233v425h-66v50h245v-50h-74V50h97v-200h-64v130L573 0z"/><glyph unicode="ч" horiz-adv-x="629" d="M16 525h244v-50h-65V345q0-48 22-77.5t74-29.5q31 0 60.5 10t55.5 25v202h-65v50h244v-50h-74V50h74V0H317v50h90v188q-27-27-64.5-44.5T250 176q-76 0-118 40T90 324v151H16z"/><glyph unicode="ш" horiz-adv-x="939" d="M717 50v425h-61v50h240v-50h-74V50h74V0H43v50h74v425H43v50h238v-50h-59V50h195v425h-59v50h223v-50h-59V50z"/><glyph unicode="щ" horiz-adv-x="952" d="M43 0v50h74v425H43v50h238v-50h-59V50h195v425h-59v50h223v-50h-59V50h195v425h-61v50h240v-50h-74V50h97v-200h-64v128L835 0z"/><glyph unicode="ъ" horiz-adv-x="651" d="M300 47q14-1 28.5-2.5T358 43q65 0 101.5 30t36.5 95q0 30-10 50t-27 32.5Q442 263 419.5 268t-47.5 5q-19 0-37-1t-35-4zm67 478v-50h-67V312q19 2 43 5t69 3q92 0 144.5-37T609 167q0-42-17-73.5T544.5 40q-30.5-22-73-33T379-4q-31 0-70 2t-82 2H121v50h74v425h-92l-20-20V351H19v174z"/><glyph unicode="ы" horiz-adv-x="842" d="M222 312q18 2 42 5t69 3q85 0 135.5-37T519 167q0-42-16-73.5T458 40q-29-22-69.5-33T299-4q-30 0-69.5 2T147 0H43v50h74v425H43v50h246v-50h-67zm0-265q14-1 29-2.5t29-1.5q126 0 126 125 0 30-10 50t-26 32q-16 12-37.5 17.5T289 273q-15 0-32.5-1t-34.5-4zM799 0H554v50h66v425h-67v50h246v-50h-74V50h74z"/><glyph unicode="ь" horiz-adv-x="572" d="M222 312q18 2 42.5 5t69.5 3q92 0 144-37t52-116q0-42-17-73.5T465.5 40Q435 18 393 7T300-4q-30 0-70 2t-83 2H43v50h74v425H43v50h246v-50h-67zm0-265q14-1 29-2.5t29-1.5q64 0 100.5 30t36.5 95q0 30-10 50t-27 32q-17 12-40 17.5t-48 5.5q-17 0-35-1t-35-4z"/><glyph unicode="э" horiz-adv-x="552" d="M241-10q-58 0-100 18.5T70 53v100h64V85l15-20q11-6 32.5-13.5T238 44q75 0 115.5 51.5T394 237H170v54h223q-2 56-14 93t-33 59.5Q325 466 296 475t-63 9q-34 0-50-4t-25-8l-17-20v-97H77v143q15 8 31 15t36.5 12.5q20.5 5.5 46.5 9t62 3.5q54 0 100-14t80.5-45q34.5-31 54-82T507 273q0-75-23-128.5t-60.5-88Q386 22 338.5 6T241-10z"/><glyph unicode="ю" horiz-adv-x="886" d="M288 0H43v50h74v425H43v50h245v-50h-66V293h110q3 58 22 103.5t52 76q33 30.5 78.5 46.5T585 535q127 0 191.5-69.5T841 259q0-127-66-198.5T585-11q-54 0-99.5 14.5t-79 45Q373 79 353.5 126T332 239H222V50h66zm154 262q0-56 12-98.5t32.5-71Q507 64 534.5 50T592 36q72 0 104 59t32 167q0 115-35.5 170.5T580 488q-66 0-102-59.5T442 262z"/><glyph unicode="я" horiz-adv-x="597" d="M71 371q0 35 12.5 64.5T122 486q26 21 67.5 33t99.5 12q13 0 37.5-1t51.5-2q27-1 52-2t40-1h84v-50h-74V50h74V0H309v50h66v166h-70L154 0H0v50h56l148 171q-23 4-46.5 15.5T115 267q-19 19-31.5 45T71 371zm304 107q-14 2-37 4t-37 2q-34 0-57-8t-37-22.5q-14-14.5-20-35t-6-45.5q0-51 40-83.5T346 257h29z"/><glyph unicode="ё" horiz-adv-x="566" d="M499 69q-26-37-73.5-58.5T315-11q-66 0-116.5 19.5t-84.5 55q-34 35.5-51.5 86T45 262q0 134 67 203.5T300 535q40 0 78.5-10t68.5-33q30-23 48.5-61t18.5-94q0-17-2-36t-6-40H158q0-44 11.5-80t35-62Q228 93 263 78.5T346 64q39 0 72.5 13t53.5 30zM296 488q-31 0-54.5-9T201 449q-17-21-27-55.5T161 308h241q1 9 1.5 18.5t.5 17.5q0 66-26.5 105T296 488zM106 688q0 29 17.5 46.5T170 752q29 0 46.5-17.5T234 688q0-27-17.5-44.5T170 626q-29 0-46.5 17.5T106 688zm246 0q0 29 18.5 46.5T417 752q29 0 46-17.5t17-46.5q0-27-17-44.5T417 626q-28 0-46.5 17.5T352 688z"/><glyph unicode="ђ" horiz-adv-x="648" d="M25 633h75v67H15v50h190V633h196v-55H205V383h1q23 49 72.5 82.5T397 499q39 0 71-9.5t54-34.5q22-25 34-67t12-107V50q-2-71-23-118t-48.5-76q-27.5-29-55-43T398-206l-29 47q13 6 29.5 18t30.5 34.5q14 22.5 24 58T463 42v218q0 83-22 127.5T363 432q-30 0-56-10t-46-26q-20-16-34.5-35.5T205 322V50h66V0H26v50h74v528H25z"/><glyph unicode="ѓ" horiz-adv-x="486" d="M461 525V350h-64v105l-20 20H222V50h101V0H43v50h74v425H43v50zM314 750h126v-41L244 592l-28 23z"/><glyph unicode="є" horiz-adv-x="537" d="M363 237H159q4-36 18-67.5t38-55q24-23.5 56.5-37T346 64q24 0 42.5 3.5t32.5 9Q435 82 446 89t21 15l25-40q-21-29-66.5-52T318-11q-66 0-117 19.5t-85.5 55Q81 99 63 149.5T45 262q0 66 20 117t56 85.5q36 34.5 86 52.5t110 18q55 0 91-7t66-22V376h-64v81l-12 15q-8 5-29.5 7t-44.5 2q-36 0-65.5-9.5t-51-32Q186 417 173.5 381T158 291h205z"/><glyph unicode="ѕ" horiz-adv-x="486" d="M332 119q0 27-20 47.5t-50 38q-30 17.5-65 35t-65 40q-30 22.5-50 53T62 406q0 29 14 52.5t37.5 40.5q23.5 17 55.5 26.5t68 9.5q30 0 53-2t42-5.5q19-3.5 36-8.5t35-11V373h-64v79l-19 22q-13 3-28 5t-32 2q-48 0-71.5-18.5T165 416q0-27 20-47t50-37.5q30-17.5 65-34.5t65-38.5q30-21.5 50-49.5t20-67q0-36-16.5-64t-45-47.5Q345 11 306.5.5T225-10q-48 0-93.5 12.5T60 32v131h64V87l20-21q13-10 31-16t47-6q48 0 79 20t31 55z"/><glyph unicode="і" horiz-adv-x="339" d="M298 0H45v50h74v425H45v50h179V50h74zM97 687q0 29 20.5 46t52.5 17q34 0 53.5-17t19.5-46q0-29-19.5-46T170 624q-32 0-52.5 17T97 687z"/><glyph unicode="ї" horiz-adv-x="384" d="M40 688q0 29 16 45.5t44 16.5q28 0 45-16.5t17-45.5q0-26-17-43t-45-17q-28 0-44 17t-16 43zm182 0q0 29 16.5 45.5T283 750q28 0 44.5-16.5T344 688q0-26-16.5-43T283 628q-28 0-44.5 17T222 688zM321 0H68v50h74v425H68v50h179V50h74z"/><glyph unicode="ј" horiz-adv-x="326" d="M119 475H45v50h179V62q0-75-20.5-124T155-141.5q-28-30.5-56.5-45T54-206l-27 43q13 6 29 18.5T86-109q14 23 23.5 59.5T119 42zM96 687q0 29 20.5 46t52.5 17q34 0 53.5-17t19.5-46q0-29-19.5-46T169 624q-32 0-52.5 17T96 687z"/><glyph unicode="љ" horiz-adv-x="834" d="M495 47q14-1 29-2.5t29-1.5q126 0 126 125 0 30-9.5 50T644 250q-16 12-37.5 17.5T562 273q-14 0-32-1t-35-4zm0 265q19 2 43 5t69 3q85 0 135-37t50-116q0-42-16-73.5T731 40q-29-22-69.5-33T573-4q-30 0-70 2t-83 2h-96v50h66v425H244q-1-94-11.5-172T204 164.5q-18-60.5-41.5-102T112 0H22v107h94q19 25 32 66.5t21 91.5q8 50 11.5 104.5T184 475h-78v50h463v-50h-74z"/><glyph unicode="њ" horiz-adv-x="912" d="M573 47q14-1 29-2.5t29-1.5q126 0 126 125 0 30-9.5 50T722 250q-16 12-37.5 17.5T640 273q-14 0-32-1t-35-4zm0 265q19 2 43 5t69 3q85 0 135-37t50-116q0-42-16-73.5T809 40q-29-22-69.5-33T651-4q-30 0-70 2t-83 2h-96v50h66v189H222V50h66V0H43v50h74v425H43v50h245v-50h-66V293h246v182h-67v50h245v-50h-74z"/><glyph unicode="ћ" horiz-adv-x="661" d="M25 633h75v67H15v50h190V633h196v-55H205V383h1q23 49 72.5 82.5T397 499q39 0 71-9.5t54-34.5q22-25 34-67t12-107V50h74V0H463v260q0 83-22 127.5T363 432q-30 0-56-10t-46-26q-20-16-34.5-35.5T205 322V50h66V0H26v50h74v528H25z"/><glyph unicode="ќ" horiz-adv-x="610" d="M367 525h207v-50h-64L355 296 559 50h50V0H465L279 248h-57V50h72V0H43v50h74v425H43v50h235v-50h-56V289h52l156 186h-63zm-4 225h126v-41L293 592l-28 23z"/><glyph unicode="ў" horiz-adv-x="568" d="M47 475h-59v50h258v-50h-84l136-332 20-76h5l19 77 107 331h-61v50h192v-50h-64L352 0q-14-41-30.5-75.5t-32-61q-15.5-26.5-30-43T235-200H134v90h102q7 8 13 16t12 20q6 12 13 29.5T290 0h-37zm258 113q-36 0-68 6.5t-56.5 18q-24.5 11.5-41 26T117 670v58h114v-79q13-9 31-12.5t44-3.5q27 0 43.5 2.5T382 646v82h109v-58q-3-17-19-32t-41.5-26Q405 601 373 594.5t-68-6.5z"/><glyph unicode="џ" horiz-adv-x="678" d="M390 525h245v-50h-74V50h74V0H379v-199h-80V0H43v50h74v425H43v50h245v-50h-66V50h234v425h-66z"/><glyph unicode="Ѣ" horiz-adv-x="797" d="M96 561l-20-22V421H12v196h240v48h-91v56h303v-56H364v-48h282V455h-64v84l-20 22H364V396q20 3 49.5 5t52.5 2q56 0 108.5-7.5t93.5-29q41-21.5 66-60t25-99.5q0-59-25.5-99T665 43.5Q622 19 565.5 8T448-3q-5 0-17 .5t-28 1q-16 .5-34.5 1T332 0H161v56h91v505zm345-214q-28 0-44.5-1.5T364 341V58q14-3 40-4t40-1q38 0 72.5 7.5t60.5 25q26 17.5 41.5 47.5t15.5 75q0 40-13.5 67T582 318q-25 16-60.5 22.5T441 347z"/><glyph unicode="ѣ" horiz-adv-x="659" d="M309 475V312q18 2 42.5 5t69.5 3q92 0 144-37t52-116q0-42-17-73.5T552.5 40Q522 18 480 7T387-4q-30 0-70 2t-83 2H130v50h74v425h-93l-20-20V350H27v175h177v175h-86v50h191V525h196V380h-64v75l-20 20zm0-428q14-1 29-2.5t29-1.5q64 0 100.5 30t36.5 95q0 30-10 50t-27 32q-17 12-40 17.5t-48 5.5q-17 0-35-1t-35-4z"/><glyph unicode="Ѳ" horiz-adv-x="830" d="M57 350q0 78 24 144.5t69.5 115Q196 658 262.5 685T414 712q85 0 152-27t113-75.5q46-48.5 70-115T773 350q0-78-24-144.5t-70-115Q633 42 566 15T414-12q-85 0-151.5 27t-112 75.5Q105 139 81 205.5T57 350zm125-1q26 27 53 43.5t53 24.5q22 7 47 7 29-1 56-11.5t53.5-23q26.5-12.5 53-23T553 356q17 0 44.5 2t50.5 16q-3 60-19 111.5T583 575q-30 38-74 59.5T405 656q-60 0-102.5-23.5t-69.5-65Q206 526 194 471t-12-118zm117-5q-24 0-56-6.5T184 305q4-56 21-104t47-83q30-35 73-54.5T424 44q54 0 95 21.5t69 60q28 38.5 43 90.5t17 112q-30-28-63.5-40T525 276q-30 0-58.5 10.5t-56 23.5Q383 323 355 333.5T299 344z"/><glyph unicode="ѳ" horiz-adv-x="622" d="M45 262q0 66 19 117t53.5 85.5q34.5 34.5 84 52.5T311 535q70 0 120.5-19.5t82.5-55q32-35.5 47.5-86T577 262q0-66-18.5-116.5t-53-85Q471 26 421.5 8T311-10q-68 0-118 19.5t-83 55Q77 100 61 150T45 262zm356 16q13 0 29.5 6t33.5 17q-3 40-14 74.5T419 435q-20 25-49 39t-68 14q-65 0-104-51t-41-161q32 24 61 33t51 9q19 0 36-6.5t32.5-14q15.5-7.5 31-13.5t32.5-6zm-179-24q-14 0-31-6t-33-19q3-42 14-77t31.5-60.5Q224 66 255 51.5T330 37q29 0 54 13t43 40q18 27 28.5 68.5T466 257q-29-23-56.5-33T357 214q-20 0-37 6t-33.5 13.5q-16.5 7.5-32.5 14t-32 6.5z"/><glyph unicode="Ѵ" horiz-adv-x="768" d="M629 700h144V574H661L457 0H346L86 644H0v56h307v-56h-96l180-467 29-95h4l30 97z"/><glyph unicode="ѵ" horiz-adv-x="576" d="M238 0L46 475h-57v50h238v-50h-67l120-315 26-109h5l28 109 134 365h119V419h-91L346 0z"/><glyph unicode="Ҋ" horiz-adv-x="834" d="M318 0H32v56h91v588H32v56h286v-56h-83V215l-12-75 54 79 327 403v22h-91v56h288v-56h-91V56h123l9-22-164-214h-33L719 0H513v56h85v428l11 75-49-75L228 76V56h90zm105 743q-103 0-152 33.5T222 881h116v-79q14-7 37-10.5t49-3.5q19 0 45 3t41 8v82h111q0-70-46.5-104T423 743z"/><glyph unicode="ҋ" horiz-adv-x="700" d="M43 525h240v-50h-66V167l-7-108h6l38 89 198 377h195v-50h-74V50h105l8-22-133-203h-41L582 0H407v50h66v320l11 103h-6l-42-99L235 0H43v50h74v425H43zm313 63q-36 0-68 6.5t-56.5 18q-24.5 11.5-41 26T168 670v58h114v-79q13-9 31-12.5t44-3.5q27 0 43.5 2.5T433 646v82h109v-58q-3-17-19-32t-41.5-26Q456 601 424 594.5t-68-6.5z"/><glyph unicode="Ҍ" horiz-adv-x="702" d="M11 570h147v74H67v56h303v-56H270v-74h216v-56H270v-97q20 3 49 5t52 2q56 0 109-9t94-32.5q41-23.5 65.5-63.5T664 218q0-59-26-100.5T569 49q-43-27-99-39.5T353-3q-5 0-21.5.5t-37.5 1q-21 .5-43.5 1T211 0H67v56h91v458H11zm335-202q-27 0-44.5-1.5T270 362V58q6-2 16.5-2.5T309 54q12-1 23-1h17q38 0 72.5 9T482 91q26 20 41.5 51.5T539 219q0 40-13.5 68.5T487 334q-25 18-61 26t-80 8z"/><glyph unicode="ҍ" horiz-adv-x="572" d="M5 525h112v175H32v50h190V525h159v-55H222V312q18 2 42.5 5t69.5 3q92 0 144-37t52-116q0-42-17-73.5T465.5 40Q435 18 393 7T300-4q-30 0-69.5 2T148 0H44v50h73v420H5zM222 47q14-1 29-2.5t29-1.5q64 0 100.5 30t36.5 95q0 30-10 50t-27 32q-17 12-40 17.5t-48 5.5q-17 0-35-1t-35-4z"/><glyph unicode="Ҏ" horiz-adv-x="667" d="M32 644v56h104q45 0 97.5 4t101.5 4q55 0 108-10.5t94-35.5q41-25 66.5-66.5T629 492q0-77-43.5-126T476 293l51-74-48-32-62 90q-45-9-95-9h-18q-12 0-25.5.5T253 270q-12 1-18 2V56h100V0H32v56h91v588zm203-315q5-2 15.5-2.5T273 325q12-1 23.5-1H314q37 0 66 7l-73 107 48 31 79-115q32 20 51 53.5t19 84.5q0 82-51.5 121T312 652q-27 0-45-1.5t-32-4.5z"/><glyph unicode="ҏ" horiz-adv-x="637" d="M287-200H34v50h74v625H34v50h179V420h1q22 53 62.5 84T383 535q99 0 153.5-61T591 274q0-95-37-161T451 15v-89l19-35L392-4q-15-3-31-5t-33-2q-20 0-35.5 1T264-7q-13 2-25.5 6T213 8v-158h74zm57 668q-54 0-85.5-30.5T213 351V58q20-13 44.5-17.5T323 36q20 0 35 4l-65 88 47 37 70-96q33 30 51 83t18 122q0 43-7 78.5t-22.5 61Q434 439 408 453.5T344 468z"/><glyph unicode="Ґ" horiz-adv-x="542" d="M32 644v56h414l20 22v115h64V644H235V56h108V0H32v56h91v588z"/><glyph unicode="ґ" horiz-adv-x="450" d="M366 525l20 20v105h64V475H222V50h101V0H43v50h74v425H43v50z"/><glyph unicode="Ғ" horiz-adv-x="596" d="M51 644v56h513V493h-72v129l-20 22H254V384h167v-56H254V56h108V0H51v56h91v272H42v56h100v260z"/><glyph unicode="ғ" horiz-adv-x="485" d="M460 525V350h-64v105l-20 20H222V283h124v-55H222V50h101V0H43v50h74v178H35v55h82v192H43v50z"/><glyph unicode="Ҕ" horiz-adv-x="686" d="M32 644v56h513V493h-72v129l-20 22H235V367q30 16 77 30.5T435 412q46 0 84-14t65.5-44.5q27.5-30.5 42.5-80T642 153q0-71-14.5-132.5T581-88q-32-47-84.5-76T369-199l-8 39q50 15 82 44t51 68.5q19 39.5 26 87t7 100.5q0 107-33.5 161.5T385 356q-48 0-84-12t-66-29V56h103V0H32v56h91v588z"/><glyph unicode="ҕ" horiz-adv-x="617" d="M460 525V350h-64v105l-20 20H222V233q27 27 64.5 44t92.5 17q76 0 118.5-52T540 86V41q0-114-52.5-179.5T336-209l-9 41q30 9 51 28t33.5 46q12.5 27 18 61.5T435 41v24q0 90-22.5 129T338 233q-31 0-60.5-9T222 201V50h101V0H43v50h74v425H43v50z"/><glyph unicode="Җ" horiz-adv-x="1080" d="M403 332L153 0H0v56h60q74 87 133 156 25 29 48.5 57t42.5 50q19 22 30.5 35.5L326 368 103 644H25v56h249v-56h-75l195-262h75v262h-77v56h262v-56h-77V382h79l196 262h-80v56h249v-56h-85L721 376 993 56h75v-218h-69v140L979 0h-79L645 332h-68V56h77V0H392v56h77v276z"/><glyph unicode="җ" horiz-adv-x="837" d="M678 0L511 244h-54V50h59V0H298v50h59v194h-59L137 0H0v50h52l176 238L74 475H22v50h196v-50h-59l142-191h56v191h-59v50h218v-50h-59V284h56l140 191h-57v50h197v-50h-63L584 292 767 50h60v-200h-64v130L743 0z"/><glyph unicode="Ҙ" horiz-adv-x="611" d="M227-200v188q-52 3-96 14T55 27v167h64V82l15-19q9-5 24.5-8.5t33-6Q209 46 227 45t32-1q41 0 74.5 11t57 31q23.5 20 36.5 47.5t13 60.5q0 39-13.5 65t-36 41.5Q368 316 338 322t-63 6h-87v64h127q51 16 78 49t27 81q0 65-40.5 99.5T265 656q-33 0-64.5-6T156 636l-13-19v-99H79v153q18 12 41 19.5t48.5 12.5q25.5 5 51.5 7t50 2q46 0 92.5-7t84-26.5q37.5-19.5 61.5-53t24-85.5q0-51-33.5-96T393 375v-4q34-5 63.5-17.5t51.5-33q22-20.5 34.5-50.5t12.5-71q0-49-19.5-86.5t-53-63.5q-33.5-26-79-41T307-11v-189z"/><glyph unicode="ҙ" horiz-adv-x="532" d="M244 44q29 0 51 9t37 24q15 15 22.5 34t7.5 38q0 46-23 64.5T276 238H171v54h113q10 4 21 12.5t20.5 21.5q9.5 13 15.5 30t6 39q0 50-29 68t-78 18q-25 0-44-2t-25-5l-19-22v-87H88v134q23 12 61.5 24T259 535q93 0 143-29.5t50-90.5q0-26-11-47t-29-37.5q-18-16.5-40-28T328 285q31-3 57.5-12.5T432 247q20-16 31.5-39t11.5-52q0-74-49-116T292-10v-189h-80v189q-46 5-82 23T70 53v100h64V84l17-22q11-7 33-12.5t60-5.5z"/><glyph unicode="Қ" horiz-adv-x="731" d="M551 0L288 332h-53V56h83V0H32v56h91v588H32v56h286v-56h-83V382h65l218 262h-81v56h247v-56h-79L367 377 650 56h69v-218h-69v140L630 0z"/><glyph unicode="қ" horiz-adv-x="625" d="M464 0L278 249h-57V50h72V0H42v50h74v425H42v50h235v-50h-56V289h52l156 186h-63v50h207v-50h-64L354 296 558 50h67v-200h-64v130L541 0z"/><glyph unicode="Ҝ" horiz-adv-x="796" d="M310 382v152h62V382h12l218 262h-81v56h247v-56h-79L451 377 734 56h62V0H635L372 332V182h-62v150h-75V56h83V0H32v56h91v588H32v56h286v-56h-83V382z"/><glyph unicode="ҝ" horiz-adv-x="708" d="M342 289h31l156 186h-63v50h207v-50h-64L454 296 658 50h50V0H564L378 249h-36V118h-54v131h-67V50h72V0H42v50h74v425H42v50h235v-50h-56V289h67v137h54z"/><glyph unicode="Ҟ" horiz-adv-x="749" d="M22 583h138v61H69v56h286v-56h-83v-61h121v-54H272V382h65l218 262h-81v56h247v-56h-79L404 377 687 56h62V0H588L325 332h-53V56h83V0H69v56h91v473H22z"/><glyph unicode="ҟ" horiz-adv-x="592" d="M5 643h95v57H15v50h190V643h176v-55H205V289h51l156 186h-63v50h207v-50h-64L337 296 541 50h50V0H447L261 248h-56V50h72V0H26v50h74v538H5z"/><glyph unicode="Ҡ" horiz-adv-x="848" d="M436 382l218 262h-81v56h247v-56h-79L503 377 786 56h62V0H687L424 332h-53V56h83V0H168v56h91v588H104l-20-22V493H20v207h434v-56h-83V382z"/><glyph unicode="ҡ" horiz-adv-x="689" d="M103 475l-20-20V351H19v174h348v-50h-66V289h52l156 186h-63v50h207v-50h-64L434 296 638 50h50V0H544L358 249h-57V50h72V0H122v50h74v425z"/><glyph unicode="Ң" horiz-adv-x="825" d="M502 0v56h83v275H235V56h83V0H32v56h91v588H32v56h286v-56h-83V387h350v257h-83v56h286v-56h-91V56h111v-218h-69v140L719 0z"/><glyph unicode="ң" horiz-adv-x="691" d="M401 0v50h66v189H222V50h66V0H43v50h74v425H43v50h245v-50h-66V293h245v182h-66v50h245v-50h-74V50h95v-200h-64v130L583 0z"/><glyph unicode="Ҥ" horiz-adv-x="1019" d="M318 56V0H32v56h91v588H32v56h286v-56h-83V387h350v257h-83v56h505V493h-72v129l-20 22H697V56h108V0H494v56h91v275H235V56z"/><glyph unicode="ҥ" horiz-adv-x="836" d="M393 475v50h407V350h-64v105l-20 20H572V50h74V0H401v50h66v189H222V50h66V0H43v50h74v425H43v50h245v-50h-66V293h245v182z"/><glyph unicode="Ҧ" horiz-adv-x="1136" d="M1092 153q0-78-16-142.5T1026-101q-34-47-88-74.5T809-209l-8 39q50 15 83.5 43.5t54 68.5Q959-18 968 31.5t9 108.5q0 112-33.5 164T835 356q-48 0-84-12t-66-29V56h91V0H490v56h83v588H235V56h83V0H32v56h91v588H32v56h744v-56h-91V367q30 16 74.5 30.5T867 412q52 0 94-13.5t71-44.5q29-31 44.5-80t15.5-121z"/><glyph unicode="ҧ" horiz-adv-x="948" d="M288 0H43v50h74v425H43v50h602v-50h-74V234q27 26 64 43t92 17q76 0 118.5-52T888 86V41q0-114-52.5-179.5T684-209l-9 41q30 9 51 28t33.5 46q12.5 27 18 61.5T783 41v24q0 90-22.5 129T686 233q-31 0-60-9t-55-23V50h74V0H400v50h66v425H222V50h66z"/><glyph unicode="Ҩ" horiz-adv-x="952" d="M891 33Q861 8 825.5-2T732-12q-19 0-38.5 3.5T656 1q-18 6-33.5 13T597 27q-18-13-57.5-26T450-12q-87 0-159.5 27t-124 75.5Q115 139 86 205.5T57 351q0 73 24 138.5t69 115Q195 654 258.5 683T401 712q36 0 65-6.5t47-22.5l-20-40q-11 7-27 10t-33 3q-61 0-108-23.5T246.5 568q-31.5-41-48-97T182 349q0-64 19-119.5t55.5-97q36.5-41.5 90-65T470 44q43 0 76 11-36 16-71 44t-62.5 66Q385 203 368 251.5T351 358q0 64 23 119t61 95q38 40 88.5 62.5T629 657q51 0 98.5-18.5t85-56q37.5-37.5 60-93.5T895 357q0-60-22.5-109.5t-56-88q-33.5-38.5-72-64T674 58q11-5 29.5-9.5T740 44q40 0 68 11.5T862 87zM476 350q0-49 12-90.5t31.5-75Q539 151 565 125t53-43q34 17 62.5 45.5t48 64.5q19.5 36 30.5 78.5t11 89.5q0 53-8 97t-25 76q-17 32-43 50t-62 18q-41 0-70.5-19.5t-48.5-53Q494 495 485 449t-9-99z"/><glyph unicode="ҩ" horiz-adv-x="744" d="M711 20q-3-6-13-11.5T674-1q-14-4-29-6.5T618-10q-16 0-33.5 1.5t-34 5Q534 0 520 5t-24 12Q467 4 431-3t-65-7q-68 0-127 19.5t-102 55Q94 100 69.5 150T45 262q0 57 18.5 107t53 86.5q34.5 36.5 83.5 58T311 535q35 0 55-4.5t33-12.5l-10-36q-13 3-28.5 4.5T334 488q-41-1-74-17.5t-56-46q-23-29.5-36-71T155 262q0-48 17-89t47-71q30-30 70.5-47.5T377 37q20 0 42 1.5t30 4.5q-33 9-62.5 29.5t-52 49Q312 150 299 183.5T286 251q0 60 18.5 103.5t49 71Q384 453 423 466t81 13q34 0 69.5-12t64.5-38q29-26 47.5-66.5T704 266q0-40-15-76.5t-38.5-66Q627 94 598.5 73T542 43q15-5 35.5-6t40.5-1q30 0 76 26zM396 254q0-65 24.5-115.5T492 63q19 10 37.5 29.5t33 46.5q14.5 27 23 61t8.5 74q0 30-5 58.5T572 383q-12 22-31 35.5T495 432q-49 0-74-49.5T396 254z"/><glyph unicode="Ҫ" horiz-adv-x="698" d="M569 184h64V27q-30-16-79-27t-97-12v-188h-80V-8q-75 7-134.5 32.5T141.5 94q-41.5 44-63 107.5T57 350q0 98 30 166.5t81 112Q219 672 286 692t141 20q36 0 65-2.5t52.5-7.5q23.5-5 43.5-12t39-15V504h-64v105l-14 20q-11 5-34.5 12t-75.5 7q-54 0-101-17t-81.5-53Q222 542 202 485.5T182 350q0-143 72.5-220.5T458 52q36 0 60.5 5.5T555 72l14 19z"/><glyph unicode="ҫ" horiz-adv-x="523" d="M482 64q-20-27-62.5-49.5T320-11v-188h-80V-5Q141 14 93 84.5T45 262q0 133 70.5 203T307 535q55 0 91-7t66-22V376h-90v96q-15 9-60 9-38 0-67-11t-49-36q-20-25-30-67t-10-103q0-40 11-76.5t33-64Q224 96 257.5 80T336 64q24 0 42.5 3.5t32.5 9Q425 82 436 89t21 15z"/><glyph unicode="Ҭ" horiz-adv-x="698" d="M516-162h-69v140L427 0H190v56h103v588H114l-20-22V493H22v207h654V493h-72v129l-20 22H405V56h111z"/><glyph unicode="ҭ" horiz-adv-x="559" d="M153 0v50h74v425H125l-20-20V350H41v175h477V350h-64v105l-20 20H332V50h97v-200h-64v130L345 0z"/><glyph unicode="Ү" horiz-adv-x="727" d="M478 700h249v-56h-85L429 297V56h91V0H226v56h91v240L91 644H0v56h302v-56h-84l181-291 171 291h-92z"/><glyph unicode="ү" horiz-adv-x="571" d="M416-200H163v50h74V0L48 475h-59v50h238v-50h-63l115-317 27-94h6l27 92q1 2 6 16.5t13 37q8 22.5 17.5 51T396 319q24 69 55 156h-61v50h192v-50h-63L342 0v-150h74z"/><glyph unicode="Ұ" horiz-adv-x="727" d="M478 700h249v-56h-85L430 299h161v-56H429V56h91V0H226v56h91v187H155v56h160L91 644H0v56h302v-56h-84l181-291 171 291h-92z"/><glyph unicode="ұ" horiz-adv-x="571" d="M101 55h114L48 475h-59v50h238v-50h-63l115-317 27-94h6l27 92 6 18q5 15 13.5 38t18.5 51.5q10 28.5 20 57.5 24 69 54 154h-61v50h192v-50h-63L362 55h116V0H342v-150h74v-50H163v50h74V0H101z"/><glyph unicode="Ҳ" horiz-adv-x="756" d="M449 700h252v-56h-82L423 375 653 56h91v-218h-69v140L655 0H453v56h73L350 303 184 56h77V0H10v56h84l219 296-210 292H14v56h298v-56h-80l155-223 150 223h-88z"/><glyph unicode="ҳ" horiz-adv-x="597" d="M329 0v50h67L273 224 149 50h55V0H11v50h63l167 210L73 475H18v50h240v-50h-65l115-159 112 159h-55v50h188v-50h-62L337 281 514 50h83v-200h-64v130L513 0z"/><glyph unicode="Ҵ" horiz-adv-x="986" d="M743 56v588h-72v56h275v-56h-91V56h114v-218h-69v141L880 0H190v56h103v588H114l-20-22V493H22v207h585V493h-72v129l-20 22H405V56z"/><glyph unicode="ҵ" horiz-adv-x="875" d="M332 50h307v425h-66v50h245v-50h-74V50h97v-200h-64v130L757 0H153v50h74v425H125l-20-20V350H41v175h477V350h-64v105l-20 20H332z"/><glyph unicode="Ҷ" horiz-adv-x="753" d="M625 56h111v-218h-69v140L647 0H409v56h104v254q-31-16-81-30.5T317 265q-47 0-86 8t-67.5 29Q135 323 119 359t-16 92v193H12v56h276v-56h-73V474q0-70 31-111.5T351 321q47 0 89 12t73 29v282h-80v56h283v-56h-91z"/><glyph unicode="ҷ" horiz-adv-x="629" d="M317 0v50h90v188q-27-27-64.5-44.5T250 176q-76 0-118 40T90 324v151H16v50h244v-50h-65V345q0-48 22-77.5t74-29.5q31 0 60.5 9t55.5 24v204h-65v50h244v-50h-74V50h97v-200h-64v130L525 0z"/><glyph unicode="Ҹ" horiz-adv-x="779" d="M656 56h91V0H440v56h104v254q-21-11-55.5-21.5T412 271V128h-56v137h-29q-47 0-87.5 8t-71 29q-30.5 21-48 57T103 451v193H12v56h276v-56h-73V474q0-69 31-110t110-43v149h56V324q38 5 73.5 15t58.5 23v282h-80v56h283v-56h-91z"/><glyph unicode="ҹ" horiz-adv-x="698" d="M318 179q-24-3-48-3-98 0-139 40T90 324v151H16v50h244v-50h-65V345q0-48 28-77.5t88-29.5h7v168h54V242q32 4 59.5 11t45.5 18v204h-65v50h244v-50h-74V50h74V0H387v50h90v188q-16-16-43.5-29T372 188V98h-54z"/><glyph unicode="Һ" horiz-adv-x="748" d="M123 644H32v56h307v-56H235V390q31 16 81 30.5T431 435q47 0 86-8t67.5-29q28.5-21 44.5-57t16-92V56h91V0H460v56h73v170q0 70-31 111.5T397 379q-47 0-89-12t-73-29V56h83V0H32v56h91z"/><glyph unicode="һ" horiz-adv-x="661" d="M642 0H397v50h66v246q0 83-22 127.5T363 468q-30 0-56-10t-46-26q-20-16-34.5-35.5T205 358V50h66V0H26v50h74v650H15v50h190V419h1q23 49 72.5 82.5T397 535q39 0 71-9.5t54-34.5q22-25 34-67t12-107V50h74z"/><glyph unicode="Ҽ" horiz-adv-x="919" d="M541 712q72 0 131-18.5t101-56q42-37.5 65.5-93.5T862 413q0-26-2-43t-5-33H305q0-71 23.5-122.5T391 129q39-34 89.5-50.5T586 62q55 0 110 16t103 48h22q-22-61-52.5-81T704 12.5Q670 0 634.5-6T566-12q-80 0-148.5 22T298 75.5q-51 43.5-80.5 109T185 337q-93 2-139 40T0 494v78h133v-92l-62-28q14-35 44.5-46.5T186 393q7 79 37.5 139T302 632q48 40 109.5 60T541 712zm1-56q-104 0-167.5-67.5T305 393h435q1 11 1.5 21t.5 20q0 51-14.5 92t-41 70Q660 625 623 640.5T542 656z"/><glyph unicode="ҽ" horiz-adv-x="681" d="M614 69q-26-37-73.5-58.5T430-11q-66 0-116.5 19T229 62.5q-34 35.5-51.5 86T160 261q-39 1-68.5 11.5T42 301q-20 18-30.5 41T1 392v83h106v-79l-46-24q0-10 6.5-21.5t18.5-21q12-9.5 31-15.5t45-6q11 112 76.5 169.5T415 535q40 0 78.5-10t68.5-33q30-23 48.5-61t18.5-94q0-17-2-36t-6-40H273q0-44 11.5-80t35-62Q343 93 378 78.5T461 64q39 0 72.5 13t53.5 30zM411 488q-31 0-54.5-9T316 449q-17-21-27-55.5T276 308h241q1 9 1.5 18.5t.5 17.5q0 66-26.5 105T411 488z"/><glyph unicode="Ҿ" horiz-adv-x="919" d="M541 712q72 0 131-18.5t101-56q42-37.5 65.5-93.5T862 413q0-26-2-43t-5-33H305q0-71 23.5-122.5T391 129q39-34 89.5-50.5T586 62q55 0 110 16t103 48h22q-20-57-45.5-75.5T721 19Q692 6 661.5-1.5T601-12v-188h-80v188q-72 6-132.5 30.5t-105 68Q239 130 213 193t-28 144q-93 2-139 40T0 494v78h133v-92l-62-28q14-35 44.5-46.5T186 393q7 79 37.5 139T302 632q48 40 109.5 60T541 712zm1-56q-104 0-167.5-67.5T305 393h435q1 11 1.5 21t.5 20q0 51-14.5 92t-41 70Q660 625 623 640.5T542 656z"/><glyph unicode="ҿ" horiz-adv-x="681" d="M614 69q-24-34-66.5-55.5T450-11v-188h-80V-7Q266 9 213 80t-53 181q-39 1-68.5 11.5T42 301q-20 18-30.5 41T1 392v83h106v-79l-46-24q0-10 6.5-21.5t18.5-21q12-9.5 31-15.5t45-6q11 112 76.5 169.5T415 535q40 0 78.5-10t68.5-33q30-23 48.5-61t18.5-94q0-17-2-36t-6-40H273q0-44 11.5-80t35-62Q343 93 378 78.5T461 64q39 0 72.5 13t53.5 30zM411 488q-31 0-54.5-9T316 449q-17-21-27-55.5T276 308h241q1 9 1.5 18.5t.5 17.5q0 66-26.5 105T411 488z"/><glyph unicode="Ӏ" horiz-adv-x="398" d="M346 0H52v56h91v588H52v56h294v-56h-91V56h91z"/><glyph unicode="Ӄ" horiz-adv-x="712" d="M370 382q58-15 111.5-42.5t94.5-67q41-39.5 65.5-91.5T666 65q0-57-22-106t-59-85.5q-37-36.5-86-59T395-211l-9 50q31 8 61 26t53 45q23 27 37 63.5T551 55q0 53-21 98.5t-55.5 81Q440 270 395.5 295T305 332h-71V56h83V0H31v56h91v588H31v56h286v-56h-83V382h65l208 262h-80v56h248v-56h-81z"/><glyph unicode="ӄ" horiz-adv-x="609" d="M349 293q35-16 74.5-39.5t72.5-57q33-33.5 55-78T573 16q0-46-19-84.5t-50.5-68Q472-166 432-185t-82-25l-15 40q61 17 97 62T468-1q0 49-19 90t-47.5 73q-28.5 32-62 54T277 249h-56V50h72V0H42v50h74v425H42v50h235v-50h-56V289h52l156 186h-63v50h207v-50h-64z"/><glyph unicode="Ӆ" horiz-adv-x="739" d="M295 644q-5-141-15.5-235.5t-24-159Q242 185 225 143.5T190 68q-9-17-22-34T141 0H25v126h116q15 25 30.5 66.5t27.5 104Q211 359 218.5 445t7.5 199H122v56h585v-56h-91V56h122l9-22-164-214h-33L624 0H418v56h86v588z"/><glyph unicode="ӆ" horiz-adv-x="622" d="M116 107q19 25 32 66.5t21 91.5q8 50 11.5 104.5T184 475h-78v50h463v-50h-74V50h105l8-22-133-203h-41L504 0H324v50h66v425H244q-1-94-11.5-172T204 164.5q-18-60.5-41.5-102T112 0H22v107z"/><glyph unicode="Ӈ" horiz-adv-x="820" d="M318 56V0H32v56h91v588H32v56h286v-56h-83V387h350v257h-83v56h286v-56h-91V36q0-70-19-115t-46-72.5Q605-179 574.5-192T519-210l-23 46q18 9 34 21t28 32q12 20 19.5 50.5T585 17v314H235V56z"/><glyph unicode="ӈ" horiz-adv-x="682" d="M288 0H43v50h74v425H43v50h245v-50h-66V293h245v182h-66v50h245v-50h-74V62q0-75-20.5-124T503-141.5q-28-30.5-56.5-45T402-206l-29 47q13 6 29 18t30.5 33.5Q447-86 457-52.5T467 31v208H222V50h66z"/><glyph unicode="Ӊ" horiz-adv-x="821" d="M318 56V0H32v56h91v588H32v56h286v-56h-83V387h350v257h-83v56h286v-56h-91V56h123l9-22-164-214h-33L706 0H502v56h83v275H235V56z"/><glyph unicode="ӊ" horiz-adv-x="699" d="M288 0H43v50h74v425H43v50h245v-50h-66V293h245v182h-66v50h245v-50h-74V50h105l8-22-133-203h-41L581 0H401v50h66v189H222V50h66z"/><glyph unicode="Ӌ" horiz-adv-x="748" d="M625 56h91V0H491l-20-22v-140h-69V56h111v254q-31-16-81-30.5T317 265q-47 0-86 8t-67.5 29Q135 323 119 359t-16 92v193H12v56h276v-56h-73V474q0-70 31-111.5T351 321q47 0 89 12t73 29v282h-80v56h283v-56h-91z"/><glyph unicode="ӌ" horiz-adv-x="628" d="M16 525h244v-50h-65V345q0-48 22-77.5t74-29.5q31 0 60.5 9t55.5 24v204h-65v50h244v-50h-74V50h74V0H372v-150h-64V50h99v188q-27-27-64.5-44.5T250 176q-76 0-118 40T90 324v151H16z"/><glyph unicode="Ӎ" horiz-adv-x="984" d="M32 644v56h228l236-448 241 448h215v-56h-91V56h122l9-22-164-214h-33L869 0H662v56h91v446q0 2 .5 20.5T755 563q1 25 3 56h-9l-43-107-205-362h-61L240 512l-44 117h-10v-59q0-23 .5-43.5t.5-24.5V56h85V0H32v56h91v588z"/><glyph unicode="ӎ" horiz-adv-x="825" d="M239 0H39v50h74v425H42v50h222l145-322h3l150 322h217v-50h-74V50h98l8-22-133-203h-41L707 0H539v50h66v425h-9L404 70h-31L182 475h-9V50h66z"/><glyph unicode="ӏ" horiz-adv-x="343" d="M45 700v50h253v-50h-74V50h74V0H45v50h74v650z"/><glyph unicode="Ӑ" horiz-adv-x="755" d="M245 0H0v56h78l259 644h106L680 56h75V0H469v56h89l-65 176H227L159 56h86zm5 288h226l-82 231-25 106h-4l-29-108zm139 455q-103 0-152 34t-49 104h116v-79q14-7 37-10.5t49-3.5q19 0 45 3t41 8v82h111q0-69-46.5-103.5T389 743z"/><glyph unicode="ӑ" horiz-adv-x="569" d="M464 139q0-23 1-46.5t3-42.5h66V0H377l-10 95h-5q-5-20-18.5-39t-34-34Q289 7 261-2t-62-9q-34 0-62.5 10T87 27Q66 45 54.5 70.5T43 128q0 49 20.5 81t60.5 50.5Q164 278 224 286t140 9q2 16 2 30.5V354q0 62-21 94.5T270 481q-20 0-43-2t-42-12v-92H95v111q36 19 85 34t115 15q57 0 91.5-14.5t53-38q18.5-23.5 24-53T469 371q0-63-2.5-120.5T464 139zM245 56q24 0 43 7.5t33.5 19Q336 94 346.5 108t17.5 27v119q-65 0-105.5-8.5T195 223q-23-14-31.5-33.5T155 148q0-45 24-68.5T245 56zm42 532q-36 0-68 6.5t-56.5 18q-24.5 11.5-41 26T99 670v58h114v-79q13-9 31-12.5t44-3.5q27 0 43.5 2.5T364 646v82h109v-58q-3-17-19-32t-41.5-26Q387 601 355 594.5t-68-6.5z"/><glyph unicode="Ӓ" horiz-adv-x="755" d="M245 0H0v56h78l259 644h106L680 56h75V0H469v56h89l-65 176H227L159 56h86zm5 288h226l-82 231-25 106h-4l-29-108zm-58 508q0 29 18.5 43.5T257 854q29 0 48-14.5t19-43.5q0-26-19-40t-48-14q-28 0-46.5 14T192 796zm252 0q0 29 19 43.5t46 14.5q29 0 48-14.5t19-43.5q0-26-19-40t-48-14q-27 0-46 14t-19 40z"/><glyph unicode="ӓ" horiz-adv-x="569" d="M464 139q0-23 1-46.5t3-42.5h66V0H377l-10 95h-5q-5-20-18.5-39t-34-34Q289 7 261-2t-62-9q-34 0-62.5 10T87 27Q66 45 54.5 70.5T43 128q0 49 20.5 81t60.5 50.5Q164 278 224 286t140 9q2 16 2 30.5V354q0 62-21 94.5T270 481q-20 0-43-2t-42-12v-92H95v111q36 19 85 34t115 15q57 0 91.5-14.5t53-38q18.5-23.5 24-53T469 371q0-63-2.5-120.5T464 139zM245 56q24 0 43 7.5t33.5 19Q336 94 346.5 108t17.5 27v119q-65 0-105.5-8.5T195 223q-23-14-31.5-33.5T155 148q0-45 24-68.5T245 56zM93 688q0 29 17.5 46.5T157 752q29 0 46.5-17.5T221 688q0-27-17.5-44.5T157 626q-29 0-46.5 17.5T93 688zm246 0q0 29 18.5 46.5T404 752q29 0 46-17.5t17-46.5q0-27-17-44.5T404 626q-28 0-46.5 17.5T339 688z"/><glyph unicode="Ӕ" horiz-adv-x="1027" d="M943 700V536h-64v86l-20 22H617V385h169l15 15v42h64V271h-64v42l-15 16H617V56h262l20 20v98h64V0H417v56h88v197H287L158 56h94V0H0v56h82l390 588h-60v56zM321 309h184v301h-2l-45-93z"/><glyph unicode="ӕ" horiz-adv-x="875" d="M245 57q24 0 43 7.5T321.5 83Q336 94 346 108t17 27v119q-64 0-104.5-8.5T195 223q-23-14-31.5-33.5T155 148q0-45 24-68t66-23zm146 48q-8-13-21-32.5t-34-38Q315 16 284.5 3T212-10q-78 0-123.5 37.5T43 128q0 49 20 81t60.5 50.5Q164 278 223.5 286t139.5 9q3 31 3 59 0 62-21 94.5T270 481q-20 0-43-2t-42-12v-92H95v111q36 19 85 34t115 15q60 0 94.5-15.5T442 479q28 30 73 43t94 13q40 0 78.5-10t68.5-33q30-23 48.5-61t18.5-94q0-17-2-36t-6-40H468q0-44 11.5-80t34.5-62q23-26 58-40.5T655 64q39 0 72.5 13t53.5 30l27-38q-26-37-73.5-58.5T624-11q-85 0-143 30.5T391 105zm214 383q-31 0-54.5-9T510 449q-17-21-27-55.5T470 308h241q1 9 1.5 18.5t.5 17.5q0 66-26.5 105T605 488z"/><glyph unicode="Ӗ" horiz-adv-x="645" d="M564 700V536h-64v86l-20 22H235V385h169l15 15v42h64V271h-64v42l-15 16H235V56h262l20 20v98h64V0H32v56h91v588H32v56zm-236 43q-103 0-152 34t-49 104h116v-79q14-7 37-10.5t49-3.5q19 0 45 3t41 8v82h111q0-69-46.5-103.5T328 743z"/><glyph unicode="ӗ" horiz-adv-x="566" d="M499 69q-26-37-73.5-58.5T315-11q-66 0-116.5 19.5t-84.5 55q-34 35.5-51.5 86T45 262q0 134 67 203.5T300 535q40 0 78.5-10t68.5-33q30-23 48.5-61t18.5-94q0-17-2-36t-6-40H158q0-44 11.5-80t35-62Q228 93 263 78.5T346 64q39 0 72.5 13t53.5 30zM296 488q-31 0-54.5-9T201 449q-17-21-27-55.5T161 308h241q1 9 1.5 18.5t.5 17.5q0 66-26.5 105T296 488zm3 100q-36 0-68 6.5t-56.5 18q-24.5 11.5-41 26T111 670v58h114v-79q13-9 31-12.5t44-3.5q27 0 43.5 2.5T376 646v82h109v-58q-3-17-19-32t-41.5-26Q399 601 367 594.5t-68-6.5z"/><glyph unicode="Ә" horiz-adv-x="798" d="M402-12q-80 0-144 20T149.5 67.5Q105 107 81 167.5T57 309q0 14 1 31.5t3 33.5h560q-2 67-20.5 119.5t-55 88.5q-36.5 36-91 55T327 656q-14 0-32-1t-37-3q-19-2-36-5t-29-7l-16-23V500h-64v171q39 17 96.5 29T333 712q203 0 305.5-91T741 350q0-89-24.5-157T647 79.5Q602 34 539.5 11T402-12zm-1 56q102 0 159 66.5T621 318H180l-2-22q-1-11-1-21 0-49 15.5-91.5T237 110q29-31 70.5-48.5T401 44z"/><glyph unicode="ә" horiz-adv-x="584" d="M271 481q-26 0-47.5-2.5T182 469l-20-20v-77H98v112q21 12 41 21.5t42.5 16q22.5 6.5 49.5 10t63 3.5q63 0 109-19t76-54.5q30-35.5 44.5-86T538 262q0-134-67-203T283-10q-40 0-81 11.5T127.5 39Q94 65 73 106.5T52 207q0 16 1.5 33.5T59 277h370q0 45-9 82.5T392 424q-19 27-49 42t-72 15zm16-444q63 0 98 45.5T426 230H165q-1-8-1-14.5V201q0-77 33-120.5T287 37z"/><glyph unicode="Ӛ" horiz-adv-x="798" d="M402-12q-80 0-144 20T149.5 67.5Q105 107 81 167.5T57 309q0 14 1 31.5t3 33.5h560q-2 67-20.5 119.5t-55 88.5q-36.5 36-91 55T327 656q-14 0-32-1t-37-3q-19-2-36-5t-29-7l-16-23V500h-64v171q39 17 96.5 29T333 712q203 0 305.5-91T741 350q0-89-24.5-157T647 79.5Q602 34 539.5 11T402-12zm-1 56q102 0 159 66.5T621 318H180l-2-22q-1-11-1-21 0-49 15.5-91.5T237 110q29-31 70.5-48.5T401 44zM180 796q0 29 18.5 43.5T245 854q29 0 48-14.5t19-43.5q0-26-19-40t-48-14q-28 0-46.5 14T180 796zm252 0q0 29 19 43.5t46 14.5q29 0 48-14.5t19-43.5q0-26-19-40t-48-14q-27 0-46 14t-19 40z"/><glyph unicode="ӛ" horiz-adv-x="584" d="M271 481q-26 0-47.5-2.5T182 469l-20-20v-77H98v112q21 12 41 21.5t42.5 16q22.5 6.5 49.5 10t63 3.5q63 0 109-19t76-54.5q30-35.5 44.5-86T538 262q0-134-67-203T283-10q-40 0-81 11.5T127.5 39Q94 65 73 106.5T52 207q0 16 1.5 33.5T59 277h370q0 45-9 82.5T392 424q-19 27-49 42t-72 15zm16-444q63 0 98 45.5T426 230H165q-1-8-1-14.5V201q0-77 33-120.5T287 37zM105 688q0 29 17.5 46.5T169 752q29 0 46.5-17.5T233 688q0-27-17.5-44.5T169 626q-29 0-46.5 17.5T105 688zm246 0q0 29 18.5 46.5T416 752q29 0 46-17.5t17-46.5q0-27-17-44.5T416 626q-28 0-46.5 17.5T351 688z"/><glyph unicode="Ӝ" horiz-adv-x="1053" d="M403 332L153 0H0v56h60q74 87 133 156 25 29 48.5 57t42.5 50q19 22 30.5 35.5L326 368 103 644H25v56h249v-56h-75l195-262h75v262h-77v56h262v-56h-77V382h79l196 262h-80v56h249v-56h-85L721 376 993 56h60V0H900L645 332h-68V56h77V0H392v56h77v276zm-68 464q0 29 18.5 43.5T400 854q29 0 48-14.5t19-43.5q0-26-19-40t-48-14q-28 0-46.5 14T335 796zm252 0q0 29 19 43.5t46 14.5q29 0 48-14.5t19-43.5q0-26-19-40t-48-14q-27 0-46 14t-19 40z"/><glyph unicode="ӝ" horiz-adv-x="814" d="M594 525h199v-50h-63L584 292 767 50h47V0H678L511 244h-54V50h59V0H298v50h59v194h-59L137 0H0v50h52l176 238L74 475H22v50h196v-50h-59l142-191h56v191h-59v50h218v-50h-59V284h56l140 191h-59zM220 688q0 29 17.5 46.5T284 752q29 0 46.5-17.5T348 688q0-27-17.5-44.5T284 626q-29 0-46.5 17.5T220 688zm246 0q0 29 18.5 46.5T531 752q29 0 46-17.5t17-46.5q0-27-17-44.5T531 626q-28 0-46.5 17.5T466 688z"/><glyph unicode="Ӟ" horiz-adv-x="611" d="M261-12q-62 0-115 11T55 27v167h64V82l15-19q9-5 24.5-8.5t33-6Q209 46 227 45t32-1q41 0 74.5 11t57 31q23.5 20 36.5 47.5t13 60.5q0 39-13.5 65t-36 41.5Q368 316 338 322t-63 6h-87v64h127q51 16 78 49t27 81q0 65-40.5 99.5T265 656q-33 0-64.5-6T156 636l-13-19v-99H79v153q18 12 41 19.5t48.5 12.5q25.5 5 51.5 7t50 2q46 0 92.5-7t84-26.5q37.5-19.5 61.5-53t24-85.5q0-51-33.5-96T393 375v-4q34-5 63.5-17.5t51.5-33q22-20.5 34.5-50.5t12.5-71q0-54-24-94t-64.5-66Q426 13 373 .5T261-12zM104 796q0 29 18.5 43.5T169 854q29 0 48-14.5t19-43.5q0-26-19-40t-48-14q-28 0-46.5 14T104 796zm252 0q0 29 19 43.5t46 14.5q29 0 48-14.5t19-43.5q0-26-19-40t-48-14q-27 0-46 14t-19 40z"/><glyph unicode="ӟ" horiz-adv-x="532" d="M244 44q29 0 51 9t37 24q15 15 22.5 34t7.5 38q0 46-23 64.5T276 238H171v54h113q10 4 21 12.5t20.5 21.5q9.5 13 15.5 30t6 39q0 50-29 68t-78 18q-25 0-44-2t-25-5l-19-22v-87H88v134q23 12 61.5 24T259 535q93 0 143-29.5t50-90.5q0-26-11-47t-29-37.5q-18-16.5-40-28T328 285q31-3 57.5-12.5T432 247q20-16 31.5-39t11.5-52q0-42-16.5-73T412 31.5Q382 11 340 .5T246-10q-58 0-102.5 18.5T70 53v100h64V84l17-22q11-7 33-12.5t60-5.5zM71 688q0 29 17.5 46.5T135 752q29 0 46.5-17.5T199 688q0-27-17.5-44.5T135 626q-29 0-46.5 17.5T71 688zm246 0q0 29 18.5 46.5T382 752q29 0 46-17.5t17-46.5q0-27-17-44.5T382 626q-28 0-46.5 17.5T317 688z"/><glyph unicode="Ӡ" horiz-adv-x="610" d="M303 388q120 0 185-51.5T553 201q0-56-25-96t-66.5-66Q420 13 367 .5T258-12q-62 0-113.5 11T55 27v167h64V76l20-19q6-3 20-5.5t31-4q17-1.5 34.5-2.5t31.5-1q41 0 74.5 11.5t57.5 32q24 20.5 37 47.5t13 59q0 40-15.5 67T382 304q-25 16-57.5 22.5T259 333h-90v64h83l148 195 34 36v4l-64-7H140l-10-17v-87H66v179h459v-32L354 438z"/><glyph unicode="ӡ" horiz-adv-x="528" d="M222-149q41 0 71 12.5t49 34.5q19 22 28 52t9 64q0 39-13 65t-35 42q-22 16-51.5 23.5T218 152h-66v54h50l180 249H141l-20-20v-85H49v175h405v-70L270 206q110 0 162-50t52-136q0-57-20.5-98.5T408-148q-35-28-82.5-41.5T224-203q-53 0-99.5 18.5T49-140v110h72v-87l18-21q14-5 33.5-8t49.5-3z"/><glyph unicode="Ӣ" horiz-adv-x="833" d="M318 0H32v56h91v588H32v56h286v-56h-83V215l-12-75 54 79 327 403v22h-91v56h288v-56h-91V56h91V0H513v56h85v428l11 75-49-75L228 76V56h90zm-71 787v64h340v-64z"/><glyph unicode="ӣ" horiz-adv-x="691" d="M43 525h240v-50h-66V167l-6-108h6l38 89 198 377h195v-50h-74V50h74V0H408v50h66v320l11 103h-6l-42-99L236 0H43v50h74v425H43zm163 143v55h288v-55z"/><glyph unicode="Ӥ" horiz-adv-x="833" d="M318 0H32v56h91v588H32v56h286v-56h-83V215l-12-75 54 79 327 403v22h-91v56h288v-56h-91V56h91V0H513v56h85v428l11 75-49-75L228 76V56h90zm-91 796q0 29 18.5 43.5T292 854q29 0 48-14.5t19-43.5q0-26-19-40t-48-14q-28 0-46.5 14T227 796zm252 0q0 29 19 43.5t46 14.5q29 0 48-14.5t19-43.5q0-26-19-40t-48-14q-27 0-46 14t-19 40z"/><glyph unicode="ӥ" horiz-adv-x="691" d="M43 525h240v-50h-66V167l-6-108h6l38 89 198 377h195v-50h-74V50h74V0H408v50h66v320l11 103h-6l-42-99L236 0H43v50h74v425H43zm116 163q0 29 17.5 46.5T223 752q29 0 46.5-17.5T287 688q0-27-17.5-44.5T223 626q-29 0-46.5 17.5T159 688zm246 0q0 29 18.5 46.5T470 752q29 0 46-17.5t17-46.5q0-27-17-44.5T470 626q-28 0-46.5 17.5T405 688z"/><glyph unicode="Ӧ" horiz-adv-x="830" d="M57 350q0 78 24 144.5t69.5 115Q196 658 262.5 685T414 712q85 0 152-27t113-75.5q46-48.5 70-115T773 350q0-78-24-144.5t-70-115Q633 42 566 15T414-12q-85 0-151.5 27t-112 75.5Q105 139 81 205.5T57 350zm125 0q0-64 14.5-120t44.5-97q30-41 75.5-65T424 44q57 0 99 24t69.5 65q27.5 41 41.5 97t14 120q0 64-14.5 120T589 567q-30 41-75.5 65T405 656q-60 0-102.5-24T233 567q-27-41-39-97t-12-120zm41 446q0 29 18.5 43.5T288 854q29 0 48-14.5t19-43.5q0-26-19-40t-48-14q-28 0-46.5 14T223 796zm252 0q0 29 19 43.5t46 14.5q29 0 48-14.5t19-43.5q0-26-19-40t-48-14q-27 0-46 14t-19 40z"/><glyph unicode="ӧ" horiz-adv-x="622" d="M45 262q0 66 19 117t53.5 85.5q34.5 34.5 84 52.5T311 535q70 0 120.5-19.5t82.5-55q32-35.5 47.5-86T577 262q0-66-18.5-116.5t-53-85Q471 26 421.5 8T311-10q-68 0-118 19.5t-83 55Q77 100 61 150T45 262zm113 0q0-48 9-89t29.5-71q20.5-30 53-47.5T329 37q59 0 97 54t38 171q0 48-9 89.5t-28.5 72Q407 454 376.5 471T302 488q-66 0-105-54t-39-172zm-34 426q0 29 17.5 46.5T188 752q29 0 46.5-17.5T252 688q0-27-17.5-44.5T188 626q-29 0-46.5 17.5T124 688zm246 0q0 29 18.5 46.5T435 752q29 0 46-17.5t17-46.5q0-27-17-44.5T435 626q-28 0-46.5 17.5T370 688z"/><glyph unicode="Ө" horiz-adv-x="830" d="M57 350q0 78 24 144.5t69.5 115Q196 658 262.5 685T414 712q85 0 152-27t113-75.5q46-48.5 70-115T773 350q0-78-24-144.5t-70-115Q633 42 566 15T414-12q-85 0-151.5 27t-112 75.5Q105 139 81 205.5T57 350zM424 44q54 0 95 21.5t69 59.5q28 38 43 89.5T648 326H182q3-60 19-111.5t46-89.5q30-38 74-59.5T424 44zm-19 612q-56 0-96.5-20.5T241 579q-27-36-41-85.5T183 387h464q-4 57-20.5 106.5T580 579q-30 36-73.5 56.5T405 656z"/><glyph unicode="ө" horiz-adv-x="622" d="M45 262q0 66 19 117t53.5 85.5q34.5 34.5 84 52.5T311 535q70 0 120.5-19.5t82.5-55q32-35.5 47.5-86T577 262q0-66-18.5-116.5t-53-85Q471 26 421.5 8T311-10q-68 0-118 19.5t-83 55Q77 100 61 150T45 262zm257 226q-62 0-100-46.5T159 294h305q-3 42-13.5 77.5t-30 61.5q-19.5 26-49 40.5T302 488zm28-451q56 0 93 48t41 153H158q1-43 11.5-80T201 94q21-27 52.5-42T330 37z"/><glyph unicode="Ӫ" horiz-adv-x="830" d="M57 350q0 78 24 144.5t69.5 115Q196 658 262.5 685T414 712q85 0 152-27t113-75.5q46-48.5 70-115T773 350q0-78-24-144.5t-70-115Q633 42 566 15T414-12q-85 0-151.5 27t-112 75.5Q105 139 81 205.5T57 350zM424 44q54 0 95 21.5t69 59.5q28 38 43 89.5T648 326H182q3-60 19-111.5t46-89.5q30-38 74-59.5T424 44zm-19 612q-56 0-96.5-20.5T241 579q-27-36-41-85.5T183 387h464q-4 57-20.5 106.5T580 579q-30 36-73.5 56.5T405 656zM223 796q0 29 18.5 43.5T288 854q29 0 48-14.5t19-43.5q0-26-19-40t-48-14q-28 0-46.5 14T223 796zm252 0q0 29 19 43.5t46 14.5q29 0 48-14.5t19-43.5q0-26-19-40t-48-14q-27 0-46 14t-19 40z"/><glyph unicode="ӫ" horiz-adv-x="622" d="M45 262q0 66 19 117t53.5 85.5q34.5 34.5 84 52.5T311 535q70 0 120.5-19.5t82.5-55q32-35.5 47.5-86T577 262q0-66-18.5-116.5t-53-85Q471 26 421.5 8T311-10q-68 0-118 19.5t-83 55Q77 100 61 150T45 262zm257 226q-62 0-100-46.5T159 294h305q-3 42-13.5 77.5t-30 61.5q-19.5 26-49 40.5T302 488zm28-451q56 0 93 48t41 153H158q1-43 11.5-80T201 94q21-27 52.5-42T330 37zM124 688q0 29 17.5 46.5T188 752q29 0 46.5-17.5T252 688q0-27-17.5-44.5T188 626q-29 0-46.5 17.5T124 688zm246 0q0 29 18.5 46.5T435 752q29 0 46-17.5t17-46.5q0-27-17-44.5T435 626q-28 0-46.5 17.5T370 688z"/><glyph unicode="Ӭ" horiz-adv-x="686" d="M202 328v64h305q-18 256-264 256-33 0-57-6t-35-13l-14-20v-92H73v154q36 23 85.5 32t97.5 9q88 0 157-20.5t117-64Q578 584 603.5 517T629 358q0-95-29.5-164.5T520.5 78Q471 32 405 10T267-12q-36 0-65.5 2T148-3.5q-24 4.5-44 11T65 23v173h64V91l15-21q14-7 42.5-12.5T242 52q50 0 97.5 15t84.5 48q37 33 59.5 85.5T507 328zM92 796q0 29 18.5 43.5T157 854q29 0 48-14.5t19-43.5q0-26-19-40t-48-14q-28 0-46.5 14T92 796zm252 0q0 29 19 43.5t46 14.5q29 0 48-14.5t19-43.5q0-26-19-40t-48-14q-27 0-46 14t-19 40z"/><glyph unicode="ӭ" horiz-adv-x="552" d="M241-10q-58 0-100 18.5T70 53v100h64V85l15-20q11-6 32.5-13.5T238 44q75 0 115.5 51.5T394 237H170v54h223q-2 56-14 93t-33 59.5Q325 466 296 475t-63 9q-34 0-50-4t-25-8l-17-20v-97H77v143q15 8 31 15t36.5 12.5q20.5 5.5 46.5 9t62 3.5q54 0 100-14t80.5-45q34.5-31 54-82T507 273q0-75-23-128.5t-60.5-88Q386 22 338.5 6T241-10zM81 688q0 29 17.5 46.5T145 752q29 0 46.5-17.5T209 688q0-27-17.5-44.5T145 626q-29 0-46.5 17.5T81 688zm246 0q0 29 18.5 46.5T392 752q29 0 46-17.5t17-46.5q0-27-17-44.5T392 626q-28 0-46.5 17.5T327 688z"/><glyph unicode="Ӯ" horiz-adv-x="742" d="M584 644h-93v56h251v-56h-81L446 201q-31-63-60.5-114.5T326 0h-95v123h111q16 24 23 46L85 644H0v56h300v-56h-90l183-326 23-64h2l23 66zM217 787v64h340v-64z"/><glyph unicode="ӯ" horiz-adv-x="568" d="M47 475h-59v50h258v-50h-84l136-332 20-76h5l19 77 107 331h-61v50h192v-50h-64L352 0q-14-41-30.5-75.5t-32-61q-15.5-26.5-30-43T235-200H134v90h102q7 8 13 16t12 20q6 12 13 29.5T290 0h-37zm113 193v55h288v-55z"/><glyph unicode="Ӱ" horiz-adv-x="742" d="M584 644h-93v56h251v-56h-81L446 201q-31-63-60.5-114.5T326 0h-95v123h111q16 24 23 46L85 644H0v56h300v-56h-90l183-326 23-64h2l23 66zM209 796q0 29 18.5 43.5T274 854q29 0 48-14.5t19-43.5q0-26-19-40t-48-14q-28 0-46.5 14T209 796zm252 0q0 29 19 43.5t46 14.5q29 0 48-14.5t19-43.5q0-26-19-40t-48-14q-27 0-46 14t-19 40z"/><glyph unicode="ӱ" horiz-adv-x="568" d="M47 475h-59v50h258v-50h-84l136-332 20-76h5l19 77 107 331h-61v50h192v-50h-64L352 0q-14-41-30.5-75.5t-32-61q-15.5-26.5-30-43T235-200H134v90h102q7 8 13 16t12 20q6 12 13 29.5T290 0h-37zm71 213q0 29 17.5 46.5T182 752q29 0 46.5-17.5T246 688q0-27-17.5-44.5T182 626q-29 0-46.5 17.5T118 688zm246 0q0 29 18.5 46.5T429 752q29 0 46-17.5t17-46.5q0-27-17-44.5T429 626q-28 0-46.5 17.5T364 688z"/><glyph unicode="Ӳ" horiz-adv-x="742" d="M584 644h-93v56h251v-56h-81L446 201q-31-63-60.5-114.5T326 0h-95v123h111q16 24 23 46L85 644H0v56h300v-56h-90l183-326 23-64h2l23 66zM361 908l101-24v-24L285 757l-22 19zm197 0l106-22v-25L434 755l-25 19z"/><glyph unicode="ӳ" horiz-adv-x="568" d="M47 475h-59v50h258v-50h-84l136-332 20-76h5l19 77 107 331h-61v50h192v-50h-64L352 0q-14-41-30.5-75.5t-32-61q-15.5-26.5-30-43T235-200H134v90h102q7 8 13 16t12 20q6 12 13 29.5T290 0h-37zm195 331l97-22v-26L184 628l-27 16zm196 0l98-29v-25L312 628l-23 18z"/><glyph unicode="Ӵ" horiz-adv-x="748" d="M625 56h91V0H409v56h104v254q-31-16-81-30.5T317 265q-47 0-86 8t-67.5 29Q135 323 119 359t-16 92v193H12v56h276v-56h-73V474q0-70 31-111.5T351 321q47 0 89 12t73 29v282h-83v56h286v-56h-91zM172 796q0 29 18.5 43.5T237 854q29 0 48-14.5t19-43.5q0-26-19-40t-48-14q-28 0-46.5 14T172 796zm252 0q0 29 19 43.5t46 14.5q29 0 48-14.5t19-43.5q0-26-19-40t-48-14q-27 0-46 14t-19 40z"/><glyph unicode="ӵ" horiz-adv-x="629" d="M16 525h244v-50h-65V345q0-48 22-77.5t74-29.5q31 0 60.5 10t55.5 25v202h-65v50h244v-50h-74V50h74V0H317v50h90v188q-27-27-64.5-44.5T250 176q-76 0-118 40T90 324v151H16zm100 163q0 29 17.5 46.5T180 752q29 0 46.5-17.5T244 688q0-27-17.5-44.5T180 626q-29 0-46.5 17.5T116 688zm246 0q0 29 18.5 46.5T427 752q29 0 46-17.5t17-46.5q0-27-17-44.5T427 626q-28 0-46.5 17.5T362 688z"/><glyph unicode="Ӷ" horiz-adv-x="557" d="M32 0v56h91v588H32v56h513V493h-72v129l-20 22H235V56h111v-218h-69v140L257 0z"/><glyph unicode="ӷ" horiz-adv-x="485" d="M43 0v50h74v425H43v50h417V350h-64v105l-20 20H222V50h101v-200h-64v130L239 0z"/><glyph unicode="Ӹ" horiz-adv-x="953" d="M32 644v56h302v-56h-99V417q22 3 50 5t51 2q55 0 105.5-9t89-32q38.5-23 61.5-63t23-102q0-59-25.5-100.5T522 49q-42-27-95.5-39.5T318-3q-5 0-21 .5t-37 1q-21 .5-43 1T178 0H32v56h91v588zm599 0v56h290v-56h-91V56h91V0H631v56h87v588zM310 368q-26 0-43.5-1.5T235 362V58q5-2 15.5-2.5T273 54q12-1 23-1h17q39 0 71.5 10t56 30.5q23.5 20.5 36.5 52t13 73.5q0 149-180 149zm-17 428q0 29 18.5 43.5T358 854q29 0 48-14.5t19-43.5q0-26-19-40t-48-14q-28 0-46.5 14T293 796zm252 0q0 29 19 43.5t46 14.5q29 0 48-14.5t19-43.5q0-26-19-40t-48-14q-27 0-46 14t-19 40z"/><glyph unicode="ӹ" horiz-adv-x="842" d="M222 312q18 2 42 5t69 3q85 0 135.5-37T519 167q0-42-16-73.5T458 40q-29-22-69.5-33T299-4q-30 0-69.5 2T147 0H43v50h74v425H43v50h246v-50h-67zm0-265q14-1 29-2.5t29-1.5q126 0 126 125 0 30-10 50t-26 32q-16 12-37.5 17.5T289 273q-15 0-32.5-1t-34.5-4zM799 0H554v50h66v425h-67v50h246v-50h-74V50h74zM237 688q0 29 17.5 46.5T301 752q29 0 46.5-17.5T365 688q0-27-17.5-44.5T301 626q-29 0-46.5 17.5T237 688zm246 0q0 29 18.5 46.5T548 752q29 0 46-17.5t17-46.5q0-27-17-44.5T548 626q-28 0-46.5 17.5T483 688z"/><glyph unicode="Ӽ" horiz-adv-x="756" d="M184 56h77V0H10v56h84l219 296-210 292H14v56h298v-56h-80l155-223 150 223h-88v56h252v-56h-82L423 375q70-90 117.5-149.5T617 123q29-43 42-77.5T672-28q0-43-16-77t-43.5-57.5q-27.5-23.5-66-36T463-211h-5l-4 37q56 14 81 42t25 82q0 20-7.5 47.5t-30 68Q500 106 458.5 164T350 303z"/><glyph unicode="ӽ" horiz-adv-x="585" d="M149 50h55V0H11v50h63l167 210L73 475H18v50h240v-50h-65l115-159 112 159h-55v50h188v-50h-62L337 281q22-28 56-66t65.5-81.5Q490 90 513 44.5T536-44q0-87-54.5-124.5T333-206l-6 31q59 10 81.5 38T431-54q0 36-19 75.5T367.5 99q-25.5 38-52 70.5T273 224z"/><glyph unicode="Ԑ" horiz-adv-x="614" d="M341-12Q282-12 230-.5T139.5 35q-38.5 24-61 62T56 189q0 41 13.5 72.5t36.5 54q23 22.5 53.5 36.5t64.5 19v4q-76 21-107 63t-31 93q0 54 23.5 89.5t61 55.5q37.5 20 83.5 28t92 8q24 0 49.5-2.5t50.5-8q25-5.5 48-14t41-20.5V514h-64v99l-19 22q-11 7-35.5 14t-59.5 7q-81 0-120-33t-39-103q0-48 27-77.5t78-45.5h124v-64h-93q-33 0-62.5-8.5t-52-26.5Q197 280 184 252t-13-67q0-66 44.5-103.5T350 44q13 0 29.5 1.5T412 50q16 3 30 7t24 8l18 24v111h64V33q-38-17-91-31T341-12z"/><glyph unicode="ԑ" horiz-adv-x="528" d="M304 54q54 0 93 15t62 30l22-37q-24-29-73-52T284-13q-51 0-93 10.5T119.5 28Q90 48 73.5 76.5T57 140q0 54 36.5 85.5T194 271q-52 19-83 55t-31 79q0 34 15.5 58.5T139 504q28 16 67.5 23.5T293 535q20 0 43.5-3.5t45-8.5q21.5-5 40.5-11.5t30-12.5V366h-64v83l-14 18q-6 3-12 5.5t-15 4.5q-9 2-22.5 3t-33.5 1q-48 0-77-21t-29-77q0-17 6-32t15.5-27q9.5-12 20.5-20.5t21-12.5h112v-54H256q-38-4-62-24t-24-66q0-22 11-39t29.5-29q18.5-12 43-18.5T304 54z"/><glyph unicode="Ԓ" horiz-adv-x="739" d="M504 644H295q-5-141-15.5-235.5t-24-159Q242 185 225 143.5T190 68q-9-17-22-34T141 0H25v126h116q15 25 30.5 66.5t27.5 104Q211 359 218.5 445t7.5 199H122v56h585v-56h-91V38q0-71-18.5-116.5t-45.5-73Q525-179 494-192t-56-18l-23 46q17 9 33 20.5t28 31q12 19.5 19.5 50T504 17z"/><glyph unicode="ԓ" horiz-adv-x="605" d="M116 107q19 25 32 66.5t21 91.5q8 50 11.5 104.5T184 475h-78v50h463v-50h-74V62q0-75-20.5-124T426-141.5q-28-30.5-56.5-45T325-206l-29 47q13 6 29 18t30.5 34Q370-85 380-50t10 87v438H244q-1-94-11.5-172T204 164.5q-18-60.5-41.5-102T112 0H22v107z"/><glyph unicode="Ԝ" horiz-adv-x="1056" d="M897 644h-87v56h246v-56h-83L806 0H690L534 554 377 0H261L86 644H0v56h299v-56h-95l107-428 26-133h4l39 135q0 1 6 22.5t16 55.5q10 34 22 77.5t25 88.5q30 106 68 238h74l142-482 31-133h5l30 135z"/><glyph unicode="ԝ" horiz-adv-x="820" d="M176 0L49 475h-60v50h236v-50h-67l83-337 12-77h6l15 78 120 373h79l102-351 22-100h5l19 98 79 316h-62v50h193v-50h-63L636 0H519l-80 299q-1 1-3.5 14.5T429 344q-4 19-10 43h-6q-7-25-12-43-5-17-9-30t-4-15L286 0z"/><glyph unicode="Ԥ" horiz-adv-x="813" d="M235 644V56h83V0H32v56h91v588H32v56h744v-56h-91V56h111v-218h-69v140L707 0H490v56h83v588z"/><glyph unicode="ԥ" horiz-adv-x="701" d="M400 0v50h66v425H222V50h66V0H43v50h74v425H43v50h602v-50h-74V50h96v-200h-64v130L583 0z"/><glyph unicode="Ԧ" horiz-adv-x="763" d="M113 644H32v56h297v-56H225V390q31 16 81 30.5T421 435q46 0 85.5-8t68-29q28.5-21 44.5-57t16-92V56h111v-218h-69v140L657 0H450v56h73v170q0 70-31 111.5T387 379q-47 0-89-12t-73-29V56h80V0H32v56h81z"/><glyph unicode="ԧ" horiz-adv-x="669" d="M397 0v50h66v246q0 83-22 127.5T363 468q-30 0-56-10t-46-26q-20-16-34.5-35.5T205 358V50h66V0H26v50h74v650H15v50h190V419h1q23 49 72.5 82.5T397 535q39 0 71-9.5t54-34.5q22-25 34-67t12-107V50h95v-200h-64v130L579 0z"/><glyph unicode="Ԯ" horiz-adv-x="740" d="M295 644q-5-141-15.5-235.5t-24-159Q242 185 225 143.5T190 68q-9-17-22-34T141 0H25v126h116q15 25 30.5 66.5t27.5 104Q211 359 218.5 445t7.5 199H122v56h585v-56h-91V56h107v-218h-69v140L634 0H418v56h86v588z"/><glyph unicode="ԯ" horiz-adv-x="612" d="M324 0v50h66v425H244q-1-94-11.5-172T204 164.5q-18-60.5-41.5-102T112 0H22v107h94q19 25 32 66.5t21 91.5q8 50 11.5 104.5T184 475h-78v50h463v-50h-74V50h96v-200h-64v130L507 0z"/><glyph unicode="Ḱ" horiz-adv-x="712" d="M300 382l218 262h-81v56h247v-56h-79L367 377 650 56h62V0H551L288 332h-53V56h83V0H32v56h91v588H32v56h286v-56h-83V382zm163 532l123-33v-40l-256-72-13 24z"/><glyph unicode="ḱ" horiz-adv-x="582" d="M317 525h220v-50h-64L318 296 522 50h50V0H428L242 249h-37V50h74V0H26v50h74v650H15v50h190V289h35l153 186h-76zm70 225h126v-41L317 592l-28 23z"/><glyph unicode="Ḿ" horiz-adv-x="984" d="M32 644v56h228l236-448 241 448h215v-56h-91V56h91V0H662v56h91v446q1 5 1.5 23.5T756 565q1 25 2 54h-9l-43-107-205-362h-61L240 512l-44 117h-10v-62q0-23 .5-43.5t.5-21.5V56h85V0H32v56h91v588zm544 270l123-33v-40l-256-72-13 24z"/><glyph unicode="ḿ" horiz-adv-x="971" d="M617 0H375v50h65v243q0 42-3.5 75t-14 55Q412 445 392 456.5T340 468q-24 0-44-8.5T260 436q-16-15-27.5-34.5T214 360V50h65V0H35v50h74v425H35v50h179V419h1q17 49 60.5 82.5T382 535q26 0 51.5-5t46.5-19q21-14 36.5-38.5T538 408q10 25 26.5 48t39 40.5q22.5 17.5 50.5 28t61 10.5q41 0 71.5-10t51-34.5q20.5-24.5 30.5-67T878 315V50h74V0H708v50h65v262q0 37-4 66.5t-15 49q-11 19.5-31 30T670 468q-53 0-82.5-32.5T545 350V50h72zm-56 750h126v-41L491 592l-28 23z"/><glyph unicode="Ṕ" horiz-adv-x="667" d="M32 644v56h104q45 0 97.5 4t101.5 4q55 0 108-10.5t94-35.5q41-25 66.5-66.5T629 492q0-59-26-101.5T534.5 321q-42.5-27-98-40T322 268h-18q-12 0-25.5.5T253 270q-12 1-18 2V56h100V0H32v56h91v588zm203-315q5-2 15.5-2.5T273 325q12-1 23.5-1H314q39 0 73.5 9.5T448 363q26 20 41 52t15 77q0 82-51.5 121T312 652q-27 0-45-1.5t-32-4.5zm172 585l123-33v-40l-256-72-13 24z"/><glyph unicode="ṕ" horiz-adv-x="636" d="M287-200H34v50h74v625H34v50h179V420h1q22 53 62.5 84T383 535q99 0 153.5-61T591 274q0-66-18.5-119t-53-90q-34.5-37-83-56.5T328-11q-20 0-35.5 1T264-7q-13 2-25.5 6T213 8v-158h74zm57 668q-54 0-85.5-30.5T213 351V58q20-13 44.5-17.5T323 36q37 0 66 17.5t49 49q20 31.5 30.5 75T479 274q0 43-7 78.5t-22.5 61Q434 439 408 453.5T344 468zm30 282h126v-41L304 592l-28 23z"/><glyph unicode="ẞ" horiz-adv-x="733" d="M105 504q0 62 25.5 102.5t63.5 64q38 23.5 82.5 32.5t83.5 9q61 0 104-10.5t72-28.5q29-18 46-42t26-50L401 415q61-11 111.5-31t87.5-49.5q37-29.5 57.5-68.5t20.5-88q0-44-17-79t-45.5-59Q587 16 549 3t-79-13Q416-10 367 .5T278 38l28 49q37-20 68-26.5t61-6.5q57 0 92.5 27.5T563 166q0 30-14 58t-45.5 52.5Q472 301 422 320t-122 31v48l199 171q-17 37-51.5 61.5T367 656q-30 0-57-7t-47.5-26q-20.5-19-33-52T217 487V0H32v56h73z"/><glyph unicode="‑" horiz-adv-x="475" d="M80 314h316v-64H80z"/><glyph unicode="–" horiz-adv-x="703" d="M81 314h540v-64H81z"/><glyph unicode="—" horiz-adv-x="994" d="M81 314h832v-64H81z"/><glyph unicode="‘" horiz-adv-x="328" d="M251 721q-21-6-38-19t-29-29.5Q172 656 166 637t-4-37h58q8-11 13-25t5-25q0-17-5-32.5T220 490H108q-16 37-18 71 0 57 21.5 95.5t53 62Q196 742 233 750z"/><glyph unicode="’" horiz-adv-x="328" d="M75 519q21 6 38 19t29 29.5q12 16.5 17.5 35.5t4.5 37h-57q-8 12-13 24.5T89 691q0 12 2.5 22.5T98 733q4 9 9 17h111q8-20 13-39t5-39q0-28-9.5-59T198 558q-15-20-41.5-40T93 490z"/><glyph unicode="‚" horiz-adv-x="328" d="M75-121q21 6 38 19t29 29.5Q154-56 159.5-37T164 0h-57q-8 12-13 24.5T89 51q0 12 2.5 22.5T98 93q4 9 9 17h111q8-20 13-39t5-39q0-28-9.5-59T198-82q-15-20-41.5-40T93-150z"/><glyph unicode="“" horiz-adv-x="535" d="M457 721q-21-6-38-19t-29-29.5Q378 656 372 637t-4-37h58q8-11 13-25t5-25q0-17-5-32.5T426 490H314q-16 37-18 71 0 57 21.5 95.5t53 62Q402 742 439 750zm-206 0q-21-6-38-19t-29-29.5Q172 656 166 637t-4-37h58q8-11 13-25t5-25q0-17-5-32.5T220 490H108q-16 37-18 71 0 57 21.5 95.5t53 62Q196 742 233 750z"/><glyph unicode="”" horiz-adv-x="535" d="M281 519q21 6 38 19t29 29.5q12 16.5 17.5 35.5t4.5 37h-57q-8 12-13 24.5t-5 26.5q0 12 2.5 22.5T304 733q4 9 9 17h111q8-20 13-39t5-39q0-28-9.5-59T404 558q-15-20-41.5-40T299 490zm-206 0q21 6 38 19t29 29.5q12 16.5 17.5 35.5t4.5 37h-57q-8 12-13 24.5T89 691q0 12 2.5 22.5T98 733q4 9 9 17h111q8-20 13-39t5-39q0-28-9.5-59T198 558q-15-20-41.5-40T93 490z"/><glyph unicode="„" horiz-adv-x="535" d="M281-121q21 6 38 19t29 29.5Q360-56 365.5-37T370 0h-57q-8 12-13 24.5T295 51q0 12 2.5 22.5T304 93q4 9 9 17h111q8-20 13-39t5-39q0-28-9.5-59T404-82q-15-20-41.5-40T299-150zm-206 0q21 6 38 19t29 29.5Q154-56 159.5-37T164 0h-57q-8 12-13 24.5T89 51q0 12 2.5 22.5T98 93q4 9 9 17h111q8-20 13-39t5-39q0-28-9.5-59T198-82q-15-20-41.5-40T93-150z"/><glyph unicode="†" horiz-adv-x="549" d="M35 414v101h25l195-34-42 195v24h123v-24l-42-195 195 34h25V414h-28l-192 35 36-122v-22l-42-505h-27l-44 506v21l38 122-195-35z"/><glyph unicode="‡" horiz-adv-x="549" d="M217 265l38 184-196-35H35v101h24l196-34-42 195v24h123v-24l-43-195 197 34h24V414h-27l-194 35 37-184v-21L293 59l194 35h27V-7h-24L293 27l43-195v-24H213v24l42 195L59-7H35V94h24l196-35-38 186z"/><glyph unicode="•" horiz-adv-x="514" d="M98 311q0 31 12.5 57.5t34 45q21.5 18.5 50.5 29t62 10.5q33 0 62-9.5t50-28q21-18.5 33.5-45T415 311q0-33-12.5-59.5T369 207q-21-18-50-27.5t-62-9.5q-33 0-62 9.5T144.5 207q-21.5 18-34 44.5T98 311z"/><glyph unicode="…" horiz-adv-x="997" d="M762 58q0 31 21 49t56 18q35 0 57-18t22-49q0-30-22-48T839-8q-35 0-56 18t-21 48zm-341 0q0 31 21 49t56 18q35 0 57-18t22-49q0-30-22-48T498-8q-35 0-56 18t-21 48zM80 58q0 31 21 49t56 18q35 0 57-18t22-49q0-30-22-48T157-8q-35 0-56 18T80 58z"/><glyph unicode="‰" horiz-adv-x="1348" d="M757 714l41-38L141-10l-39 39zM58 542q0 39 15 70t41 53.5q26 22.5 62.5 34.5t78.5 12q43 0 79-10.5t62-31.5q26-21 40.5-53t14.5-75q0-39-14.5-70.5T396 418q-26-22-62-34t-79-12q-42 0-78.5 10.5T114 414q-26 21-41 53t-15 75zm96 0q0-60 26-96t75-36q100 0 100 132T255 674q-49 0-75-33t-26-99zm301-384q0 39 15 70t41 53.5q26 22.5 62.5 34.5t78.5 12q43 0 79-10.5t62-31.5q26-21 40.5-53t14.5-75q0-39-14.5-70.5T793 34q-26-22-62-34t-79-12q-42 0-78.5 10.5T511 30q-26 21-41 53t-15 75zm96 0q0-60 26-96t75-36q100 0 100 132T652 290q-49 0-75-33t-26-99zm347 0q0 39 15 70t41 53.5q26 22.5 62.5 34.5t78.5 12q43 0 79-10.5t62-31.5q26-21 40.5-53t14.5-75q0-39-14.5-70.5T1236 34q-26-22-62-34t-79-12q-42 0-78.5 10.5T954 30q-26 21-41 53t-15 75zm96 0q0-60 26-96t75-36q100 0 100 132t-100 132q-49 0-75-33t-26-99z"/><glyph unicode="‹" horiz-adv-x="316" d="M27 259l195 206 28-20-117-179L257 77l-26-20z"/><glyph unicode="›" horiz-adv-x="316" d="M88 57L59 78l125 183L65 446l29 19 196-205z"/><glyph unicode="⁄" horiz-adv-x="356" d="M484 714l41-38-657-686-39 39z"/><glyph unicode="₁" horiz-adv-x="480" d="M410-100H95v50h112v309l-99-37-22 45 121 53h91V-50h112z"/><glyph unicode="₂" horiz-adv-x="480" d="M143 153H79v124q17 11 33 20t35 16q19 7 43 10.5t58 3.5q43 0 72.5-9.5t47.5-25q18-15.5 26-36.5t8-45q0-33-18-66.5T333 79q-33-32-78.5-61.5T155-37v-6l35 6h172v68h64v-131H66v63q46 23 89 50t76.5 57q33.5 30 54 62t20.5 65q0 19-4 33.5t-14.5 25Q277 266 259 271.5t-46 5.5q-20 0-37.5-3T143 263z"/><glyph unicode="₃" horiz-adv-x="480" d="M231-60q27 0 46 7t31 18q12 11 17.5 24.5T331 16q0 42-26.5 60T217 94h-38v32l146 144H135v-94H71v144h334v-50L258 139v-1l35 4q27 0 51-7.5t42.5-22Q405 98 416 76t11-51q0-65-56.5-98.5T218-107q-46 0-89 16T57-56v72h90v-53q10-6 30-14.5t54-8.5z"/><glyph unicode="₄" horiz-adv-x="480" d="M433-100H193v50h89v69H32v50l250 251h84V69h95V19h-95v-69h67zM282 244L103 69h179z"/><glyph unicode="€" horiz-adv-x="600" d="M-23 440h78q11 71 41 122t75 84q45 33 102 48.5T395 710q37 0 65-2t50.5-6.5q22.5-4.5 41-11T589 676V504h-64v116l-20 23q-13 5-29.5 9t-48.5 4q-109 0-175.5-51T167 440h335l-17-56H160v-34-18.5q0-8.5 1-17.5h303l-17-56H168q9-49 29.5-88.5t53-68Q283 73 327 57.5T427 42q38 0 58 5.5T512 58l20 23v103h64V31q-17-12-41-19.5T505-1q-26-5-53-7t-50-2q-150 0-237.5 66T55 258h-95l17 56h72q-2 9-2 18.5v36q0 7.5 2 15.5h-89z"/><glyph unicode="₴" horiz-adv-x="600" d="M48 384v52h291q38 29 64 62.5t26 65.5q0 49-36 70.5T291 656q-25 0-52.5-4T198 642l-23-26v-86h-64v139q35 15 82 28t109 13q53 0 96.5-8.5t74-26.5q30.5-18 47.5-47t17-70q0-32-17.5-62.5T471 436h80v-52zm503-69v-52H260q-36-26-60-59.5T176 136q0-27 12-45t32-28.5Q240 52 265 48t52-4q38 0 68.5 5T425 60l20 25v99h64V37q-24-17-77-32T314-10q-125 0-185.5 39.5T68 147q0 31 15.5 61.5T124 263H48v52z"/><glyph unicode="₽" horiz-adv-x="600" d="M33 330h89v320H41v50h94q45 0 89.5 4t92.5 4q56 0 105-10t86-34q37-24 58-65t21-103q0-55-22-96t-62-68q-40-27-94.5-40.5T289 278h-55v-69h220v-52H234V50h110V0H41v50h81v107H33v52h89v69H33zm262 326q-27 0-37.5-1.5T234 650V330h55q84 0 129.5 38.5T464 496q0 81-39.5 120.5T295 656z"/><glyph unicode="ℓ" horiz-adv-x="479" d="M46 161l96 99v224q0 49 11 85.5t29.5 60.5q18.5 24 44 35.5T282 677q45 0 70.5-26t25.5-69q0-49-31-108-16-29-48-71.5T218 305V145q0-37 6-60.5T241 48q11-13 26.5-18t33.5-5q16 0 31 5t28.5 17.5Q374 60 386 82.5t24 58.5h26q-9-40-26.5-69.5T369 20q-39-34-89-34-43 0-77 23.5T154 73q-12 30-12 103v48l-81-80zm172 181q67 74 98.5 126t31.5 95q0 42-17.5 64.5T285 650q-14 0-26-6t-21-21q-9-15-14.5-40.5T218 518z"/><glyph unicode="№" horiz-adv-x="1268" d="M852 314h320v-65H852zM545 700h243v-56h-91V-12h-65L225 537l-44 77h-4l10-78V56h88V0H32v56h91v588H32v56h200l350-471 52-86h5l-6 86v415h-88zm270-158q0 39 15 70t41 53.5q26 22.5 62.5 34.5t78.5 12q43 0 79-10.5t62-31.5q26-21 40.5-53t14.5-75q0-39-14.5-70.5T1153 418q-26-22-62-34t-79-12q-42 0-78.5 10.5T871 414q-26 21-41 53t-15 75zm96 0q0-60 26-96t75-36q100 0 100 132t-100 132q-49 0-75-33t-26-99z"/><glyph unicode="™" horiz-adv-x="1124" d="M351 325H138v42h59v295h-95v-97H52v135h388V565h-50v97h-95V367h56zm296 0H484v42h55v283h-55v50h194l94-172h3l101 172h182v-50h-55V367h55v-42H860v42h51v286h-6L774 435h-41L604 653h-7V367h50z"/><glyph unicode="℮" horiz-adv-x="600" d="M169 249V95q59-54 131-54 28 0 55.5 8T406 71.5Q429 86 447 106t28 45l55-33Q480 48 430 16q-50-33-128-33-117 0-187 78-71 78-71 198 0 121 71 198 72 78 187 78 106 0 179-70 37-35 57-91t23-125zm264 45v133q-60 55-134 55-75 0-130-55V294z"/><glyph unicode="∂" horiz-adv-x="572" d="M45 194q0 58 20 118t58.5 109q38.5 49 95.5 79.5T351 531q24 0 44.5-4.5T429 514q0 33-6 66t-20.5 60Q388 667 364 683.5T303 700q-36 0-66-14t-56-27l-18 32q31 23 76.5 41T348 750q34 0 66-13t57.5-45.5q25.5-32.5 41-86T528 471q0-109-24-198.5t-65.5-153Q397 56 341 21.5T221-13q-83 0-129.5 52T45 194zm301 290q-61 0-99-31.5t-59.5-78Q166 328 158 273.5T150 173q0-63 23-101t68-38q36 0 70 29.5t60 85q26 55.5 41.5 135T428 463q-24 13-43 17t-39 4z"/><glyph unicode="∏" horiz-adv-x="900" d="M331-200H45v50h91v800H45v50h810v-50h-91v-800h91v-50H569v50h83v800H248v-800h83z"/><glyph unicode="∑" horiz-adv-x="710" d="M598 16h72v-216H44v67l328 397L39 657v43h610V508h-72v140H193l289-344-339-411h455z"/><glyph unicode="−" horiz-adv-x="600" d="M47 371h505v-54H47z"/><glyph unicode="∕" horiz-adv-x="386" d="M366 713l49-19L5-130l-48 20z"/><glyph unicode="√" horiz-adv-x="616" d="M289 194q9-23 12-38t6-38q10 43 21 78 0 1 11 31t28.5 78.5q17.5 48.5 40 110T453 542l124 344h263v-52H617L307-12h-33L74 448H0v52h166z"/><glyph unicode="∞" horiz-adv-x="804" d="M417 381q12 24 26 45.5t33.5 37.5q19.5 16 44.5 25t58 9q34 0 64.5-10t53-30.5q22.5-20.5 35.5-52t13-74.5q0-43-14.5-75.5t-39-54.5Q667 179 635 167.5T568 156q-31 0-56 7t-47 21q-22 14-42 36.5T382 274q-12-23-26.5-44.5t-33-38Q304 175 280 165.5t-56-9.5q-33 0-63 10t-52.5 30.5q-22.5 20.5-36 52T59 324q0 44 14.5 77t39 54.5q24.5 21.5 56 32T234 498q33 0 58.5-7t47-21q21.5-14 40-36.5T417 381zm21-30q21-29 37.5-51.5t33-37.5q16.5-15 34-22.5T583 232q21 0 41 6.5t35.5 17.5q15.5 11 24.5 27t9 36q0 27-10 46.5t-26.5 32Q640 410 617.5 416t-46.5 6q-48 0-79-18t-54-53zm-78-47q-20 31-37.5 53.5T288 394q-17 14-35 21t-40 7q-44 0-73-24t-29-66q0-26 9.5-44.5t26-31q16.5-12.5 39-18.5t47.5-6q48 0 76 19t51 53z"/><glyph unicode="∫" horiz-adv-x="431" d="M254 57q0-66-14.5-108t-40-67q-25.5-25-59-34.5T68-162q-8 0-21 .5t-27.5 2q-14.5 1.5-28 4T-31-149v122h64v-81q2 0 4.5-.5t4.5-.5q32 0 52.5 10.5T127-69q12 19 17 46.5t5 60.5q0 85-4 155.5t-8.5 131q-4.5 60.5-8 114.5T125 544q0 102 45.5 154T310 750q9 0 22-1t27.5-2.5q14.5-1.5 28-4T411 737V615h-64v82q-27 0-49-4t-37-18q-15-14-23-40.5t-8-70.5v-6.5q0-4.5 1-20t2-46.5q1-31 4-86.5t7-140.5 10-207z"/><glyph unicode="≈" horiz-adv-x="600" d="M61 412q41 54 82 70.5t76 16.5q29 0 55.5-10.5T327 465q26-13 52-23.5t54-10.5q21 0 42.5 7.5T520 465l19-32q-32-42-65.5-54.5T408 366q-29 0-56.5 10.5T297 400q-27 13-54 23.5T189 434q-25 0-49.5-10.5T89 382zm0-162q41 54 82 70.5t76 16.5q29 0 55.5-10.5T327 303q26-13 52-23.5t54-10.5q21 0 42.5 7.5T520 303l19-32q-32-42-65.5-54.5T408 204q-29 0-56.5 10.5T297 238q-27 13-54 23.5T189 272q-25 0-49.5-10.5T89 220z"/><glyph unicode="≠" horiz-adv-x="600" d="M47 452h268l92 183 48-19-83-164h180v-55H346l-53-106h259v-55H266L169 40l-47 20 86 176H47v55h188l54 106H47z"/><glyph unicode="≤" horiz-adv-x="600" d="M83 319L519 93l-29-47L53 271zM52 424v31l434 235 30-59-354-186 357-186-37-56z"/><glyph unicode="≥" horiz-adv-x="600" d="M87 91l430 234 33-47L119 44zm464 378v-31L119 203l-33 55 354 194L86 635l37 55z"/><glyph unicode="◊" horiz-adv-x="572" d="M300-12h-30L39 342l231 370h30l234-365zm23 156l125 193-133 211-31 68h-2l-32-70-124-193 132-211 33-68h1z"/><glyph unicode="Ⱨ" horiz-adv-x="825" d="M502 0v56h83v275H235V56h83V0H32v56h91v588H32v56h286v-56h-83V387h350v257h-83v56h286v-56h-91V56h111v-218h-69v140L719 0z"/><glyph unicode="ⱨ" horiz-adv-x="669" d="M397 0v50h66v246q0 83-22 127.5T363 468q-30 0-56-10t-46-26q-20-16-34.5-35.5T205 358V50h66V0H26v50h74v650H15v50h190V419h1q23 49 72.5 82.5T397 535q39 0 71-9.5t54-34.5q22-25 34-67t12-107V50h95v-200h-64v130L579 0z"/><glyph unicode="" horiz-adv-x="0" d="M-270 914l123-33v-40l-256-72-13 24z"/><glyph unicode="" horiz-adv-x="462" d="M402 890q-9-26-25.5-50T338 798q-22-18-48.5-28.5T235 759q-31 0-59.5 10T124 797q-23 18-40 42.5T60 892l47 15q8-12 23-22.5t33-18q18-7.5 37-11.5t36-4q36 0 71.5 11.5T366 904z"/><glyph unicode="" horiz-adv-x="325" d="M131-64q68-2 101-18.5t33-52.5q0-30-20-49t-50.5-29.5Q164-224 128-228t-68-4v33q22 1 40.5 3.5T133-188q14 5 22 13.5t8 22.5q0 27-25 35t-75 10L107 0h57z"/><glyph unicode="" horiz-adv-x="434" d="M76 761l-16 20 142 133h31l141-130-18-22-142 56z"/><glyph unicode="" horiz-adv-x="296" d="M60-236q42 11 67.5 30.5T153-156v7H93q-10 12-14 25t-4 27q0 30 18 56h126q17-34 17-69 0-32-14-59t-36.5-48q-22.5-21-52-35.5T74-273z"/><glyph unicode="" horiz-adv-x="281" d="M60 462q21 6 38 19t29 29.5q12 16.5 17.5 35.5t4.5 37H92q-8 12-13 24.5T74 634q0 12 2.5 22.5T83 676q4 9 9 17h111q8-20 13-39t5-39q0-28-9.5-59T183 501q-15-20-41.5-40T78 433z"/><glyph unicode="" horiz-adv-x="281" d="M60 821q0 29 23 44t57 15q35 0 58-15t23-44q0-29-23-44t-58-15q-34 0-57 15t-23 44z"/><glyph unicode="" horiz-adv-x="374" d="M60 788q0 41 38 63.5t93 22.5q22 0 44-5t39.5-15q17.5-10 28.5-25.5t11-37.5q0-20-10-35t-27.5-26q-17.5-11-40-16.5T190 708q-58 0-94 21t-36 59zm75 0q0-17 14.5-27.5T184 750q29 0 42 10t13 27q0 26-15 35.5t-36 9.5q-27 0-40-12.5T135 788z"/><glyph unicode="" horiz-adv-x="478" d="M418 843q-36-38-65.5-53T294 775q-21 0-39.5 6.5t-36.5 14q-18 7.5-35 14t-35 6.5q-14 0-31-6.5T82 786l-22 36q43 42 76 57t62 15q21 0 39-6t35-13.5q17-7.5 33.5-13.5t34.5-6q14 0 30.5 5t33.5 19z"/><glyph unicode="" horiz-adv-x="371" d="M311 20Q276 9 247.5-3t-49-27Q178-45 167-64.5T156-110q0-27 20-37.5t53-10.5q34 0 63 6v-31q-16-11-41-19.5t-62-8.5q-26 0-49.5 5t-41 15q-17.5 10-28 25.5T60-128q0 30 16 54.5T118.5-31q26.5 18 61 30.5T251 20z"/><glyph unicode="" horiz-adv-x="690" d="M32 0v56h91v588H32v56h131q21 0 40 1t40 2q21 1 45.5 2t54.5 1q44 0 90-6.5t83-24.5q37-18 60.5-50.5T600 540q0-27-9.5-53t-28-48Q544 417 516 400t-65-25v-4q33-5 66-17t59.5-32.5Q603 301 619 271t16-72q0-54-26.5-93T539 42q-43-25-97.5-36.5T331-6q-39 0-87.5 3T150 0zm307 50q39 0 72.5 10.5T469 90q24 19 37.5 45.5T520 194q0 40-16.5 66.5t-44 42Q432 318 395 324t-78 6h-82V59q15-4 36.5-6.5T339 50zm-50 332q20 0 44.5 1.5T375 387q51 16 82 51.5t31 83.5q0 66-42 97t-114 31q-34 0-57.5-1.5T235 645V382zm117 532l123-33v-40l-256-72-13 24z"/><glyph unicode="" horiz-adv-x="614" d="M85 700H0v50h190V422h3q19 53 64 83t101 30q102 0 156.5-64T569 272q0-139-75.5-210.5T278-10q-28 0-56.5 3.5t-55 9Q140 8 119 15T85 30zm240-232q-54 0-86.5-32.5T190 352V61q20-11 48.5-17.5T300 37q74 0 115 60t41 175q0 41-7 77t-23 62.5Q410 438 385.5 453T325 468zm62 282h126v-41L317 592l-28 23z"/><glyph unicode="" horiz-adv-x="623" d="M235 56h107V0H32v56h91v588H32v56h541V536h-64v86l-20 22H235V370h181l15 15v48h64V250h-64v48l-15 16H235zm191 858l123-33v-40l-256-72-13 24z"/><glyph unicode="" horiz-adv-x="385" d="M347 750q35 0 62.5-6t41.5-11v-97h-96v64q-33 0-57.5-6T257 671q-16-17-24-46.5t-8-77.5v-22h128v-64H225V50h107V0H46v50h74v411H35v64h85v16q0 101 60.5 155T347 750zm6 185l123-33v-40l-256-72-13 24z"/><glyph unicode="" horiz-adv-x="750" d="M135 512H22v56h113v76H54v56h297v-56H247v-76h229v-56H247V390q31 16 81 30.5T443 435q46 0 85.5-8t68-29q28.5-21 44.5-57t16-92V56h81V0H472v56h73v170q0 70-31 111.5T409 379q-47 0-89-12t-73-29V56h80V0H54v56h81z"/><glyph unicode="" horiz-adv-x="661" d="M5 653h95v47H15v50h190v-97h176v-55H205V419h1q23 49 72.5 82.5T397 535q39 0 71-9.5t54-34.5q22-25 34-67t12-107V50h74V0H397v50h66v246q0 83-22 127.5T363 468q-30 0-56-10t-46-26q-20-16-34.5-35.5T205 358V50h66V0H26v50h74v548H5z"/><glyph unicode="" horiz-adv-x="748" d="M625 38q0-71-18.5-116.5t-45.5-73Q534-179 503-192t-56-18l-23 46q18 9 34 20.5t28 32Q498-91 505.5-59t7.5 83v286q-31-16-81-30.5T317 265q-47 0-86 8t-67.5 29Q135 323 119 359t-16 92v193H12v56h276v-56h-73V474q0-70 31-111.5T351 321q47 0 89 12t73 29v282h-80v56h283v-56h-91z"/><glyph unicode="" horiz-adv-x="628" d="M16 525h244v-50h-65V345q0-48 22-77.5t74-29.5q31 0 60.5 9t55.5 24v204h-65v50h244v-50h-74V50q-2-71-23-118t-48.5-76q-27.5-29-55-43T342-206l-29 47q13 6 28.5 17.5t30 33Q386-87 396-53.5T407 31v207q-27-27-64.5-44.5T250 176q-76 0-118 40T90 324v151H16z"/><glyph unicode="" horiz-adv-x="742" d="M584 644h-93v56h251v-56h-81L446 201q-31-63-60.5-114.5T326 0h-95v123h111q16 24 23 46L85 644H0v56h300v-56h-90l183-326 23-64h2l23 66zm-98 270l123-33v-40l-256-72-13 24z"/><glyph unicode="" horiz-adv-x="568" d="M47 475h-59v50h258v-50h-84l136-332 20-76h5l19 77 107 331h-61v50h192v-50h-64L352 0q-14-41-30.5-75.5t-32-61q-15.5-26.5-30-43T235-200H134v90h102q7 8 13 16t12 20q6 12 13 29.5T290 0h-37zm312 275h126v-41L289 592l-28 23z"/><glyph unicode="" horiz-adv-x="686" d="M202 328v64h305q-18 256-264 256-33 0-57-6t-35-13l-14-20v-92H73v154q36 23 85.5 32t97.5 9q88 0 157-20.5t117-64Q578 584 603.5 517T629 358q0-95-29.5-164.5T520.5 78Q471 32 405 10T267-12q-36 0-65.5 2T148-3.5q-24 4.5-44 11T65 23v173h64V91l15-21q14-7 42.5-12.5T242 52q50 0 97.5 15t84.5 48q37 33 59.5 85.5T507 328zm-2 493q0 29 23 44t57 15q35 0 58-15t23-44q0-29-23-44t-58-15q-34 0-57 15t-23 44z"/><glyph unicode="" horiz-adv-x="552" d="M241-10q-58 0-100 18.5T70 53v100h64V85l15-20q11-6 32.5-13.5T238 44q75 0 115.5 51.5T394 237H170v54h223q-2 56-14 93t-33 59.5Q325 466 296 475t-63 9q-34 0-50-4t-25-8l-17-20v-97H77v143q15 8 31 15t36.5 12.5q20.5 5.5 46.5 9t62 3.5q54 0 100-14t80.5-45q34.5-31 54-82T507 273q0-75-23-128.5t-60.5-88Q386 22 338.5 6T241-10zm-58 697q0 29 20.5 46t52.5 17q34 0 53.5-17t19.5-46q0-29-19.5-46T256 624q-32 0-52.5 17T183 687z"/><glyph unicode="" horiz-adv-x="611" d="M305-113v8q0 29-19 52.5T236-12q-54 2-100.5 13T55 27v167h64V82l15-19q9-5 24.5-8.5t33-6Q209 46 227 45t32-1q41 0 74.5 11t57 31q23.5 20 36.5 47.5t13 60.5q0 39-13.5 65t-36 41.5Q368 316 338 322t-63 6h-87v64h127q51 16 78 49t27 81q0 65-40.5 99.5T265 656q-33 0-64.5-6T156 636l-13-19v-99H79v153q18 12 41 19.5t48.5 12.5q25.5 5 51.5 7t50 2q46 0 92.5-7t84-26.5q37.5-19.5 61.5-53t24-85.5q0-51-33.5-96T393 375v-4q34-5 63.5-17.5t51.5-33q22-20.5 34.5-50.5t12.5-71q0-49-19-86t-52-63q-33-26-77.5-41T311-10q31-26 49.5-61t18.5-80q0-38-16-79H231q-8 14-13.5 29t-5.5 32q0 30 19 56z"/><glyph unicode="" horiz-adv-x="532" d="M244 44q29 0 51 9t37 24q15 15 22.5 34t7.5 38q0 46-23 64.5T276 238H171v54h113q10 4 21 12.5t20.5 21.5q9.5 13 15.5 30t6 39q0 50-29 68t-78 18q-25 0-44-2t-25-5l-19-22v-87H88v134q23 12 61.5 24T259 535q93 0 143-29.5t50-90.5q0-26-11-47t-29-37.5q-18-16.5-40-28T328 285q31-3 57.5-12.5T432 247q20-16 31.5-39t11.5-52q0-78-54.5-119.5T274-10q25-23 40-53t15-67q0-17-3-34.5T315-200H198q-8 12-12.5 25.5T181-147q0 27 17 51h65v8q0 25-16.5 45.5T204-8q-44 6-77.5 23T70 53v100h64V84l17-22q11-7 33-12.5t60-5.5z"/><glyph unicode="" horiz-adv-x="698" d="M569 184h64V27q-31-17-82-28T450-12h-7l-27-52q68-2 101-18.5t33-52.5q0-30-20-49t-50.5-29.5Q449-224 413-228t-68-4v33q22 1 40.5 3.5T418-188q14 5 22 13.5t8 22.5q0 27-25 35t-75 10l40 98q-78 6-139.5 30.5t-104 69q-42.5 44.5-65 109T57 350q0 98 30 166.5t81 112Q219 672 286 692t141 20q36 0 65-2.5t52.5-7.5q23.5-5 43.5-12t39-15V504h-64v105l-14 20q-11 5-34.5 12t-75.5 7q-54 0-101-17t-81.5-53Q222 542 202 485.5T182 350q0-143 72.5-220.5T458 52q36 0 60.5 5.5T555 72l14 19z"/><glyph unicode="" horiz-adv-x="523" d="M482 64q-21-29-66-52T311-11h-4l-23-50q63-2 92-17t29-49q0-32-17.5-51T343-207.5Q316-218 283-221t-64-3v32q21 1 38.5 3t29.5 7q12 5 18.5 14t6.5 25q0 26-23 32t-69 10l38 93Q150 6 97.5 78T45 262q0 133 70.5 203T307 535q55 0 91-7t66-22V376h-90v96q-15 9-60 9-38 0-67-11t-49-36q-20-25-30-67t-10-103q0-40 11-76.5t33-64Q224 96 257.5 80T336 64q24 0 42.5 3.5t32.5 9Q425 82 436 89t21 15z"/><glyph unicode="" horiz-adv-x="755" d="M245 0H0v56h78l259 644h106L680 56h75V0H469v56h89l-65 176H227L159 56h86zm5 288h226l-82 231-25 106h-4l-29-108zm-36 499v64h340v-64z"/><glyph unicode="" horiz-adv-x="569" d="M464 139q0-23 1-46.5t3-42.5h66V0H377l-10 95h-5q-5-20-18.5-39t-34-34Q289 7 261-2t-62-9q-34 0-62.5 10T87 27Q66 45 54.5 70.5T43 128q0 49 20.5 81t60.5 50.5Q164 278 224 286t140 9q2 16 2 30.5V354q0 62-21 94.5T270 481q-20 0-43-2t-42-12v-92H95v111q36 19 85 34t115 15q57 0 91.5-14.5t53-38q18.5-23.5 24-53T469 371q0-63-2.5-120.5T464 139zM245 56q24 0 43 7.5t33.5 19Q336 94 346.5 108t17.5 27v119q-65 0-105.5-8.5T195 223q-23-14-31.5-33.5T155 148q0-45 24-68.5T245 56zM138 668v55h288v-55z"/><glyph unicode="" horiz-adv-x="645" d="M564 700V536h-64v86l-20 22H235V385h169l15 15v42h64V271h-64v42l-15 16H235V56h262l20 20v98h64V0H32v56h91v588H32v56zm-413 87v64h340v-64z"/><glyph unicode="" horiz-adv-x="566" d="M499 69q-26-37-73.5-58.5T315-11q-66 0-116.5 19.5t-84.5 55q-34 35.5-51.5 86T45 262q0 134 67 203.5T300 535q40 0 78.5-10t68.5-33q30-23 48.5-61t18.5-94q0-17-2-36t-6-40H158q0-44 11.5-80t35-62Q228 93 263 78.5T346 64q39 0 72.5 13t53.5 30zM296 488q-31 0-54.5-9T201 449q-17-21-27-55.5T161 308h241q1 9 1.5 18.5t.5 17.5q0 66-26.5 105T296 488zM156 668v55h288v-55z"/><glyph unicode="" horiz-adv-x="645" d="M564 700V536h-64v86l-20 22H235V385h169l15 15v42h64V271h-64v42l-15 16H235V56h262l20 20v98h64V0H32v56h91v588H32v56zm-434 96q0 29 18.5 43.5T195 854q29 0 48-14.5t19-43.5q0-26-19-40t-48-14q-28 0-46.5 14T130 796zm252 0q0 29 19 43.5t46 14.5q29 0 48-14.5t19-43.5q0-26-19-40t-48-14q-27 0-46 14t-19 40zm-232 75v64h340v-64z"/><glyph unicode="" horiz-adv-x="566" d="M499 69q-26-37-73.5-58.5T315-11q-66 0-116.5 19.5t-84.5 55q-34 35.5-51.5 86T45 262q0 134 67 203.5T300 535q40 0 78.5-10t68.5-33q30-23 48.5-61t18.5-94q0-17-2-36t-6-40H158q0-44 11.5-80t35-62Q228 93 263 78.5T346 64q39 0 72.5 13t53.5 30zM296 488q-31 0-54.5-9T201 449q-17-21-27-55.5T161 308h241q1 9 1.5 18.5t.5 17.5q0 66-26.5 105T296 488zM108 646q0 29 17.5 46.5T172 710q29 0 46.5-17.5T236 646q0-27-17.5-44.5T172 584q-29 0-46.5 17.5T108 646zm246 0q0 29 18.5 46.5T419 710q29 0 46-17.5t17-46.5q0-27-17-44.5T419 584q-28 0-46.5 17.5T354 646zM126 767v64h340v-64z"/><glyph unicode="" horiz-adv-x="645" d="M564 700V536h-64v86l-20 22H235V385h169l15 15v42h64V271h-64v42l-15 16H235V56h262l20 20v98h64V0H32v56h91v588H32v56zm-435 96q0 29 18.5 43.5T194 854q29 0 48-14.5t19-43.5q0-26-19-40t-48-14q-28 0-46.5 14T129 796zm252 0q0 29 19 43.5t46 14.5q29 0 48-14.5t19-43.5q0-26-19-40t-48-14q-27 0-46 14t-19 40zm-60 68q-103 0-152 34t-49 104h116v-79q14-7 37-10.5t49-3.5q19 0 45 3t41 8v82h111q0-69-46.5-103.5T321 864z"/><glyph unicode="" horiz-adv-x="566" d="M499 69q-26-37-73.5-58.5T315-11q-66 0-116.5 19.5t-84.5 55q-34 35.5-51.5 86T45 262q0 134 67 203.5T300 535q40 0 78.5-10t68.5-33q30-23 48.5-61t18.5-94q0-17-2-36t-6-40H158q0-44 11.5-80t35-62Q228 93 263 78.5T346 64q39 0 72.5 13t53.5 30zM296 488q-31 0-54.5-9T201 449q-17-21-27-55.5T161 308h241q1 9 1.5 18.5t.5 17.5q0 66-26.5 105T296 488zM98 646q0 29 17.5 46.5T162 710q29 0 46.5-17.5T226 646q0-27-17.5-44.5T162 584q-29 0-46.5 17.5T98 646zm246 0q0 29 18.5 46.5T409 710q29 0 46-17.5t17-46.5q0-27-17-44.5T409 584q-28 0-46.5 17.5T344 646zm-56 97q-103 0-152 34T87 881h116v-79q14-7 37-10.5t49-3.5q19 0 45 3t41 8v82h111q0-69-46.5-103.5T288 743z"/><glyph unicode="" horiz-adv-x="611" d="M261-12q-62 0-115 11T55 27v167h64V82l15-19q9-5 24.5-8.5t33-6Q209 46 227 45t32-1q41 0 74.5 11t57 31q23.5 20 36.5 47.5t13 60.5q0 39-13.5 65t-36 41.5Q368 316 338 322t-63 6h-87v64h127q51 16 78 49t27 81q0 65-40.5 99.5T265 656q-33 0-64.5-6T156 636l-13-19v-99H79v153q18 12 41 19.5t48.5 12.5q25.5 5 51.5 7t50 2q46 0 92.5-7t84-26.5q37.5-19.5 61.5-53t24-85.5q0-51-33.5-96T393 375v-4q34-5 63.5-17.5t51.5-33q22-20.5 34.5-50.5t12.5-71q0-54-24-94t-64.5-66Q426 13 373 .5T261-12zm152 931l28-18-142-142h-31L127 898l28 21 133-55z"/><glyph unicode="" horiz-adv-x="532" d="M244 44q29 0 51 9t37 24q15 15 22.5 34t7.5 38q0 46-23 64.5T276 238H171v54h113q10 4 21 12.5t20.5 21.5q9.5 13 15.5 30t6 39q0 50-29 68t-78 18q-25 0-44-2t-25-5l-19-22v-87H88v134q23 12 61.5 24T259 535q93 0 143-29.5t50-90.5q0-26-11-47t-29-37.5q-18-16.5-40-28T328 285q31-3 57.5-12.5T432 247q20-16 31.5-39t11.5-52q0-42-16.5-73T412 31.5Q382 11 340 .5T246-10q-58 0-102.5 18.5T70 53v100h64V84l17-22q11-7 33-12.5t60-5.5zm136 762l32-17-139-195h-29L107 788l40 18 119-110z"/><glyph unicode="" horiz-adv-x="830" d="M57 350q0 78 24 144.5t69.5 115Q196 658 262.5 685T414 712q85 0 152-27t113-75.5q46-48.5 70-115T773 350q0-78-24-144.5t-70-115Q633 42 566 15T414-12q-85 0-151.5 27t-112 75.5Q105 139 81 205.5T57 350zm125 0q0-64 14.5-120t44.5-97q30-41 75.5-65T424 44q57 0 99 24t69.5 65q27.5 41 41.5 97t14 120q0 64-14.5 120T589 567q-30 41-75.5 65T405 656q-60 0-102.5-24T233 567q-27-41-39-97t-12-120zm63 437v64h340v-64z"/><glyph unicode="" horiz-adv-x="622" d="M45 262q0 66 19 117t53.5 85.5q34.5 34.5 84 52.5T311 535q70 0 120.5-19.5t82.5-55q32-35.5 47.5-86T577 262q0-66-18.5-116.5t-53-85Q471 26 421.5 8T311-10q-68 0-118 19.5t-83 55Q77 100 61 150T45 262zm113 0q0-48 9-89t29.5-71q20.5-30 53-47.5T329 37q59 0 97 54t38 171q0 48-9 89.5t-28.5 72Q407 454 376.5 471T302 488q-66 0-105-54t-39-172zm9 406v55h288v-55z"/><glyph unicode="" horiz-adv-x="830" d="M57 350q0 78 24 144.5t69.5 115Q196 658 262.5 685T414 712q85 0 152-27t113-75.5q46-48.5 70-115T773 350q0-78-24-144.5t-70-115Q633 42 566 15T414-12q-85 0-151.5 27t-112 75.5Q105 139 81 205.5T57 350zm125 0q0-64 14.5-120t44.5-97q30-41 75.5-65T424 44q57 0 99 24t69.5 65q27.5 41 41.5 97t14 120q0 64-14.5 120T589 567q-30 41-75.5 65T405 656q-60 0-102.5-24T233 567q-27-41-39-97t-12-120zm235 393q-103 0-152 34t-49 104h116v-79q14-7 37-10.5t49-3.5q19 0 45 3t41 8v82h111q0-69-46.5-103.5T417 743z"/><glyph unicode="" horiz-adv-x="622" d="M45 262q0 66 19 117t53.5 85.5q34.5 34.5 84 52.5T311 535q70 0 120.5-19.5t82.5-55q32-35.5 47.5-86T577 262q0-66-18.5-116.5t-53-85Q471 26 421.5 8T311-10q-68 0-118 19.5t-83 55Q77 100 61 150T45 262zm113 0q0-48 9-89t29.5-71q20.5-30 53-47.5T329 37q59 0 97 54t38 171q0 48-9 89.5t-28.5 72Q407 454 376.5 471T302 488q-66 0-105-54t-39-172zm154 326q-36 0-68 6.5t-56.5 18q-24.5 11.5-41 26T124 670v58h114v-79q13-9 31-12.5t44-3.5q27 0 43.5 2.5T389 646v82h109v-58q-3-17-19-32t-41.5-26Q412 601 380 594.5t-68-6.5z"/><glyph unicode="" horiz-adv-x="830" d="M57 350q0 78 24 144.5t69.5 115Q196 658 262.5 685T414 712q85 0 152-27t113-75.5q46-48.5 70-115T773 350q0-78-24-144.5t-70-115Q633 42 566 15T414-12q-85 0-151.5 27t-112 75.5Q105 139 81 205.5T57 350zM424 44q54 0 95 21.5t69 59.5q28 38 43 89.5T648 326H182q3-60 19-111.5t46-89.5q30-38 74-59.5T424 44zm-19 612q-56 0-96.5-20.5T241 579q-27-36-41-85.5T183 387h464q-4 57-20.5 106.5T580 579q-30 36-73.5 56.5T405 656zm12 87q-103 0-152 34t-49 104h116v-79q14-7 37-10.5t49-3.5q19 0 45 3t41 8v82h111q0-69-46.5-103.5T417 743z"/><glyph unicode="" horiz-adv-x="622" d="M45 262q0 66 19 117t53.5 85.5q34.5 34.5 84 52.5T311 535q70 0 120.5-19.5t82.5-55q32-35.5 47.5-86T577 262q0-66-18.5-116.5t-53-85Q471 26 421.5 8T311-10q-68 0-118 19.5t-83 55Q77 100 61 150T45 262zm257 226q-62 0-100-46.5T159 294h305q-3 42-13.5 77.5t-30 61.5q-19.5 26-49 40.5T302 488zm28-451q56 0 93 48t41 153H158q1-43 11.5-80T201 94q21-27 52.5-42T330 37zm-18 551q-36 0-68 6.5t-56.5 18q-24.5 11.5-41 26T124 670v58h114v-79q13-9 31-12.5t44-3.5q27 0 43.5 2.5T389 646v82h109v-58q-3-17-19-32t-41.5-26Q412 601 380 594.5t-68-6.5z"/><glyph unicode="" horiz-adv-x="830" d="M57 350q0 78 24 144.5t69.5 115Q196 658 262.5 685T414 712q85 0 152-27t113-75.5q46-48.5 70-115T773 350q0-78-24-144.5t-70-115Q633 42 566 15T414-12q-85 0-151.5 27t-112 75.5Q105 139 81 205.5T57 350zM424 44q54 0 95 21.5t69 59.5q28 38 43 89.5T648 326H182q3-60 19-111.5t46-89.5q30-38 74-59.5T424 44zm-19 612q-56 0-96.5-20.5T241 579q-27-36-41-85.5T183 387h464q-4 57-20.5 106.5T580 579q-30 36-73.5 56.5T405 656zm12 208q-103 0-152 34t-49 104h116v-79q14-7 37-10.5t49-3.5q19 0 45 3t41 8v82h111q0-69-46.5-103.5T417 864zm-194-68q0 29 18.5 43.5T288 854q29 0 48-14.5t19-43.5q0-26-19-40t-48-14q-28 0-46.5 14T223 796zm252 0q0 29 19 43.5t46 14.5q29 0 48-14.5t19-43.5q0-26-19-40t-48-14q-27 0-46 14t-19 40z"/><glyph unicode="" horiz-adv-x="622" d="M45 262q0 66 19 117t53.5 85.5q34.5 34.5 84 52.5T311 535q70 0 120.5-19.5t82.5-55q32-35.5 47.5-86T577 262q0-66-18.5-116.5t-53-85Q471 26 421.5 8T311-10q-68 0-118 19.5t-83 55Q77 100 61 150T45 262zm257 226q-62 0-100-46.5T159 294h305q-3 42-13.5 77.5t-30 61.5q-19.5 26-49 40.5T302 488zm28-451q56 0 93 48t41 153H158q1-43 11.5-80T201 94q21-27 52.5-42T330 37zm-17 706q-103 0-152 34t-49 104h116v-79q14-7 37-10.5t49-3.5q19 0 45 3t41 8v82h111q0-69-46.5-103.5T313 743zm-189-97q0 29 17.5 46.5T188 710q29 0 46.5-17.5T252 646q0-27-17.5-44.5T188 584q-29 0-46.5 17.5T124 646zm246 0q0 29 18.5 46.5T435 710q29 0 46-17.5t17-46.5q0-27-17-44.5T435 584q-28 0-46.5 17.5T370 646z"/><glyph unicode="" horiz-adv-x="953" d="M32 644v56h302v-56h-99V417q22 3 50 5t51 2q55 0 105.5-9t89-32q38.5-23 61.5-63t23-102q0-59-25.5-100.5T522 49q-42-27-95.5-39.5T318-3q-5 0-21 .5t-37 1q-21 .5-43 1T178 0H32v56h91v588zm599 0v56h290v-56h-91V56h91V0H631v56h87v588zM310 368q-26 0-43.5-1.5T235 362V58q5-2 15.5-2.5T273 54q12-1 23-1h17q39 0 71.5 10t56 30.5q23.5 20.5 36.5 52t13 73.5q0 149-180 149zm4 419v64h340v-64z"/><glyph unicode="" horiz-adv-x="842" d="M222 312q18 2 42 5t69 3q85 0 135.5-37T519 167q0-42-16-73.5T458 40q-29-22-69.5-33T299-4q-30 0-69.5 2T147 0H43v50h74v425H43v50h246v-50h-67zm0-265q14-1 29-2.5t29-1.5q126 0 126 125 0 30-10 50t-26 32q-16 12-37.5 17.5T289 273q-15 0-32.5-1t-34.5-4zM799 0H554v50h66v425h-67v50h246v-50h-74V50h74zM277 668v55h288v-55z"/><glyph unicode="" horiz-adv-x="686" d="M202 328v64h305q-18 256-264 256-33 0-57-6t-35-13l-14-20v-92H73v154q36 23 85.5 32t97.5 9q88 0 157-20.5t117-64Q578 584 603.5 517T629 358q0-95-29.5-164.5T520.5 78Q471 32 405 10T267-12q-36 0-65.5 2T148-3.5q-24 4.5-44 11T65 23v173h64V91l15-21q14-7 42.5-12.5T242 52q50 0 97.5 15t84.5 48q37 33 59.5 85.5T507 328zm-81 459v64h340v-64z"/><glyph unicode="" horiz-adv-x="552" d="M241-10q-58 0-100 18.5T70 53v100h64V85l15-20q11-6 32.5-13.5T238 44q75 0 115.5 51.5T394 237H170v54h223q-2 56-14 93t-33 59.5Q325 466 296 475t-63 9q-34 0-50-4t-25-8l-17-20v-97H77v143q15 8 31 15t36.5 12.5q20.5 5.5 46.5 9t62 3.5q54 0 100-14t80.5-45q34.5-31 54-82T507 273q0-75-23-128.5t-60.5-88Q386 22 338.5 6T241-10zM117 668v55h288v-55z"/><glyph unicode="" horiz-adv-x="686" d="M202 328v64h305q-18 256-264 256-33 0-57-6t-35-13l-14-20v-92H73v154q36 23 85.5 32t97.5 9q88 0 157-20.5t117-64Q578 584 603.5 517T629 358q0-95-29.5-164.5T520.5 78Q471 32 405 10T267-12q-36 0-65.5 2T148-3.5q-24 4.5-44 11T65 23v173h64V91l15-21q14-7 42.5-12.5T242 52q50 0 97.5 15t84.5 48q37 33 59.5 85.5T507 328zm89 415q-103 0-152 34T90 881h116v-79q14-7 37-10.5t49-3.5q19 0 45 3t41 8v82h111q0-69-46.5-103.5T291 743z"/><glyph unicode="" horiz-adv-x="552" d="M241-10q-58 0-100 18.5T70 53v100h64V85l15-20q11-6 32.5-13.5T238 44q75 0 115.5 51.5T394 237H170v54h223q-2 56-14 93t-33 59.5Q325 466 296 475t-63 9q-34 0-50-4t-25-8l-17-20v-97H77v143q15 8 31 15t36.5 12.5q20.5 5.5 46.5 9t62 3.5q54 0 100-14t80.5-45q34.5-31 54-82T507 273q0-75-23-128.5t-60.5-88Q386 22 338.5 6T241-10zm21 598q-36 0-68 6.5t-56.5 18q-24.5 11.5-41 26T74 670v58h114v-79q13-9 31-12.5t44-3.5q27 0 43.5 2.5T339 646v82h109v-58q-3-17-19-32t-41.5-26Q362 601 330 594.5t-68-6.5z"/><glyph unicode="" horiz-adv-x="698" d="M569 184h64V27q-31-17-82-28T450-12q-92 0-165 21T161.5 74.5Q111 119 84 187T57 350q0 98 30 166.5t81 112Q219 672 286 692t141 20q36 0 65-2.5t52.5-7.5q23.5-5 43.5-12t39-15V504h-64v105l-14 20q-11 5-34.5 12t-75.5 7q-50 0-94.5-14.5t-78-45.5Q233 557 211 508.5T184 392h336v-64H182q6-133 78.5-204.5T458 52q36 0 60.5 5.5T555 72l14 19zM209 796q0 29 18.5 43.5T274 854q29 0 48-14.5t19-43.5q0-26-19-40t-48-14q-28 0-46.5 14T209 796zm252 0q0 29 19 43.5t46 14.5q29 0 48-14.5t19-43.5q0-26-19-40t-48-14q-27 0-46 14t-19 40z"/><glyph unicode="" horiz-adv-x="537" d="M363 237H159q4-36 18-67.5t38-55q24-23.5 56.5-37T346 64q24 0 42.5 3.5t32.5 9Q435 82 446 89t21 15l25-40q-21-29-66.5-52T318-11q-66 0-117 19.5t-85.5 55Q81 99 63 149.5T45 262q0 66 20 117t56 85.5q36 34.5 86 52.5t110 18q55 0 91-7t66-22V376h-64v81l-12 15q-8 5-29.5 7t-44.5 2q-36 0-65.5-9.5t-51-32Q186 417 173.5 381T158 291h205zM98 688q0 29 17.5 46.5T162 752q29 0 46.5-17.5T226 688q0-27-17.5-44.5T162 626q-29 0-46.5 17.5T98 688zm246 0q0 29 18.5 46.5T409 752q29 0 46-17.5t17-46.5q0-27-17-44.5T409 626q-28 0-46.5 17.5T344 688z"/><glyph unicode="" horiz-adv-x="710" d="M678 700v-56h-91V56h91V0H378v56h97v236H363L172 0H10v56h62l190 243q-35 8-65 24t-52.5 40.5Q122 388 109 421t-13 75q0 55 26 94.5t69.5 64.5q43.5 25 100 36.5T408 703q23 0 56.5-1.5T533 700zM398 344q20 0 41.5 1.5T475 350v292q-11 2-31 3.5t-37 1.5q-85 0-135.5-34.5T221 496q0-75 43.5-113.5T398 344zM234 787v64h340v-64z"/><glyph unicode="" horiz-adv-x="597" d="M71 371q0 35 12.5 64.5T122 486q26 21 67.5 33t99.5 12q13 0 37.5-1t51.5-2q27-1 52-2t40-1h84v-50h-74V50h74V0H309v50h66v166h-70L154 0H0v50h56l148 171q-23 4-46.5 15.5T115 267q-19 19-31.5 45T71 371zm304 107q-14 2-37 4t-37 2q-34 0-57-8t-37-22.5q-14-14.5-20-35t-6-45.5q0-51 40-83.5T346 257h29zM161 668v55h288v-55z"/><glyph unicode="" horiz-adv-x="710" d="M678 700v-56h-91V56h91V0H378v56h97v236H363L172 0H10v56h62l190 243q-35 8-65 24t-52.5 40.5Q122 388 109 421t-13 75q0 55 26 94.5t69.5 64.5q43.5 25 100 36.5T408 703q23 0 56.5-1.5T533 700zM398 344q20 0 41.5 1.5T475 350v292q-11 2-31 3.5t-37 1.5q-85 0-135.5-34.5T221 496q0-75 43.5-113.5T398 344zm-4 399q-103 0-152 34t-49 104h116v-79q14-7 37-10.5t49-3.5q19 0 45 3t41 8v82h111q0-69-46.5-103.5T394 743z"/><glyph unicode="" horiz-adv-x="597" d="M71 371q0 35 12.5 64.5T122 486q26 21 67.5 33t99.5 12q13 0 37.5-1t51.5-2q27-1 52-2t40-1h84v-50h-74V50h74V0H309v50h66v166h-70L154 0H0v50h56l148 171q-23 4-46.5 15.5T115 267q-19 19-31.5 45T71 371zm304 107q-14 2-37 4t-37 2q-34 0-57-8t-37-22.5q-14-14.5-20-35t-6-45.5q0-51 40-83.5T346 257h29zm-64 110q-36 0-68 6.5t-56.5 18q-24.5 11.5-41 26T123 670v58h114v-79q13-9 31-12.5t44-3.5q27 0 43.5 2.5T388 646v82h109v-58q-3-17-19-32t-41.5-26Q411 601 379 594.5t-68-6.5z"/><glyph unicode="" horiz-adv-x="1088" d="M32 644v56h288v-56h-85V387h132q4 69 27 128.5t64.5 103Q500 662 559.5 687T696 712q84 0 147-27t104.5-75.5q41.5-48.5 62.5-115t21-144.5q0-77-21-143.5t-63-115q-42-48.5-105-76T696-12q-83 0-144 25.5t-101.5 71Q410 130 389 193t-23 138H235V56h85V0H32v56h91v588zm455-294q0-65 11.5-121t37.5-97q26-41 68-64.5T706 44q56 0 94.5 24t62 65q23.5 41 33.5 97t10 120q0 64-11 120t-36.5 97Q833 608 791 632t-105 24q-60 0-98.5-24t-61-65q-22.5-41-31-97T487 350zM381 787v64h340v-64z"/><glyph unicode="" horiz-adv-x="886" d="M288 0H43v50h74v425H43v50h245v-50h-66V293h110q3 58 22 103.5t52 76q33 30.5 78.5 46.5T585 535q127 0 191.5-69.5T841 259q0-127-66-198.5T585-11q-54 0-99.5 14.5t-79 45Q373 79 353.5 126T332 239H222V50h66zm154 262q0-56 12-98.5t32.5-71Q507 64 534.5 50T592 36q72 0 104 59t32 167q0 115-35.5 170.5T580 488q-66 0-102-59.5T442 262zM300 668v55h288v-55z"/><glyph unicode="" horiz-adv-x="1088" d="M32 644v56h288v-56h-85V387h132q4 69 27 128.5t64.5 103Q500 662 559.5 687T696 712q84 0 147-27t104.5-75.5q41.5-48.5 62.5-115t21-144.5q0-77-21-143.5t-63-115q-42-48.5-105-76T696-12q-83 0-144 25.5t-101.5 71Q410 130 389 193t-23 138H235V56h85V0H32v56h91v588zm455-294q0-65 11.5-121t37.5-97q26-41 68-64.5T706 44q56 0 94.5 24t62 65q23.5 41 33.5 97t10 120q0 64-11 120t-36.5 97Q833 608 791 632t-105 24q-60 0-98.5-24t-61-65q-22.5-41-31-97T487 350zm75 393q-103 0-152 34t-49 104h116v-79q14-7 37-10.5t49-3.5q19 0 45 3t41 8v82h111q0-69-46.5-103.5T562 743z"/><glyph unicode="" horiz-adv-x="886" d="M288 0H43v50h74v425H43v50h245v-50h-66V293h110q3 58 22 103.5t52 76q33 30.5 78.5 46.5T585 535q127 0 191.5-69.5T841 259q0-127-66-198.5T585-11q-54 0-99.5 14.5t-79 45Q373 79 353.5 126T332 239H222V50h66zm154 262q0-56 12-98.5t32.5-71Q507 64 534.5 50T592 36q72 0 104 59t32 167q0 115-35.5 170.5T580 488q-66 0-102-59.5T442 262zm0 326q-36 0-68 6.5t-56.5 18q-24.5 11.5-41 26T254 670v58h114v-79q13-9 31-12.5t44-3.5q27 0 43.5 2.5T519 646v82h109v-58q-3-17-19-32t-41.5-26Q542 601 510 594.5t-68-6.5z"/></font>
</defs>
</svg>
