<svg xmlns="http://www.w3.org/2000/svg"><defs><font id="PTSans-Caption" horiz-adv-x="590"><font-face ascent="1018" descent="276"/><glyph horiz-adv-x="291"/><glyph horiz-adv-x="291"/><glyph unicode="!" horiz-adv-x="331" d="M133 700h100V357l-20-173h-60l-20 173zM115 51q0 29 18.5 46t48.5 17q30 0 48.5-17T249 51q0-27-18.5-45T182-12q-30 0-48.5 18T115 51z"/><glyph unicode="&quot;" horiz-adv-x="375" d="M98 700h92l-35-198H98zm130 0h92l-35-198h-57z"/><glyph unicode="#" horiz-adv-x="594" d="M305 221H192L150 57H69l42 164H26l17 72h87l32 124H81l17 72h83l40 154h81l-40-154h113l40 154h81l-40-154h83l-19-72h-83l-32-124h79l-19-72h-79L343 57h-80zm-94 72h113l32 124H243z"/><glyph unicode="$" horiz-adv-x="594" d="M263-13q-61 2-108 11.5T80 22l31 84q23-12 60.5-22.5T263 71v250q-33 14-65.5 30.5t-58 40q-25.5 23.5-41 56T83 526q0 78 45 125.5T263 710v90h79v-88q55-2 91-10t65-21v-82q-49 10-80 18t-76 11V399q34-15 68-32.5t61-41.5q27-24 43.5-56t16.5-77q0-83-48.5-134.5T342-8v-92h-79zm57 86q51 6 82 32.5t31 76.5q0 22-9 39t-24.5 30.5Q384 265 363.5 276T320 297zm-35 555q-58-5-81-31.5T181 533q0-40 30-64.5t74-44.5z"/><glyph unicode="%" horiz-adv-x="854" d="M74 542q0 44 13 76t36 53q23 21 54.5 31t68.5 10q37 0 68.5-9.5t55-29.5q23.5-20 36.5-52.5t13-78.5q0-46-13-78.5T369.5 411q-23.5-20-55-29.5T246 372q-37 0-68.5 9.5T123 411q-23 20-36 52.5T74 542zm88 0q0-54 21.5-79.5T246 437q40 0 62.5 23t22.5 82q0 60-22 82.5T246 647q-40 0-62-22.5T162 542zm311-372q0 44 13 76t36 53q23 21 54.5 31t68.5 10q37 0 68.5-9.5t55-29.5q23.5-20 36.5-52.5t13-78.5q0-46-13-78.5T768.5 39q-23.5-20-55-29.5T645 0q-37 0-68.5 9.5T522 39q-23 20-36 52.5T473 170zm88 0q0-54 21.5-79.5T645 65q40 0 62.5 23t22.5 82q0 60-22 82.5T645 275q-40 0-62-22.5T561 170zm143 543l58-48L190-13l-57 49z"/><glyph unicode="&amp;" horiz-adv-x="891" d="M125 189q0 40 15 75.5t40.5 67q25.5 31.5 59 57.5t70.5 46q-26 35-44.5 70.5T247 582q0 24 9 47.5t28.5 42q19.5 18.5 50.5 30t75 11.5q46 0 77.5-11t50.5-28.5q19-17.5 27-39.5t8-44q0-41-34.5-86T427 420q38-58 89-116t104-108q12 12 24.5 30t23.5 39q11 21 21 42.5t17 41.5l72-37q-6-17-18-40t-26.5-46.5Q719 202 704 180.5T676 144q22-19 39.5-32.5t33-23.5Q764 78 778 70t29-15l-56-68q-28 14-61.5 37T621 79q-20-18-43.5-34.5t-53-29Q495 3 459-5t-79-8q-52 0-98 13.5T201 40q-35 26-55.5 63.5T125 189zm438-53q-30 28-60.5 61T445 262.5Q418 295 394.5 325T354 378q-59-40-96.5-83.5T220 193q0-29 14-52.5t37.5-40q23.5-16.5 55-25T393 67q26 0 51.5 6t48 15.5q22.5 9.5 40.5 22t30 25.5zM342 580q0-28 12.5-55.5T388 468q56 32 78.5 58t22.5 46q0 32-16.5 50.5T414 641q-38 0-55-16.5T342 580z"/><glyph unicode="'" horiz-adv-x="244" d="M98 700h92l-35-198H98z"/><glyph unicode="(" horiz-adv-x="314" d="M249-220q-51 48-85.5 105.5T107 3.5Q85 64 75.5 125.5T66 243q0 55 9.5 116T107 481.5Q129 543 164.5 602T252 712l58-43q-43-50-72-103.5t-46-108q-17-54.5-24.5-109T160 243q0-48 8.5-103t27-110.5Q214-26 242.5-79t68.5-96z"/><glyph unicode=")" horiz-adv-x="314" d="M3-175q40 43 68.5 96t47 108.5Q137 85 145.5 140t8.5 103q0 51-7.5 105.5t-24.5 109q-17 54.5-46 108T4 669l58 43q52-51 87.5-110T207 481.5Q229 420 238.5 359t9.5-116q0-56-9.5-117.5T207 3.5q-22-60.5-56.5-118T65-220z"/><glyph unicode="*" horiz-adv-x="387" d="M144 724l28-44 19-59 21 58 27 45 54-30-29-47-50-49 74 14h53v-63h-51l-69 14 50-50 25-41-53-31-28 45-25 63-19-60-27-45-57 31 30 45 46 43-63-14H45v63h55l68-14-50 47-29 48z"/><glyph unicode="+" horiz-adv-x="554" d="M43 379h191v190h86V379h191v-84H320V104h-86v191H43z"/><glyph unicode="," horiz-adv-x="225" d="M59 47q0 26 19 42.5t46 16.5q35 0 57-23.5T203 17q0-39-11.5-67.5t-29.5-49Q144-120 122.5-132T80-150l-28 46q38 13 57.5 41.5T128-5q-27-8-48 6T59 47z"/><glyph unicode="-" horiz-adv-x="394" d="M64 332h266v-86H64z"/><glyph unicode="." horiz-adv-x="238" d="M52 51q0 29 18.5 46t48.5 17q30 0 48.5-17T186 51q0-27-18.5-45T119-12Q89-12 70.5 6T52 51z"/><glyph unicode="/" horiz-adv-x="396" d="M360 712l74-34L35-140l-73 36z"/><glyph unicode="0" horiz-adv-x="594" d="M44 350q0 175 64 269t189 94q132 0 193-93t61-270q0-174-65-268.5T296-13q-66 0-113.5 26t-78 73.5Q74 134 59 201T44 350zm98 0q0-61 9-112.5t27.5-89.5q18.5-38 48-59.5T297 67q81 0 118.5 70T453 350q0 61-8 112.5T418.5 552Q400 590 370 611.5T297 633q-81 0-118-71t-37-212z"/><glyph unicode="1" horiz-adv-x="594" d="M113 84h152v465l12 61-44-50-119-80-42 59 241 173h44V84h150V0H113z"/><glyph unicode="2" horiz-adv-x="594" d="M489 536q0-51-21-104.5T413.5 325q-33.5-53-75-105T255 120l-54-43v-4l72 11h233V0H65v36q24 23 57.5 56.5t70 74q36.5 40.5 72 85.5t63.5 91.5q28 46.5 45.5 91.5t17.5 85q0 47-29 78t-89 31q-42 0-81-16t-67-39l-41 67q41 33 93 52.5T292 713q93 0 145-48.5T489 536z"/><glyph unicode="3" horiz-adv-x="594" d="M255 69q37 0 68 10t53 28q22 18 34.5 43t12.5 55q0 66-44 98t-125 32h-81v38l153 208 52 44-74-9H94v84h395v-39L320 434l-40-29v-3l38 7q43-1 79.5-15t63.5-39.5q27-25.5 42-61t15-79.5q0-56-21-98t-57-71q-36-29-84-43.5T253-13q-49 0-90 7.5T92 15l25 82q26-12 60.5-20t77.5-8z"/><glyph unicode="4" horiz-adv-x="594" d="M576 211H448V0h-92v211H19v42l362 457h67V289h128zM356 492l9 80h-3l-37-65-148-179-53-47 75 8h157z"/><glyph unicode="5" horiz-adv-x="594" d="M106 90q25-9 53.5-14t72.5-5q75 0 123 36.5T403 215q0 69-48.5 103.5T220 353l-91-4v351h347v-88H217V431l47 2q54 0 97-15t73.5-42q30.5-27 47-66.5T498 220q0-57-21-100.5t-57.5-73Q383 17 334 2T229-13q-48 0-83.5 6T80 10l26 80z"/><glyph unicode="6" horiz-adv-x="594" d="M540 212q0-44-16-84.5t-46-72q-30-31.5-74-50T304-13q-54 0-98.5 17T129 53q-32 32-49.5 79T62 239q0 96 28 178.5T167.5 563q49.5 63 117 102T432 713l19-76q-60-8-109.5-35.5t-87-67Q217 495 193 446.5T161 348q9 13 23.5 26t34.5 23q20 10 45 16t54 6q51 0 92.5-14.5t70-41.5q28.5-27 44-65t15.5-86zm-95-7q0 66-36.5 100T299 339q-53 0-90.5-23T156 264q-2-13-2-20.5V226q0-29 9-57.5t28-51Q210 95 238.5 81T305 67q31 0 56.5 11t44 30q18.5 19 29 44t10.5 53z"/><glyph unicode="7" horiz-adv-x="594" d="M115 0l270 573 48 49-65-10H62v88h464v-29L211 0z"/><glyph unicode="8" horiz-adv-x="594" d="M217 360q-27 15-50.5 31.5t-41 37.5Q108 450 98 476t-10 59q0 38 15 70.5t43 56.5q28 24 68 37.5t90 13.5q46 0 83.5-12t64-34q26.5-22 41-51.5T507 551q0-57-28-100t-93-83q29-16 54.5-33.5t44-39.5q18.5-22 29-49t10.5-61q0-43-15.5-79T463 43.5Q433 17 389.5 2T291-13q-53 0-93.5 14.5t-69 39q-28.5 24.5-43 58T71 170q0 63 36 108t110 82zm62-31q-64-32-91-71.5T161 183q0-23 9-44t26-37q17-16 42-25.5t58-9.5q27 0 52 7.5T391.5 96q18.5 14 29.5 35.5t11 49.5q0 27-13 48.5t-34.5 39q-21.5 17.5-49 32T279 329zm45 66q46 33 69 66t23 71q0 24-9.5 42.5t-25 31.5Q366 619 345 626t-44 7q-29 0-51-8.5t-37.5-22Q197 589 189 572t-8-35q0-27 12-48t31.5-37.5q19.5-16.5 45.5-30t54-26.5z"/><glyph unicode="9" horiz-adv-x="594" d="M53 487q0 47 15.5 88.5t45.5 72q30 30.5 75 48T293 713q56 0 100.5-18t75.5-51q31-33 47.5-80T533 458q0-113-28.5-198t-79-143.5Q375 58 307.5 26T162-13l-20 75q63 7 113 30.5t86 60q36 36.5 59 83T432 336q-15-16-30.5-27t-34-17.5q-18.5-6.5-41-9T275 280q-44 0-84.5 14t-71 40Q89 360 71 398.5T53 487zm96 7q0-67 41-101.5T296 358q53 0 89.5 17t53.5 41q2 12 2 21v20q0 33-9 65t-27.5 57Q386 604 357 619.5T288 635q-66 0-102.5-37.5T149 494z"/><glyph unicode=":" horiz-adv-x="273" d="M99 445q0 29 18.5 46t48.5 17q30 0 48.5-17t18.5-46q0-27-18.5-45T166 382q-30 0-48.5 18T99 445zm0-394q0 29 18.5 46t48.5 17q30 0 48.5-17T233 51q0-27-18.5-45T166-12q-30 0-48.5 18T99 51z"/><glyph unicode=";" horiz-adv-x="277" d="M93 47q0 26 19 42.5t46 16.5q35 0 57-23.5T237 17q0-39-11.5-67.5t-29.5-49Q178-120 156.5-132T114-150l-28 46q38 13 57.5 41.5T162-5q-27-8-48 6T93 47zm5 398q0 29 18.5 46t48.5 17q30 0 48.5-17t18.5-46q0-27-18.5-45T165 382q-30 0-48.5 18T98 445z"/><glyph unicode="&lt;" horiz-adv-x="554" d="M44 300v38l419 236 42-72-256-144-100-37 99-32 262-143-41-70z"/><glyph unicode="=" horiz-adv-x="554" d="M43 465h468v-84H43zm0-172h468v-84H43z"/><glyph unicode="&gt;" horiz-adv-x="554" d="M510 348v-38L90 75l-41 72 256 144 100 37-99 32L44 503l40 71z"/><glyph unicode="?" horiz-adv-x="479" d="M160 184q-4 50 7.5 86t31.5 64q20 28 44.5 50t46 44q21.5 22 36 47t14.5 58q0 44-26.5 72T221 633q-40 0-81.5-15T69 586l-32 72q42 26 89 40.5T242 713q49 0 86-13t62-35.5q25-22.5 37.5-53T440 546q0-47-15-80.5T388 406q-22-26-48-48t-48-46.5Q270 287 255 257t-15-73zM138 51q0 29 18.5 46t48.5 17q30 0 48.5-17T272 51q0-27-18.5-45T205-12q-30 0-48.5 18T138 51z"/><glyph unicode="@" horiz-adv-x="1163" d="M770 490h42l-56-282q-12-63-8-93t40-30q36 0 71.5 17t63 48.5q27.5 31.5 45 76T985 326q0 79-29 139.5T876 567q-51 41-121.5 62T602 650q-89 0-166-31t-134-85.5q-57-54.5-90-129T179 242q0-87 29-157.5t83.5-120q54.5-49.5 132-76T597-138q32 0 71.5 7.5T741-109l23-75q-48-20-90-27t-92-7q-104 0-193 30.5T234-99Q168-41 130.5 43.5T93 236q0 112 41 203t111.5 155.5Q316 659 409 694.5T607 730q98 0 182.5-28.5t147-81q62.5-52.5 98-127T1070 326q0-62-24-119.5t-65.5-102Q939 60 884 33.5T767 7q-28 0-49.5 6.5t-35 22Q669 51 665 77t3 65h-4q-16-24-37-48t-46-43.5Q556 31 526.5 19T464 7q-26 0-49 11t-40.5 31.5Q357 70 347 98t-10 62q0 60 22.5 120T421 388q39 48 90.5 78T620 496q40 0 65-11.5t48-27.5zm-64-107q-18 19-36 27t-46 8q-42 0-77.5-23T485 336.5q-26-35.5-41-78T429 176q0-36 16.5-63.5T507 85q21 0 44 14t45.5 37q22.5 23 43 52t36.5 59z"/><glyph unicode="A" horiz-adv-x="645" d="M457 183H180L106 0H8l288 710h52L637 0H533zm-247 84h218l-81 199-27 107h-2l-27-109z"/><glyph unicode="B" horiz-adv-x="641" d="M559 538q0-26-8.5-51.5t-26-48Q507 416 480 399t-64-25v-4q32-4 62-16t53-33q23-21 37-51t14-71q0-54-25-93.5t-66-65Q450 15 398.5 3T295-9q-18 0-44 .5t-54.5 2q-28.5 1.5-57 4T89 5v689q41 7 96 11t118 4q43 0 88.5-7.5T474 675q37-19 61-52t24-85zM187 82q7-2 21-3t30.5-2q16.5-1 33-1.5T302 75q34 0 65.5 7t55.5 22q24 15 38.5 38t14.5 55q0 40-17.5 63.5t-45.5 36q-28 12.5-63 16t-69 3.5h-94zm55 312q19 0 44 1.5t42 3.5q25 7 47.5 17.5t39.5 25q17 14.5 27 34t10 44.5q0 34-13.5 54.5T403 606q-22 11-50 15t-57 4q-35 0-64.5-1.5T187 620V394z"/><glyph unicode="C" horiz-adv-x="624" d="M584 30Q551 6 500-3.5T392-13q-67 0-127.5 21.5T158 74.5q-46 44.5-73 113T58 350q0 98 30 167t78 112.5Q214 673 274 693t119 20q66 0 108-7t71-18l-22-86q-49 23-149 23-45 0-87.5-14.5t-76-47Q204 531 184 478.5T164 350q0-68 19-119.5t52.5-86q33.5-34.5 79-52T414 75q49 0 85 9t61 23z"/><glyph unicode="D" horiz-adv-x="715" d="M89 700q20 3 46.5 4.5t55 2.5q28.5 1 56 1.5t50.5.5q92 0 159.5-26.5t112-73.5Q613 562 635 497t22-142q0-70-20.5-135.5T571 103q-45-51-115.5-82T285-10q-17 0-45.5 1T181-7q-30 1-55.5 2.5T89-1zm211-79h-30q-16 0-32-1t-29-2q-13-1-20-2V82q5-1 19.5-1.5t30.5-1q16-.5 30-1t20-.5q75 0 125.5 23.5t81 62.5q30.5 39 43 88.5T551 355q0 45-12 92t-41 85.5Q469 571 421 596t-121 25z"/><glyph unicode="E" horiz-adv-x="585" d="M89 700h423v-86H189V401h295v-86H189V86h328V0H89z"/><glyph unicode="F" horiz-adv-x="565" d="M89 700h423v-86H189V391h300v-86H189V0H89z"/><glyph unicode="G" horiz-adv-x="668" d="M348 353h262V44q-18-14-43-24.5T513.5 2Q485-5 455-9t-59-4q-72 0-133.5 21.5T155.5 75Q110 120 84 188.5T58 350q0 97 31.5 166T171 629q50 44 111.5 64T405 713q66 0 109.5-7.5T587 687l-24-85q-52 23-150 23-45 0-89.5-14t-80-46.5Q208 532 186 479.5T164 350q0-71 18.5-123t51.5-86q33-34 78-50t98-16q33 0 63.5 6.5T527 100v177l-179 18z"/><glyph unicode="H" horiz-adv-x="733" d="M544 313H189V0H89v700h100V401h355v299h100V0H544z"/><glyph unicode="I" horiz-adv-x="398" d="M149 634H69v66h260v-66h-80V66h80V0H69v66h80z"/><glyph unicode="J" horiz-adv-x="325" d="M125 700h100V160q0-78-40.5-124T65-10q-10 0-23.5 1T14-5.5Q0-3-13 0t-22 7l19 83q28-12 67-12 45 0 59.5 29t14.5 80z"/><glyph unicode="K" horiz-adv-x="669" d="M238 318h-49V0H89v700h100V378l46 14 252 308h114L349 400l-47-34 55-40L635 0H509z"/><glyph unicode="L" horiz-adv-x="566" d="M547 0H89v700h100V88h358z"/><glyph unicode="M" horiz-adv-x="868" d="M679 451l11 112h-4l-43-97-195-310h-30L213 467l-41 95h-5l16-110V0H89v700h75l237-357 37-76h2l35 78 225 355h79V0H679z"/><glyph unicode="N" horiz-adv-x="735" d="M235 445l-60 98h-4l12-98V0H89v710h56l357-454 57-93h5l-12 93v444h94V-10h-56z"/><glyph unicode="O" horiz-adv-x="747" d="M58 350q0 86 21.5 153.5t62 114q40.5 46.5 99 71T373 713q79 0 138.5-26.5t99-74Q650 565 669.5 498T689 350q0-86-21.5-153.5T605 82.5q-41-46.5-99.5-71T373-13q-80 0-139 26.5t-98 74Q97 135 77.5 202T58 350zm106 0q0-57 12.5-107t38-88q25.5-38 65-60T373 73q97 0 153.5 67T583 350q0 56-12.5 106t-38 88q-25.5 38-65 60.5T373 627q-96 0-152.5-68T164 350z"/><glyph unicode="P" horiz-adv-x="614" d="M89 693q42 9 91.5 12.5T278 709q51 0 103.5-9t95.5-33q43-24 70.5-66.5T575 491q0-63-25-107.5T483.5 311q-41.5-28-95-41T278 257q-6 0-18.5.5t-26 1q-13.5.5-26 1.5t-18.5 2V0H89zm192-70q-27 0-52.5-1t-39.5-5V348q5-2 16.5-2.5t24-1.5q12.5-1 24-1H271q36 0 71 5.5t63.5 21.5q28.5 16 46 45t17.5 75q0 40-17 66t-44 41q-27 15-60.5 20.5T281 623z"/><glyph unicode="Q" horiz-adv-x="747" d="M771-181q-26-7-52-9.5t-52-2.5q-55 0-107.5 10.5t-101 23Q410-147 365-136.5T280-126q-25 0-49-6v86q30 6 60 6 45 0 90.5-10.5t92-22.5q46.5-12 96-22.5T673-106q23 0 47.5 2.5T771-95zM58 350q0 86 21.5 153.5t62 114q40.5 46.5 99 71T373 713q79 0 138.5-26.5t99-74Q650 565 669.5 498T689 350q0-86-21.5-153.5T605 82.5q-41-46.5-99.5-71T373-13q-80 0-139 26.5t-98 74Q97 135 77.5 202T58 350zm106 0q0-57 12.5-107t38-88q25.5-38 65-60T373 73q97 0 153.5 67T583 350q0 56-12.5 106t-38 88q-25.5 38-65 60.5T373 627q-96 0-152.5-68T164 350z"/><glyph unicode="R" horiz-adv-x="653" d="M89 693q21 4 46.5 7t51.5 5q26 2 52 3t49 1q50 0 96.5-10t82-33q35.5-23 57-60t21.5-91q0-42-13-76t-36-60q-23-26-54.5-43.5T373 309l52-35L613 0H498L290 295l-101 14V0H89zm202-70h-28.5q-14.5 0-28.5-1t-26-2q-12-1-19-3V375h82q36 0 66.5 7.5t53 23Q413 421 426 446t13 61q0 54-38 85t-110 31z"/><glyph unicode="S" horiz-adv-x="581" d="M433 184q0 41-27 65t-68 41.5q-41 17.5-88 33T162 363q-41 24-68 62t-27 99q0 85 62.5 137T308 713q67 0 123-10t88-26l-31-84q-25 13-75 23.5T303 627q-68 0-102-29t-34-67q0-39 27-63t68-42.5q41-18.5 88-35.5t88-42q41-25 68-61.5t27-93.5q0-47-18-85t-52-65q-34-27-82-41.5T272-13Q190-13 133.5-.5T48 26l33 87q25-13 75.5-26.5T268 73q35 0 65 6.5t52.5 20q22.5 13.5 35 34.5t12.5 50z"/><glyph unicode="T" horiz-adv-x="610" d="M591 612H355V0H255v612H19v88h572z"/><glyph unicode="U" horiz-adv-x="710" d="M527 700h94V243q0-65-18.5-112T550 52.5Q516 21 469.5 6T366-9Q231-9 160 49.5T89 223v477h100V261q0-102 44.5-142T365 79q84 0 123 44t39 141z"/><glyph unicode="V" horiz-adv-x="628" d="M296 234l26-109h2l27 111 180 464h100L341-10h-50L-3 700h110z"/><glyph unicode="W" horiz-adv-x="913" d="M247 246l16-117h2l18 119 155 452h50l156-454 18-117h2l19 119 124 452h98L692-10h-57L482 445l-21 106h-5l-20-107L283-10h-58L8 700h105z"/><glyph unicode="X" horiz-adv-x="678" d="M280 356L49 700h119l151-230 27-58 26 58 158 230h110L402 363 651 0H534L367 244l-31 61-28-61L137 0H27z"/><glyph unicode="Y" horiz-adv-x="617" d="M261 274L7 700h117l175-297 17-64h2l19 66 167 295h106L361 275V0H261z"/><glyph unicode="Z" horiz-adv-x="596" d="M39 88l377 484 49 40H39v88h518v-88L177 125l-47-37h427V0H39z"/><glyph unicode="[" horiz-adv-x="336" d="M89 700h206v-80H181v-770h114v-80H89z"/><glyph unicode="\" horiz-adv-x="421" d="M442-103l-76-37-402 816 76 36z"/><glyph unicode="]" horiz-adv-x="336" d="M247-230H41v80h114v770H41v80h206z"/><glyph unicode="^" horiz-adv-x="554" d="M266 710h38l188-280h-98l-85 132-26 69-32-70-100-131H61z"/><glyph unicode="_" horiz-adv-x="452" d="M0-131h452v-78H0z"/><glyph unicode="`" horiz-adv-x="301" d="M241 570h-54L60 697v23h110z"/><glyph unicode="a" horiz-adv-x="582" d="M82 492q90 43 223 43 60 0 96.5-15.5T458 480q20-24 26.5-53.5T491 368q0-55-4-110.5T483 137q0-38 3.5-73.5T498-2h-67l-25 80h-10q-11-15-27-30.5T331 20Q309 8 280.5 0T215-8q-37 0-68 10.5T93.5 32Q71 51 58 78.5T45 140q0 45 19.5 78t50.5 54q31 21 70.5 31t78.5 10q31 0 52.5-1t36-2.5q14.5-1.5 24.5-3t18-2.5q2 15 3 26t1 28q0 28-6 47t-19.5 30.5Q360 447 337 452t-56 5q-19 0-42-3t-46-8.5q-23-5.5-45.5-13.5T107 415zm313-254q-8 1-17 3t-22.5 3q-13.5 1-32 2t-45.5 1q-62 0-98.5-22T143 150q0-40 28.5-60T245 70q33 0 58.5 8.5t44 21q18.5 12.5 30 28T395 158z"/><glyph unicode="b" horiz-adv-x="629" d="M88 700h92V460h10q23 40 66 59.5t91 19.5q109 0 165.5-66.5T569 272q0-137-74-209T287-9Q221-9 167.5 2T88 28zm246-239q-32 0-56.5-10T234 423.5q-19-17.5-32.5-40T180 337V88q49-19 119-19 79 0 125.5 48.5T471 273q0 40-8 74.5T438 407q-17 25-42.5 39.5T334 461z"/><glyph unicode="c" horiz-adv-x="529" d="M484 36q-35-25-82-37.5T303-14q-66 0-112.5 20T115 62q-29 36-42 87T60 262q0 133 64.5 205.5T310 540q53 0 92-9.5t70-23.5l-24-75q-27 14-58.5 22t-68.5 8q-163 0-163-200 0-38 9-73.5t29-63Q216 98 248.5 81T328 64q42 0 73.5 11.5T454 103z"/><glyph unicode="d" horiz-adv-x="629" d="M538 181q0-51 1.5-95.5T549-2h-61l-23 80h-10q-23-40-67.5-66T284-14q-113 0-168.5 67T60 259q0 134 68.5 205.5T321 536q21 0 37.5-1.5t31-3.5q14.5-2 28-6t28.5-8v183h92zm-92 247q-23 17-49.5 23.5T326 458q-81 0-125.5-47T156 258q0-42 8-77.5t25-61.5q17-26 45-40.5T303 64q61 0 95 30.5t48 90.5z"/><glyph unicode="e" horiz-adv-x="598" d="M515 43q-35-26-87-41.5T315-14q-66 0-114.5 19.5T121 61q-31 36-46 87T60 262q0 135 66.5 206.5T316 540q39 0 78-8.5t70-32q31-23.5 50.5-64.5T534 328q0-16-1-37t-4-41H154q2-92 44-139t143-47q42 0 80 14.5t59 34.5zm-69 273q2 80-32.5 113T317 462q-70 0-111-33t-48-113z"/><glyph unicode="f" horiz-adv-x="364" d="M24 525h89v14q0 49 9 82.5t28.5 54q19.5 20.5 51 29.5t76.5 9q38 0 66.5-4.5T404 694l-20-75q-26 11-48.5 14t-43.5 3q-28 0-45-5t-26.5-17.5q-9.5-12.5-12.5-34t-3-54.5h154v-78H205V0h-92v447H24z"/><glyph unicode="g" horiz-adv-x="627" d="M537-3q0-103-60.5-153.5T299-207q-68 0-110 8t-72 22l22 83q13-6 30-12.5t36-11.5q19-5 38.5-8t37.5-3q49 0 81 8.5T413-94q19 18 26 46t7 67v37h-11q-16-26-56-42T282-2Q168-2 114 59.5T60 258q0 135 70 208t208 73q66 0 113.5-8t85.5-21zM302 76q61 0 95.5 31t47.5 81v258q-23 7-53 11t-68 4q-78 0-122-49.5T158 260q0-88 32.5-136T302 76z"/><glyph unicode="h" horiz-adv-x="641" d="M461 0v290q0 43-5.5 74.5t-20 52.5q-14.5 21-39 31T335 458q-26 0-51-9t-46-25q-21-16-36-38.5T180 335V0H88v700h92V460h11q30 36 72 58t104 22q48 0 83-10.5t58-37q23-26.5 34-71T553 310V0z"/><glyph unicode="i" horiz-adv-x="317" d="M114 525h92V0h-92zM95 650q0 23 18 41.5t47 18.5q29 0 48-18.5t19-41.5q0-23-19-40.5T160 592q-29 0-47 17.5T95 650z"/><glyph unicode="j" horiz-adv-x="312" d="M112 525h92V-18q0-97-36.5-144.5T50-210H32.5q-9.5 0-20.5 2v76q33-1 52.5 8t30 27.5q10.5 18.5 14 46T112 15zM91 650q0 23 18 41.5t47 18.5q29 0 48-18.5t19-41.5q0-23-19-40.5T156 592q-29 0-47 17.5T91 650z"/><glyph unicode="k" horiz-adv-x="557" d="M237 236h-57V0H88v700h92V286l52 17 174 222h108L347 322h1l-55-40 63-45L541 0H425z"/><glyph unicode="l" horiz-adv-x="336" d="M192 139q0-41 15.5-58T249 64q16 0 31 2t36 8l12-68q-10-4-24-7.5T275-8q-15-3-30-4.5T218-14q-54 0-86 27.5T100 105v595h92z"/><glyph unicode="m" horiz-adv-x="948" d="M428 0v288q0 42-4 74t-16 53.5q-12 21.5-33.5 32T319 458q-53 0-88.5-29.5T180 353V0H88v525h63l18-70h10q32 36 73.5 60.5T358 540q54 0 90.5-23t55.5-77q30 46 76 73t103 27q48 0 81.5-11t54.5-38q21-27 31-73t10-116V0h-92v302q0 40-4.5 69T747 419.5q-12 19.5-33.5 29T657 458q-57 0-90-30t-47-90V0z"/><glyph unicode="n" horiz-adv-x="641" d="M461 0v290q0 84-27 126t-96 42q-61 0-101.5-31.5T180 346V0H88v525h64l18-70h9q29 36 75.5 60.5T366 540q46 0 81-10.5t58.5-37q23.5-26.5 35.5-71T553 309V0z"/><glyph unicode="o" horiz-adv-x="631" d="M60 262q0 65 17 116.5t50 87.5q33 36 80.5 55T316 540q64 0 112-21t80-58.5q32-37.5 47.5-88T571 262q0-64-17.5-115t-50-87q-32.5-36-80-55T316-14q-66 0-114 21t-79.5 58q-31.5 37-47 87.5T60 262zm98 0q0-37 8.5-72.5T194 126q19-28 49-45t74-17q156 0 156 198 0 39-8.5 75t-27 63.5Q419 428 389 445t-72 17q-78 0-118.5-49.5T158 262z"/><glyph unicode="p" horiz-adv-x="630" d="M88 525h62l18-67h9q27 39 70 60.5t97 21.5q114 0 170-63.5T570 274q0-66-18.5-119.5t-53-91Q464 26 414.5 6T304-14q-20 0-36.5 1.5t-30.5 5q-14 3.5-28 8T180 11v-211H88zm235-63q-60 0-94-30t-49-92V98q23-16 50-25t69-9q81 0 127 53t46 158q0 85-34 136t-115 51z"/><glyph unicode="q" horiz-adv-x="625" d="M537-200h-91l-1 257h-11q-23-34-58.5-52.5T283-14Q60-14 60 258q0 137 71.5 207.5T342 536q30 0 59-3t55-7.5q26-4.5 46.5-10T537 504zm-92 638q-46 20-120 20-81 0-124-49t-43-149q0-44 7.5-80t25-61.5q17.5-25.5 45-40T303 64q60 0 93.5 30t48.5 90z"/><glyph unicode="r" horiz-adv-x="380" d="M362 438q-17 5-33 9t-30 4q-53 0-82.5-27T180 356V0H88v525h64l18-70h9q23 39 53.5 60.5T309 537q14 0 33-2.5t38-8.5z"/><glyph unicode="s" horiz-adv-x="499" d="M353 147q0 20-9.5 33.5t-25.5 23q-16 9.5-37 16.5t-44 14q-29 8-58.5 17.5t-53 26Q102 294 87 320t-15 66q0 78 46.5 116T249 540q63 0 106-12t75-26l-22-78q-27 13-64.5 25.5T261 462q-49 0-73-16t-24-58q0-17 9-28.5t24-20q15-8.5 35-15t42-12.5q30-8 60-18.5t55-28q25-17.5 40.5-44.5t15.5-68q0-74-50-120.5T245-14q-64 0-111.5 13T54 29l26 80q28-15 72-30t89-15q49 0 80.5 17.5T353 147z"/><glyph unicode="t" horiz-adv-x="405" d="M24 525h89v106l92 24V525h158v-78H205V179q0-63 16-89t55-26q25 0 45.5 5.5T368 84l21-65Q357 5 320.5-4.5T242-14q-70 0-99.5 38T113 148v299H24z"/><glyph unicode="u" horiz-adv-x="644" d="M180 525V236q0-42 5-74t18-53.5q13-21.5 35.5-33T296 64q60 0 98 34t58 84v343h92V149q0-38 3-77.5T556 0h-62l-24 87h-10q-26-45-72-73T273-14q-46 0-80.5 11t-58 37.5Q111 61 99.5 105T88 215v310z"/><glyph unicode="v" horiz-adv-x="535" d="M242 223l35-108 33 110 125 300h100L290-11h-40L0 525h108z"/><glyph unicode="w" horiz-adv-x="840" d="M468 525l86-199 43-101 27-101h7l23 104 98 297h88L649-11h-50L452 328v-1l-26 97-30-98v1L255-11h-48L8 525h101l111-297 19-105h9l28 107 121 295z"/><glyph unicode="x" horiz-adv-x="592" d="M233 269L44 525h117l102-134 35-71 41 71 106 134h104L358 273q50-67 102-136T562 0H448L333 149l-40 75-41-75L136 0H30z"/><glyph unicode="y" horiz-adv-x="531" d="M251 193l31-101h13l25 102 109 331h94L351 50q-19-49-38.5-95t-43-81.5q-23.5-35.5-52-57T152-205q-40 0-68 9l15 78q15-5 30-5 20 0 36.5 5t30.5 18q14 13 25.5 36.5T243-3L8 525h109z"/><glyph unicode="z" horiz-adv-x="515" d="M48 79l259 316 70 52H48v78h413v-79L199 127l-70-49h332V0H48z"/><glyph unicode="{" horiz-adv-x="383" d="M146 108q0 51-22.5 70T59 197v76q42 0 64.5 20.5T146 358v233q0 48 26 79t79 31h100v-80h-56q-57 0-57-62V335q0-44-23.5-66.5T161 241v-8q29-4 53-30t24-68V-88q0-31 13.5-46.5T296-150h55v-80H251q-49 0-77 28t-28 81z"/><glyph unicode="|" horiz-adv-x="258" d="M89 700h80v-830H89z"/><glyph unicode="}" horiz-adv-x="383" d="M263 363q0-51 23-70t65-19v-76q-42 0-65-20.5T263 113v-233q0-48-26.5-79T156-230H59v80h55q57 0 57 62v224q0 44 23.5 66.5T247 230v8q-29 4-52.5 30T171 336v223q0 62-58 62H59v80h98q49 0 77.5-28t28.5-81z"/><glyph unicode="~" horiz-adv-x="554" d="M34 365q48 34 86 47t70 13q31 0 57-8.5t50.5-18.5q24.5-10 47.5-18.5t48-8.5q20 0 42 7.5t48 27.5l37-71q-41-26-73-36.5T388 288q-29 0-53.5 8.5t-48 19Q263 326 240 335t-50 9q-25 0-54-11t-66-38z"/><glyph horiz-adv-x="291"/><glyph unicode="¡" horiz-adv-x="329" d="M195-200H95v343l20 173h60l20-173zM76 463q0 29 18.5 46t48.5 17q30 0 48.5-17t18.5-46q0-27-18.5-45T143 400q-30 0-48.5 18T76 463z"/><glyph unicode="¢" horiz-adv-x="594" d="M517 34q-27-16-62-27.5T382-10v-97h-79v95q-58 4-99 26t-66.5 57.5Q112 107 100 155T88 261q0 122 55 192.5T303 536v94h79v-93q38-2 68.5-9.5T507 509l-27-76q-24 12-51.5 18t-54.5 8V63q34 2 64 13t53 24zM314 457q-136-18-136-196 0-33 7-65t23.5-58q16.5-26 42-45.5T314 66z"/><glyph unicode="£" horiz-adv-x="594" d="M44 385h72q-13 26-22 55.5T85 511q0 49 16.5 86.5t46.5 63q30 25.5 72.5 39T316 713q67 0 117.5-11t82.5-25l-30-85q-23 12-65.5 23.5T317 627q-63 0-97.5-31.5T185 514q0-39 12-69.5t27-59.5h171v-80H262q6-19 10-40t4-45q0-30-10.5-61T235 107l-40-32v-5l64 14h277V0H44v84h2q34 1 59 12t41 28.5q16 17.5 23.5 40T177 211q0 28-6 51t-14 43H44z"/><glyph unicode="¤" horiz-adv-x="594" d="M94 602l78-77 21-35q21 16 47.5 23.5T297 521q61 0 103-31l22 35 78 77 54-56-77-78-35-21q31-43 31-102 0-30-7.5-56T442 243l35-20 77-78-54-56-78 77-21 34q-20-14-47.5-22.5T297 169q-61 0-104 31l-21-34-78-77-54 56 77 78 34 20q-30 44-30 102 0 29 8 54.5t22 48.5l-34 20-77 78zm105-257q0-44 27-73t71-29q43 0 70.5 29t27.5 73q0 43-27.5 72.5T297 447q-44 0-71-29.5T199 345z"/><glyph unicode="¥" horiz-adv-x="594" d="M114 331h102L-4 700h117l175-297 17-64h2l19 66 167 295h106L383 331h103v-66H350v-73h136v-66H350V0H250v126H114v66h136v73H114z"/><glyph unicode="¦" horiz-adv-x="258" d="M89 208h80v-338H89zm80 154H89v338h80z"/><glyph unicode="§" horiz-adv-x="554" d="M64 353q0 31 16.5 60t43.5 52l44 14q-28 15-45.5 40T105 584q0 57 45 93t127 36q62 0 105-10t73-24l-24-77q-24 11-61.5 21T291 633q-48 0-70-15t-22-41q0-24 21.5-37t54-23q32.5-10 70-20t70-27.5q32.5-17.5 54-46.5t21.5-76q0-31-16-59t-43-51l-50-14q30-16 49-41t19-66q0-32-13-56t-36.5-40.5Q376 3 344.5-5T277-13q-66 0-107.5 12T98 25l24 75q26-11 61-22t80-11q43 0 67.5 12.5T355 123q0 25-21.5 38.5t-54 23.5q-32.5 10-70 20t-70 27.5Q107 250 85.5 278T64 353zm331-8q0 24-14 39.5t-36.5 26Q322 421 293 429t-60 18q-30-13-52-36t-22-56q0-24 13-39.5t35-25.5q22-10 50.5-18t58.5-17q14 6 28 15t25.5 21q11.5 12 18.5 25.5t7 28.5z"/><glyph unicode="¨" horiz-adv-x="449" d="M60 653q0 24 16 40t42 16q25 0 40.5-16t15.5-40q0-23-15.5-39T118 598q-26 0-42 16t-16 39zm215 0q0 24 15.5 40t41.5 16q26 0 41.5-16t15.5-40q0-23-15.5-39T332 598q-26 0-41.5 16T275 653z"/><glyph unicode="©" horiz-adv-x="868" d="M53 288q0 89 30 160t81.5 120q51.5 49 121 75T434 669q79 0 148-26t121-75q52-49 82-120t30-160q0-89-30-160T703 8q-52-49-121-75T434-93q-87 0-157 26T157 8q-50 49-77 120T53 288zm82 0q0-73 23-129.5t63.5-95Q262 25 316.5 5T434-15q63 0 117.5 20t95 58.5q40.5 38.5 63.5 95T733 288q0 73-23 129.5t-63.5 95Q606 551 551.5 571T434 591q-63 0-117.5-20t-95-58.5Q181 474 158 417.5T135 288zm425-174q-24-14-56-22t-73-8q-87 0-132.5 55T253 288q0 98 48.5 151T431 492q20 0 35.5-2t29.5-6q14-4 27.5-9.5T553 462l-29-69q-23 11-43 16t-36 5q-42 0-69.5-27T348 288q0-59 26.5-92.5T453 162q26 0 46 5t37 14z"/><glyph unicode="ª" horiz-adv-x="437" d="M78 675q27 14 73.5 23.5T254 708q70 0 96-26.5t26-77.5q0-38-1.5-72.5T373 465q0-23 1.5-44.5T381 380h-69l-14 48h-4q-7-8-17-17.5t-23.5-17Q240 386 222 381t-42-5q-56 0-90 26t-34 70q0 31 16 52t44.5 34q28.5 13 66 19t81.5 6q8 0 15-.5t15-.5q4 36-7.5 50.5T232 647q-45 0-81.5-8.5T94 620zm216-148q-12 1-24 1.5t-24 .5q-21 0-40.5-2t-34-8q-14.5-6-23-15.5T140 479q0-19 15-29.5t41-10.5q23 0 40 5t28.5 13q11.5 8 18.5 17.5t11 18.5z"/><glyph unicode="«" horiz-adv-x="524" d="M242 260l174 225 58-51-101-134-52-40 52-36L480 92l-58-50zm-202-1l176 230 60-52-102-136-53-41 53-36L283 91l-61-53z"/><glyph unicode="¬" horiz-adv-x="554" d="M45 398h467V197h-86v117H45z"/><glyph unicode="­" horiz-adv-x="394" d="M64 332h266v-86H64z"/><glyph unicode="®" horiz-adv-x="751" d="M86 432q0 70 23 124t62.5 90.5q39.5 36.5 92 55.5T375 721q61 0 113.5-19t91.5-55.5q39-36.5 61.5-90.5T664 432q0-70-23-123.5t-62.5-90Q539 182 486.5 163T375 144q-60 0-113 19t-92 55.5q-39 36.5-61.5 90T86 432zm74 0q0-55 17.5-96t46.5-68q29-27 68-40.5t83-13.5q46 0 85.5 13t68 40q28.5 27 45 68t16.5 97q0 55-17 96t-46.5 68.5Q497 624 458 637.5T375 651q-47 0-86.5-14t-68-41.5Q192 568 176 527t-16-95zm105 140q17 5 48.5 8t58.5 3q22 0 42-4.5t35-14.5q15-10 24-26t9-39q0-34-22.5-52.5T405 426l31-15 77-117h-66l-75 112-52 16V294h-55zm95-37q-11 0-22-.5t-18-4.5v-76h37q32 0 49 10t17 33q0 18-16.5 28T360 535z"/><glyph unicode="¯" horiz-adv-x="448" d="M60 666h328v-69H60z"/><glyph unicode="°" horiz-adv-x="467" d="M90 566q0 32 13 59t34.5 46.5q21.5 19.5 50 30.5t60.5 11q32 0 61-10t50.5-29q21.5-19 34.5-46.5t13-61.5q0-34-13-61t-34.5-46Q338 440 309 430t-61-10q-32 0-60.5 10t-50 29Q116 478 103 505t-13 61zm75 0q0-36 25.5-55.5T248 491q16 0 31 5t27 14.5q12 9.5 19 23.5t7 32q0 18-7 32t-19 24q-12 10-27 15t-31 5q-32 0-57.5-20T165 566z"/><glyph unicode="±" horiz-adv-x="554" d="M43 512h191v187h86V512h191v-84H320V303h-86v125H43zm0-260h468v-84H43z"/><glyph unicode="²" horiz-adv-x="436" d="M355 685q0-30-10.5-57t-29-53Q297 549 272 523.5T219 472l-50-30v-2l63 13h144v-73H55v42q25 18 62 48t71 65q34 35 58.5 71t24.5 67q0 30-20.5 44.5T198 732q-30 0-57.5-10.5T93 699l-27 66q30 20 68.5 31t78.5 11q69 0 105.5-32.5T355 685z"/><glyph unicode="³" horiz-adv-x="436" d="M185 442q107 0 107 69 0 30-24.5 48.5T186 578h-57v26l101 107 38 26-55-6H74v69h285v-40L249 645l-29-18v-3l26 3q61-1 95-32.5t34-85.5q0-64-50-100t-131-36q-40 0-69.5 6.5T72 394l18 68q19-8 42.5-14t52.5-6z"/><glyph unicode="´" horiz-adv-x="288" d="M124 720h104v-23L116 570H60z"/><glyph unicode="µ" horiz-adv-x="636" d="M171 525V239q0-88 28.5-132.5T300 62q66 0 111 38.5T473 201v324h92V169q0-42 2.5-85.5T580 0h-60l-33 86h-12q-12-19-30-37t-41-31.5Q381 4 352-4.5T290-13q-53 0-82 15.5T158 43h-14l27-120v-124H79v726z"/><glyph unicode="¶" horiz-adv-x="546" d="M376 700h80v-830h-80zM202 307q-35 0-64.5 17T86 369q-22 28-34 63.5T40 504q0 36 13 71.5t37.5 63Q115 666 150 683t79 17h53v-830h-80z"/><glyph unicode="·" horiz-adv-x="290" d="M78 301q0 29 18.5 46t48.5 17q30 0 48.5-17t18.5-46q0-27-18.5-45T145 238q-30 0-48.5 18T78 301z"/><glyph unicode="¸" horiz-adv-x="325" d="M197 0l-32-53q49-8 72.5-26t23.5-51q0-42-37-67.5T121-223q-13 0-26.5 1T67-218l9 36q35-2 55 1t30 10q10 7 12.5 15.5T176-139q0 17-25.5 26.5T77-98l59 98z"/><glyph unicode="¹" horiz-adv-x="436" d="M80 452h115v232l8 38-30-29-83-48-32 59 168 103h53V452h102v-72H80z"/><glyph unicode="º" horiz-adv-x="445" d="M50 542q0 44 13 76t36 53q23 21 54.5 31t68.5 10q37 0 68.5-9.5t55-29.5q23.5-20 36.5-52.5t13-78.5q0-46-13-78.5T345.5 411q-23.5-20-55-29.5T222 372q-37 0-68.5 9.5T99 411q-23 20-36 52.5T50 542zm88 0q0-54 21.5-79.5T222 437q40 0 62.5 23t22.5 82q0 60-22 82.5T222 647q-40 0-62-22.5T138 542z"/><glyph unicode="»" horiz-adv-x="524" d="M281 267L108 42 50 93l100 134 52 40-52 36L44 434l57 51zm202 1L308 38l-61 53 103 135 52 41-52 36-109 133 60 53z"/><glyph unicode="¼" horiz-adv-x="922" d="M685 714l60-43L221-13l-60 45zM861 92h-90V0h-78v92H469v45l247 299h55V159h90zM693 279l7 48h-3l-24-45-80-97-37-32 56 6h81zM176 583l8 39-30-28-83-49-33 58 169 104h52V280h-83z"/><glyph unicode="½" horiz-adv-x="935" d="M685 714l60-43L221-13l-60 45zm168-409q0-30-10.5-57t-29-53Q795 169 770 143.5T717 92l-50-30v-2l63 13h144V0H553v42q25 18 62 48t71 65q34 35 58.5 71t24.5 67q0 30-20.5 44.5T696 352q-30 0-57.5-10.5T591 319l-27 66q30 20 68.5 31t78.5 11q69 0 105.5-32.5T853 305zM176 583l8 39-30-28-83-49-33 58 169 104h52V280h-83z"/><glyph unicode="¾" horiz-adv-x="962" d="M725 714l60-43L261-13l-60 45zM901 92h-90V0h-78v92H509v45l247 299h55V159h90zM733 279l7 48h-3l-24-45-80-97-37-32 56 6h81zm-560 63q107 0 107 69 0 30-24.5 48.5T174 478h-57v26l101 107 38 26-55-6H62v69h285v-40L237 545l-29-18v-3l26 3q61-1 95-32.5t34-85.5q0-64-50-100t-131-36q-40 0-69.5 6.5T60 294l18 68q19-8 42.5-14t52.5-6z"/><glyph unicode="¿" horiz-adv-x="478" d="M318 317q4-49-7.5-84T279 170.5q-20-27.5-44.5-50t-46-45Q167 53 152.5 28T138-31q0-45 26.5-72t92.5-27q19 0 40 4t40.5 11q19.5 7 37.5 15t33 17l34-71q-42-26-89.5-41T235-210q-48 0-85 12.5T88-163q-25 22-37.5 52T38-45q0 47 15 81t37 60q22 26 48.5 48t48.5 46.5q22 24.5 37 54.5t15 72zM206 463q0 29 18.5 46t48.5 17q30 0 48.5-17t18.5-46q0-27-18.5-45T273 400q-30 0-48.5 18T206 463z"/><glyph unicode="À" horiz-adv-x="645" d="M457 183H180L106 0H8l288 710h52L637 0H533zm-247 84h218l-81 199-27 107h-2l-27-109zm169 485h-86l-173 95v23h132z"/><glyph unicode="Á" horiz-adv-x="645" d="M457 183H180L106 0H8l288 710h52L637 0H533zm-247 84h218l-81 199-27 107h-2l-27-109zm182 603h132v-23l-178-95h-81z"/><glyph unicode="Â" horiz-adv-x="645" d="M457 183H180L106 0H8l288 710h52L637 0H533zm-247 84h218l-81 199-27 107h-2l-27-109zm79 603h73l139-100v-25h-92l-65 47-20 35-21-34-70-48h-90v26z"/><glyph unicode="Ã" horiz-adv-x="645" d="M457 183H180L106 0H8l288 710h52L637 0H533zm-247 84h218l-81 199-27 107h-2l-27-109zm-63 524q32 32 61 43.5t55 11.5q21 0 41.5-5.5t39.5-12q19-6.5 37-12t36-5.5q14 0 28.5 5t28.5 17l25-51q-29-24-54.5-33t-49.5-9q-21 0-41 5t-39 11.5q-19 6.5-37 11.5t-36 5q-17 0-35-6.5T171 742z"/><glyph unicode="Ä" horiz-adv-x="645" d="M457 183H180L106 0H8l288 710h52L637 0H533zm-247 84h218l-81 199-27 107h-2l-27-109zm-57 528q0 23 16.5 36t45.5 13q28 0 45-13t17-36q0-22-17-35.5T215 746q-29 0-45.5 13.5T153 795zm214 0q0 23 16.5 36t44.5 13q29 0 46-13t17-36q0-22-17-35.5T428 746q-28 0-44.5 13.5T367 795z"/><glyph unicode="Å" horiz-adv-x="645" d="M205 769q0 37 27 61.5t91 24.5q58 0 88.5-22t30.5-64q0-31-15-47t-29-22q-17-9-41-13L637 0H533l-76 183H180L106 0H8l279 687q-22 4-43 13-10 5-24.5 21T205 769zm5-502h218l-81 199-27 107h-2l-27-109zm65 502q0-15 11-26t37-11q49 0 49 37 0 18-12 28.5T323 808q-25 0-36.5-10.5T275 769z"/><glyph unicode="Æ" horiz-adv-x="929" d="M429 591l-38-106-136-212h178v318zm4-402H203L83 0H-25l456 700h425v-86H533V401h295v-86H533V86h328V0H433z"/><glyph unicode="Ç" horiz-adv-x="624" d="M584 30Q556 10 516.5.5T431-12l-24-41q49-8 72.5-26t23.5-51q0-42-37-67.5T363-223q-13 0-26.5 1t-27.5 4l9 36q35-2 55 1t30 10q10 7 12.5 15.5T418-139q0 17-25.5 26.5T319-98l51 86q-64 3-120.5 26t-99 68Q108 127 83 193.5T58 350q0 98 30 167t78 112.5Q214 673 274 693t119 20q66 0 108-7t71-18l-22-86q-49 23-149 23-45 0-87.5-14.5t-76-47Q204 531 184 478.5T164 350q0-68 19-119t52.5-85.5q33.5-34.5 79-52T414 76q49 0 85 8.5t61 22.5z"/><glyph unicode="È" horiz-adv-x="585" d="M89 700h423v-86H189V401h295v-86H189V86h328V0H89zm272 52h-86l-173 95v23h132z"/><glyph unicode="É" horiz-adv-x="585" d="M89 700h423v-86H189V401h295v-86H189V86h328V0H89zm267 170h132v-23l-178-95h-81z"/><glyph unicode="Ê" horiz-adv-x="585" d="M89 700h423v-86H189V401h295v-86H189V86h328V0H89zm172 170h73l139-100v-25h-92l-65 47-20 35-21-34-70-48h-90v26z"/><glyph unicode="Ë" horiz-adv-x="585" d="M89 700h423v-86H189V401h295v-86H189V86h328V0H89zm36 95q0 23 16.5 36t45.5 13q28 0 45-13t17-36q0-22-17-35.5T187 746q-29 0-45.5 13.5T125 795zm214 0q0 23 16.5 36t44.5 13q29 0 46-13t17-36q0-22-17-35.5T400 746q-28 0-44.5 13.5T339 795z"/><glyph unicode="Ì" horiz-adv-x="398" d="M149 634H69v66h260v-66h-80V66h80V0H69v66h80zm136 118h-86L26 847v23h132z"/><glyph unicode="Í" horiz-adv-x="398" d="M149 634H69v66h260v-66h-80V66h80V0H69v66h80zm104 236h132v-23l-178-95h-81z"/><glyph unicode="Î" horiz-adv-x="398" d="M149 634H69v66h260v-66h-80V66h80V0H69v66h80zm17 236h73l139-100v-25h-92l-65 47-20 35-21-34-70-48H20v26z"/><glyph unicode="Ï" horiz-adv-x="398" d="M149 634H69v66h260v-66h-80V66h80V0H69v66h80zM30 795q0 23 16.5 36T92 844q28 0 45-13t17-36q0-22-17-35.5T92 746q-29 0-45.5 13.5T30 795zm214 0q0 23 16.5 36t44.5 13q29 0 46-13t17-36q0-22-17-35.5T305 746q-28 0-44.5 13.5T244 795z"/><glyph unicode="Ð" horiz-adv-x="723" d="M0 394h97v306q20 3 46.5 4.5t55 2.5q28.5 1 56 1.5t50.5.5q92 0 159.5-26.5t112-73.5Q621 562 643 497t22-142q0-70-20.5-135.5T579 103q-45-51-115.5-82T293-10q-17 0-45.5 1T189-7q-30 1-55.5 2.5T97-1v329H0zm197 0h160v-66H197V82q5-1 19.5-1.5t30.5-1q16-.5 30-1t20-.5q75 0 125.5 23.5t81 62.5q30.5 39 43 88.5T559 355q0 45-12 92t-41 85.5Q477 571 429 596t-121 25h-30q-16 0-32-1t-29-2q-13-1-20-2z"/><glyph unicode="Ñ" horiz-adv-x="735" d="M235 445l-60 98h-4l12-98V0H89v710h56l357-454 57-93h5l-12 93v444h94V-10h-56zm-45 346q32 32 61 43.5t55 11.5q21 0 41.5-5.5t39.5-12q19-6.5 37-12t36-5.5q14 0 28.5 5t28.5 17l25-51q-29-24-54.5-33t-49.5-9q-21 0-41 5t-39 11.5q-19 6.5-37 11.5t-36 5q-17 0-35-6.5T214 742z"/><glyph unicode="Ò" horiz-adv-x="747" d="M58 350q0 86 21.5 153.5t62 114q40.5 46.5 99 71T373 713q79 0 138.5-26.5t99-74Q650 565 669.5 498T689 350q0-86-21.5-153.5T605 82.5q-41-46.5-99.5-71T373-13q-80 0-139 26.5t-98 74Q97 135 77.5 202T58 350zm106 0q0-57 12.5-107t38-88q25.5-38 65-60T373 73q97 0 153.5 67T583 350q0 56-12.5 106t-38 88q-25.5 38-65 60.5T373 627q-96 0-152.5-68T164 350zm285 402h-86l-173 95v23h132z"/><glyph unicode="Ó" horiz-adv-x="747" d="M58 350q0 86 21.5 153.5t62 114q40.5 46.5 99 71T373 713q79 0 138.5-26.5t99-74Q650 565 669.5 498T689 350q0-86-21.5-153.5T605 82.5q-41-46.5-99.5-71T373-13q-80 0-139 26.5t-98 74Q97 135 77.5 202T58 350zm106 0q0-57 12.5-107t38-88q25.5-38 65-60T373 73q97 0 153.5 67T583 350q0 56-12.5 106t-38 88q-25.5 38-65 60.5T373 627q-96 0-152.5-68T164 350zm280 520h132v-23l-178-95h-81z"/><glyph unicode="Ô" horiz-adv-x="747" d="M58 350q0 86 21.5 153.5t62 114q40.5 46.5 99 71T373 713q79 0 138.5-26.5t99-74Q650 565 669.5 498T689 350q0-86-21.5-153.5T605 82.5q-41-46.5-99.5-71T373-13q-80 0-139 26.5t-98 74Q97 135 77.5 202T58 350zm106 0q0-57 12.5-107t38-88q25.5-38 65-60T373 73q97 0 153.5 67T583 350q0 56-12.5 106t-38 88q-25.5 38-65 60.5T373 627q-96 0-152.5-68T164 350zm174 520h73l139-100v-25h-92l-65 47-20 35-21-34-70-48h-90v26z"/><glyph unicode="Õ" horiz-adv-x="747" d="M58 350q0 86 21.5 153.5t62 114q40.5 46.5 99 71T373 713q79 0 138.5-26.5t99-74Q650 565 669.5 498T689 350q0-86-21.5-153.5T605 82.5q-41-46.5-99.5-71T373-13q-80 0-139 26.5t-98 74Q97 135 77.5 202T58 350zm106 0q0-57 12.5-107t38-88q25.5-38 65-60T373 73q97 0 153.5 67T583 350q0 56-12.5 106t-38 88q-25.5 38-65 60.5T373 627q-96 0-152.5-68T164 350zm31 441q32 32 61 43.5t55 11.5q21 0 41.5-5.5t39.5-12q19-6.5 37-12t36-5.5q14 0 28.5 5t28.5 17l25-51q-29-24-54.5-33t-49.5-9q-21 0-41 5t-39 11.5q-19 6.5-37 11.5t-36 5q-17 0-35-6.5T219 742z"/><glyph unicode="Ö" horiz-adv-x="747" d="M58 350q0 86 21.5 153.5t62 114q40.5 46.5 99 71T373 713q79 0 138.5-26.5t99-74Q650 565 669.5 498T689 350q0-86-21.5-153.5T605 82.5q-41-46.5-99.5-71T373-13q-80 0-139 26.5t-98 74Q97 135 77.5 202T58 350zm106 0q0-57 12.5-107t38-88q25.5-38 65-60T373 73q97 0 153.5 67T583 350q0 56-12.5 106t-38 88q-25.5 38-65 60.5T373 627q-96 0-152.5-68T164 350zm40 445q0 23 16.5 36t45.5 13q28 0 45-13t17-36q0-22-17-35.5T266 746q-29 0-45.5 13.5T204 795zm214 0q0 23 16.5 36t44.5 13q29 0 46-13t17-36q0-22-17-35.5T479 746q-28 0-44.5 13.5T418 795z"/><glyph unicode="×" horiz-adv-x="554" d="M140 526l138-130 139 130 58-63-136-124 136-126-58-62-139 130-139-131-59 61 137 128L82 463z"/><glyph unicode="Ø" horiz-adv-x="747" d="M132 92q-38 48-56 113.5T58 350q0 86 21.5 153.5t62 114q40.5 46.5 99 71T373 713q59 0 106-14.5t84-41.5l44 57 61-43-51-67q36-48 54-112t18-142q0-86-21.5-153.5T605 82.5q-41-46.5-99.5-71T373-13q-113 0-186 52h-40l-61-7zm371 486q-24 23-56.5 36T373 627q-96 0-152.5-68T164 350q0-48 8.5-91t26.5-78zM247 118q24-21 55.5-33T373 73q97 0 153.5 67T583 350q0 46-8.5 88T549 515z"/><glyph unicode="Ù" horiz-adv-x="710" d="M527 700h94V243q0-65-18.5-112T550 52.5Q516 21 469.5 6T366-9Q231-9 160 49.5T89 223v477h100V261q0-102 44.5-142T365 79q84 0 123 44t39 141zm-81 52h-86l-173 95v23h132z"/><glyph unicode="Ú" horiz-adv-x="710" d="M527 700h94V243q0-65-18.5-112T550 52.5Q516 21 469.5 6T366-9Q231-9 160 49.5T89 223v477h100V261q0-102 44.5-142T365 79q84 0 123 44t39 141zM424 870h132v-23l-178-95h-81z"/><glyph unicode="Û" horiz-adv-x="710" d="M527 700h94V243q0-65-18.5-112T550 52.5Q516 21 469.5 6T366-9Q231-9 160 49.5T89 223v477h100V261q0-102 44.5-142T365 79q84 0 123 44t39 141zM326 870h73l139-100v-25h-92l-65 47-20 35-21-34-70-48h-90v26z"/><glyph unicode="Ü" horiz-adv-x="710" d="M527 700h94V243q0-65-18.5-112T550 52.5Q516 21 469.5 6T366-9Q231-9 160 49.5T89 223v477h100V261q0-102 44.5-142T365 79q84 0 123 44t39 141zm-338 95q0 23 16.5 36t45.5 13q28 0 45-13t17-36q0-22-17-35.5T251 746q-29 0-45.5 13.5T189 795zm214 0q0 23 16.5 36t44.5 13q29 0 46-13t17-36q0-22-17-35.5T464 746q-28 0-44.5 13.5T403 795z"/><glyph unicode="Ý" horiz-adv-x="617" d="M261 274L7 700h117l175-297 17-64h2l19 66 167 295h106L361 275V0H261zm123 596h132v-23l-178-95h-81z"/><glyph unicode="Þ" horiz-adv-x="614" d="M89 700h100v-74q43 3 89 3 51 0 103.5-9t95.5-33q43-24 70.5-66.5T575 411q0-63-25-107.5T483.5 231q-41.5-28-95-41T278 177q-6 0-18.5.5t-26 1q-13.5.5-26 1.5t-18.5 2V0H89zm100-432q5-2 16.5-2.5t24-1.5q12.5-1 24-1H271q36 0 71 5.5t63.5 21.5q28.5 16 46 45t17.5 75q0 40-17 66t-44 41q-27 15-60.5 20.5T281 543q-27 0-52.5-1t-39.5-5z"/><glyph unicode="ß" horiz-adv-x="677" d="M114 549q0 77 55 120t151 43q57 0 97.5-12t66-32q25.5-20 37-46.5T532 566q0-31-10-53.5t-25-39q-15-16.5-32.5-29T432 420q-15-12-25-25t-10-30q0-22 17-34.5t43-21.5q26-9 56-18t56-25q26-16 43-42.5t17-69.5q0-31-13.5-61T576 39Q550 15 511.5.5T423-14q-26 0-46.5 2t-37 6.5Q323-1 308 5t-30 15l26 73q13-7 26-12.5t27-9q14-3.5 31-5.5t39-2q19 0 38.5 5.5t35 16q15.5 10.5 25 25T535 143q0 30-17 47t-43 27.5Q449 228 419 236t-56 22q-26 14-43 36.5T303 357q0 30 10 50.5t25 36.5q15 16 33 28.5t33 25q15 12.5 25 27.5t10 36q0 14-5.5 27t-19 23q-13.5 10-36 16t-55.5 6q-64 0-90-24.5T207 521V0h-93v445H24v80h90z"/><glyph unicode="à" horiz-adv-x="582" d="M82 492q90 43 223 43 60 0 96.5-15.5T458 480q20-24 26.5-53.5T491 368q0-55-4-110.5T483 137q0-38 3.5-73.5T498-2h-67l-25 80h-10q-11-15-27-30.5T331 20Q309 8 280.5 0T215-8q-37 0-68 10.5T93.5 32Q71 51 58 78.5T45 140q0 45 19.5 78t50.5 54q31 21 70.5 31t78.5 10q31 0 52.5-1t36-2.5q14.5-1.5 24.5-3t18-2.5q2 15 3 26t1 28q0 28-6 47t-19.5 30.5Q360 447 337 452t-56 5q-19 0-42-3t-46-8.5q-23-5.5-45.5-13.5T107 415zm313-254q-8 1-17 3t-22.5 3q-13.5 1-32 2t-45.5 1q-62 0-98.5-22T143 150q0-40 28.5-60T245 70q33 0 58.5 8.5t44 21q18.5 12.5 30 28T395 158zm-53 332h-54L161 697v23h110z"/><glyph unicode="á" horiz-adv-x="582" d="M82 492q90 43 223 43 60 0 96.5-15.5T458 480q20-24 26.5-53.5T491 368q0-55-4-110.5T483 137q0-38 3.5-73.5T498-2h-67l-25 80h-10q-11-15-27-30.5T331 20Q309 8 280.5 0T215-8q-37 0-68 10.5T93.5 32Q71 51 58 78.5T45 140q0 45 19.5 78t50.5 54q31 21 70.5 31t78.5 10q31 0 52.5-1t36-2.5q14.5-1.5 24.5-3t18-2.5q2 15 3 26t1 28q0 28-6 47t-19.5 30.5Q360 447 337 452t-56 5q-19 0-42-3t-46-8.5q-23-5.5-45.5-13.5T107 415zm313-254q-8 1-17 3t-22.5 3q-13.5 1-32 2t-45.5 1q-62 0-98.5-22T143 150q0-40 28.5-60T245 70q33 0 58.5 8.5t44 21q18.5 12.5 30 28T395 158zM267 720h104v-23L259 570h-56z"/><glyph unicode="â" horiz-adv-x="582" d="M82 492q90 43 223 43 60 0 96.5-15.5T458 480q20-24 26.5-53.5T491 368q0-55-4-110.5T483 137q0-38 3.5-73.5T498-2h-67l-25 80h-10q-11-15-27-30.5T331 20Q309 8 280.5 0T215-8q-37 0-68 10.5T93.5 32Q71 51 58 78.5T45 140q0 45 19.5 78t50.5 54q31 21 70.5 31t78.5 10q31 0 52.5-1t36-2.5q14.5-1.5 24.5-3t18-2.5q2 15 3 26t1 28q0 28-6 47t-19.5 30.5Q360 447 337 452t-56 5q-19 0-42-3t-46-8.5q-23-5.5-45.5-13.5T107 415zm313-254q-8 1-17 3t-22.5 3q-13.5 1-32 2t-45.5 1q-62 0-98.5-22T143 150q0-40 28.5-60T245 70q33 0 58.5 8.5t44 21q18.5 12.5 30 28T395 158zM275 773h41q31-48 63-94t62-93h-80l-45 69-26 71-31-71-48-69h-76z"/><glyph unicode="ã" horiz-adv-x="582" d="M82 492q90 43 223 43 60 0 96.5-15.5T458 480q20-24 26.5-53.5T491 368q0-55-4-110.5T483 137q0-38 3.5-73.5T498-2h-67l-25 80h-10q-11-15-27-30.5T331 20Q309 8 280.5 0T215-8q-37 0-68 10.5T93.5 32Q71 51 58 78.5T45 140q0 45 19.5 78t50.5 54q31 21 70.5 31t78.5 10q31 0 52.5-1t36-2.5q14.5-1.5 24.5-3t18-2.5q2 15 3 26t1 28q0 28-6 47t-19.5 30.5Q360 447 337 452t-56 5q-19 0-42-3t-46-8.5q-23-5.5-45.5-13.5T107 415zm313-254q-8 1-17 3t-22.5 3q-13.5 1-32 2t-45.5 1q-62 0-98.5-22T143 150q0-40 28.5-60T245 70q33 0 58.5 8.5t44 21q18.5 12.5 30 28T395 158zM129 696q32 35 58 47.5t49 12.5q18 0 34.5-6.5t33-15 33-15Q353 713 372 713q25 0 54 24l22-48q-27-28-50.5-39.5T354 638q-19 0-36 7t-33.5 15-33.5 15q-17 7-36 7-16 0-31.5-6T149 652z"/><glyph unicode="ä" horiz-adv-x="582" d="M82 492q90 43 223 43 60 0 96.5-15.5T458 480q20-24 26.5-53.5T491 368q0-55-4-110.5T483 137q0-38 3.5-73.5T498-2h-67l-25 80h-10q-11-15-27-30.5T331 20Q309 8 280.5 0T215-8q-37 0-68 10.5T93.5 32Q71 51 58 78.5T45 140q0 45 19.5 78t50.5 54q31 21 70.5 31t78.5 10q31 0 52.5-1t36-2.5q14.5-1.5 24.5-3t18-2.5q2 15 3 26t1 28q0 28-6 47t-19.5 30.5Q360 447 337 452t-56 5q-19 0-42-3t-46-8.5q-23-5.5-45.5-13.5T107 415zm313-254q-8 1-17 3t-22.5 3q-13.5 1-32 2t-45.5 1q-62 0-98.5-22T143 150q0-40 28.5-60T245 70q33 0 58.5 8.5t44 21q18.5 12.5 30 28T395 158zM111 653q0 24 16 40t42 16q25 0 40.5-16t15.5-40q0-23-15.5-39T169 598q-26 0-42 16t-16 39zm215 0q0 24 15.5 40t41.5 16q26 0 41.5-16t15.5-40q0-23-15.5-39T383 598q-26 0-41.5 16T326 653z"/><glyph unicode="å" horiz-adv-x="582" d="M82 492q90 43 223 43 60 0 96.5-15.5T458 480q20-24 26.5-53.5T491 368q0-55-4-110.5T483 137q0-38 3.5-73.5T498-2h-67l-25 80h-10q-11-15-27-30.5T331 20Q309 8 280.5 0T215-8q-37 0-68 10.5T93.5 32Q71 51 58 78.5T45 140q0 45 19.5 78t50.5 54q31 21 70.5 31t78.5 10q31 0 52.5-1t36-2.5q14.5-1.5 24.5-3t18-2.5q2 15 3 26t1 28q0 28-6 47t-19.5 30.5Q360 447 337 452t-56 5q-19 0-42-3t-46-8.5q-23-5.5-45.5-13.5T107 415zm313-254q-8 1-17 3t-22.5 3q-13.5 1-32 2t-45.5 1q-62 0-98.5-22T143 150q0-40 28.5-60T245 70q33 0 58.5 8.5t44 21q18.5 12.5 30 28T395 158zM179 683q0 42 29 68.5t80 26.5q48 0 80.5-23.5T401 683q0-20-8.5-37T369 616.5q-15-12.5-36-20t-45-7.5q-48 0-78.5 24.5T179 683zm57 0q0-20 16.5-32.5T288 638q23 0 39.5 11t16.5 34q0 23-17 34.5T288 729q-20 0-36-11t-16-35z"/><glyph unicode="æ" horiz-adv-x="930" d="M397 236q-17 2-35.5 1.5T326 237q-36 0-69-4t-58.5-14Q173 209 158 192t-15-43q0-36 28.5-58.5T245 68q33 0 58 8t43.5 20q18.5 12 31 26.5T397 151zm24-144q-15-18-35-36t-45-32q-25-14-56.5-23T215-8q-37 0-68 10T93.5 31Q71 50 58 77.5T45 139q0 45 20.5 76t58 49.5q37.5 18.5 90 27T329 300q15 0 33.5-.5T398 301v3q3 24 3 53 0 56-27 78t-93 22q-18 0-40.5-2.5t-46-7q-23.5-4.5-46-11T108 423l-25 66q42 21 100 33.5T306 535q57 0 97-19t62-51q16 19 37.5 33t45.5 23.5q24 9.5 50 14t50 4.5q40 0 79-8.5t70-31.5q31-23 50-65t19-108q0-14-.5-31.5T862 252H486q1-45 11.5-80.5t33-60Q553 87 588.5 74T674 61q38 0 76 12t63 31l33-61q-34-25-88-41T648-14q-70 0-128.5 28T432 92zm356 226q1 40-7.5 67.5T744 430q-17 17-41 24.5t-54 7.5q-69 0-109-33t-50-111z"/><glyph unicode="ç" horiz-adv-x="529" d="M484 36q-32-23-74-35t-89-14l-23-40q49-8 72.5-26t23.5-51q0-42-37-67.5T254-223q-13 0-26.5 1t-27.5 4l9 36q35-2 55 1t30 10q10 7 12.5 15.5T309-139q0 17-25.5 26.5T210-98l52 87q-55 6-93.5 28T106 74.5q-24 35.5-35 83T60 262q0 133 64.5 205.5T310 540q53 0 92-9.5t70-23.5l-24-75q-27 14-58.5 22t-68.5 8q-163 0-163-200 0-38 9-73t29-63q20-28 52.5-44.5T328 65q42 0 73.5 11.5T454 104z"/><glyph unicode="è" horiz-adv-x="598" d="M515 43q-35-26-87-41.5T315-14q-66 0-114.5 19.5T121 61q-31 36-46 87T60 262q0 135 66.5 206.5T316 540q39 0 78-8.5t70-32q31-23.5 50.5-64.5T534 328q0-16-1-37t-4-41H154q2-92 44-139t143-47q42 0 80 14.5t59 34.5zm-69 273q2 80-32.5 113T317 462q-70 0-111-33t-48-113zm-73 254h-54L192 697v23h110z"/><glyph unicode="é" horiz-adv-x="598" d="M515 43q-35-26-87-41.5T315-14q-66 0-114.5 19.5T121 61q-31 36-46 87T60 262q0 135 66.5 206.5T316 540q39 0 78-8.5t70-32q31-23.5 50.5-64.5T534 328q0-16-1-37t-4-41H154q2-92 44-139t143-47q42 0 80 14.5t59 34.5zm-69 273q2 80-32.5 113T317 462q-70 0-111-33t-48-113zM329 720h104v-23L321 570h-56z"/><glyph unicode="ê" horiz-adv-x="598" d="M515 43q-35-26-87-41.5T315-14q-66 0-114.5 19.5T121 61q-31 36-46 87T60 262q0 135 66.5 206.5T316 540q39 0 78-8.5t70-32q31-23.5 50.5-64.5T534 328q0-16-1-37t-4-41H154q2-92 44-139t143-47q42 0 80 14.5t59 34.5zm-69 273q2 80-32.5 113T317 462q-70 0-111-33t-48-113zM284 773h41q31-48 63-94t62-93h-80l-45 69-26 71-31-71-48-69h-76z"/><glyph unicode="ë" horiz-adv-x="598" d="M515 43q-35-26-87-41.5T315-14q-66 0-114.5 19.5T121 61q-31 36-46 87T60 262q0 135 66.5 206.5T316 540q39 0 78-8.5t70-32q31-23.5 50.5-64.5T534 328q0-16-1-37t-4-41H154q2-92 44-139t143-47q42 0 80 14.5t59 34.5zm-69 273q2 80-32.5 113T317 462q-70 0-111-33t-48-113zM158 653q0 24 16 40t42 16q25 0 40.5-16t15.5-40q0-23-15.5-39T216 598q-26 0-42 16t-16 39zm215 0q0 24 15.5 40t41.5 16q26 0 41.5-16t15.5-40q0-23-15.5-39T430 598q-26 0-41.5 16T373 653z"/><glyph unicode="ì" horiz-adv-x="317" d="M114 525h92V0h-92zm76 45h-54L9 697v23h110z"/><glyph unicode="í" horiz-adv-x="317" d="M114 525h92V0h-92zm61 195h104v-23L167 570h-56z"/><glyph unicode="î" horiz-adv-x="317" d="M114 525h92V0h-92zm24 248h41q31-48 63-94t62-93h-80l-45 69-26 71-31-71-48-69H-2z"/><glyph unicode="ï" horiz-adv-x="317" d="M114 525h92V0h-92zM-5 653q0 24 16 40t42 16q25 0 40.5-16t15.5-40q0-23-15.5-39T53 598q-26 0-42 16t-16 39zm215 0q0 24 15.5 40t41.5 16q26 0 41.5-16t15.5-40q0-23-15.5-39T267 598q-26 0-41.5 16T210 653z"/><glyph unicode="ð" horiz-adv-x="645" d="M434 669q69-60 110-149t41-203q0-86-20.5-148t-56-103Q473 25 425 5.5T323-14q-69 0-118.5 23t-82 61Q90 108 75 157.5T60 261q0 52 17.5 100.5T128 448q33 38 81.5 61T320 532q50 0 83.5-12.5T457 488l7 3q-20 40-43.5 72T368 621l-66-49-38 40 60 44q-29 20-59 33.5T203 713l82 38q54-17 103-47l64 48 35-44zM158 259q0-95 47.5-145T329 64q35 0 65 14t52 43q22 29 34.5 74T493 302q0 20-1 44.5t-6 38.5q-10 18-27 31t-38 21.5q-21 8.5-44.5 12.5t-44.5 4q-46 0-79-15.5T199 396q-21-27-31-62.5T158 259z"/><glyph unicode="ñ" horiz-adv-x="641" d="M461 0v290q0 84-27 126t-96 42q-61 0-101.5-31.5T180 346V0H88v525h64l18-70h9q29 36 75.5 60.5T366 540q46 0 81-10.5t58.5-37q23.5-26.5 35.5-71T553 309V0zM155 696q32 35 58 47.5t49 12.5q18 0 34.5-6.5t33-15 33-15Q379 713 398 713q25 0 54 24l22-48q-27-28-50.5-39.5T380 638q-19 0-36 7t-33.5 15-33.5 15q-17 7-36 7-16 0-31.5-6T175 652z"/><glyph unicode="ò" horiz-adv-x="631" d="M60 262q0 65 17 116.5t50 87.5q33 36 80.5 55T316 540q64 0 112-21t80-58.5q32-37.5 47.5-88T571 262q0-64-17.5-115t-50-87q-32.5-36-80-55T316-14q-66 0-114 21t-79.5 58q-31.5 37-47 87.5T60 262zm98 0q0-37 8.5-72.5T194 126q19-28 49-45t74-17q156 0 156 198 0 39-8.5 75t-27 63.5Q419 428 389 445t-72 17q-78 0-118.5-49.5T158 262zm202 308h-54L179 697v23h110z"/><glyph unicode="ó" horiz-adv-x="631" d="M60 262q0 65 17 116.5t50 87.5q33 36 80.5 55T316 540q64 0 112-21t80-58.5q32-37.5 47.5-88T571 262q0-64-17.5-115t-50-87q-32.5-36-80-55T316-14q-66 0-114 21t-79.5 58q-31.5 37-47 87.5T60 262zm98 0q0-37 8.5-72.5T194 126q19-28 49-45t74-17q156 0 156 198 0 39-8.5 75t-27 63.5Q419 428 389 445t-72 17q-78 0-118.5-49.5T158 262zm167 458h104v-23L317 570h-56z"/><glyph unicode="ô" horiz-adv-x="631" d="M60 262q0 65 17 116.5t50 87.5q33 36 80.5 55T316 540q64 0 112-21t80-58.5q32-37.5 47.5-88T571 262q0-64-17.5-115t-50-87q-32.5-36-80-55T316-14q-66 0-114 21t-79.5 58q-31.5 37-47 87.5T60 262zm98 0q0-37 8.5-72.5T194 126q19-28 49-45t74-17q156 0 156 198 0 39-8.5 75t-27 63.5Q419 428 389 445t-72 17q-78 0-118.5-49.5T158 262zm141 511h41q31-48 63-94t62-93h-80l-45 69-26 71-31-71-48-69h-76z"/><glyph unicode="õ" horiz-adv-x="631" d="M60 262q0 65 17 116.5t50 87.5q33 36 80.5 55T316 540q64 0 112-21t80-58.5q32-37.5 47.5-88T571 262q0-64-17.5-115t-50-87q-32.5-36-80-55T316-14q-66 0-114 21t-79.5 58q-31.5 37-47 87.5T60 262zm98 0q0-37 8.5-72.5T194 126q19-28 49-45t74-17q156 0 156 198 0 39-8.5 75t-27 63.5Q419 428 389 445t-72 17q-78 0-118.5-49.5T158 262zm-3 434q32 35 58 47.5t49 12.5q18 0 34.5-6.5t33-15 33-15Q379 713 398 713q25 0 54 24l22-48q-27-28-50.5-39.5T380 638q-19 0-36 7t-33.5 15-33.5 15q-17 7-36 7-16 0-31.5-6T175 652z"/><glyph unicode="ö" horiz-adv-x="631" d="M60 262q0 65 17 116.5t50 87.5q33 36 80.5 55T316 540q64 0 112-21t80-58.5q32-37.5 47.5-88T571 262q0-64-17.5-115t-50-87q-32.5-36-80-55T316-14q-66 0-114 21t-79.5 58q-31.5 37-47 87.5T60 262zm98 0q0-37 8.5-72.5T194 126q19-28 49-45t74-17q156 0 156 198 0 39-8.5 75t-27 63.5Q419 428 389 445t-72 17q-78 0-118.5-49.5T158 262zm-7 391q0 24 16 40t42 16q25 0 40.5-16t15.5-40q0-23-15.5-39T209 598q-26 0-42 16t-16 39zm215 0q0 24 15.5 40t41.5 16q26 0 41.5-16t15.5-40q0-23-15.5-39T423 598q-26 0-41.5 16T366 653z"/><glyph unicode="÷" horiz-adv-x="554" d="M43 379h468v-84H43zm167 146q0 29 18.5 46t48.5 17q30 0 48.5-17t18.5-46q0-27-18.5-45T277 462q-30 0-48.5 18T210 525zm0-376q0 29 18.5 46t48.5 17q30 0 48.5-17t18.5-46q0-27-18.5-45T277 86q-30 0-48.5 18T210 149z"/><glyph unicode="ø" horiz-adv-x="613" d="M108 73q-28 36-41.5 83.5T53 261q0 131 66.5 204.5T309 539q43 0 78-9t63-26l30 37 54-44-31-39q30-37 45-87t15-110q0-131-66.5-203T309-14q-46 0-83 10t-66 29l-31-41-57 44zm105 22q37-31 96-31 156 0 156 197 0 33-6 64.5T439 383zm186 337q-17 14-39.5 21.5T309 461q-158 0-158-200 0-30 5.5-59t17.5-54z"/><glyph unicode="ù" horiz-adv-x="644" d="M180 525V236q0-42 5-74t18-53.5q13-21.5 35.5-33T296 64q60 0 98 34t58 84v343h92V149q0-38 3-77.5T556 0h-62l-24 87h-10q-26-45-72-73T273-14q-46 0-80.5 11t-58 37.5Q111 61 99.5 105T88 215v310zm173 45h-54L172 697v23h110z"/><glyph unicode="ú" horiz-adv-x="644" d="M180 525V236q0-42 5-74t18-53.5q13-21.5 35.5-33T296 64q60 0 98 34t58 84v343h92V149q0-38 3-77.5T556 0h-62l-24 87h-10q-26-45-72-73T273-14q-46 0-80.5 11t-58 37.5Q111 61 99.5 105T88 215v310zm146 195h104v-23L318 570h-56z"/><glyph unicode="û" horiz-adv-x="644" d="M180 525V236q0-42 5-74t18-53.5q13-21.5 35.5-33T296 64q60 0 98 34t58 84v343h92V149q0-38 3-77.5T556 0h-62l-24 87h-10q-26-45-72-73T273-14q-46 0-80.5 11t-58 37.5Q111 61 99.5 105T88 215v310zm128 248h41q31-48 63-94t62-93h-80l-45 69-26 71-31-71-48-69h-76z"/><glyph unicode="ü" horiz-adv-x="644" d="M180 525V236q0-42 5-74t18-53.5q13-21.5 35.5-33T296 64q60 0 98 34t58 84v343h92V149q0-38 3-77.5T556 0h-62l-24 87h-10q-26-45-72-73T273-14q-46 0-80.5 11t-58 37.5Q111 61 99.5 105T88 215v310zm-36 128q0 24 16 40t42 16q25 0 40.5-16t15.5-40q0-23-15.5-39T202 598q-26 0-42 16t-16 39zm215 0q0 24 15.5 40t41.5 16q26 0 41.5-16t15.5-40q0-23-15.5-39T416 598q-26 0-41.5 16T359 653z"/><glyph unicode="ý" horiz-adv-x="531" d="M251 193l31-101h13l25 102 109 331h94L351 50q-19-49-38.5-95t-43-81.5q-23.5-35.5-52-57T152-205q-40 0-68 9l15 78q15-5 30-5 20 0 36.5 5t30.5 18q14 13 25.5 36.5T243-3L8 525h109zm52 527h104v-23L295 570h-56z"/><glyph unicode="þ" horiz-adv-x="630" d="M88 701h92V466h8q26 34 63.5 53.5T343 539q114 0 170.5-63T570 274q0-66-19-119.5t-53.5-91Q463 26 414 6T304-14q-20 0-35 1.5T239.5-8Q225-5 211 0t-31 11v-211H88zm234-240q-111 0-142-124V100q21-16 50-26t68-10q81 0 127.5 53T472 275q0 42-8 76.5T438 410q-18 24-46.5 37.5T322 461z"/><glyph unicode="ÿ" horiz-adv-x="531" d="M251 193l31-101h13l25 102 109 331h94L351 50q-19-49-38.5-95t-43-81.5q-23.5-35.5-52-57T152-205q-40 0-68 9l15 78q15-5 30-5 20 0 36.5 5t30.5 18q14 13 25.5 36.5T243-3L8 525h109zM89 653q0 24 16 40t42 16q25 0 40.5-16t15.5-40q0-23-15.5-39T147 598q-26 0-42 16t-16 39zm215 0q0 24 15.5 40t41.5 16q26 0 41.5-16t15.5-40q0-23-15.5-39T361 598q-26 0-41.5 16T304 653z"/><glyph unicode="Ā" horiz-adv-x="645" d="M457 183H180L106 0H8l288 710h52L637 0H533zm-247 84h218l-81 199-27 107h-2l-27-109zm-65 569h350v-68H145z"/><glyph unicode="ā" horiz-adv-x="582" d="M82 492q90 43 223 43 60 0 96.5-15.5T458 480q20-24 26.5-53.5T491 368q0-55-4-110.5T483 137q0-38 3.5-73.5T498-2h-67l-25 80h-10q-11-15-27-30.5T331 20Q309 8 280.5 0T215-8q-37 0-68 10.5T93.5 32Q71 51 58 78.5T45 140q0 45 19.5 78t50.5 54q31 21 70.5 31t78.5 10q31 0 52.5-1t36-2.5q14.5-1.5 24.5-3t18-2.5q2 15 3 26t1 28q0 28-6 47t-19.5 30.5Q360 447 337 452t-56 5q-19 0-42-3t-46-8.5q-23-5.5-45.5-13.5T107 415zm313-254q-8 1-17 3t-22.5 3q-13.5 1-32 2t-45.5 1q-62 0-98.5-22T143 150q0-40 28.5-60T245 70q33 0 58.5 8.5t44 21q18.5 12.5 30 28T395 158zM114 666h328v-69H114z"/><glyph unicode="Ă" horiz-adv-x="645" d="M457 183H180L106 0H8l288 710h52L637 0H533zm-247 84h218l-81 199-27 107h-2l-27-109zm-30 605q19-32 58-49t90-17q53 0 89.5 19.5T471 872l44-23q-10-28-28.5-50T443 761.5Q418 746 388 738t-61-8q-29 0-58 6.5T214 757q-26 14-47.5 35T132 843z"/><glyph unicode="ă" horiz-adv-x="582" d="M82 492q90 43 223 43 60 0 96.5-15.5T458 480q20-24 26.5-53.5T491 368q0-55-4-110.5T483 137q0-38 3.5-73.5T498-2h-67l-25 80h-10q-11-15-27-30.5T331 20Q309 8 280.5 0T215-8q-37 0-68 10.5T93.5 32Q71 51 58 78.5T45 140q0 45 19.5 78t50.5 54q31 21 70.5 31t78.5 10q31 0 52.5-1t36-2.5q14.5-1.5 24.5-3t18-2.5q2 15 3 26t1 28q0 28-6 47t-19.5 30.5Q360 447 337 452t-56 5q-19 0-42-3t-46-8.5q-23-5.5-45.5-13.5T107 415zm313-254q-8 1-17 3t-22.5 3q-13.5 1-32 2t-45.5 1q-62 0-98.5-22T143 150q0-40 28.5-60T245 70q33 0 58.5 8.5t44 21q18.5 12.5 30 28T395 158zM162 759q21-37 56.5-56t75.5-19q39 0 72.5 18.5T420 759l45-19q-4-24-18.5-47.5T409 651q-23-18-53-29.5T293 610q-65 0-114.5 34T112 735z"/><glyph unicode="Ą" horiz-adv-x="645" d="M457 183H180L106 0H8l288 710h52L637 0h-7q-34-17-54-39.5T557-92q1-23 16-39t44-16q10 0 22 2.5t25 7.5l12-46q-17-12-47-18.5t-57-6.5q-51 0-80.5 24.5T462-116q0 40 31.5 69.5T578 0h-45zm-247 84h218l-81 199-27 107h-2l-27-109z"/><glyph unicode="ą" horiz-adv-x="582" d="M82 492q90 43 223 43 60 0 96.5-15.5T458 480q20-24 26.5-53.5T491 368q0-55-4-110.5T483 137q0-38 3.5-73.5T498-2h-11q-31-16-49-38t-17-51q1-23 16-39t44-16q10 0 22 2.5t25 7.5l12-46q-17-12-47-18.5t-57-6.5q-51 0-80.5 24.5T326-115q0 38 29 67t78 46h-2l-25 80h-10q-11-15-27-30.5T331 20Q309 8 280.5 0T215-8q-37 0-68 10.5T93.5 32Q71 51 58 78.5T45 140q0 45 19.5 78t50.5 54q31 21 70.5 31t78.5 10q31 0 52.5-1t36-2.5q14.5-1.5 24.5-3t18-2.5q2 15 3 26t1 28q0 28-6 47t-19.5 30.5Q360 447 337 452t-56 5q-19 0-42-3t-46-8.5q-23-5.5-45.5-13.5T107 415zm313-254q-8 1-17 3t-22.5 3q-13.5 1-32 2t-45.5 1q-62 0-98.5-22T143 150q0-40 28.5-60T245 70q33 0 58.5 8.5t44 21q18.5 12.5 30 28T395 158z"/><glyph unicode="Ć" horiz-adv-x="624" d="M584 30Q551 6 500-3.5T392-13q-67 0-127.5 21.5T158 74.5q-46 44.5-73 113T58 350q0 98 30 167t78 112.5Q214 673 274 693t119 20q66 0 108-7t71-18l-22-86q-49 23-149 23-45 0-87.5-14.5t-76-47Q204 531 184 478.5T164 350q0-68 19-119.5t52.5-86q33.5-34.5 79-52T414 75q49 0 85 9t61 23zM449 870h132v-23l-178-95h-81z"/><glyph unicode="ć" horiz-adv-x="529" d="M484 36q-35-25-82-37.5T303-14q-66 0-112.5 20T115 62q-29 36-42 87T60 262q0 133 64.5 205.5T310 540q53 0 92-9.5t70-23.5l-24-75q-27 14-58.5 22t-68.5 8q-163 0-163-200 0-38 9-73.5t29-63Q216 98 248.5 81T328 64q42 0 73.5 11.5T454 103zM321 720h104v-23L313 570h-56z"/><glyph unicode="Ĉ" horiz-adv-x="624" d="M584 30Q551 6 500-3.5T392-13q-67 0-127.5 21.5T158 74.5q-46 44.5-73 113T58 350q0 98 30 167t78 112.5Q214 673 274 693t119 20q66 0 108-7t71-18l-22-86q-49 23-149 23-45 0-87.5-14.5t-76-47Q204 531 184 478.5T164 350q0-68 19-119.5t52.5-86q33.5-34.5 79-52T414 75q49 0 85 9t61 23zM345 870h73l139-100v-25h-92l-65 47-20 35-21-34-70-48h-90v26z"/><glyph unicode="ĉ" horiz-adv-x="529" d="M484 36q-35-25-82-37.5T303-14q-66 0-112.5 20T115 62q-29 36-42 87T60 262q0 133 64.5 205.5T310 540q53 0 92-9.5t70-23.5l-24-75q-27 14-58.5 22t-68.5 8q-163 0-163-200 0-38 9-73.5t29-63Q216 98 248.5 81T328 64q42 0 73.5 11.5T454 103zM275 773h41q31-48 63-94t62-93h-80l-45 69-26 71-31-71-48-69h-76z"/><glyph unicode="Č" horiz-adv-x="624" d="M584 30Q551 6 500-3.5T392-13q-67 0-127.5 21.5T158 74.5q-46 44.5-73 113T58 350q0 98 30 167t78 112.5Q214 673 274 693t119 20q66 0 108-7t71-18l-22-86q-49 23-149 23-45 0-87.5-14.5t-76-47Q204 531 184 478.5T164 350q0-68 19-119.5t52.5-86q33.5-34.5 79-52T414 75q49 0 85 9t61 23zM419 744h-69L211 845v25h93l64-49 19-33 21 32 68 50h89v-26z"/><glyph unicode="č" horiz-adv-x="529" d="M484 36q-35-25-82-37.5T303-14q-66 0-112.5 20T115 62q-29 36-42 87T60 262q0 133 64.5 205.5T310 540q53 0 92-9.5t70-23.5l-24-75q-27 14-58.5 22t-68.5 8q-163 0-163-200 0-38 9-73.5t29-63Q216 98 248.5 81T328 64q42 0 73.5 11.5T454 103zM315 586h-49L137 773h87l44-68 28-71 29 70 49 69h78z"/><glyph unicode="Ď" horiz-adv-x="715" d="M89 700q20 3 46.5 4.5t55 2.5q28.5 1 56 1.5t50.5.5q92 0 159.5-26.5t112-73.5Q613 562 635 497t22-142q0-70-20.5-135.5T571 103q-45-51-115.5-82T285-10q-17 0-45.5 1T181-7q-30 1-55.5 2.5T89-1zm211-79h-30q-16 0-32-1t-29-2q-13-1-20-2V82q5-1 19.5-1.5t30.5-1q16-.5 30-1t20-.5q75 0 125.5 23.5t81 62.5q30.5 39 43 88.5T551 355q0 45-12 92t-41 85.5Q469 571 421 596t-121 25zm41 123h-69L133 845v25h93l64-49 19-33 21 32 68 50h89v-26z"/><glyph unicode="ď" horiz-adv-x="629" d="M538 181q0-51 1.5-95.5T549-2h-61l-23 80h-10q-23-40-67.5-66T284-14q-113 0-168.5 67T60 259q0 134 68.5 205.5T321 536q21 0 37.5-1.5t31-3.5q14.5-2 28-6t28.5-8v183h92zm-92 247q-23 17-49.5 23.5T326 458q-81 0-125.5-47T156 258q0-42 8-77.5t25-61.5q17-26 45-40.5T303 64q61 0 95 30.5t48 90.5zm250 272q-2-29-12.5-59.5T659 583q-14-27-28.5-48T606 505l-40 23q19 36 28.5 81t9.5 91z"/><glyph unicode="Đ" horiz-adv-x="723" d="M0 394h97v306q20 3 46.5 4.5t55 2.5q28.5 1 56 1.5t50.5.5q92 0 159.5-26.5t112-73.5Q621 562 643 497t22-142q0-70-20.5-135.5T579 103q-45-51-115.5-82T293-10q-17 0-45.5 1T189-7q-30 1-55.5 2.5T97-1v329H0zm197 0h160v-66H197V82q5-1 19.5-1.5t30.5-1q16-.5 30-1t20-.5q75 0 125.5 23.5t81 62.5q30.5 39 43 88.5T559 355q0 45-12 92t-41 85.5Q477 571 429 596t-121 25h-30q-16 0-32-1t-29-2q-13-1-20-2z"/><glyph unicode="đ" horiz-adv-x="630" d="M538 649h92v-61h-92V182q0-51 1.5-95.5T549-1h-61l-23 80h-10q-23-40-67.5-66T284-13q-113 0-168.5 67T60 260q0 134 68.5 205.5T321 537q21 0 37.5-1.5t31-3.5q14.5-2 28-6t28.5-8v70H261v61h185v52h92zm-92-220q-23 17-49.5 23.5T326 459q-81 0-125.5-47T156 259q0-42 8-77.5t25-61.5q17-26 45-40.5T303 65q61 0 95 30.5t48 90.5z"/><glyph unicode="Ē" horiz-adv-x="585" d="M89 700h423v-86H189V401h295v-86H189V86h328V0H89zm29 136h350v-68H118z"/><glyph unicode="ē" horiz-adv-x="598" d="M515 43q-35-26-87-41.5T315-14q-66 0-114.5 19.5T121 61q-31 36-46 87T60 262q0 135 66.5 206.5T316 540q39 0 78-8.5t70-32q31-23.5 50.5-64.5T534 328q0-16-1-37t-4-41H154q2-92 44-139t143-47q42 0 80 14.5t59 34.5zm-69 273q2 80-32.5 113T317 462q-70 0-111-33t-48-113zM141 666h328v-69H141z"/><glyph unicode="Ė" horiz-adv-x="585" d="M89 700h423v-86H189V401h295v-86H189V86h328V0H89zm140 98q0 22 19 38t53 16q34 0 53.5-16t19.5-38q0-24-19.5-39.5T301 743q-34 0-53 15.5T229 798z"/><glyph unicode="ė" horiz-adv-x="598" d="M515 43q-35-26-87-41.5T315-14q-66 0-114.5 19.5T121 61q-31 36-46 87T60 262q0 135 66.5 206.5T316 540q39 0 78-8.5t70-32q31-23.5 50.5-64.5T534 328q0-16-1-37t-4-41H154q2-92 44-139t143-47q42 0 80 14.5t59 34.5zm-69 273q2 80-32.5 113T317 462q-70 0-111-33t-48-113zM244 650q0 23 18 41.5t47 18.5q29 0 48-18.5t19-41.5q0-23-19-40.5T309 592q-29 0-47 17.5T244 650z"/><glyph unicode="Ę" horiz-adv-x="585" d="M89 700h423v-86H189V401h295v-86H189V86h328V0h-21q-34-17-54-39.5T423-92q1-23 16-39t44-16q10 0 22 2.5t25 7.5l12-46q-17-12-47-18.5t-57-6.5q-51 0-80.5 24.5T328-116q0 40 31.5 69.5T444 0H89z"/><glyph unicode="ę" horiz-adv-x="598" d="M515 43q-33-25-76-38h1q-33-17-51.5-42.5T371-94q1-23 17-40.5t45-17.5q20 0 44 9l12-40q-18-12-46.5-19t-53.5-7q-52 0-82.5 24.5T276-118q0 32 20.5 59.5T352-12q-9-1-18.5-1.5T315-14q-66 0-114.5 19.5T121 61q-31 36-46 87T60 262q0 135 66.5 206.5T316 540q39 0 78-8.5t70-32q31-23.5 50.5-64.5T534 328q0-16-1-37t-4-41H154q2-92 44-139t143-47q42 0 80 14.5t59 34.5zm-69 273q2 80-32.5 113T317 462q-70 0-111-33t-48-113z"/><glyph unicode="Ě" horiz-adv-x="585" d="M89 700h423v-86H189V401h295v-86H189V86h328V0H89zm234 44h-69L115 845v25h93l64-49 19-33 21 32 68 50h89v-26z"/><glyph unicode="ě" horiz-adv-x="598" d="M515 43q-35-26-87-41.5T315-14q-66 0-114.5 19.5T121 61q-31 36-46 87T60 262q0 135 66.5 206.5T316 540q39 0 78-8.5t70-32q31-23.5 50.5-64.5T534 328q0-16-1-37t-4-41H154q2-92 44-139t143-47q42 0 80 14.5t59 34.5zm-69 273q2 80-32.5 113T317 462q-70 0-111-33t-48-113zM328 586h-49L150 773h87l44-68 28-71 29 70 49 69h78z"/><glyph unicode="Ĝ" horiz-adv-x="668" d="M348 353h262V44q-18-14-43-24.5T513.5 2Q485-5 455-9t-59-4q-72 0-133.5 21.5T155.5 75Q110 120 84 188.5T58 350q0 97 31.5 166T171 629q50 44 111.5 64T405 713q66 0 109.5-7.5T587 687l-24-85q-52 23-150 23-45 0-89.5-14t-80-46.5Q208 532 186 479.5T164 350q0-71 18.5-123t51.5-86q33-34 78-50t98-16q33 0 63.5 6.5T527 100v177l-179 18zm8 517h73l139-100v-25h-92l-65 47-20 35-21-34-70-48h-90v26z"/><glyph unicode="ĝ" horiz-adv-x="627" d="M537-3q0-103-60.5-153.5T299-207q-68 0-110 8t-72 22l22 83q13-6 30-12.5t36-11.5q19-5 38.5-8t37.5-3q49 0 81 8.5T413-94q19 18 26 46t7 67v37h-11q-16-26-56-42T282-2Q168-2 114 59.5T60 258q0 135 70 208t208 73q66 0 113.5-8t85.5-21zM302 76q61 0 95.5 31t47.5 81v258q-23 7-53 11t-68 4q-78 0-122-49.5T158 260q0-88 32.5-136T302 76zm0 697h41q31-48 63-94t62-93h-80l-45 69-26 71-31-71-48-69h-76z"/><glyph unicode="Ğ" horiz-adv-x="668" d="M348 353h262V44q-18-14-43-24.5T513.5 2Q485-5 455-9t-59-4q-72 0-133.5 21.5T155.5 75Q110 120 84 188.5T58 350q0 97 31.5 166T171 629q50 44 111.5 64T405 713q66 0 109.5-7.5T587 687l-24-85q-52 23-150 23-45 0-89.5-14t-80-46.5Q208 532 186 479.5T164 350q0-71 18.5-123t51.5-86q33-34 78-50t98-16q33 0 63.5 6.5T527 100v177l-179 18zM239 872q19-32 58-49t90-17q53 0 89.5 19.5T530 872l44-23q-10-28-28.5-50T502 761.5Q477 746 447 738t-61-8q-29 0-58 6.5T273 757q-26 14-47.5 35T191 843z"/><glyph unicode="ğ" horiz-adv-x="627" d="M537-3q0-103-60.5-153.5T299-207q-68 0-110 8t-72 22l22 83q13-6 30-12.5t36-11.5q19-5 38.5-8t37.5-3q49 0 81 8.5T413-94q19 18 26 46t7 67v37h-11q-16-26-56-42T282-2Q168-2 114 59.5T60 258q0 135 70 208t208 73q66 0 113.5-8t85.5-21zM302 76q61 0 95.5 31t47.5 81v258q-23 7-53 11t-68 4q-78 0-122-49.5T158 260q0-88 32.5-136T302 76zM185 759q21-37 56.5-56t75.5-19q39 0 72.5 18.5T443 759l45-19q-4-24-18.5-47.5T432 651q-23-18-53-29.5T316 610q-65 0-114.5 34T135 735z"/><glyph unicode="Ģ" horiz-adv-x="668" d="M348 353h262V44q-18-14-43-24.5T513.5 2Q485-5 455-9t-59-4q-72 0-133.5 21.5T155.5 75Q110 120 84 188.5T58 350q0 97 31.5 166T171 629q50 44 111.5 64T405 713q66 0 109.5-7.5T587 687l-24-85q-52 23-150 23-45 0-89.5-14t-80-46.5Q208 532 186 479.5T164 350q0-71 18.5-123t51.5-86q33-34 78-50t98-16q33 0 63.5 6.5T527 100v177l-179 18zm-31-455q0 22 17.5 36T375-52q29 0 50.5-19t21.5-59q0-27-10-48t-24-36q-14-15-29.5-24T356-251l-29 40q19 8 32.5 23.5T373-149q-23-5-39.5 9T317-102z"/><glyph unicode="ģ" horiz-adv-x="627" d="M537-3q0-103-60.5-153.5T299-207q-68 0-110 8t-72 22l22 83q13-6 30-12.5t36-11.5q19-5 38.5-8t37.5-3q49 0 81 8.5T413-94q19 18 26 46t7 67v37h-11q-16-26-56-42T282-2Q168-2 114 59.5T60 258q0 135 70 208t208 73q66 0 113.5-8t85.5-21zM302 76q61 0 95.5 31t47.5 81v258q-23 7-53 11t-68 4q-78 0-122-49.5T158 260q0-88 32.5-136T302 76zm87 572q0-22-17.5-36T331 598q-29 0-50.5 19T259 676q0 27 10 48t24 36q14 15 29.5 24t27.5 13l29-40q-19-8-32.5-23.5T333 695q23 5 39.5-9t16.5-38z"/><glyph unicode="Ĥ" horiz-adv-x="733" d="M544 313H189V0H89v700h100V401h355v299h100V0H544zM331 870h73l139-100v-25h-92l-65 47-20 35-21-34-70-48h-90v26z"/><glyph unicode="ĥ" horiz-adv-x="641" d="M461 0v290q0 43-5.5 74.5t-20 52.5q-14.5 21-39 31T335 458q-26 0-51-9t-46-25q-21-16-36-38.5T180 335V0H88v700h92V460h11q30 36 72 58t104 22q48 0 83-10.5t58-37q23-26.5 34-71T553 310V0zM112 870h73l139-100v-25h-92l-65 47-20 35-21-34-70-48h-90v26z"/><glyph unicode="Ħ" horiz-adv-x="741" d="M7 590h87v110h100V590h355v110h100V590h85v-70h-85V0H549v313H194V0H94v520H7zm542-189v119H194V401z"/><glyph unicode="ħ" horiz-adv-x="647" d="M0 634h94v66h92v-66h171v-66H186V460h11q30 36 72 58t104 22q48 0 83-10.5t58-37q23-26.5 34-71T559 310V0h-92v290q0 43-5.5 74.5t-20 52.5q-14.5 21-39 31T341 458q-26 0-51-9t-46-25q-21-16-36-38.5T186 335V0H94v568H0z"/><glyph unicode="Ī" horiz-adv-x="398" d="M149 634H69v66h260v-66h-80V66h80V0H69v66h80zM24 836h350v-68H24z"/><glyph unicode="ī" horiz-adv-x="317" d="M114 525h92V0h-92zM-6 666h328v-69H-6z"/><glyph unicode="Į" horiz-adv-x="398" d="M149 634H69v66h260v-66h-80V66h80V0h-76q-32-17-50.5-40T185-92q1-23 16-39t44-16q10 0 22 2.5t25 7.5l12-46q-17-12-47-18.5t-57-6.5q-51 0-80.5 24.5T90-116q0 39 29.5 69T199 0H69v66h80z"/><glyph unicode="į" horiz-adv-x="310" d="M113 525h92V0h-12q-35-19-44.5-40.5T140-91q1-23 16.5-40.5T202-149q20 0 44 9l11-42q-17-11-45.5-18t-54.5-7q-51 0-81.5 25T45-115q0 44 28 70t83 45h-43zM93 645q0 23 18 41.5t47 18.5q29 0 48-18.5t19-41.5q0-23-19-40.5T158 587q-29 0-47 17.5T93 645z"/><glyph unicode="İ" horiz-adv-x="398" d="M149 634H69v66h260v-66h-80V66h80V0H69v66h80zm-22 164q0 22 19 38t53 16q34 0 53.5-16t19.5-38q0-24-19.5-39.5T199 743q-34 0-53 15.5T127 798z"/><glyph unicode="ı" horiz-adv-x="317" d="M114 525h92V0h-92z"/><glyph unicode="Ĵ" horiz-adv-x="325" d="M125 700h100V160q0-78-40.5-124T65-10q-10 0-23.5 1T14-5.5Q0-3-13 0t-22 7l19 83q28-12 67-12 45 0 59.5 29t14.5 80zm14 170h73l139-100v-25h-92l-65 47-20 35-21-34-70-48H-7v26z"/><glyph unicode="ĵ" horiz-adv-x="312" d="M112 525h92V-18q0-97-36.5-144.5T50-210H32.5q-9.5 0-20.5 2v76q33-1 52.5 8t30 27.5q10.5 18.5 14 46T112 15zm31 248h41q31-48 63-94t62-93h-80l-45 69-26 71-31-71-48-69H3z"/><glyph unicode="Ķ" horiz-adv-x="669" d="M238 318h-49V0H89v700h100V378l46 14 252 308h114L349 400l-47-34 55-40L635 0H509zm12-420q0 22 17.5 36T308-52q29 0 50.5-19t21.5-59q0-27-10-48t-24-36q-14-15-29.5-24T289-251l-29 40q19 8 32.5 23.5T306-149q-23-5-39.5 9T250-102z"/><glyph unicode="ķ" horiz-adv-x="557" d="M237 236h-57V0H88v700h92V286l52 17 174 222h108L347 322h1l-55-40 63-45L541 0H425zm-31-338q0 22 17.5 36T264-52q29 0 50.5-19t21.5-59q0-27-10-48t-24-36q-14-15-29.5-24T245-251l-29 40q19 8 32.5 23.5T262-149q-23-5-39.5 9T206-102z"/><glyph unicode="Ĺ" horiz-adv-x="566" d="M547 0H89v700h100V88h358zM254 870h132v-23l-178-95h-81z"/><glyph unicode="ĺ" horiz-adv-x="336" d="M192 139q0-41 15.5-58T249 64q16 0 31 2t36 8l12-68q-10-4-24-7.5T275-8q-15-3-30-4.5T218-14q-54 0-86 27.5T100 105v595h92zm32 731h132v-23l-178-95H97z"/><glyph unicode="Ļ" horiz-adv-x="566" d="M547 0H89v700h100V88h358zM207-102q0 22 17.5 36T265-52q29 0 50.5-19t21.5-59q0-27-10-48t-24-36q-14-15-29.5-24T246-251l-29 40q19 8 32.5 23.5T263-149q-23-5-39.5 9T207-102z"/><glyph unicode="ļ" horiz-adv-x="336" d="M192 139q0-41 15.5-58T249 64q16 0 31 2t36 8l12-68q-10-4-24-7.5T275-8q-15-3-30-4.5T218-14q-54 0-86 27.5T100 105v595h92zm-59-241q0 22 17.5 36T191-52q29 0 50.5-19t21.5-59q0-27-10-48t-24-36q-14-15-29.5-24T172-251l-29 40q19 8 32.5 23.5T189-149q-23-5-39.5 9T133-102z"/><glyph unicode="Ľ" horiz-adv-x="566" d="M547 0H89v700h100V88h358zm-74 700q-2-29-12.5-59.5T436 583q-14-27-28.5-48T383 505l-40 23q19 36 28.5 81t9.5 91z"/><glyph unicode="ľ" horiz-adv-x="336" d="M192 139q0-41 15.5-58T249 64q16 0 31 2t36 8l12-68q-10-4-24-7.5T275-8q-15-3-30-4.5T218-14q-54 0-86 27.5T100 105v595h92zm166 561q-2-29-12.5-59.5T321 583q-14-27-28.5-48T268 505l-40 23q19 36 28.5 81t9.5 91z"/><glyph unicode="Ł" horiz-adv-x="570" d="M15 293l78 55v352h100V418l114 80v-89l-114-79V88h358V0H93v261l-78-53z"/><glyph unicode="ł" horiz-adv-x="336" d="M7 289l93 65v346h92V419l107 75v-89l-107-74V139q0-41 15.5-58T249 64q16 0 31 2t36 8l12-68q-10-4-24-7.5T275-8q-15-3-30-4.5T218-14q-54 0-86 27.5T100 105v163L7 204z"/><glyph unicode="Ń" horiz-adv-x="735" d="M235 445l-60 98h-4l12-98V0H89v710h56l357-454 57-93h5l-12 93v444h94V-10h-56zm200 425h132v-23l-178-95h-81z"/><glyph unicode="ń" horiz-adv-x="641" d="M461 0v290q0 84-27 126t-96 42q-61 0-101.5-31.5T180 346V0H88v525h64l18-70h9q29 36 75.5 60.5T366 540q46 0 81-10.5t58.5-37q23.5-26.5 35.5-71T553 309V0zM332 720h104v-23L324 570h-56z"/><glyph unicode="Ņ" horiz-adv-x="735" d="M235 445l-60 98h-4l12-98V0H89v710h56l357-454 57-93h5l-12 93v444h94V-10h-56zm64-547q0 22 17.5 36T357-52q29 0 50.5-19t21.5-59q0-27-10-48t-24-36q-14-15-29.5-24T338-251l-29 40q19 8 32.5 23.5T355-149q-23-5-39.5 9T299-102z"/><glyph unicode="ņ" horiz-adv-x="641" d="M461 0v290q0 84-27 126t-96 42q-61 0-101.5-31.5T180 346V0H88v525h64l18-70h9q29 36 75.5 60.5T366 540q46 0 81-10.5t58.5-37q23.5-26.5 35.5-71T553 309V0zM241-102q0 22 17.5 36T299-52q29 0 50.5-19t21.5-59q0-27-10-48t-24-36q-14-15-29.5-24T280-251l-29 40q19 8 32.5 23.5T297-149q-23-5-39.5 9T241-102z"/><glyph unicode="Ň" horiz-adv-x="735" d="M235 445l-60 98h-4l12-98V0H89v710h56l357-454 57-93h5l-12 93v444h94V-10h-56zm165 299h-69L192 845v25h93l64-49 19-33 21 32 68 50h89v-26z"/><glyph unicode="ň" horiz-adv-x="641" d="M461 0v290q0 84-27 126t-96 42q-61 0-101.5-31.5T180 346V0H88v525h64l18-70h9q29 36 75.5 60.5T366 540q46 0 81-10.5t58.5-37q23.5-26.5 35.5-71T553 309V0zM336 586h-49L158 773h87l44-68 28-71 29 70 49 69h78z"/><glyph unicode="Ō" horiz-adv-x="747" d="M58 350q0 86 21.5 153.5t62 114q40.5 46.5 99 71T373 713q79 0 138.5-26.5t99-74Q650 565 669.5 498T689 350q0-86-21.5-153.5T605 82.5q-41-46.5-99.5-71T373-13q-80 0-139 26.5t-98 74Q97 135 77.5 202T58 350zm106 0q0-57 12.5-107t38-88q25.5-38 65-60T373 73q97 0 153.5 67T583 350q0 56-12.5 106t-38 88q-25.5 38-65 60.5T373 627q-96 0-152.5-68T164 350zm41 486h350v-68H205z"/><glyph unicode="ō" horiz-adv-x="631" d="M60 262q0 65 17 116.5t50 87.5q33 36 80.5 55T316 540q64 0 112-21t80-58.5q32-37.5 47.5-88T571 262q0-64-17.5-115t-50-87q-32.5-36-80-55T316-14q-66 0-114 21t-79.5 58q-31.5 37-47 87.5T60 262zm98 0q0-37 8.5-72.5T194 126q19-28 49-45t74-17q156 0 156 198 0 39-8.5 75t-27 63.5Q419 428 389 445t-72 17q-78 0-118.5-49.5T158 262zm-12 404h328v-69H146z"/><glyph unicode="Ő" horiz-adv-x="747" d="M58 350q0 86 21.5 153.5t62 114q40.5 46.5 99 71T373 713q79 0 138.5-26.5t99-74Q650 565 669.5 498T689 350q0-86-21.5-153.5T605 82.5q-41-46.5-99.5-71T373-13q-80 0-139 26.5t-98 74Q97 135 77.5 202T58 350zm106 0q0-57 12.5-107t38-88q25.5-38 65-60T373 73q97 0 153.5 67T583 350q0 56-12.5 106t-38 88q-25.5 38-65 60.5T373 627q-96 0-152.5-68T164 350zm162 500h108v-16l-109-93h-68zm183 0h115v-16l-157-93h-69z"/><glyph unicode="ő" horiz-adv-x="631" d="M60 262q0 65 17 116.5t50 87.5q33 36 80.5 55T316 540q64 0 112-21t80-58.5q32-37.5 47.5-88T571 262q0-64-17.5-115t-50-87q-32.5-36-80-55T316-14q-66 0-114 21t-79.5 58q-31.5 37-47 87.5T60 262zm98 0q0-37 8.5-72.5T194 126q19-28 49-45t74-17q156 0 156 198 0 39-8.5 75t-27 63.5Q419 428 389 445t-72 17q-78 0-118.5-49.5T158 262zm86 477h90v-12l-80-117h-49zm175 0h101v-11L388 610h-51z"/><glyph unicode="Œ" horiz-adv-x="1019" d="M522 605q-29 11-68 16.5t-81 5.5q-97 0-153-68t-56-209q0-57 12.5-107t38.5-88q26-38 67.5-60T381 73q32 0 65 2.5T522 91zm0-605q-26-6-64-9.5T374-13q-81 0-140.5 26T135 87q-39 48-58 115T58 350q0 174 83 268.5T374 713q49 0 82.5-4t65.5-9h423v-86H622V401h296v-86H622V86h329V0z"/><glyph unicode="œ" horiz-adv-x="1004" d="M156 261q0-39 8.5-74.5T192 124q19-27 49-43.5T314 64q78 0 118 47t40 150q0 40-8.5 76.5t-27.5 64Q417 429 387 445t-73 16q-78 0-118-48.5T156 261zM510 82q-30-44-80-70T314-14q-65 0-113 20.5T121.5 64Q90 101 75 151T60 261q0 133 65.5 205.5T314 539q40 0 70.5-5.5T439 516q24-12 42.5-31t35.5-45q34 44 85 71.5T722 539q39 0 78-8.5t70-32q31-23.5 50.5-64.5T940 328q0-15-.5-35t-5.5-43H560q1-46 11.5-81t32.5-59q22-24 57-36t85-12q39 0 76 11.5t63 30.5l33-62q-35-26-86.5-41T722-14q-70 0-121.5 25T517 82zm340 234q2 79-32.5 113T723 463q-69 0-109.5-34T565 316z"/><glyph unicode="Ŕ" horiz-adv-x="653" d="M89 693q21 4 46.5 7t51.5 5q26 2 52 3t49 1q50 0 96.5-10t82-33q35.5-23 57-60t21.5-91q0-42-13-76t-36-60q-23-26-54.5-43.5T373 309l52-35L613 0H498L290 295l-101 14V0H89zm202-70h-28.5q-14.5 0-28.5-1t-26-2q-12-1-19-3V375h82q36 0 66.5 7.5t53 23Q413 421 426 446t13 61q0 54-38 85t-110 31zm54 247h132v-23l-178-95h-81z"/><glyph unicode="ŕ" horiz-adv-x="380" d="M362 438q-17 5-33 9t-30 4q-53 0-82.5-27T180 356V0H88v525h64l18-70h9q23 39 53.5 60.5T309 537q14 0 33-2.5t38-8.5zM210 720h104v-23L202 570h-56z"/><glyph unicode="Ŗ" horiz-adv-x="653" d="M89 693q21 4 46.5 7t51.5 5q26 2 52 3t49 1q50 0 96.5-10t82-33q35.5-23 57-60t21.5-91q0-42-13-76t-36-60q-23-26-54.5-43.5T373 309l52-35L613 0H498L290 295l-101 14V0H89zm202-70h-28.5q-14.5 0-28.5-1t-26-2q-12-1-19-3V375h82q36 0 66.5 7.5t53 23Q413 421 426 446t13 61q0 54-38 85t-110 31zm-33-725q0 22 17.5 36T316-52q29 0 50.5-19t21.5-59q0-27-10-48t-24-36q-14-15-29.5-24T297-251l-29 40q19 8 32.5 23.5T314-149q-23-5-39.5 9T258-102z"/><glyph unicode="ŗ" horiz-adv-x="380" d="M362 438q-17 5-33 9t-30 4q-53 0-82.5-27T180 356V0H88v525h64l18-70h9q23 39 53.5 60.5T309 537q14 0 33-2.5t38-8.5zM96-102q0 22 17.5 36T154-52q29 0 50.5-19t21.5-59q0-27-10-48t-24-36q-14-15-29.5-24T135-251l-29 40q19 8 32.5 23.5T152-149q-23-5-39.5 9T96-102z"/><glyph unicode="Ř" horiz-adv-x="653" d="M89 693q21 4 46.5 7t51.5 5q26 2 52 3t49 1q50 0 96.5-10t82-33q35.5-23 57-60t21.5-91q0-42-13-76t-36-60q-23-26-54.5-43.5T373 309l52-35L613 0H498L290 295l-101 14V0H89zm202-70h-28.5q-14.5 0-28.5-1t-26-2q-12-1-19-3V375h82q36 0 66.5 7.5t53 23Q413 421 426 446t13 61q0 54-38 85t-110 31zm16 121h-69L99 845v25h93l64-49 19-33 21 32 68 50h89v-26z"/><glyph unicode="ř" horiz-adv-x="380" d="M362 438q-17 5-33 9t-30 4q-53 0-82.5-27T180 356V0H88v525h64l18-70h9q23 39 53.5 60.5T309 537q14 0 33-2.5t38-8.5zM240 586h-49L62 773h87l44-68 28-71 29 70 49 69h78z"/><glyph unicode="Ś" horiz-adv-x="581" d="M433 184q0 41-27 65t-68 41.5q-41 17.5-88 33T162 363q-41 24-68 62t-27 99q0 85 62.5 137T308 713q67 0 123-10t88-26l-31-84q-25 13-75 23.5T303 627q-68 0-102-29t-34-67q0-39 27-63t68-42.5q41-18.5 88-35.5t88-42q41-25 68-61.5t27-93.5q0-47-18-85t-52-65q-34-27-82-41.5T272-13Q190-13 133.5-.5T48 26l33 87q25-13 75.5-26.5T268 73q35 0 65 6.5t52.5 20q22.5 13.5 35 34.5t12.5 50zm-64 686h132v-23l-178-95h-81z"/><glyph unicode="ś" horiz-adv-x="499" d="M353 147q0 20-9.5 33.5t-25.5 23q-16 9.5-37 16.5t-44 14q-29 8-58.5 17.5t-53 26Q102 294 87 320t-15 66q0 78 46.5 116T249 540q63 0 106-12t75-26l-22-78q-27 13-64.5 25.5T261 462q-49 0-73-16t-24-58q0-17 9-28.5t24-20q15-8.5 35-15t42-12.5q30-8 60-18.5t55-28q25-17.5 40.5-44.5t15.5-68q0-74-50-120.5T245-14q-64 0-111.5 13T54 29l26 80q28-15 72-30t89-15q49 0 80.5 17.5T353 147zm-88 573h104v-23L257 570h-56z"/><glyph unicode="Ŝ" horiz-adv-x="581" d="M433 184q0 41-27 65t-68 41.5q-41 17.5-88 33T162 363q-41 24-68 62t-27 99q0 85 62.5 137T308 713q67 0 123-10t88-26l-31-84q-25 13-75 23.5T303 627q-68 0-102-29t-34-67q0-39 27-63t68-42.5q41-18.5 88-35.5t88-42q41-25 68-61.5t27-93.5q0-47-18-85t-52-65q-34-27-82-41.5T272-13Q190-13 133.5-.5T48 26l33 87q25-13 75.5-26.5T268 73q35 0 65 6.5t52.5 20q22.5 13.5 35 34.5t12.5 50zM271 870h73l139-100v-25h-92l-65 47-20 35-21-34-70-48h-90v26z"/><glyph unicode="ŝ" horiz-adv-x="499" d="M353 147q0 20-9.5 33.5t-25.5 23q-16 9.5-37 16.5t-44 14q-29 8-58.5 17.5t-53 26Q102 294 87 320t-15 66q0 78 46.5 116T249 540q63 0 106-12t75-26l-22-78q-27 13-64.5 25.5T261 462q-49 0-73-16t-24-58q0-17 9-28.5t24-20q15-8.5 35-15t42-12.5q30-8 60-18.5t55-28q25-17.5 40.5-44.5t15.5-68q0-74-50-120.5T245-14q-64 0-111.5 13T54 29l26 80q28-15 72-30t89-15q49 0 80.5 17.5T353 147zM239 773h41q31-48 63-94t62-93h-80l-45 69-26 71-31-71-48-69H99z"/><glyph unicode="Ş" horiz-adv-x="581" d="M81 113q25-13 75.5-26.5T268 73q35 0 65 6.5t52.5 20q22.5 13.5 35 34.5t12.5 50q0 41-27 65t-68 41.5q-41 17.5-88 33T162 363q-41 24-68 62t-27 99q0 85 62.5 137T308 713q67 0 123-10t88-26l-31-84q-25 13-75 23.5T303 627q-68 0-102-29t-34-67q0-39 27-63t68-42.5q41-18.5 88-35.5t88-42q41-25 68-61.5t27-93.5q0-86-57-139.5T317-10l-25-43q49-8 72.5-26t23.5-51q0-42-37-67.5T248-223q-13 0-26.5 1t-27.5 4l9 36q35-2 55 1t30 10q10 7 12.5 15.5T303-139q0 17-25.5 26.5T204-98l51 85q-75 2-127 14T48 26z"/><glyph unicode="ş" horiz-adv-x="499" d="M80 110q28-15 72-30t89-15q49 0 80.5 17t31.5 65q0 20-9.5 33.5t-25.5 23q-16 9.5-37 16.5t-44 14q-29 8-58.5 17.5t-53 26Q102 294 87 320t-15 66q0 78 46.5 116T249 540q63 0 106-12t75-26l-22-78q-27 13-64.5 25.5T261 462q-49 0-73-16t-24-58q0-17 9-28.5t24-20q15-8.5 35-15t42-12.5q30-8 60-18.5t55-28q25-17.5 40.5-44.5t15.5-68q0-67-40.5-111.5T281-12l-24-41q49-8 72.5-26t23.5-51q0-42-37-67.5T213-223q-13 0-26.5 1t-27.5 4l9 36q35-2 55 1t30 10q10 7 12.5 15.5T268-139q0 17-25.5 26.5T169-98l50 85q-54 2-95 14T54 29z"/><glyph unicode="Š" horiz-adv-x="581" d="M433 184q0 41-27 65t-68 41.5q-41 17.5-88 33T162 363q-41 24-68 62t-27 99q0 85 62.5 137T308 713q67 0 123-10t88-26l-31-84q-25 13-75 23.5T303 627q-68 0-102-29t-34-67q0-39 27-63t68-42.5q41-18.5 88-35.5t88-42q41-25 68-61.5t27-93.5q0-47-18-85t-52-65q-34-27-82-41.5T272-13Q190-13 133.5-.5T48 26l33 87q25-13 75.5-26.5T268 73q35 0 65 6.5t52.5 20q22.5 13.5 35 34.5t12.5 50zm-79 560h-69L146 845v25h93l64-49 19-33 21 32 68 50h89v-26z"/><glyph unicode="š" horiz-adv-x="499" d="M353 147q0 20-9.5 33.5t-25.5 23q-16 9.5-37 16.5t-44 14q-29 8-58.5 17.5t-53 26Q102 294 87 320t-15 66q0 78 46.5 116T249 540q63 0 106-12t75-26l-22-78q-27 13-64.5 25.5T261 462q-49 0-73-16t-24-58q0-17 9-28.5t24-20q15-8.5 35-15t42-12.5q30-8 60-18.5t55-28q25-17.5 40.5-44.5t15.5-68q0-74-50-120.5T245-14q-64 0-111.5 13T54 29l26 80q28-15 72-30t89-15q49 0 80.5 17.5T353 147zm-81 439h-49L94 773h87l44-68 28-71 29 70 49 69h78z"/><glyph unicode="Ţ" horiz-adv-x="610" d="M255 0v612H19v88h572v-88H355V0h-18l-32-53q49-8 72.5-26t23.5-51q0-42-37-67.5T261-223q-13 0-26.5 1t-27.5 4l9 36q35-2 55 1t30 10q10 7 12.5 15.5T316-139q0 17-25.5 26.5T217-98l59 98z"/><glyph unicode="ţ" horiz-adv-x="405" d="M24 525h89v106l92 24V525h158v-78H205V179q0-63 16-89t55-26q25 0 45.5 5.5T368 84l21-65Q363 7 333-1.5T269-13l-24-40q49-8 72.5-26t23.5-51q0-42-37-67.5T201-223q-13 0-26.5 1t-27.5 4l9 36q35-2 55 1t30 10q10 7 12.5 15.5T256-139q0 17-25.5 26.5T157-98l52 87q-51 8-73.5 46T113 148v299H24z"/><glyph unicode="Ť" horiz-adv-x="610" d="M591 612H355V0H255v612H19v88h572zM336 744h-69L128 845v25h93l64-49 19-33 21 32 68 50h89v-26z"/><glyph unicode="ť" horiz-adv-x="405" d="M24 525h89v106l92 24V525h158v-78H205V179q0-63 16-89t55-26q25 0 45.5 5.5T368 84l21-65Q357 5 320.5-4.5T242-14q-70 0-99.5 38T113 148v299H24zm342 222q-2-29-12.5-59.5T329 630q-14-27-28.5-48T276 552l-40 23q19 36 28.5 81t9.5 91z"/><glyph unicode="Ū" horiz-adv-x="710" d="M527 700h94V243q0-65-18.5-112T550 52.5Q516 21 469.5 6T366-9Q231-9 160 49.5T89 223v477h100V261q0-102 44.5-142T365 79q84 0 123 44t39 141zM184 836h350v-68H184z"/><glyph unicode="ū" horiz-adv-x="644" d="M180 525V236q0-42 5-74t18-53.5q13-21.5 35.5-33T296 64q60 0 98 34t58 84v343h92V149q0-38 3-77.5T556 0h-62l-24 87h-10q-26-45-72-73T273-14q-46 0-80.5 11t-58 37.5Q111 61 99.5 105T88 215v310zm-36 141h328v-69H144z"/><glyph unicode="Ŭ" horiz-adv-x="710" d="M527 700h94V243q0-65-18.5-112T550 52.5Q516 21 469.5 6T366-9Q231-9 160 49.5T89 223v477h100V261q0-102 44.5-142T365 79q84 0 123 44t39 141zM213 872q19-32 58-49t90-17q53 0 89.5 19.5T504 872l44-23q-10-28-28.5-50T476 761.5Q451 746 421 738t-61-8q-29 0-58 6.5T247 757q-26 14-47.5 35T165 843z"/><glyph unicode="ŭ" horiz-adv-x="644" d="M180 525V236q0-42 5-74t18-53.5q13-21.5 35.5-33T296 64q60 0 98 34t58 84v343h92V149q0-38 3-77.5T556 0h-62l-24 87h-10q-26-45-72-73T273-14q-46 0-80.5 11t-58 37.5Q111 61 99.5 105T88 215v310zm15 234q21-37 56.5-56t75.5-19q39 0 72.5 18.5T453 759l45-19q-4-24-18.5-47.5T442 651q-23-18-53-29.5T326 610q-65 0-114.5 34T145 735z"/><glyph unicode="Ů" horiz-adv-x="710" d="M527 700h94V243q0-65-18.5-112T550 52.5Q516 21 469.5 6T366-9Q231-9 160 49.5T89 223v477h100V261q0-102 44.5-142T365 79q84 0 123 44t39 141zm-284 69q0 37 27 61.5t91 24.5q58 0 88.5-22t30.5-64q0-36-29-60t-90-24q-60 0-89 23t-29 61zm70 0q0-15 11-26t37-11q49 0 49 37 0 18-12 28.5T361 808q-25 0-36.5-10.5T313 769z"/><glyph unicode="ů" horiz-adv-x="644" d="M180 525V236q0-42 5-74t18-53.5q13-21.5 35.5-33T296 64q60 0 98 34t58 84v343h92V149q0-38 3-77.5T556 0h-62l-24 87h-10q-26-45-72-73T273-14q-46 0-80.5 11t-58 37.5Q111 61 99.5 105T88 215v310zm29 158q0 42 29 68.5t80 26.5q48 0 80.5-23.5T431 683q0-20-8.5-37T399 616.5q-15-12.5-36-20t-45-7.5q-48 0-78.5 24.5T209 683zm57 0q0-20 16.5-32.5T318 638q23 0 39.5 11t16.5 34q0 23-17 34.5T318 729q-20 0-36-11t-16-35z"/><glyph unicode="Ű" horiz-adv-x="710" d="M527 700h94V243q0-65-18.5-112T550 52.5Q516 21 469.5 6T366-9Q231-9 160 49.5T89 223v477h100V261q0-102 44.5-142T365 79q84 0 123 44t39 141zM296 850h108v-16l-109-93h-68zm183 0h115v-16l-157-93h-69z"/><glyph unicode="ű" horiz-adv-x="644" d="M180 525V236q0-42 5-74t18-53.5q13-21.5 35.5-33T296 64q60 0 98 34t58 84v343h92V149q0-38 3-77.5T556 0h-62l-24 87h-10q-26-45-72-73T273-14q-46 0-80.5 11t-58 37.5Q111 61 99.5 105T88 215v310zm64 214h90v-12l-80-117h-49zm175 0h101v-11L388 610h-51z"/><glyph unicode="Ų" horiz-adv-x="708" d="M526 700h94V243q0-93-37-149.5T482 11q-32-16-55-39t-22-64q1-23 16-39t44-16q10 0 22 2.5t25 7.5l12-46q-17-12-47-18.5t-57-6.5q-51 0-80.5 25.5T310-114q0 36 16.5 62T372-9h-7Q230-9 159 49.5T88 223v477h100V261q0-102 44.5-142T364 79q84 0 123 44t39 141z"/><glyph unicode="ų" horiz-adv-x="644" d="M180 525V236q0-42 5-74t18-53.5q13-21.5 35.5-33T296 64q60 0 98 34t58 84v343h92V149q0-38 3-77.5T556 0h-23q-32-17-47.5-39T471-93q1-23 16-40t45-17q10 0 21.5 1.5T577-142l11-42q-18-11-45.5-17.5T490-208q-53 0-83.5 24.5T376-118q0 40 33 70.5T493 1l-23 86h-10q-26-45-72-73T273-14q-46 0-80.5 11t-58 37.5Q111 61 99.5 105T88 215v310z"/><glyph unicode="Ÿ" horiz-adv-x="617" d="M261 274L7 700h117l175-297 17-64h2l19 66 167 295h106L361 275V0H261zM142 795q0 23 16.5 36t45.5 13q28 0 45-13t17-36q0-22-17-35.5T204 746q-29 0-45.5 13.5T142 795zm214 0q0 23 16.5 36t44.5 13q29 0 46-13t17-36q0-22-17-35.5T417 746q-28 0-44.5 13.5T356 795z"/><glyph unicode="Ź" horiz-adv-x="596" d="M39 88l377 484 49 40H39v88h518v-88L177 125l-47-37h427V0H39zm314 782h132v-23l-178-95h-81z"/><glyph unicode="ź" horiz-adv-x="515" d="M48 79l259 316 70 52H48v78h413v-79L199 127l-70-49h332V0H48zm212 641h104v-23L252 570h-56z"/><glyph unicode="Ż" horiz-adv-x="596" d="M39 88l377 484 49 40H39v88h518v-88L177 125l-47-37h427V0H39zm188 710q0 22 19 38t53 16q34 0 53.5-16t19.5-38q0-24-19.5-39.5T299 743q-34 0-53 15.5T227 798z"/><glyph unicode="ż" horiz-adv-x="515" d="M48 79l259 316 70 52H48v78h413v-79L199 127l-70-49h332V0H48zm143 571q0 23 18 41.5t47 18.5q29 0 48-18.5t19-41.5q0-23-19-40.5T256 592q-29 0-47 17.5T191 650z"/><glyph unicode="Ž" horiz-adv-x="596" d="M39 88l377 484 49 40H39v88h518v-88L177 125l-47-37h427V0H39zm277 656h-69L108 845v25h93l64-49 19-33 21 32 68 50h89v-26z"/><glyph unicode="ž" horiz-adv-x="515" d="M48 79l259 316 70 52H48v78h413v-79L199 127l-70-49h332V0H48zm226 507h-49L96 773h87l44-68 28-71 29 70 49 69h78z"/><glyph unicode="ſ" horiz-adv-x="331" d="M26 525h90v33q0 34 9 62.5t28.5 48.5q19.5 20 51.5 31.5t77 11.5q19 0 34.5-1t29.5-3.5q14-2.5 28.5-6.5t31.5-10l-22-75q-26 11-49 14.5t-42 3.5q-23 0-39-4.5T227.5 614q-10.5-11-15-31.5T208 529V0h-92v447H26z"/><glyph unicode="ƒ" horiz-adv-x="594" d="M351 445L263-34q-7-37-19-68.5t-32.5-55Q191-181 161-194.5T89-208q-30 0-66.5 8T-40-183l21 76q26-10 48-15.5t50-5.5q41 0 62.5 31T176 8l76 437h-91v80h105l9 42q6 37 17.5 64.5T323 677q19 18 47 27t69 9q36 0 72.5-9t64.5-20l-26-73q-26 10-51.5 16t-51.5 6q-39 0-54-21t-24-73l-4-14h131v-80z"/><glyph unicode="Ǵ" horiz-adv-x="668" d="M348 353h262V44q-18-14-43-24.5T513.5 2Q485-5 455-9t-59-4q-72 0-133.5 21.5T155.5 75Q110 120 84 188.5T58 350q0 97 31.5 166T171 629q50 44 111.5 64T405 713q66 0 109.5-7.5T587 687l-24-85q-52 23-150 23-45 0-89.5-14t-80-46.5Q208 532 186 479.5T164 350q0-71 18.5-123t51.5-86q33-34 78-50t98-16q33 0 63.5 6.5T527 100v177l-179 18zm114 517h132v-23l-178-95h-81z"/><glyph unicode="ǵ" horiz-adv-x="627" d="M537-3q0-103-60.5-153.5T299-207q-68 0-110 8t-72 22l22 83q13-6 30-12.5t36-11.5q19-5 38.5-8t37.5-3q49 0 81 8.5T413-94q19 18 26 46t7 67v37h-11q-16-26-56-42T282-2Q168-2 114 59.5T60 258q0 135 70 208t208 73q66 0 113.5-8t85.5-21zM302 76q61 0 95.5 31t47.5 81v258q-23 7-53 11t-68 4q-78 0-122-49.5T158 260q0-88 32.5-136T302 76zm37 644h104v-23L331 570h-56z"/><glyph unicode="Ș" horiz-adv-x="581" d="M433 184q0 41-27 65t-68 41.5q-41 17.5-88 33T162 363q-41 24-68 62t-27 99q0 85 62.5 137T308 713q67 0 123-10t88-26l-31-84q-25 13-75 23.5T303 627q-68 0-102-29t-34-67q0-39 27-63t68-42.5q41-18.5 88-35.5t88-42q41-25 68-61.5t27-93.5q0-47-18-85t-52-65q-34-27-82-41.5T272-13Q190-13 133.5-.5T48 26l33 87q25-13 75.5-26.5T268 73q35 0 65 6.5t52.5 20q22.5 13.5 35 34.5t12.5 50zM221-102q0 22 17.5 36T279-52q29 0 50.5-19t21.5-59q0-27-10-48t-24-36q-14-15-29.5-24T260-251l-29 40q19 8 32.5 23.5T277-149q-23-5-39.5 9T221-102z"/><glyph unicode="ș" horiz-adv-x="499" d="M353 147q0 20-9.5 33.5t-25.5 23q-16 9.5-37 16.5t-44 14q-29 8-58.5 17.5t-53 26Q102 294 87 320t-15 66q0 78 46.5 116T249 540q63 0 106-12t75-26l-22-78q-27 13-64.5 25.5T261 462q-49 0-73-16t-24-58q0-17 9-28.5t24-20q15-8.5 35-15t42-12.5q30-8 60-18.5t55-28q25-17.5 40.5-44.5t15.5-68q0-74-50-120.5T245-14q-64 0-111.5 13T54 29l26 80q28-15 72-30t89-15q49 0 80.5 17.5T353 147zM181-102q0 22 17.5 36T239-52q29 0 50.5-19t21.5-59q0-27-10-48t-24-36q-14-15-29.5-24T220-251l-29 40q19 8 32.5 23.5T237-149q-23-5-39.5 9T181-102z"/><glyph unicode="Ț" horiz-adv-x="610" d="M591 612H355V0H255v612H19v88h572zM236-102q0 22 17.5 36T294-52q29 0 50.5-19t21.5-59q0-27-10-48t-24-36q-14-15-29.5-24T275-251l-29 40q19 8 32.5 23.5T292-149q-23-5-39.5 9T236-102z"/><glyph unicode="ț" horiz-adv-x="405" d="M24 525h89v106l92 24V525h158v-78H205V179q0-63 16-89t55-26q25 0 45.5 5.5T368 84l21-65Q357 5 320.5-4.5T242-14q-70 0-99.5 38T113 148v299H24zm126-627q0 22 17.5 36T208-52q29 0 50.5-19t21.5-59q0-27-10-48t-24-36q-14-15-29.5-24T189-251l-29 40q19 8 32.5 23.5T206-149q-23-5-39.5 9T150-102z"/><glyph unicode="ȷ" horiz-adv-x="312" d="M112 525h92V-18q0-97-36.5-144.5T50-210H32.5q-9.5 0-20.5 2v76q33-1 52.5 8t30 27.5q10.5 18.5 14 46T112 15z"/><glyph unicode="ʼ" horiz-adv-x="217" d="M44 661q0 24 16.5 38.5T103 714q32 0 51.5-19t19.5-56q0-35-11-60t-26.5-42Q121 520 104 510.5T75 498l-28 41q24 11 39.5 28t14.5 43q-26-5-41.5 10T44 661z"/><glyph unicode="ˆ" horiz-adv-x="441" d="M209 773h41q31-48 63-94t62-93h-80l-45 69-26 71-31-71-48-69H69z"/><glyph unicode="ˇ" horiz-adv-x="450" d="M247 586h-49L69 773h87l44-68 28-71 29 70 49 69h78z"/><glyph unicode="˘" horiz-adv-x="483" d="M117 759q21-37 56.5-56t75.5-19q39 0 72.5 18.5T375 759l45-19q-4-24-18.5-47.5T364 651q-23-18-53-29.5T248 610q-65 0-114.5 34T67 735z"/><glyph unicode="˙" horiz-adv-x="252" d="M60 650q0 23 18 41.5t47 18.5q29 0 48-18.5t19-41.5q0-23-19-40.5T125 592q-29 0-47 17.5T60 650z"/><glyph unicode="˚" horiz-adv-x="353" d="M67 683q0 42 29 68.5t80 26.5q48 0 80.5-23.5T289 683q0-20-8.5-37T257 616.5q-15-12.5-36-20t-45-7.5q-48 0-78.5 24.5T67 683zm57 0q0-20 16.5-32.5T176 638q23 0 39.5 11t16.5 34q0 23-17 34.5T176 729q-20 0-36-11t-16-35z"/><glyph unicode="˛" horiz-adv-x="345" d="M235 0q-34-17-54-39.5T162-92q1-23 16-39t44-16q10 0 22 2.5t25 7.5l12-46q-17-12-47-18.5t-57-6.5q-51 0-80.5 24.5T67-116q0 40 31.5 69.5T183 0z"/><glyph unicode="˜" horiz-adv-x="450" d="M67 696q32 35 58 47.5t49 12.5q18 0 34.5-6.5t33-15 33-15Q291 713 310 713q25 0 54 24l22-48q-27-28-50.5-39.5T292 638q-19 0-36 7t-33.5 15-33.5 15q-17 7-36 7-16 0-31.5-6T87 652z"/><glyph unicode="˝" horiz-adv-x="445" d="M106 739h90v-12l-80-117H67zm175 0h101v-11L250 610h-51z"/><glyph unicode="́" horiz-adv-x="0" d="M-208 720h104v-23l-112-127h-56z"/><glyph unicode="Δ" horiz-adv-x="625" d="M16 0v45l276 665h43L614 45V0zm110 86h373L338 465l-27 100h-2l-30-101z"/><glyph unicode="Ω" horiz-adv-x="875" d="M81 82h125l101-11v27l-57 9q-35 15-65.5 40.5t-53.5 60q-23 34.5-36.5 78T81 380q0 76 25 137.5t71.5 105Q224 666 290 689.5T437 713q85 0 151.5-25T701 618q46-45 69.5-106.5T794 377q0-53-15-96.5t-39-77q-24-33.5-53.5-57T628 108l-62-10V71l103 11h126V0H478v148q32 5 68.5 19.5t68 41.5q31.5 27 52.5 69t21 103q0 45-14 88.5t-44.5 78Q599 582 551 603.5T436 625q-121 0-185-62.5T187 378q0-59 19.5-101t50-69q30.5-27 67.5-41.5t72-18.5V0H81z"/><glyph unicode="π" horiz-adv-x="770" d="M601 131q0-32 11-44.5T643 74q11 0 24 1t27 4l7-65q-17-7-42.5-12.5T602-4q-53 0-73 29.5T509 107v340H286V0h-92v447h-22q-23 0-38-12.5T102 399l-58 31q22 45 54 70t91 25h509v-78h-97z"/><glyph unicode="Ё" horiz-adv-x="585" d="M89 700h423v-86H189V401h295v-86H189V86h328V0H89zm36 95q0 23 16.5 36t45.5 13q28 0 45-13t17-36q0-22-17-35.5T187 746q-29 0-45.5 13.5T125 795zm214 0q0 23 16.5 36t44.5 13q29 0 46-13t17-36q0-22-17-35.5T400 746q-28 0-44.5 13.5T339 795z"/><glyph unicode="Ђ" horiz-adv-x="799" d="M355 0H255v612H19v88h572v-88H355V420q14 4 52 12.5t99 8.5q43 0 85-10t75.5-34q33.5-24 54-65T741 228q0-120-66.5-178T484-8q-36 0-52 1t-24 3v87q13-2 30.5-2.5T486 80q72 0 110.5 34.5T635 221q0 40-12.5 66T588 328q-22 15-51.5 21t-63.5 6q-18 0-36.5-2.5T402 347q-16-3-28.5-6.5T355 335z"/><glyph unicode="Ѓ" horiz-adv-x="486" d="M504 612H189V0H89v700h415zM341 870h132v-23l-178-95h-81z"/><glyph unicode="Є" horiz-adv-x="637" d="M582 30Q549 6 499-3.5T392-13q-67 0-127.5 21.5T158 74.5q-46 44.5-73 113T58 350q0 98 30 167t78 112.5Q214 673 274 693t119 20q66 0 107.5-7t70.5-18l-23-84q-49 23-147 23-41 0-80-12t-71-39q-32-27-54.5-69.5T166 404h329v-86H164q4-60 24.5-106t53.5-77q33-31 76.5-46.5T413 73q49 0 85 9t61 23z"/><glyph unicode="Ѕ" horiz-adv-x="581" d="M433 184q0 41-27 65t-68 41.5q-41 17.5-88 33T162 363q-41 24-68 62t-27 99q0 85 62.5 137T308 713q67 0 123-10t88-26l-31-84q-25 13-75 23.5T303 627q-68 0-102-29t-34-67q0-39 27-63t68-42.5q41-18.5 88-35.5t88-42q41-25 68-61.5t27-93.5q0-47-18-85t-52-65q-34-27-82-41.5T272-13Q190-13 133.5-.5T48 26l33 87q25-13 75.5-26.5T268 73q35 0 65 6.5t52.5 20q22.5 13.5 35 34.5t12.5 50z"/><glyph unicode="І" horiz-adv-x="398" d="M149 634H69v66h260v-66h-80V66h80V0H69v66h80z"/><glyph unicode="Ї" horiz-adv-x="398" d="M74 793q0 24 16 37.5t40 13.5q23 0 39-13.5t16-37.5q0-23-16-37t-39-14q-24 0-40 14t-16 37zm140 0q0 24 16 37.5t40 13.5q24 0 40-13.5t16-37.5q0-23-16-37t-40-14q-24 0-40 14t-16 37zm-65-159H69v66h260v-66h-80V66h80V0H69v66h80z"/><glyph unicode="Ј" horiz-adv-x="325" d="M125 700h100V160q0-78-40.5-124T65-10q-10 0-23.5 1T14-5.5Q0-3-13 0t-22 7l19 83q28-12 67-12 45 0 59.5 29t14.5 80z"/><glyph unicode="Љ" horiz-adv-x="1014" d="M594 700V433q5 1 17.5 2.5t28 2.5q15.5 1 31.5 2t29 1q52 0 102-10t89.5-34q39.5-24 64-65.5T980 227q0-60-23.5-104.5t-64-73.5Q852 20 797 5.5T678-9q-15 0-37.5.5t-48 2.5q-25.5 2-51 5T494 7v605H274q-5-99-11.5-180T246 285.5Q236 220 222.5 170T189 83q-26-48-60-68T58-5Q37-5 23.5-2.5T-4 5L9 89q12-3 24-3t24.5 4.5Q70 95 82 105.5t23 29.5q15 26 28 70t23 112q10 68 16.5 162.5T182 700zm0-617q14-4 41-5t54-1q37 0 70.5 8.5t59 26.5q25.5 18 40.5 45t15 65q0 40-16 66t-42.5 41Q789 344 755 349.5t-69 5.5q-9 0-23-1t-27.5-2q-13.5-1-25-3t-16.5-3z"/><glyph unicode="Њ" horiz-adv-x="1064" d="M189 700V415h355v285h100V416q6 1 18.5 2.5t28 2.5q15.5 1 31.5 2t29 1q52 0 102-8.5t89.5-31Q982 362 1006 322t24-103q0-60-23-103t-63.5-71q-40.5-28-96-41T728-9q-15 0-37.5 1t-48 2.5Q617-4 591.5-1T544 6v321H189V0H89v700zM644 83q14-3 41.5-4.5T739 77q39 0 72.5 7t58.5 23q25 16 39.5 42t14.5 63q0 40-15.5 65T867 315.5q-26 13.5-60 18t-71 4.5q-9 0-23-1t-27.5-2q-13.5-1-25-3t-16.5-3z"/><glyph unicode="Ћ" horiz-adv-x="821" d="M355 0H255v612H19v88h572v-88H355V396q29 15 77.5 30T543 441q46 0 84.5-10t66.5-33q28-23 43.5-61t15.5-93V0H653v222q0 133-133 133-51 0-94.5-12T355 310z"/><glyph unicode="Ќ" horiz-adv-x="669" d="M238 318h-49V0H89v700h100V378l46 14 252 308h114L349 400l-47-34 55-40L635 0H509zm129 552h132v-23l-178-95h-81z"/><glyph unicode="Ў" horiz-adv-x="608" d="M311 340l27-89h6l21 92 142 357h102L413 238q-29-67-51-113.5T316.5 49Q293 20 266 7T200-6q-36 0-57.5 5.5T101 17l29 82q21-12 39.5-14.5T204 82q29 0 49.5 25.5T290 184L5 700h115zm-89 531q5-36 30.5-54.5T320 798q42 0 67.5 18.5T418 870l84-18q-13-55-57-86t-126-31q-79 0-129.5 27T129 850z"/><glyph unicode="Џ" horiz-adv-x="719" d="M189 700V88h341v612h100V0H410l-16-178h-63L309 0H89v700z"/><glyph unicode="А" horiz-adv-x="645" d="M457 183H180L106 0H8l288 710h52L637 0H533zm-247 84h218l-81 199-27 107h-2l-27-109z"/><glyph unicode="Б" horiz-adv-x="606" d="M89 700h424v-88H189V422q18 3 44.5 6t52.5 3q56 0 106.5-10t89-34q38.5-24 61.5-64t23-100q0-60-23.5-103.5t-62.5-72Q441 19 389 5T280-9q-18 0-42.5.5T187-6q-26 2-51.5 5T89 7zM292 77q34 0 64.5 8t53.5 24.5q23 16.5 36.5 41.5t13.5 59q0 44-15 70.5t-40.5 41q-25.5 14.5-59 19T276 345q-10 0-22.5-1t-25.5-2q-13-1-23.5-3t-15.5-3V83q7-2 19-3t26-2q14-1 29-1t29 0z"/><glyph unicode="В" horiz-adv-x="641" d="M559 538q0-26-8.5-51.5t-26-48Q507 416 480 399t-64-25v-4q32-4 62-16t53-33q23-21 37-51t14-71q0-54-25-93.5t-66-65Q450 15 398.5 3T295-9q-18 0-44 .5t-54.5 2q-28.5 1.5-57 4T89 5v689q41 7 96 11t118 4q43 0 88.5-7.5T474 675q37-19 61-52t24-85zM187 82q7-2 21-3t30.5-2q16.5-1 33-1.5T302 75q34 0 65.5 7t55.5 22q24 15 38.5 38t14.5 55q0 40-17.5 63.5t-45.5 36q-28 12.5-63 16t-69 3.5h-94zm55 312q19 0 44 1.5t42 3.5q25 7 47.5 17.5t39.5 25q17 14.5 27 34t10 44.5q0 34-13.5 54.5T403 606q-22 11-50 15t-57 4q-35 0-64.5-1.5T187 620V394z"/><glyph unicode="Г" horiz-adv-x="486" d="M504 612H189V0H89v700h415z"/><glyph unicode="Д" horiz-adv-x="736" d="M708-128h-69L622 0H90L74-128H5V88h78q9 11 27.5 50.5t37 113Q166 325 179 436t12 264h417V88h100zM508 88v524H283q-4-106-12.5-189.5t-21-147.5q-12.5-64-28-110T189 88z"/><glyph unicode="Е" horiz-adv-x="585" d="M89 700h423v-86H189V401h295v-86H189V86h328V0H89z"/><glyph unicode="Ж" horiz-adv-x="888" d="M392 700h94V378l46 14 213 308h111L640 396l-45-33 56-41L890 0H769L535 320h-49V0h-94v332l-46-14L113 0H-2l236 312 53 38-51 36L13 700h116l214-310h49z"/><glyph unicode="З" horiz-adv-x="589" d="M149 327v78h40.5q14.5 0 30 1t30 1.5q14.5.5 23.5 2.5 54 7 92 34.5t38 73.5q0 31-11.5 51.5t-32 33Q339 615 312 620.5t-57 5.5q-58 0-101-9t-66-20l-27 80q10 6 31 12t48.5 11q27.5 5 61 8.5T270 712q44 0 87-8.5t76.5-28.5q33.5-20 54.5-53t21-83q0-50-35.5-95T366 379v-4q77-11 121.5-53.5T532 207q0-57-25-98.5T441.5 40q-40.5-27-92-40T244-13q-72 0-121 8.5T44 16l25 86q26-11 71.5-20T252 73q31 0 62 8t56 24q25 16 40.5 40.5T426 204q0 60-46.5 88T250 325q-13 1-23 1.5t-24 .5z"/><glyph unicode="И" horiz-adv-x="744" d="M555 463l6 77h-4l-48-79L150 0H89v700h100V234l-9-76h5l50 79 358 463h62V0H555z"/><glyph unicode="Й" horiz-adv-x="744" d="M555 463l6 77h-4l-48-79L150 0H89v700h100V234l-9-76h5l50 79 358 463h62V0H555zM283 871q5-36 30.5-54.5T381 798q42 0 67.5 18.5T479 870l84-18q-13-55-57-86t-126-31q-79 0-129.5 27T190 850z"/><glyph unicode="К" horiz-adv-x="669" d="M238 318h-49V0H89v700h100V378l46 14 252 308h114L349 400l-47-34 55-40L635 0H509z"/><glyph unicode="Л" horiz-adv-x="683" d="M494 612H274q-5-99-11.5-180T246 285.5Q236 220 222.5 170T189 83q-26-48-60-68T58-5Q37-5 23.5-2.5T-4 5L9 89q12-3 24-3t24.5 4.5Q70 95 82 105.5t23 29.5q15 26 28 70t23 112q10 68 16.5 162.5T182 700h412V0H494z"/><glyph unicode="М" horiz-adv-x="868" d="M679 451l11 112h-4l-43-97-195-310h-30L213 467l-41 95h-5l16-110V0H89v700h75l237-357 37-76h2l35 78 225 355h79V0H679z"/><glyph unicode="Н" horiz-adv-x="733" d="M544 313H189V0H89v700h100V401h355v299h100V0H544z"/><glyph unicode="О" horiz-adv-x="747" d="M58 350q0 86 21.5 153.5t62 114q40.5 46.5 99 71T373 713q79 0 138.5-26.5t99-74Q650 565 669.5 498T689 350q0-86-21.5-153.5T605 82.5q-41-46.5-99.5-71T373-13q-80 0-139 26.5t-98 74Q97 135 77.5 202T58 350zm106 0q0-57 12.5-107t38-88q25.5-38 65-60T373 73q97 0 153.5 67T583 350q0 56-12.5 106t-38 88q-25.5 38-65 60.5T373 627q-96 0-152.5-68T164 350z"/><glyph unicode="П" horiz-adv-x="719" d="M530 612H189V0H89v700h541V0H530z"/><glyph unicode="Р" horiz-adv-x="614" d="M89 693q42 9 91.5 12.5T278 709q51 0 103.5-9t95.5-33q43-24 70.5-66.5T575 491q0-63-25-107.5T483.5 311q-41.5-28-95-41T278 257q-6 0-18.5.5t-26 1q-13.5.5-26 1.5t-18.5 2V0H89zm192-70q-27 0-52.5-1t-39.5-5V348q5-2 16.5-2.5t24-1.5q12.5-1 24-1H271q36 0 71 5.5t63.5 21.5q28.5 16 46 45t17.5 75q0 40-17 66t-44 41q-27 15-60.5 20.5T281 623z"/><glyph unicode="С" horiz-adv-x="624" d="M584 30Q551 6 500-3.5T392-13q-67 0-127.5 21.5T158 74.5q-46 44.5-73 113T58 350q0 98 30 167t78 112.5Q214 673 274 693t119 20q66 0 108-7t71-18l-22-86q-49 23-149 23-45 0-87.5-14.5t-76-47Q204 531 184 478.5T164 350q0-68 19-119.5t52.5-86q33.5-34.5 79-52T414 75q49 0 85 9t61 23z"/><glyph unicode="Т" horiz-adv-x="610" d="M591 612H355V0H255v612H19v88h572z"/><glyph unicode="У" horiz-adv-x="608" d="M311 340l27-89h6l21 92 142 357h102L413 238q-29-67-51-113.5T316.5 49Q293 20 266 7T200-6q-36 0-57.5 5.5T101 17l29 82q21-12 39.5-14.5T204 82q29 0 49.5 25.5T290 184L5 700h115z"/><glyph unicode="Ф" horiz-adv-x="857" d="M380 77q-20-3-43.5-4T291 72q-52 0-97 17t-78.5 51.5Q82 175 62.5 227T43 350q0 67 19.5 120.5t55 91q35.5 37.5 85 57.5T312 639q14 0 35-1t33-4v86h96v-89q20 5 46 6.5t43 1.5q52 0 97.5-18t79-53.5Q775 532 794 480t19-120q0-70-21.5-124t-58-90.5q-36.5-36.5-85-55T546 72q-12 0-34.5 1.5T476 79v-99h-96zm170 482q-15 0-38.5-1t-37.5-5V155q11-2 28-2.5t33-.5q36 0 68 13t56 38.5q24 25.5 38 64.5t14 92q0 44-11.5 80.5t-32.5 63q-21 26.5-51 41T550 559zM310 152q11 0 34 .5t38 5.5v397q-13 2-31 3t-34 1q-36 0-67-13t-54.5-39.5Q172 480 158.5 441T145 350q0-45 12-81.5t34-62.5q22-26 52.5-40t66.5-14z"/><glyph unicode="Х" horiz-adv-x="678" d="M280 356L49 700h119l151-230 27-58 26 58 158 230h110L402 363 651 0H534L367 244l-31 61-28-61L137 0H27z"/><glyph unicode="Ц" horiz-adv-x="752" d="M723-128h-69L638 0H89v700h100V88h333v612h100V88h101z"/><glyph unicode="Ч" horiz-adv-x="663" d="M176 700V479q0-67 32-103.5T309 339q51 0 94.5 12t70.5 32v317h100V0H474v298q-29-16-77.5-30.5T285 253q-47 0-85.5 11t-66 36Q106 325 91 363.5T76 458v242z"/><glyph unicode="Ш" horiz-adv-x="959" d="M89 0v700h100V88h241v612h100V88h240v612h100V0z"/><glyph unicode="Щ" horiz-adv-x="1000" d="M89 0v700h100V88h240v612h100V88h240v612h100V88h102v-216h-69L886 0z"/><glyph unicode="Ъ" horiz-adv-x="694" d="M174 612H-2v88h276V433q5 1 17.5 2.5T320 438l32 2q16 1 29 1 51 0 101-10t89.5-34q39.5-24 64-65.5T660 227q0-59-23-103.5t-63.5-74q-40.5-29.5-96-44T358-9q-15 0-37.5.5t-48 2.5Q247-4 221-1t-47 8zM369 77q37 0 70.5 9t59 27q25.5 18 40.5 45t15 64q0 40-16 66t-42.5 41q-26.5 15-60 20.5T366 355q-9 0-23-1t-27.5-2q-13.5-1-25-3t-16.5-3V83q15-4 42-5t53-1z"/><glyph unicode="Ы" horiz-adv-x="846" d="M657 700h100V0H657zm-568 0h100V433q6 1 16 2.5t22.5 2.5q12.5 1 26 2t26.5 1q52 0 101-10t87-34.5q38-24.5 60.5-65.5T551 228q0-60-21.5-105T470 49q-38-29-91-43.5T262-9q-15 0-36 .5T181.5-6Q158-4 134-1T89 7zM270 77q37 0 69 9t55.5 27q23.5 18 37 45t13.5 63q0 40-15 66t-39.5 41q-24.5 15-57 21t-68.5 6q-19 0-42-3t-34-6V83q14-4 34.5-5t46.5-1z"/><glyph unicode="Ь" horiz-adv-x="609" d="M89 700h100V433q5 1 17.5 2.5t28 2.5q15.5 1 31.5 2t29 1q52 0 102-10t89.5-34q39.5-24 64-65.5T575 227q0-60-23.5-104.5t-64-73.5Q447 20 392 5.5T273-9q-15 0-37.5.5t-48 2.5q-25.5 2-51 5T89 7zM284 77q37 0 70.5 8.5t59 26.5q25.5 18 40.5 45t15 65q0 40-16 66t-42.5 41Q384 344 350 349.5t-69 5.5q-9 0-23-1t-27.5-2q-13.5-1-25-3t-16.5-3V83q14-4 41-5t54-1z"/><glyph unicode="Э" horiz-adv-x="631" d="M161 399h305q-10 116-73 171.5T230 627q-53 1-94-10t-65-25l-24 80q33 19 84.5 30T240 713q70 0 130.5-20T476 629.5Q521 586 547 517t26-167q0-99-30-168T463.5 69.5Q414 26 349.5 6.5T216-13q-55 0-98.5 8.5T45 15l26 86q25-12 65.5-20t86.5-8q43 0 85 12.5t75.5 41q33.5 28.5 56 74.5T467 313H161z"/><glyph unicode="Ю" horiz-adv-x="978" d="M189 401h130q11 150 88 231t214 81q79 0 136-26t93-74q36-48 53-115t17-148q0-173-75.5-268T621-13q-74 0-129 23.5t-92.5 66Q362 119 342 179t-24 134H189V0H89v700h100zm236-51q0-56 10.5-106.5T469 155q23-38 60.5-60T621 73q97 0 145 67t48 210q0 55-9.5 105.5t-32 88.5Q750 582 713 604.5T621 627q-97 0-146.5-68T425 350z"/><glyph unicode="Я" horiz-adv-x="624" d="M535 0H435v298l-107-22L141 0H25l169 244 66 44q-39 7-72 22.5T130.5 351q-24.5 25-38 59T79 489q0 61 23 103t62 68q39 26 92 37.5T369 709q37 0 81.5-3.5T535 693zM363 623q-35 0-67-6t-56.5-21Q215 581 200 555.5T185 490q0-37 14-62.5t38.5-41q24.5-15.5 57-22.5t69.5-7h71v260q-14 4-30 5t-42 1z"/><glyph unicode="а" horiz-adv-x="582" d="M82 492q90 43 223 43 60 0 96.5-15.5T458 480q20-24 26.5-53.5T491 368q0-55-4-110.5T483 137q0-38 3.5-73.5T498-2h-67l-25 80h-10q-11-15-27-30.5T331 20Q309 8 280.5 0T215-8q-37 0-68 10.5T93.5 32Q71 51 58 78.5T45 140q0 45 19.5 78t50.5 54q31 21 70.5 31t78.5 10q31 0 52.5-1t36-2.5q14.5-1.5 24.5-3t18-2.5q2 15 3 26t1 28q0 28-6 47t-19.5 30.5Q360 447 337 452t-56 5q-19 0-42-3t-46-8.5q-23-5.5-45.5-13.5T107 415zm313-254q-8 1-17 3t-22.5 3q-13.5 1-32 2t-45.5 1q-62 0-98.5-22T143 150q0-40 28.5-60T245 70q33 0 58.5 8.5t44 21q18.5 12.5 30 28T395 158z"/><glyph unicode="б" horiz-adv-x="635" d="M155 419q37 50 83.5 71T353 511q105 0 163.5-63T575 264q0-69-17.5-121.5t-50.5-87q-33-34.5-80-52T321-14q-128 0-192.5 78T64 309q0 90 10 153t29.5 105q19.5 42 47 66.5T212 671q34 13 74.5 18t86.5 9q58 5 93 11t57 21l10-81q-23-15-61.5-21.5T364 616q-48-3-85.5-11T213 577q-28-20-45-57.5T145 421zm7-169q0-38 9-71.5t28.5-59Q219 94 249 79t71-15q157 0 157 191 0 38-8.5 70.5t-26 56.5q-17.5 24-45 37.5T333 433q-90 0-130.5-47.5T162 250z"/><glyph unicode="в" horiz-adv-x="582" d="M88 525l38 2q32 2 70 4.5t88 2.5q116 0 166.5-32.5T501 405q0-35-24.5-70.5T399 283v-11q66-13 94.5-44t28.5-82q0-79-65-116.5T261-8q-44 0-83 2.5T102 0q-4 0-7 .5T88 1zm92-453q22-3 43-4.5t52-1.5q79 0 114 20.5t35 67.5q0 19-7 35t-23 27q-16 11-43.5 17.5T283 240H180zm114 231q22 0 42 6t36 17q16 11 25.5 25.5T407 383q0 42-28.5 58.5T281 458q-23 0-46.5-1.5T180 454V303z"/><glyph unicode="г" horiz-adv-x="426" d="M426 447H180V0H88v525h338z"/><glyph unicode="д" horiz-adv-x="624" d="M600-132h-63L521 0H79L61-132H0V78h67q10 12 25.5 42t30.5 83.5Q138 257 149.5 336T162 525h353V78h85zM423 78v369H245q-3-45-9-96t-16.5-100.5Q209 201 195 156t-33-78z"/><glyph unicode="е" horiz-adv-x="598" d="M515 43q-35-26-87-41.5T315-14q-66 0-114.5 19.5T121 61q-31 36-46 87T60 262q0 135 66.5 206.5T316 540q39 0 78-8.5t70-32q31-23.5 50.5-64.5T534 328q0-16-1-37t-4-41H154q2-92 44-139t143-47q42 0 80 14.5t59 34.5zm-69 273q2 80-32.5 113T317 462q-70 0-111-33t-48-113z"/><glyph unicode="ж" horiz-adv-x="774" d="M278 232L114 0H6l175 237 45 35-63 43L19 525h100l153-227h66v227h90V287l60 16 154 222h99L590 316l-48-38 62-44L768 0H657L493 236h-65V0h-90v248z"/><glyph unicode="з" horiz-adv-x="516" d="M148 233v70h77q22 0 42.5 6t36.5 16.5q16 10.5 25.5 25T339 382q0 42-31 58t-94 16q-44 0-80.5-9.5T74 427l-25 70q65 37 195 37 94 0 142-33t48-96q0-17-6.5-35T408 335.5q-13-16.5-31.5-30T334 285v-11q68-12 95-44.5t27-84.5q0-33-15-61.5T396 34q-30-21-75.5-33T215-11q-59 0-97.5 8T48 20l24 73q27-14 65-20t83-6q138 0 138 87 0 39-33 59t-115 20z"/><glyph unicode="и" horiz-adv-x="631" d="M451 300l14 104h-11l-49-98L159 0H88v525h92V215l-7-92h11l46 89 241 313h72V0h-92z"/><glyph unicode="й" horiz-adv-x="631" d="M451 300l14 104h-11l-49-98L159 0H88v525h92V215l-7-92h11l46 89 241 313h72V0h-92zM230 712q5-22 14-35t21-19.5q12-6.5 27.5-8T325 648q17 0 32.5 2t27.5 9q12 7 21 19t14 33h72q-11-80-57.5-104T323 583q-31 0-60 5t-52.5 17q-23.5 12-40 31.5T148 686z"/><glyph unicode="к" horiz-adv-x="547" d="M237 236h-57V0H88v525h92V286l55 18 179 221h101L344 321h1l-54-39 65-45L541 0H425z"/><glyph unicode="л" horiz-adv-x="584" d="M404 447H234l-2-30q-7-99-16.5-177.5t-27.5-133q-18-54.5-48-83T62-5Q40-5 23-2.5T-6 5L8 89q13-4 29-4 24 0 43 17.5t33 65.5q14 48 23 134t13 223h347V0h-92z"/><glyph unicode="м" horiz-adv-x="752" d="M574 297l6 107h-12l-45-82-135-199h-31L215 322l-40 82h-11l9-106V0H88v525h96l157-231 38-73 42 75 147 229h96V0h-90z"/><glyph unicode="н" horiz-adv-x="624" d="M444 229H180V0H88v525h92V311h264v214h92V0h-92z"/><glyph unicode="о" horiz-adv-x="631" d="M60 262q0 65 17 116.5t50 87.5q33 36 80.5 55T316 540q64 0 112-21t80-58.5q32-37.5 47.5-88T571 262q0-64-17.5-115t-50-87q-32.5-36-80-55T316-14q-66 0-114 21t-79.5 58q-31.5 37-47 87.5T60 262zm98 0q0-37 8.5-72.5T194 126q19-28 49-45t74-17q156 0 156 198 0 39-8.5 75t-27 63.5Q419 428 389 445t-72 17q-78 0-118.5-49.5T158 262z"/><glyph unicode="п" horiz-adv-x="618" d="M438 447H180V0H88v525h442V0h-92z"/><glyph unicode="р" horiz-adv-x="630" d="M88 525h62l18-67h9q27 39 70 60.5t97 21.5q114 0 170-63.5T570 274q0-66-18.5-119.5t-53-91Q464 26 414.5 6T304-14q-20 0-36.5 1.5t-30.5 5q-14 3.5-28 8T180 11v-211H88zm235-63q-60 0-94-30t-49-92V98q23-16 50-25t69-9q81 0 127 53t46 158q0 85-34 136t-115 51z"/><glyph unicode="с" horiz-adv-x="529" d="M484 36q-35-25-82-37.5T303-14q-66 0-112.5 20T115 62q-29 36-42 87T60 262q0 133 64.5 205.5T310 540q53 0 92-9.5t70-23.5l-24-75q-27 14-58.5 22t-68.5 8q-163 0-163-200 0-38 9-73.5t29-63Q216 98 248.5 81T328 64q42 0 73.5 11.5T454 103z"/><glyph unicode="т" horiz-adv-x="456" d="M456 447H274V0h-92v447H0v78h456z"/><glyph unicode="у" horiz-adv-x="531" d="M251 193l31-101h13l25 102 109 331h94L351 50q-19-49-38.5-95t-43-81.5q-23.5-35.5-52-57T152-205q-40 0-68 9l15 78q15-5 30-5 20 0 36.5 5t30.5 18q14 13 25.5 36.5T243-3L8 525h109z"/><glyph unicode="ф" horiz-adv-x="800" d="M355-3q-24-8-45.5-9.5T271-14q-104 0-160.5 68.5T54 262q0 131 62 202t180 71q14 0 28.5-1t30.5-5v171h90V528q26 5 43 6t30 1q113 0 170.5-62T746 273q0-64-15.5-117t-45-90.5Q656 28 612.5 7T514-14q-11 0-32 2.5T445-4v-196h-90zm143 464q-16 0-27-1t-28-6V64q15-3 29.5-3.5T504 60q74 0 111 55t37 158q0 43-8 78t-26 59.5Q600 435 570.5 448T498 461zM297 60q13 0 26.5 1t33.5 5v388q-18 4-30 5.5t-28 1.5q-72 0-111.5-48.5T148 262q0-43 8.5-80t27-64Q202 91 230 75.5T297 60z"/><glyph unicode="х" horiz-adv-x="592" d="M233 269L44 525h117l102-134 35-71 41 71 106 134h104L358 273q50-67 102-136T562 0H448L333 149l-40 75-41-75L136 0H30z"/><glyph unicode="ц" horiz-adv-x="630" d="M610-132h-62L531 0H88v525h92V78h253v447h92V78h85z"/><glyph unicode="ч" horiz-adv-x="574" d="M152 525V396q0-32 3.5-57t15-43q11.5-18 32-27.5T256 259q51 0 85.5 11.5T394 296v229h92V0h-92v223q-19-12-58-27t-104-15q-42 0-74.5 9t-54 31Q82 243 71 279.5T60 371v154z"/><glyph unicode="ш" horiz-adv-x="856" d="M88 0v525h92V78h202v447h92V78h202v447h92V0z"/><glyph unicode="щ" horiz-adv-x="872" d="M852-132h-61L774 0H88v525h92V78h202v447h92V78h202v447h92V78h84z"/><glyph unicode="ъ" horiz-adv-x="583" d="M227 78q43-6 86-6 73 0 107.5 25.5T455 168q0 40-33.5 67T316 262q-20 0-43-1.5t-46-6.5zm0 246q32 5 60 6.5t49 1.5q59 0 100.5-12t67.5-33q26-21 37.5-49.5T553 176q0-95-63-138.5T294-6q-42 0-81 1t-78 4v448H6v78h221z"/><glyph unicode="ы" horiz-adv-x="771" d="M180 78q42-6 86-6 72 0 101 25t29 71q0 40-28.5 67T269 262q-19 0-42.5-1.5T180 254zm0 246q32 5 59.5 6.5T289 332q58 0 97.5-12t63.5-33q24-21 34-49.5t10-61.5q0-95-58-138.5T247-6q-42 0-81 1T88-1v526h92zm411 201h92V0h-92z"/><glyph unicode="ь" horiz-adv-x="535" d="M180 78q42-6 85-6 73 0 107.5 25.5T407 168q0 40-33.5 67T268 262q-19 0-42-1.5t-46-6.5zm0 246q32 5 59 6.5t48 1.5q60 0 101.5-12t67.5-33q26-21 37.5-49.5T505 176q0-95-63-138.5T245-6q-42 0-80 1T88-1v526h92z"/><glyph unicode="э" horiz-adv-x="543" d="M143 304h241q-6 72-47.5 115T217 462q-47 0-81.5-12.5T78 423l-30 68q35 23 81 36t108 13q63 0 109.5-19t77-55q30.5-36 45-87.5T483 262q0-134-68-205T228-14q-54 0-102 8.5T48 20l25 76q27-14 65-23t76-9q81 0 122.5 38.5T385 226H143z"/><glyph unicode="ю" horiz-adv-x="841" d="M543-14q-62 0-106 18t-73 50q-29 32-43.5 77.5T302 232H180V0H88v525h92V310h123q10 109 68.5 169.5T545 540q63 0 107.5-20.5t73-57.5q28.5-37 42-88T781 262q0-130-59-203T543-14zM394 262q0-41 7-77t24-63q17-27 46-42.5T544 64q75 0 107 48t32 150q0 40-6.5 76.5t-22.5 64Q638 430 611 446t-68 16q-79 0-114-48.5T394 262z"/><glyph unicode="я" horiz-adv-x="578" d="M398 207l-95-13L154 0H40l132 172v-1l56 38q-70 8-110.5 49.5T77 360q0 47 18 81t51.5 56q33.5 22 81 32T334 539q38 0 79.5-5t76.5-13V0h-92zm0 57v189q-16 5-36.5 6.5T326 461q-75 0-113-24t-38-76q0-50 44.5-75T336 263z"/><glyph unicode="ё" horiz-adv-x="598" d="M515 43q-35-26-87-41.5T315-14q-66 0-114.5 19.5T121 61q-31 36-46 87T60 262q0 135 66.5 206.5T316 540q39 0 78-8.5t70-32q31-23.5 50.5-64.5T534 328q0-16-1-37t-4-41H154q2-92 44-139t143-47q42 0 80 14.5t59 34.5zm-69 273q2 80-32.5 113T317 462q-70 0-111-33t-48-113zM141 633q0 24 16 40t42 16q25 0 40.5-16t15.5-40q0-23-15.5-39T199 578q-26 0-42 16t-16 39zm215 0q0 24 15.5 40t41.5 16q26 0 41.5-16t15.5-40q0-23-15.5-39T413 578q-26 0-41.5 16T356 633z"/><glyph unicode="ђ" horiz-adv-x="636" d="M0 600h97v100h92V600h168v-66H189V372h11q31 36 73 57t104 21q48 0 83.5-10.5t58.5-37q23-26.5 34-71T564 218V-24q0-93-33.5-137.5T421-206q-20 0-42 3v75q31-1 49 6.5T456-98q10 16 13 41t3 58v200q0 42-5.5 73.5t-20 53.5q-14.5 22-39 33T345 372q-27 0-52.5-9.5T246 336q-21-17-36-40.5T189 244V0H97v534H0z"/><glyph unicode="ѓ" horiz-adv-x="426" d="M426 447H180V0H88v525h338zM266 720h104v-23L258 570h-56z"/><glyph unicode="є" horiz-adv-x="566" d="M506 35q-35-23-84-36T321-14q-66 0-115 20t-81.5 56Q92 98 76 149T60 262q0 66 19.5 118t54.5 87q35 35 84.5 53.5T327 539q56 0 97-8.5t72-22.5l-25-78q-28 14-61 22.5t-70 8.5q-78 0-124.5-37.5T158 305h265v-78H158q4-34 16.5-64t35.5-52q23-22 57-34.5T349 64q40 0 74 12t57 27z"/><glyph unicode="ѕ" horiz-adv-x="499" d="M353 147q0 20-9.5 33.5t-25.5 23q-16 9.5-37 16.5t-44 14q-29 8-58.5 17.5t-53 26Q102 294 87 320t-15 66q0 78 46.5 116T249 540q63 0 106-12t75-26l-22-78q-27 13-64.5 25.5T261 462q-49 0-73-16t-24-58q0-17 9-28.5t24-20q15-8.5 35-15t42-12.5q30-8 60-18.5t55-28q25-17.5 40.5-44.5t15.5-68q0-74-50-120.5T245-14q-64 0-111.5 13T54 29l26 80q28-15 72-30t89-15q49 0 80.5 17.5T353 147z"/><glyph unicode="і" horiz-adv-x="317" d="M114 525h92V0h-92zM92 650q0 23 18 41.5t47 18.5q29 0 48-18.5t19-41.5q0-23-19-40.5T157 592q-29 0-47 17.5T92 650z"/><glyph unicode="ї" horiz-adv-x="337" d="M40 649q0 24 14 39.5T93 704q26 0 39.5-15.5T146 649q0-22-13.5-37T93 597q-25 0-39 15t-14 37zm151 0q0 24 13.5 39.5T243 704q26 0 40-15.5t14-39.5q0-22-14-37t-40-15q-25 0-38.5 15T191 649zm-66-124h92V0h-92z"/><glyph unicode="ј" horiz-adv-x="312" d="M112 525h92V-18q0-97-36.5-144.5T50-210H32.5q-9.5 0-20.5 2v76q33-1 52.5 8t30 27.5q10.5 18.5 14 46T112 15zM90 650q0 23 18 41.5t47 18.5q29 0 48-18.5t19-41.5q0-23-19-40.5T155 592q-29 0-47 17.5T90 650z"/><glyph unicode="љ" horiz-adv-x="851" d="M496 324q32 5 59 6.5t48 1.5q60 0 101.5-12t67.5-33q26-21 37.5-49.5T821 176q0-95-63-138.5T561-6q-42 0-80 1t-77 4v448H234l-2-30q-7-99-16.5-177.5t-27.5-133q-18-54.5-48-83T62-5Q40-5 23-2.5T-6 5L8 89q13-4 29-4 24 0 43 17.5t33 65.5q14 48 23 134t13 223h347zm0-246q42-6 85-6 73 0 107.5 25.5T723 168q0 40-33.5 67T584 262q-19 0-42-1.5t-46-6.5z"/><glyph unicode="њ" horiz-adv-x="916" d="M547 79q28-4 52-5.5t44-1.5q82 0 113.5 25.5T788 175q0 22-7 39.5t-23.5 30Q741 257 714 263.5t-67 6.5q-20 0-45.5-2t-54.5-8zm0 257q37 7 68.5 9.5T668 348q62 0 103.5-13t67-35.5Q864 277 875 247t11-64q0-99-61.5-144T622-6q-42 0-84 3t-83 6v227H180V0H88v525h92V312h275v213h92z"/><glyph unicode="ћ" horiz-adv-x="633" d="M0 600h94v101h92V600h171v-66H186V372h12q32 36 73.5 56.5T375 449q48 0 83-10t58-36q23-26 34-70.5T561 220V0h-92v199q0 43-5.5 75t-20 53.5Q429 349 404.5 360T342 371q-27 0-52-9.5T244 335q-21-17-36-39.5T186 246V0H94v534H0z"/><glyph unicode="ќ" horiz-adv-x="547" d="M237 236h-57V0H88v525h92V286l55 18 179 221h101L344 321h1l-54-39 65-45L541 0H425zm68 484h104v-23L297 570h-56z"/><glyph unicode="ў" horiz-adv-x="531" d="M251 193l31-101h13l25 102 109 331h94L351 50q-19-49-38.5-95t-43-81.5q-23.5-35.5-52-57T152-205q-40 0-68 9l15 78q15-5 30-5 20 0 36.5 5t30.5 18q14 13 25.5 36.5T243-3L8 525h109zm-58 519q5-22 14-35t21-19.5q12-6.5 27.5-8T288 648q17 0 32.5 2t27.5 9q12 7 21 19t14 33h72q-11-80-57.5-104T286 583q-31 0-60 5t-52.5 17q-23.5 12-40 31.5T111 686z"/><glyph unicode="џ" horiz-adv-x="618" d="M180 525V78h258v447h92V0H361l-16-178h-63L260 0H88v525z"/><glyph unicode="Ѣ" horiz-adv-x="682" d="M0 627h162v93h100v-93h225v-82H262V431q6 1 18.5 2.5t28 3Q324 438 340 439t29 1q52 0 102-10t89.5-34q39.5-24 63.5-65t24-103q0-60-23.5-105t-64-74Q520 20 465 5.5T346-9q-15 0-37.5.5t-48 2.5q-25.5 2-51 5T162 7v538H0zM358 77q37 0 70.5 8.5T487 112q25 18 40 45t15 64q0 40-16 66t-42.5 41q-26.5 15-60 20.5T354 354q-9 0-23-1t-27.5-2q-13.5-1-25-3t-16.5-3V83q14-4 41.5-5t54.5-1z"/><glyph unicode="ѣ" horiz-adv-x="576" d="M0 525h129v175h92V525h185v-72H221V324q34 4 61.5 6t47.5 2q59 0 100-12t67-33q26-21 37.5-50t11.5-62q0-94-63-137.5T286-6q-39 0-79 .5T129-2v455H0zM221 77q25-3 46-4t39-1q75 0 108.5 24t33.5 72q0 43-33 68.5T311 262q-20 0-43-1.5t-47-6.5z"/><glyph unicode="Ѳ" horiz-adv-x="747" d="M58 350q0 86 21.5 153.5t62 114q40.5 46.5 99 71T373 713q79 0 138.5-26.5t99-74Q650 565 669.5 498T689 350q0-86-21.5-153.5T605 82.5q-41-46.5-99.5-71T373-13q-80 0-139 26.5t-98 74Q97 135 77.5 202T58 350zm106-38q4-50 18.5-94t40.5-76q26-32 63-50.5T373 73q90 0 146 58t64 181zm419 84q-5 48-20 90t-41 73.5Q496 591 459 609t-86 18q-88 0-143.5-56.5T165 396z"/><glyph unicode="ѳ" horiz-adv-x="631" d="M60 262q0 132 66 205t190 73q64 0 112-20.5t79.5-57.5q31.5-37 47-88T571 262q-1-131-67.5-203.5T316-14q-66 0-114.5 20.5t-80 57Q90 100 75 151T60 262zm413 33q-13 83-53 125t-104 42q-30 0-57-8.5T210 425q-22-20-36-52t-16-78zm-314-66q7-78 50.5-121.5T316 64q28 0 54 9t47 28.5q21 19.5 35 51t18 76.5z"/><glyph unicode="Ѵ" horiz-adv-x="659" d="M340-10h-51L-5 700h110l189-466 27-109h2l18 111 82 251q22 66 41.5 109t41.5 68q22 25 49 34.5t65 9.5q38 0 60.5-6.5T723 684l-27-82q-22 12-40.5 15t-35.5 3q-29 0-49-21.5T531 518z"/><glyph unicode="ѵ" horiz-adv-x="582" d="M298-11h-40L8 525h106l135-301 32-121 8 1 30 121 47 109q18 43 35.5 79.5t38 63.5q20.5 27 45 42t56.5 15q20 0 37-3.5t32-8.5v-78q-26 4-34.5 6t-17.5 2q-21 0-41.5-17.5T474 372z"/><glyph unicode="Ҋ" horiz-adv-x="760" d="M555 463l6 77h-4l-48-79L150 0H89v700h100V234l-9-76h5l50 79 358 463h62V88h117V64L672-130h-66L656 0H555zM280 871q5-36 30.5-54.5T378 798q42 0 67.5 18.5T476 870l84-18q-13-55-57-86t-126-31q-79 0-129.5 27T187 850z"/><glyph unicode="ҋ" horiz-adv-x="655" d="M451 300l14 104h-11l-49-98L159 0H88v525h92V215l-7-92h11l46 89 241 313h72V78h100V54L543-132h-66L527 0h-76zM223 712q5-22 14-35t21-19.5q12-6.5 27.5-8T318 648q17 0 32.5 2t27.5 9q12 7 21 19t14 33h72q-11-80-57.5-104T316 583q-31 0-60 5t-52.5 17q-23.5 12-40 31.5T141 686z"/><glyph unicode="Ҍ" horiz-adv-x="682" d="M0 627h162v93h100v-93h225v-82H262V431q6 1 18.5 2.5t28 3Q324 438 340 439t29 1q52 0 102-10t89.5-34q39.5-24 63.5-65t24-103q0-60-23.5-105t-64-74Q520 20 465 5.5T346-9q-15 0-37.5.5t-48 2.5q-25.5 2-51 5T162 7v538H0zM358 77q37 0 70.5 8.5T487 112q25 18 40 45t15 64q0 40-16 66t-42.5 41q-26.5 15-60 20.5T354 354q-9 0-23-1t-27.5-2q-13.5-1-25-3t-16.5-3V83q14-4 41.5-5t54.5-1z"/><glyph unicode="ҍ" horiz-adv-x="576" d="M0 525h129v175h92V525h185v-72H221V324q34 4 61.5 6t47.5 2q59 0 100-12t67-33q26-21 37.5-50t11.5-62q0-94-63-137.5T286-6q-39 0-79 .5T129-2v455H0zM221 77q25-3 46-4t39-1q75 0 108.5 24t33.5 72q0 43-33 68.5T311 262q-20 0-43-1.5t-47-6.5z"/><glyph unicode="Ҏ" horiz-adv-x="614" d="M89 693q42 9 91.5 12.5T278 709q51 0 103.5-9t95.5-33q43-24 70.5-66.5T575 491q0-75-34-123.5T453 293l73-102-55-39-83 118q-26-7-54-10t-56-3q-6 0-18.5.5t-26 1q-13.5.5-26 1.5t-18.5 2V0H89zm233-222l73-106q32 15 53 44.5t21 80.5q0 40-17 66t-44 41q-27 15-60.5 20.5T281 623q-27 0-52.5-1t-39.5-5V348q5-2 16.5-2.5t24-1.5q12.5-1 24-1H271q17 0 34 1t34 4l-65 90z"/><glyph unicode="ҏ" horiz-adv-x="630" d="M88 525h62l18-67h9q27 39 70 60.5t97 21.5q114 0 170-63.5T570 274q0-66-18.5-118.5T499 65l67-74-58-54-72 79Q407 2 374.5-6T304-14q-20 0-36.5 1.5t-30.5 5q-14 3.5-28 8T180 11v-211H88zm284-331l60-68q19 26 29.5 63.5T472 275q0 85-34 136t-115 51q-60 0-94-30t-49-92V98q23-16 50-25t69-9q50 0 85 19l-64 68z"/><glyph unicode="Ґ" horiz-adv-x="486" d="M420 700l18 138h66V612H189V0H89v700z"/><glyph unicode="ґ" horiz-adv-x="426" d="M342 525l18 138h66V447H180V0H88v525z"/><glyph unicode="Ғ" horiz-adv-x="532" d="M529 612H214V386h237v-74H214V0H114v312H9v74h105v314h415z"/><glyph unicode="ғ" horiz-adv-x="448" d="M424 447H178V288h219v-70H178V0H86v218H0v70h86v237h338z"/><glyph unicode="Ҕ" horiz-adv-x="632" d="M189 0H89v700h415v-88H189V360q14 4 51.5 12.5T338 381q43 0 85.5-11t76.5-39q34-28 54.5-75T575 137q0-135-66.5-200T317-128q-35 0-51 1t-24 3v87q13-2 30-2.5t47-.5q73 0 111.5 41.5T469 130q0 48-13 80t-35 51q-22 19-51.5 26.5T307 295q-18 0-37-2.5t-35-6q-16-3.5-28.5-7T189 274z"/><glyph unicode="ҕ" horiz-adv-x="616" d="M180 0H88v525h335v-78H180V262q29 8 65 16t88 8q45 0 85-12.5t71-41q31-28.5 49-75T556 43q0-135-60-201.5T304-225q-27 0-46.5 2t-29.5 3v78q10-1 34-3t45-2q81 0 118 48.5T462 32q0 88-42.5 131T301 206q-40 0-72.5-10T180 180z"/><glyph unicode="Җ" horiz-adv-x="897" d="M392 700h94V378l46 14 213 308h111L640 396l-45-33 56-41L824 88h67v-216h-69L806 0h-37L535 320h-49V0h-94v332l-46-14L113 0H-2l236 312 53 38-51 36L13 700h116l214-310h49z"/><glyph unicode="җ" horiz-adv-x="800" d="M493 236h-65V0h-90v248l-60-16L114 0H6l175 237 45 35-63 43L19 525h100l153-227h66v227h90V287l60 16 154 222h99L590 316l-48-38 62-44L710 78h78v-210h-65L707 0h-50z"/><glyph unicode="Ҙ" horiz-adv-x="589" d="M149 327v78h40.5q14.5 0 30 1t30 1.5q14.5.5 23.5 2.5 54 7 92 34.5t38 73.5q0 31-11.5 51.5t-32 33Q339 615 312 620.5t-57 5.5q-58 0-101-9t-66-20l-27 80q10 6 31 12t48.5 11q27.5 5 61 8.5T270 712q44 0 87-8.5t76.5-28.5q33.5-20 54.5-53t21-83q0-50-35.5-95T366 379v-4q77-11 121.5-53.5T532 207q0-51-20-90t-54-66q-34-27-77.5-42.5T289-11l-15-167h-63L190-11q-50 3-86 10T44 16l25 88q26-11 71.5-20T252 75q31 0 62 7.5t56 23q25 15.5 40.5 40T426 204q0 60-46.5 88T250 325q-13 1-23 1.5t-24 .5z"/><glyph unicode="ҙ" horiz-adv-x="516" d="M148 233v70h77q22 0 42.5 6t36.5 16.5q16 10.5 25.5 25T339 382q0 42-31 58t-94 16q-44 0-80.5-9.5T74 427l-25 70q65 37 195 37 94 0 142-33t48-96q0-17-6.5-35T408 335.5q-13-16.5-31.5-30T334 285v-11q68-12 95-44.5t27-84.5q0-57-46-99.5T271-8l-15-170h-63L172-10Q131-7 102 .5T48 20l24 74q27-14 65-20t83-6q138 0 138 86 0 39-33 59t-115 20z"/><glyph unicode="Қ" horiz-adv-x="673" d="M238 318h-49V0H89v700h100V378l46 14 252 308h114L349 400l-47-34 55-40L560 88h104v-216h-69L579 0h-70z"/><glyph unicode="қ" horiz-adv-x="564" d="M180 525V286l55 18 179 221h101L344 321h1l-54-39 65-45L477 78h72v-210h-65L468 0h-43L237 236h-57V0H88v525z"/><glyph unicode="Ҝ" horiz-adv-x="753" d="M247 318h-58V0H89v700h100V378l58 4v128h76V389l25 3 226 308h112L457 400l-48-34 56-39L719 0H597L350 318h-27V190h-76z"/><glyph unicode="ҝ" horiz-adv-x="650" d="M252 233h-72V0H88v526h92V277l72 6v139h63V289l43 5 137 231h90L467 323l-66-46 74-52L634 0H529L363 233h-48V110h-63z"/><glyph unicode="Ҟ" horiz-adv-x="732" d="M0 638h151v62h100v-62h128v-78H251V378l55 14 246 308h112L418 400l-52-34 58-39L698 0H572L304 318h-53V0H151v556H0z"/><glyph unicode="ҟ" horiz-adv-x="566" d="M0 615h97v85h92v-85h168v-66H189V286l52 17 174 222h108L356 322h1l-55-40 63-45L550 0H434L246 236h-57V0H97v549H0z"/><glyph unicode="Ҡ" horiz-adv-x="756" d="M275 700V378l46 14 252 308h114L436 400l-48-34 56-40L721 0H595L324 318h-49V0H175v612H0v88z"/><glyph unicode="ҡ" horiz-adv-x="587" d="M221 287l55 17 179 221h101L385 322l-54-42 67-44L581 0H466L278 236h-57V0h-92v447H0v78h221z"/><glyph unicode="Ң" horiz-adv-x="770" d="M544 313H189V0H89v700h100V401h355v299h100V88h97v-216h-69L656 0H544z"/><glyph unicode="ң" horiz-adv-x="629" d="M444 229H180V0H88v525h92V311h264v214h92V78h73v-210h-65L528 0h-84z"/><glyph unicode="Ҥ" horiz-adv-x="941" d="M959 612H644V0H544v313H189V0H89v700h100V401h355v299h415z"/><glyph unicode="ҥ" horiz-adv-x="777" d="M444 229H180V0H88v525h92V311h264v214h333v-78H536V0h-92z"/><glyph unicode="Ҧ" horiz-adv-x="1073" d="M630 225V0H530v612H189V0H89v700h541V360q14 4 52 12.5t98 8.5q43 0 85.5-11t76-39q33.5-28 54.5-75t21-119q0-135-67.5-200T759-128q-35 0-51 1t-24 3v85q13-2 30-2.5t47-.5q73 0 111.5 42T911 130q0 49-13 80.5T863 261q-22 19-51.5 26.5T749 295q-18 0-37-2.5t-35-6q-16-3.5-28.5-7T630 274z"/><glyph unicode="ҧ" horiz-adv-x="960" d="M530 0h-92v447H182V0H88v525h442V260q30 9 66 17t85 8q44 0 84.5-12.5t72-41q31.5-28.5 50-74.5T906 43q0-136-60-201.5T657-224q-29 0-49 4t-29 5v77q9 0 31-4t48-4q81 0 117.5 47T812 33q0 44-12 77t-33 54.5q-21 21.5-50.5 32T652 207q-35 0-66.5-8T530 184z"/><glyph unicode="Ҩ" horiz-adv-x="899" d="M387 627q-50 0-91-17t-70-51.5q-29-34.5-45.5-86T164 353q0-60 19-111t52.5-88.5Q269 116 314 94.5T411 73q11 0 25.5 1t25.5 5q-34 19-61 48.5t-45.5 67Q337 232 327 275t-10 88q0 76 20 135.5t54.5 99.5q34.5 40 82 61T575 680q61 0 107.5-20t78-56.5q31.5-36.5 48-89T825 398q0-60-14-111.5t-37.5-93Q750 152 719 122t-64-47q5-1 10.5-1.5T677 73q41 0 72.5 9t52.5 23l30-79Q812 9 780-2t-90-11q-36 0-73 10t-61 24q-62-34-145-34-82 0-147.5 26t-111 73.5Q107 134 82.5 201T58 350q0 85 22.5 152.5T146 617q43 47 103.5 71.5T387 713zm36-269q0-33 8.5-69.5T458 218q18-34 44.5-63t62.5-48q29 15 56.5 41.5t49.5 63q22 36.5 35 82t13 98.5q0 41-7.5 78T687 534.5Q670 562 643 578t-65 16q-31 0-59-13.5T469.5 538q-21.5-29-34-73.5T423 358z"/><glyph unicode="ҩ" horiz-adv-x="782" d="M312 463q-154-9-154-199 0-39 11.5-75.5t34.5-64q23-27.5 57.5-44T342 64q12 0 29.5 2.5T408 80q-44 27-73 79t-29 127q0 36 9.5 78t33.5 77.5q24 35.5 64.5 59.5T516 525q54 0 92.5-17.5t62.5-48q24-30.5 35-71.5t11-87q0-38-12.5-73.5T672 162q-20-30-46-54t-53-39q16-5 30-7t25-2q21 0 44 6t46 25q8-19 13-32t9-26l2-8Q721 8 687.5-3T613-14q-33 0-66 12t-57 30Q453 4 410.5-5T330-14q-64 0-114.5 20.5t-85 57Q96 100 78 150.5T60 261q0 128 62.5 201T312 541zm88-191q0-59 27.5-108T500 87q24 13 45.5 33.5t38 48q16.5 27.5 26 60.5t9.5 70q0 27-6.5 53.5T593 400q-13 21-32.5 34T514 447q-35 0-57-16t-34.5-41Q410 365 405 333.5t-5-61.5z"/><glyph unicode="Ҫ" horiz-adv-x="624" d="M584 30q-28-20-68.5-30T428-12l-15-166h-63L329-8q-57 9-106 35t-86 70.5q-37 44.5-58 107T58 350q0 98 30 167t78 112.5Q214 673 274 693t119 20q66 0 108-7t71-18l-22-84q-49 23-149 23-45 0-87.5-15t-76-48Q204 531 184 478.5T164 350q0-68 19-119.5t52.5-86.5q33.5-35 79-52.5T414 74q49 0 85 9t61 23z"/><glyph unicode="ҫ" horiz-adv-x="529" d="M484 36q-29-20-65-32t-77-16l-15-166h-63L243-9q-50 9-85 32t-56.5 58Q80 116 70 162T60 262q0 133 64.5 205.5T310 540q53 0 92-9.5t70-23.5l-24-75q-27 14-58.5 22t-68.5 8q-163 0-163-200 0-38 9-73t29-62.5q20-27.5 52.5-44T328 66q42 0 73.5 11.5T454 105z"/><glyph unicode="Ҭ" horiz-adv-x="610" d="M255 612H19v88h572v-88H355V88h97v-216h-69L367 0H255z"/><glyph unicode="ҭ" horiz-adv-x="456" d="M182 447H0v78h456v-78H274V78h77v-210h-65L270 0h-88z"/><glyph unicode="Ү" horiz-adv-x="617" d="M261 274L7 700h117l175-297 17-64h2l19 66 167 295h106L361 275V0H261z"/><glyph unicode="ү" horiz-adv-x="551" d="M8 525h107l136-336 31-125h8l31 126 122 335h100L327-2v-199h-92V-2z"/><glyph unicode="Ұ" horiz-adv-x="617" d="M95 287h158L7 700h117l175-297 17-64h2l19 66 167 295h106L368 287h159v-70H361V0H261v217H95z"/><glyph unicode="ұ" horiz-adv-x="551" d="M100 1h133L8 525h107l136-336 31-125h8l31 126 122 335h100L328 1h134v-66H327v-136h-92v136H100z"/><glyph unicode="Ҳ" horiz-adv-x="710" d="M279 356L48 700h119l151-230 27-58 26 58 158 230h110L401 363 589 88h112v-216h-69L616 0h-83L366 244l-31 61-28-61L136 0H26z"/><glyph unicode="ҳ" horiz-adv-x="591" d="M333 149l-40 75-41-75L136 0H30l203 269L44 525h117l102-134 35-71 41 71 106 134h104L358 273q35-48 71-97.5T501 78h74v-210h-65L494 0h-46z"/><glyph unicode="Ҵ" horiz-adv-x="918" d="M889-128h-69L804 0H255v612H19v88h529v-88H355V88h333v612h100V88h101z"/><glyph unicode="ҵ" horiz-adv-x="720" d="M700-132h-61L620 0H180v447H0v78h441v-78H272V78h251v447h92V78h85z"/><glyph unicode="Ҷ" horiz-adv-x="700" d="M176 700V479q0-67 32-103.5T309 339q51 0 94.5 12t70.5 32v317h100V88h97v-216h-69L586 0H474v298q-29-16-77.5-30.5T285 253q-47 0-85.5 11t-66 36Q106 325 91 363.5T76 458v242z"/><glyph unicode="ҷ" horiz-adv-x="577" d="M152 525V396q0-32 3.5-57t15-43q11.5-18 32-27.5T256 259q51 0 85.5 11.5T394 296v229h92V78h71v-210h-65L476 0h-82v223q-19-12-58-27t-104-15q-42 0-74.5 9t-54 31Q82 243 71 279.5T60 371v154z"/><glyph unicode="Ҹ" horiz-adv-x="675" d="M296 253h-11q-46 0-84.5 10t-66 33.5q-27.5 23.5-43 62T76 454v246h100V475q0-130 120-136v121h76V343q35 5 64.5 15.5T486 383v317h100V0H486v298q-19-10-48.5-20T372 261V140h-76z"/><glyph unicode="ҹ" horiz-adv-x="605" d="M259 197h-23q-42 0-75 9t-55.5 30.5q-22.5 21.5-34 57T60 383v142h92V416q0-34 3.5-61t14.5-45.5q11-18.5 32.5-29T259 269v142h64V273q35 6 61 16.5t41 22.5v213h92V0h-92v243q-14-10-39-20.5T323 205V74h-64z"/><glyph unicode="Һ" horiz-adv-x="662" d="M486 0v228q0 133-132 133-51 0-94.5-12T189 316V0H89v700h100V402q29 16 77 30.5T377 447q46 0 84-10.5t66-33.5q28-23 43.5-60.5T586 250V0z"/><glyph unicode="һ" horiz-adv-x="641" d="M461 0v290q0 43-5.5 74.5t-20 52.5q-14.5 21-39 31T335 458q-26 0-51-9t-46-25q-21-16-36-38.5T180 335V0H88v700h92V460h11q30 36 72 58t104 22q48 0 83-10.5t58-37q23-26.5 34-71T553 310V0z"/><glyph unicode="Ҽ" horiz-adv-x="862" d="M310 310Q328 73 558 73q49 0 91 14t71 31l25-79q-38-21-88.5-36.5T539-13q-72 0-131 19T306.5 64.5Q264 104 239 165t-29 145h-39q-47 0-79.5 11t-53 29q-20.5 18-29 42.5T2 444q1 29 7.5 45.5T30 518h91q-17-12-23-31t-6-33q0-10 3-20.5t12-19.5q9-9 26-15t45-6q8 0 15.5.5T210 395q8 152 85.5 235T513 713q138 0 209-77t71-217q0-26-2.5-53t-7.5-56zm380 86q2 12 2.5 24t.5 23q0 37-10 70.5T651 572q-22 25-55.5 40T515 627q-98 0-149.5-58.5T309 396z"/><glyph unicode="ҽ" horiz-adv-x="711" d="M628 43q-35-26-87-41.5T428-14q-65 0-112.5 18.5t-79 53q-31.5 34.5-47 83T173 250h-3q-78 0-124 33T1 390q2 29 14 50t26 36h75q-14-15-24-36t-10-47q0-16 4-30t14.5-24q10.5-10 29-15.5T176 318q14 109 78.5 165.5T429 540q39 0 78-8.5t70-32q31-23.5 50.5-64.5T647 328q0-16-1-37t-4-41H267q2-92 44-139t143-47q42 0 80 14.5t59 34.5zm-69 273q2 80-32.5 113T430 462q-70 0-111-33t-48-113z"/><glyph unicode="Ҿ" horiz-adv-x="862" d="M310 310Q328 74 558 74q49 0 91 13.5t71 30.5l25-79q-34-20-79-34T564-12l-15-166h-63L465-7Q351 10 284 87t-74 223h-39q-47 0-79.5 11t-53 29q-20.5 18-29 42.5T2 444q1 29 7.5 45.5T30 518h91q-17-12-23-31t-6-33q0-10 3-20.5t12-19.5q9-9 26-15t45-6q8 0 15.5.5T210 395q8 152 85.5 235T513 713q138 0 209-77t71-217q0-26-2.5-53t-7.5-56zm380 86q2 12 2.5 24t.5 23q0 37-10 70.5T651 572q-22 25-55.5 40T515 627q-98 0-149.5-58.5T309 396z"/><glyph unicode="ҿ" horiz-adv-x="711" d="M267 250q2-92 44-138t143-46q42 0 80 14.5t59 34.5l35-72q-29-23-71.5-37T463-12l-15-175h-63L363-9Q267 8 221 76t-48 175h-3q-78 0-124 32.5T1 390q2 29 14 50t26 36h75q-14-15-24-36t-10-47q0-16 4-30t14.5-24.5q10.5-10.5 29-16T176 317q14 109 78.5 166T429 540q39 0 78-8.5t70-32q31-23.5 50.5-64.5T647 328q0-16-1-37t-4-41zm292 66q2 80-32.5 113T430 462q-70 0-111-33t-48-113z"/><glyph unicode="Ӏ" horiz-adv-x="398" d="M149 634H69v66h260v-66h-80V66h80V0H69v66h80z"/><glyph unicode="Ӄ" horiz-adv-x="658" d="M480 72q0 126-58 186t-185 60h-48V0H89v700h100V378l46 14 252 308h114L359 416l-63-39h68q57-13 98-35.5t67.5-58q26.5-35.5 38.5-86T580 78V59q0-72-15.5-123T521-147.5Q493-180 453-195t-88-15q-9 0-18.5.5T327-208v86q42-1 71.5 8.5T446-81q18 23 26 60.5t8 92.5z"/><glyph unicode="ӄ" horiz-adv-x="559" d="M419 34q0 55-12 90t-35 55q-23 20-57 28t-79 9h-56V0H88v525h92V275l55 19 178 231h101L343 312l-52-37q20-2 31-3t17-2q6-1 8.5-1h4.5q47-12 78-35t49-52q18-29 25-62.5t7-64.5V36q0-64-15-110t-41.5-75.5Q428-179 391.5-193T312-207q-16 0-43 3v75q71-5 110.5 36.5T419 34z"/><glyph unicode="Ӆ" horiz-adv-x="684" d="M494 612H274q-5-99-11.5-180T246 285.5Q236 220 222.5 170T189 83q-26-48-60-68T58-5Q37-5 23.5-2.5T-4 5L9 89q12-3 24-3t24.5 4.5Q70 95 82 105.5t23 29.5q15 26 28 70t23 112q10 68 16.5 162.5T182 700h412V88h102V64L596-130h-66L580 0h-86z"/><glyph unicode="ӆ" horiz-adv-x="596" d="M404 447H234l-2-30q-7-99-16.5-177.5t-27.5-133q-18-54.5-48-83T62-5Q40-5 23-2.5T-6 5L8 89q13-4 29-4 24 0 43 17.5t33 65.5q14 48 23 134t13 223h347V78h88V54L484-132h-66L468 0h-64z"/><glyph unicode="Ӈ" horiz-adv-x="733" d="M644 0v-24q0-93-35-139.5T497-210q-10 0-19.5 1t-20.5 3v84q31-1 48.5 5.5t26 21Q540-81 542-57t2 57v313H189V0H89v700h100V401h355v299h100z"/><glyph unicode="ӈ" horiz-adv-x="624" d="M180 525V311h264v214h92V-24q0-93-33.5-137.5T393-206q-20 0-42 3v75q31-1 49 6.5t28 23Q438-83 441-58t3 58v229H180V0H88v525z"/><glyph unicode="Ӊ" horiz-adv-x="745" d="M544 313H189V0H89v700h100V401h355v299h100V88h113V64L657-130h-66L641 0h-97z"/><glyph unicode="ӊ" horiz-adv-x="638" d="M444 229H180V0H88v525h92V311h264v214h92V78h90V54L526-132h-66L510 0h-66z"/><glyph unicode="Ӌ" horiz-adv-x="663" d="M176 700V479q0-67 32-103.5T309 339q51 0 94.5 12t70.5 32v317h100V0H461l-16-128h-69V88h98v210q-29-16-77.5-30.5T285 253q-47 0-85.5 11t-66 36Q106 325 91 363.5T76 458v242z"/><glyph unicode="ӌ" horiz-adv-x="572" d="M392 226q-25-11-65.5-24T231 189q-85 0-128 39T60 366v159h92V397q0-30 3.5-54t14-41q10.5-17 30.5-26t53-9q51 0 85 11t54 25v222h92V0H375l-20-132h-58V78h95z"/><glyph unicode="Ӎ" horiz-adv-x="884" d="M679 451l11 112h-4l-43-97-195-310h-30L213 467l-41 95h-5l16-110V0H89v700h75l237-357 37-76h2l35 78 225 355h79V88h117V64L796-130h-66L780 0H679z"/><glyph unicode="ӎ" horiz-adv-x="768" d="M574 297l6 107h-12l-45-82-135-199h-31L215 322l-40 82h-11l9-106V0H88v525h96l157-231 38-73 42 75 147 229h96V78h92V54L656-132h-66L640 0h-66z"/><glyph unicode="ӏ" horiz-adv-x="279" d="M92 700h95V0H92z"/><glyph unicode="Ӑ" horiz-adv-x="645" d="M457 183H180L106 0H8l288 710h52L637 0H533zm-247 84h218l-81 199-27 107h-2l-27-109zm19 604q5-36 30.5-54.5T327 798q42 0 67.5 18.5T425 870l84-18q-13-55-57-86t-126-31q-79 0-129.5 27T136 850z"/><glyph unicode="ӑ" horiz-adv-x="582" d="M82 492q90 43 223 43 60 0 96.5-15.5T458 480q20-24 26.5-53.5T491 368q0-55-4-110.5T483 137q0-38 3.5-73.5T498-2h-67l-25 80h-10q-11-15-27-30.5T331 20Q309 8 280.5 0T215-8q-37 0-68 10.5T93.5 32Q71 51 58 78.5T45 140q0 45 19.5 78t50.5 54q31 21 70.5 31t78.5 10q31 0 52.5-1t36-2.5q14.5-1.5 24.5-3t18-2.5q2 15 3 26t1 28q0 28-6 47t-19.5 30.5Q360 447 337 452t-56 5q-19 0-42-3t-46-8.5q-23-5.5-45.5-13.5T107 415zm313-254q-8 1-17 3t-22.5 3q-13.5 1-32 2t-45.5 1q-62 0-98.5-22T143 150q0-40 28.5-60T245 70q33 0 58.5 8.5t44 21q18.5 12.5 30 28T395 158zM186 712q5-22 14-35t21-19.5q12-6.5 27.5-8T281 648q17 0 32.5 2t27.5 9q12 7 21 19t14 33h72q-11-80-57.5-104T279 583q-31 0-60 5t-52.5 17q-23.5 12-40 31.5T104 686z"/><glyph unicode="Ӓ" horiz-adv-x="645" d="M457 183H180L106 0H8l288 710h52L637 0H533zm-247 84h218l-81 199-27 107h-2l-27-109zm-57 528q0 23 16.5 36t45.5 13q28 0 45-13t17-36q0-22-17-35.5T215 746q-29 0-45.5 13.5T153 795zm214 0q0 23 16.5 36t44.5 13q29 0 46-13t17-36q0-22-17-35.5T428 746q-28 0-44.5 13.5T367 795z"/><glyph unicode="ӓ" horiz-adv-x="582" d="M82 492q90 43 223 43 60 0 96.5-15.5T458 480q20-24 26.5-53.5T491 368q0-55-4-110.5T483 137q0-38 3.5-73.5T498-2h-67l-25 80h-10q-11-15-27-30.5T331 20Q309 8 280.5 0T215-8q-37 0-68 10.5T93.5 32Q71 51 58 78.5T45 140q0 45 19.5 78t50.5 54q31 21 70.5 31t78.5 10q31 0 52.5-1t36-2.5q14.5-1.5 24.5-3t18-2.5q2 15 3 26t1 28q0 28-6 47t-19.5 30.5Q360 447 337 452t-56 5q-19 0-42-3t-46-8.5q-23-5.5-45.5-13.5T107 415zm313-254q-8 1-17 3t-22.5 3q-13.5 1-32 2t-45.5 1q-62 0-98.5-22T143 150q0-40 28.5-60T245 70q33 0 58.5 8.5t44 21q18.5 12.5 30 28T395 158zM119 633q0 24 16 40t42 16q25 0 40.5-16t15.5-40q0-23-15.5-39T177 578q-26 0-42 16t-16 39zm215 0q0 24 15.5 40t41.5 16q26 0 41.5-16t15.5-40q0-23-15.5-39T391 578q-26 0-41.5 16T334 633z"/><glyph unicode="Ӕ" horiz-adv-x="929" d="M429 591l-38-106-136-212h178v318zm4-402H203L83 0H-25l456 700h425v-86H533V401h295v-86H533V86h328V0H433z"/><glyph unicode="ӕ" horiz-adv-x="930" d="M397 236q-17 2-35.5 1.5T326 237q-36 0-69-4t-58.5-14Q173 209 158 192t-15-43q0-36 28.5-58.5T245 68q33 0 58 8t43.5 20q18.5 12 31 26.5T397 151zm24-144q-15-18-35-36t-45-32q-25-14-56.5-23T215-8q-37 0-68 10T93.5 31Q71 50 58 77.5T45 139q0 45 20.5 76t58 49.5q37.5 18.5 90 27T329 300q15 0 33.5-.5T398 301v3q3 24 3 53 0 56-27 78t-93 22q-18 0-40.5-2.5t-46-7q-23.5-4.5-46-11T108 423l-25 66q42 21 100 33.5T306 535q57 0 97-19t62-51q16 19 37.5 33t45.5 23.5q24 9.5 50 14t50 4.5q40 0 79-8.5t70-31.5q31-23 50-65t19-108q0-14-.5-31.5T862 252H486q1-45 11.5-80.5t33-60Q553 87 588.5 74T674 61q38 0 76 12t63 31l33-61q-34-25-88-41T648-14q-70 0-128.5 28T432 92zm356 226q1 40-7.5 67.5T744 430q-17 17-41 24.5t-54 7.5q-69 0-109-33t-50-111z"/><glyph unicode="Ӗ" horiz-adv-x="585" d="M89 700h423v-86H189V401h295v-86H189V86h328V0H89zm115 171q5-36 30.5-54.5T302 798q42 0 67.5 18.5T400 870l84-18q-13-55-57-86t-126-31q-79 0-129.5 27T111 850z"/><glyph unicode="ӗ" horiz-adv-x="598" d="M515 43q-35-26-87-41.5T315-14q-66 0-114.5 19.5T121 61q-31 36-46 87T60 262q0 135 66.5 206.5T316 540q39 0 78-8.5t70-32q31-23.5 50.5-64.5T534 328q0-16-1-37t-4-41H154q2-92 44-139t143-47q42 0 80 14.5t59 34.5zm-69 273q2 80-32.5 113T317 462q-70 0-111-33t-48-113zM223 712q5-22 14-35t21-19.5q12-6.5 27.5-8T318 648q17 0 32.5 2t27.5 9q12 7 21 19t14 33h72q-11-80-57.5-104T316 583q-31 0-60 5t-52.5 17q-23.5 12-40 31.5T141 686z"/><glyph unicode="Ә" horiz-adv-x="698" d="M163 313q-2-12-3-24t-1-24q0-37 10.5-71.5T202 132q22-27 55.5-43T337 73q97 0 149.5 59.5T540 313zm377 84q-9 118-64.5 174T310 627q-26 0-51-4.5t-47.5-11q-22.5-6.5-41-14T140 583l-23 80q32 19 88 34.5T329 713q73 0 131-20.5t98-64.5q40-44 61-113t21-165q0-173-76-268T335-13q-69 0-121.5 21T126 67.5Q91 106 73 161T55 284q0 26 3 54.5t8 58.5z"/><glyph unicode="ә" horiz-adv-x="599" d="M84 481q36 26 87.5 42T282 539q67 0 115.5-20.5t80-57Q509 425 524 374t15-112q0-65-17-116t-48.5-86.5Q442 24 396 5T292-14q-43 0-84 11t-73 37.5q-32 26.5-51.5 71T64 218q0 14 1 33.5t4 40.5h375q-5 45-15.5 77.5t-32 52.5Q375 442 341 451.5t-84 9.5q-39 0-78-14t-63-32zM293 64q65 0 106 42t42 120H158q-3-84 34.5-123T293 64z"/><glyph unicode="Ӛ" horiz-adv-x="698" d="M163 313q-2-12-3-24t-1-24q0-37 10.5-71.5T202 132q22-27 55.5-43T337 73q97 0 149.5 59.5T540 313zm377 84q-9 118-64.5 174T310 627q-26 0-51-4.5t-47.5-11q-22.5-6.5-41-14T140 583l-23 80q32 19 88 34.5T329 713q73 0 131-20.5t98-64.5q40-44 61-113t21-165q0-173-76-268T335-13q-69 0-121.5 21T126 67.5Q91 106 73 161T55 284q0 26 3 54.5t8 58.5zM172 795q0 23 16.5 36t45.5 13q28 0 45-13t17-36q0-22-17-35.5T234 746q-29 0-45.5 13.5T172 795zm214 0q0 23 16.5 36t44.5 13q29 0 46-13t17-36q0-22-17-35.5T447 746q-28 0-44.5 13.5T386 795z"/><glyph unicode="ӛ" horiz-adv-x="599" d="M84 481q36 26 87.5 42T282 539q67 0 115.5-20.5t80-57Q509 425 524 374t15-112q0-65-17-116t-48.5-86.5Q442 24 396 5T292-14q-43 0-84 11t-73 37.5q-32 26.5-51.5 71T64 218q0 14 1 33.5t4 40.5h375q-5 45-15.5 77.5t-32 52.5Q375 442 341 451.5t-84 9.5q-39 0-78-14t-63-32zM293 64q65 0 106 42t42 120H158q-3-84 34.5-123T293 64zM131 633q0 24 16 40t42 16q25 0 40.5-16t15.5-40q0-23-15.5-39T189 578q-26 0-42 16t-16 39zm215 0q0 24 15.5 40t41.5 16q26 0 41.5-16t15.5-40q0-23-15.5-39T403 578q-26 0-41.5 16T346 633z"/><glyph unicode="Ӝ" horiz-adv-x="888" d="M392 700h94V378l46 14 213 308h111L640 396l-45-33 56-41L890 0H769L535 320h-49V0h-94v332l-46-14L113 0H-2l236 312 53 38-51 36L13 700h116l214-310h49zm-121 95q0 23 16.5 36t45.5 13q28 0 45-13t17-36q0-22-17-35.5T333 746q-29 0-45.5 13.5T271 795zm214 0q0 23 16.5 36t44.5 13q29 0 46-13t17-36q0-22-17-35.5T546 746q-28 0-44.5 13.5T485 795z"/><glyph unicode="ӝ" horiz-adv-x="774" d="M278 232L114 0H6l175 237 45 35-63 43L19 525h100l153-227h66v227h90V287l60 16 154 222h99L590 316l-48-38 62-44L768 0H657L493 236h-65V0h-90v248zm-55 401q0 24 16 40t42 16q25 0 40.5-16t15.5-40q0-23-15.5-39T281 578q-26 0-42 16t-16 39zm215 0q0 24 15.5 40t41.5 16q26 0 41.5-16t15.5-40q0-23-15.5-39T495 578q-26 0-41.5 16T438 633z"/><glyph unicode="Ӟ" horiz-adv-x="589" d="M149 327v78h40.5q14.5 0 30 1t30 1.5q14.5.5 23.5 2.5 54 7 92 34.5t38 73.5q0 31-11.5 51.5t-32 33Q339 615 312 620.5t-57 5.5q-58 0-101-9t-66-20l-27 80q10 6 31 12t48.5 11q27.5 5 61 8.5T270 712q44 0 87-8.5t76.5-28.5q33.5-20 54.5-53t21-83q0-50-35.5-95T366 379v-4q77-11 121.5-53.5T532 207q0-57-25-98.5T441.5 40q-40.5-27-92-40T244-13q-72 0-121 8.5T44 16l25 86q26-11 71.5-20T252 73q31 0 62 8t56 24q25 16 40.5 40.5T426 204q0 60-46.5 88T250 325q-13 1-23 1.5t-24 .5zM95 795q0 23 16.5 36t45.5 13q28 0 45-13t17-36q0-22-17-35.5T157 746q-29 0-45.5 13.5T95 795zm214 0q0 23 16.5 36t44.5 13q29 0 46-13t17-36q0-22-17-35.5T370 746q-28 0-44.5 13.5T309 795z"/><glyph unicode="ӟ" horiz-adv-x="516" d="M148 233v70h77q22 0 42.5 6t36.5 16.5q16 10.5 25.5 25T339 382q0 42-31 58t-94 16q-44 0-80.5-9.5T74 427l-25 70q65 37 195 37 94 0 142-33t48-96q0-17-6.5-35T408 335.5q-13-16.5-31.5-30T334 285v-11q68-12 95-44.5t27-84.5q0-33-15-61.5T396 34q-30-21-75.5-33T215-11q-59 0-97.5 8T48 20l24 73q27-14 65-20t83-6q138 0 138 87 0 39-33 59t-115 20zM68 633q0 24 16 40t42 16q25 0 40.5-16t15.5-40q0-23-15.5-39T126 578q-26 0-42 16t-16 39zm215 0q0 24 15.5 40t41.5 16q26 0 41.5-16t15.5-40q0-23-15.5-39T340 578q-26 0-41.5 16T283 633z"/><glyph unicode="Ӡ" horiz-adv-x="614" d="M251 73q40 0 75 8.5t61 26q26 17.5 41 42.5t15 58q0 69-55 98.5T233 336h-95v34l197 209 48 43-67-10H61v88h457v-41L305 434l-40-30v-3l40 9q54 0 98.5-13.5t76-39q31.5-25.5 49-61.5t17.5-82q0-54-22.5-96t-62-71.5Q422 17 368 2T251-13q-23 0-51 3t-55 8q-27 5-50 12T57 25l24 86q12-7 32.5-13.5t44-12q23.5-5.5 48-9T251 73z"/><glyph unicode="ӡ" horiz-adv-x="525" d="M198-149q39 0 73.5 10.5t59.5 30q25 19.5 39.5 47T385 0q0 73-51 107.5T193 142h-80v30l161 227 63 55-89-7H28v78h417v-37L264 250l-50-42 49 7q43 0 82-15t68.5-41.5Q443 132 460 95t17-82q0-57-22-101.5t-60-75q-38-30.5-90-47T193-227q-49 0-91 8.5T24-194l25 74q30-13 66.5-21t82.5-8z"/><glyph unicode="Ӣ" horiz-adv-x="744" d="M555 463l6 77h-4l-48-79L150 0H89v700h100V234l-9-76h5l50 79 358 463h62V0H555zM204 836h350v-68H204z"/><glyph unicode="ӣ" horiz-adv-x="631" d="M451 300l14 104h-11l-49-98L159 0H88v525h92V215l-7-92h11l46 89 241 313h72V0h-92zM143 666h328v-69H143z"/><glyph unicode="Ӥ" horiz-adv-x="744" d="M555 463l6 77h-4l-48-79L150 0H89v700h100V234l-9-76h5l50 79 358 463h62V0H555zM203 795q0 23 16.5 36t45.5 13q28 0 45-13t17-36q0-22-17-35.5T265 746q-29 0-45.5 13.5T203 795zm214 0q0 23 16.5 36t44.5 13q29 0 46-13t17-36q0-22-17-35.5T478 746q-28 0-44.5 13.5T417 795z"/><glyph unicode="ӥ" horiz-adv-x="631" d="M451 300l14 104h-11l-49-98L159 0H88v525h92V215l-7-92h11l46 89 241 313h72V0h-92zM143 633q0 24 16 40t42 16q25 0 40.5-16t15.5-40q0-23-15.5-39T201 578q-26 0-42 16t-16 39zm215 0q0 24 15.5 40t41.5 16q26 0 41.5-16t15.5-40q0-23-15.5-39T415 578q-26 0-41.5 16T358 633z"/><glyph unicode="Ӧ" horiz-adv-x="747" d="M58 350q0 86 21.5 153.5t62 114q40.5 46.5 99 71T373 713q79 0 138.5-26.5t99-74Q650 565 669.5 498T689 350q0-86-21.5-153.5T605 82.5q-41-46.5-99.5-71T373-13q-80 0-139 26.5t-98 74Q97 135 77.5 202T58 350zm106 0q0-57 12.5-107t38-88q25.5-38 65-60T373 73q97 0 153.5 67T583 350q0 56-12.5 106t-38 88q-25.5 38-65 60.5T373 627q-96 0-152.5-68T164 350zm40 445q0 23 16.5 36t45.5 13q28 0 45-13t17-36q0-22-17-35.5T266 746q-29 0-45.5 13.5T204 795zm214 0q0 23 16.5 36t44.5 13q29 0 46-13t17-36q0-22-17-35.5T479 746q-28 0-44.5 13.5T418 795z"/><glyph unicode="ӧ" horiz-adv-x="631" d="M60 262q0 65 17 116.5t50 87.5q33 36 80.5 55T316 540q64 0 112-21t80-58.5q32-37.5 47.5-88T571 262q0-64-17.5-115t-50-87q-32.5-36-80-55T316-14q-66 0-114 21t-79.5 58q-31.5 37-47 87.5T60 262zm98 0q0-37 8.5-72.5T194 126q19-28 49-45t74-17q156 0 156 198 0 39-8.5 75t-27 63.5Q419 428 389 445t-72 17q-78 0-118.5-49.5T158 262zm-7 371q0 24 16 40t42 16q25 0 40.5-16t15.5-40q0-23-15.5-39T209 578q-26 0-42 16t-16 39zm215 0q0 24 15.5 40t41.5 16q26 0 41.5-16t15.5-40q0-23-15.5-39T423 578q-26 0-41.5 16T366 633z"/><glyph unicode="Ө" horiz-adv-x="747" d="M58 350q0 86 21.5 153.5t62 114q40.5 46.5 99 71T373 713q79 0 138.5-26.5t99-74Q650 565 669.5 498T689 350q0-86-21.5-153.5T605 82.5q-41-46.5-99.5-71T373-13q-80 0-139 26.5t-98 74Q97 135 77.5 202T58 350zm106-38q4-50 18.5-94t40.5-76q26-32 63-50.5T373 73q90 0 146 58t64 181zm419 84q-5 48-20 90t-41 73.5Q496 591 459 609t-86 18q-88 0-143.5-56.5T165 396z"/><glyph unicode="ө" horiz-adv-x="631" d="M60 262q0 132 66 205t190 73q64 0 112-20.5t79.5-57.5q31.5-37 47-88T571 262q-1-131-67.5-203.5T316-14q-66 0-114.5 20.5t-80 57Q90 100 75 151T60 262zm413 33q-13 83-53 125t-104 42q-30 0-57-8.5T210 425q-22-20-36-52t-16-78zm-314-66q7-78 50.5-121.5T316 64q28 0 54 9t47 28.5q21 19.5 35 51t18 76.5z"/><glyph unicode="Ӫ" horiz-adv-x="747" d="M58 350q0 86 21.5 153.5t62 114q40.5 46.5 99 71T373 713q79 0 138.5-26.5t99-74Q650 565 669.5 498T689 350q0-86-21.5-153.5T605 82.5q-41-46.5-99.5-71T373-13q-80 0-139 26.5t-98 74Q97 135 77.5 202T58 350zm106-38q4-50 18.5-94t40.5-76q26-32 63-50.5T373 73q90 0 146 58t64 181zm419 84q-5 48-20 90t-41 73.5Q496 591 459 609t-86 18q-88 0-143.5-56.5T165 396zM204 795q0 23 16.5 36t45.5 13q28 0 45-13t17-36q0-22-17-35.5T266 746q-29 0-45.5 13.5T204 795zm214 0q0 23 16.5 36t44.5 13q29 0 46-13t17-36q0-22-17-35.5T479 746q-28 0-44.5 13.5T418 795z"/><glyph unicode="ӫ" horiz-adv-x="631" d="M60 262q0 132 66 205t190 73q64 0 112-20.5t79.5-57.5q31.5-37 47-88T571 262q-1-131-67.5-203.5T316-14q-66 0-114.5 20.5t-80 57Q90 100 75 151T60 262zm413 33q-13 83-53 125t-104 42q-30 0-57-8.5T210 425q-22-20-36-52t-16-78zm-314-66q7-78 50.5-121.5T316 64q28 0 54 9t47 28.5q21 19.5 35 51t18 76.5zm-8 404q0 24 16 40t42 16q25 0 40.5-16t15.5-40q0-23-15.5-39T209 578q-26 0-42 16t-16 39zm215 0q0 24 15.5 40t41.5 16q26 0 41.5-16t15.5-40q0-23-15.5-39T423 578q-26 0-41.5 16T366 633z"/><glyph unicode="Ӭ" horiz-adv-x="631" d="M161 399h305q-10 116-73 171.5T230 627q-53 1-94-10t-65-25l-24 80q33 19 84.5 30T240 713q70 0 130.5-20T476 629.5Q521 586 547 517t26-167q0-99-30-168T463.5 69.5Q414 26 349.5 6.5T216-13q-55 0-98.5 8.5T45 15l26 86q25-12 65.5-20t86.5-8q43 0 85 12.5t75.5 41q33.5 28.5 56 74.5T467 313H161zM79 795q0 23 16.5 36t45.5 13q28 0 45-13t17-36q0-22-17-35.5T141 746q-29 0-45.5 13.5T79 795zm214 0q0 23 16.5 36t44.5 13q29 0 46-13t17-36q0-22-17-35.5T354 746q-28 0-44.5 13.5T293 795z"/><glyph unicode="ӭ" horiz-adv-x="543" d="M143 304h241q-6 72-47.5 115T217 462q-47 0-81.5-12.5T78 423l-30 68q35 23 81 36t108 13q63 0 109.5-19t77-55q30.5-36 45-87.5T483 262q0-134-68-205T228-14q-54 0-102 8.5T48 20l25 76q27-14 65-23t76-9q81 0 122.5 38.5T385 226H143zM61 633q0 24 16 40t42 16q25 0 40.5-16t15.5-40q0-23-15.5-39T119 578q-26 0-42 16t-16 39zm215 0q0 24 15.5 40t41.5 16q26 0 41.5-16t15.5-40q0-23-15.5-39T333 578q-26 0-41.5 16T276 633z"/><glyph unicode="Ӯ" horiz-adv-x="608" d="M311 340l27-89h6l21 92 142 357h102L413 238q-29-67-51-113.5T316.5 49Q293 20 266 7T200-6q-36 0-57.5 5.5T101 17l29 82q21-12 39.5-14.5T204 82q29 0 49.5 25.5T290 184L5 700h115zM149 836h350v-68H149z"/><glyph unicode="ӯ" horiz-adv-x="531" d="M251 193l31-101h13l25 102 109 331h94L351 50q-19-49-38.5-95t-43-81.5q-23.5-35.5-52-57T152-205q-40 0-68 9l15 78q15-5 30-5 20 0 36.5 5t30.5 18q14 13 25.5 36.5T243-3L8 525h109zM102 666h328v-69H102z"/><glyph unicode="Ӱ" horiz-adv-x="608" d="M311 340l27-89h6l21 92 142 357h102L413 238q-29-67-51-113.5T316.5 49Q293 20 266 7T200-6q-36 0-57.5 5.5T101 17l29 82q21-12 39.5-14.5T204 82q29 0 49.5 25.5T290 184L5 700h115zM155 795q0 23 16.5 36t45.5 13q28 0 45-13t17-36q0-22-17-35.5T217 746q-29 0-45.5 13.5T155 795zm214 0q0 23 16.5 36t44.5 13q29 0 46-13t17-36q0-22-17-35.5T430 746q-28 0-44.5 13.5T369 795z"/><glyph unicode="ӱ" horiz-adv-x="531" d="M251 193l31-101h13l25 102 109 331h94L351 50q-19-49-38.5-95t-43-81.5q-23.5-35.5-52-57T152-205q-40 0-68 9l15 78q15-5 30-5 20 0 36.5 5t30.5 18q14 13 25.5 36.5T243-3L8 525h109zM114 633q0 24 16 40t42 16q25 0 40.5-16t15.5-40q0-23-15.5-39T172 578q-26 0-42 16t-16 39zm215 0q0 24 15.5 40t41.5 16q26 0 41.5-16t15.5-40q0-23-15.5-39T386 578q-26 0-41.5 16T329 633z"/><glyph unicode="Ӳ" horiz-adv-x="608" d="M311 340l27-89h6l21 92 142 357h102L413 238q-29-67-51-113.5T316.5 49Q293 20 266 7T200-6q-36 0-57.5 5.5T101 17l29 82q21-12 39.5-14.5T204 82q29 0 49.5 25.5T290 184L5 700h115zm-55 510h108v-16l-109-93h-68zm183 0h115v-16l-157-93h-69z"/><glyph unicode="ӳ" horiz-adv-x="531" d="M251 193l31-101h13l25 102 109 331h94L351 50q-19-49-38.5-95t-43-81.5q-23.5-35.5-52-57T152-205q-40 0-68 9l15 78q15-5 30-5 20 0 36.5 5t30.5 18q14 13 25.5 36.5T243-3L8 525h109zm-43 546h90v-12l-80-117h-49zm175 0h101v-11L352 610h-51z"/><glyph unicode="Ӵ" horiz-adv-x="663" d="M176 700V479q0-67 32-103.5T309 339q51 0 94.5 12t70.5 32v317h100V0H474v298q-29-16-77.5-30.5T285 253q-47 0-85.5 11t-66 36Q106 325 91 363.5T76 458v242zm-9 95q0 23 16.5 36t45.5 13q28 0 45-13t17-36q0-22-17-35.5T229 746q-29 0-45.5 13.5T167 795zm214 0q0 23 16.5 36t44.5 13q29 0 46-13t17-36q0-22-17-35.5T442 746q-28 0-44.5 13.5T381 795z"/><glyph unicode="ӵ" horiz-adv-x="574" d="M152 525V396q0-32 3.5-57t15-43q11.5-18 32-27.5T256 259q51 0 85.5 11.5T394 296v229h92V0h-92v223q-19-12-58-27t-104-15q-42 0-74.5 9t-54 31Q82 243 71 279.5T60 371v154zm-45 108q0 24 16 40t42 16q25 0 40.5-16t15.5-40q0-23-15.5-39T165 578q-26 0-42 16t-16 39zm215 0q0 24 15.5 40t41.5 16q26 0 41.5-16t15.5-40q0-23-15.5-39T379 578q-26 0-41.5 16T322 633z"/><glyph unicode="Ӷ" horiz-adv-x="486" d="M89 700h415v-88H189V88h96v-216h-69L200 0H89z"/><glyph unicode="ӷ" horiz-adv-x="426" d="M88 525h338v-78H180V78h81v-210h-65L180 0H88z"/><glyph unicode="Ӹ" horiz-adv-x="846" d="M657 700h100V0H657zm-568 0h100V433q6 1 16 2.5t22.5 2.5q12.5 1 26 2t26.5 1q52 0 101-10t87-34.5q38-24.5 60.5-65.5T551 228q0-60-21.5-105T470 49q-38-29-91-43.5T262-9q-15 0-36 .5T181.5-6Q158-4 134-1T89 7zM270 77q37 0 69 9t55.5 27q23.5 18 37 45t13.5 63q0 40-15 66t-39.5 41q-24.5 15-57 21t-68.5 6q-19 0-42-3t-34-6V83q14-4 34.5-5t46.5-1zm-16 718q0 23 16.5 36t45.5 13q28 0 45-13t17-36q0-22-17-35.5T316 746q-29 0-45.5 13.5T254 795zm214 0q0 23 16.5 36t44.5 13q29 0 46-13t17-36q0-22-17-35.5T529 746q-28 0-44.5 13.5T468 795z"/><glyph unicode="ӹ" horiz-adv-x="771" d="M180 78q42-6 86-6 72 0 101 25t29 71q0 40-28.5 67T269 262q-19 0-42.5-1.5T180 254zm0 246q32 5 59.5 6.5T289 332q58 0 97.5-12t63.5-33q24-21 34-49.5t10-61.5q0-95-58-138.5T247-6q-42 0-81 1T88-1v526h92zm411 201h92V0h-92zM213 633q0 24 16 40t42 16q25 0 40.5-16t15.5-40q0-23-15.5-39T271 578q-26 0-42 16t-16 39zm215 0q0 24 15.5 40t41.5 16q26 0 41.5-16t15.5-40q0-23-15.5-39T485 578q-26 0-41.5 16T428 633z"/><glyph unicode="Ӽ" horiz-adv-x="681" d="M521-37q0 46-18 81.5T465 109l-96 135-33 61-28-61L137 0H27l253 356L49 700h119l151-230 27-58 26 58 158 230h110L402 363l151-215q34-47 50-87t16-82q0-93-38-141t-116-48q-19 0-40 3v85q31-1 49.5 5.5t29 18Q514-87 517.5-71t3.5 34z"/><glyph unicode="ӽ" horiz-adv-x="592" d="M468 127q32-40 50.5-75T537-23q0-91-42-139t-124-48h-7q-8 0-15 .5t-15 1.5v76q63 0 87 24t24 70q0 40-19.5 68T383 87l-51 65-43 69-39-71L135 0H30l203 268L43 525h116l101-136 39-68 39 68 104 136h105L354 273z"/><glyph unicode="Ԑ" horiz-adv-x="582" d="M395 325h-24q-10 0-23-1-81-5-128-34t-47-86q0-33 13.5-58t38-41q24.5-16 58-24t74.5-8q48 0 91 11.5t67 25.5l29-75q-27-17-78.5-32.5T342-13Q281-13 230.5-.5t-87 38.5Q107 64 87 103t-20 93q0 72 42 119t120 57v4q-35 10-61 27.5T125 443q-17 22-25.5 46.5T91 539q0 45 20 78t54.5 54q34.5 21 80 31t97.5 10q30 0 59.5-3.5t55-9.5q25.5-6 46-13t31.5-14l-28-78q-15 6-33.5 11.5t-39 10q-20.5 4.5-42 7.5t-41.5 3q-71 0-113-22.5T196 528q0-26 12.5-46t33-35q20.5-15 46.5-24.5t53-13.5q18-3 44-3.5t46-.5h19v-80z"/><glyph unicode="ԑ" horiz-adv-x="530" d="M303 233q-81 0-116-20.5T152 154q0-39 36.5-62T296 69q85 0 146 35l24-72q-29-16-70-28.5T300-9Q179-9 119.5 32.5T60 144q0 52 28.5 82.5T181 274v10q-49 15-74 47t-25 71q0 64 51 98.5T271 535q64 0 111-14t82-34l-25-67q-25 11-61.5 24T300 457q-63 0-93.5-17T176 381q0-17 9.5-31.5t25.5-25q16-10.5 36.5-16.5t42.5-6h76v-69z"/><glyph unicode="Ԓ" horiz-adv-x="683" d="M594-24q0-92-35-139t-112-47q-19 0-40 3v85q31-1 48.5 4.5t26 19.5Q490-84 492-60t2 60v612H274q-11-197-29-326.5T188 83q-26-48-59.5-68T58-5Q37-5 23.5-2.5T-4 5L8 90q23-7 48 0t48 45q15 25 28 69.5T155 317q10 68 17 162.5T182 700h412z"/><glyph unicode="ԓ" horiz-adv-x="584" d="M496 525V-24q0-93-33.5-137.5T353-206q-20 0-42 3v75q31-1 49 6.5t28 23Q398-83 401-58t3 58v447H234l-2-30q-7-99-16.5-177.5t-27.5-133q-18-54.5-48-83T62-5Q40-5 23-2.5T-6 5L8 89q13-4 29-4 24 0 43 17.5t33 65.5q14 48 23 134t13 223z"/><glyph unicode="Ԝ" horiz-adv-x="913" d="M247 246l16-117h2l18 119 155 452h50l156-454 18-117h2l19 119 124 452h98L692-10h-57L482 445l-21 106h-5l-20-107L283-10h-58L8 700h105z"/><glyph unicode="ԝ" horiz-adv-x="840" d="M468 525l86-199 43-101 27-101h7l23 104 98 297h88L649-11h-50L452 328v-1l-26 97-30-98v1L255-11h-48L8 525h101l111-297 19-105h9l28 107 121 295z"/><glyph unicode="Ԥ" horiz-adv-x="757" d="M530 612H189V0H89v700h541V88h98v-216h-69L643 0H530z"/><glyph unicode="ԥ" horiz-adv-x="620" d="M438 447H180V0H88v525h442V78h70v-210h-65L519 0h-81z"/><glyph unicode="Ԧ" horiz-adv-x="702" d="M486 0v228q0 133-132 133-51 0-94.5-12T189 316V0H89v700h100V402q29 16 77 30.5T377 447q46 0 84-10.5t66-33.5q28-23 43.5-60.5T586 250V88h96v-216h-69L597 0z"/><glyph unicode="ԧ" horiz-adv-x="638" d="M553 78h69v-210h-65L541 0h-80v290q0 43-5.5 74.5t-20 52.5q-14.5 21-39 31T335 458q-26 0-51-9t-46-25q-21-16-36-38.5T180 335V0H88v700h92V460h11q30 36 72 58t104 22q48 0 83-10.5t58-37q23-26.5 34-71T553 310z"/><glyph unicode="Ԯ" horiz-adv-x="720" d="M494 612H274q-5-99-11.5-180T246 285.5Q236 220 222.5 170T189 83q-26-48-60-68T58-5Q37-5 23.5-2.5T-4 5L9 89q12-3 24-3t24.5 4.5Q70 95 82 105.5t23 29.5q15 26 28 70t23 112q10 68 16.5 162.5T182 700h412V88h97v-216h-69L606 0H494z"/><glyph unicode="ԯ" horiz-adv-x="588" d="M404 447H234l-2-30q-7-99-16.5-177.5t-27.5-133q-18-54.5-48-83T62-5Q40-5 23-2.5T-6 5L8 89q13-4 29-4 24 0 43 17.5t33 65.5q14 48 23 134t13 223h347V78h72v-210h-65L487 0h-83z"/><glyph unicode="Ḱ" horiz-adv-x="669" d="M238 318h-49V0H89v700h100V378l46 14 252 308h114L349 400l-47-34 55-40L635 0H509zm102 552h132v-23l-178-95h-81z"/><glyph unicode="ḱ" horiz-adv-x="557" d="M237 236h-57V0H88v700h92V286l52 17 174 222h108L347 322h1l-55-40 63-45L541 0H425zm90 484h104v-23L319 570h-56z"/><glyph unicode="Ḿ" horiz-adv-x="868" d="M679 451l11 112h-4l-43-97-195-310h-30L213 467l-41 95h-5l16-110V0H89v700h75l237-357 37-76h2l35 78 225 355h79V0H679zM486 870h132v-23l-178-95h-81z"/><glyph unicode="ḿ" horiz-adv-x="948" d="M428 0v288q0 42-4 74t-16 53.5q-12 21.5-33.5 32T319 458q-53 0-88.5-29.5T180 353V0H88v525h63l18-70h10q32 36 73.5 60.5T358 540q54 0 90.5-23t55.5-77q30 46 76 73t103 27q48 0 81.5-11t54.5-38q21-27 31-73t10-116V0h-92v302q0 40-4.5 69T747 419.5q-12 19.5-33.5 29T657 458q-57 0-90-30t-47-90V0zm68 720h104v-23L488 570h-56z"/><glyph unicode="Ṕ" horiz-adv-x="614" d="M89 693q42 9 91.5 12.5T278 709q51 0 103.5-9t95.5-33q43-24 70.5-66.5T575 491q0-63-25-107.5T483.5 311q-41.5-28-95-41T278 257q-6 0-18.5.5t-26 1q-13.5.5-26 1.5t-18.5 2V0H89zm192-70q-27 0-52.5-1t-39.5-5V348q5-2 16.5-2.5t24-1.5q12.5-1 24-1H271q36 0 71 5.5t63.5 21.5q28.5 16 46 45t17.5 75q0 40-17 66t-44 41q-27 15-60.5 20.5T281 623zm63 247h132v-23l-178-95h-81z"/><glyph unicode="ṕ" horiz-adv-x="630" d="M88 525h62l18-67h9q27 39 70 60.5t97 21.5q114 0 170-63.5T570 274q0-66-18.5-119.5t-53-91Q464 26 414.5 6T304-14q-20 0-36.5 1.5t-30.5 5q-14 3.5-28 8T180 11v-211H88zm235-63q-60 0-94-30t-49-92V98q23-16 50-25t69-9q81 0 127 53t46 158q0 85-34 136t-115 51zm4 258h104v-23L319 570h-56z"/><glyph unicode="ẞ" horiz-adv-x="716" d="M469 593q-19 17-62 27t-91 10q-47 0-73-16.5T205 569q-12-28-14-64t-2-75V0H89v467q0 51 10 95.5t35.5 77.5q25.5 33 70.5 52.5T321 712q48 0 85.5-5.5t70-16.5q32.5-11 61-28t58.5-40L424 432l-37-28v-3l37 7q45 0 84.5-12t68-36.5q28.5-24.5 45-61T638 214q0-54-17.5-96T571 47q-32-29-77.5-44.5T392-13q-11 0-29 1.5t-38 4Q305-5 286-1t-31 9l17 86q10-5 26-9t33-6q17-2 33-3t28-1q64 0 102 34.5t38 97.5q0 33-9 57t-29.5 39.5Q473 319 439 326.5t-84 7.5h-66v65z"/><glyph unicode="‑" horiz-adv-x="394" d="M64 332h266v-86H64z"/><glyph unicode="–" horiz-adv-x="724" d="M128 331h468v-86H128z"/><glyph unicode="—" horiz-adv-x="899" d="M128 331h643v-86H128z"/><glyph unicode="‘" horiz-adv-x="217" d="M174 550q0-24-17-38t-43-14q-32 0-51 19t-19 56q0 34 10.5 59T80 673.5Q95 690 112 700t30 14l27-40q-24-11-39-29t-13-44q26 5 41.5-10t15.5-41z"/><glyph unicode="’" horiz-adv-x="217" d="M44 661q0 24 16.5 38.5T103 714q32 0 51.5-19t19.5-56q0-35-11-60t-26.5-42Q121 520 104 510.5T75 498l-28 41q24 11 39.5 28t14.5 43q-26-5-41.5 10T44 661z"/><glyph unicode="‚" horiz-adv-x="217" d="M44 51q0 24 16.5 38.5T103 104q32 0 51.5-19T174 29q0-35-11-60t-26.5-42Q121-90 104-99.5T75-113L47-72q24 11 39.5 28.5T101 0Q75-5 59.5 10T44 51z"/><glyph unicode="“" horiz-adv-x="379" d="M336 550q0-24-17-38t-43-14q-32 0-51 19t-19 56q0 34 10.5 59t25.5 41.5q15 16.5 32 26.5t30 14l27-40q-24-11-39-29t-13-44q26 5 41.5-10t15.5-41zm-162 0q0-24-17-38t-43-14q-32 0-51 19t-19 56q0 34 10.5 59T80 673.5Q95 690 112 700t30 14l27-40q-24-11-39-29t-13-44q26 5 41.5-10t15.5-41z"/><glyph unicode="”" horiz-adv-x="379" d="M206 661q0 24 16.5 38.5T265 714q32 0 51.5-19t19.5-56q0-35-11-60t-26.5-42Q283 520 266 511t-29-13l-28 41q24 11 39.5 28t14.5 43q-26-5-41.5 10T206 661zm-162 0q0 24 16.5 38.5T103 714q32 0 51.5-19t19.5-56q0-35-11-59.5T136.5 538Q121 521 104 511.5T75 498l-28 41q24 11 39.5 28t14.5 43q-26-5-41.5 10T44 661z"/><glyph unicode="„" horiz-adv-x="379" d="M44 51q0 24 16.5 38.5T103 104q32 0 51.5-19T174 29q0-35-11-60t-26.5-42Q121-90 104-99.5T75-113L47-72q24 11 39.5 28.5T101 0Q75-5 59.5 10T44 51zm162 0q0 24 16.5 38.5T265 104q32 0 51.5-19T336 29q0-35-11-60t-26.5-42Q283-90 266-99.5T237-113l-28 41q24 11 39.5 28.5T263 0q-26-5-41.5 10T206 51z"/><glyph unicode="†" horiz-adv-x="535" d="M44 506h141l49-12-12 48v158h92V542l-13-48 49 12h141v-84H348l-47 12 13-44V0l-16-200h-60L222 1v389l12 44-49-12H44z"/><glyph unicode="‡" horiz-adv-x="535" d="M222 392l12 42-49-12H44v84h141l49-12-12 47v159h92V541l-13-47 49 12h141v-84H348l-47 12 13-42V280l-13-42 47 12h143v-84H350l-49 12 13-47V0l-17-200h-58L222 1v130l12 47-49-12H44v84h141l49-12-12 42z"/><glyph unicode="•" horiz-adv-x="495" d="M93 311q0 31 12.5 57t33.5 45q21 19 49 29.5t59 10.5q31 0 59.5-10t49.5-28q21-18 33.5-44.5T402 311q0-33-12.5-59.5T356 207q-21-18-49-28t-59-10q-32 0-60 10t-49 28q-21 18-33.5 44.5T93 311z"/><glyph unicode="…" horiz-adv-x="820" d="M618 51q0 29 18.5 46t48.5 17q30 0 48.5-17T752 51q0-27-18.5-45T685-12q-30 0-48.5 18T618 51zm-273 0q0 29 18.5 46t48.5 17q30 0 48.5-17T479 51q0-27-18.5-45T412-12q-30 0-48.5 18T345 51zM72 51q0 29 18.5 46t48.5 17q30 0 48.5-17T206 51q0-27-18.5-45T139-12q-30 0-48.5 18T72 51z"/><glyph unicode="‰" horiz-adv-x="1263" d="M74 542q0 44 13 76t36 53q23 21 54.5 31t68.5 10q37 0 68.5-9.5t55-29.5q23.5-20 36.5-52.5t13-78.5q0-46-13-78.5T369.5 411q-23.5-20-55-29.5T246 372q-37 0-68.5 9.5T123 411q-23 20-36 52.5T74 542zm88 0q0-54 21.5-79.5T246 437q40 0 62.5 23t22.5 82q0 60-22 82.5T246 647q-40 0-62-22.5T162 542zm307-372q0 44 13 76t36 53q23 21 54.5 31t68.5 10q37 0 68.5-9.5t55-29.5q23.5-20 36.5-52.5t13-78.5q0-46-13-78.5T764.5 39q-23.5-20-55-29.5T641 0q-37 0-68.5 9.5T518 39q-23 20-36 52.5T469 170zm88 0q0-54 21.5-79.5T641 65q40 0 62.5 23t22.5 82q0 60-22 82.5T641 275q-40 0-62-22.5T557 170zm306 0q0 44 13 76t36 53q23 21 54.5 31t68.5 10q37 0 68.5-9.5t55-29.5q23.5-20 36.5-52.5t13-78.5q0-46-13-78.5T1158.5 39q-23.5-20-55-29.5T1035 0q-37 0-68.5 9.5T912 39q-23 20-36 52.5T863 170zm88 0q0-54 21.5-79.5T1035 65q40 0 62.5 23t22.5 82q0 60-22 82.5t-63 22.5q-40 0-62-22.5T951 170zM702 713l58-48L188-13l-57 49z"/><glyph unicode="‹" horiz-adv-x="326" d="M40 259l176 230 59-53-101-135-53-41 53-36L282 92l-60-54z"/><glyph unicode="›" horiz-adv-x="326" d="M286 268L110 38 50 90l102 136 53 41-53 36L44 436l60 53z"/><glyph unicode="⁄" horiz-adv-x="201" d="M333 714l60-43-524-684-60 45z"/><glyph unicode="₁" horiz-adv-x="436" d="M80-28h115v232l8 38-30-29-83-48-32 59 168 103h53V-28h102v-72H80z"/><glyph unicode="₂" horiz-adv-x="436" d="M355 205q0-30-10.5-57t-29-53Q297 69 272 43.5T219-8l-50-30v-2l63 13h144v-73H55v42q25 18 62 48t71 65q34 35 58.5 71t24.5 67q0 30-20.5 44.5T198 252q-30 0-57.5-10.5T93 219l-27 66q30 20 68.5 31t78.5 11q69 0 105.5-32.5T355 205z"/><glyph unicode="₃" horiz-adv-x="436" d="M185-38q107 0 107 69 0 30-24.5 48.5T186 98h-57v26l101 107 38 26-55-6H74v69h285v-40L249 165l-29-18v-3l26 3q61-1 95-32.5T375 29q0-64-50-100t-131-36q-40 0-69.5 6.5T72-86l18 68q19-8 42.5-14t52.5-6z"/><glyph unicode="₄" horiz-adv-x="436" d="M419-8h-90v-92h-78v92H27v45l247 299h55V59h90zM251 179l7 48h-3l-24-45-80-97-37-32 56 6h81z"/><glyph unicode="€" horiz-adv-x="594" d="M28 462h69q13 66 42 113.5t69 78q40 30.5 89.5 45T402 713q57 0 98-8t71-19l-27-80q-25 11-58.5 17t-81.5 6q-36 0-69-9t-60-29.5q-27-20.5-47.5-52T196 462h305l-20-74H186q-1-10-1-19.5V349v-17.5q0-8.5 1-16.5h273l-20-75H195Q237 71 419 71q44 0 78.5 10t60.5 24l23-74Q548 6 498-3.5T400-13q-122 0-201.5 61.5T96 240H7l21 75h60q-1 8-1 17v37.5q0 9.5 1 19.5H7z"/><glyph unicode="₴" horiz-adv-x="594" d="M496 316v-74H239q-22-17-41-47.5T179 136q0-34 30.5-51.5T310 67q52 0 86.5 10t59.5 23l26-75q-25-14-69-26T291-13q-104 0-156 36.5T83 127q0 17 6 35t14.5 34q8.5 16 33.5 46H41v74zM41 389v74h263q26 19 40.5 48.5T359 570q0 34-25 48.5T249 633q-45 0-74.5-10T119 602l-29 77q16 7 32.5 13.5t36.5 11q20 4.5 46 7t61 2.5q94 0 141.5-31.5T455 586q0-37-15-70.5T402 463h94v-74z"/><glyph unicode="₽" horiz-adv-x="594" d="M32 344h79v349q42 9 89.5 12.5T296 709q52 0 101-9.5t87-33.5q38-24 61-65.5T568 495q0-62-24-104t-63-68q-39-26-88.5-37.5T292 274h-85v-73h182v-70H207V0h-96v131H32v70h79v73H32zm268 283q-27 0-52.5-2t-40.5-4V344h80q32 0 64 6.5t57.5 23.5q25.5 17 41.5 46t16 73q0 39-13 64.5t-35.5 41q-22.5 15.5-53 22T300 627z"/><glyph unicode="ℓ" horiz-adv-x="500" d="M406 30q-22-14-57.5-28T278-12q-63 0-91.5 30.5T158 114v104l-50-44-35 44 85 74v254q0 44 10 75.5t27.5 51.5q17.5 20 41 29.5T287 712q48 0 79-29.5t31-89.5q0-74-40-157T226 265V125q0-44 17-60.5T284 48q25 0 55 10.5T389 80zm-73 558q0 34-14 49t-32 15q-12 0-23-3.5t-19.5-14q-8.5-10.5-13.5-29t-5-48.5V345q56 65 81.5 125.5T333 588z"/><glyph unicode="№" horiz-adv-x="1120" d="M731 314h309v-84H731zM237 438l-61 100h-4l12-96V0H89v710h57l336-446 57-97h5l-12 93v440h95V-10h-57zm473 104q0 44 13 76t36 53q23 21 54.5 31t68.5 10q37 0 68.5-9.5t55-29.5q23.5-20 36.5-52.5t13-78.5q0-46-13-78.5t-36.5-52.5q-23.5-20-55-29.5T882 372q-37 0-68.5 9.5T759 411q-23 20-36 52.5T710 542zm88 0q0-54 21.5-79.5T882 437q40 0 62.5 23t22.5 82q0 60-22 82.5T882 647q-40 0-62-22.5T798 542z"/><glyph unicode="™" horiz-adv-x="975" d="M425 620H279V340h-95v280H38v80h387zm421-118l12 103h-5l-42-85-93-135h-43l-94 134-40 86h-5l16-102V340h-85v360h93l113-165 30-59h1l32 61 105 163h94V340h-89z"/><glyph unicode="℮" horiz-adv-x="600" d="M157 263V82q62-59 145-59 124 0 193 120l35-21q-43-66-99-100.5T302-13q-59 0-107 21.5T113.5 67Q80 104 62 154.5T44 263q0 59 18.5 109.5T115 460q34 37 81.5 58T302 539q62 0 109.5-22t80.5-59.5q33-37.5 50-87.5t19-107zm291 36v145q-63 60-147 60-86 0-144-60V299z"/><glyph unicode="∂" horiz-adv-x="586" d="M455 503q-6 51-32 85.5t-62.5 56Q324 666 280 674.5t-86 6.5q0 2 1 5t2.5 10q1.5 7 4.5 20t9 36q77 0 140-15.5T458.5 684q44.5-37 68.5-98t24-151q0-115-23-199.5t-63.5-140Q424 40 368 13T246-14Q136-14 80 39.5T24 189q0 60 19 121t57 110.5q38 49.5 95 80.5t134 31q47 0 70.5-7.5T443 503zm1-100q-23 24-53.5 39T323 457q-42 0-79-21t-64-57q-27-36-42.5-85.5T122 187q0-25 7-48t22.5-40.5Q167 81 192 70.5T253 60q59 0 98 32t62.5 81.5Q437 223 446.5 284t9.5 119z"/><glyph unicode="∏" horiz-adv-x="739" d="M551 612H188v-812H88v900h563v-900H551z"/><glyph unicode="∑" horiz-adv-x="554" d="M145-74l-44-38h414v-88H15v88l237 331 40 31-41 33L15 612v88h500v-88H107l47-38 228-318z"/><glyph unicode="−" horiz-adv-x="554" d="M43 379h468v-84H43z"/><glyph unicode="∕" horiz-adv-x="554" d="M509 714l60-43L45-13l-60 45z"/><glyph unicode="√" horiz-adv-x="554" d="M187 453l99-226 24-106h2l22 108 156 471h91L333-10h-40L123 367H-9v86z"/><glyph unicode="∞" horiz-adv-x="934" d="M460 281q-39-59-95.5-90T244 160q-38 0-71.5 13T113 210q-26 24-41 58.5T57 346q0 45 14.5 81.5t41 62q26.5 25.5 62 39T252 542q77 0 132-31t90-79q48 60 105.5 85T700 542q38 0 70.5-13t56.5-37q24-24 37.5-58.5T878 357q0-45-15-81.5t-41.5-62Q795 188 759 174t-79-14q-38 0-71 10t-60.5 26.5Q521 213 499 235t-39 46zm222-35q21 0 40 7.5t33 21.5q14 14 22.5 34t8.5 45q0 20-6.5 38.5t-20 32.5Q746 439 726 447.5t-47 8.5q-42 0-87.5-20.5T509 370q13-26 31.5-48.5t40.5-39q22-16.5 47.5-26.5t53.5-10zM253 456q-21 0-40-8t-33-22.5q-14-14.5-22.5-34T149 349q0-45 31.5-74t83.5-29q46 0 89 27t72 67q-29 54-72 85t-100 31z"/><glyph unicode="∫" horiz-adv-x="386" d="M240-52q0-83-37-119.5T87-208q-41 0-76.5 7.5T-51-182v74q52-10 75.5-15t48.5-5q42 0 57 24t15 82v579q0 82 36.5 119T297 713q37 0 73.5-8t63.5-18l-22-76q-26 10-50.5 16t-51.5 6q-41 0-55.5-23.5T240 529z"/><glyph unicode="≈" horiz-adv-x="554" d="M34 451q48 34 86 47t70 13q31 0 57-8.5t50.5-18.5q24.5-10 47.5-18.5t48-8.5q20 0 42 7.5t48 27.5l37-71q-41-26-73-36.5T388 374q-29 0-53.5 8.5t-48 19Q263 412 240 421t-50 9q-25 0-54-11t-66-38zm0-173q48 34 86 47t70 13q31 0 57-8.5t50.5-18.5q24.5-10 47.5-18.5t48-8.5q20 0 42 7.5t48 27.5l37-71q-41-26-73-36.5T388 201q-29 0-53.5 8.5t-48 19Q263 239 240 248t-50 9q-25 0-54-11t-66-38z"/><glyph unicode="≠" horiz-adv-x="554" d="M43 465h253l63 131h87l-64-131h129v-84H341l-42-88h212v-84H258L188 64h-85l70 145H43v84h170l43 88H43z"/><glyph unicode="≤" horiz-adv-x="554" d="M506 82L468 7 58 221l39 76zM37 423v38l419 236 42-72-256-144-100-37 99-32 262-143-41-70z"/><glyph unicode="≥" horiz-adv-x="554" d="M506 227L100 7 59 80l407 222zm0 245v-38L87 198l-42 72 256 144 100 37-99 32L40 626l41 70z"/><glyph unicode="◊" horiz-adv-x="554" d="M296-10h-43L35 342l218 368h43l223-363zm18 179l108 168-117 186-31 86h-2l-32-88-107-168 116-186 32-86h2z"/><glyph unicode="Ⱨ" horiz-adv-x="770" d="M544 313H189V0H89v700h100V401h355v299h100V88h97v-216h-69L656 0H544z"/><glyph unicode="ⱨ" horiz-adv-x="638" d="M553 78h69v-210h-65L541 0h-80v290q0 43-5.5 74.5t-20 52.5q-14.5 21-39 31T335 458q-26 0-51-9t-46-25q-21-16-36-38.5T180 335V0H88v700h92V460h11q30 36 72 58t104 22q48 0 83-10.5t58-37q23-26.5 34-71T553 310z"/><glyph unicode="" horiz-adv-x="0" d="M-217 870h132v-23l-178-95h-81z"/><glyph unicode="" horiz-adv-x="503" d="M108 872q19-32 58-49t90-17q53 0 89.5 19.5T399 872l44-23q-10-28-28.5-50T371 761.5Q346 746 316 738t-61-8q-29 0-58 6.5T142 757q-26 14-47.5 35T60 843z"/><glyph unicode="" horiz-adv-x="325" d="M197 0l-32-53q49-8 72.5-26t23.5-51q0-42-37-67.5T121-223q-13 0-26.5 1T67-218l9 36q35-2 55 1t30 10q10 7 12.5 15.5T176-139q0 17-25.5 26.5T77-98l59 98z"/><glyph unicode="" horiz-adv-x="478" d="M206 870h73l139-100v-25h-92l-65 47-20 35-21-34-70-48H60v26z"/><glyph unicode="" horiz-adv-x="249" d="M59-102q0 22 17.5 36T117-52q29 0 50.5-19t21.5-59q0-27-10-48t-24-36q-14-15-29.5-24T98-251l-29 40q19 8 32.5 23.5T115-149q-23-5-39.5 9T59-102z"/><glyph unicode="" horiz-adv-x="217" d="M44 661q0 24 16.5 38.5T103 714q32 0 51.5-19t19.5-56q0-35-11-60t-26.5-42Q121 520 104 510.5T75 498l-28 41q24 11 39.5 28t14.5 43q-26-5-41.5 10T44 661z"/><glyph unicode="" horiz-adv-x="265" d="M60 798q0 22 19 38t53 16q34 0 53.5-16t19.5-38q0-24-19.5-39.5T132 743q-34 0-53 15.5T60 798z"/><glyph unicode="" horiz-adv-x="357" d="M60 769q0 37 27 61.5t91 24.5q58 0 88.5-22t30.5-64q0-36-29-60t-90-24q-60 0-89 23t-29 61zm70 0q0-15 11-26t37-11q49 0 49 37 0 18-12 28.5T178 808q-25 0-36.5-10.5T130 769z"/><glyph unicode="" horiz-adv-x="472" d="M60 791q32 32 61 43.5t55 11.5q21 0 41.5-5.5t39.5-12q19-6.5 37-12t36-5.5q14 0 28.5 5t28.5 17l25-51q-29-24-54.5-33t-49.5-9q-21 0-41 5t-39 11.5q-19 6.5-37 11.5t-36 5q-17 0-35-6.5T84 742z"/><glyph unicode="" horiz-adv-x="345" d="M235 0q-34-17-54-39.5T162-92q1-23 16-39t44-16q10 0 22 2.5t25 7.5l12-46q-17-12-47-18.5t-57-6.5q-51 0-80.5 24.5T67-116q0 40 31.5 69.5T183 0z"/><glyph unicode="" horiz-adv-x="641" d="M559 538q0-26-8.5-51.5t-26-48Q507 416 480 399t-64-25v-4q32-4 62-16t53-33q23-21 37-51t14-71q0-54-25-93.5t-66-65Q450 15 398.5 3T295-9q-18 0-44 .5t-54.5 2q-28.5 1.5-57 4T89 5v689q41 7 96 11t118 4q43 0 88.5-7.5T474 675q37-19 61-52t24-85zM187 82q7-2 21-3t30.5-2q16.5-1 33-1.5T302 75q34 0 65.5 7t55.5 22q24 15 38.5 38t14.5 55q0 40-17.5 63.5t-45.5 36q-28 12.5-63 16t-69 3.5h-94zm55 312q19 0 44 1.5t42 3.5q25 7 47.5 17.5t39.5 25q17 14.5 27 34t10 44.5q0 34-13.5 54.5T403 606q-22 11-50 15t-57 4q-35 0-64.5-1.5T187 620V394zm95 476h132v-23l-178-95h-81z"/><glyph unicode="" horiz-adv-x="629" d="M88 700h92V460h10q23 40 66 59.5t91 19.5q109 0 165.5-66.5T569 272q0-137-74-209T287-9Q221-9 167.5 2T88 28zm246-239q-32 0-56.5-10T234 423.5q-19-17.5-32.5-40T180 337V88q49-19 119-19 79 0 125.5 48.5T471 273q0 40-8 74.5T438 407q-17 25-42.5 39.5T334 461zm20 259h104v-23L346 570h-56z"/><glyph unicode="" horiz-adv-x="565" d="M89 700h423v-86H189V391h300v-86H189V0H89zm249 170h132v-23l-178-95h-81z"/><glyph unicode="" horiz-adv-x="364" d="M24 525h89v14q0 49 9 82.5t28.5 54q19.5 20.5 51 29.5t76.5 9q38 0 66.5-4.5T404 694l-20-75q-26 11-48.5 14t-43.5 3q-28 0-45-5t-26.5-17.5q-9.5-12.5-12.5-34t-3-54.5h154v-78H205V0h-92v447H24zm306 345h132v-23l-178-95h-81z"/><glyph unicode="" horiz-adv-x="662" d="M-7 594h96v106h100V594h238v-74H189V402q29 16 77 30.5T377 447q46 0 84-10.5t66-33.5q28-23 43.5-60.5T586 250V0H486v228q0 133-132 133-51 0-94.5-12T189 316V0H89v520H-7z"/><glyph unicode="" horiz-adv-x="647" d="M0 634h94v66h92v-66h171v-66H186V460h11q30 36 72 58t104 22q48 0 83-10.5t58-37q23-26.5 34-71T559 310V0h-92v290q0 43-5.5 74.5t-20 52.5q-14.5 21-39 31T341 458q-26 0-51-9t-46-25q-21-16-36-38.5T186 335V0H94v568H0z"/><glyph unicode="" horiz-adv-x="663" d="M176 700V479q0-67 32-103.5T309 339q51 0 94.5 12t70.5 32v317h100V-24q0-92-37.5-139T421-210q-20 0-41 3v85q31-1 49.5 5.5t28.5 21Q468-81 471-57t3 57v298q-29-16-77.5-30.5T285 253q-47 0-85.5 11t-66 36Q106 325 91 363.5T76 458v242z"/><glyph unicode="" horiz-adv-x="574" d="M152 525V396q0-32 3.5-57t15-43q11.5-18 32-27.5T256 259q51 0 85.5 11.5T394 296v229h92V-24q0-93-33.5-137.5T343-206q-20 0-42 3v75q31-1 49 6.5t28 23Q388-83 391-58t3 58v223q-19-12-58-27t-104-15q-42 0-74.5 9t-54 31Q82 243 71 279.5T60 371v154z"/><glyph unicode="" horiz-adv-x="608" d="M311 340l27-89h6l21 92 142 357h102L413 238q-29-67-51-113.5T316.5 49Q293 20 266 7T200-6q-36 0-57.5 5.5T101 17l29 82q21-12 39.5-14.5T204 82q29 0 49.5 25.5T290 184L5 700h115zm37 530h132v-23l-178-95h-81z"/><glyph unicode="" horiz-adv-x="531" d="M251 193l31-101h13l25 102 109 331h94L351 50q-19-49-38.5-95t-43-81.5q-23.5-35.5-52-57T152-205q-40 0-68 9l15 78q15-5 30-5 20 0 36.5 5t30.5 18q14 13 25.5 36.5T243-3L8 525h109zm41 527h104v-23L284 570h-56z"/><glyph unicode="" horiz-adv-x="631" d="M161 399h305q-10 116-73 171.5T230 627q-53 1-94-10t-65-25l-24 80q33 19 84.5 30T240 713q70 0 130.5-20T476 629.5Q521 586 547 517t26-167q0-99-30-168T463.5 69.5Q414 26 349.5 6.5T216-13q-55 0-98.5 8.5T45 15l26 86q25-12 65.5-20t86.5-8q43 0 85 12.5t75.5 41q33.5 28.5 56 74.5T467 313H161zm15 399q0 22 19 38t53 16q34 0 53.5-16t19.5-38q0-24-19.5-39.5T248 743q-34 0-53 15.5T176 798z"/><glyph unicode="" horiz-adv-x="543" d="M143 304h241q-6 72-47.5 115T217 462q-47 0-81.5-12.5T78 423l-30 68q35 23 81 36t108 13q63 0 109.5-19t77-55q30.5-36 45-87.5T483 262q0-134-68-205T228-14q-54 0-102 8.5T48 20l25 76q27-14 65-23t76-9q81 0 122.5 38.5T385 226H143zm27 346q0 23 18 41.5t47 18.5q29 0 48-18.5t19-41.5q0-23-19-40.5T235 592q-29 0-47 17.5T170 650z"/><glyph unicode="" horiz-adv-x="589" d="M149 327v78h40.5q14.5 0 30 1t30 1.5q14.5.5 23.5 2.5 54 7 92 34.5t38 73.5q0 31-11.5 51.5t-32 33Q339 615 312 620.5t-57 5.5q-58 0-101-9t-66-20l-27 80q10 6 31 12t48.5 11q27.5 5 61 8.5T270 712q44 0 87-8.5t76.5-28.5q33.5-20 54.5-53t21-83q0-50-35.5-95T366 379v-4q77-11 121.5-53.5T532 207q0-51-20-90t-54-66q-34-27-77.5-42.5T289-11l-15-167h-63L190-11q-50 3-86 10T44 16l25 88q26-11 71.5-20T252 75q31 0 62 7.5t56 23q25 15.5 40.5 40T426 204q0 60-46.5 88T250 325q-13 1-23 1.5t-24 .5z"/><glyph unicode="" horiz-adv-x="516" d="M148 233v70h77q22 0 42.5 6t36.5 16.5q16 10.5 25.5 25T339 382q0 42-31 58t-94 16q-44 0-80.5-9.5T74 427l-25 70q65 37 195 37 94 0 142-33t48-96q0-17-6.5-35T408 335.5q-13-16.5-31.5-30T334 285v-11q68-12 95-44.5t27-84.5q0-57-46-99.5T271-8l-15-170h-63L172-10Q131-7 102 .5T48 20l24 74q27-14 65-20t83-6q138 0 138 86 0 39-33 59t-115 20z"/><glyph unicode="" horiz-adv-x="624" d="M584 30Q556 10 516.5.5T431-12l-24-41q49-8 72.5-26t23.5-51q0-42-37-67.5T363-223q-13 0-26.5 1t-27.5 4l9 36q35-2 55 1t30 10q10 7 12.5 15.5T418-139q0 17-25.5 26.5T319-98l51 86q-64 3-120.5 26t-99 68Q108 127 83 193.5T58 350q0 98 30 167t78 112.5Q214 673 274 693t119 20q66 0 108-7t71-18l-22-86q-49 23-149 23-45 0-87.5-14.5t-76-47Q204 531 184 478.5T164 350q0-68 19-119t52.5-85.5q33.5-34.5 79-52T414 76q49 0 85 8.5t61 22.5z"/><glyph unicode="" horiz-adv-x="529" d="M484 36q-32-23-74-35t-89-14l-23-40q49-8 72.5-26t23.5-51q0-42-37-67.5T254-223q-13 0-26.5 1t-27.5 4l9 36q35-2 55 1t30 10q10 7 12.5 15.5T309-139q0 17-25.5 26.5T210-98l52 87q-55 6-93.5 28T106 74.5q-24 35.5-35 83T60 262q0 133 64.5 205.5T310 540q53 0 92-9.5t70-23.5l-24-75q-27 14-58.5 22t-68.5 8q-163 0-163-200 0-38 9-73t29-63q20-28 52.5-44.5T328 65q42 0 73.5 11.5T454 104z"/><glyph unicode="" horiz-adv-x="645" d="M457 183H180L106 0H8l288 710h52L637 0H533zm-247 84h218l-81 199-27 107h-2l-27-109zm-59 569h350v-68H151z"/><glyph unicode="" horiz-adv-x="582" d="M82 492q90 43 223 43 60 0 96.5-15.5T458 480q20-24 26.5-53.5T491 368q0-55-4-110.5T483 137q0-38 3.5-73.5T498-2h-67l-25 80h-10q-11-15-27-30.5T331 20Q309 8 280.5 0T215-8q-37 0-68 10.5T93.5 32Q71 51 58 78.5T45 140q0 45 19.5 78t50.5 54q31 21 70.5 31t78.5 10q31 0 52.5-1t36-2.5q14.5-1.5 24.5-3t18-2.5q2 15 3 26t1 28q0 28-6 47t-19.5 30.5Q360 447 337 452t-56 5q-19 0-42-3t-46-8.5q-23-5.5-45.5-13.5T107 415zm313-254q-8 1-17 3t-22.5 3q-13.5 1-32 2t-45.5 1q-62 0-98.5-22T143 150q0-40 28.5-60T245 70q33 0 58.5 8.5t44 21q18.5 12.5 30 28T395 158zM122 666h328v-69H122z"/><glyph unicode="" horiz-adv-x="585" d="M89 700h423v-86H189V401h295v-86H189V86h328V0H89zm33 136h350v-68H122z"/><glyph unicode="" horiz-adv-x="598" d="M515 43q-35-26-87-41.5T315-14q-66 0-114.5 19.5T121 61q-31 36-46 87T60 262q0 135 66.5 206.5T316 540q39 0 78-8.5t70-32q31-23.5 50.5-64.5T534 328q0-16-1-37t-4-41H154q2-92 44-139t143-47q42 0 80 14.5t59 34.5zm-69 273q2 80-32.5 113T317 462q-70 0-111-33t-48-113zM141 666h328v-69H141z"/><glyph unicode="" horiz-adv-x="585" d="M89 700h423v-86H189V401h295v-86H189V86h328V0H89zm37 95q0 23 16.5 36t45.5 13q28 0 45-13t17-36q0-22-17-35.5T188 746q-29 0-45.5 13.5T126 795zm214 0q0 23 16.5 36t44.5 13q29 0 46-13t17-36q0-22-17-35.5T401 746q-28 0-44.5 13.5T340 795zM118 936h350v-68H118z"/><glyph unicode="" horiz-adv-x="598" d="M515 43q-35-26-87-41.5T315-14q-66 0-114.5 19.5T121 61q-31 36-46 87T60 262q0 135 66.5 206.5T316 540q39 0 78-8.5t70-32q31-23.5 50.5-64.5T534 328q0-16-1-37t-4-41H154q2-92 44-139t143-47q42 0 80 14.5t59 34.5zm-69 273q2 80-32.5 113T317 462q-70 0-111-33t-48-113zM139 643q0 24 16 40t42 16q25 0 40.5-16t15.5-40q0-23-15.5-39T197 588q-26 0-42 16t-16 39zm215 0q0 24 15.5 40t41.5 16q26 0 41.5-16t15.5-40q0-23-15.5-39T411 588q-26 0-41.5 16T354 643zM130 836h350v-68H130z"/><glyph unicode="" horiz-adv-x="585" d="M89 700h423v-86H189V401h295v-86H189V86h328V0H89zm36 95q0 23 16.5 36t45.5 13q28 0 45-13t17-36q0-22-17-35.5T187 746q-29 0-45.5 13.5T125 795zm214 0q0 23 16.5 36t44.5 13q29 0 46-13t17-36q0-22-17-35.5T400 746q-28 0-44.5 13.5T339 795zM200 999q5-36 30.5-54.5T298 926q42 0 67.5 18.5T396 998l84-18q-13-55-57-86t-126-31q-79 0-129.5 27T107 978z"/><glyph unicode="" horiz-adv-x="598" d="M515 43q-35-26-87-41.5T315-14q-66 0-114.5 19.5T121 61q-31 36-46 87T60 262q0 135 66.5 206.5T316 540q39 0 78-8.5t70-32q31-23.5 50.5-64.5T534 328q0-16-1-37t-4-41H154q2-92 44-139t143-47q42 0 80 14.5t59 34.5zm-69 273q2 80-32.5 113T317 462q-70 0-111-33t-48-113zM149 626q0 24 16 40t42 16q25 0 40.5-16t15.5-40q0-23-15.5-39T207 571q-26 0-42 16t-16 39zm215 0q0 24 15.5 40t41.5 16q26 0 41.5-16t15.5-40q0-23-15.5-39T421 571q-26 0-41.5 16T364 626zM221 837q5-36 30.5-54.5T319 764q42 0 67.5 18.5T417 836l84-18q-13-55-57-86t-126-31q-79 0-129.5 27T128 816z"/><glyph unicode="" horiz-adv-x="589" d="M149 327v78h40.5q14.5 0 30 1t30 1.5q14.5.5 23.5 2.5 54 7 92 34.5t38 73.5q0 31-11.5 51.5t-32 33Q339 615 312 620.5t-57 5.5q-58 0-101-9t-66-20l-27 80q10 6 31 12t48.5 11q27.5 5 61 8.5T270 712q44 0 87-8.5t76.5-28.5q33.5-20 54.5-53t21-83q0-50-35.5-95T366 379v-4q77-11 121.5-53.5T532 207q0-57-25-98.5T441.5 40q-40.5-27-92-40T244-13q-72 0-121 8.5T44 16l25 86q26-11 71.5-20T252 73q31 0 62 8t56 24q25 16 40.5 40.5T426 204q0 60-46.5 88T250 325q-13 1-23 1.5t-24 .5zm157 417h-69L98 845v25h93l64-49 19-33 21 32 68 50h89v-26z"/><glyph unicode="" horiz-adv-x="516" d="M148 233v70h77q22 0 42.5 6t36.5 16.5q16 10.5 25.5 25T339 382q0 42-31 58t-94 16q-44 0-80.5-9.5T74 427l-25 70q65 37 195 37 94 0 142-33t48-96q0-17-6.5-35T408 335.5q-13-16.5-31.5-30T334 285v-11q68-12 95-44.5t27-84.5q0-33-15-61.5T396 34q-30-21-75.5-33T215-11q-59 0-97.5 8T48 20l24 73q27-14 65-20t83-6q138 0 138 87 0 39-33 59t-115 20zm113 353h-49L83 773h87l44-68 28-71 29 70 49 69h78z"/><glyph unicode="" horiz-adv-x="747" d="M58 350q0 86 21.5 153.5t62 114q40.5 46.5 99 71T373 713q79 0 138.5-26.5t99-74Q650 565 669.5 498T689 350q0-86-21.5-153.5T605 82.5q-41-46.5-99.5-71T373-13q-80 0-139 26.5t-98 74Q97 135 77.5 202T58 350zm106 0q0-57 12.5-107t38-88q25.5-38 65-60T373 73q97 0 153.5 67T583 350q0 56-12.5 106t-38 88q-25.5 38-65 60.5T373 627q-96 0-152.5-68T164 350zm41 486h350v-68H205z"/><glyph unicode="" horiz-adv-x="631" d="M60 262q0 65 17 116.5t50 87.5q33 36 80.5 55T316 540q64 0 112-21t80-58.5q32-37.5 47.5-88T571 262q0-64-17.5-115t-50-87q-32.5-36-80-55T316-14q-66 0-114 21t-79.5 58q-31.5 37-47 87.5T60 262zm98 0q0-37 8.5-72.5T194 126q19-28 49-45t74-17q156 0 156 198 0 39-8.5 75t-27 63.5Q419 428 389 445t-72 17q-78 0-118.5-49.5T158 262zm-12 404h328v-69H146z"/><glyph unicode="" horiz-adv-x="747" d="M58 350q0 86 21.5 153.5t62 114q40.5 46.5 99 71T373 713q79 0 138.5-26.5t99-74Q650 565 669.5 498T689 350q0-86-21.5-153.5T605 82.5q-41-46.5-99.5-71T373-13q-80 0-139 26.5t-98 74Q97 135 77.5 202T58 350zm106 0q0-57 12.5-107t38-88q25.5-38 65-60T373 73q97 0 153.5 67T583 350q0 56-12.5 106t-38 88q-25.5 38-65 60.5T373 627q-96 0-152.5-68T164 350zm112 521q5-36 30.5-54.5T374 798q42 0 67.5 18.5T472 870l84-18q-13-55-57-86t-126-31q-79 0-129.5 27T183 850z"/><glyph unicode="" horiz-adv-x="631" d="M60 262q0 65 17 116.5t50 87.5q33 36 80.5 55T316 540q64 0 112-21t80-58.5q32-37.5 47.5-88T571 262q0-64-17.5-115t-50-87q-32.5-36-80-55T316-14q-66 0-114 21t-79.5 58q-31.5 37-47 87.5T60 262zm98 0q0-37 8.5-72.5T194 126q19-28 49-45t74-17q156 0 156 198 0 39-8.5 75t-27 63.5Q419 428 389 445t-72 17q-78 0-118.5-49.5T158 262zm73 450q5-22 14-35t21-19.5q12-6.5 27.5-8T326 648q17 0 32.5 2t27.5 9q12 7 21 19t14 33h72q-11-80-57.5-104T324 583q-31 0-60 5t-52.5 17q-23.5 12-40 31.5T149 686z"/><glyph unicode="" horiz-adv-x="747" d="M58 350q0 86 21.5 153.5t62 114q40.5 46.5 99 71T373 713q79 0 138.5-26.5t99-74Q650 565 669.5 498T689 350q0-86-21.5-153.5T605 82.5q-41-46.5-99.5-71T373-13q-80 0-139 26.5t-98 74Q97 135 77.5 202T58 350zm106-38q4-50 18.5-94t40.5-76q26-32 63-50.5T373 73q90 0 146 58t64 181zm419 84q-5 48-20 90t-41 73.5Q496 591 459 609t-86 18q-88 0-143.5-56.5T165 396zM280 871q5-36 30.5-54.5T378 798q42 0 67.5 18.5T476 870l84-18q-13-55-57-86t-126-31q-79 0-129.5 27T187 850z"/><glyph unicode="" horiz-adv-x="631" d="M60 262q0 132 66 205t190 73q64 0 112-20.5t79.5-57.5q31.5-37 47-88T571 262q-1-131-67.5-203.5T316-14q-66 0-114.5 20.5t-80 57Q90 100 75 151T60 262zm413 33q-13 83-53 125t-104 42q-30 0-57-8.5T210 425q-22-20-36-52t-16-78zm-314-66q7-78 50.5-121.5T316 64q28 0 54 9t47 28.5q21 19.5 35 51t18 76.5zm62 483q5-22 14-35t21-19.5q12-6.5 27.5-8T316 648q17 0 32.5 2t27.5 9q12 7 21 19t14 33h72q-11-80-57.5-104T314 583q-31 0-60 5t-52.5 17q-23.5 12-40 31.5T139 686z"/><glyph unicode="" horiz-adv-x="747" d="M58 350q0 86 21.5 153.5t62 114q40.5 46.5 99 71T373 713q79 0 138.5-26.5t99-74Q650 565 669.5 498T689 350q0-86-21.5-153.5T605 82.5q-41-46.5-99.5-71T373-13q-80 0-139 26.5t-98 74Q97 135 77.5 202T58 350zm106-38q4-50 18.5-94t40.5-76q26-32 63-50.5T373 73q90 0 146 58t64 181zm419 84q-5 48-20 90t-41 73.5Q496 591 459 609t-86 18q-88 0-143.5-56.5T165 396zM204 795q0 23 16.5 36t45.5 13q28 0 45-13t17-36q0-22-17-35.5T266 746q-29 0-45.5 13.5T204 795zm214 0q0 23 16.5 36t44.5 13q29 0 46-13t17-36q0-22-17-35.5T479 746q-28 0-44.5 13.5T418 795zM280 999q5-36 30.5-54.5T378 926q42 0 67.5 18.5T476 998l84-18q-13-55-57-86t-126-31q-79 0-129.5 27T187 978z"/><glyph unicode="" horiz-adv-x="631" d="M60 262q0 132 66 205t190 73q64 0 112-20.5t79.5-57.5q31.5-37 47-88T571 262q-1-131-67.5-203.5T316-14q-66 0-114.5 20.5t-80 57Q90 100 75 151T60 262zm413 33q-13 83-53 125t-104 42q-30 0-57-8.5T210 425q-22-20-36-52t-16-78zm-314-66q7-78 50.5-121.5T316 64q28 0 54 9t47 28.5q21 19.5 35 51t18 76.5zm-8 396q0 24 16 40t42 16q25 0 40.5-16t15.5-40q0-23-15.5-39T209 570q-26 0-42 16t-16 39zm215 0q0 24 15.5 40t41.5 16q26 0 41.5-16t15.5-40q0-23-15.5-39T423 570q-26 0-41.5 16T366 625zM222 837q5-36 30.5-54.5T320 764q42 0 67.5 18.5T418 836l84-18q-13-55-57-86t-126-31q-79 0-129.5 27T129 816z"/><glyph unicode="" horiz-adv-x="846" d="M657 700h100V0H657zm-568 0h100V433q6 1 16 2.5t22.5 2.5q12.5 1 26 2t26.5 1q52 0 101-10t87-34.5q38-24.5 60.5-65.5T551 228q0-60-21.5-105T470 49q-38-29-91-43.5T262-9q-15 0-36 .5T181.5-6Q158-4 134-1T89 7zM270 77q37 0 69 9t55.5 27q23.5 18 37 45t13.5 63q0 40-15 66t-39.5 41q-24.5 15-57 21t-68.5 6q-19 0-42-3t-34-6V83q14-4 34.5-5t46.5-1zm-22 759h350v-68H248z"/><glyph unicode="" horiz-adv-x="771" d="M180 78q42-6 86-6 72 0 101 25t29 71q0 40-28.5 67T269 262q-19 0-42.5-1.5T180 254zm0 246q32 5 59.5 6.5T289 332q58 0 97.5-12t63.5-33q24-21 34-49.5t10-61.5q0-95-58-138.5T247-6q-42 0-81 1T88-1v526h92zm411 201h92V0h-92zM201 666h328v-69H201z"/><glyph unicode="" horiz-adv-x="631" d="M161 399h305q-10 116-73 171.5T230 627q-53 1-94-10t-65-25l-24 80q33 19 84.5 30T240 713q70 0 130.5-20T476 629.5Q521 586 547 517t26-167q0-99-30-168T463.5 69.5Q414 26 349.5 6.5T216-13q-55 0-98.5 8.5T45 15l26 86q25-12 65.5-20t86.5-8q43 0 85 12.5t75.5 41q33.5 28.5 56 74.5T467 313H161zM92 836h350v-68H92z"/><glyph unicode="" horiz-adv-x="543" d="M143 304h241q-6 72-47.5 115T217 462q-47 0-81.5-12.5T78 423l-30 68q35 23 81 36t108 13q63 0 109.5-19t77-55q30.5-36 45-87.5T483 262q0-134-68-205T228-14q-54 0-102 8.5T48 20l25 76q27-14 65-23t76-9q81 0 122.5 38.5T385 226H143zM75 666h328v-69H75z"/><glyph unicode="" horiz-adv-x="631" d="M161 399h305q-10 116-73 171.5T230 627q-53 1-94-10t-65-25l-24 80q33 19 84.5 30T240 713q70 0 130.5-20T476 629.5Q521 586 547 517t26-167q0-99-30-168T463.5 69.5Q414 26 349.5 6.5T216-13q-55 0-98.5 8.5T45 15l26 86q25-12 65.5-20t86.5-8q43 0 85 12.5t75.5 41q33.5 28.5 56 74.5T467 313H161zm5 472q5-36 30.5-54.5T264 798q42 0 67.5 18.5T362 870l84-18q-13-55-57-86t-126-31q-79 0-129.5 27T73 850z"/><glyph unicode="" horiz-adv-x="543" d="M143 304h241q-6 72-47.5 115T217 462q-47 0-81.5-12.5T78 423l-30 68q35 23 81 36t108 13q63 0 109.5-19t77-55q30.5-36 45-87.5T483 262q0-134-68-205T228-14q-54 0-102 8.5T48 20l25 76q27-14 65-23t76-9q81 0 122.5 38.5T385 226H143zm0 408q5-22 14-35t21-19.5q12-6.5 27.5-8T238 648q17 0 32.5 2t27.5 9q12 7 21 19t14 33h72q-11-80-57.5-104T236 583q-31 0-60 5t-52.5 17q-23.5 12-40 31.5T61 686z"/><glyph unicode="" horiz-adv-x="637" d="M582 30Q549 6 499-3.5T392-13q-67 0-127.5 21.5T158 74.5q-46 44.5-73 113T58 350q0 98 30 167t78 112.5Q214 673 274 693t119 20q66 0 107.5-7t70.5-18l-23-84q-49 23-147 23-41 0-80-12t-71-39q-32-27-54.5-69.5T166 404h329v-86H164q4-60 24.5-106t53.5-77q33-31 76.5-46.5T413 73q49 0 85 9t61 23zM196 795q0 23 16.5 36t45.5 13q28 0 45-13t17-36q0-22-17-35.5T258 746q-29 0-45.5 13.5T196 795zm214 0q0 23 16.5 36t44.5 13q29 0 46-13t17-36q0-22-17-35.5T471 746q-28 0-44.5 13.5T410 795z"/><glyph unicode="" horiz-adv-x="566" d="M506 35q-35-23-84-36T321-14q-66 0-115 20t-81.5 56Q92 98 76 149T60 262q0 66 19.5 118t54.5 87q35 35 84.5 53.5T327 539q56 0 97-8.5t72-22.5l-25-78q-28 14-61 22.5t-70 8.5q-78 0-124.5-37.5T158 305h265v-78H158q4-34 16.5-64t35.5-52q23-22 57-34.5T349 64q40 0 74 12t57 27zM146 633q0 24 16 40t42 16q25 0 40.5-16t15.5-40q0-23-15.5-39T204 578q-26 0-42 16t-16 39zm215 0q0 24 15.5 40t41.5 16q26 0 41.5-16t15.5-40q0-23-15.5-39T418 578q-26 0-41.5 16T361 633z"/><glyph unicode="" horiz-adv-x="624" d="M535 0H435v298l-107-22L141 0H25l169 244 66 44q-39 7-72 22.5T130.5 351q-24.5 25-38 59T79 489q0 61 23 103t62 68q39 26 92 37.5T369 709q37 0 81.5-3.5T535 693zM363 623q-35 0-67-6t-56.5-21Q215 581 200 555.5T185 490q0-37 14-62.5t38.5-41q24.5-15.5 57-22.5t69.5-7h71v260q-14 4-30 5t-42 1zM171 836h350v-68H171z"/><glyph unicode="" horiz-adv-x="578" d="M398 207l-95-13L154 0H40l132 172v-1l56 38q-70 8-110.5 49.5T77 360q0 47 18 81t51.5 56q33.5 22 81 32T334 539q38 0 79.5-5t76.5-13V0h-92zm0 57v189q-16 5-36.5 6.5T326 461q-75 0-113-24t-38-76q0-50 44.5-75T336 263zM145 666h328v-69H145z"/><glyph unicode="" horiz-adv-x="624" d="M535 0H435v298l-107-22L141 0H25l169 244 66 44q-39 7-72 22.5T130.5 351q-24.5 25-38 59T79 489q0 61 23 103t62 68q39 26 92 37.5T369 709q37 0 81.5-3.5T535 693zM363 623q-35 0-67-6t-56.5-21Q215 581 200 555.5T185 490q0-37 14-62.5t38.5-41q24.5-15.5 57-22.5t69.5-7h71v260q-14 4-30 5t-42 1zM239 871q5-36 30.5-54.5T337 798q42 0 67.5 18.5T435 870l84-18q-13-55-57-86t-126-31q-79 0-129.5 27T146 850z"/><glyph unicode="" horiz-adv-x="578" d="M398 207l-95-13L154 0H40l132 172v-1l56 38q-70 8-110.5 49.5T77 360q0 47 18 81t51.5 56q33.5 22 81 32T334 539q38 0 79.5-5t76.5-13V0h-92zm0 57v189q-16 5-36.5 6.5T326 461q-75 0-113-24t-38-76q0-50 44.5-75T336 263zM223 712q5-22 14-35t21-19.5q12-6.5 27.5-8T318 648q17 0 32.5 2t27.5 9q12 7 21 19t14 33h72q-11-80-57.5-104T316 583q-31 0-60 5t-52.5 17q-23.5 12-40 31.5T141 686z"/><glyph unicode="" horiz-adv-x="978" d="M189 401h130q11 150 88 231t214 81q79 0 136-26t93-74q36-48 53-115t17-148q0-173-75.5-268T621-13q-74 0-129 23.5t-92.5 66Q362 119 342 179t-24 134H189V0H89v700h100zm236-51q0-56 10.5-106.5T469 155q23-38 60.5-60T621 73q97 0 145 67t48 210q0 55-9.5 105.5t-32 88.5Q750 582 713 604.5T621 627q-97 0-146.5-68T425 350zM317 836h350v-68H317z"/><glyph unicode="" horiz-adv-x="841" d="M543-14q-62 0-106 18t-73 50q-29 32-43.5 77.5T302 232H180V0H88v525h92V310h123q10 109 68.5 169.5T545 540q63 0 107.5-20.5t73-57.5q28.5-37 42-88T781 262q0-130-59-203T543-14zM394 262q0-41 7-77t24-63q17-27 46-42.5T544 64q75 0 107 48t32 150q0 40-6.5 76.5t-22.5 64Q638 430 611 446t-68 16q-79 0-114-48.5T394 262zM234 666h328v-69H234z"/><glyph unicode="" horiz-adv-x="978" d="M189 401h130q11 150 88 231t214 81q79 0 136-26t93-74q36-48 53-115t17-148q0-173-75.5-268T621-13q-74 0-129 23.5t-92.5 66Q362 119 342 179t-24 134H189V0H89v700h100zm236-51q0-56 10.5-106.5T469 155q23-38 60.5-60T621 73q97 0 145 67t48 210q0 55-9.5 105.5t-32 88.5Q750 582 713 604.5T621 627q-97 0-146.5-68T425 350zm-57 521q5-36 30.5-54.5T466 798q42 0 67.5 18.5T564 870l84-18q-13-55-57-86t-126-31q-79 0-129.5 27T275 850z"/><glyph unicode="" horiz-adv-x="841" d="M543-14q-62 0-106 18t-73 50q-29 32-43.5 77.5T302 232H180V0H88v525h92V310h123q10 109 68.5 169.5T545 540q63 0 107.5-20.5t73-57.5q28.5-37 42-88T781 262q0-130-59-203T543-14zM394 262q0-41 7-77t24-63q17-27 46-42.5T544 64q75 0 107 48t32 150q0 40-6.5 76.5t-22.5 64Q638 430 611 446t-68 16q-79 0-114-48.5T394 262zm-50 450q5-22 14-35t21-19.5q12-6.5 27.5-8T439 648q17 0 32.5 2t27.5 9q12 7 21 19t14 33h72q-11-80-57.5-104T437 583q-31 0-60 5t-52.5 17q-23.5 12-40 31.5T262 686z"/><glyph unicode="" horiz-adv-x="744" d="M189 700V234l-9-76h5l50 79 358 463h62V-24q0-93-36-139.5T505-210q-20 0-44 3v85q31-1 49.5 5.5t28.5 21Q549-81 552-57t3 57v463l6 77h-4l-48-79L150 0H89v700zm96 171q5-36 30.5-54.5T383 798q42 0 67.5 18.5T481 870l84-18q-13-55-57-86t-126-31q-79 0-129.5 27T192 850z"/><glyph unicode="" horiz-adv-x="631" d="M180 525V215l-7-92h11l46 89 241 313h72V-24q0-93-33.5-137.5T400-206q-20 0-42 3v75q31-1 49 6.5t28 23Q445-83 448-58t3 58v300l14 104h-11l-49-98L159 0H88v525zm43 187q5-22 14-35t21-19.5q12-6.5 27.5-8T318 648q17 0 32.5 2t27.5 9q12 7 21 19t14 33h72q-11-80-57.5-104T316 583q-31 0-60 5t-52.5 17q-23.5 12-40 31.5T141 686z"/><glyph unicode="" horiz-adv-x="747" d="M58 350q0 86 21.5 153.5t62 114q40.5 46.5 99 71T373 713q79 0 138.5-26.5t99-74Q650 565 669.5 498T689 350q0-86-21.5-153.5T605 82.5q-41-46.5-99.5-71T373-13q-80 0-139 26.5t-98 74Q97 135 77.5 202T58 350zm106 0q0-57 12.5-107t38-88q25.5-38 65-60T373 73q97 0 153.5 67T583 350q0 56-12.5 106t-38 88q-25.5 38-65 60.5T373 627q-96 0-152.5-68T164 350zm137 448q0 22 19 38t53 16q34 0 53.5-16t19.5-38q0-24-19.5-39.5T373 743q-34 0-53 15.5T301 798z"/><glyph unicode="" horiz-adv-x="631" d="M60 262q0 65 17 116.5t50 87.5q33 36 80.5 55T316 540q64 0 112-21t80-58.5q32-37.5 47.5-88T571 262q0-64-17.5-115t-50-87q-32.5-36-80-55T316-14q-66 0-114 21t-79.5 58q-31.5 37-47 87.5T60 262zm98 0q0-37 8.5-72.5T194 126q19-28 49-45t74-17q156 0 156 198 0 39-8.5 75t-27 63.5Q419 428 389 445t-72 17q-78 0-118.5-49.5T158 262zm91 388q0 23 18 41.5t47 18.5q29 0 48-18.5t19-41.5q0-23-19-40.5T314 592q-29 0-47 17.5T249 650z"/><glyph unicode="" horiz-adv-x="846" d="M657 700h100V0H657zm-568 0h100V433q6 1 16 2.5t22.5 2.5q12.5 1 26 2t26.5 1q52 0 101-10t87-34.5q38-24.5 60.5-65.5T551 228q0-60-21.5-105T470 49q-38-29-91-43.5T262-9q-15 0-36 .5T181.5-6Q158-4 134-1T89 7zM270 77q37 0 69 9t55.5 27q23.5 18 37 45t13.5 63q0 40-15 66t-39.5 41q-24.5 15-57 21t-68.5 6q-19 0-42-3t-34-6V83q14-4 34.5-5t46.5-1zm61 794q5-36 30.5-54.5T429 798q42 0 67.5 18.5T527 870l84-18q-13-55-57-86t-126-31q-79 0-129.5 27T238 850z"/><glyph unicode="" horiz-adv-x="771" d="M180 78q42-6 86-6 72 0 101 25t29 71q0 40-28.5 67T269 262q-19 0-42.5-1.5T180 254zm0 246q32 5 59.5 6.5T289 332q58 0 97.5-12t63.5-33q24-21 34-49.5t10-61.5q0-95-58-138.5T247-6q-42 0-81 1T88-1v526h92zm411 201h92V0h-92zM277 712q5-22 14-35t21-19.5q12-6.5 27.5-8T372 648q17 0 32.5 2t27.5 9q12 7 21 19t14 33h72q-11-80-57.5-104T370 583q-31 0-60 5t-52.5 17q-23.5 12-40 31.5T195 686z"/><glyph unicode="" horiz-adv-x="582" d="M395 325h-24q-10 0-23-1-81-5-128-34t-47-86q0-33 13.5-58t38-41q24.5-16 58-24t74.5-8q48 0 91 11.5t67 25.5l29-75q-27-17-78.5-32.5T342-13Q281-13 230.5-.5t-87 38.5Q107 64 87 103t-20 93q0 72 42 119t120 57v4q-35 10-61 27.5T125 443q-17 22-25.5 46.5T91 539q0 45 20 78t54.5 54q34.5 21 80 31t97.5 10q30 0 59.5-3.5t55-9.5q25.5-6 46-13t31.5-14l-28-78q-15 6-33.5 11.5t-39 10q-20.5 4.5-42 7.5t-41.5 3q-71 0-113-22.5T196 528q0-26 12.5-46t33-35q20.5-15 46.5-24.5t53-13.5q18-3 44-3.5t46-.5h19v-80zM154 795q0 23 16.5 36t45.5 13q28 0 45-13t17-36q0-22-17-35.5T216 746q-29 0-45.5 13.5T154 795zm214 0q0 23 16.5 36t44.5 13q29 0 46-13t17-36q0-22-17-35.5T429 746q-28 0-44.5 13.5T368 795z"/><glyph unicode="" horiz-adv-x="530" d="M303 233q-81 0-116-20.5T152 154q0-39 36.5-62T296 69q85 0 146 35l24-72q-29-16-70-28.5T300-9Q179-9 119.5 32.5T60 144q0 52 28.5 82.5T181 274v10q-49 15-74 47t-25 71q0 64 51 98.5T271 535q64 0 111-14t82-34l-25-67q-25 11-61.5 24T300 457q-63 0-93.5-17T176 381q0-17 9.5-31.5t25.5-25q16-10.5 36.5-16.5t42.5-6h76v-69zM110 633q0 24 16 40t42 16q25 0 40.5-16t15.5-40q0-23-15.5-39T168 578q-26 0-42 16t-16 39zm215 0q0 24 15.5 40t41.5 16q26 0 41.5-16t15.5-40q0-23-15.5-39T382 578q-26 0-41.5 16T325 633z"/><glyph unicode="" horiz-adv-x="398" d="M149 634H69v66h260v-66h-80V66h80V0H69v66h80zm-22 164q0 22 19 38t53 16q34 0 53.5-16t19.5-38q0-24-19.5-39.5T199 743q-34 0-53 15.5T127 798z"/><glyph unicode="" horiz-adv-x="317" d="M114 525h92V0h-92z"/><glyph unicode="" horiz-adv-x="565" d="M89 700h423v-86H189V391h300v-86H189V0H89z"/><glyph unicode="" horiz-adv-x="450" d="M426 447H180V308h239v-70H180V0H88v525h338z"/><glyph unicode="" horiz-adv-x="624" d="M584 30q-28-20-68.5-30T428-12l-15-166h-63L329-8q-57 9-106 35t-86 70.5q-37 44.5-58 107T58 350q0 98 30 167t78 112.5Q214 673 274 693t119 20q66 0 108-7t71-18l-22-84q-49 23-149 23-45 0-87.5-15t-76-48Q204 531 184 478.5T164 350q0-68 19-119.5t52.5-86.5q33.5-35 79-52.5T414 74q49 0 85 9t61 23z"/><glyph unicode="" horiz-adv-x="529" d="M484 36q-29-20-65-32t-77-16l-15-166h-63L243-9q-50 9-85 32t-56.5 58Q80 116 70 162T60 262q0 133 64.5 205.5T310 540q53 0 92-9.5t70-23.5l-24-75q-27 14-58.5 22t-68.5 8q-163 0-163-200 0-38 9-73t29-62.5q20-27.5 52.5-44T328 66q42 0 73.5 11.5T454 105z"/><glyph unicode="" horiz-adv-x="715" d="M89 700q20 3 46.5 4.5t55 2.5q28.5 1 56 1.5t50.5.5q92 0 159.5-26.5t112-73.5Q613 562 635 497t22-142q0-70-20.5-135.5T571 103q-45-51-115.5-82T285-10q-17 0-45.5 1T181-7q-30 1-55.5 2.5T89-1zm211-79h-30q-16 0-32-1t-29-2q-13-1-20-2V82q5-1 19.5-1.5t30.5-1q16-.5 30-1t20-.5q75 0 125.5 23.5t81 62.5q30.5 39 43 88.5T551 355q0 45-12 92t-41 85.5Q469 571 421 596t-121 25zm55 249h132v-23l-178-95h-81z"/><glyph unicode="" horiz-adv-x="649" d="M538 181q0-51 1.5-95.5T549-2h-61l-23 80h-10q-23-40-67.5-66T284-14q-113 0-168.5 67T60 259q0 134 68.5 205.5T321 536q21 0 37.5-1.5t31-3.5q14.5-2 28-6t28.5-8v183h92zm-92 247q-23 17-49.5 23.5T326 458q-81 0-125.5-47T156 258q0-42 8-77.5t25-61.5q17-26 45-40.5T303 64q61 0 95 30.5t48 90.5zm179 271h104v-23L617 549h-56z"/><glyph unicode="" horiz-adv-x="733" d="M544 313H189V0H89v700h100V401h355v299h100V0H544zM407 870h132v-23l-178-95h-81z"/><glyph unicode="" horiz-adv-x="641" d="M461 0v290q0 43-5.5 74.5t-20 52.5q-14.5 21-39 31T335 458q-26 0-51-9t-46-25q-21-16-36-38.5T180 335V0H88v700h92V460h11q30 36 72 58t104 22q48 0 83-10.5t58-37q23-26.5 34-71T553 310V0zm-98 720h104v-23L355 570h-56z"/><glyph unicode="" horiz-adv-x="566" d="M547 0H89v700h100V88h358zM328 700h104v-23L320 550h-56z"/><glyph unicode="" horiz-adv-x="336" d="M192 139q0-41 15.5-58T249 64q16 0 31 2t36 8l12-68q-10-4-24-7.5T275-8q-15-3-30-4.5T218-14q-54 0-86 27.5T100 105v595h92zm95 561h104v-23L279 550h-56z"/><glyph unicode="" horiz-adv-x="610" d="M591 612H355V0H255v612H19v88h572zM378 870h132v-23l-178-95h-81z"/><glyph unicode="" horiz-adv-x="405" d="M24 525h89v106l92 24V525h158v-78H205V179q0-63 16-89t55-26q25 0 45.5 5.5T368 84l21-65Q357 5 320.5-4.5T242-14q-70 0-99.5 38T113 148v299H24zm270 174h104v-23L286 549h-56z"/><glyph unicode="" horiz-adv-x="628" d="M296 234l26-109h2l27 111 180 464h100L341-10h-50L-3 700h110zm82 636h132v-23l-178-95h-81z"/><glyph unicode="" horiz-adv-x="535" d="M242 223l35-108 33 110 125 300h100L290-11h-40L0 525h108zm42 497h104v-23L276 570h-56z"/><glyph unicode="" horiz-adv-x="589" d="M149 327v78h40.5q14.5 0 30 1t30 1.5q14.5.5 23.5 2.5 54 7 92 34.5t38 73.5q0 31-11.5 51.5t-32 33Q339 615 312 620.5t-57 5.5q-58 0-101-9t-66-20l-27 80q10 6 31 12t48.5 11q27.5 5 61 8.5T270 712q44 0 87-8.5t76.5-28.5q33.5-20 54.5-53t21-83q0-50-35.5-95T366 379v-4q77-11 121.5-53.5T532 207q0-57-25-98.5T441.5 40q-40.5-27-92-40T244-13q-72 0-121 8.5T44 16l25 86q26-11 71.5-20T252 73q31 0 62 8t56 24q25 16 40.5 40.5T426 204q0 60-46.5 88T250 325q-13 1-23 1.5t-24 .5z"/><glyph unicode="" horiz-adv-x="518" d="M137 158v69h76q22 0 44 9.5t39.5 27Q314 281 325 304t11 50q0 56-31.5 81T201 460q-38 0-75-13t-63-24l-12 31-12 37q35 21 82 34t110 13q47 0 84-11.5t63-32.5q26-21 40-50.5t14-65.5q0-66-32-108t-79-59v-11q32-5 60-17.5t48.5-34Q450 127 462 96t12-74q0-63-22.5-107.5t-60-72q-37.5-27.5-87-40T201-210q-54 0-93.5 10.5T36-175l12 30q4 8 8 19t7 20q30-12 62.5-19t58.5-7q102 0 147 40t45 115q0 73-48 104t-129 31z"/><glyph unicode="" horiz-adv-x="589" d="M149 327v78h40.5q14.5 0 30 1t30 1.5q14.5.5 23.5 2.5 54 7 92 34.5t38 73.5q0 31-11.5 51.5t-32 33Q339 615 312 620.5t-57 5.5q-58 0-101-9t-66-20l-27 80q10 6 31 12t48.5 11q27.5 5 61 8.5T270 712q44 0 87-8.5t76.5-28.5q33.5-20 54.5-53t21-83q0-50-35.5-95T366 379v-4q77-11 121.5-53.5T532 207q0-57-25-98.5T441.5 40q-40.5-27-92-40T244-13q-72 0-121 8.5T44 16l25 86q26-11 71.5-20T252 73q31 0 62 8t56 24q25 16 40.5 40.5T426 204q0 60-46.5 88T250 325q-13 1-23 1.5t-24 .5zm144 417h-69L85 845v25h93l64-49 19-33 21 32 68 50h89v-26z"/><glyph unicode="" horiz-adv-x="518" d="M137 158v69h76q22 0 44 9.5t39.5 27Q314 281 325 304t11 50q0 56-31.5 81T201 460q-38 0-75-13t-63-24l-12 31-12 37q35 21 82 34t110 13q47 0 84-11.5t63-32.5q26-21 40-50.5t14-65.5q0-66-32-108t-79-59v-11q32-5 60-17.5t48.5-34Q450 127 462 96t12-74q0-63-22.5-107.5t-60-72q-37.5-27.5-87-40T201-210q-54 0-93.5 10.5T36-175l12 30q4 8 8 19t7 20q30-12 62.5-19t58.5-7q102 0 147 40t45 115q0 73-48 104t-129 31zm115 428h-49L74 773h87l44-68 28-71 29 70 49 69h78z"/><glyph unicode="" horiz-adv-x="217" d="M174 375q0-24-17-38t-43-14q-32 0-51 19t-19 56q0 34 10.5 59T80 498.5Q95 515 112 525t30 14l27-40q-24-11-39-29t-13-44q26 5 41.5-10t15.5-41z"/><glyph unicode="" horiz-adv-x="217" d="M44 486q0 24 16.5 38.5T103 539q32 0 51.5-19t19.5-56q0-35-11-60t-26.5-42Q121 345 104 335.5T75 323l-28 41q24 11 39.5 28t14.5 43q-26-5-41.5 10T44 486z"/><glyph unicode="" horiz-adv-x="379" d="M174 375q0-24-17-38t-43-14q-32 0-51 19t-19 56q0 34 10.5 59T80 498.5Q95 515 112 525t30 14l27-40q-24-11-39-29t-13-44q26 5 41.5-10t15.5-41zm162 0q0-24-17-38t-43-14q-32 0-51 19t-19 56q0 34 10.5 59t25.5 41.5q15 16.5 32 26.5t30 14l27-40q-24-11-39-29t-13-44q26 5 41.5-10t15.5-41z"/><glyph unicode="" horiz-adv-x="379" d="M44 486q0 24 16.5 38.5T103 539q32 0 51.5-19t19.5-56q0-35-11-60t-26.5-42Q121 345 104 335.5T75 323l-28 41q24 11 39.5 28t14.5 43q-26-5-41.5 10T44 486zm162 0q0 24 16.5 38.5T265 539q32 0 51.5-19t19.5-56q0-35-11-60t-26.5-42Q283 345 266 335.5T237 323l-28 41q24 11 39.5 28t14.5 43q-26-5-41.5 10T206 486z"/><glyph unicode="" horiz-adv-x="244" d="M98 525h92l-35-198H98z"/><glyph unicode="" horiz-adv-x="375" d="M98 525h92l-35-198H98zm130 0h92l-35-198h-57z"/><glyph unicode="" horiz-adv-x="436" d="M194 583l8 39-30-28-83-49-33 58 169 104h52V280h-83z"/><glyph unicode="" horiz-adv-x="249" d="M59-102q0 22 17.5 36T117-52q29 0 50.5-19t21.5-59q0-27-10-48t-24-36q-14-15-29.5-24T98-251l-29 40q19 8 32.5 23.5T115-149q-23-5-39.5 9T59-102z"/><glyph unicode="" horiz-adv-x="379" d="M187 870h132v-23l-178-95H60z"/><glyph unicode="" horiz-adv-x="474" d="M268 744h-69L60 845v25h93l64-49 19-33 21 32 68 50h89v-26z"/><glyph unicode="" horiz-adv-x="458" d="M60 795q0 23 16.5 36t45.5 13q28 0 45-13t17-36q0-22-17-35.5T122 746q-29 0-45.5 13.5T60 795zm214 0q0 23 16.5 36t44.5 13q29 0 46-13t17-36q0-22-17-35.5T335 746q-28 0-44.5 13.5T274 795z"/><glyph unicode="" horiz-adv-x="379" d="M319 752h-86L60 847v23h132z"/><glyph unicode="" horiz-adv-x="487" d="M129 850h108v-16l-109-93H60zm183 0h115v-16l-157-93h-69z"/><glyph unicode="" horiz-adv-x="470" d="M60 836h350v-68H60z"/><glyph unicode="" horiz-adv-x="493" d="M153 871q5-36 30.5-54.5T251 798q42 0 67.5 18.5T349 870l84-18q-13-55-57-86t-126-31q-79 0-129.5 27T60 850z"/><glyph unicode="" horiz-adv-x="464" d="M142 712q5-22 14-35t21-19.5q12-6.5 27.5-8T237 648q17 0 32.5 2t27.5 9q12 7 21 19t14 33h72q-11-80-57.5-104T235 583q-31 0-60 5t-52.5 17q-23.5 12-40 31.5T60 686z"/><glyph unicode="ﬁ" horiz-adv-x="643" d="M535 525V0h-92v447H208V0h-92v447H24v78h92v33q0 81 52.5 118T323 713q66 0 120-12.5t88-31.5l-28-72q-32 17-75.5 27.5T337 635q-42 0-67.5-6t-39-19.5q-13.5-13.5-18-34T208 525z"/><glyph unicode="ﬂ" horiz-adv-x="673" d="M438 625q-27 5-60 7.5t-59 2.5q-38 0-60.5-7t-34-21q-11.5-14-15-34.5T206 525h115v-78H206V0h-92v447H24v78h90v33q0 82 47.5 118.5T319 713q19 0 47-1.5t57.5-4q29.5-2.5 57.5-6t49-6.5V142q0-42 15-60t41-18q14 0 31 1.5t37 7.5l11-68q-21-9-52.5-14T556-14q-54 0-86 27.5T438 105z"/><glyph horiz-adv-x="0"/></font>
</defs>
</svg>
