<svg xmlns="http://www.w3.org/2000/svg"><defs><font id="PTSans-Regular" horiz-adv-x="525"><font-face ascent="1018" descent="276"/><glyph horiz-adv-x="267"/><glyph horiz-adv-x="267"/><glyph unicode="!" horiz-adv-x="305" d="M127 700h83V353l-17-176h-49l-17 176zM110 46q0 27 15.5 42.5T167 104q27 0 43-15.5T226 46q0-26-16-42t-43-16q-26 0-41.5 16T110 46z"/><glyph unicode="&quot;" horiz-adv-x="335" d="M207 700h78l-31-193h-47zm-117 0h78l-31-193H90z"/><glyph unicode="#" horiz-adv-x="545" d="M280 225H175L136 58H67l39 167H28l14 64h79l31 131H78l14 64h75l38 158h69l-38-158h105l38 158h69l-38-158h77l-16-64h-76l-31-131h73l-16-64h-72L310 58h-69zm-90 64h105l31 131H221z"/><glyph unicode="$" horiz-adv-x="545" d="M242-12q-55 1-97.5 9.5T76 20l27 73q20-12 54.5-22T242 60v270q-30 15-59.5 32T130 402.5Q107 426 93 458t-14 76q0 72 40.5 118T242 709v91h68v-88q51-2 83.5-9.5T452 683l-24-70q-20 10-48 17.5t-70 9.5V393q31-16 62-34.5t55.5-42.5q24.5-24 39.5-56t15-75q0-78-43.5-128.5T310-8v-92h-68zm157 190q0 24-8.5 43T368 255q-14 15-33 27t-41 23V62q46 7 75.5 35.5T399 178zM162 539q0-43 27.5-70t68.5-49v219q-53-6-74.5-35T162 539z"/><glyph unicode="%" horiz-adv-x="773" d="M70 542q0 45 12 77t32.5 53q20.5 21 49 30.5T225 712q33 0 61.5-9t49-29q20.5-20 32.5-52.5t12-79.5q0-47-12-79.5T335.5 410q-20.5-20-49-29t-61.5-9q-33 0-61.5 9t-49 29Q94 430 82 462.5T70 542zm74 0q0-60 21.5-86t59.5-26q19 0 34 5.5t25.5 18q10.5 12.5 16 34T306 542q0 33-5.5 54.5t-16 34Q274 643 259 648.5t-34 5.5q-38 0-59.5-23.5T144 542zm283-372q0 45 12 77t32.5 53q20.5 21 49 30.5T582 340q33 0 61.5-9t49-29q20.5-20 32.5-52.5t12-79.5q0-47-12-79.5T692.5 38q-20.5-20-49-29T582 0q-33 0-61.5 9t-49 29Q451 58 439 90.5T427 170zm74 0q0-60 21.5-86T582 58q19 0 34 5.5t25.5 18q10.5 12.5 16 34T663 170q0 33-5.5 54.5t-16 34Q631 271 616 276.5t-34 5.5q-38 0-59.5-23.5T501 170zm136 543l49-38L173-12l-50 39z"/><glyph unicode="&amp;" horiz-adv-x="814" d="M118 187q0 40 14 76.5t38 67.5q24 31 54.5 57t63.5 46q-24 36-41.5 72T229 584q0 24 8 47t25.5 41q17.5 18 45 29t66.5 11q41 0 69-10.5t45-27.5q17-17 24.5-38t7.5-43q0-42-32.5-86.5T385 421q16-29 37.5-59.5T468 301q24-30 49-59.5t50-54.5q11 12 22 30.5t21.5 39q10.5 20.5 19 42.5t15.5 42l62-29q-6-17-17-40.5t-24.5-48Q652 199 638 176.5T612 139q21-20 38-34.5t31.5-25q14.5-10.5 28-19T737 44l-50-56q-53 26-121 93-18-18-39.5-34.5T478 17Q451 4 418.5-4T347-12q-47 0-88.5 13T186 39.5Q155 65 136.5 102T118 187zm401-56q-29 29-57 63t-53.5 68q-25.5 34-47 65.5T325 383q-27-20-50-41t-40.5-44.5Q217 274 207.5 247t-9.5-58q0-31 13-55.5t35.5-41Q269 76 298 67t61-9q25 0 48.5 6.5T452 81q21 10 38.5 23t28.5 27zM307 584q0-30 12.5-59.5T352 466q53 34 73.5 62t20.5 49q0 32-15.5 52T377 649q-36 0-53-18t-17-47z"/><glyph unicode="'" horiz-adv-x="218" d="M90 700h78l-31-193H90z"/><glyph unicode="(" horiz-adv-x="280" d="M227-220q-46 48-78 105.5T97.5 3.5Q78 64 69 125.5T60 243q0 55 9 116t29 122.5Q118 543 150.5 602T230 712l48-35q-40-51-66.5-105.5T169 461q-16-56-22.5-111.5T140 243q0-48 7.5-104.5t24-113Q188-31 214.5-85t63.5-98z"/><glyph unicode=")" horiz-adv-x="280" d="M53 712q46-48 78-105.5t51.5-118Q202 428 211 366.5t9-117.5q0-55-9-116T182 10.5Q162-51 129.5-110T50-220L2-185q40 51 67 106t42.5 111q15.5 56 22 111t6.5 106q0 48-8 104t-24.5 113Q91 523 65 577T2 675z"/><glyph unicode="*" horiz-adv-x="351" d="M130 715l25-42 18-56 21 57 24 40 48-26-26-43-46-48 68 12h48v-56h-46l-64 12 46-48 23-39-47-28-26 42-23 61-19-58-25-42-50 28 27 42 42 42-58-12H40v56h50l62-12-45 44-26 46z"/><glyph unicode="+" horiz-adv-x="505" d="M40 374h176v181h72V374h176v-72H288V122h-72v180H40z"/><glyph unicode="," horiz-adv-x="225" d="M49 43q0 24 16 39t41 15q31 0 50.5-22T176 11q0-36-10-63t-26-46.5q-16-19.5-35-32T67-149l-25 39q36 14 53.5 43.5T113-7q-9-3-17-3-20 0-33.5 13.5T49 43z"/><glyph unicode="-" horiz-adv-x="360" d="M59 325h242v-74H59z"/><glyph unicode="." horiz-adv-x="214" d="M49 46q0 27 15.5 42.5T106 104q27 0 43-15.5T165 46q0-26-16-42t-43-16Q80-12 64.5 4T49 46z"/><glyph unicode="/" horiz-adv-x="354" d="M328 712l63-28L26-140l-63 28z"/><glyph unicode="0" horiz-adv-x="545" d="M43 350q0 180 58.5 271T272 712q121 0 175.5-89.5T502 350q0-180-58.5-271T272-12Q153-12 98 83T43 350zm83 0q0-65 8.5-118.5t26.5-92q18-38.5 45.5-60T272 58q76 0 111.5 70.5T419 350q0 64-7.5 118t-25 93Q369 600 341 621t-69 21q-75 0-110.5-71T126 350z"/><glyph unicode="1" horiz-adv-x="545" d="M108 74h140v484l10 59-40-47-110-79-38 51 220 170h36V74h137V0H108z"/><glyph unicode="2" horiz-adv-x="545" d="M446 541q0-53-19.5-108.5t-51-111.5Q344 265 305 211.5T227 110l-49-43v-4l64 11h218V0H62v29q22 23 53 57t64.5 75.5q33.5 41.5 66 88t59 94.5q26.5 48 42.5 95t16 89q0 49-28 81.5T250 642q-38 0-74-15.5T114 591l-33 57q35 30 83 47t103 17q43 0 76-12.5t56-35.5q23-23 35-54.5t12-68.5z"/><glyph unicode="3" horiz-adv-x="545" d="M234 58q34 0 63 10t50 29.5q21 19.5 33 46.5t12 59q0 70-41.5 104T236 341h-74v29l144 222 46 44-65-10H89v74h357v-29L287 432l-35-29v-2l34 7q40-1 74-14.5t59-39q25-25.5 39-61t14-80.5q0-54-19-96t-51.5-70.5Q369 18 325 3t-93-15q-45 0-81 7T88 13l21 71q23-11 54.5-18.5T234 58z"/><glyph unicode="4" horiz-adv-x="545" d="M524 215H406V0h-78v215H20v33l332 463h54V285h118zM328 503l10 82h-3l-35-68-141-191-48-49 70 8h147z"/><glyph unicode="5" horiz-adv-x="545" d="M213 58q69 0 114 40t45 116q0 73-44.5 109T205 359l-84-5v346h312v-74H196V427l43 2q99-1 156-55t57-155q0-56-19-99.5T381.5 47Q349 18 305 3t-94-15q-45 0-76 5T77 8l21 68q23-9 49.5-13.5T213 58z"/><glyph unicode="6" horiz-adv-x="545" d="M492 211q0-46-14-86.5t-41-71q-27-30.5-67-48T279-12q-50 0-90 16t-69 47.5Q91 83 75.5 129T60 235q0 99 25.5 182.5T156 563q45 62 106.5 100.5T396 712l17-64q-56-10-102-38t-80.5-69Q196 500 174 449t-30-105q16 27 54 49.5t93 22.5q94 0 147.5-54T492 211zm-83-8q0 71-33 107t-102 36q-49 0-84.5-24T140 268q-2-14-2-23v-20q0-31 8.5-61t26.5-53.5q18-23.5 44.5-38T280 58q29 0 52.5 11T373 99q17 19 26.5 46t9.5 58z"/><glyph unicode="7" horiz-adv-x="545" d="M110 0l251 586 44 49-59-9H61v74h418v-27L191 0z"/><glyph unicode="8" horiz-adv-x="545" d="M68 167q0 63 33 109.5T204 361q-25 15-46.5 31.5t-38 37.5q-16.5 21-26 47T84 537q0 39 13.5 71t39 55q25.5 23 61 36t80.5 13q42 0 76-12t57.5-33q23.5-21 36.5-50t13-64q0-57-26-100.5T349 367q26-15 49.5-33t41-40q17.5-22 27.5-49.5t10-62.5q0-43-14-78.5t-41-61q-27-25.5-66-40T267-12q-48 0-85 14t-62.5 38Q94 64 81 96.5T68 167zm331 10q0 30-12 52.5t-31.5 41Q336 289 311 304t-52 29q-61-34-87-76t-26-80q0-24 8-46t24-38q16-16 39.5-25.5T272 58q25 0 48 7.5t40.5 22q17.5 14.5 28 37T399 177zM162 539q0-28 11-49.5t29.5-38.5q18.5-17 42.5-31.5t50-27.5q45 35 66.5 69t21.5 75q0 51-31.5 78.5T276 642q-27 0-48-9t-36-23q-15-14-22.5-32.5T162 539z"/><glyph unicode="9" horiz-adv-x="545" d="M52 488q0 48 14 89t41 71q27 30 67.5 47t94.5 17q102 0 159-66t57-186q0-113-25.5-197.5T389 120q-45-58-106.5-90.5T149-12l-18 64q58 9 104.5 34t80 63q33.5 38 54.5 86.5T399 341q-27-32-59.5-44.5T254 284q-41 0-77.5 13.5T112 337q-28 26-44 64t-16 87zm83 8q0-71 37.5-106.5T271 354q49 0 84 16t50 42q2 13 2 23v21q0 36-8.5 69.5t-25.5 60Q356 612 328.5 627T264 642q-61 0-95-38.5T135 496z"/><glyph unicode=":" horiz-adv-x="219" d="M91 449q0 27 15.5 42.5T148 507q27 0 43-15.5t16-42.5q0-26-16-42t-43-16q-26 0-41.5 16T91 449zm0-403q0 27 15.5 42.5T148 104q27 0 43-15.5T207 46q0-26-16-42t-43-16q-26 0-41.5 16T91 46z"/><glyph unicode=";" horiz-adv-x="256" d="M89 43q0 24 16 39t41 15q31 0 50.5-22T216 11q0-36-10-63t-26-46.5q-16-19.5-35-32T107-149l-25 39q36 14 53.5 43.5T153-7q-9-3-17-3-20 0-33.5 13.5T89 43zm7 406q0 27 15.5 42.5T153 507q27 0 43-15.5t16-42.5q0-26-16-42t-43-16q-26 0-41.5 16T96 449z"/><glyph unicode="&lt;" horiz-adv-x="505" d="M42 305v29l378 231 38-62-237-145-91-38 90-32 243-144-38-60z"/><glyph unicode="=" horiz-adv-x="505" d="M40 457h424v-72H40zm0-166h424v-72H40z"/><glyph unicode="&gt;" horiz-adv-x="505" d="M463 344v-29L85 84l-38 61 237 145 91 38-90 32L42 504l38 61z"/><glyph unicode="?" horiz-adv-x="436" d="M150 177q-1 5-1 11v11q0 42 12.5 74t31 58.5q18.5 26.5 40 49.5t40 46.5q18.5 23.5 31 50T316 538q0 46-26.5 75T201 642q-36 0-73-12.5T64 600l-27 62q38 23 80 36.5T221 712q44 0 77.5-12.5t56-34.5q22.5-22 33.5-52t11-64q0-45-13.5-78.5t-34-61Q331 382 307.5 358t-44-50.5Q243 281 229.5 250T216 177zM130 46q0 27 15.5 42.5T187 104q27 0 43-15.5T246 46q0-26-16-42t-43-16q-26 0-41.5 16T130 46z"/><glyph unicode="@" horiz-adv-x="1064" d="M707 491h34l-51-287q-5-26-7.5-46.5T680 121q0-25 8.5-36.5T718 73q34 0 67.5 18t59.5 51q26 33 42.5 79.5T904 326q0 77-26 136t-73 99.5Q758 602 693 623t-143 21q-81 0-152.5-30t-124-83q-52.5-53-83-127T160 243q0-89 27.5-159T266-34q51-48 122-73t158-25q29 0 66 6.5t67 21.5l20-64q-45-19-83-25.5t-82-6.5q-93 0-174.5 28t-142 83Q157-34 122 47.5T87 236q0 109 37.5 197T226 583q64 62 149 95.5T555 712q90 0 167-26.5t133.5-76q56.5-49.5 89-121T977 326q0-64-22-122.5T895.5 101Q858 57 808 30.5T702 4q-42 0-67 18t-25 67q0 9 1 19.5t3 22.5h-4q-14-23-33-45.5T534.5 45q-23.5-18-50-29.5T429 4q-24 0-46 10.5T345 45q-16 20-25.5 47.5T310 155q0 64 21 126t56.5 110q35.5 48 83 77.5T571 498q37 0 59-11t43-27zm-57-98q-17 20-34 27.5t-43 7.5q-39 0-73-23.5t-58.5-61q-24.5-37.5-39-84T388 168q0-39 16-66.5T462 74q20 0 41.5 13t42.5 35.5q21 22.5 40 50.5t34 57z"/><glyph unicode="A" horiz-adv-x="585" d="M418 194H160L90 0H8l265 711h38L577 0h-87zm-231 72h206l-78 213-25 106h-1l-25-108z"/><glyph unicode="B" horiz-adv-x="584" d="M507 540q0-25-8-51t-24-48.5Q459 418 434 401t-59-26v-4q30-5 57.5-17t48.5-33q21-21 34-51t13-71q0-54-22.5-93.5t-59-64.5Q410 16 363 4T267-8h-40q-23 0-48 1.5t-50 4Q104 0 85 5v689q37 6 86 10t107 4q39 0 79.5-6.5t73.5-25q33-18.5 54.5-51.5t21.5-85zM275 64q32 0 62 7.5t53 24q23 16.5 36.5 40.5t13.5 57q0 41-16.5 66t-43 39Q354 312 321 317t-66 5h-87V71q7-2 20-3t28-2q15-1 31-1.5t28-.5zm-55 328q17 0 41 1t40 3q24 8 45 19.5t37.5 27q16.5 15.5 26 36T419 523q0 33-12.5 54.5T373 612q-21 13-48 18.5t-55 5.5q-33 0-60.5-1.5T168 630V392z"/><glyph unicode="C" horiz-adv-x="571" d="M533 29Q503 6 457-3t-98-9q-63 0-118 21.5T145 75q-41 44-65 112.5T56 350q0 98 26.5 166.5t70 112Q196 672 250 692t110 20q60 0 98-6.5t65-17.5l-20-73q-48 23-137 23-41 0-81-15t-71.5-49Q182 540 163 485t-19-135q0-72 18-126t49.5-90q31.5-36 74-54T378 62q45 0 78.5 9T513 94z"/><glyph unicode="D" horiz-adv-x="654" d="M85 700q19 3 42.5 4.5t49 2q25.5.5 50 1t45.5.5q84 0 145.5-26T519 609.5Q559 563 578.5 498T598 355q0-71-18.5-136.5t-58.5-116q-40-50.5-104-81T262-9q-16 0-41.5.5t-52.5 2Q141-5 118-4T85-1zm189-66h-28.5q-15.5 0-30.5-1t-27.5-2q-12.5-1-19.5-2V69q5-1 19-1.5t29-1 29-1q14-.5 19-.5 70 0 117.5 24t76 64.5q28.5 40.5 40.5 93T510 355q0 49-11 98.5T461 543q-27 40-72.5 65.5T274 634z"/><glyph unicode="E" horiz-adv-x="536" d="M85 700h381v-74H168V397h273v-74H168V74h303V0H85z"/><glyph unicode="F" horiz-adv-x="517" d="M85 700h381v-74H168V387h278v-74H168V0H85z"/><glyph unicode="G" horiz-adv-x="612" d="M321 349h235V41q-16-12-38.5-22t-48-17q-25.5-7-53-10.5T363-12q-67 0-123 21.5t-97 66q-41 44.5-64 113T56 350q0 97 28 166t73 112.5Q202 672 258 692t112 20q60 0 99-6.5t66-17.5l-21-73q-48 23-137 23-42 0-83.5-14.5T219 575q-33-34-54-89t-21-136q0-74 17-128t47.5-89.5Q239 97 282 79.5T376 62q64 0 109 25v195l-164 20z"/><glyph unicode="H" horiz-adv-x="672" d="M504 321H168V0H85v700h83V395h336v305h83V0h-83z"/><glyph unicode="I" horiz-adv-x="291" d="M104 700h83V0h-83z"/><glyph unicode="J" horiz-adv-x="291" d="M112 700h83V154q0-80-35.5-122T52-10q-8 0-20 1T8-6Q-4-4-15.5-1T-34 6l16 71q28-13 61-13 42 0 55.5 29.5T112 174z"/><glyph unicode="K" horiz-adv-x="610" d="M215 324h-47V0H85v700h83V374l45 14 235 312h96L310 399l-42-33 51-40L575 0H470z"/><glyph unicode="L" horiz-adv-x="517" d="M499 0H85v700h83V74h331z"/><glyph unicode="M" horiz-adv-x="791" d="M623 470l10 105h-5l-38-96-182-316h-25L190 480l-36 95h-5l14-104V0H85v700h62l219-358 33-78h2l31 80 209 356h65V0h-83z"/><glyph unicode="N" horiz-adv-x="673" d="M211 458l-54 101h-4l10-101V0H85v711h44l335-467 52-96h5l-11 96v456h78V-11h-44z"/><glyph unicode="O" horiz-adv-x="684" d="M56 350q0 175 74 268.5T341 712q74 0 128-26t89.5-73.5Q594 565 611 498.5T628 350q0-175-74.5-268.5T341-12q-73 0-126.5 26t-89 73.5Q90 135 73 201.5T56 350zm88 0q0-58 11.5-110t35.5-91.5q24-39.5 61.5-63T341 62q93 0 146 70.5T540 350q0 57-11.5 109.5t-36 92q-24.5 39.5-62 63T341 638q-92 0-144.5-70.5T144 350z"/><glyph unicode="P" horiz-adv-x="559" d="M85 693q38 9 82 12t87 3q46 0 93.5-9t86.5-33q39-24 63.5-66T522 493q0-64-23-108t-61-71.5Q400 286 351 274t-101-12h-16.5q-11.5 0-24 .5T185 264q-12 1-17 2V0H85zm171-57q-26 0-50-1t-38-5V340q5-2 16-2.5t23-1q12-.5 23-.5h16q34 0 67.5 6.5T374 366q27 17 43.5 48t16.5 79q0 41-15.5 68.5t-41 44Q352 622 320 629t-64 7z"/><glyph unicode="Q" horiz-adv-x="684" d="M704-171q-24-7-47-9.5t-46-2.5q-50 0-97.5 10.5t-92 23Q377-137 336-126.5T258-116q-24 0-46-6v73q14 3 27 5t27 2q42 0 83.5-10.5t84.5-23q43-12.5 88-23t95-10.5q44 0 87 10zM56 350q0 175 74 268.5T341 712q74 0 128-26t89.5-73.5Q594 565 611 498.5T628 350q0-175-74.5-268.5T341-12q-73 0-126.5 26t-89 73.5Q90 135 73 201.5T56 350zm88 0q0-58 11.5-110t35.5-91.5q24-39.5 61.5-63T341 62q93 0 146 70.5T540 350q0 57-11.5 109.5t-36 92q-24.5 39.5-62 63T341 638q-92 0-144.5-70.5T144 350z"/><glyph unicode="R" horiz-adv-x="595" d="M85 693q38 7 87.5 11t90.5 4q46 0 87.5-10t73-33q31.5-23 50.5-60t19-90q0-82-45-133t-114-68l48-37L556 0h-97L266 302l-98 15V0H85zm180-57h-27q-14 0-27-1t-24.5-2q-11.5-1-18.5-3V372h78q69 0 114 34t45 106q0 54-37 89t-103 35z"/><glyph unicode="S" horiz-adv-x="531" d="M401 178q0 42-25 68.5t-62.5 47Q276 314 232 332t-81.5 43.5Q113 401 88 438.5T63 534q0 82 57 130t162 48q61 0 111-9t78-23l-25-73q-23 11-67.5 21T278 638q-66 0-99-29.5T146 539q0-39 25-65t62.5-46.5Q271 407 315 387t81.5-46.5Q434 314 459 277t25-92q0-45-16-81t-47-62q-31-26-75-40T246-12Q171-12 122-.5T46 25l28 75q23-13 68-25.5T243 62q33 0 62 6.5t50 21q21 14.5 33.5 36.5t12.5 52z"/><glyph unicode="T" horiz-adv-x="555" d="M537 626H319V0h-83v626H18v74h519z"/><glyph unicode="U" horiz-adv-x="652" d="M487 700h80V233q0-63-16.5-109t-47-75.5Q473 19 430 5T335-9Q211-9 148 47T85 217v483h83V256q0-53 10.5-89.5t31.5-59Q231 85 262.5 75T336 65q81 0 116 44.5T487 256z"/><glyph unicode="V" horiz-adv-x="568" d="M267 219l24-106h1l26 108 169 479h83L305-11h-37L-2 700h91z"/><glyph unicode="W" horiz-adv-x="828" d="M222 231l16-116h1l17 118 144 467h40l145-469 17-116h1l18 118 118 467h81L625-11h-46L437 458l-18 106h-5l-18-107L254-11h-46L8 700h88z"/><glyph unicode="X" horiz-adv-x="618" d="M259 356L46 700h100l142-237 25-57 24 57 150 237h92L359 363 589 0h-97L334 251l-27 60-26-60L119 0H26z"/><glyph unicode="Y" horiz-adv-x="558" d="M239 278L8 700h97l164-306 17-61h1l18 63 157 304h89L322 279V0h-83z"/><glyph unicode="Z" horiz-adv-x="545" d="M38 75l353 511 42 40H38v74h470v-75L153 111l-42-37h397V0H38z"/><glyph unicode="[" horiz-adv-x="304" d="M85 700h181v-70H163v-790h103v-70H85z"/><glyph unicode="\" horiz-adv-x="380" d="M399-111l-66-29-370 824 67 28z"/><glyph unicode="]" horiz-adv-x="304" d="M220-230H38v70h104v790H38v70h182z"/><glyph unicode="^" horiz-adv-x="500" d="M234 711h29l169-276h-82l-80 135-23 69-31-70-92-134H48z"/><glyph unicode="_" horiz-adv-x="408" d="M0-135h408v-70H0z"/><glyph unicode="`" horiz-adv-x="280" d="M220 571h-45L60 699v21h95z"/><glyph unicode="a" horiz-adv-x="496" d="M69 463q38 23 88.5 34T263 508q52 0 83.5-14t48-36.5q16.5-22.5 22-49.5t5.5-54q0-60-3-117t-3-108q0-37 3-70t11-61h-59l-21 70h-5q-9-14-22.5-27.5t-32.5-24Q271 6 246-1t-57-7q-32 0-59.5 10T82 30.5Q62 49 50.5 75T39 134q0 44 18 73.5t50.5 47q32.5 17.5 78 25T286 287h27.5q13.5 0 27.5-2 3 30 3 54 0 55-22 77t-80 22q-17 0-36.5-2.5t-40-7q-20.5-4.5-39-11T94 403zM211 62q28 0 50 7.5t38 19q16 11.5 26.5 25.5t15.5 27v83q-14 1-28.5 1.5t-28.5.5q-31 0-60.5-3.5t-52-13q-22.5-9.5-36-26T122 142q0-35 25-57.5T211 62z"/><glyph unicode="b" horiz-adv-x="540" d="M77 700h80V451h4q23 29 58.5 45t77.5 16q97 0 145.5-62T491 258q0-131-64-199T247-9Q191-9 145.5 3T77 29zm206-258q-50 0-81-28t-45-79V83q19-11 46-16.5t56-5.5q68 0 108.5 48T408 259q0 39-7 73t-22 58q-15 24-38.5 38T283 442z"/><glyph unicode="c" horiz-adv-x="451" d="M418 33Q388 11 347-.5T261-12q-58 0-98 18.5t-65.5 53q-25.5 34.5-37 83T49 250q0 127 56 194.5T266 512q48 0 81.5-7.5T408 483l-23-69q-23 13-51 20.5t-60 7.5q-142 0-142-192 0-38 7.5-72.5t25-61Q182 90 210.5 74T281 58q36 0 64.5 11T392 94z"/><glyph unicode="d" horiz-adv-x="538" d="M461 172q0-51 1-92.5T471-2h-54l-20 71h-4q-20-35-58-58t-89-23Q146-12 97.5 51T49 248q0 128 60.5 194.5T276 509q37 0 58.5-4t46.5-13v208h80zM259 58q51 0 81 26.5t41 80.5v248q-18 14-41 20t-61 6q-69 0-108-45.5T132 248q0-41 6.5-76t21.5-60q15-25 39.5-39.5T259 58z"/><glyph unicode="e" horiz-adv-x="508" d="M442 40q-30-24-75.5-38T270-12q-57 0-99 18.5t-69 53Q75 94 62 142T49 250q0 128 57 195t163 67q34 0 68-7.5t61-28.5q27-21 44-59.5T459 315q0-33-6-73H132q0-44 9-78t28-57.5q19-23.5 49.5-36T293 58q34 0 68 12t51 28zM270 442q-59 0-94.5-31T133 305h248q0 76-29 106.5T270 442z"/><glyph unicode="f" horiz-adv-x="319" d="M22 500h78v28q0 46 7.5 80t24.5 55.5q17 21.5 44 32t67 10.5q32 0 56.5-4t51.5-15l-18-67q-23 10-43.5 13t-38.5 3q-26 0-40.5-8t-21-23.5q-6.5-15.5-8-38T180 514v-14h133v-70H180V0h-80v430H22z"/><glyph unicode="g" horiz-adv-x="537" d="M460-23q0-97-51.5-143T256-212q-60 0-96.5 7.5T97-185l21 68q23-9 51-17t73-8q42 0 68.5 7.5t42.5 25q16 17.5 22 45T381 1v48h-4q-20-29-51-44.5T245-11Q144-11 96.5 52T49 248q0 128 61 194.5T290 509q57 0 97.5-9t72.5-21zM259 59q51 0 80 25.5t41 79.5v256q-40 19-102 19-68 0-107-46t-39-144q0-42 7-77t22-60q15-25 39-39t59-14z"/><glyph unicode="h" horiz-adv-x="547" d="M398 0v285q0 39-4.5 68.5t-16.5 49Q365 422 344.5 432T291 442q-47 0-85-30.5T157 333V0H77v700h80V444h4q26 31 62.5 49.5T314 512q42 0 73-9.5t51.5-33.5q20.5-24 30-64.5T478 302V0z"/><glyph unicode="i" horiz-adv-x="268" d="M94 500h80V0H94zM77 652q0 23 15.5 39.5T132 708q24 0 41-16.5t17-39.5q0-23-17-38t-41-15q-24 0-39.5 15T77 652z"/><glyph unicode="j" horiz-adv-x="267" d="M93 500h80V-27q0-93-32-139T39-212q-8 0-15 .5T9-210v68q28 0 44.5 8.5T79-107q9 18 11.5 45.5T93 3zM76 652q0 23 15.5 39.5T131 708q24 0 41-16.5t17-39.5q0-23-17-38t-41-15q-24 0-39.5 15T76 652z"/><glyph unicode="k" horiz-adv-x="479" d="M203 225h-46V0H77v700h80V274l41 14 155 212h93L293 299l-41-33 50-40L469 0h-99z"/><glyph unicode="l" horiz-adv-x="292" d="M166 123q0-35 12-50t34-15q13 0 28 2t34 9l9-63q-16-8-44.5-13T189-12q-45 0-74 25.5T86 100v600h80z"/><glyph unicode="m" horiz-adv-x="812" d="M370 0v283q0 40-3.5 69.5T353 402q-10 20-28.5 30T276 442q-46 0-76.5-28T157 344V0H77v500h56l15-61h4q27 32 62.5 52.5T307 512q48 0 78.5-18.5T433 429q23 39 63.5 61t91.5 22q42 0 71-9.5t48-33.5q19-24 27.5-65t8.5-104V0h-80v301q0 36-3.5 62.5t-14 44q-10.5 17.5-29 26T568 442q-50 0-78-28t-40-80V0z"/><glyph unicode="n" horiz-adv-x="547" d="M398 0v285q0 78-22.5 117.5T293 442q-53 0-87.5-28.5T157 342V0H77v500h56l15-61h4q24 32 64.5 52.5T313 512q41 0 72-9.5t51.5-33.5q20.5-24 31-64.5T478 302V0z"/><glyph unicode="o" horiz-adv-x="536" d="M49 250q0 127 56.5 194.5T268 512q56 0 97.5-18.5t68.5-53q27-34.5 40-83T487 250q0-127-56.5-194.5T268-12q-56 0-97.5 18.5t-68.5 53q-27 34.5-40 83T49 250zm83 0q0-38 7.5-73t23.5-61q16-26 42-42t63-16q136-1 136 192 0 39-7.5 74T373 385q-16 26-42 41.5T268 442q-136 1-136-192z"/><glyph unicode="p" horiz-adv-x="541" d="M77 500h55l15-60h4q23 35 59.5 53.5T294 512q100 0 149-59t49-193q0-63-16.5-113.5T429 61q-30-35-72.5-54T262-12q-37 0-58.5 4.5T157 8v-208H77zm202-58q-51 0-80.5-26.5T157 335V87q18-14 41-21.5t61-7.5q69 0 109.5 51.5T409 261q0 41-7 74.5t-22.5 57Q364 416 339.5 429T279 442z"/><glyph unicode="q" horiz-adv-x="537" d="M460-200h-80V50h-4q-20-30-50.5-46T245-12Q145-12 97 51.5T49 248q0 129 62 195t181 66q53 0 99.5-10t68.5-21zM259 58q51 0 80 26t41 80v256q-37 19-102 19-69 0-107.5-46.5T132 249q0-42 7-77.5t22-60.5q15-25 39-39t59-14z"/><glyph unicode="r" horiz-adv-x="340" d="M313 423q-30 10-57 10-43 0-68-23.5T157 350V0H77v500h56l15-61h4q19 34 45.5 52.5T265 510q29 0 65-10z"/><glyph unicode="s" horiz-adv-x="421" d="M297 136q0 30-18 47t-44.5 28.5q-26.5 11.5-58 22t-58 27Q92 277 74 303t-18 70q0 72 41 105.5T211 512q54 0 90.5-9.5T365 480l-19-66q-23 11-55.5 19.5T221 442q-44 0-64.5-15T136 375q0-26 18-40.5t44.5-26q26.5-11.5 58-22.5t58-29q26.5-18 44.5-45.5t18-72.5q0-32-10.5-60T334 31Q312 11 279.5-.5T203-12q-57 0-97 11T39 25l24 68q23-13 60-24t75-11q43 0 71 17t28 61z"/><glyph unicode="t" horiz-adv-x="339" d="M11 500h78v99l80 23V500h136v-70H169V153q0-52 13-73.5T226 58q26 0 44 5.5T310 78l18-61Q301 4 269-4t-69-8q-61 0-86 34.5T89 138v292H11z"/><glyph unicode="u" horiz-adv-x="539" d="M149 500V215q0-39 4.5-68.5t15.5-49Q180 78 199 68t48-10q27 0 48 8.5T332.5 90q16.5 15 29 34.5T382 166v334h80V142q0-36 2.5-74.5T473 0h-55l-20 79h-5q-23-39-62-65t-99-26q-40 0-70.5 9.5t-51 33.5Q90 55 79.5 95.5T69 198v302z"/><glyph unicode="v" horiz-adv-x="482" d="M221 207l28-95h1l25 97 112 291h86L260-11h-34L9 500h92z"/><glyph unicode="w" horiz-adv-x="735" d="M401 500l115-292 25-96h2l19 98 89 290h76L559-11h-39L389 319l-19 82h-3l-20-83L221-11h-39L8 500h87l99-291 17-97h1l24 99 107 289z"/><glyph unicode="x" horiz-adv-x="515" d="M208 256L40 500h98l95-138 28-57 29 57 97 138h90L308 260 487 0h-95L286 152l-30 60-31-60L117 0H28z"/><glyph unicode="y" horiz-adv-x="466" d="M224 176l28-96h5l22 97 97 323h81L309 51q-17-49-33.5-95T239-126q-20-36-45-57.5T136-205q-36 0-59 10l14 69q13-5 25-5 28 0 54 29.5T213 0L12 500h92z"/><glyph unicode="z" horiz-adv-x="447" d="M42 70l231 318 42 42H42v70h356v-70L165 109l-41-39h274V0H42z"/><glyph unicode="{" horiz-adv-x="346" d="M137 112q0 51-21 69.5T57 200v70q38 0 59 20t21 64v242q0 47 23.5 76t71.5 29h85v-70h-50q-27 0-39.5-13.5T215 572V335q0-44-21-67t-49-28v-6q27-4 48.5-30.5T215 135v-236q0-31 12-45t41-14h49v-70h-85q-45 0-70 26.5T137-126z"/><glyph unicode="|" horiz-adv-x="238" d="M85 700h68v-830H85z"/><glyph unicode="}" horiz-adv-x="346" d="M235 359q0-51 21-69.5t59-18.5v-70q-38 0-59-20t-21-64v-242q0-47-23.5-76T140-230H55v70h50q27 0 39.5 13.5T157-101v237q0 44 20.5 67t48.5 28v6q-27 4-48 30.5T157 336v236q0 31-12 45t-40 14H55v70h86q44 0 69-26.5t25-77.5z"/><glyph unicode="~" horiz-adv-x="505" d="M31 361q43 33 78 46t64 13q28 0 52-8.5t46-19q22-10.5 43-19t44-8.5q19 0 39 8t43 28l34-61q-38-26-68.5-36.5T350 293q-27 0-49.5 8.5t-43 19q-20.5 10.5-41 19T172 348q-23 0-49-10.5T65 301z"/><glyph horiz-adv-x="267"/><glyph unicode="¡" horiz-adv-x="304" d="M176-200H93v347l17 176h49l17-176zM77 453q0 27 15.5 42.5T134 511q27 0 43-15.5t16-42.5q0-26-16-42t-43-16q-26 0-41.5 16T77 453z"/><glyph unicode="¢" horiz-adv-x="545" d="M461 33q-24-17-54.5-27.5T341-9v-91h-71v90q-50 5-84.5 25.5t-56.5 54Q107 103 97 149T87 250q0 115 47.5 181.5T270 509v91h71v-89q35-2 62-9.5t49-18.5l-23-68q-20 10-44.5 17t-50.5 9V58q32 2 58 12.5T435 94zM170 250q0-33 5.5-63.5t18.5-56Q207 105 228 87t52-25v377q-110-21-110-189z"/><glyph unicode="£" horiz-adv-x="545" d="M50 383h66q-12 26-20 57t-8 73q0 98 56 148.5T297 712q61 0 106-9t74-23l-26-71q-23 11-61.5 20t-93.5 9q-60 0-92.5-32.5T171 518q0-42 10-74t24-61h161v-70H235q8-23 13-48t5-55q0-30-9-61.5T217 97l-39-33v-4l62 14h256V0H50v72q32 0 54.5 11.5t37 30q14.5 18.5 21.5 42t7 47.5q0 33-6.5 59.5T147 313H50z"/><glyph unicode="¤" horiz-adv-x="545" d="M70 596l78-77 21-35q42 33 103 33 59 0 103-33l22 35 78 77 49-49-77-78-35-22q32-43 32-102 0-60-32-103l35-21 77-78-49-48-78 77-21 33q-43-31-104-31-62 0-103 31l-21-33-78-77-49 48 77 78 34 22q-31 42-31 102 0 29 8.5 55t22.5 48l-34 21-77 78zm100-251q0-45 28.5-75t73.5-30q45 0 74 30t29 75q0 45-29 75.5T272 451q-45 0-73.5-30.5T170 345z"/><glyph unicode="¥" horiz-adv-x="545" d="M111 328h94L2 700h97l164-306 17-61h1l18 63 157 304h89L342 328h96v-60H316v-71h122v-60H316V0h-83v137H111v60h122v71H111z"/><glyph unicode="¦" horiz-adv-x="238" d="M85 206h68v-336H85zm68 158H85v336h68z"/><glyph unicode="§" horiz-adv-x="497" d="M57 353q0 31 15.5 60.5T114 466l41 14q-26 16-43.5 40.5T94 586q0 56 41.5 91T251 712q54 0 91.5-9t64.5-22l-19-67q-24 11-57 19.5t-69 8.5q-45 0-66.5-16T174 583q0-26 19.5-40.5T243 517q30-11 64-22t64-28.5q30-17.5 49.5-46T440 347q0-31-15-60t-41-52l-45-14q27-16 45.5-41t18.5-66q0-31-12-54.5T357.5 20Q336 4 307-4t-62-8q-56 0-92 9.5T89 21l20 65q23-11 55.5-19.5T235 58q42 0 65 13.5t23 45.5q0 26-19.5 41T254 184q-30 11-64 22t-64 28.5Q96 252 76.5 280T57 353zm303-8q0 25-13 41t-34.5 27.5Q291 425 264 433.5T210 452q-29-13-51-37t-22-60q0-25 13-41t33.5-27.5q20.5-11.5 47-19.5t53.5-18q14 6 27.5 16t24.5 22.5q11 12.5 17.5 27T360 345z"/><glyph unicode="¨" horiz-adv-x="411" d="M60 653q0 23 13.5 37t35.5 14q22 0 35.5-14t13.5-37q0-21-13.5-35T109 604q-22 0-35.5 14T60 653zm192 0q0 23 13.5 37t35.5 14q23 0 36.5-14t13.5-37q0-21-13.5-35T301 604q-22 0-35.5 14T252 653z"/><glyph unicode="©" horiz-adv-x="806" d="M51 290q0 83 28 148.5T155 549q48 45 112 69t136 24q72 0 136-24t112-69q48-45 76-110.5T755 290q0-83-28-148.5T651 31q-48-45-112-69T403-62q-80 0-145 24T147 31q-46 45-71 110.5T51 290zm70 0q0-69 22-122.5T203 78q38-36 89.5-55T403 4q59 0 110.5 19T603 78q38 36 60 89.5T685 290q0 69-22 122.5T603 502q-38 36-89.5 55T403 576q-59 0-110.5-19T203 502q-38-36-60-89.5T121 290zm398-163q-23-13-51.5-20t-66.5-7q-81 0-123.5 51T235 290q0 91 45.5 140.5T401 480q18 0 32.5-2t27-5.5Q473 469 485 464t27-11l-26-61q-22 11-42 15t-34 4q-42 0-68.5-26T315 290q0-58 26-89.5t77-32.5q47 0 80 18z"/><glyph unicode="ª" horiz-adv-x="386" d="M68 677q25 13 66 22t91 9q62 0 85-26t23-75q0-38-1.5-73t-1.5-67q0-24 1.5-46t6.5-41h-55l-13 46h-4q-13-17-37-33.5T162 376q-52 0-83 25.5T48 471q0 31 15 52t40.5 34q25.5 13 60 19t74.5 6q7 0 13.5-.5t13.5-.5q1 6 1 11.5V603q0 27-12 38t-46 11q-40 0-73-7.5T83 627zm105-245q21 0 36.5 5t26.5 13.5q11 8.5 18 18t11 18.5v42q-11 1-21 1h-21q-21 0-40-2t-33.5-8q-14.5-6-23-16.5T118 476q0-20 14.5-32t40.5-12z"/><glyph unicode="«" horiz-adv-x="478" d="M222 259l158 228 53-42-97-144-48-41 48-36L439 83l-52-43zm-183 0l160 230 54-43-98-145-48-41 48-36L259 82l-54-44z"/><glyph unicode="¬" horiz-adv-x="505" d="M41 392h424V200h-72v120H41z"/><glyph unicode="­" horiz-adv-x="360" d="M58 325h244v-74H58z"/><glyph unicode="®" horiz-adv-x="700" d="M85 451q0 64 21 113.5t57.5 83q36.5 33.5 84.5 51T350 716q55 0 103.5-17.5t84.5-51q36-33.5 56.5-83T615 451q0-64-21-113.5t-57.5-83Q500 221 452 203.5T350 186q-56 0-104 17.5t-84 51q-36 33.5-56.5 83T85 451zm63 0q0-52 16-90.5t43.5-64Q235 271 272 258t78-13q43 0 80 12.5t64 38q27 25.5 42.5 64T552 451q0 52-16 90.5t-43.5 64Q465 631 428.5 644T350 657q-44 0-81-13t-64-38.5q-27-25.5-42-64T148 451zm99 130q16 5 45 7.5t55 2.5q42 0 72-17.5t30-60.5q0-32-20.5-49T378 445l28-14 74-109h-61l-72 104-48 15V322h-52zm89-35q-11 0-21-.5t-16-3.5v-71h34q29 0 45 9t16 31q0 35-58 35z"/><glyph unicode="¯" horiz-adv-x="416" d="M60 643h296v-62H60z"/><glyph unicode="°" horiz-adv-x="425" d="M85 571q0 31 11 57t30 44.5q19 18.5 45 29t55 10.5q29 0 55-9.5t45-28q19-18.5 30-44.5t11-59q0-33-11-59t-30-44.5q-19-18.5-45-28t-55-9.5q-29 0-55 9.5t-45 28Q107 486 96 512t-11 59zm63 0q0-38 23.5-59.5T226 490q31 0 54.5 21.5T304 571q0 38-23.5 59.5T226 652q-31 0-54.5-21.5T148 571z"/><glyph unicode="±" horiz-adv-x="505" d="M40 493h176v181h72V493h176v-72H288V301h-72v120H40zm0-243h424v-72H40z"/><glyph unicode="²" horiz-adv-x="394" d="M319 690q0-31-10.5-60t-28-57Q263 545 239 517.5T188 462l-46-32v-2l57 15h140v-63H48v33q23 19 57.5 51t66.5 69q32 37 54.5 76t22.5 72q0 31-20 46.5T180 743q-27 0-52.5-9.5T83 712l-22 57q26 18 60.5 28t70.5 10q63 0 95-31t32-86z"/><glyph unicode="³" horiz-adv-x="394" d="M169 433q48 0 73.5 19t25.5 56q0 32-23 52t-74 20h-55v23l97 116 34 27-49-6H68v60h256v-33L221 644l-25-18v-2l23 3q55-1 87-33t32-86q0-61-44.5-98T175 373q-36 0-62 6t-46 13l15 60q17-8 39-13.5t48-5.5z"/><glyph unicode="´" horiz-adv-x="268" d="M119 720h89v-21L107 571H60z"/><glyph unicode="µ" horiz-adv-x="552" d="M148 500V217q0-79 24.5-119T258 58q55 0 93 32.5t53 85.5v324h80V163q0-41 2.5-82.5T499 0h-55l-28 74h-4q-20-35-61.5-60.5T249-12q-48 0-73.5 14T132 38h-5l21-105v-133H68v700z"/><glyph unicode="¶" horiz-adv-x="494" d="M341 700h68v-830h-68zM185 310q-32 0-59 16.5t-46.5 44q-19.5 27.5-31 63T37 506q0 37 11.5 72T82 640q22 27 54 43.5t72 16.5h45v-830h-68z"/><glyph unicode="·" horiz-adv-x="267" d="M76 296q0 27 15.5 42.5T133 354q27 0 43-15.5t16-42.5q0-26-16-42t-43-16q-26 0-41.5 16T76 296z"/><glyph unicode="¸" horiz-adv-x="287" d="M172 0l-24-43q42-8 60.5-26t18.5-49q0-39-32-64.5T105-208q-11 0-22 1t-23 3l9 39q6-1 11-1h10q22 0 34.5 4t19 9.5q6.5 5.5 8 12.5t1.5 13q0 28-86 37l48 90z"/><glyph unicode="¹" horiz-adv-x="394" d="M72 441h106v254l7 36-27-28-78-47-27 49 154 102h41V441h95v-61H72z"/><glyph unicode="º" horiz-adv-x="398" d="M44 542q0 45 12 77t32.5 53q20.5 21 49 30.5T199 712q33 0 61.5-9t49-29q20.5-20 32.5-52.5t12-79.5q0-47-12-79.5T309.5 410q-20.5-20-49-29t-61.5-9q-33 0-61.5 9t-49 29Q68 430 56 462.5T44 542zm74 0q0-60 21.5-86t59.5-26q19 0 34 5.5t25.5 18q10.5 12.5 16 34T280 542q0 33-5.5 54.5t-16 34Q248 643 233 648.5t-34 5.5q-38 0-59.5-23.5T118 542z"/><glyph unicode="»" horiz-adv-x="478" d="M257 268L97 40 45 82l96 144 49 41-49 36L39 444l52 43zm182 0L279 38l-54 43 98 145 48 41-48 36-104 142 53 44z"/><glyph unicode="¼" horiz-adv-x="837" d="M628 713l52-35L193-12l-52 36zM797 96h-83V0h-67v96H443v37l226 302h45V155h83zM647 283l6 49h-2l-22-46-78-105-33-31 50 5h79zM179 595l7 36-28-28-78-47-27 49 154 102h42V280h-70z"/><glyph unicode="½" horiz-adv-x="850" d="M628 713l52-35L193-12l-52 36zm162-403q0-31-10.5-60t-28-57Q734 165 710 137.5T659 82l-46-32v-2l57 15h140V0H519v33q23 19 57.5 51t66.5 69q32 37 54.5 76t22.5 72q0 31-20 46.5T651 363q-27 0-52.5-9.5T554 332l-22 57q26 18 60.5 28t70.5 10q63 0 95-31t32-86zM179 595l7 36-28-28-78-47-27 49 154 102h42V280h-70z"/><glyph unicode="¾" horiz-adv-x="876" d="M667 713l52-35L232-12l-52 36zM836 96h-83V0h-67v96H482v37l226 302h45V155h83zM686 283l6 49h-2l-22-46-78-105-33-31 50 5h79zm-508 50q48 0 73.5 19t25.5 56q0 32-23 52t-74 20h-55v23l97 116 34 27-49-6H77v60h256v-33L230 544l-25-18v-2l23 3q55-1 87-33t32-86q0-61-44.5-98T184 273q-36 0-62 6t-46 13l15 60q17-8 39-13.5t48-5.5z"/><glyph unicode="¿" horiz-adv-x="436" d="M286 323q1-5 1-11v-11q0-42-12.5-74t-31-58.5Q225 142 203.5 119t-40-46.5q-18.5-23.5-31-50T120-38q0-46 26.5-75t88.5-29q36 0 73 12.5t64 29.5l27-62q-38-23-80-36.5T215-212q-44 0-77.5 12.5t-56 34.5Q59-143 48-113.5T37-49q0 45 13.5 78.5t34 61q20.5 27.5 44 51.5t44 50.5q20.5 26.5 34 57.5t13.5 73zm-95 131q0 27 15.5 42.5T248 512q27 0 43-15.5t16-42.5q0-26-16-42t-43-16q-26 0-41.5 16T191 454z"/><glyph unicode="À" horiz-adv-x="585" d="M418 194H160L90 0H8l265 711h38L577 0h-87zm-231 72h206l-78 213-25 106h-1l-25-108zm180 486h-74l-158 97v21h114z"/><glyph unicode="Á" horiz-adv-x="585" d="M418 194H160L90 0H8l265 711h38L577 0h-87zm-231 72h206l-78 213-25 106h-1l-25-108zm144 604h114v-21l-163-97h-69z"/><glyph unicode="Â" horiz-adv-x="585" d="M418 194H160L90 0H8l265 711h38L577 0h-87zm-231 72h206l-78 213-25 106h-1l-25-108zm78 604h60l127-102v-21h-81l-60 49-17 35-19-34-64-50h-79v22z"/><glyph unicode="Ã" horiz-adv-x="585" d="M418 194H160L90 0H8l265 711h38L577 0h-87zm-231 72h206l-78 213-25 106h-1l-25-108zm-52 519q31 32 57.5 43.5T243 840q19 0 37-5t34.5-11.5Q331 817 347 812t31-5q26 0 50 21l25-43q-27-25-51-34.5t-45-9.5q-19 0-36 5t-33.5 11.5Q271 764 255 769t-32 5q-16 0-31.5-6.5T159 744z"/><glyph unicode="Ä" horiz-adv-x="585" d="M418 194H160L90 0H8l265 711h38L577 0h-87zm-231 72h206l-78 213-25 106h-1l-25-108zm-43 528q0 21 15 34t39 13q23 0 37.5-13t14.5-34q0-20-14.5-33T198 748q-24 0-39 13t-15 33zm192 0q0 21 14.5 34t37.5 13q24 0 39-13t15-34q0-20-15-33t-39-13q-23 0-37.5 13T336 794z"/><glyph unicode="Å" horiz-adv-x="585" d="M188 768q0 37 25 61t80 24q50 0 78-21.5t28-63.5q0-32-20-53.5T320 687L577 0h-87l-72 194H160L90 0H8l256 687q-38 6-57 27.5T188 768zm-1-502h206l-78 213-25 106h-1l-25-108zm62 502q0-17 10.5-28.5T293 728q22 0 33.5 11t11.5 29q0 19-11 30.5T293 810q-22 0-33-11.5T249 768z"/><glyph unicode="Æ" horiz-adv-x="846" d="M391 600l-34-103-133-229h171v332zm4-402H181L69 0h-91l415 700h383v-74H478V397h273v-74H478V74h303V0H395z"/><glyph unicode="Ç" horiz-adv-x="571" d="M533 29Q507 9 469 0t-83-11l-17-32q42-8 60.5-26t18.5-49q0-39-32-64.5T326-208q-11 0-22 1t-23 3l9 39q6-1 11-1h10q22 0 34.5 4t19 9.5q6.5 5.5 8 12.5t1.5 13q0 28-86 37l42 80q-58 4-108 27.5T135 85q-37 44-58 110T56 350q0 98 26.5 166.5t70 112Q196 672 250 692t110 20q60 0 98-6.5t65-17.5l-20-73q-48 23-137 23-41 0-81-15t-71.5-49Q182 540 163 485t-19-135q0-72 18-126t49.5-90q31.5-36 74-54T378 62q45 0 78.5 9T513 94z"/><glyph unicode="È" horiz-adv-x="536" d="M85 700h381v-74H168V397h273v-74H168V74h303V0H85zm241 52h-74L94 849v21h114z"/><glyph unicode="É" horiz-adv-x="536" d="M85 700h381v-74H168V397h273v-74H168V74h303V0H85zm245 170h114v-21l-163-97h-69z"/><glyph unicode="Ê" horiz-adv-x="536" d="M85 700h381v-74H168V397h273v-74H168V74h303V0H85zm157 170h60l127-102v-21h-81l-60 49-17 35-19-34-64-50h-79v22z"/><glyph unicode="Ë" horiz-adv-x="536" d="M85 700h381v-74H168V397h273v-74H168V74h303V0H85zm35 94q0 21 15 34t39 13q23 0 37.5-13t14.5-34q0-20-14.5-33T174 748q-24 0-39 13t-15 33zm192 0q0 21 14.5 34t37.5 13q24 0 39-13t15-34q0-20-15-33t-39-13q-23 0-37.5 13T312 794z"/><glyph unicode="Ì" horiz-adv-x="291" d="M104 700h83V0h-83zm128 52h-74L0 849v21h114z"/><glyph unicode="Í" horiz-adv-x="291" d="M104 700h83V0h-83zm76 170h114v-21l-163-97H62z"/><glyph unicode="Î" horiz-adv-x="291" d="M104 700h83V0h-83zm13 170h60l127-102v-21h-81l-60 49-17 35-19-34-64-50h-79v22z"/><glyph unicode="Ï" horiz-adv-x="291" d="M104 700h83V0h-83zM-3 794q0 21 15 34t39 13q23 0 37.5-13t14.5-34q0-20-14.5-33T51 748q-24 0-39 13t-15 33zm192 0q0 21 14.5 34t37.5 13q24 0 39-13t15-34q0-20-15-33t-39-13q-23 0-37.5 13T189 794z"/><glyph unicode="Ð" horiz-adv-x="658" d="M-1 392h90v308q19 3 42.5 4.5t49 2q25.5.5 50 1t45.5.5q84 0 145.5-26T523 609.5Q563 563 582.5 498T602 355q0-71-18.5-136.5t-58.5-116q-40-50.5-104-81T266-9q-16 0-41.5.5t-52.5 2Q145-5 122-4T89-1v333H-1zm279 242h-28.5q-15.5 0-30.5-1t-27.5-2q-12.5-1-19.5-2V392h147v-60H172V69q5-1 19-1.5t29-1 29-1q14-.5 19-.5 70 0 117.5 24t76 64.5q28.5 40.5 40.5 93T514 355q0 49-11 98.5T465 543q-27 40-72.5 65.5T278 634z"/><glyph unicode="Ñ" horiz-adv-x="673" d="M211 458l-54 101h-4l10-101V0H85v711h44l335-467 52-96h5l-11 96v456h78V-11h-44zm-32 327q31 32 57.5 43.5T287 840q19 0 37-5t34.5-11.5Q375 817 391 812t31-5q26 0 50 21l25-43q-27-25-51-34.5t-45-9.5q-19 0-36 5t-33.5 11.5Q315 764 299 769t-32 5q-16 0-31.5-6.5T203 744z"/><glyph unicode="Ò" horiz-adv-x="684" d="M56 350q0 175 74 268.5T341 712q74 0 128-26t89.5-73.5Q594 565 611 498.5T628 350q0-175-74.5-268.5T341-12q-73 0-126.5 26t-89 73.5Q90 135 73 201.5T56 350zm88 0q0-58 11.5-110t35.5-91.5q24-39.5 61.5-63T341 62q93 0 146 70.5T540 350q0 57-11.5 109.5t-36 92q-24.5 39.5-62 63T341 638q-92 0-144.5-70.5T144 350zm266 402h-74l-158 97v21h114z"/><glyph unicode="Ó" horiz-adv-x="684" d="M56 350q0 175 74 268.5T341 712q74 0 128-26t89.5-73.5Q594 565 611 498.5T628 350q0-175-74.5-268.5T341-12q-73 0-126.5 26t-89 73.5Q90 135 73 201.5T56 350zm88 0q0-58 11.5-110t35.5-91.5q24-39.5 61.5-63T341 62q93 0 146 70.5T540 350q0 57-11.5 109.5t-36 92q-24.5 39.5-62 63T341 638q-92 0-144.5-70.5T144 350zm271 520h114v-21l-163-97h-69z"/><glyph unicode="Ô" horiz-adv-x="684" d="M56 350q0 175 74 268.5T341 712q74 0 128-26t89.5-73.5Q594 565 611 498.5T628 350q0-175-74.5-268.5T341-12q-73 0-126.5 26t-89 73.5Q90 135 73 201.5T56 350zm88 0q0-58 11.5-110t35.5-91.5q24-39.5 61.5-63T341 62q93 0 146 70.5T540 350q0 57-11.5 109.5t-36 92q-24.5 39.5-62 63T341 638q-92 0-144.5-70.5T144 350zm168 520h60l127-102v-21h-81l-60 49-17 35-19-34-64-50h-79v22z"/><glyph unicode="Õ" horiz-adv-x="684" d="M56 350q0 175 74 268.5T341 712q74 0 128-26t89.5-73.5Q594 565 611 498.5T628 350q0-175-74.5-268.5T341-12q-73 0-126.5 26t-89 73.5Q90 135 73 201.5T56 350zm88 0q0-58 11.5-110t35.5-91.5q24-39.5 61.5-63T341 62q93 0 146 70.5T540 350q0 57-11.5 109.5t-36 92q-24.5 39.5-62 63T341 638q-92 0-144.5-70.5T144 350zm38 435q31 32 57.5 43.5T290 840q19 0 37-5t34.5-11.5Q378 817 394 812t31-5q26 0 50 21l25-43q-27-25-51-34.5t-45-9.5q-19 0-36 5t-33.5 11.5Q318 764 302 769t-32 5q-16 0-31.5-6.5T206 744z"/><glyph unicode="Ö" horiz-adv-x="684" d="M56 350q0 175 74 268.5T341 712q74 0 128-26t89.5-73.5Q594 565 611 498.5T628 350q0-175-74.5-268.5T341-12q-73 0-126.5 26t-89 73.5Q90 135 73 201.5T56 350zm88 0q0-58 11.5-110t35.5-91.5q24-39.5 61.5-63T341 62q93 0 146 70.5T540 350q0 57-11.5 109.5t-36 92q-24.5 39.5-62 63T341 638q-92 0-144.5-70.5T144 350zm46 444q0 21 15 34t39 13q23 0 37.5-13t14.5-34q0-20-14.5-33T244 748q-24 0-39 13t-15 33zm192 0q0 21 14.5 34t37.5 13q24 0 39-13t15-34q0-20-15-33t-39-13q-23 0-37.5 13T382 794z"/><glyph unicode="×" horiz-adv-x="505" d="M127 517l126-127 127 127 51-53-126-126 126-127-51-52-127 128-127-128-52 51 128 129L76 464z"/><glyph unicode="Ø" horiz-adv-x="684" d="M122 91q-34 48-50 113T56 350q0 175 74 268.5T341 712q57 0 101-15t78-44l42 60 52-35-51-72q33-48 49-112.5T628 350q0-175-74.5-268.5T341-12q-107 0-175 56h-39L75 24zm22 259q0-51 8.5-96t26.5-83l290 411q-23 26-54.5 41T341 638q-92 0-144.5-70.5T144 350zm396 0q0 48-8.5 93T506 525L216 114q23-25 54-38.5T341 62q93 0 146 70.5T540 350z"/><glyph unicode="Ù" horiz-adv-x="652" d="M487 700h80V233q0-63-16.5-109t-47-75.5Q473 19 430 5T335-9Q211-9 148 47T85 217v483h83V256q0-53 10.5-89.5t31.5-59Q231 85 262.5 75T336 65q81 0 116 44.5T487 256zm-80 52h-74l-158 97v21h114z"/><glyph unicode="Ú" horiz-adv-x="652" d="M487 700h80V233q0-63-16.5-109t-47-75.5Q473 19 430 5T335-9Q211-9 148 47T85 217v483h83V256q0-53 10.5-89.5t31.5-59Q231 85 262.5 75T336 65q81 0 116 44.5T487 256zm-97 170h114v-21l-163-97h-69z"/><glyph unicode="Û" horiz-adv-x="652" d="M487 700h80V233q0-63-16.5-109t-47-75.5Q473 19 430 5T335-9Q211-9 148 47T85 217v483h83V256q0-53 10.5-89.5t31.5-59Q231 85 262.5 75T336 65q81 0 116 44.5T487 256zM301 870h60l127-102v-21h-81l-60 49-17 35-19-34-64-50h-79v22z"/><glyph unicode="Ü" horiz-adv-x="652" d="M487 700h80V233q0-63-16.5-109t-47-75.5Q473 19 430 5T335-9Q211-9 148 47T85 217v483h83V256q0-53 10.5-89.5t31.5-59Q231 85 262.5 75T336 65q81 0 116 44.5T487 256zm-309 94q0 21 15 34t39 13q23 0 37.5-13t14.5-34q0-20-14.5-33T232 748q-24 0-39 13t-15 33zm192 0q0 21 14.5 34t37.5 13q24 0 39-13t15-34q0-20-15-33t-39-13q-23 0-37.5 13T370 794z"/><glyph unicode="Ý" horiz-adv-x="558" d="M239 278L8 700h97l164-306 17-61h1l18 63 157 304h89L322 279V0h-83zm116 592h114v-21l-163-97h-69z"/><glyph unicode="Þ" horiz-adv-x="559" d="M85 700h83v-75q42 3 86 3 46 0 93.5-9t86.5-33q39-24 63.5-66T522 413q0-64-23-108t-61-71.5q-38-27.5-87-40T250 181h-16.5q-11.5 0-24 .5T185 183q-12 1-17 2V0H85zm171-144q-26 0-50-1t-38-5V260q5-2 16-2.5t23-1.5q12-1 23-1h16q34 0 67.5 6.5t60.5 24q27 17.5 43.5 48.5t16.5 79q0 41-15.5 68.5t-41 44Q352 542 320 549t-64 7z"/><glyph unicode="ß" horiz-adv-x="592" d="M384 559q0 17-9.5 31.5T350 615q-15 10-33 15.5t-35 5.5q-28 0-47.5-7T203 606q-12-16-17.5-42.5T180 498V0h-80v430H22v70h78v23q0 97 47.5 140T279 706q41 0 75-10.5t58.5-30q24.5-19.5 38-46T464 560q0-38-19-61t-41.5-41Q381 440 362 423t-19-42q0-22 15-35t38-23q23-10 49-20.5t49-27.5q23-17 38-44.5t15-71.5q0-32-12-62.5T500.5 42Q478 18 444 3t-77-15q-23 0-40.5 1.5t-32 5Q280-2 267 3t-26 13l23 65q12-6 21-11t19.5-8q10.5-3 23.5-4.5t32-1.5q21 0 40.5 7.5T435 84q15 13 23.5 31.5T467 156q0 30-15 47.5T414 233q-23 12-49 21.5t-49 24q-23 14.5-38 37T263 376q0 39 19 62.5t41.5 42Q346 499 365 516t19 43z"/><glyph unicode="à" horiz-adv-x="496" d="M69 463q38 23 88.5 34T263 508q52 0 83.5-14t48-36.5q16.5-22.5 22-49.5t5.5-54q0-60-3-117t-3-108q0-37 3-70t11-61h-59l-21 70h-5q-9-14-22.5-27.5t-32.5-24Q271 6 246-1t-57-7q-32 0-59.5 10T82 30.5Q62 49 50.5 75T39 134q0 44 18 73.5t50.5 47q32.5 17.5 78 25T286 287h27.5q13.5 0 27.5-2 3 30 3 54 0 55-22 77t-80 22q-17 0-36.5-2.5t-40-7q-20.5-4.5-39-11T94 403zM211 62q28 0 50 7.5t38 19q16 11.5 26.5 25.5t15.5 27v83q-14 1-28.5 1.5t-28.5.5q-31 0-60.5-3.5t-52-13q-22.5-9.5-36-26T122 142q0-35 25-57.5T211 62zm94 509h-45L145 699v21h95z"/><glyph unicode="á" horiz-adv-x="496" d="M69 463q38 23 88.5 34T263 508q52 0 83.5-14t48-36.5q16.5-22.5 22-49.5t5.5-54q0-60-3-117t-3-108q0-37 3-70t11-61h-59l-21 70h-5q-9-14-22.5-27.5t-32.5-24Q271 6 246-1t-57-7q-32 0-59.5 10T82 30.5Q62 49 50.5 75T39 134q0 44 18 73.5t50.5 47q32.5 17.5 78 25T286 287h27.5q13.5 0 27.5-2 3 30 3 54 0 55-22 77t-80 22q-17 0-36.5-2.5t-40-7q-20.5-4.5-39-11T94 403zM211 62q28 0 50 7.5t38 19q16 11.5 26.5 25.5t15.5 27v83q-14 1-28.5 1.5t-28.5.5q-31 0-60.5-3.5t-52-13q-22.5-9.5-36-26T122 142q0-35 25-57.5T211 62zm27 658h89v-21L226 571h-47z"/><glyph unicode="â" horiz-adv-x="496" d="M69 463q38 23 88.5 34T263 508q52 0 83.5-14t48-36.5q16.5-22.5 22-49.5t5.5-54q0-60-3-117t-3-108q0-37 3-70t11-61h-59l-21 70h-5q-9-14-22.5-27.5t-32.5-24Q271 6 246-1t-57-7q-32 0-59.5 10T82 30.5Q62 49 50.5 75T39 134q0 44 18 73.5t50.5 47q32.5 17.5 78 25T286 287h27.5q13.5 0 27.5-2 3 30 3 54 0 55-22 77t-80 22q-17 0-36.5-2.5t-40-7q-20.5-4.5-39-11T94 403zM211 62q28 0 50 7.5t38 19q16 11.5 26.5 25.5t15.5 27v83q-14 1-28.5 1.5t-28.5.5q-31 0-60.5-3.5t-52-13q-22.5-9.5-36-26T122 142q0-35 25-57.5T211 62zm28 670h32l111-182h-72l-39 66-21 58-22-58-45-66h-67z"/><glyph unicode="ã" horiz-adv-x="496" d="M69 463q38 23 88.5 34T263 508q52 0 83.5-14t48-36.5q16.5-22.5 22-49.5t5.5-54q0-60-3-117t-3-108q0-37 3-70t11-61h-59l-21 70h-5q-9-14-22.5-27.5t-32.5-24Q271 6 246-1t-57-7q-32 0-59.5 10T82 30.5Q62 49 50.5 75T39 134q0 44 18 73.5t50.5 47q32.5 17.5 78 25T286 287h27.5q13.5 0 27.5-2 3 30 3 54 0 55-22 77t-80 22q-17 0-36.5-2.5t-40-7q-20.5-4.5-39-11T94 403zM211 62q28 0 50 7.5t38 19q16 11.5 26.5 25.5t15.5 27v83q-14 1-28.5 1.5t-28.5.5q-31 0-60.5-3.5t-52-13q-22.5-9.5-36-26T122 142q0-35 25-57.5T211 62zM109 656q29 33 53 45.5t44 12.5q17 0 31.5-6.5t28-14q13.5-7.5 26-13.5t26.5-6q22 0 46 24l24-43q-26-29-47.5-39.5T301 605q-16 0-30 6t-27.5 13.5q-13.5 7.5-27 14T189 645q-13 0-26.5-7T132 614z"/><glyph unicode="ä" horiz-adv-x="496" d="M69 463q38 23 88.5 34T263 508q52 0 83.5-14t48-36.5q16.5-22.5 22-49.5t5.5-54q0-60-3-117t-3-108q0-37 3-70t11-61h-59l-21 70h-5q-9-14-22.5-27.5t-32.5-24Q271 6 246-1t-57-7q-32 0-59.5 10T82 30.5Q62 49 50.5 75T39 134q0 44 18 73.5t50.5 47q32.5 17.5 78 25T286 287h27.5q13.5 0 27.5-2 3 30 3 54 0 55-22 77t-80 22q-17 0-36.5-2.5t-40-7q-20.5-4.5-39-11T94 403zM211 62q28 0 50 7.5t38 19q16 11.5 26.5 25.5t15.5 27v83q-14 1-28.5 1.5t-28.5.5q-31 0-60.5-3.5t-52-13q-22.5-9.5-36-26T122 142q0-35 25-57.5T211 62zM105 653q0 23 13.5 37t35.5 14q22 0 35.5-14t13.5-37q0-21-13.5-35T154 604q-22 0-35.5 14T105 653zm192 0q0 23 13.5 37t35.5 14q23 0 36.5-14t13.5-37q0-21-13.5-35T346 604q-22 0-35.5 14T297 653z"/><glyph unicode="å" horiz-adv-x="496" d="M69 463q38 23 88.5 34T263 508q52 0 83.5-14t48-36.5q16.5-22.5 22-49.5t5.5-54q0-60-3-117t-3-108q0-37 3-70t11-61h-59l-21 70h-5q-9-14-22.5-27.5t-32.5-24Q271 6 246-1t-57-7q-32 0-59.5 10T82 30.5Q62 49 50.5 75T39 134q0 44 18 73.5t50.5 47q32.5 17.5 78 25T286 287h27.5q13.5 0 27.5-2 3 30 3 54 0 55-22 77t-80 22q-17 0-36.5-2.5t-40-7q-20.5-4.5-39-11T94 403zM211 62q28 0 50 7.5t38 19q16 11.5 26.5 25.5t15.5 27v83q-14 1-28.5 1.5t-28.5.5q-31 0-60.5-3.5t-52-13q-22.5-9.5-36-26T122 142q0-35 25-57.5T211 62zm-59 581q0 42 26.5 66.5T249 734q42 0 70-22t28-69q0-39-28-64.5T249 553q-42 0-69.5 23.5T152 643zm54 0q0-20 13-31t30-11q19 0 31.5 10t12.5 32q0 22-13.5 32.5T249 686q-17 0-30-10t-13-33z"/><glyph unicode="æ" horiz-adv-x="796" d="M211 62q28 0 50 7.5t38 19q16 11.5 26.5 25.5t15.5 27v83q-14 1-28.5 1.5t-28.5.5q-31 0-60.5-3.5t-52-13q-22.5-9.5-36-26T122 142q0-35 25-57.5T211 62zm156 22q-13-18-30-34.5t-38.5-29Q277 8 249.5 0T189-8q-32 0-59.5 10T82 30.5Q62 49 50.5 75T39 134q0 44 18 73.5t50.5 47q32.5 17.5 78 25T286 287h27.5q13.5 0 27.5-2 1 15 2 28.5t1 25.5q0 55-22 77.5T242 438q-17 0-36.5-2.5t-40-7q-20.5-4.5-39-11T94 403l-25 60q38 23 88.5 34T263 508q105 0 136-65 26 36 70 52.5t88 16.5q34 0 68-7.5t61-29q27-21.5 44-60.5t17-102q0-16-1.5-33.5T742 242H419q0-87 36.5-135.5T580 58q35 0 68.5 12.5T700 98l30-58q-30-24-75.5-38T558-12q-61 0-110.5 25T374 84zm191 358q-59 0-95-31t-42-106h248v12q0 68-30.5 96.5T558 442z"/><glyph unicode="ç" horiz-adv-x="451" d="M418 33Q369-2 297-10l-18-33q42-8 60.5-26t18.5-49q0-39-32-64.5T236-208q-11 0-22 1t-23 3l9 39q6-1 11-1h10q22 0 34.5 4t19 9.5q6.5 5.5 8 12.5t1.5 13q0 28-86 37l42 79q-52 3-88 23T93 66q-23 34-33.5 80.5T49 250q0 127 56 194.5T266 512q48 0 81.5-7.5T408 483l-23-69q-23 13-51 20.5t-60 7.5q-142 0-142-192 0-38 7.5-72.5t25-61q17.5-26.5 46-42T281 59q36 0 64.5 10.5T392 94z"/><glyph unicode="è" horiz-adv-x="508" d="M442 40q-30-24-75.5-38T270-12q-57 0-99 18.5t-69 53Q75 94 62 142T49 250q0 128 57 195t163 67q34 0 68-7.5t61-28.5q27-21 44-59.5T459 315q0-33-6-73H132q0-44 9-78t28-57.5q19-23.5 49.5-36T293 58q34 0 68 12t51 28zM270 442q-59 0-94.5-31T133 305h248q0 76-29 106.5T270 442zm60 129h-45L170 699v21h95z"/><glyph unicode="é" horiz-adv-x="508" d="M442 40q-30-24-75.5-38T270-12q-57 0-99 18.5t-69 53Q75 94 62 142T49 250q0 128 57 195t163 67q34 0 68-7.5t61-28.5q27-21 44-59.5T459 315q0-33-6-73H132q0-44 9-78t28-57.5q19-23.5 49.5-36T293 58q34 0 68 12t51 28zM270 442q-59 0-94.5-31T133 305h248q0 76-29 106.5T270 442zm21 278h89v-21L279 571h-47z"/><glyph unicode="ê" horiz-adv-x="508" d="M442 40q-30-24-75.5-38T270-12q-57 0-99 18.5t-69 53Q75 94 62 142T49 250q0 128 57 195t163 67q34 0 68-7.5t61-28.5q27-21 44-59.5T459 315q0-33-6-73H132q0-44 9-78t28-57.5q19-23.5 49.5-36T293 58q34 0 68 12t51 28zM270 442q-59 0-94.5-31T133 305h248q0 76-29 106.5T270 442zm-25 290h32l111-182h-72l-39 66-21 58-22-58-45-66h-67z"/><glyph unicode="ë" horiz-adv-x="508" d="M442 40q-30-24-75.5-38T270-12q-57 0-99 18.5t-69 53Q75 94 62 142T49 250q0 128 57 195t163 67q34 0 68-7.5t61-28.5q27-21 44-59.5T459 315q0-33-6-73H132q0-44 9-78t28-57.5q19-23.5 49.5-36T293 58q34 0 68 12t51 28zM270 442q-59 0-94.5-31T133 305h248q0 76-29 106.5T270 442zM119 653q0 23 13.5 37t35.5 14q22 0 35.5-14t13.5-37q0-21-13.5-35T168 604q-22 0-35.5 14T119 653zm192 0q0 23 13.5 37t35.5 14q23 0 36.5-14t13.5-37q0-21-13.5-35T360 604q-22 0-35.5 14T311 653z"/><glyph unicode="ì" horiz-adv-x="268" d="M94 500h80V0H94zm77 71h-45L11 699v21h95z"/><glyph unicode="í" horiz-adv-x="268" d="M94 500h80V0H94zm60 220h89v-21L142 571H95z"/><glyph unicode="î" horiz-adv-x="268" d="M94 500h80V0H94zm26 232h32l111-182h-72l-39 66-21 58-22-58-45-66H-3z"/><glyph unicode="ï" horiz-adv-x="268" d="M94 500h80V0H94zM-13 653q0 23 13.5 37T36 704q22 0 35.5-14T85 653q0-21-13.5-35T36 604q-22 0-35.5 14T-13 653zm192 0q0 23 13.5 37t35.5 14q23 0 36.5-14t13.5-37q0-21-13.5-35T228 604q-22 0-35.5 14T179 653z"/><glyph unicode="ð" horiz-adv-x="561" d="M220 596l57 31q-38 23-76 32l35 54q18-7 46-19t58-33l68 37 26-45-50-27q24-23 46-53.5t39-71q17-40.5 27-91.5t10-115q0-81-18-139t-48.5-95.5q-30.5-37.5-71-55T282-12q-61 0-104 21t-70 57q-27 36-39.5 83.5T56 251q0 52 14.5 99t43 82.5q28.5 35.5 70 56.5t96.5 21q45 0 79-14t48-32q-11 37-33 70t-51 59l-76-41zm-81-346q0-98 41-145t106-47q30 0 55.5 13t44 41q18.5 28 29.5 72t11 106q0 10-.5 22.5l-1 25q-.5 12.5-2 24T419 381q-8 14-22.5 25t-32 18.5Q347 432 327 436t-39 4q-39 0-67.5-15T174 384.5q-18-25.5-26.5-60T139 250z"/><glyph unicode="ñ" horiz-adv-x="547" d="M398 0v285q0 78-22.5 117.5T293 442q-53 0-87.5-28.5T157 342V0H77v500h56l15-61h4q24 32 64.5 52.5T313 512q41 0 72-9.5t51.5-33.5q20.5-24 31-64.5T478 302V0zM134 656q29 33 53 45.5t44 12.5q17 0 31.5-6.5t28-14q13.5-7.5 26-13.5t26.5-6q22 0 46 24l24-43q-26-29-47.5-39.5T326 605q-16 0-30 6t-27.5 13.5q-13.5 7.5-27 14T214 645q-13 0-26.5-7T157 614z"/><glyph unicode="ò" horiz-adv-x="536" d="M49 250q0 127 56.5 194.5T268 512q56 0 97.5-18.5t68.5-53q27-34.5 40-83T487 250q0-127-56.5-194.5T268-12q-56 0-97.5 18.5t-68.5 53q-27 34.5-40 83T49 250zm83 0q0-38 7.5-73t23.5-61q16-26 42-42t63-16q136-1 136 192 0 39-7.5 74T373 385q-16 26-42 41.5T268 442q-136 1-136-192zm185 321h-45L157 699v21h95z"/><glyph unicode="ó" horiz-adv-x="536" d="M49 250q0 127 56.5 194.5T268 512q56 0 97.5-18.5t68.5-53q27-34.5 40-83T487 250q0-127-56.5-194.5T268-12q-56 0-97.5 18.5t-68.5 53q-27 34.5-40 83T49 250zm83 0q0-38 7.5-73t23.5-61q16-26 42-42t63-16q136-1 136 192 0 39-7.5 74T373 385q-16 26-42 41.5T268 442q-136 1-136-192zm154 470h89v-21L274 571h-47z"/><glyph unicode="ô" horiz-adv-x="536" d="M49 250q0 127 56.5 194.5T268 512q56 0 97.5-18.5t68.5-53q27-34.5 40-83T487 250q0-127-56.5-194.5T268-12q-56 0-97.5 18.5t-68.5 53q-27 34.5-40 83T49 250zm83 0q0-38 7.5-73t23.5-61q16-26 42-42t63-16q136-1 136 192 0 39-7.5 74T373 385q-16 26-42 41.5T268 442q-136 1-136-192zm126 482h32l111-182h-72l-39 66-21 58-22-58-45-66h-67z"/><glyph unicode="õ" horiz-adv-x="536" d="M49 250q0 127 56.5 194.5T268 512q56 0 97.5-18.5t68.5-53q27-34.5 40-83T487 250q0-127-56.5-194.5T268-12q-56 0-97.5 18.5t-68.5 53q-27 34.5-40 83T49 250zm83 0q0-38 7.5-73t23.5-61q16-26 42-42t63-16q136-1 136 192 0 39-7.5 74T373 385q-16 26-42 41.5T268 442q-136 1-136-192zm-3 406q29 33 53 45.5t44 12.5q17 0 31.5-6.5t28-14q13.5-7.5 26-13.5t26.5-6q22 0 46 24l24-43q-26-29-47.5-39.5T321 605q-16 0-30 6t-27.5 13.5q-13.5 7.5-27 14T209 645q-13 0-26.5-7T152 614z"/><glyph unicode="ö" horiz-adv-x="536" d="M49 250q0 127 56.5 194.5T268 512q56 0 97.5-18.5t68.5-53q27-34.5 40-83T487 250q0-127-56.5-194.5T268-12q-56 0-97.5 18.5t-68.5 53q-27 34.5-40 83T49 250zm83 0q0-38 7.5-73t23.5-61q16-26 42-42t63-16q136-1 136 192 0 39-7.5 74T373 385q-16 26-42 41.5T268 442q-136 1-136-192zm-8 403q0 23 13.5 37t35.5 14q22 0 35.5-14t13.5-37q0-21-13.5-35T173 604q-22 0-35.5 14T124 653zm192 0q0 23 13.5 37t35.5 14q23 0 36.5-14t13.5-37q0-21-13.5-35T365 604q-22 0-35.5 14T316 653z"/><glyph unicode="÷" horiz-adv-x="505" d="M40 374h424v-72H40zm154 151q0 27 15.5 42.5T251 583q27 0 43-15.5t16-42.5q0-26-16-42t-43-16q-26 0-41.5 16T194 525zm0-375q0 27 15.5 42.5T251 208q27 0 43-15.5t16-42.5q0-26-16-42t-43-16q-26 0-41.5 16T194 150z"/><glyph unicode="ø" horiz-adv-x="536" d="M49 250q0 127 56.5 194.5T268 512q73 0 122-32l26 35 50-37-29-42q26-34 38-81t12-105q0-127-56.5-194.5T268-12q-78 0-128 35l-27-37-52 38 33 46q-23 34-34 79.5T49 250zm355 0q0 32-5 61.5T383 365L184 88q16-13 36.5-21.5T268 58q136-1 136 192zm-272 0q0-30 4.5-58t13.5-51l197 274q-15 12-34.5 19.5T268 442q-136 1-136-192z"/><glyph unicode="ù" horiz-adv-x="539" d="M149 500V215q0-39 4.5-68.5t15.5-49Q180 78 199 68t48-10q27 0 48 8.5T332.5 90q16.5 15 29 34.5T382 166v334h80V142q0-36 2.5-74.5T473 0h-55l-20 79h-5q-23-39-62-65t-99-26q-40 0-70.5 9.5t-51 33.5Q90 55 79.5 95.5T69 198v302zm159 71h-45L148 699v21h95z"/><glyph unicode="ú" horiz-adv-x="539" d="M149 500V215q0-39 4.5-68.5t15.5-49Q180 78 199 68t48-10q27 0 48 8.5T332.5 90q16.5 15 29 34.5T382 166v334h80V142q0-36 2.5-74.5T473 0h-55l-20 79h-5q-23-39-62-65t-99-26q-40 0-70.5 9.5t-51 33.5Q90 55 79.5 95.5T69 198v302zm136 220h89v-21L273 571h-47z"/><glyph unicode="û" horiz-adv-x="539" d="M149 500V215q0-39 4.5-68.5t15.5-49Q180 78 199 68t48-10q27 0 48 8.5T332.5 90q16.5 15 29 34.5T382 166v334h80V142q0-36 2.5-74.5T473 0h-55l-20 79h-5q-23-39-62-65t-99-26q-40 0-70.5 9.5t-51 33.5Q90 55 79.5 95.5T69 198v302zm111 232h32l111-182h-72l-39 66-21 58-22-58-45-66h-67z"/><glyph unicode="ü" horiz-adv-x="539" d="M149 500V215q0-39 4.5-68.5t15.5-49Q180 78 199 68t48-10q27 0 48 8.5T332.5 90q16.5 15 29 34.5T382 166v334h80V142q0-36 2.5-74.5T473 0h-55l-20 79h-5q-23-39-62-65t-99-26q-40 0-70.5 9.5t-51 33.5Q90 55 79.5 95.5T69 198v302zm-24 153q0 23 13.5 37t35.5 14q22 0 35.5-14t13.5-37q0-21-13.5-35T174 604q-22 0-35.5 14T125 653zm192 0q0 23 13.5 37t35.5 14q23 0 36.5-14t13.5-37q0-21-13.5-35T366 604q-22 0-35.5 14T317 653z"/><glyph unicode="ý" horiz-adv-x="466" d="M224 176l28-96h5l22 97 97 323h81L309 51q-17-49-33.5-95T239-126q-20-36-45-57.5T136-205q-36 0-59 10l14 69q13-5 25-5 28 0 54 29.5T213 0L12 500h92zm53 544h89v-21L265 571h-47z"/><glyph unicode="þ" horiz-adv-x="541" d="M77 700h80V450h4q20 29 53 45.5t80 16.5q100 0 149-59t49-193q0-63-16.5-113.5T429 61q-30-35-72.5-54T262-12q-37 0-58.5 4.5T157 8v-208H77zm202-258q-98 1-122-107V86q18-14 41-21t61-7q69 0 109.5 51.5T409 261q0 41-7 74.5t-22.5 57Q364 416 339.5 429T279 442z"/><glyph unicode="ÿ" horiz-adv-x="466" d="M224 176l28-96h5l22 97 97 323h81L309 51q-17-49-33.5-95T239-126q-20-36-45-57.5T136-205q-36 0-59 10l14 69q13-5 25-5 28 0 54 29.5T213 0L12 500h92zM89 653q0 23 13.5 37t35.5 14q22 0 35.5-14t13.5-37q0-21-13.5-35T138 604q-22 0-35.5 14T89 653zm192 0q0 23 13.5 37t35.5 14q23 0 36.5-14t13.5-37q0-21-13.5-35T330 604q-22 0-35.5 14T281 653z"/><glyph unicode="Ā" horiz-adv-x="585" d="M418 194H160L90 0H8l265 711h38L577 0h-87zm-231 72h206l-78 213-25 106h-1l-25-108zm-54 577h316v-62H133z"/><glyph unicode="ā" horiz-adv-x="496" d="M69 463q38 23 88.5 34T263 508q52 0 83.5-14t48-36.5q16.5-22.5 22-49.5t5.5-54q0-60-3-117t-3-108q0-37 3-70t11-61h-59l-21 70h-5q-9-14-22.5-27.5t-32.5-24Q271 6 246-1t-57-7q-32 0-59.5 10T82 30.5Q62 49 50.5 75T39 134q0 44 18 73.5t50.5 47q32.5 17.5 78 25T286 287h27.5q13.5 0 27.5-2 3 30 3 54 0 55-22 77t-80 22q-17 0-36.5-2.5t-40-7q-20.5-4.5-39-11T94 403zM211 62q28 0 50 7.5t38 19q16 11.5 26.5 25.5t15.5 27v83q-14 1-28.5 1.5t-28.5.5q-31 0-60.5-3.5t-52-13q-22.5-9.5-36-26T122 142q0-35 25-57.5T211 62zM101 643h296v-62H101z"/><glyph unicode="Ă" horiz-adv-x="585" d="M418 194H160L90 0H8l265 711h38L577 0h-87zm-231 72h206l-78 213-25 106h-1l-25-108zm-23 605q17-34 52-52.5t82-18.5q48 0 81 21t47 50l40-19q-9-29-25.5-51.5t-39-38.5Q379 746 352 738t-55-8q-27 0-53.5 7T194 758q-23 14-42 36.5T121 847z"/><glyph unicode="ă" horiz-adv-x="496" d="M69 463q38 23 88.5 34T263 508q52 0 83.5-14t48-36.5q16.5-22.5 22-49.5t5.5-54q0-60-3-117t-3-108q0-37 3-70t11-61h-59l-21 70h-5q-9-14-22.5-27.5t-32.5-24Q271 6 246-1t-57-7q-32 0-59.5 10T82 30.5Q62 49 50.5 75T39 134q0 44 18 73.5t50.5 47q32.5 17.5 78 25T286 287h27.5q13.5 0 27.5-2 3 30 3 54 0 55-22 77t-80 22q-17 0-36.5-2.5t-40-7q-20.5-4.5-39-11T94 403zM211 62q28 0 50 7.5t38 19q16 11.5 26.5 25.5t15.5 27v83q-14 1-28.5 1.5t-28.5.5q-31 0-60.5-3.5t-52-13q-22.5-9.5-36-26T122 142q0-35 25-57.5T211 62zm-70 658q18-36 48-56.5t64-20.5q34 0 61.5 20t44.5 57l42-18q-3-24-15.5-47.5t-32-41.5Q334 595 308 584t-56-11q-28 0-53 8.5t-45.5 25Q133 623 118 645.5T96 697z"/><glyph unicode="Ą" horiz-adv-x="585" d="M418 194H160L90 0H8l265 711h38L577 0h-22q-26-16-41.5-37.5T498-88q0-20 13.5-35t38.5-15q19 0 40 9l11-42q-15-12-40-18t-46-6q-44 0-71.5 23.5T416-107q0 35 21.5 62.5T497 0h-7zm-231 72h206l-78 213-25 106h-1l-25-108z"/><glyph unicode="ą" horiz-adv-x="496" d="M69 463q38 23 88.5 34T263 508q52 0 83.5-14t48-36.5q16.5-22.5 22-49.5t5.5-54q0-60-3-117t-3-108q0-37 3-70t11-61h-23q-25-16-39-37.5T354-87q0-20 13-35.5t38-15.5q19 0 40 10l11-43q-15-12-40-18t-46-6q-45 0-72 24t-27 65q0 39 26 67.5T368 7l-18 61h-5q-9-14-22.5-27.5t-32.5-24Q271 6 246-1t-57-7q-32 0-59.5 10T82 30.5Q62 49 50.5 75T39 134q0 44 18 73.5t50.5 47q32.5 17.5 78 25T286 287h27.5q13.5 0 27.5-2 3 30 3 54 0 55-22 77t-80 22q-17 0-36.5-2t-40-6.5q-20.5-4.5-39-10.5T94 405zM211 62q28 0 50 7.5t38 19q16 11.5 26.5 25.5t15.5 27v83q-14 1-28.5 1.5t-28.5.5q-31 0-60.5-3.5t-52-13q-22.5-9.5-36-26T122 142q0-35 25-57.5T211 62z"/><glyph unicode="Ć" horiz-adv-x="571" d="M533 29Q503 6 457-3t-98-9q-63 0-118 21.5T145 75q-41 44-65 112.5T56 350q0 98 26.5 166.5t70 112Q196 672 250 692t110 20q60 0 98-6.5t65-17.5l-20-73q-48 23-137 23-41 0-81-15t-71.5-49Q182 540 163 485t-19-135q0-72 18-126t49.5-90q31.5-36 74-54T378 62q45 0 78.5 9T513 94zM417 870h114v-21l-163-97h-69z"/><glyph unicode="ć" horiz-adv-x="451" d="M418 33Q388 11 347-.5T261-12q-58 0-98 18.5t-65.5 53q-25.5 34.5-37 83T49 250q0 127 56 194.5T266 512q48 0 81.5-7.5T408 483l-23-69q-23 13-51 20.5t-60 7.5q-142 0-142-192 0-38 7.5-72.5t25-61Q182 90 210.5 74T281 58q36 0 64.5 11T392 94zM290 720h89v-21L278 571h-47z"/><glyph unicode="Ĉ" horiz-adv-x="571" d="M533 29Q503 6 457-3t-98-9q-63 0-118 21.5T145 75q-41 44-65 112.5T56 350q0 98 26.5 166.5t70 112Q196 672 250 692t110 20q60 0 98-6.5t65-17.5l-20-73q-48 23-137 23-41 0-81-15t-71.5-49Q182 540 163 485t-19-135q0-72 18-126t49.5-90q31.5-36 74-54T378 62q45 0 78.5 9T513 94zM320 870h60l127-102v-21h-81l-60 49-17 35-19-34-64-50h-79v22z"/><glyph unicode="ĉ" horiz-adv-x="451" d="M418 33Q388 11 347-.5T261-12q-58 0-98 18.5t-65.5 53q-25.5 34.5-37 83T49 250q0 127 56 194.5T266 512q48 0 81.5-7.5T408 483l-23-69q-23 13-51 20.5t-60 7.5q-142 0-142-192 0-38 7.5-72.5t25-61Q182 90 210.5 74T281 58q36 0 64.5 11T392 94zM237 732h32l111-182h-72l-39 66-21 58-22-58-45-66h-67z"/><glyph unicode="Č" horiz-adv-x="571" d="M533 29Q503 6 457-3t-98-9q-63 0-118 21.5T145 75q-41 44-65 112.5T56 350q0 98 26.5 166.5t70 112Q196 672 250 692t110 20q60 0 98-6.5t65-17.5l-20-73q-48 23-137 23-41 0-81-15t-71.5-49Q182 540 163 485t-19-135q0-72 18-126t49.5-90q31.5-36 74-54T378 62q45 0 78.5 9T513 94zM382 746h-58L197 849v21h82l59-50 17-34 19 33 63 51h78v-22z"/><glyph unicode="č" horiz-adv-x="451" d="M418 33Q388 11 347-.5T261-12q-58 0-98 18.5t-65.5 53q-25.5 34.5-37 83T49 250q0 127 56 194.5T266 512q48 0 81.5-7.5T408 483l-23-69q-23 13-51 20.5t-60 7.5q-142 0-142-192 0-38 7.5-72.5t25-61Q182 90 210.5 74T281 58q36 0 64.5 11T392 94zM270 550h-37L118 732h78l39-66 21-58 22 58 45 66h70z"/><glyph unicode="Ď" horiz-adv-x="654" d="M85 700q19 3 42.5 4.5t49 2q25.5.5 50 1t45.5.5q84 0 145.5-26T519 609.5Q559 563 578.5 498T598 355q0-71-18.5-136.5t-58.5-116q-40-50.5-104-81T262-9q-16 0-41.5.5t-52.5 2Q141-5 118-4T85-1zm189-66h-28.5q-15.5 0-30.5-1t-27.5-2q-12.5-1-19.5-2V69q5-1 19-1.5t29-1 29-1q14-.5 19-.5 70 0 117.5 24t76 64.5q28.5 40.5 40.5 93T510 355q0 49-11 98.5T461 543q-27 40-72.5 65.5T274 634zm32 112h-58L121 849v21h82l59-50 17-34 19 33 63 51h78v-22z"/><glyph unicode="ď" horiz-adv-x="589" d="M461 172q0-51 1-92.5T471-2h-54l-20 71h-4q-20-35-58-58t-89-23Q146-12 97.5 51T49 248q0 128 60.5 194.5T276 509q37 0 58.5-4t46.5-13v208h80zM259 58q51 0 81 26.5t41 80.5v248q-18 14-41 20t-61 6q-69 0-108-45.5T132 248q0-41 6.5-76t21.5-60q15-25 39.5-39.5T259 58zm355 642q-2-29-12-59.5T579.5 584Q567 558 554 538t-22-29l-33 18q17 36 26 81.5t9 91.5z"/><glyph unicode="Đ" horiz-adv-x="658" d="M-1 392h90v308q19 3 42.5 4.5t49 2q25.5.5 50 1t45.5.5q84 0 145.5-26T523 609.5Q563 563 582.5 498T602 355q0-71-18.5-136.5t-58.5-116q-40-50.5-104-81T266-9q-16 0-41.5.5t-52.5 2Q145-5 122-4T89-1v333H-1zm279 242h-28.5q-15.5 0-30.5-1t-27.5-2q-12.5-1-19.5-2V392h147v-60H172V69q5-1 19-1.5t29-1 29-1q14-.5 19-.5 70 0 117.5 24t76 64.5q28.5 40.5 40.5 93T514 355q0 49-11 98.5T465 543q-27 40-72.5 65.5T278 634z"/><glyph unicode="đ" horiz-adv-x="540" d="M461 632h81v-60h-81V172q0-51 1-92.5T471-2h-54l-20 71h-4q-20-35-58-58t-89-23Q146-12 97.5 51T49 248q0 128 60.5 194.5T276 509q37 0 58.5-4t46.5-13v80H224v60h157v68h80zM259 58q51 0 81 26.5t41 80.5v249q-18 14-41 19.5t-61 5.5q-69 0-108-45.5T132 248q0-41 6.5-76t21.5-60.5Q175 86 199.5 72T259 58z"/><glyph unicode="Ē" horiz-adv-x="536" d="M85 700h381v-74H168V397h273v-74H168V74h303V0H85zm24 143h316v-62H109z"/><glyph unicode="ē" horiz-adv-x="508" d="M442 40q-30-24-75.5-38T270-12q-57 0-99 18.5t-69 53Q75 94 62 142T49 250q0 128 57 195t163 67q34 0 68-7.5t61-28.5q27-21 44-59.5T459 315q0-33-6-73H132q0-44 9-78t28-57.5q19-23.5 49.5-36T293 58q34 0 68 12t51 28zM270 442q-59 0-94.5-31T133 305h248q0 76-29 106.5T270 442zM107 643h296v-62H107z"/><glyph unicode="Ė" horiz-adv-x="536" d="M85 700h381v-74H168V397h273v-74H168V74h303V0H85zm127 97q0 21 16.5 36.5T274 849q29 0 46.5-15.5T338 797q0-23-17.5-38T274 744q-29 0-45.5 15T212 797z"/><glyph unicode="ė" horiz-adv-x="508" d="M442 40q-30-24-75.5-38T270-12q-57 0-99 18.5t-69 53Q75 94 62 142T49 250q0 128 57 195t163 67q34 0 68-7.5t61-28.5q27-21 44-59.5T459 315q0-33-6-73H132q0-44 9-78t28-57.5q19-23.5 49.5-36T293 58q34 0 68 12t51 28zM270 442q-59 0-94.5-31T133 305h248q0 76-29 106.5T270 442zm-54 210q0 23 15.5 39.5T271 708q24 0 41-16.5t17-39.5q0-23-17-38t-41-15q-24 0-39.5 15T216 652z"/><glyph unicode="Ę" horiz-adv-x="536" d="M85 700h381v-74H168V397h273v-74H168V74h303V0h-36q-26-16-41.5-37T378-87q0-20 13-35.5t38-15.5q19 0 40 10l11-43q-15-12-40-18t-46-6q-45 0-72 24t-27 65q0 35 21 62t59 44H85z"/><glyph unicode="ę" horiz-adv-x="508" d="M442 40q-11-9-24-16t-27-13q-34-17-53-41.5T318-87q1-21 14.5-36t38.5-16q19 1 40 10l11-43q-15-12-40.5-17.5T335-195q-45 1-71.5 24.5T236-106q0 30 15 54t41 41q-5-1-11-1h-11q-57 0-99 18.5t-69 53Q75 94 62 142T49 250q0 128 57 195t163 67q34 0 68-7.5t61-28.5q27-21 44-59.5T459 315q0-33-6-73H132q0-44 9-78t28-58q19-24 49.5-36T293 58q34 0 68 12t51 28zM270 442q-59 0-94.5-31T133 305h248q0 76-29 106.5T270 442z"/><glyph unicode="Ě" horiz-adv-x="536" d="M85 700h381v-74H168V397h273v-74H168V74h303V0H85zm209 46h-58L109 849v21h82l59-50 17-34 19 33 63 51h78v-22z"/><glyph unicode="ě" horiz-adv-x="508" d="M442 40q-30-24-75.5-38T270-12q-57 0-99 18.5t-69 53Q75 94 62 142T49 250q0 128 57 195t163 67q34 0 68-7.5t61-28.5q27-21 44-59.5T459 315q0-33-6-73H132q0-44 9-78t28-57.5q19-23.5 49.5-36T293 58q34 0 68 12t51 28zM270 442q-59 0-94.5-31T133 305h248q0 76-29 106.5T270 442zm9 108h-37L127 732h78l39-66 21-58 22 58 45 66h70z"/><glyph unicode="Ĝ" horiz-adv-x="612" d="M321 349h235V41q-16-12-38.5-22t-48-17q-25.5-7-53-10.5T363-12q-67 0-123 21.5t-97 66q-41 44.5-64 113T56 350q0 97 28 166t73 112.5Q202 672 258 692t112 20q60 0 99-6.5t66-17.5l-21-73q-48 23-137 23-42 0-83.5-14.5T219 575q-33-34-54-89t-21-136q0-74 17-128t47.5-89.5Q239 97 282 79.5T376 62q64 0 109 25v195l-164 20zm10 521h60l127-102v-21h-81l-60 49-17 35-19-34-64-50h-79v22z"/><glyph unicode="ĝ" horiz-adv-x="537" d="M460-23q0-97-51.5-143T256-212q-60 0-96.5 7.5T97-185l21 68q23-9 51-17t73-8q42 0 68.5 7.5t42.5 25q16 17.5 22 45T381 1v48h-4q-20-29-51-44.5T245-11Q144-11 96.5 52T49 248q0 128 61 194.5T290 509q57 0 97.5-9t72.5-21zM259 59q51 0 80 25.5t41 79.5v256q-40 19-102 19-68 0-107-46t-39-144q0-42 7-77t22-60q15-25 39-39t59-14zm1 673h32l111-182h-72l-39 66-21 58-22-58-45-66h-67z"/><glyph unicode="Ğ" horiz-adv-x="612" d="M321 349h235V41q-16-12-38.5-22t-48-17q-25.5-7-53-10.5T363-12q-67 0-123 21.5t-97 66q-41 44.5-64 113T56 350q0 97 28 166t73 112.5Q202 672 258 692t112 20q60 0 99-6.5t66-17.5l-21-73q-48 23-137 23-42 0-83.5-14.5T219 575q-33-34-54-89t-21-136q0-74 17-128t47.5-89.5Q239 97 282 79.5T376 62q64 0 109 25v195l-164 20zm-98 522q17-34 52-52.5t82-18.5q48 0 81 21t47 50l40-19q-9-29-25.5-51.5t-39-38.5Q438 746 411 738t-55-8q-27 0-53.5 7T253 758q-23 14-42 36.5T180 847z"/><glyph unicode="ğ" horiz-adv-x="537" d="M460-23q0-97-51.5-143T256-212q-60 0-96.5 7.5T97-185l21 68q23-9 51-17t73-8q42 0 68.5 7.5t42.5 25q16 17.5 22 45T381 1v48h-4q-20-29-51-44.5T245-11Q144-11 96.5 52T49 248q0 128 61 194.5T290 509q57 0 97.5-9t72.5-21zM259 59q51 0 80 25.5t41 79.5v256q-40 19-102 19-68 0-107-46t-39-144q0-42 7-77t22-60q15-25 39-39t59-14zm-98 661q18-36 48-56.5t64-20.5q34 0 61.5 20t44.5 57l42-18q-3-24-15.5-47.5t-32-41.5Q354 595 328 584t-56-11q-28 0-53 8.5t-45.5 25Q153 623 138 645.5T116 697z"/><glyph unicode="Ģ" horiz-adv-x="612" d="M321 349h235V41q-16-12-38.5-22t-48-17q-25.5-7-53-10.5T363-12q-67 0-123 21.5t-97 66q-41 44.5-64 113T56 350q0 97 28 166t73 112.5Q202 672 258 692t112 20q60 0 99-6.5t66-17.5l-21-73q-48 23-137 23-42 0-83.5-14.5T219 575q-33-34-54-89t-21-136q0-74 17-128t47.5-89.5Q239 97 282 79.5T376 62q64 0 109 25v195l-164 20zm-27-451q0 21 15.5 34T345-55q25 0 44.5-17.5T409-130q0-26-9-45.5t-21.5-34q-12.5-14.5-26-23T329-245l-28 32q20 11 32 28t12 41q-4-1-10-1-18 0-29.5 12T294-102z"/><glyph unicode="ģ" horiz-adv-x="537" d="M460-23q0-97-51.5-143T256-212q-60 0-96.5 7.5T97-185l21 68q23-9 51-17t73-8q42 0 68.5 7.5t42.5 25q16 17.5 22 45T381 1v48h-4q-20-29-51-44.5T245-11Q144-11 96.5 52T49 248q0 128 61 194.5T290 509q57 0 97.5-9t72.5-21zM259 59q51 0 80 25.5t41 79.5v256q-40 19-102 19-68 0-107-46t-39-144q0-42 7-77t22-60q15-25 39-39t59-14zm86 550q0-21-15.5-34T294 562q-25 0-44.5 17.5T230 637q0 26 9 45.5t21.5 34q12.5 14.5 26 23T310 752l28-32q-20-11-32-28t-12-41q4 1 10 1 18 0 29.5-12t11.5-31z"/><glyph unicode="Ĥ" horiz-adv-x="672" d="M504 321H168V0H85v700h83V395h336v305h83V0h-83zM307 870h60l127-102v-21h-81l-60 49-17 35-19-34-64-50h-79v22z"/><glyph unicode="ĥ" horiz-adv-x="547" d="M398 0v285q0 39-4.5 68.5t-16.5 49Q365 422 344.5 432T291 442q-47 0-85-30.5T157 333V0H77v700h80V444h4q26 31 62.5 49.5T314 512q42 0 73-9.5t51.5-33.5q20.5-24 30-64.5T478 302V0zM92 870h60l127-102v-21h-81l-60 49-17 35-19-34-64-50h-79v22z"/><glyph unicode="Ħ" horiz-adv-x="677" d="M9 587h79v113h83V587h336v113h83V587h79v-64h-79V0h-83v321H171V0H88v523H9zm498-192v128H171V395z"/><glyph unicode="ħ" horiz-adv-x="549" d="M-1 632h80v68h80v-68h160v-60H159V444h4q26 31 62.5 49.5T316 512q42 0 73-9.5t51.5-33.5q20.5-24 30-64.5T480 302V0h-80v285q0 39-4.5 68.5t-16.5 49Q367 422 346.5 432T293 442q-47 0-85-30.5T159 333V0H79v572H-1z"/><glyph unicode="Ī" horiz-adv-x="291" d="M104 700h83V0h-83zM-12 843h316v-62H-12z"/><glyph unicode="ī" horiz-adv-x="268" d="M94 500h80V0H94zM-14 643h296v-62H-14z"/><glyph unicode="Į" horiz-adv-x="291" d="M104 700h83V0h-14q-26-16-41-37.5T117-88q0-20 13-35.5t38-15.5q19 0 40 10l11-43q-15-12-40-17.5t-46-5.5q-45 0-72 23.5T34-107q0 35 21 62.5T114 0h-10z"/><glyph unicode="į" horiz-adv-x="269" d="M94 500h80V0h-18q-25-16-39.5-38T102-88q0-20 13-35.5t38-15.5q19 0 40 10l11-43q-15-12-40-17.5t-47-5.5q-45 0-71.5 23.5T19-107q0 35 21 62.5T99 0h-5zM77 652q0 23 15.5 39.5T132 708q24 0 41-16.5t17-39.5q0-23-17-38t-41-15q-24 0-39.5 15T77 652z"/><glyph unicode="İ" horiz-adv-x="291" d="M104 700h83V0h-83zm-20 97q0 21 16.5 36.5T146 849q29 0 46.5-15.5T210 797q0-23-17.5-38T146 744q-29 0-45.5 15T84 797z"/><glyph unicode="ı" horiz-adv-x="268" d="M94 500h80V0H94z"/><glyph unicode="Ĵ" horiz-adv-x="291" d="M112 700h83V154q0-80-35.5-122T52-10q-8 0-20 1T8-6Q-4-4-15.5-1T-34 6l16 71q28-13 61-13 42 0 55.5 29.5T112 174zm12 170h60l127-102v-21h-81l-60 49-17 35-19-34-64-50H-9v22z"/><glyph unicode="ĵ" horiz-adv-x="267" d="M93 500h80V-27q0-93-32-139T39-212q-8 0-15 .5T9-210v68q28 0 44.5 8.5T79-107q9 18 11.5 45.5T93 3zm30 232h32l111-182h-72l-39 66-21 58-22-58-45-66H0z"/><glyph unicode="Ķ" horiz-adv-x="610" d="M215 324h-47V0H85v700h83V374l45 14 235 312h96L310 399l-42-33 51-40L575 0H470zm17-426q0 21 15.5 34T283-55q25 0 44.5-17.5T347-130q0-26-9-45.5t-21.5-34q-12.5-14.5-26-23T267-245l-28 32q20 11 32 28t12 41q-4-1-10-1-18 0-29.5 12T232-102z"/><glyph unicode="ķ" horiz-adv-x="479" d="M203 225h-46V0H77v700h80V274l41 14 155 212h93L293 299l-41-33 50-40L469 0h-99zm-20-327q0 21 15.5 34T234-55q25 0 44.5-17.5T298-130q0-26-9-45.5t-21.5-34q-12.5-14.5-26-23T218-245l-28 32q20 11 32 28t12 41q-4-1-10-1-18 0-29.5 12T183-102z"/><glyph unicode="Ĺ" horiz-adv-x="517" d="M499 0H85v700h83V74h331zM231 870h114v-21l-163-97h-69z"/><glyph unicode="ĺ" horiz-adv-x="292" d="M166 123q0-35 12-50t34-15q13 0 28 2t34 9l9-63q-16-8-44.5-13T189-12q-45 0-74 25.5T86 100v600h80zm42 747h114v-21l-163-97H90z"/><glyph unicode="Ļ" horiz-adv-x="517" d="M499 0H85v700h83V74h331zM192-102q0 21 15.5 34T243-55q25 0 44.5-17.5T307-130q0-26-9-45.5t-21.5-34q-12.5-14.5-26-23T227-245l-28 32q20 11 32 28t12 41q-4-1-10-1-18 0-29.5 12T192-102z"/><glyph unicode="ļ" horiz-adv-x="292" d="M166 123q0-35 12-50t34-15q13 0 28 2t34 9l9-63q-16-8-44.5-13T189-12q-45 0-74 25.5T86 100v600h80zm-49-225q0 21 15.5 34T168-55q25 0 44.5-17.5T232-130q0-26-9-45.5t-21.5-34q-12.5-14.5-26-23T152-245l-28 32q20 11 32 28t12 41q-4-1-10-1-18 0-29.5 12T117-102z"/><glyph unicode="Ľ" horiz-adv-x="517" d="M499 0H85v700h83V74h331zm-70 700q-2-29-12-59.5T394.5 584Q382 558 369 538t-22-29l-33 18q17 36 26 81.5t9 91.5z"/><glyph unicode="ľ" horiz-adv-x="292" d="M166 123q0-35 12-50t34-15q13 0 28 2t34 9l9-63q-16-8-44.5-13T189-12q-45 0-74 25.5T86 100v600h80zm155 577q-2-29-12-59.5T286.5 584Q274 558 261 538t-22-29l-33 18q17 36 26 81.5t9 91.5z"/><glyph unicode="Ł" horiz-adv-x="517" d="M15 287l70 55v358h83V407l107 84v-80l-107-82V74h331V0H85v265l-70-54z"/><glyph unicode="ł" horiz-adv-x="292" d="M10 285l76 59v356h80V407l104 82v-80l-104-80V123q0-35 12-50t34-15q13 0 28 2t34 9l9-63q-16-8-44.5-13T189-12q-45 0-74 25.5T86 100v167l-76-58z"/><glyph unicode="Ń" horiz-adv-x="673" d="M211 458l-54 101h-4l10-101V0H85v711h44l335-467 52-96h5l-11 96v456h78V-11h-44zm196 412h114v-21l-163-97h-69z"/><glyph unicode="ń" horiz-adv-x="547" d="M398 0v285q0 78-22.5 117.5T293 442q-53 0-87.5-28.5T157 342V0H77v500h56l15-61h4q24 32 64.5 52.5T313 512q41 0 72-9.5t51.5-33.5q20.5-24 31-64.5T478 302V0zm-98 720h89v-21L288 571h-47z"/><glyph unicode="Ņ" horiz-adv-x="673" d="M211 458l-54 101h-4l10-101V0H85v711h44l335-467 52-96h5l-11 96v456h78V-11h-44zm68-560q0 21 15.5 34T330-55q25 0 44.5-17.5T394-130q0-26-9-45.5t-21.5-34q-12.5-14.5-26-23T314-245l-28 32q20 11 32 28t12 41q-4-1-10-1-18 0-29.5 12T279-102z"/><glyph unicode="ņ" horiz-adv-x="547" d="M398 0v285q0 78-22.5 117.5T293 442q-53 0-87.5-28.5T157 342V0H77v500h56l15-61h4q24 32 64.5 52.5T313 512q41 0 72-9.5t51.5-33.5q20.5-24 31-64.5T478 302V0zM216-102q0 21 15.5 34T267-55q25 0 44.5-17.5T331-130q0-26-9-45.5t-21.5-34q-12.5-14.5-26-23T251-245l-28 32q20 11 32 28t12 41q-4-1-10-1-18 0-29.5 12T216-102z"/><glyph unicode="Ň" horiz-adv-x="673" d="M211 458l-54 101h-4l10-101V0H85v711h44l335-467 52-96h5l-11 96v456h78V-11h-44zm153 288h-58L179 849v21h82l59-50 17-34 19 33 63 51h78v-22z"/><glyph unicode="ň" horiz-adv-x="547" d="M398 0v285q0 78-22.5 117.5T293 442q-53 0-87.5-28.5T157 342V0H77v500h56l15-61h4q24 32 64.5 52.5T313 512q41 0 72-9.5t51.5-33.5q20.5-24 31-64.5T478 302V0zM289 550h-37L137 732h78l39-66 21-58 22 58 45 66h70z"/><glyph unicode="Ō" horiz-adv-x="684" d="M56 350q0 175 74 268.5T341 712q74 0 128-26t89.5-73.5Q594 565 611 498.5T628 350q0-175-74.5-268.5T341-12q-73 0-126.5 26t-89 73.5Q90 135 73 201.5T56 350zm88 0q0-58 11.5-110t35.5-91.5q24-39.5 61.5-63T341 62q93 0 146 70.5T540 350q0 57-11.5 109.5t-36 92q-24.5 39.5-62 63T341 638q-92 0-144.5-70.5T144 350zm46 493h316v-62H190z"/><glyph unicode="ō" horiz-adv-x="536" d="M49 250q0 127 56.5 194.5T268 512q56 0 97.5-18.5t68.5-53q27-34.5 40-83T487 250q0-127-56.5-194.5T268-12q-56 0-97.5 18.5t-68.5 53q-27 34.5-40 83T49 250zm83 0q0-38 7.5-73t23.5-61q16-26 42-42t63-16q136-1 136 192 0 39-7.5 74T373 385q-16 26-42 41.5T268 442q-136 1-136-192zm-12 393h296v-62H120z"/><glyph unicode="Ő" horiz-adv-x="684" d="M56 350q0 175 74 268.5T341 712q74 0 128-26t89.5-73.5Q594 565 611 498.5T628 350q0-175-74.5-268.5T341-12q-73 0-126.5 26t-89 73.5Q90 135 73 201.5T56 350zm88 0q0-58 11.5-110t35.5-91.5q24-39.5 61.5-63T341 62q93 0 146 70.5T540 350q0 57-11.5 109.5t-36 92q-24.5 39.5-62 63T341 638q-92 0-144.5-70.5T144 350zm162 500h93v-16l-100-93h-57zm162 0h99v-16l-143-93h-58z"/><glyph unicode="ő" horiz-adv-x="536" d="M49 250q0 127 56.5 194.5T268 512q56 0 97.5-18.5t68.5-53q27-34.5 40-83T487 250q0-127-56.5-194.5T268-12q-56 0-97.5 18.5t-68.5 53q-27 34.5-40 83T49 250zm83 0q0-38 7.5-73t23.5-61q16-26 42-42t63-16q136-1 136 192 0 39-7.5 74T373 385q-16 26-42 41.5T268 442q-136 1-136-192zm79 450h78v-16l-71-113h-42zm146 0h86v-16L329 571h-45z"/><glyph unicode="Œ" horiz-adv-x="932" d="M481 618q-28 11-65 15.5t-75 4.5q-92 0-144.5-70.5T144 350q0-58 11.5-110t36.5-91.5q25-39.5 64-63T349 62q29 0 59.5 2T481 79zm0-618q-25-5-60-8.5T341-12q-73 0-126.5 26t-89 73.5Q90 135 73 201.5T56 350q0 175 74 268.5T341 712q47 0 77.5-3.5T481 700h381v-74H564V397h273v-74H564V74h303V0z"/><glyph unicode="œ" horiz-adv-x="858" d="M132 250q0-38 7.5-73t23.5-61.5q16-26.5 42-42T268 58q135-1 135 192 0 39-7 74t-23 61q-16 26-42 41.5T268 442q-136 1-136-192zM442 81q-27-45-70.5-69T268-12q-56 0-97.5 18.5t-68.5 53q-27 34.5-40 83T49 250q0 127 56.5 194.5T268 512q63 0 106.5-26t69.5-66q26 42 70.5 67T619 512q34 0 68-7.5t61-28.5q27-21 44-59.5T809 315q0-17-1-35t-4-38H481q0-44 9-78.5t28-58.5q19-24 50-36t75-12q35 0 68.5 12.5T762 98l30-58q-30-24-75.5-38T620-12q-62 0-107 25t-71 68zm178 362q-58 0-94-31.5T483 305h248v9q0 69-30 99t-81 30z"/><glyph unicode="Ŕ" horiz-adv-x="595" d="M85 693q38 7 87.5 11t90.5 4q46 0 87.5-10t73-33q31.5-23 50.5-60t19-90q0-82-45-133t-114-68l48-37L556 0h-97L266 302l-98 15V0H85zm180-57h-27q-14 0-27-1t-24.5-2q-11.5-1-18.5-3V372h78q69 0 114 34t45 106q0 54-37 89t-103 35zm55 234h114v-21l-163-97h-69z"/><glyph unicode="ŕ" horiz-adv-x="340" d="M313 423q-30 10-57 10-43 0-68-23.5T157 350V0H77v500h56l15-61h4q19 34 45.5 52.5T265 510q29 0 65-10zM195 720h89v-21L183 571h-47z"/><glyph unicode="Ŗ" horiz-adv-x="595" d="M85 693q38 7 87.5 11t90.5 4q46 0 87.5-10t73-33q31.5-23 50.5-60t19-90q0-82-45-133t-114-68l48-37L556 0h-97L266 302l-98 15V0H85zm180-57h-27q-14 0-27-1t-24.5-2q-11.5-1-18.5-3V372h78q69 0 114 34t45 106q0 54-37 89t-103 35zm-26-738q0 21 15.5 34T290-55q25 0 44.5-17.5T354-130q0-26-9-45.5t-21.5-34q-12.5-14.5-26-23T274-245l-28 32q20 11 32 28t12 41q-4-1-10-1-18 0-29.5 12T239-102z"/><glyph unicode="ŗ" horiz-adv-x="340" d="M313 423q-30 10-57 10-43 0-68-23.5T157 350V0H77v500h56l15-61h4q19 34 45.5 52.5T265 510q29 0 65-10zM85-102q0 21 15.5 34T136-55q25 0 44.5-17.5T200-130q0-26-9-45.5t-21.5-34q-12.5-14.5-26-23T120-245l-28 32q20 11 32 28t12 41q-4-1-10-1-18 0-29.5 12T85-102z"/><glyph unicode="Ř" horiz-adv-x="595" d="M85 693q38 7 87.5 11t90.5 4q46 0 87.5-10t73-33q31.5-23 50.5-60t19-90q0-82-45-133t-114-68l48-37L556 0h-97L266 302l-98 15V0H85zm180-57h-27q-14 0-27-1t-24.5-2q-11.5-1-18.5-3V372h78q69 0 114 34t45 106q0 54-37 89t-103 35zm12 110h-58L92 849v21h82l59-50 17-34 19 33 63 51h78v-22z"/><glyph unicode="ř" horiz-adv-x="340" d="M313 423q-30 10-57 10-43 0-68-23.5T157 350V0H77v500h56l15-61h4q19 34 45.5 52.5T265 510q29 0 65-10zM205 550h-37L53 732h78l39-66 21-58 22 58 45 66h70z"/><glyph unicode="Ś" horiz-adv-x="531" d="M401 178q0 42-25 68.5t-62.5 47Q276 314 232 332t-81.5 43.5Q113 401 88 438.5T63 534q0 82 57 130t162 48q61 0 111-9t78-23l-25-73q-23 11-67.5 21T278 638q-66 0-99-29.5T146 539q0-39 25-65t62.5-46.5Q271 407 315 387t81.5-46.5Q434 314 459 277t25-92q0-45-16-81t-47-62q-31-26-75-40T246-12Q171-12 122-.5T46 25l28 75q23-13 68-25.5T243 62q33 0 62 6.5t50 21q21 14.5 33.5 36.5t12.5 52zm-55 692h114v-21l-163-97h-69z"/><glyph unicode="ś" horiz-adv-x="421" d="M297 136q0 30-18 47t-44.5 28.5q-26.5 11.5-58 22t-58 27Q92 277 74 303t-18 70q0 72 41 105.5T211 512q54 0 90.5-9.5T365 480l-19-66q-23 11-55.5 19.5T221 442q-44 0-64.5-15T136 375q0-26 18-40.5t44.5-26q26.5-11.5 58-22.5t58-29q26.5-18 44.5-45.5t18-72.5q0-32-10.5-60T334 31Q312 11 279.5-.5T203-12q-57 0-97 11T39 25l24 68q23-13 60-24t75-11q43 0 71 17t28 61zm-61 584h89v-21L224 571h-47z"/><glyph unicode="Ŝ" horiz-adv-x="531" d="M401 178q0 42-25 68.5t-62.5 47Q276 314 232 332t-81.5 43.5Q113 401 88 438.5T63 534q0 82 57 130t162 48q61 0 111-9t78-23l-25-73q-23 11-67.5 21T278 638q-66 0-99-29.5T146 539q0-39 25-65t62.5-46.5Q271 407 315 387t81.5-46.5Q434 314 459 277t25-92q0-45-16-81t-47-62q-31-26-75-40T246-12Q171-12 122-.5T46 25l28 75q23-13 68-25.5T243 62q33 0 62 6.5t50 21q21 14.5 33.5 36.5t12.5 52zM252 870h60l127-102v-21h-81l-60 49-17 35-19-34-64-50h-79v22z"/><glyph unicode="ŝ" horiz-adv-x="421" d="M297 136q0 30-18 47t-44.5 28.5q-26.5 11.5-58 22t-58 27Q92 277 74 303t-18 70q0 72 41 105.5T211 512q54 0 90.5-9.5T365 480l-19-66q-23 11-55.5 19.5T221 442q-44 0-64.5-15T136 375q0-26 18-40.5t44.5-26q26.5-11.5 58-22.5t58-29q26.5-18 44.5-45.5t18-72.5q0-32-10.5-60T334 31Q312 11 279.5-.5T203-12q-57 0-97 11T39 25l24 68q23-13 60-24t75-11q43 0 71 17t28 61zm-96 596h32l111-182h-72l-39 66-21 58-22-58-45-66H78z"/><glyph unicode="Ş" horiz-adv-x="531" d="M401 178q0 42-25 68.5t-62.5 47Q276 314 232 332t-81.5 43.5Q113 401 88 438.5T63 534q0 82 57 130t162 48q61 0 111-9t78-23l-25-73q-23 11-67.5 21T278 638q-66 0-99-29.5T146 539q0-39 25-65t62.5-46.5Q271 407 315 387t81.5-46.5Q434 314 459 277t25-92q0-79-49-130T298-8l-19-35q42-8 60.5-26t18.5-49q0-39-32-64.5T236-208q-11 0-22 1t-23 3l9 39q6-1 11-1h10q22 0 34.5 4t19 9.5q6.5 5.5 8 12.5t1.5 13q0 28-86 37l41 78q-72 1-119.5 12T46 25l28 75q23-13 68-25.5T243 62q33 0 62 6.5t50 21q21 14.5 33.5 36.5t12.5 52z"/><glyph unicode="ş" horiz-adv-x="421" d="M297 136q0 30-18 47t-44.5 28.5q-26.5 11.5-58 22t-58 27Q92 277 74 303t-18 70q0 72 41 105.5T211 512q54 0 90.5-9.5T365 480l-19-65q-23 11-55.5 19t-69.5 8q-44 0-64.5-15T136 375q0-26 18-40.5t44.5-26q26.5-11.5 58-22.5t58-29q26.5-18 44.5-45.5t18-72.5q0-59-35-100T235-10l-18-33q42-8 60.5-26t18.5-49q0-39-32-64.5T174-208q-11 0-22 1t-23 3l9 39q6-1 11-1h10q22 0 34.5 4t19 9.5q6.5 5.5 8 12.5t1.5 13q0 28-86 37l42 79Q131-9 97 1T39 25v67q47-12 84-22.5T198 59q43 0 71 16.5t28 60.5z"/><glyph unicode="Š" horiz-adv-x="531" d="M401 178q0 42-25 68.5t-62.5 47Q276 314 232 332t-81.5 43.5Q113 401 88 438.5T63 534q0 82 57 130t162 48q61 0 111-9t78-23l-25-73q-23 11-67.5 21T278 638q-66 0-99-29.5T146 539q0-39 25-65t62.5-46.5Q271 407 315 387t81.5-46.5Q434 314 459 277t25-92q0-45-16-81t-47-62q-31-26-75-40T246-12Q171-12 122-.5T46 25l28 75q23-13 68-25.5T243 62q33 0 62 6.5t50 21q21 14.5 33.5 36.5t12.5 52zm-79 568h-58L137 849v21h82l59-50 17-34 19 33 63 51h78v-22z"/><glyph unicode="š" horiz-adv-x="421" d="M297 136q0 30-18 47t-44.5 28.5q-26.5 11.5-58 22t-58 27Q92 277 74 303t-18 70q0 72 41 105.5T211 512q54 0 90.5-9.5T365 480l-19-66q-23 11-55.5 19.5T221 442q-44 0-64.5-15T136 375q0-26 18-40.5t44.5-26q26.5-11.5 58-22.5t58-29q26.5-18 44.5-45.5t18-72.5q0-32-10.5-60T334 31Q312 11 279.5-.5T203-12q-57 0-97 11T39 25l24 68q23-13 60-24t75-11q43 0 71 17t28 61zm-72 414h-37L73 732h78l39-66 21-58 22 58 45 66h70z"/><glyph unicode="Ţ" horiz-adv-x="555" d="M236 0v626H18v74h519v-74H319V0h-12l-24-43q42-8 60.5-26t18.5-49q0-39-32-64.5T240-208q-11 0-22 1t-23 3l9 39q6-1 11-1h10q22 0 34.5 4t19 9.5q6.5 5.5 8 12.5t1.5 13q0 28-86 37l48 90z"/><glyph unicode="ţ" horiz-adv-x="339" d="M11 500h78v99l80 23V500h136v-70H169V153q0-52 13-73.5T226 58q26 0 44 5t40 14l18-60Q305 6 280-1.5T226-12l-17-31q42-8 60.5-26t18.5-49q0-39-32-64.5T166-208q-11 0-22 1t-23 3l9 39q6-1 11-1h10q22 0 34.5 4t19 9.5q6.5 5.5 8 12.5t1.5 13q0 28-86 37l42 80q-45 8-63 43T89 138v292H11z"/><glyph unicode="Ť" horiz-adv-x="555" d="M537 626H319V0h-83v626H18v74h519zM304 746h-58L119 849v21h82l59-50 17-34 19 33 63 51h78v-22z"/><glyph unicode="ť" horiz-adv-x="339" d="M11 500h78v99l80 23V500h136v-70H169V153q0-52 13-73.5T226 58q26 0 44 5.5T310 78l18-61Q301 4 269-4t-69-8q-61 0-86 34.5T89 138v292H11zm300 214q-2-29-12-59.5T276.5 598Q264 572 251 552t-22-29l-33 18q17 36 26 81.5t9 91.5z"/><glyph unicode="Ū" horiz-adv-x="652" d="M487 700h80V233q0-63-16.5-109t-47-75.5Q473 19 430 5T335-9Q211-9 148 47T85 217v483h83V256q0-53 10.5-89.5t31.5-59Q231 85 262.5 75T336 65q81 0 116 44.5T487 256zM170 843h316v-62H170z"/><glyph unicode="ū" horiz-adv-x="539" d="M149 500V215q0-39 4.5-68.5t15.5-49Q180 78 199 68t48-10q27 0 48 8.5T332.5 90q16.5 15 29 34.5T382 166v334h80V142q0-36 2.5-74.5T473 0h-55l-20 79h-5q-23-39-62-65t-99-26q-40 0-70.5 9.5t-51 33.5Q90 55 79.5 95.5T69 198v302zm-27 143h296v-62H122z"/><glyph unicode="Ŭ" horiz-adv-x="652" d="M487 700h80V233q0-63-16.5-109t-47-75.5Q473 19 430 5T335-9Q211-9 148 47T85 217v483h83V256q0-53 10.5-89.5t31.5-59Q231 85 262.5 75T336 65q81 0 116 44.5T487 256zM197 871q17-34 52-52.5t82-18.5q48 0 81 21t47 50l40-19q-9-29-25.5-51.5t-39-38.5Q412 746 385 738t-55-8q-27 0-53.5 7T227 758q-23 14-42 36.5T154 847z"/><glyph unicode="ŭ" horiz-adv-x="539" d="M149 500V215q0-39 4.5-68.5t15.5-49Q180 78 199 68t48-10q27 0 48 8.5T332.5 90q16.5 15 29 34.5T382 166v334h80V142q0-36 2.5-74.5T473 0h-55l-20 79h-5q-23-39-62-65t-99-26q-40 0-70.5 9.5t-51 33.5Q90 55 79.5 95.5T69 198v302zm13 220q18-36 48-56.5t64-20.5q34 0 61.5 20t44.5 57l42-18q-3-24-15.5-47.5t-32-41.5Q355 595 329 584t-56-11q-28 0-53 8.5t-45.5 25Q154 623 139 645.5T117 697z"/><glyph unicode="Ů" horiz-adv-x="652" d="M487 700h80V233q0-63-16.5-109t-47-75.5Q473 19 430 5T335-9Q211-9 148 47T85 217v483h83V256q0-53 10.5-89.5t31.5-59Q231 85 262.5 75T336 65q81 0 116 44.5T487 256zm-262 68q0 37 25 61t80 24q50 0 78-21.5t28-63.5q0-36-26.5-59.5T330 685q-51 0-78 22.5T225 768zm61 0q0-17 10.5-28.5T330 728q22 0 33.5 11t11.5 29q0 19-11 30.5T330 810q-22 0-33-11.5T286 768z"/><glyph unicode="ů" horiz-adv-x="539" d="M149 500V215q0-39 4.5-68.5t15.5-49Q180 78 199 68t48-10q27 0 48 8.5T332.5 90q16.5 15 29 34.5T382 166v334h80V142q0-36 2.5-74.5T473 0h-55l-20 79h-5q-23-39-62-65t-99-26q-40 0-70.5 9.5t-51 33.5Q90 55 79.5 95.5T69 198v302zm23 143q0 42 26.5 66.5T269 734q42 0 70-22t28-69q0-39-28-64.5T269 553q-42 0-69.5 23.5T172 643zm54 0q0-20 13-31t30-11q19 0 31.5 10t12.5 32q0 22-13.5 32.5T269 686q-17 0-30-10t-13-33z"/><glyph unicode="Ű" horiz-adv-x="652" d="M487 700h80V233q0-63-16.5-109t-47-75.5Q473 19 430 5T335-9Q211-9 148 47T85 217v483h83V256q0-53 10.5-89.5t31.5-59Q231 85 262.5 75T336 65q81 0 116 44.5T487 256zM277 850h93v-16l-100-93h-57zm162 0h99v-16l-143-93h-58z"/><glyph unicode="ű" horiz-adv-x="539" d="M149 500V215q0-39 4.5-68.5t15.5-49Q180 78 199 68t48-10q27 0 48 8.5T332.5 90q16.5 15 29 34.5T382 166v334h80V142q0-36 2.5-74.5T473 0h-55l-20 79h-5q-23-39-62-65t-99-26q-40 0-70.5 9.5t-51 33.5Q90 55 79.5 95.5T69 198v302zm61 200h78v-16l-71-113h-42zm146 0h86v-16L328 571h-45z"/><glyph unicode="Ų" horiz-adv-x="652" d="M487 700h80V233q-2-97-38-152.5T428 4q-30-16-46-39t-16-52q1-21 14-35.5t37-15.5q21 0 41 9l11-43q-14-11-38-17t-47-6q-45 0-72.5 24T284-106q0 30 16 55t44 42h-9Q211-9 148 47T85 217v483h83V256q0-53 10.5-89.5t31.5-59Q231 85 262.5 75T336 65q80 0 115 44.5T487 256z"/><glyph unicode="ų" horiz-adv-x="539" d="M149 500V215q0-39 4.5-68.5t15.5-49Q180 78 199 68t48-10q27 0 48 8.5T332.5 90q16.5 15 29 34.5T382 166v334h80V142q0-36 2.5-74.5T473 0h-18q-30-12-46.5-36T394-91q3-21 15.5-34t37.5-13q19 0 39 9l11-43q-15-12-39.5-17.5T412-195q-44 0-70.5 21.5T312-110q0 41 25.5 71T414 10l-17 69h-5q-22-39-62.5-65T232-12q-40 0-70.5 9.5t-51 33.5Q90 55 79.5 95.5T69 198v302z"/><glyph unicode="Ÿ" horiz-adv-x="558" d="M239 278L8 700h97l164-306 17-61h1l18 63 157 304h89L322 279V0h-83zM133 794q0 21 15 34t39 13q23 0 37.5-13t14.5-34q0-20-14.5-33T187 748q-24 0-39 13t-15 33zm192 0q0 21 14.5 34t37.5 13q24 0 39-13t15-34q0-20-15-33t-39-13q-23 0-37.5 13T325 794z"/><glyph unicode="Ź" horiz-adv-x="545" d="M38 75l353 511 42 40H38v74h470v-75L153 111l-42-37h397V0H38zm291 795h114v-21l-163-97h-69z"/><glyph unicode="ź" horiz-adv-x="447" d="M42 70l231 318 42 42H42v70h356v-70L165 109l-41-39h274V0H42zm194 650h89v-21L224 571h-47z"/><glyph unicode="Ż" horiz-adv-x="545" d="M38 75l353 511 42 40H38v74h470v-75L153 111l-42-37h397V0H38zm173 722q0 21 16.5 36.5T273 849q29 0 46.5-15.5T337 797q0-23-17.5-38T273 744q-29 0-45.5 15T211 797z"/><glyph unicode="ż" horiz-adv-x="447" d="M42 70l231 318 42 42H42v70h356v-70L165 109l-41-39h274V0H42zm131 582q0 23 15.5 39.5T228 708q24 0 41-16.5t17-39.5q0-23-17-38t-41-15q-24 0-39.5 15T173 652z"/><glyph unicode="Ž" horiz-adv-x="545" d="M38 75l353 511 42 40H38v74h470v-75L153 111l-42-37h397V0H38zm248 671h-58L101 849v21h82l59-50 17-34 19 33 63 51h78v-22z"/><glyph unicode="ž" horiz-adv-x="447" d="M42 70l231 318 42 42H42v70h356v-70L165 109l-41-39h274V0H42zm193 480h-37L83 732h78l39-66 21-58 22 58 45 66h70z"/><glyph unicode="ſ" horiz-adv-x="249" d="M22 500h78v28q0 93 32 135.5T244 706q32 0 56-4t51-15l-18-67q-23 10-43.5 13t-38.5 3q-24 0-38.5-6.5t-21.5-20q-7-13.5-9-34t-2-46.5V0h-80v431H22z"/><glyph unicode="ƒ" horiz-adv-x="545" d="M316 430L237-34q-6-37-17-68.5t-29.5-55Q172-181 145-194.5T81-208q-29 0-60 7t-55 17l21 66q23-10 43.5-15t44.5-5q38 0 57.5 33.5T165 8l68 422h-85v70h96l11 67q12 74 43.5 109.5T402 712q33 0 64.5-7t56.5-18l-23-65q-48 20-92 20-19 0-31-5.5t-20-17q-8-11.5-13.5-31T334 541l-7-41h120v-70z"/><glyph unicode="Ǵ" horiz-adv-x="612" d="M321 349h235V41q-16-12-38.5-22t-48-17q-25.5-7-53-10.5T363-12q-67 0-123 21.5t-97 66q-41 44.5-64 113T56 350q0 97 28 166t73 112.5Q202 672 258 692t112 20q60 0 99-6.5t66-17.5l-21-73q-48 23-137 23-42 0-83.5-14.5T219 575q-33-34-54-89t-21-136q0-74 17-128t47.5-89.5Q239 97 282 79.5T376 62q64 0 109 25v195l-164 20zm107 521h114v-21l-163-97h-69z"/><glyph unicode="ǵ" horiz-adv-x="537" d="M460-23q0-97-51.5-143T256-212q-60 0-96.5 7.5T97-185l21 68q23-9 51-17t73-8q42 0 68.5 7.5t42.5 25q16 17.5 22 45T381 1v48h-4q-20-29-51-44.5T245-11Q144-11 96.5 52T49 248q0 128 61 194.5T290 509q57 0 97.5-9t72.5-21zM259 59q51 0 80 25.5t41 79.5v256q-40 19-102 19-68 0-107-46t-39-144q0-42 7-77t22-60q15-25 39-39t59-14zm45 661h89v-21L292 571h-47z"/><glyph unicode="Ș" horiz-adv-x="531" d="M401 178q0 42-25 68.5t-62.5 47Q276 314 232 332t-81.5 43.5Q113 401 88 438.5T63 534q0 82 57 130t162 48q61 0 111-9t78-23l-25-73q-23 11-67.5 21T278 638q-66 0-99-29.5T146 539q0-39 25-65t62.5-46.5Q271 407 315 387t81.5-46.5Q434 314 459 277t25-92q0-45-16-81t-47-62q-31-26-75-40T246-12Q171-12 122-.5T46 25l28 75q23-13 68-25.5T243 62q33 0 62 6.5t50 21q21 14.5 33.5 36.5t12.5 52zM203-102q0 21 15.5 34T254-55q25 0 44.5-17.5T318-130q0-26-9-45.5t-21.5-34q-12.5-14.5-26-23T238-245l-28 32q20 11 32 28t12 41q-4-1-10-1-18 0-29.5 12T203-102z"/><glyph unicode="ș" horiz-adv-x="421" d="M297 136q0 30-18 47t-44.5 28.5q-26.5 11.5-58 22t-58 27Q92 277 74 303t-18 70q0 72 41 105.5T211 512q54 0 90.5-9.5T365 480l-19-66q-23 11-55.5 19.5T221 442q-44 0-64.5-15T136 375q0-26 18-40.5t44.5-26q26.5-11.5 58-22.5t58-29q26.5-18 44.5-45.5t18-72.5q0-32-10.5-60T334 31Q312 11 279.5-.5T203-12q-57 0-97 11T39 25l24 68q23-13 60-24t75-11q43 0 71 17t28 61zM154-102q0 21 15.5 34T205-55q25 0 44.5-17.5T269-130q0-26-9-45.5t-21.5-34q-12.5-14.5-26-23T189-245l-28 32q20 11 32 28t12 41q-4-1-10-1-18 0-29.5 12T154-102z"/><glyph unicode="Ț" horiz-adv-x="555" d="M537 626H319V0h-83v626H18v74h519zM218-102q0 21 15.5 34T269-55q25 0 44.5-17.5T333-130q0-26-9-45.5t-21.5-34q-12.5-14.5-26-23T253-245l-28 32q20 11 32 28t12 41q-4-1-10-1-18 0-29.5 12T218-102z"/><glyph unicode="ț" horiz-adv-x="339" d="M11 500h78v99l80 23V500h136v-70H169V153q0-52 13-73.5T226 58q26 0 44 5.5T310 78l18-61Q301 4 269-4t-69-8q-61 0-86 34.5T89 138v292H11zm119-602q0 21 15.5 34T181-55q25 0 44.5-17.5T245-130q0-26-9-45.5t-21.5-34q-12.5-14.5-26-23T165-245l-28 32q20 11 32 28t12 41q-4-1-10-1-18 0-29.5 12T130-102z"/><glyph unicode="ȷ" horiz-adv-x="267" d="M93 500h80V-27q0-93-32-139T39-212q-8 0-15 .5T9-210v68q28 0 44.5 8.5T79-107q9 18 11.5 45.5T93 3z"/><glyph unicode="ʼ" horiz-adv-x="194" d="M40 657q0 23 14.5 36T92 706q28 0 45.5-17.5T155 636q0-33-9.5-57t-23-40.5Q109 522 94 512t-26-14l-25 34q23 12 36 30t13 47q-4-1-11-1-19 0-30 13.5T40 657z"/><glyph unicode="ˆ" horiz-adv-x="386" d="M183 732h32l111-182h-72l-39 66-21 58-22-58-45-66H60z"/><glyph unicode="ˇ" horiz-adv-x="395" d="M212 550h-37L60 732h78l39-66 21-58 22 58 45 66h70z"/><glyph unicode="˘" horiz-adv-x="425" d="M105 720q18-36 48-56.5t64-20.5q34 0 61.5 20t44.5 57l42-18q-3-24-15.5-47.5t-32-41.5Q298 595 272 584t-56-11q-28 0-53 8.5t-45.5 25Q97 623 82 645.5T60 697z"/><glyph unicode="˙" horiz-adv-x="233" d="M60 652q0 23 15.5 39.5T115 708q24 0 41-16.5t17-39.5q0-23-17-38t-41-15q-24 0-39.5 15T60 652z"/><glyph unicode="˚" horiz-adv-x="315" d="M60 643q0 42 26.5 66.5T157 734q42 0 70-22t28-69q0-39-28-64.5T157 553q-42 0-69.5 23.5T60 643zm54 0q0-20 13-31t30-11q19 0 31.5 10t12.5 32q0 22-13.5 32.5T157 686q-17 0-30-10t-13-33z"/><glyph unicode="˛" horiz-adv-x="305" d="M218 10q-35-16-55-40.5T143-87q0-20 13-35.5t38-15.5q19 0 40 10l11-43q-15-12-40-18t-46-6q-45 0-72 24t-27 65q0 41 27.5 70T163 10z"/><glyph unicode="˜" horiz-adv-x="399" d="M60 656q29 33 53 45.5t44 12.5q17 0 31.5-6.5t28-14q13.5-7.5 26-13.5t26.5-6q22 0 46 24l24-43q-26-29-47.5-39.5T252 605q-16 0-30 6t-27.5 13.5q-13.5 7.5-27 14T140 645q-13 0-26.5-7T83 614z"/><glyph unicode="˝" horiz-adv-x="387" d="M95 700h78v-16l-71-113H60zm146 0h86v-16L213 571h-45z"/><glyph unicode="́" horiz-adv-x="0" d="M-232 720h89v-21l-101-128h-47z"/><glyph unicode="Δ" horiz-adv-x="568" d="M14 0v37l254 674h34L558 37V0zm92 72h355L306 475l-24 105h-1l-28-107z"/><glyph unicode="Ω" horiz-adv-x="802" d="M76 70h116l94-10v26l-54 10q-32 15-60.5 41.5t-49.5 62q-21 35.5-33.5 80T76 376q0 78 23 140t65 105.5q42 43.5 102 67T400 712q78 0 138.5-25T641 617q42-45 63.5-107.5T726 372q0-54-14-98t-36.5-78.5q-22.5-34.5-50-59T571 97l-57-11V60l96 10h116V0H439v125q30 6 64.5 22t64.5 45.5q30 29.5 50 75T638 377q0 48-13.5 94.5T582 555q-29 37-74.5 60T399 638q-113 0-174-66.5T164 374q0-63 18.5-107.5T230 192q29-30 64-46t68-21V0H76z"/><glyph unicode="π" horiz-adv-x="664" d="M514 116q0-28 9-39t23-11q10 0 22.5 2t21.5 4l19-54q-16-7-39.5-14.5T516-4q-50 0-66 29t-16 81v324H244V0h-80v430h-14q-21 0-34-11.5T89 385l-53 32q19 38 47 60.5t81 22.5h433v-70h-83z"/><glyph unicode="Ё" horiz-adv-x="536" d="M85 700h381v-74H168V397h273v-74H168V74h303V0H85zm35 94q0 21 15 34t39 13q23 0 37.5-13t14.5-34q0-20-14.5-33T174 748q-24 0-39 13t-15 33zm192 0q0 21 14.5 34t37.5 13q24 0 39-13t15-34q0-20-15-33t-39-13q-23 0-37.5 13T312 794z"/><glyph unicode="Ђ" horiz-adv-x="728" d="M319 0h-83v626H18v74h519v-74H319V415q12 4 47.5 12.5T458 436q40 0 78.5-9.5T605 393q30-24 48.5-64.5T672 226q0-120-61-177T439-8q-33 0-47.5.5T369-5v72q13-2 28.5-2.5T442 64q142 0 142 156 0 42-12 70t-32.5 44.5q-20.5 16.5-48 23T432 364q-18 0-35.5-2.5t-33-6q-15.5-3.5-27-7.5t-17.5-6z"/><glyph unicode="Ѓ" horiz-adv-x="442" d="M460 626H168V0H85v700h375zM315 870h114v-21l-163-97h-69z"/><glyph unicode="Є" horiz-adv-x="583" d="M544 29Q514 6 465.5-3T365-12q-63 0-119 21.5T147.5 75q-42.5 44-67 112.5T56 350q0 98 27.5 166.5t71.5 112q44 43.5 99 63.5t111 20q60 0 101-6.5t68-17.5l-20-74q-23 11-60 17.5t-82 6.5q-39 0-76.5-12.5t-69-41Q195 556 173.5 510T145 398h306v-74H144q3-66 23.5-115t53-81.5Q253 95 295 78.5T384 62q45 0 81 9t58 23z"/><glyph unicode="Ѕ" horiz-adv-x="531" d="M401 178q0 42-25 68.5t-62.5 47Q276 314 232 332t-81.5 43.5Q113 401 88 438.5T63 534q0 82 57 130t162 48q61 0 111-9t78-23l-25-73q-23 11-67.5 21T278 638q-66 0-99-29.5T146 539q0-39 25-65t62.5-46.5Q271 407 315 387t81.5-46.5Q434 314 459 277t25-92q0-45-16-81t-47-62q-31-26-75-40T246-12Q171-12 122-.5T46 25l28 75q23-13 68-25.5T243 62q33 0 62 6.5t50 21q21 14.5 33.5 36.5t12.5 52z"/><glyph unicode="І" horiz-adv-x="291" d="M104 700h83V0h-83z"/><glyph unicode="Ї" horiz-adv-x="293" d="M32 793q0 22 14.5 35T83 841q21 0 35.5-13t14.5-35q0-22-14.5-34.5T83 746q-22 0-36.5 12.5T32 793zm129 0q0 22 14.5 35t35.5 13q22 0 36.5-13t14.5-35q0-22-14.5-34.5T211 746q-21 0-35.5 12.5T161 793zm-56-93h83V0h-83z"/><glyph unicode="Ј" horiz-adv-x="291" d="M112 700h83V154q0-80-35.5-122T52-10q-8 0-20 1T8-6Q-4-4-15.5-1T-34 6l16 71q28-13 61-13 42 0 55.5 29.5T112 174z"/><glyph unicode="Љ" horiz-adv-x="926" d="M456 626H247q-10-200-26.5-332.5T171 87q-22-48-52-70T54-5Q36-5 23-2.5T-2 5L9 77q10-3 21-3 17 0 33.5 11T96 126q14 27 26.5 72t22 114q9.5 69 15.5 164.5t9 223.5h370V428q5 1 17 2.5t26 2.5q14 1 29 2t27 1q48 0 93.5-9.5t81-33.5q35.5-24 57.5-64.5T892 226q0-60-21-104t-58-73q-37-29-86.5-43T619-8q-14 0-34 .5t-42.5 2Q520-4 497.5-1T456 7zM630 64q36 0 67.5 9.5t55.5 29q24 19.5 37.5 49T804 220q0 42-15 70t-39.5 44.5Q725 351 693 357.5t-66 6.5q-9 0-22-1l-26-2q-13-1-24-3t-16-3V70q14-3 40-4.5t51-1.5z"/><glyph unicode="Њ" horiz-adv-x="974" d="M504 336H168V0H85v700h83V410h336v290h83V409q5 1 17 2.5t26.5 2.5q14.5 1 29.5 2t27 1q47 0 92.5-8t81-30q35.5-22 57.5-61t22-101q0-60-21-103t-58-70q-37-27-86.5-39.5T667-8q-14 0-34 .5t-42.5 2Q568-4 545.5-1T504 6zM678 64q36 0 68 8t55.5 26q23.5 18 37 45.5T852 210q0 42-14.5 68.5t-39 41.5Q774 335 742 340t-67 5q-9 0-22-1l-26-2q-13-1-24-3t-16-3V70q14-3 40-4.5t51-1.5z"/><glyph unicode="Ћ" horiz-adv-x="750" d="M319 0h-83v626H18v74h519v-74H319V395q27 15 71.5 30T491 440q42 0 77.5-9.5t60.5-32q25-22.5 39-60.5t14-94V0h-83v229q0 137-124 137-48 0-89-12.5T319 320z"/><glyph unicode="Ќ" horiz-adv-x="610" d="M215 324h-47V0H85v700h83V374l45 14 235 312h96L310 399l-42-33 51-40L575 0H470zm126 546h114v-21l-163-97h-69z"/><glyph unicode="Ў" horiz-adv-x="553" d="M282 331l26-89h5l20 92 134 366h85L375 245q-27-71-47.5-118.5t-41.5-77q-21-29.5-45-42T182-5Q149-5 129.5.5T93 17l25 69q20-11 37-14t31-3q28 0 47 28.5t33 84.5L7 700h96zm-81 539q4-37 28-57t64-20q40 0 63.5 20t28.5 56l71-17q-11-54-50.5-85.5T292 735q-71 0-116.5 27.5T122 850z"/><glyph unicode="Џ" horiz-adv-x="659" d="M85 0v700h83V74h323v626h83V0H372l-15-179h-52L285 0z"/><glyph unicode="А" horiz-adv-x="585" d="M418 194H160L90 0H8l265 711h38L577 0h-87zm-231 72h206l-78 213-25 106h-1l-25-108z"/><glyph unicode="Б" horiz-adv-x="550" d="M85 700h380v-74H168V416q17 3 42 6t48 3q51 0 97-9.5t81-32.5q35-23 55.5-62.5T512 221q0-60-21-103.5t-56-71q-35-27.5-81.5-41T256-8q-17 0-38.5.5t-45 2.5q-23.5 2-46 4.5T85 7zM266 64q32 0 61 9t50.5 26.5q21.5 17.5 34 44.5t12.5 63q0 46-14.5 74.5T371 326q-24 16-55.5 21.5T250 353q-9 0-21-1l-24-2q-12-1-22-2.5t-15-2.5V70q7-2 18.5-3t25-2q13.5-1 27.5-1t27 0z"/><glyph unicode="В" horiz-adv-x="584" d="M507 540q0-25-8-51t-24-48.5Q459 418 434 401t-59-26v-4q30-5 57.5-17t48.5-33q21-21 34-51t13-71q0-54-22.5-93.5t-59-64.5Q410 16 363 4T267-8h-40q-23 0-48 1.5t-50 4Q104 0 85 5v689q37 6 86 10t107 4q39 0 79.5-6.5t73.5-25q33-18.5 54.5-51.5t21.5-85zM275 64q32 0 62 7.5t53 24q23 16.5 36.5 40.5t13.5 57q0 41-16.5 66t-43 39Q354 312 321 317t-66 5h-87V71q7-2 20-3t28-2q15-1 31-1.5t28-.5zm-55 328q17 0 41 1t40 3q24 8 45 19.5t37.5 27q16.5 15.5 26 36T419 523q0 33-12.5 54.5T373 612q-21 13-48 18.5t-55 5.5q-33 0-60.5-1.5T168 630V392z"/><glyph unicode="Г" horiz-adv-x="442" d="M460 626H168V0H85v700h375z"/><glyph unicode="Д" horiz-adv-x="669" d="M641-129h-57L569 0H78L63-129H5V74h71q8 11 24.5 51.5t33 116Q150 317 163 430.5T176 700h374V74h91zM467 74v552H254q-3-110-11.5-198T222 272.5Q210 205 195 156t-31-82z"/><glyph unicode="Е" horiz-adv-x="536" d="M85 700h381v-74H168V397h273v-74H168V74h303V0H85z"/><glyph unicode="Ж" horiz-adv-x="806" d="M358 700h80V374l43 14 203 312h92L574 396l-40-32 50-41L807 0H705L484 324h-46V0h-80v336l-42-14L95 0H-1l221 313 48 38-46 35L13 700h97l203-314h45z"/><glyph unicode="З" horiz-adv-x="541" d="M139 331v70h38q13 0 26.5 1t26 1.5q12.5.5 20.5 2.5 26 4 49 13.5t40 24.5q17 15 27 35t10 44q0 33-11 55t-30.5 35.5q-19.5 13.5-45 19T235 638q-54 0-92-7.5T82 612l-22 66q20 11 72 22.5T249 712q40 0 78.5-8.5t69-28q30.5-19.5 49-53T464 540q0-50-33-95.5T332 379v-4q71-10 112-53t41-115q0-57-22.5-98.5t-59-68.5Q367 13 319.5.5T223-12q-66 0-108.5 7.5T44 14l21 75q23-11 64.5-19T230 62q31 0 61 8.5t53.5 26q23.5 17.5 38 43.5t14.5 62q0 63-44 92.5T238 329q-12 1-22.5 1.5t-21.5.5z"/><glyph unicode="И" horiz-adv-x="681" d="M513 474l6 80h-4l-43-82L134 0H85v700h83V220l-7-79h4l44 82 338 477h49V0h-83z"/><glyph unicode="Й" horiz-adv-x="681" d="M513 474l6 80h-4l-43-82L134 0H85v700h83V220l-7-79h4l44 82 338 477h49V0h-83zM258 870q4-37 28-57t64-20q40 0 63.5 20t28.5 56l71-17q-11-54-50.5-85.5T349 735q-71 0-116.5 27.5T179 850z"/><glyph unicode="К" horiz-adv-x="610" d="M215 324h-47V0H85v700h83V374l45 14 235 312h96L310 399l-42-33 51-40L575 0H470z"/><glyph unicode="Л" horiz-adv-x="624" d="M456 626H247q-10-200-26.5-332.5T171 87q-22-48-52-70T54-5Q36-5 23-2.5T-2 5L9 77q10-3 21-3 17 0 33.5 11T96 126q14 27 26.5 72t22 114q9.5 69 15.5 164.5t9 223.5h370V0h-83z"/><glyph unicode="М" horiz-adv-x="791" d="M623 470l10 105h-5l-38-96-182-316h-25L190 480l-36 95h-5l14-104V0H85v700h62l219-358 33-78h2l31 80 209 356h65V0h-83z"/><glyph unicode="Н" horiz-adv-x="672" d="M504 321H168V0H85v700h83V395h336v305h83V0h-83z"/><glyph unicode="О" horiz-adv-x="684" d="M56 350q0 175 74 268.5T341 712q74 0 128-26t89.5-73.5Q594 565 611 498.5T628 350q0-175-74.5-268.5T341-12q-73 0-126.5 26t-89 73.5Q90 135 73 201.5T56 350zm88 0q0-58 11.5-110t35.5-91.5q24-39.5 61.5-63T341 62q93 0 146 70.5T540 350q0 57-11.5 109.5t-36 92q-24.5 39.5-62 63T341 638q-92 0-144.5-70.5T144 350z"/><glyph unicode="П" horiz-adv-x="659" d="M491 626H168V0H85v700h489V0h-83z"/><glyph unicode="Р" horiz-adv-x="559" d="M85 693q38 9 82 12t87 3q46 0 93.5-9t86.5-33q39-24 63.5-66T522 493q0-64-23-108t-61-71.5Q400 286 351 274t-101-12h-16.5q-11.5 0-24 .5T185 264q-12 1-17 2V0H85zm171-57q-26 0-50-1t-38-5V340q5-2 16-2.5t23-1q12-.5 23-.5h16q34 0 67.5 6.5T374 366q27 17 43.5 48t16.5 79q0 41-15.5 68.5t-41 44Q352 622 320 629t-64 7z"/><glyph unicode="С" horiz-adv-x="571" d="M533 29Q503 6 457-3t-98-9q-63 0-118 21.5T145 75q-41 44-65 112.5T56 350q0 98 26.5 166.5t70 112Q196 672 250 692t110 20q60 0 98-6.5t65-17.5l-20-73q-48 23-137 23-41 0-81-15t-71.5-49Q182 540 163 485t-19-135q0-72 18-126t49.5-90q31.5-36 74-54T378 62q45 0 78.5 9T513 94z"/><glyph unicode="Т" horiz-adv-x="555" d="M537 626H319V0h-83v626H18v74h519z"/><glyph unicode="У" horiz-adv-x="553" d="M282 331l26-89h5l20 92 134 366h85L375 245q-27-71-47.5-118.5t-41.5-77q-21-29.5-45-42T182-5Q149-5 129.5.5T93 17l25 69q20-11 37-14t31-3q28 0 47 28.5t33 84.5L7 700h96z"/><glyph unicode="Ф" horiz-adv-x="780" d="M349 78q-17-3-39.5-4T267 73q-47 0-88.5 16t-72 50q-30.5 34-48 86.5T41 350q0 68 17.5 121.5t50 90.5q32.5 37 77.5 56.5T286 638q13 0 32.5-1t30.5-3v86h82v-89q18 5 42.5 6t40.5 1q48 0 89-17.5t71.5-52q30.5-34.5 47.5-87T739 360q0-71-19.5-125T667 145q-33-36-77-54t-94-18q-11 0-32.5 1.5T431 80V-20h-82zm153 490q-14 0-36-1t-36-6V146q10-2 26.5-2.5t32.5-.5q34 0 63.5 13t52 40q22.5 27 35.5 68t13 96q0 46-10.5 84.5t-30 66.5Q593 539 565 553.5T502 568zM282 143h13.5q8.5 0 18.5.5t19.5 2Q343 147 350 149v415q-12 2-29.5 3t-31.5 1q-34 0-63.5-13.5t-51.5-41Q152 486 139.5 445T127 350q0-48 11-86.5t31.5-65.5q20.5-27 49-41t63.5-14z"/><glyph unicode="Х" horiz-adv-x="618" d="M259 356L46 700h100l142-237 25-57 24 57 150 237h92L359 363 589 0h-97L334 251l-27 60-26-60L119 0H26z"/><glyph unicode="Ц" horiz-adv-x="687" d="M659-129h-57L587 0H85v700h83V74h315v626h83V74h93z"/><glyph unicode="Ч" horiz-adv-x="605" d="M158 700V468q0-137 124-137 47 0 88 12.5t67 33.5v323h83V0h-83v302q-27-15-71-30t-101-15q-42 0-77 9.5t-60 32Q103 321 89 359t-14 94v247z"/><glyph unicode="Ш" horiz-adv-x="877" d="M85 0v700h83V74h229v626h83V74h229v626h83V0z"/><glyph unicode="Щ" horiz-adv-x="913" d="M85 0v700h83V74h229v626h83V74h229v626h83V74h93v-203h-58L812 0z"/><glyph unicode="Ъ" horiz-adv-x="630" d="M159 626H-1v74h243V428q5 1 17 2.5t26.5 2.5q14.5 1 29.5 2t27 1q47 0 92.5-9.5T516 393q36-24 58-64.5T596 226q0-60-21-104t-58-73q-37-29-86.5-43T323-8q-14 0-34 .5t-42.5 2Q224-4 201-1t-42 8zM334 64q36 0 67.5 9.5t55 29q23.5 19.5 37.5 49t14 68.5q0 42-15 70t-40 44.5q-25 16.5-57 23t-66 6.5q-9 0-22-1l-26-2q-13-1-24-3t-16-3V70q14-3 40-4.5t52-1.5z"/><glyph unicode="Ы" horiz-adv-x="769" d="M601 700h83V0h-83zm-516 0h83V428q5 1 15 2.5t22 2.5q12 1 24.5 2t24.5 1q47 0 91.5-9.5T424 393q34-24 54.5-64.5T499 226q0-60-19-104.5t-53.5-73Q392 20 344 6T238-8q-14 0-32.5.5t-39 2Q146-4 125-1T85 7zM245 64q72 0 119 39t47 117q0 42-14 70t-37.5 44.5q-23.5 16.5-54 23T241 364q-18 0-40-3t-33-6V70q27-6 77-6z"/><glyph unicode="Ь" horiz-adv-x="555" d="M85 700h83V428q5 1 17 2.5t26 2.5q14 1 29 2t27 1q48 0 93.5-9.5t81-33.5q35.5-24 57.5-64.5T521 226q0-60-21-104t-58-73q-37-29-86.5-43T248-8q-14 0-34 .5t-42.5 2Q149-4 126.5-1T85 7zM259 64q36 0 67.5 9.5t55.5 29q24 19.5 37.5 49T433 220q0 42-15 70t-39.5 44.5Q354 351 322 357.5t-66 6.5q-9 0-22-1l-26-2q-13-1-24-3t-16-3V70q14-3 40-4.5t51-1.5z"/><glyph unicode="Э" horiz-adv-x="577" d="M150 395h288q-5 61-24 107.5t-49 77Q335 610 295.5 624T210 638q-47 0-83.5-8T67 608l-22 65q31 18 77 28.5t98 10.5q64 0 119-20t95.5-63.5Q475 585 498 516t23-166q0-98-26-167T424.5 70.5Q380 27 321.5 7.5T199-12q-50 0-88.5 7T45 13l22 73q23-11 60-17.5t77-6.5q40 0 80.5 12.5T358 118q33 31 55 81t26 122H150z"/><glyph unicode="Ю" horiz-adv-x="893" d="M168 395h124q8 153 77 235t197 82q73 0 125-26t84-73.5q32-47.5 47-114T837 350q0-175-67-268.5T566-12q-69 0-120 23.5t-84.5 67Q328 122 311 183.5T291 321H168V0H85v700h83zm211-45q0-58 10-110t32-91.5q22-39.5 57.5-63T566 62q93 0 138 70t45 218q0 57-9 109.5t-30.5 92Q688 591 653 614.5T566 638q-93 0-140-70.5T379 350z"/><glyph unicode="Я" horiz-adv-x="569" d="M484 0h-83v305l-103-22L124 0H26l156 249 61 43q-36 8-66.5 24.5t-53 42Q101 384 88.5 418T76 496q0 61 20.5 101.5t56 65q35.5 24.5 83 35T336 708q34 0 72.5-3t75.5-12zM332 636q-33 0-63-6.5T215.5 607Q192 591 178 564t-14-68q0-38 13.5-65t36.5-44.5q23-17.5 53.5-25.5t65.5-8h68v277q-14 3-29 4.5t-40 1.5z"/><glyph unicode="а" horiz-adv-x="496" d="M69 463q38 23 88.5 34T263 508q52 0 83.5-14t48-36.5q16.5-22.5 22-49.5t5.5-54q0-60-3-117t-3-108q0-37 3-70t11-61h-59l-21 70h-5q-9-14-22.5-27.5t-32.5-24Q271 6 246-1t-57-7q-32 0-59.5 10T82 30.5Q62 49 50.5 75T39 134q0 44 18 73.5t50.5 47q32.5 17.5 78 25T286 287h27.5q13.5 0 27.5-2 3 30 3 54 0 55-22 77t-80 22q-17 0-36.5-2.5t-40-7q-20.5-4.5-39-11T94 403zM211 62q28 0 50 7.5t38 19q16 11.5 26.5 25.5t15.5 27v83q-14 1-28.5 1.5t-28.5.5q-31 0-60.5-3.5t-52-13q-22.5-9.5-36-26T122 142q0-35 25-57.5T211 62z"/><glyph unicode="б" horiz-adv-x="536" d="M123 411q33 48 73 67.5T296 498q92 0 141.5-60T487 261q0-135-57.5-204T269-12q-110 0-165 76T49 303q0 86 8.5 147t25 103q16.5 42 40 67t53 39.5Q205 674 240 680t75 10q52 5 81.5 11.5T444 725l9-72q-10-9-22-15t-29-10q-17-4-40.5-7t-54.5-5q-43-3-75.5-10.5t-56-29q-23.5-21.5-37-61T120 411zm9-162q0-38 8-73t24.5-61.5Q181 88 207 73t61-15q69 0 102.5 49.5T404 254q0 38-7 70t-22 55.5q-15 23.5-38 36T282 428q-78 1-114-45.5T132 249z"/><glyph unicode="в" horiz-adv-x="499" d="M77 499q35 2 73.5 5t95.5 3q99 0 142-30.5t43-92.5q0-35-20.5-68.5T343 266v-4q59-11 83-41t24-80q0-78-56-113T226-7q-42 0-78 2.5T77 1zm80-432q19-2 37.5-3t43.5-1q67 0 99.5 19t32.5 65q0 36-27.5 58.5T245 228h-88zm98 222q18 0 35 6t30.5 16.5q13.5 10.5 22 24.5t8.5 30q0 40-24 55.5T243 437q-32 0-50.5-1t-35.5-2V289z"/><glyph unicode="г" horiz-adv-x="369" d="M369 430H157V0H77v500h292z"/><glyph unicode="д" horiz-adv-x="541" d="M519-127h-54L450 0H74L59-127H5V70h59q8 11 21 39.5t25.5 80q12.5 51.5 22 128T144 500h302V70h73zM366 70v360H216q-2-42-7-91.5t-13.5-99Q187 190 174 146t-30-76z"/><glyph unicode="е" horiz-adv-x="508" d="M442 40q-30-24-75.5-38T270-12q-57 0-99 18.5t-69 53Q75 94 62 142T49 250q0 128 57 195t163 67q34 0 68-7.5t61-28.5q27-21 44-59.5T459 315q0-33-6-73H132q0-44 9-78t28-57.5q19-23.5 49.5-36T293 58q34 0 68 12t51 28zM270 442q-59 0-94.5-31T133 305h248q0 76-29 106.5T270 442z"/><glyph unicode="ж" horiz-adv-x="659" d="M240 221L93 0H1l158 229 34 30-51 38L12 500h85l138-216h52v216h78V274l47 14 139 212h84L499 297l-39-32 51-40L659 0h-95L417 225h-52V0h-78v235z"/><glyph unicode="з" horiz-adv-x="441" d="M125 223v65h70q18 0 35.5 6t31.5 16.5q14 10.5 22.5 25T293 366q0 39-27 55t-81 16q-39 0-71.5-12T63 402l-23 62q30 17 70.5 30t96.5 13q166 0 166-123 0-35-22.5-68.5T286 268v-4q59-11 82.5-42t23.5-82q0-32-13-59t-39-47q-26-20-65.5-31.5T183-9q-51 0-84.5 9T38 22l23 66q23-13 55.5-20t70.5-7q61 0 93 21t32 64q0 36-30 56.5T183 223z"/><glyph unicode="и" horiz-adv-x="546" d="M389 296l3 62h-3l-41-64L123 0H77v500h80V195l-3-59h4l39 62 225 302h47V0h-80z"/><glyph unicode="й" horiz-adv-x="546" d="M389 296l3 62h-3l-41-64L123 0H77v500h80V195l-3-59h4l39 62 225 302h47V0h-80zM192 702q10-46 34.5-64t56.5-18q32 0 57 19t34 62l60-19q-9-58-51.5-89T281 562q-27 0-53.5 7T180 590q-21 14-36 36t-20 52z"/><glyph unicode="к" horiz-adv-x="478" d="M203 225h-46V0H77v500h80V274l43 14 160 212h87L292 299l-42-33 52-40L469 0h-99z"/><glyph unicode="л" horiz-adv-x="503" d="M346 430H201q-3-42-6-90.5t-9-97q-6-48.5-16-93T144.5 71q-15.5-34-38-54.5T53-4Q34-4 20-2T-5 5L7 72q12-4 26-4 20 0 36 17t28 64.5Q109 197 117 281t11 219h298V0h-80z"/><glyph unicode="м" horiz-adv-x="645" d="M490 297l6 95h-5l-36-77-121-196h-28L180 315l-33 77h-4l8-94V0H77v500h79l140-224 29-58h2l30 60 131 222h80V0h-78z"/><glyph unicode="н" horiz-adv-x="540" d="M383 221H157V0H77v500h80V291h226v209h80V0h-80z"/><glyph unicode="о" horiz-adv-x="536" d="M49 250q0 127 56.5 194.5T268 512q56 0 97.5-18.5t68.5-53q27-34.5 40-83T487 250q0-127-56.5-194.5T268-12q-56 0-97.5 18.5t-68.5 53q-27 34.5-40 83T49 250zm83 0q0-38 7.5-73t23.5-61q16-26 42-42t63-16q136-1 136 192 0 39-7.5 74T373 385q-16 26-42 41.5T268 442q-136 1-136-192z"/><glyph unicode="п" horiz-adv-x="535" d="M378 430H157V0H77v500h381V0h-80z"/><glyph unicode="р" horiz-adv-x="541" d="M77 500h55l15-60h4q23 35 59.5 53.5T294 512q100 0 149-59t49-193q0-63-16.5-113.5T429 61q-30-35-72.5-54T262-12q-37 0-58.5 4.5T157 8v-208H77zm202-58q-51 0-80.5-26.5T157 335V87q18-14 41-21.5t61-7.5q69 0 109.5 51.5T409 261q0 41-7 74.5t-22.5 57Q364 416 339.5 429T279 442z"/><glyph unicode="с" horiz-adv-x="451" d="M418 33Q388 11 347-.5T261-12q-58 0-98 18.5t-65.5 53q-25.5 34.5-37 83T49 250q0 127 56 194.5T266 512q48 0 81.5-7.5T408 483l-23-69q-23 13-51 20.5t-60 7.5q-142 0-142-192 0-38 7.5-72.5t25-61Q182 90 210.5 74T281 58q36 0 64.5 11T392 94z"/><glyph unicode="т" horiz-adv-x="398" d="M396 430H239V0h-80v430H2v70h394z"/><glyph unicode="у" horiz-adv-x="466" d="M224 176l28-96h5l22 97 97 323h81L309 51q-17-49-33.5-95T239-126q-20-36-45-57.5T136-205q-36 0-59 10l14 69q13-5 25-5 28 0 54 29.5T213 0L12 500h92z"/><glyph unicode="ф" horiz-adv-x="680" d="M302-4q-17-6-35.5-7T233-12q-91 0-140 64T44 250q0 128 54 193t156 65q28 0 48-4v196h76V503q18 3 32 4t27 1q99 0 149-57.5T636 260q0-63-13.5-113.5T583 61q-26-35-63.5-54T433-12q-9 0-26.5 1.5T378-5v-195h-76zm120 446q-12 0-21.5-.5T377 437V57q10-2 22.5-2.5T427 54q64 0 96.5 53T556 260q0 85-29.5 133.5T422 442zM253 54q12 0 24 1t26 4v379q-12 2-22.5 3t-25.5 1q-62 0-96.5-46.5T124 250q0-42 7.5-78t23.5-62.5q16-26.5 40.5-41T253 54z"/><glyph unicode="х" horiz-adv-x="515" d="M208 256L40 500h98l95-138 28-57 29 57 97 138h90L308 260 487 0h-95L286 152l-30 60-31-60L117 0H28z"/><glyph unicode="ц" horiz-adv-x="548" d="M526-127h-54L457 0H77v500h80V70h217v430h80V70h72z"/><glyph unicode="ч" horiz-adv-x="490" d="M129 500V364q0-27 3-48.5t12-37q9-15.5 26-24t45-8.5q45 0 74 10t44 22v222h80V0h-80v210q-16-10-47.5-22T199 176q-37 0-65 8t-47 28q-19 20-28.5 53T49 348v152z"/><glyph unicode="ш" horiz-adv-x="736" d="M77 0v500h80V70h171v430h80V70h171v430h80V0z"/><glyph unicode="щ" horiz-adv-x="753" d="M731-127h-54L662 0H77v500h80V70h171v430h80V70h171v430h80V70h72z"/><glyph unicode="ъ" horiz-adv-x="497" d="M191 70q39-6 70-6 63 0 93 24.5t30 69.5q0 40-29 66t-91 26q-17 0-36-1t-37-6zm0 239q24 4 45.5 5.5T278 316q52 0 88-11.5t58.5-31.5q22.5-20 32.5-47.5t10-58.5q0-91-54.5-132T243-6q-33 0-65 1.5T111 0v430H1v70h190z"/><glyph unicode="ы" horiz-adv-x="660" d="M157 70q37-6 71-6 63 0 88 24.5t25 69.5q0 40-24.5 66T231 250q-17 0-37-1t-37-6zm0 239q24 4 46 5.5t42 1.5q51 0 85.5-11.5T386 273q21-20 29.5-47.5T424 167q0-91-50.5-132T210-6Q146-6 77 0v500h80zm346 191h80V0h-80z"/><glyph unicode="ь" horiz-adv-x="464" d="M157 70q37-6 71-6 63 0 93 24.5t30 69.5q0 40-29 66t-91 26q-17 0-37-1t-37-6zm0 239q24 4 46 5.5t42 1.5q52 0 88-11.5t58.5-31.5q22.5-20 32.5-47.5t10-58.5q0-91-54.5-132T210-6Q146-6 77 0v500h80z"/><glyph unicode="э" horiz-adv-x="465" d="M121 285h212q-5 71-41.5 114T188 442q-41 0-71.5-11T67 407l-28 61q31 21 71 32.5t93 11.5q111 0 162-69t51-193q0-128-59-195T193-12q-47 0-86.5 7.5T40 18l23 68q23-13 56.5-20.5T185 58q140-1 149 161H121z"/><glyph unicode="ю" horiz-adv-x="719" d="M465-12q-54 0-92.5 16.5t-63 47q-24.5 30.5-37 74T257 221H157V0H77v500h80V291h101q8 107 58.5 164T467 512q55 0 93.5-18.5t63-53q24.5-34.5 35.5-83T670 250q0-127-50.5-194.5T465-12zM336 250q0-39 6-74t21-61.5Q378 88 403.5 73T467 58q64 0 92 46.5T587 250q0 39-5.5 74T562 385.5Q548 412 525 427t-59 15q-69 0-99.5-46.5T336 250z"/><glyph unicode="я" horiz-adv-x="475" d="M326 207l-77-12L117 0H20l120 171 40 37q-52 8-88.5 42T55 342q0 45 15.5 77t44.5 53q29 21 69 30.5t90 9.5q37 0 69-5t63-11V0h-80zm0 225q-13 5-29 7.5t-28 2.5q-64 0-97.5-23T138 346q0-45 35.5-69.5T267 252h11q6 0 17 .5t31 1.5z"/><glyph unicode="ё" horiz-adv-x="508" d="M442 40q-30-24-75.5-38T270-12q-57 0-99 18.5t-69 53Q75 94 62 142T49 250q0 128 57 195t163 67q34 0 68-7.5t61-28.5q27-21 44-59.5T459 315q0-33-6-73H132q0-44 9-78t28-57.5q19-23.5 49.5-36T293 58q34 0 68 12t51 28zM270 442q-59 0-94.5-31T133 305h248q0 76-29 106.5T270 442zM119 633q0 23 13.5 37t35.5 14q22 0 35.5-14t13.5-37q0-21-13.5-35T168 584q-22 0-35.5 14T119 633zm192 0q0 23 13.5 37t35.5 14q23 0 36.5-14t13.5-37q0-21-13.5-35T360 584q-22 0-35.5 14T311 633z"/><glyph unicode="ђ" horiz-adv-x="548" d="M-2 600h80v100h80V600h160v-60H158V392h4q26 31 62.5 49.5T315 460q42 0 73-9.5t51.5-33.5q20.5-24 30-64.5T479 250V-27q0-93-32-139t-102-46q-8 0-15 .5t-15 1.5v68q28 0 44.5 8.5t25.5 26Q394-90 396.5-63T399 0v232q0 39-4.5 69T378 350.5Q366 370 345.5 380T292 390q-47 0-85-30.5T158 281V0H78v540H-2z"/><glyph unicode="ѓ" horiz-adv-x="369" d="M369 430H157V0H77v500h292zM240 720h89v-21L228 571h-47z"/><glyph unicode="є" horiz-adv-x="472" d="M438 33Q408 11 365-.5T277-12q-58 0-100.5 18.5t-71 53Q77 94 63 142.5T49 250q0 63 17 112t47.5 82q30.5 33 73.5 50.5t95 17.5q48 0 84-7.5t63-21.5l-23-69q-23 13-53.5 20.5T290 442q-69 1-110.5-38.5T130 286h236v-66H129q3-33 14.5-63t32-52Q196 83 226 70.5T298 58q35 0 65.5 11T412 94z"/><glyph unicode="ѕ" horiz-adv-x="421" d="M297 136q0 30-18 47t-44.5 28.5q-26.5 11.5-58 22t-58 27Q92 277 74 303t-18 70q0 72 41 105.5T211 512q54 0 90.5-9.5T365 480l-19-66q-23 11-55.5 19.5T221 442q-44 0-64.5-15T136 375q0-26 18-40.5t44.5-26q26.5-11.5 58-22.5t58-29q26.5-18 44.5-45.5t18-72.5q0-32-10.5-60T334 31Q312 11 279.5-.5T203-12q-57 0-97 11T39 25l24 68q23-13 60-24t75-11q43 0 71 17t28 61z"/><glyph unicode="і" horiz-adv-x="268" d="M94 500h80V0H94zM77 652q0 23 15.5 39.5T132 708q24 0 41-16.5t17-39.5q0-23-17-38t-41-15q-24 0-39.5 15T77 652z"/><glyph unicode="ї" horiz-adv-x="278" d="M29 653q0 23 12.5 36.5T77 703q22 0 35-13.5t13-36.5q0-21-13-35t-35-14q-23 0-35.5 14T29 653zm125 0q0 23 12.5 36.5T201 703q23 0 36-13.5t13-36.5q0-21-13-35t-36-14q-22 0-34.5 14T154 653zM98 500h80V0H98z"/><glyph unicode="ј" horiz-adv-x="267" d="M93 500h80V-27q0-93-32-139T39-212q-8 0-15 .5T9-210v68q28 0 44.5 8.5T79-107q9 18 11.5 45.5T93 3zM76 652q0 23 15.5 39.5T131 708q24 0 41-16.5t17-39.5q0-23-17-38t-41-15q-24 0-39.5 15T76 652z"/><glyph unicode="љ" horiz-adv-x="733" d="M426 309q24 4 46 5.5t42 1.5q52 0 88-11.5t58.5-31.5q22.5-20 32.5-47.5t10-58.5q0-91-54.5-132T479-6q-64 0-133 6v430H201q-3-42-6-90.5t-9-97q-6-48.5-16-93T144.5 71q-15.5-34-38-54.5T53-4Q34-4 20-2T-5 5L7 72q12-4 26-4 20 0 36 17t28 64.5Q109 197 117 281t11 219h298zm0-240q37-6 71-6 63 0 93 25t30 70q0 40-29 66t-91 26q-17 0-37-1t-37-6z"/><glyph unicode="њ" horiz-adv-x="770" d="M463 70q37-6 71-6 63 0 93 24.5t30 69.5q0 40-29 66t-91 26q-17 0-36.5-1.5T463 243zm0 239q24 4 46 5.5t42 1.5q52 0 88-11.5t58.5-31.5q22.5-20 32.5-47.5t10-58.5q0-91-54.5-132T516-6q-64 0-133 6v223H157V0H77v500h80V293h226v207h80z"/><glyph unicode="ћ" horiz-adv-x="548" d="M-2 600h80v100h80V600h160v-60H158V392h4q26 31 62.5 49.5T315 460q42 0 73-9.5t51.5-33.5q20.5-24 30-64.5T479 250V0h-80v232q0 39-4.5 69T378 350.5Q366 370 345.5 380T292 390q-47 0-85-30.5T158 281V0H78v540H-2z"/><glyph unicode="ќ" horiz-adv-x="478" d="M203 225h-46V0H77v500h80V274l43 14 160 212h87L292 299l-42-33 52-40L469 0h-99zm53 495h89v-21L244 571h-47z"/><glyph unicode="ў" horiz-adv-x="466" d="M224 176l28-96h5l22 97 97 323h81L309 51q-17-49-33.5-95T239-126q-20-36-45-57.5T136-205q-36 0-59 10l14 69q13-5 25-5 28 0 54 29.5T213 0L12 500h92zm-67 526q10-46 34.5-64t56.5-18q32 0 57 19t34 62l60-19q-9-58-51.5-89T246 562q-27 0-53.5 7T145 590q-21 14-36 36t-20 52z"/><glyph unicode="џ" horiz-adv-x="535" d="M77 0v500h80V70h221v430h80V0H312l-15-179h-52L225 0z"/><glyph unicode="Ѣ" horiz-adv-x="619" d="M0 620h149v101h83V620h207v-70H232V427q5 1 17 2.5t26 2.5q14 1 29 2t27 1q48 0 93.5-9.5t81-33q35.5-23.5 57.5-64T585 226q0-60-21-104t-58-73q-37-29-86.5-43T312-8q-14 0-34 .5t-42.5 2Q213-4 190.5-1T149 7v543H0zM323 64q36 0 67.5 9.5t55.5 29q24 19.5 37.5 49T497 220q0 42-15 70t-39.5 44Q418 350 386 356.5t-66 6.5q-9 0-22-1l-26-2q-13-1-24-3t-16-3V70q14-3 40-4.5t51-1.5z"/><glyph unicode="ѣ" horiz-adv-x="497" d="M1 500h109v200h80V500h160v-66H190V309q24 4 46 5.5t42 1.5q52 0 88-11.5t58.5-31.5q22.5-20 32.5-47.5t10-58.5q0-91-54.5-132T243-6q-64 0-133 6v434H1zM190 70q39-6 71-6 63 0 93 24.5t30 69.5q0 40-29 66t-91 26q-17 0-36.5-1t-37.5-6z"/><glyph unicode="Ѳ" horiz-adv-x="684" d="M56 350q0 175 74 268.5T341 712q74 0 128-26t89.5-73.5Q594 565 611 498.5T628 350q0-175-74.5-268.5T341-12q-73 0-126.5 26t-89 73.5Q90 135 73 201.5T56 350zm484 42q-8 119-62.5 182.5T341 638q-36 0-70-12.5T210 584q-27-29-44.5-76T144 392zm-396-74q8-129 62.5-192.5T341 62q37 0 72 12t62 41.5q27 29.5 44.5 78.5T540 318z"/><glyph unicode="ѳ" horiz-adv-x="536" d="M49 250q0 127 56.5 194.5T268 512q56 0 97.5-18.5t68.5-53q27-34.5 40-83T487 250q0-127-56.5-194.5T268-12q-56 0-97.5 18.5t-68.5 53q-27 34.5-40 83T49 250zm355 31q-8 85-43.5 123T268 442q-26 0-49.5-8t-42-27Q158 388 146 357t-14-76zm-272-64q5-78 43-118.5T268 58q25 0 48.5 8t42 26q18.5 18 30.5 48.5t15 76.5z"/><glyph unicode="Ѵ" horiz-adv-x="598" d="M304-11h-37L-2 700h90l178-481 24-106h2l16 108q19 66 39.5 132.5T389 492q23 78 43.5 121.5t41.5 64q21 20.5 43 25t48 4.5q35 0 55-5.5t37-16.5l-24-70q-20 11-37.5 14.5T564 633q-28 0-47-26t-39-87z"/><glyph unicode="ѵ" horiz-adv-x="507" d="M261-11h-34L10 500h92l120-293 28-95h1l25 97q14 36 22.5 57t13 33q4.5 12 6.5 17t4 9q16 43 30 76.5t30.5 57q16.5 23.5 38 36T472 507q18 0 32-2t26-7v-74q-21 4-29.5 6.5T484 433q-17 0-34-15t-37-62z"/><glyph unicode="Ҋ" horiz-adv-x="690" d="M513 474l6 80h-4l-43-82L134 0H85v700h83V220l-7-79h4l44 82 338 477h49V70h104V48l-91-178h-54L600 0h-87zM256 870q4-37 28-57t64-20q40 0 63.5 20t28.5 56l71-17q-11-54-50.5-85.5T347 735q-71 0-116.5 27.5T177 850z"/><glyph unicode="ҋ" horiz-adv-x="561" d="M389 296l3 62h-3l-41-64L123 0H77v500h80V195l-3-59h4l39 62 225 302h47V70h100V48l-91-175h-54L469 0h-80zM192 702q10-46 34.5-64t56.5-18q32 0 57 19t34 62l60-19q-9-58-51.5-89T281 562q-27 0-53.5 7T180 590q-21 14-36 36t-20 52z"/><glyph unicode="Ҍ" horiz-adv-x="619" d="M0 620h149v101h83V620h207v-70H232V427q5 1 17 2.5t26 2.5q14 1 29 2t27 1q48 0 93.5-9.5t81-33q35.5-23.5 57.5-64T585 226q0-60-21-104t-58-73q-37-29-86.5-43T312-8q-14 0-34 .5t-42.5 2Q213-4 190.5-1T149 7v543H0zM323 64q36 0 67.5 9.5t55.5 29q24 19.5 37.5 49T497 220q0 42-15 70t-39.5 44Q418 350 386 356.5t-66 6.5q-9 0-22-1l-26-2q-13-1-24-3t-16-3V70q14-3 40-4.5t51-1.5z"/><glyph unicode="ҍ" horiz-adv-x="497" d="M1 500h109v200h80V500h160v-66H190V309q24 4 46 5.5t42 1.5q52 0 88-11.5t58.5-31.5q22.5-20 32.5-47.5t10-58.5q0-91-54.5-132T243-6q-64 0-133 6v434H1zM190 70q39-6 71-6 63 0 93 24.5t30 69.5q0 40-29 66t-91 26q-17 0-36.5-1t-37.5-6z"/><glyph unicode="Ҏ" horiz-adv-x="559" d="M85 693q38 9 82 12t87 3q46 0 93.5-9t86.5-33q39-24 63.5-66T522 493q0-75-31.5-123T409 296l68-98-46-33-77 110q-48-13-104-13h-16.5q-11.5 0-24 .5T185 264q-12 1-17 2V0H85zm206-231l71-103q32 17 52 48.5t20 85.5q0 41-15.5 68.5t-41 44Q352 622 320 629t-64 7q-26 0-50-1t-38-5V340q5-2 16-2.5t23-1q12-.5 23-.5h16q17 0 33 1t33 5l-64 93z"/><glyph unicode="ҏ" horiz-adv-x="541" d="M77 500h55l15-60h4q23 35 59.5 53.5T294 512q100 0 149-59t49-193q0-75-22-131t-63-91l53-62-42-37-59 69q-43-20-97-20-37 0-58.5 4.5T157 8v-208H77zm220-337l58-69q26 26 40 67.5t14 99.5q0 41-7 74.5T379.5 393q-15.5 24-40 36.5T279 442q-51 0-80.5-26.5T157 335V86q18-14 41-21t61-7q31-1 54 9l-55 65z"/><glyph unicode="Ґ" horiz-adv-x="442" d="M460 626H168V0H85v700h303l16 134h56z"/><glyph unicode="ґ" horiz-adv-x="369" d="M157 430V0H77v500h220l16 134h56V430z"/><glyph unicode="Ғ" horiz-adv-x="482" d="M481 626H189V385h215v-66H189V0h-83v319H10v66h96v315h375z"/><glyph unicode="ғ" horiz-adv-x="385" d="M382 430H170V279h169v-60H170V0H90v219H0v60h90v221h292z"/><glyph unicode="Ҕ" horiz-adv-x="577" d="M168 0H85v700h375v-74H168V355q12 4 47.5 12.5T306 376q40 0 78.5-11t69-38q30.5-27 49-73.5T521 136q0-137-60.5-200.5T288-128q-33 0-47.5.5T218-125v74q13-2 28.5-2.5T291-54q142 0 142 183 0 51-12 84.5t-32.5 54Q368 288 340.5 296t-59.5 8q-18 0-35.5-2.5t-33-6q-15.5-3.5-27-7.5t-17.5-6z"/><glyph unicode="ҕ" horiz-adv-x="535" d="M157 0H77v500h291v-70H157V252q11 5 41 13t84 8q40 0 76-11.5t63-38q27-26.5 43-70T480 45q0-131-52.5-192.5T263-209q-33 0-47.5.5T193-206v70q13-2 28.5-2.5t44.5-.5q70 0 102 45.5T400 35q0 89-39 128.5T260 203q-36 0-64-8t-39-13z"/><glyph unicode="Җ" horiz-adv-x="819" d="M358 700h80V374l43 14 203 312h92L574 396l-40-32 50-41L756 74h58v-203h-58L741 0h-36L484 324h-46V0h-80v336l-42-14L95 0H-1l221 313 48 38-46 35L13 700h97l203-314h45z"/><glyph unicode="җ" horiz-adv-x="693" d="M240 221L93 0H1l158 229 34 30-51 38L12 500h85l138-216h52v216h78V274l47 14 139 212h84L499 297l-39-32 51-40L613 70h75v-197h-54L619 0h-55L417 225h-52V0h-78v235z"/><glyph unicode="Ҙ" horiz-adv-x="541" d="M139 331v70h38q13 0 26.5 1t26 1.5q12.5.5 20.5 2.5 26 4 49 13.5t40 24.5q17 15 27 35t10 44q0 33-11 55t-30.5 35.5q-19.5 13.5-45 19T235 638q-54 0-92-7.5T82 612l-22 66q20 11 72 22.5T249 712q40 0 78.5-8.5t69-28q30.5-19.5 49-53T464 540q0-50-33-95.5T332 379v-4q71-10 112-53t41-115q0-52-18.5-90.5t-49-65q-30.5-26.5-71-42T262-10l-14-169h-52L177-11q-46 2-78 9T44 14l21 75q23-11 64.5-18.5T230 63q31 0 61 8.5T344.5 97q23.5 17 38 43t14.5 62q0 63-44 92.5T238 329q-12 1-22.5 1.5t-21.5.5z"/><glyph unicode="ҙ" horiz-adv-x="441" d="M125 223v65h70q18 0 35.5 6t31.5 16.5q14 10.5 22.5 25T293 366q0 39-27 55t-81 16q-39 0-71.5-12T63 402l-23 62q30 17 70.5 30t96.5 13q166 0 166-123 0-35-22.5-68.5T286 268v-4q59-11 82.5-42t23.5-82q0-54-37.5-93.5T241-5l-14-174h-52L156-8Q116-6 88.5 2.5T38 22v66q46-13 78.5-20t70.5-7q61 0 93 21t32 64q0 36-30 56.5T183 223z"/><glyph unicode="Қ" horiz-adv-x="615" d="M215 324h-47V0H85v700h83V374l45 14 235 312h96L310 399l-42-33 51-40L517 74h89v-203h-58L533 0h-63z"/><glyph unicode="қ" horiz-adv-x="506" d="M203 225h-46V0H77v500h80V274l43 14 160 212h87L292 299l-42-33 52-40L417 70h79v-197h-54L427 0h-57z"/><glyph unicode="Ҝ" horiz-adv-x="685" d="M222 324h-54V0H85v700h83V374l54 5v126h66V386l23 2 214 312h95L404 399l-41-33 50-40L650 0H546L314 324h-26V195h-66z"/><glyph unicode="ҝ" horiz-adv-x="538" d="M205 225h-48V0H77v500h80V274l48 5v123h63V285l26 3 131 212h84L383 299l-44-33 52-40L529 0h-94L297 225h-29V98h-63z"/><glyph unicode="Ҟ" horiz-adv-x="664" d="M0 636h139v64h83v-64h122v-66H222V374l49 14 232 312h95L367 399l-44-33 52-40L629 0H523L271 324h-49V0h-83v568H0z"/><glyph unicode="ҟ" horiz-adv-x="481" d="M-2 613h81v87h80v-87h159v-60H159V274l41 14 155 212h93L295 299l-41-33 50-40L471 0h-99L205 225h-46V0H79v553H-2z"/><glyph unicode="Ҡ" horiz-adv-x="685" d="M161 626H0v74h244V374l44 14 235 312h97L385 399l-41-33 50-40L651 0H545L290 324h-46V0h-83z"/><glyph unicode="ҡ" horiz-adv-x="512" d="M191 274l42 14 161 212h86L325 299l-41-33 52-40L503 0h-99L237 225h-46V0h-80v430H1v70h190z"/><glyph unicode="Ң" horiz-adv-x="707" d="M504 321H168V0H85v700h83V395h336v305h83V74h92v-203h-58L606 0H504z"/><glyph unicode="ң" horiz-adv-x="546" d="M383 221H157V0H77v500h80V291h226v209h80V70h73v-197h-54L467 0h-84z"/><glyph unicode="Ҥ" horiz-adv-x="861" d="M879 626H587V0h-83v321H168V0H85v700h83V395h336v305h375z"/><glyph unicode="ҥ" horiz-adv-x="675" d="M675 430H463V0h-80v221H157V0H77v500h80V291h226v209h292z"/><glyph unicode="Ҧ" horiz-adv-x="983" d="M574 0h-83v626H168V0H85v700h489V355q11 4 47 12.5t91 8.5q40 0 79-11t69.5-38q30.5-27 49-73.5T928 136q0-137-61-200.5T694-128q-33 0-47.5.5T624-125v74q13-2 28.5-2.5T697-54q70 0 106.5 45.5T840 129q0 51-12 84.5t-32.5 54Q775 288 747 296t-59 8q-18 0-36-2.5t-33.5-6Q603 292 591 288t-17-6z"/><glyph unicode="ҧ" horiz-adv-x="836" d="M458 0h-80v430H157V0H77v500h381V252q11 5 41 13t84 8q39 0 74.5-11.5t63-38q27.5-26.5 43.5-70T780 45q0-131-52-192.5T564-209q-33 0-47.5.5T494-206v70q13-2 28.5-2.5t44.5-.5q70 0 101.5 45.5T700 35q0 89-38.5 128.5T561 203q-36 0-64-8t-39-13z"/><glyph unicode="Ҩ" horiz-adv-x="811" d="M353 638q-47 0-85-17.5t-66-53Q174 532 159 478t-15-127q0-59 17-112t47.5-93Q239 106 281 82t93-24q11 0 24.5 1t23.5 5q-32 19-57 51t-42.5 71.5Q305 226 295.5 271t-9.5 91q0 78 18 137t49 99.5q31 40.5 73 61t91 20.5q111 0 168-74.5T742 398q0-62-12.5-115t-34-96.5Q674 143 645.5 111T585 60q5-1 10.5-1H606q38 0 67 8t48 22l25-65Q727 9 699-1.5T618-12q-32 0-64 8t-54 22Q474 3 441.5-4.5T374-12q-74 0-133 26T141 87q-41 47-63 114T56 350q0 87 20.5 154.5T135 618q38 46 93.5 70T353 712zm21-284q0-35 8.5-73.5t25-75Q424 169 449 138t59-50q27 15 53 42.5t46.5 66.5q20.5 39 33.5 88t13 107q0 45-7.5 84t-23 68q-15.5 29-41 45.5T521 606q-29 0-55.5-14.5t-46.5-45Q399 516 386.5 468T374 354z"/><glyph unicode="ҩ" horiz-adv-x="660" d="M269 442q-137-1-137-191 0-39 9.5-74t29.5-62q20-27 49.5-42T291 58q11 0 25.5 2t24.5 8q-36 22-61 72t-25 113q0 44 8.5 88t29 79.5Q313 456 348 478t88 22q46 0 78.5-17t53-46q20.5-29 30-68t9.5-84q0-40-10-76t-26.5-65.5q-16.5-29.5-38-51T489 61q15-7 38-7 20 0 41 7.5T606 87l25-60q-18-17-48.5-28T516-12q-28 0-56.5 9T413 24Q383 3 347-4.5T279-12q-55 0-98 18.5t-72 53q-29 34.5-44.5 83T49 250q0 125 55.5 193T269 512zm69-186q0-57 22.5-104.5T421 78q21 10 39.5 29.5T493 154q14 27 22.5 60t8.5 71q0 27-5.5 53T502 384.5q-11 20.5-27.5 33T435 430q-30 0-49-15t-29.5-39.5Q346 351 342 319.5t-4-63.5z"/><glyph unicode="Ҫ" horiz-adv-x="571" d="M533 29Q507 9 470 0t-80-11l-14-168h-52L305-7q-53 8-98.5 33t-79 69Q94 139 75 202.5T56 350q0 98 26.5 166.5t70 112Q196 672 250 692t110 20q60 0 98-6.5t65-17.5l-20-73q-48 23-137 23-41 0-81-15t-71.5-49Q182 540 163 485t-19-135q0-72 18-126t49.5-90q31.5-36 74-53.5T378 63q45 0 78.5 8.5T513 94z"/><glyph unicode="ҫ" horiz-adv-x="451" d="M418 33Q374 1 309-8l-14-171h-52L224-10q-48 6-81 27T89 71.5q-21 33.5-30.5 79T49 250q0 127 56 194.5T266 512q48 0 81.5-7.5T408 483l-23-69q-23 13-51 20.5t-60 7.5q-142 0-142-192 0-38 7.5-72.5t25-61Q182 90 210.5 74T281 58q36 0 64.5 11T392 94z"/><glyph unicode="Ҭ" horiz-adv-x="555" d="M236 626H18v74h519v-74H319V74h92v-203h-58L338 0H236z"/><glyph unicode="ҭ" horiz-adv-x="398" d="M159 430H2v70h394v-70H239V70h74v-197h-54L244 0h-85z"/><glyph unicode="Ү" horiz-adv-x="558" d="M239 278L8 700h97l164-306 17-61h1l18 63 157 304h89L322 279V0h-83z"/><glyph unicode="ү" horiz-adv-x="484" d="M10 500h92l122-324 28-106h1l25 108 110 322h86L287 0v-200h-80V0z"/><glyph unicode="Ұ" horiz-adv-x="558" d="M89 285h146L8 700h97l164-306 17-61h1l18 63 157 304h89L326 285h146v-62H322V0h-83v223H89z"/><glyph unicode="ұ" horiz-adv-x="484" d="M84 0h123L10 500h92l122-324 28-106h1l25 108 110 322h86L287 0h117v-60H287v-140h-80v140H84z"/><glyph unicode="Ҳ" horiz-adv-x="648" d="M259 356L46 700h100l142-237 25-57 24 57 150 237h92L359 363 542 74h97v-203h-58L566 0h-74L334 251l-27 60-26-60L119 0H26z"/><glyph unicode="ҳ" horiz-adv-x="525" d="M208 256L40 500h98l95-138 28-57 29 57 97 138h90L308 260 439 70h76v-197h-54L446 0h-54L286 152l-30 60-31-60L117 0H28z"/><glyph unicode="Ҵ" horiz-adv-x="838" d="M809-129h-57L737 0H236v626H18v74h483v-74H319V74h315v626h83V74h92z"/><glyph unicode="ҵ" horiz-adv-x="631" d="M608-127h-54L539 0H159v430H2v70h387v-70H239V70h217v430h80V70h72z"/><glyph unicode="Ҷ" horiz-adv-x="639" d="M437 302q-27-15-71-30t-101-15q-42 0-77 9.5t-60 32Q103 321 89 359t-14 94v247h83V468q0-137 124-137 47 0 88 12.5t67 33.5v323h83V74h92v-203h-58L539 0H437z"/><glyph unicode="ҷ" horiz-adv-x="509" d="M333 210q-16-10-47.5-22T199 176q-37 0-65 8t-47 28q-19 20-28.5 53T49 348v152h80V364q0-27 3-48.5t12-37.5q9-16 26-24t45-8q45 0 74 10t44 22v222h80V70h74v-197h-54L418 0h-85z"/><glyph unicode="Ҹ" horiz-adv-x="613" d="M271 257q-45 0-81.5 9.5t-62 32Q102 321 88.5 359T75 453v247h83V468q0-131 113-137v124h66V335q32 5 60 16t48 26v323h83V0h-83v302q-19-11-46.5-21T337 264V145h-66z"/><glyph unicode="ҹ" horiz-adv-x="497" d="M205 176q-39 0-68.5 8t-49 28q-19.5 20-29 53T49 348v152h80V364q0-25 2.5-46t10.5-36.5q8-15.5 23-24.5t40-11v127h63V250q26 5 44 12.5t28 15.5v222h80V0h-80v210q-10-7-28-15t-44-13V68h-63z"/><glyph unicode="Һ" horiz-adv-x="605" d="M448 0v232q0 137-124 137-48 0-89-12.5T168 323V0H85v700h83V398q27 15 71.5 30T340 443q42 0 77.5-9.5t60.5-32q25-22.5 39-60.5t14-94V0z"/><glyph unicode="һ" horiz-adv-x="547" d="M398 0v285q0 39-4.5 68.5t-16.5 49Q365 422 344.5 432T291 442q-47 0-85-30.5T157 333V0H77v700h80V444h4q26 31 62.5 49.5T314 512q42 0 73-9.5t51.5-33.5q20.5-24 30-64.5T478 302V0z"/><glyph unicode="Ҽ" horiz-adv-x="774" d="M274 318q8-131 65-193.5T505 62q45 0 83.5 13.5T652 104l22-67q-32-20-77.5-34.5T489-12q-66 0-119.5 19T277 66.5Q238 107 215.5 169T190 318h-37q-84 0-118 34.5T1 441q0 29 7.5 46.5T29 518h78q-16-13-22-33t-6-35q0-12 3-23.5T94 406q9-9 26-14.5t45-5.5h12q6 0 13 1 7 156 77 240.5T465 712q125 0 189-75t64-212q0-50-9-107zm357 70q2 14 3 27t1 26q0 40-10 76t-30.5 64Q574 609 542 625.5T466 642q-93 0-140.5-67T273 388z"/><glyph unicode="ҽ" horiz-adv-x="617" d="M551 40q-30-24-75.5-38T379-12q-56 0-97.5 18T213 57q-27 33-40.5 79.5T158 241h-12q-36 0-62 9.5T41 276q-17 16-25 38t-8 47q0 30 10 51t31 42h78q-20-14-33.5-35T80 366q0-11 3.5-21.5t11.5-19q8-8.5 21.5-14T150 306q7 0 11 1 12 100 67.5 152.5T378 512q34 0 68-7.5t61-28.5q27-21 44-59.5T568 315q0-33-6-73H241q0-44 9-78t28-58q19-24 49.5-36T402 58q34 0 68 12t51 28zM379 442q-59 0-94.5-31T242 305h248q0 76-29 106.5T379 442z"/><glyph unicode="Ҿ" horiz-adv-x="774" d="M274 318q8-131 65-193.5T505 63q45 0 83.5 13t63.5 28l22-67q-29-18-69-32t-94-16l-14-168h-52L426-7Q321 9 258.5 87.5T190 318h-37q-84 0-118 34.5T1 441q0 29 7.5 46.5T29 518h78q-16-13-22-33t-6-35q0-12 3-23.5T94 406q9-9 26-14.5t45-5.5h12q6 0 13 1 7 156 77 240.5T465 712q125 0 189-75t64-212q0-50-9-107zm357 70q2 14 3 27t1 26q0 40-10 76t-30.5 64Q574 609 542 625.5T466 642q-93 0-140.5-67T273 388z"/><glyph unicode="ҿ" horiz-adv-x="617" d="M551 40q-25-20-59-32T418-9l-14-170h-52L333-8Q244 6 202 71.5T158 241h-12q-36 0-62 9.5T41 276q-17 16-25 38t-8 47q0 32 10 52t31 41h78q-20-14-33.5-35T80 366q0-11 3.5-21.5t11.5-19q8-8.5 21.5-14T150 306q7 0 11 1 12 100 67.5 152.5T378 512q34 0 68-7.5t61-28.5q27-21 44-59.5T568 315q0-33-6-73H241q0-44 9-78t28-58q19-24 49.5-36.5T402 57q34 0 68 12t51 28zM379 442q-59 0-94.5-31T242 305h248q0 76-29 106.5T379 442z"/><glyph unicode="Ӏ" horiz-adv-x="291" d="M104 700h83V0h-83z"/><glyph unicode="Ӄ" horiz-adv-x="600" d="M441 71q0 68-13.5 116T386 265.5Q358 296 315.5 310T215 324h-47V0H85v700h83V374l45 14 235 312h96L320 414l-57-38h63q53-12 90.5-34t61.5-57.5q24-35.5 35-87T524 74V56q0-72-13.5-123t-39-83Q446-182 410-196.5T329-211h-13.5q-6.5 0-14.5 1v73q40 0 66.5 11t43 35.5Q427-66 434-26.5t7 97.5z"/><glyph unicode="ӄ" horiz-adv-x="481" d="M361 16q0 105-42 152.5T203 216h-46V0H77v500h80V265l43 14 160 221h87L291 290l-36-26 44-6q45-10 72.5-34t43-56.5q15.5-32.5 21-72T441 16q0-61-13.5-104.5t-37-71.5q-23.5-28-56-41T264-214h-16.5q-8.5 0-17.5 2v69q5-1 9-1h9q54 0 83.5 41T361 16z"/><glyph unicode="Ӆ" horiz-adv-x="622" d="M456 626H247q-10-200-26.5-332.5T171 87q-22-48-52-70T54-5Q36-5 23-2.5T-2 5L9 77q10-3 21-3 17 0 33.5 11T96 126q14 27 26.5 72t22 114q9.5 69 15.5 164.5t9 223.5h370V70h93V48l-91-178h-54L532 0h-76z"/><glyph unicode="ӆ" horiz-adv-x="516" d="M346 430H201q-3-42-6-90.5t-9-97q-6-48.5-16-93T144.5 71q-15.5-34-38-54.5T53-4Q17-4-5 5L7 72q12-4 26-4 20 0 36 17t28 64.5Q109 197 117 281t11 219h298V70h100V48l-91-175h-54L426 0h-80z"/><glyph unicode="Ӈ" horiz-adv-x="672" d="M587-27q0-93-31.5-139T454-212h-15.5q-7.5 0-15.5 2v70q28 0 44.5 8.5t24.5 25Q500-90 502-63t2 63v321H168V0H85v700h83V395h336v305h83z"/><glyph unicode="ӈ" horiz-adv-x="540" d="M383 221H157V0H77v500h80V291h226v209h80V-27q0-93-32-139t-102-46q-8 0-15 .5t-15 1.5v68q28 0 44.5 8.5t25.5 26Q378-90 380.5-63T383 0z"/><glyph unicode="Ӊ" horiz-adv-x="681" d="M504 321H168V0H85v700h83V395h336v305h83V70h104V48l-91-178h-54L591 0h-87z"/><glyph unicode="ӊ" horiz-adv-x="556" d="M383 221H157V0H77v500h80V291h226v209h80V70h100V48l-91-178-54 3L463 0h-80z"/><glyph unicode="Ӌ" horiz-adv-x="605" d="M158 700V468q0-137 124-137 47 0 88 12.5t67 33.5v323h83V0H418l-15-129h-58V74h92v228q-27-15-71-30t-101-15q-42 0-77 9.5t-60 32Q103 321 89 359t-14 94v247z"/><glyph unicode="ӌ" horiz-adv-x="490" d="M333 212q-16-10-47.5-21.5T199 179q-37 0-65 8.5t-47 28Q68 235 58.5 268T49 350v150h80V366q0-26 3-47.5t12-37.5q9-16 26-24t45-8q45 0 74 10t44 22v219h80V0h-88l-15-127h-54V67h77z"/><glyph unicode="Ӎ" horiz-adv-x="801" d="M623 470l10 105h-5l-38-96-182-316h-25L190 480l-36 95h-5l14-104V0H85v700h62l219-358 33-78h2l31 80 209 356h65V70h104V48l-91-178h-54L710 0h-87z"/><glyph unicode="ӎ" horiz-adv-x="661" d="M490 297l6 95h-5l-36-77-121-196h-28L180 315l-33 77h-4l8-94V0H77v500h79l140-224 29-58h2l30 60 131 222h80V70h100V48l-91-175h-54L568 0h-78z"/><glyph unicode="ӏ" horiz-adv-x="254" d="M87 700h80V0H87z"/><glyph unicode="Ӑ" horiz-adv-x="585" d="M418 194H160L90 0H8l265 711h38L577 0h-87zm-231 72h206l-78 213-25 106h-1l-25-108zm14 604q4-37 28-57t64-20q40 0 63.5 20t28.5 56l71-17q-11-54-50.5-85.5T292 735q-71 0-116.5 27.5T122 850z"/><glyph unicode="ӑ" horiz-adv-x="496" d="M69 463q38 23 88.5 34T263 508q52 0 83.5-14t48-36.5q16.5-22.5 22-49.5t5.5-54q0-60-3-117t-3-108q0-37 3-70t11-61h-59l-21 70h-5q-9-14-22.5-27.5t-32.5-24Q271 6 246-1t-57-7q-32 0-59.5 10T82 30.5Q62 49 50.5 75T39 134q0 44 18 73.5t50.5 47q32.5 17.5 78 25T286 287h27.5q13.5 0 27.5-2 3 30 3 54 0 55-22 77t-80 22q-17 0-36.5-2.5t-40-7q-20.5-4.5-39-11T94 403zM211 62q28 0 50 7.5t38 19q16 11.5 26.5 25.5t15.5 27v83q-14 1-28.5 1.5t-28.5.5q-31 0-60.5-3.5t-52-13q-22.5-9.5-36-26T122 142q0-35 25-57.5T211 62zm-55 640q10-46 34.5-64t56.5-18q32 0 57 19t34 62l60-19q-9-58-51.5-89T245 562q-27 0-53.5 7T144 590q-21 14-36 36t-20 52z"/><glyph unicode="Ӓ" horiz-adv-x="585" d="M418 194H160L90 0H8l265 711h38L577 0h-87zm-231 72h206l-78 213-25 106h-1l-25-108zm-45 528q0 21 15 34t39 13q23 0 37.5-13t14.5-34q0-20-14.5-33T196 748q-24 0-39 13t-15 33zm192 0q0 21 14.5 34t37.5 13q24 0 39-13t15-34q0-20-15-33t-39-13q-23 0-37.5 13T334 794z"/><glyph unicode="ӓ" horiz-adv-x="496" d="M69 463q38 23 88.5 34T263 508q52 0 83.5-14t48-36.5q16.5-22.5 22-49.5t5.5-54q0-60-3-117t-3-108q0-37 3-70t11-61h-59l-21 70h-5q-9-14-22.5-27.5t-32.5-24Q271 6 246-1t-57-7q-32 0-59.5 10T82 30.5Q62 49 50.5 75T39 134q0 44 18 73.5t50.5 47q32.5 17.5 78 25T286 287h27.5q13.5 0 27.5-2 3 30 3 54 0 55-22 77t-80 22q-17 0-36.5-2.5t-40-7q-20.5-4.5-39-11T94 403zM211 62q28 0 50 7.5t38 19q16 11.5 26.5 25.5t15.5 27v83q-14 1-28.5 1.5t-28.5.5q-31 0-60.5-3.5t-52-13q-22.5-9.5-36-26T122 142q0-35 25-57.5T211 62zM98 633q0 23 13.5 37t35.5 14q22 0 35.5-14t13.5-37q0-21-13.5-35T147 584q-22 0-35.5 14T98 633zm192 0q0 23 13.5 37t35.5 14q23 0 36.5-14t13.5-37q0-21-13.5-35T339 584q-22 0-35.5 14T290 633z"/><glyph unicode="Ӕ" horiz-adv-x="846" d="M391 600l-34-103-133-229h171v332zm4-402H181L69 0h-91l415 700h383v-74H478V397h273v-74H478V74h303V0H395z"/><glyph unicode="ӕ" horiz-adv-x="796" d="M211 62q28 0 50 7.5t38 19q16 11.5 26.5 25.5t15.5 27v83q-14 1-28.5 1.5t-28.5.5q-31 0-60.5-3.5t-52-13q-22.5-9.5-36-26T122 142q0-35 25-57.5T211 62zm156 22q-13-18-30-34.5t-38.5-29Q277 8 249.5 0T189-8q-32 0-59.5 10T82 30.5Q62 49 50.5 75T39 134q0 44 18 73.5t50.5 47q32.5 17.5 78 25T286 287h27.5q13.5 0 27.5-2 1 15 2 28.5t1 25.5q0 55-22 77.5T242 438q-17 0-36.5-2.5t-40-7q-20.5-4.5-39-11T94 403l-25 60q38 23 88.5 34T263 508q105 0 136-65 26 36 70 52.5t88 16.5q34 0 68-7.5t61-29q27-21.5 44-60.5t17-102q0-16-1.5-33.5T742 242H419q0-87 36.5-135.5T580 58q35 0 68.5 12.5T700 98l30-58q-30-24-75.5-38T558-12q-61 0-110.5 25T374 84zm191 358q-59 0-95-31t-42-106h248v12q0 68-30.5 96.5T558 442z"/><glyph unicode="Ӗ" horiz-adv-x="536" d="M85 700h381v-74H168V397h273v-74H168V74h303V0H85zm100 170q4-37 28-57t64-20q40 0 63.5 20t28.5 56l71-17q-11-54-50.5-85.5T276 735q-71 0-116.5 27.5T106 850z"/><glyph unicode="ӗ" horiz-adv-x="508" d="M442 40q-30-24-75.5-38T270-12q-57 0-99 18.5t-69 53Q75 94 62 142T49 250q0 128 57 195t163 67q34 0 68-7.5t61-28.5q27-21 44-59.5T459 315q0-33-6-73H132q0-44 9-78t28-57.5q19-23.5 49.5-36T293 58q34 0 68 12t51 28zM270 442q-59 0-94.5-31T133 305h248q0 76-29 106.5T270 442zm-94 260q10-46 34.5-64t56.5-18q32 0 57 19t34 62l60-19q-9-58-51.5-89T265 562q-27 0-53.5 7T164 590q-21 14-36 36t-20 52z"/><glyph unicode="Ә" horiz-adv-x="639" d="M145 322q-2-14-3-26.5t-1-26.5q0-41 9.5-79t29.5-67q20-29 51.5-47T307 58q93 0 142.5 66.5T500 322zm355 70q-9 128-60.5 187T285 638q-23 0-46-4t-43.5-10q-20.5-6-37.5-13t-28-14l-21 67q30 18 80 33t112 15q67 0 119.5-20.5t88.5-64Q545 584 564 515t19-165q0-173-69-267.5T306-12q-62 0-109.5 20.5t-79.5 58Q85 104 69 158T53 279q0 26 2.5 54.5T63 392z"/><glyph unicode="ә" horiz-adv-x="507" d="M65 460q30 24 75.5 38t96.5 14q57 0 99-18.5t69-53q27-34.5 40-83T458 250q0-127-56-194.5T246-12q-33 0-68 10t-63.5 35q-28.5 25-47 67.5T49 208q0 16 1.5 32.5T54 276h326q-5 85-41.5 125.5T214 442q-34 0-67.5-12T95 402zM248 58q55 0 92.5 39T378 213H127v-15q0-70 34.5-105T248 58z"/><glyph unicode="Ӛ" horiz-adv-x="639" d="M145 322q-2-14-3-26.5t-1-26.5q0-41 9.5-79t29.5-67q20-29 51.5-47T307 58q93 0 142.5 66.5T500 322zm355 70q-9 128-60.5 187T285 638q-23 0-46-4t-43.5-10q-20.5-6-37.5-13t-28-14l-21 67q30 18 80 33t112 15q67 0 119.5-20.5t88.5-64Q545 584 564 515t19-165q0-173-69-267.5T306-12q-62 0-109.5 20.5t-79.5 58Q85 104 69 158T53 279q0 26 2.5 54.5T63 392zM161 794q0 21 15 34t39 13q23 0 37.5-13t14.5-34q0-20-14.5-33T215 748q-24 0-39 13t-15 33zm192 0q0 21 14.5 34t37.5 13q24 0 39-13t15-34q0-20-15-33t-39-13q-23 0-37.5 13T353 794z"/><glyph unicode="ӛ" horiz-adv-x="507" d="M65 460q30 24 75.5 38t96.5 14q57 0 99-18.5t69-53q27-34.5 40-83T458 250q0-127-56-194.5T246-12q-33 0-68 10t-63.5 35q-28.5 25-47 67.5T49 208q0 16 1.5 32.5T54 276h326q-5 85-41.5 125.5T214 442q-34 0-67.5-12T95 402zM248 58q55 0 92.5 39T378 213H127v-15q0-70 34.5-105T248 58zM101 633q0 23 13.5 37t35.5 14q22 0 35.5-14t13.5-37q0-21-13.5-35T150 584q-22 0-35.5 14T101 633zm192 0q0 23 13.5 37t35.5 14q23 0 36.5-14t13.5-37q0-21-13.5-35T342 584q-22 0-35.5 14T293 633z"/><glyph unicode="Ӝ" horiz-adv-x="806" d="M358 700h80V374l43 14 203 312h92L574 396l-40-32 50-41L807 0H705L484 324h-46V0h-80v336l-42-14L95 0H-1l221 313 48 38-46 35L13 700h97l203-314h45zm-108 94q0 21 15 34t39 13q23 0 37.5-13t14.5-34q0-20-14.5-33T304 748q-24 0-39 13t-15 33zm192 0q0 21 14.5 34t37.5 13q24 0 39-13t15-34q0-20-15-33t-39-13q-23 0-37.5 13T442 794z"/><glyph unicode="ӝ" horiz-adv-x="659" d="M240 221L93 0H1l158 229 34 30-51 38L12 500h85l138-216h52v216h78V274l47 14 139 212h84L499 297l-39-32 51-40L659 0h-95L417 225h-52V0h-78v235zm-57 412q0 23 13.5 37t35.5 14q22 0 35.5-14t13.5-37q0-21-13.5-35T232 584q-22 0-35.5 14T183 633zm192 0q0 23 13.5 37t35.5 14q23 0 36.5-14t13.5-37q0-21-13.5-35T424 584q-22 0-35.5 14T375 633z"/><glyph unicode="Ӟ" horiz-adv-x="541" d="M139 331v70h38q13 0 26.5 1t26 1.5q12.5.5 20.5 2.5 26 4 49 13.5t40 24.5q17 15 27 35t10 44q0 33-11 55t-30.5 35.5q-19.5 13.5-45 19T235 638q-54 0-92-7.5T82 612l-22 66q20 11 72 22.5T249 712q40 0 78.5-8.5t69-28q30.5-19.5 49-53T464 540q0-50-33-95.5T332 379v-4q71-10 112-53t41-115q0-57-22.5-98.5t-59-68.5Q367 13 319.5.5T223-12q-66 0-108.5 7.5T44 14l21 75q23-11 64.5-19T230 62q31 0 61 8.5t53.5 26q23.5 17.5 38 43.5t14.5 62q0 63-44 92.5T238 329q-12 1-22.5 1.5t-21.5.5zM93 794q0 21 15 34t39 13q23 0 37.5-13t14.5-34q0-20-14.5-33T147 748q-24 0-39 13t-15 33zm192 0q0 21 14.5 34t37.5 13q24 0 39-13t15-34q0-20-15-33t-39-13q-23 0-37.5 13T285 794z"/><glyph unicode="ӟ" horiz-adv-x="441" d="M125 223v65h70q18 0 35.5 6t31.5 16.5q14 10.5 22.5 25T293 366q0 39-27 55t-81 16q-39 0-71.5-12T63 402l-23 62q30 17 70.5 30t96.5 13q166 0 166-123 0-35-22.5-68.5T286 268v-4q59-11 82.5-42t23.5-82q0-32-13-59t-39-47q-26-20-65.5-31.5T183-9q-51 0-84.5 9T38 22l23 66q23-13 55.5-20t70.5-7q61 0 93 21t32 64q0 36-30 56.5T183 223zM58 633q0 23 13.5 37t35.5 14q22 0 35.5-14t13.5-37q0-21-13.5-35T107 584q-22 0-35.5 14T58 633zm192 0q0 23 13.5 37t35.5 14q23 0 36.5-14t13.5-37q0-21-13.5-35T299 584q-22 0-35.5 14T250 633z"/><glyph unicode="Ӡ" horiz-adv-x="563" d="M230 62q39 0 73.5 10t60 28.5q25.5 18.5 40 45T418 205q0 70-53.5 103T217 341h-88v27l186 224 44 43-62-9H57v74h415v-30L272 431l-35-29v-4l34 9q50 0 92-13.5t72-38.5q30-25 46.5-61t16.5-81q0-54-20.5-95.5T421 47q-36-29-85-44T229-12q-22 0-47 2.5T133-2Q109 3 88.5 9T55 23l21 73q11-6 29-12.5t39.5-11Q166 68 188 65t42-3z"/><glyph unicode="ӡ" horiz-adv-x="475" d="M188-142q34 0 63.5 10.5t51 29Q324-84 336-57t12 60q0 70-43 104t-117 34h-73v26l144 224 45 43-64-8H42v74h359v-29L242 233l-34-29v-4l32 8q40 0 74-13.5t59-39Q398 130 412 94t14-80q0-54-18.5-96T356-153q-33-29-77-44t-95-15q-45 0-80.5 7T39-185l23 71q24-12 55-20t71-8z"/><glyph unicode="Ӣ" horiz-adv-x="681" d="M513 474l6 80h-4l-43-82L134 0H85v700h83V220l-7-79h4l44 82 338 477h49V0h-83zM189 843h316v-62H189z"/><glyph unicode="ӣ" horiz-adv-x="546" d="M389 296l3 62h-3l-41-64L123 0H77v500h80V195l-3-59h4l39 62 225 302h47V0h-80zM130 643h296v-62H130z"/><glyph unicode="Ӥ" horiz-adv-x="681" d="M513 474l6 80h-4l-43-82L134 0H85v700h83V220l-7-79h4l44 82 338 477h49V0h-83zM190 794q0 21 15 34t39 13q23 0 37.5-13t14.5-34q0-20-14.5-33T244 748q-24 0-39 13t-15 33zm192 0q0 21 14.5 34t37.5 13q24 0 39-13t15-34q0-20-15-33t-39-13q-23 0-37.5 13T382 794z"/><glyph unicode="ӥ" horiz-adv-x="546" d="M389 296l3 62h-3l-41-64L123 0H77v500h80V195l-3-59h4l39 62 225 302h47V0h-80zM136 633q0 23 13.5 37t35.5 14q22 0 35.5-14t13.5-37q0-21-13.5-35T185 584q-22 0-35.5 14T136 633zm192 0q0 23 13.5 37t35.5 14q23 0 36.5-14t13.5-37q0-21-13.5-35T377 584q-22 0-35.5 14T328 633z"/><glyph unicode="Ӧ" horiz-adv-x="684" d="M56 350q0 175 74 268.5T341 712q74 0 128-26t89.5-73.5Q594 565 611 498.5T628 350q0-175-74.5-268.5T341-12q-73 0-126.5 26t-89 73.5Q90 135 73 201.5T56 350zm88 0q0-58 11.5-110t35.5-91.5q24-39.5 61.5-63T341 62q93 0 146 70.5T540 350q0 57-11.5 109.5t-36 92q-24.5 39.5-62 63T341 638q-92 0-144.5-70.5T144 350zm49 444q0 21 15 34t39 13q23 0 37.5-13t14.5-34q0-20-14.5-33T247 748q-24 0-39 13t-15 33zm192 0q0 21 14.5 34t37.5 13q24 0 39-13t15-34q0-20-15-33t-39-13q-23 0-37.5 13T385 794z"/><glyph unicode="ӧ" horiz-adv-x="536" d="M49 250q0 127 56.5 194.5T268 512q56 0 97.5-18.5t68.5-53q27-34.5 40-83T487 250q0-127-56.5-194.5T268-12q-56 0-97.5 18.5t-68.5 53q-27 34.5-40 83T49 250zm83 0q0-38 7.5-73t23.5-61q16-26 42-42t63-16q136-1 136 192 0 39-7.5 74T373 385q-16 26-42 41.5T268 442q-136 1-136-192zm-12 383q0 23 13.5 37t35.5 14q22 0 35.5-14t13.5-37q0-21-13.5-35T169 584q-22 0-35.5 14T120 633zm192 0q0 23 13.5 37t35.5 14q23 0 36.5-14t13.5-37q0-21-13.5-35T361 584q-22 0-35.5 14T312 633z"/><glyph unicode="Ө" horiz-adv-x="684" d="M56 350q0 175 74 268.5T341 712q74 0 128-26t89.5-73.5Q594 565 611 498.5T628 350q0-175-74.5-268.5T341-12q-73 0-126.5 26t-89 73.5Q90 135 73 201.5T56 350zm484 42q-8 119-62.5 182.5T341 638q-36 0-70-12.5T210 584q-27-29-44.5-76T144 392zm-396-74q8-129 62.5-192.5T341 62q37 0 72 12t62 41.5q27 29.5 44.5 78.5T540 318z"/><glyph unicode="ө" horiz-adv-x="536" d="M49 250q0 127 56.5 194.5T268 512q56 0 97.5-18.5t68.5-53q27-34.5 40-83T487 250q0-127-56.5-194.5T268-12q-56 0-97.5 18.5t-68.5 53q-27 34.5-40 83T49 250zm355 31q-8 85-43.5 123T268 442q-26 0-49.5-8t-42-27Q158 388 146 357t-14-76zm-272-64q5-78 43-118.5T268 58q25 0 48.5 8t42 26q18.5 18 30.5 48.5t15 76.5z"/><glyph unicode="Ӫ" horiz-adv-x="684" d="M56 350q0 175 74 268.5T341 712q74 0 128-26t89.5-73.5Q594 565 611 498.5T628 350q0-175-74.5-268.5T341-12q-73 0-126.5 26t-89 73.5Q90 135 73 201.5T56 350zm484 42q-8 119-62.5 182.5T341 638q-36 0-70-12.5T210 584q-27-29-44.5-76T144 392zm-396-74q8-129 62.5-192.5T341 62q37 0 72 12t62 41.5q27 29.5 44.5 78.5T540 318zm49 476q0 21 15 34t39 13q23 0 37.5-13t14.5-34q0-20-14.5-33T247 748q-24 0-39 13t-15 33zm192 0q0 21 14.5 34t37.5 13q24 0 39-13t15-34q0-20-15-33t-39-13q-23 0-37.5 13T385 794z"/><glyph unicode="ӫ" horiz-adv-x="536" d="M49 250q0 127 56.5 194.5T268 512q56 0 97.5-18.5t68.5-53q27-34.5 40-83T487 250q0-127-56.5-194.5T268-12q-56 0-97.5 18.5t-68.5 53q-27 34.5-40 83T49 250zm355 31q-8 85-43.5 123T268 442q-26 0-49.5-8t-42-27Q158 388 146 357t-14-76zm-272-64q5-78 43-118.5T268 58q25 0 48.5 8t42 26q18.5 18 30.5 48.5t15 76.5zm-12 416q0 23 13.5 37t35.5 14q22 0 35.5-14t13.5-37q0-21-13.5-35T169 584q-22 0-35.5 14T120 633zm192 0q0 23 13.5 37t35.5 14q23 0 36.5-14t13.5-37q0-21-13.5-35T361 584q-22 0-35.5 14T312 633z"/><glyph unicode="Ӭ" horiz-adv-x="577" d="M150 395h288q-5 61-24 107.5t-49 77Q335 610 295.5 624T210 638q-47 0-83.5-8T67 608l-22 65q31 18 77 28.5t98 10.5q64 0 119-20t95.5-63.5Q475 585 498 516t23-166q0-98-26-167T424.5 70.5Q380 27 321.5 7.5T199-12q-50 0-88.5 7T45 13l22 73q23-11 60-17.5t77-6.5q40 0 80.5 12.5T358 118q33 31 55 81t26 122H150zM78 794q0 21 15 34t39 13q23 0 37.5-13t14.5-34q0-20-14.5-33T132 748q-24 0-39 13t-15 33zm192 0q0 21 14.5 34t37.5 13q24 0 39-13t15-34q0-20-15-33t-39-13q-23 0-37.5 13T270 794z"/><glyph unicode="ӭ" horiz-adv-x="465" d="M121 285h212q-5 71-41.5 114T188 442q-41 0-71.5-11T67 407l-28 61q31 21 71 32.5t93 11.5q111 0 162-69t51-193q0-128-59-195T193-12q-47 0-86.5 7.5T40 18l23 68q23-13 56.5-20.5T185 58q140-1 149 161H121zM56 633q0 23 13.5 37t35.5 14q22 0 35.5-14t13.5-37q0-21-13.5-35T105 584q-22 0-35.5 14T56 633zm192 0q0 23 13.5 37t35.5 14q23 0 36.5-14t13.5-37q0-21-13.5-35T297 584q-22 0-35.5 14T248 633z"/><glyph unicode="Ӯ" horiz-adv-x="553" d="M282 331l26-89h5l20 92 134 366h85L375 245q-27-71-47.5-118.5t-41.5-77q-21-29.5-45-42T182-5Q149-5 129.5.5T93 17l25 69q20-11 37-14t31-3q28 0 47 28.5t33 84.5L7 700h96zM138 843h316v-62H138z"/><glyph unicode="ӯ" horiz-adv-x="466" d="M224 176l28-96h5l22 97 97 323h81L309 51q-17-49-33.5-95T239-126q-20-36-45-57.5T136-205q-36 0-59 10l14 69q13-5 25-5 28 0 54 29.5T213 0L12 500h92zM98 643h296v-62H98z"/><glyph unicode="Ӱ" horiz-adv-x="553" d="M282 331l26-89h5l20 92 134 366h85L375 245q-27-71-47.5-118.5t-41.5-77q-21-29.5-45-42T182-5Q149-5 129.5.5T93 17l25 69q20-11 37-14t31-3q28 0 47 28.5t33 84.5L7 700h96zM145 794q0 21 15 34t39 13q23 0 37.5-13t14.5-34q0-20-14.5-33T199 748q-24 0-39 13t-15 33zm192 0q0 21 14.5 34t37.5 13q24 0 39-13t15-34q0-20-15-33t-39-13q-23 0-37.5 13T337 794z"/><glyph unicode="ӱ" horiz-adv-x="466" d="M224 176l28-96h5l22 97 97 323h81L309 51q-17-49-33.5-95T239-126q-20-36-45-57.5T136-205q-36 0-59 10l14 69q13-5 25-5 28 0 54 29.5T213 0L12 500h92zM99 633q0 23 13.5 37t35.5 14q22 0 35.5-14t13.5-37q0-21-13.5-35T148 584q-22 0-35.5 14T99 633zm192 0q0 23 13.5 37t35.5 14q23 0 36.5-14t13.5-37q0-21-13.5-35T340 584q-22 0-35.5 14T291 633z"/><glyph unicode="Ӳ" horiz-adv-x="553" d="M282 331l26-89h5l20 92 134 366h85L375 245q-27-71-47.5-118.5t-41.5-77q-21-29.5-45-42T182-5Q149-5 129.5.5T93 17l25 69q20-11 37-14t31-3q28 0 47 28.5t33 84.5L7 700h96zm-41 519h93v-16l-100-93h-57zm162 0h99v-16l-143-93h-58z"/><glyph unicode="ӳ" horiz-adv-x="466" d="M224 176l28-96h5l22 97 97 323h81L309 51q-17-49-33.5-95T239-126q-20-36-45-57.5T136-205q-36 0-59 10l14 69q13-5 25-5 28 0 54 29.5T213 0L12 500h92zm-29 524h78v-16l-71-113h-42zm146 0h86v-16L313 571h-45z"/><glyph unicode="Ӵ" horiz-adv-x="605" d="M158 700V468q0-137 124-137 47 0 88 12.5t67 33.5v323h83V0h-83v302q-27-15-71-30t-101-15q-42 0-77 9.5t-60 32Q103 321 89 359t-14 94v247zm-1 94q0 21 15 34t39 13q23 0 37.5-13t14.5-34q0-20-14.5-33T211 748q-24 0-39 13t-15 33zm192 0q0 21 14.5 34t37.5 13q24 0 39-13t15-34q0-20-15-33t-39-13q-23 0-37.5 13T349 794z"/><glyph unicode="ӵ" horiz-adv-x="490" d="M129 500V364q0-27 3-48.5t12-37q9-15.5 26-24t45-8.5q45 0 74 10t44 22v222h80V0h-80v210q-16-10-47.5-22T199 176q-37 0-65 8t-47 28q-19 20-28.5 53T49 348v152zM85 633q0 23 13.5 37t35.5 14q22 0 35.5-14t13.5-37q0-21-13.5-35T134 584q-22 0-35.5 14T85 633zm192 0q0 23 13.5 37t35.5 14q23 0 36.5-14t13.5-37q0-21-13.5-35T326 584q-22 0-35.5 14T277 633z"/><glyph unicode="Ӷ" horiz-adv-x="442" d="M460 626H168V74h92v-203h-58L187 0H85v700h375z"/><glyph unicode="ӷ" horiz-adv-x="369" d="M77 500h292v-70H157V70h74v-197h-54L162 0H77z"/><glyph unicode="Ӹ" horiz-adv-x="769" d="M601 700h83V0h-83zm-516 0h83V428q5 1 15 2.5t22 2.5q12 1 24.5 2t24.5 1q47 0 91.5-9.5T424 393q34-24 54.5-64.5T499 226q0-60-19-104.5t-53.5-73Q392 20 344 6T238-8q-14 0-32.5.5t-39 2Q146-4 125-1T85 7zM245 64q72 0 119 39t47 117q0 42-14 70t-37.5 44.5q-23.5 16.5-54 23T241 364q-18 0-40-3t-33-6V70q27-6 77-6zm-16 730q0 21 15 34t39 13q23 0 37.5-13t14.5-34q0-20-14.5-33T283 748q-24 0-39 13t-15 33zm192 0q0 21 14.5 34t37.5 13q24 0 39-13t15-34q0-20-15-33t-39-13q-23 0-37.5 13T421 794z"/><glyph unicode="ӹ" horiz-adv-x="660" d="M157 70q37-6 71-6 63 0 88 24.5t25 69.5q0 40-24.5 66T231 250q-17 0-37-1t-37-6zm0 239q24 4 46 5.5t42 1.5q51 0 85.5-11.5T386 273q21-20 29.5-47.5T424 167q0-91-50.5-132T210-6Q146-6 77 0v500h80zm346 191h80V0h-80zM180 633q0 23 13.5 37t35.5 14q22 0 35.5-14t13.5-37q0-21-13.5-35T229 584q-22 0-35.5 14T180 633zm192 0q0 23 13.5 37t35.5 14q23 0 36.5-14t13.5-37q0-21-13.5-35T421 584q-22 0-35.5 14T372 633z"/><glyph unicode="Ӽ" horiz-adv-x="618" d="M479-42q0 49-16 86t-36 68l-91 139-29 60-26-60L119 0H26l233 356L46 700h100l142-237 25-57 24 57 150 237h92L359 363l139-215q32-49 46.5-90T559-25q0-93-33-139t-104-46h-15.5q-7.5 0-15.5 2v68q28 0 45.5 8t27 21.5Q473-97 476-79t3 37z"/><glyph unicode="ӽ" horiz-adv-x="514" d="M404 126q29-42 46.5-83T468-36q0-87-37.5-131.5T321-212q-8 0-16 .5t-15 1.5v68q57 0 77.5 22T388-53q0 41-17.5 77T333 89l-47 63-32 56-29-56L117 0H28l180 256L40 500h98l95-138 28-57 29 57 97 138h90L308 260z"/><glyph unicode="Ԑ" horiz-adv-x="540" d="M356 331q-12 0-22.5-.5T312 329q-71-5-115-35t-44-92q0-72 48-106t128-34q42 0 81 9.5T470 95l26-63q-25-16-70.5-30T314-12Q258-12 212.5.5T134 39q-33 26-51 65t-18 93q0 73 39 118.5T214 372v4q-33 10-57 27.5T117.5 443Q102 465 94 490t-8 50q0 45 18 77.5t49 53.5q31 21 73 31t89 10q27 0 53.5-3.5T418 700q23-5 41-11.5t29-13.5l-24-67q-27 12-66 21t-76 9q-68 0-108-24t-40-82q0-28 12-50t32-38q20-16 45-26t51-13q17-2 40-3t41-1h16v-70z"/><glyph unicode="ԑ" horiz-adv-x="441" d="M258 223q-69 0-99-20.5T129 146q0-38 32-61.5T254 61q37 0 70 9t56 23l23-65q-25-14-59.5-25.5T258-9Q152-9 100.5 31T49 140q0 51 24.5 80t81.5 44v4q-42 14-64.5 44T68 383q0 62 45 93t121 31q57 0 97-13t70-30l-23-62q-18 11-50.5 23T256 437q-54 0-81-16t-27-55q0-16 8.5-30.5t22.5-25q14-10.5 31.5-16.5t35.5-6h70v-65z"/><glyph unicode="Ԓ" horiz-adv-x="626" d="M541-27q0-93-32-139t-102-46q-8 0-15 .5t-15 1.5v68q28 0 44.5 7.5T446-110q8 17 10 44t2 66v626H249q-10-200-26.5-332.5T172 87q-22-48-51.5-70T56-5Q21-5-2 5l13 72q10-3 21-3 17 0 34 11t33 41q14 27 26 72t21.5 114q9.5 69 15.5 164.5t9 223.5h370z"/><glyph unicode="ԓ" horiz-adv-x="503" d="M346 430H201q-3-42-6-90.5t-9-97q-6-48.5-16-93T144.5 71q-15.5-34-38-54.5T53-4Q34-4 20-2T-5 5L7 72q12-4 26-4 20 0 36 17t28 64.5Q109 197 117 281t11 219h298V-27q0-93-32-139t-102-46q-8 0-15 .5t-15 1.5v68q28 0 44.5 8.5t25.5 26Q341-90 343.5-63T346 0z"/><glyph unicode="Ԝ" horiz-adv-x="828" d="M222 231l16-116h1l17 118 144 467h40l145-469 17-116h1l18 118 118 467h81L625-11h-46L437 458l-18 106h-5l-18-107L254-11h-46L8 700h88z"/><glyph unicode="ԝ" horiz-adv-x="735" d="M401 500l115-292 25-96h2l19 98 89 290h76L559-11h-39L389 319l-19 82h-3l-20-83L221-11h-39L8 500h87l99-291 17-97h1l24 99 107 289z"/><glyph unicode="Ԥ" horiz-adv-x="694" d="M491 626H168V0H85v700h489V74h92v-203h-58L593 0H491z"/><glyph unicode="ԥ" horiz-adv-x="554" d="M378 430H157V0H77v500h381V70h74v-197h-54L463 0h-85z"/><glyph unicode="Ԧ" horiz-adv-x="640" d="M448 0v232q0 137-124 137-48 0-89-12.5T168 323V0H85v700h83V398q27 15 71.5 30T340 443q42 0 77.5-9.5t60.5-32q25-22.5 39-60.5t14-94V74h92v-203h-58L550 0z"/><glyph unicode="ԧ" horiz-adv-x="579" d="M398 0v285q0 39-4.5 68.5t-16.5 49Q365 422 344.5 432T291 442q-47 0-85-30.5T157 333V0H77v700h80V444h4q26 31 62.5 49.5T314 512q42 0 73-9.5t51.5-33.5q20.5-24 30-64.5T478 302V70h74v-197h-54L483 0z"/><glyph unicode="Ԯ" horiz-adv-x="657" d="M456 626H247q-10-200-26.5-332.5T171 87q-22-48-52-70T54-5Q36-5 23-2.5T-2 5L9 77q10-3 21-3 17 0 33.5 11T96 126q14 27 26.5 72t22 114q9.5 69 15.5 164.5t9 223.5h370V74h92v-203h-58L558 0H456z"/><glyph unicode="ԯ" horiz-adv-x="523" d="M346 430H201q-3-42-6-90.5t-9-97q-6-48.5-16-93T144.5 71q-15.5-34-38-54.5T53-4Q34-4 20-2T-5 5L7 72q12-4 26-4 20 0 36 17t28 64.5Q109 197 117 281t11 219h298V70h74v-197h-54L431 0h-85z"/><glyph unicode="Ḱ" horiz-adv-x="610" d="M215 324h-47V0H85v700h83V374l45 14 235 312h96L310 399l-42-33 51-40L575 0H470zm100 546h114v-21l-163-97h-69z"/><glyph unicode="ḱ" horiz-adv-x="479" d="M203 225h-46V0H77v700h80V274l41 14 155 212h93L293 299l-41-33 50-40L469 0h-99zm88 495h89v-21L279 571h-47z"/><glyph unicode="Ḿ" horiz-adv-x="791" d="M623 470l10 105h-5l-38-96-182-316h-25L190 480l-36 95h-5l14-104V0H85v700h62l219-358 33-78h2l31 80 209 356h65V0h-83zM450 870h114v-21l-163-97h-69z"/><glyph unicode="ḿ" horiz-adv-x="812" d="M370 0v283q0 40-3.5 69.5T353 402q-10 20-28.5 30T276 442q-46 0-76.5-28T157 344V0H77v500h56l15-61h4q27 32 62.5 52.5T307 512q48 0 78.5-18.5T433 429q23 39 63.5 61t91.5 22q42 0 71-9.5t48-33.5q19-24 27.5-65t8.5-104V0h-80v301q0 36-3.5 62.5t-14 44q-10.5 17.5-29 26T568 442q-50 0-78-28t-40-80V0zm55 720h89v-21L413 571h-47z"/><glyph unicode="Ṕ" horiz-adv-x="559" d="M85 693q38 9 82 12t87 3q46 0 93.5-9t86.5-33q39-24 63.5-66T522 493q0-64-23-108t-61-71.5Q400 286 351 274t-101-12h-16.5q-11.5 0-24 .5T185 264q-12 1-17 2V0H85zm171-57q-26 0-50-1t-38-5V340q5-2 16-2.5t23-1q12-.5 23-.5h16q34 0 67.5 6.5T374 366q27 17 43.5 48t16.5 79q0 41-15.5 68.5t-41 44Q352 622 320 629t-64 7zm64 234h114v-21l-163-97h-69z"/><glyph unicode="ṕ" horiz-adv-x="541" d="M77 500h55l15-60h4q23 35 59.5 53.5T294 512q100 0 149-59t49-193q0-63-16.5-113.5T429 61q-30-35-72.5-54T262-12q-37 0-58.5 4.5T157 8v-208H77zm202-58q-51 0-80.5-26.5T157 335V87q18-14 41-21.5t61-7.5q69 0 109.5 51.5T409 261q0 41-7 74.5t-22.5 57Q364 416 339.5 429T279 442zm15 278h89v-21L282 571h-47z"/><glyph unicode="ẞ" horiz-adv-x="667" d="M429 603q-9 8-24 15t-34 12.5q-19 5.5-40.5 8.5t-43.5 3q-44 0-68.5-16.5T183 582q-11-27-13-62t-2-73V0H85v478q0 48 8.5 91t31.5 74.5q23 31.5 63 50T292 712q83 0 142.5-24.5T538 629L376 431l-33-29v-2l33 7q97-1 151.5-52.5T582 213q0-108-61-166.5T353-12q-9 0-25 1t-34 3q-18 2-35 5.5T230 7l13 75q9-6 23.5-9.5t30.5-6q16-2.5 31-3.5t26-1q70 2 104 39t36 103q0 70-44 103.5T322 341h-62v59z"/><glyph unicode="‑" horiz-adv-x="360" d="M59 325h242v-74H59z"/><glyph unicode="–" horiz-adv-x="660" d="M118 325h424v-74H118z"/><glyph unicode="—" horiz-adv-x="820" d="M118 325h584v-74H118z"/><glyph unicode="‘" horiz-adv-x="194" d="M155 548q0-23-15-36.5T102 498q-27 0-44.5 18T40 569q0 33 9.5 56.5t23 40Q86 682 100.5 692t25.5 14l25-35q-22-11-35.5-29.5T102 595q4 1 11 1 20 0 31-14t11-34z"/><glyph unicode="’" horiz-adv-x="194" d="M40 657q0 23 14.5 36T92 706q28 0 45.5-17.5T155 636q0-33-9.5-57t-23-40.5Q109 522 94 512t-26-14l-25 34q23 12 36 30t13 47q-4-1-11-1-19 0-30 13.5T40 657z"/><glyph unicode="‚" horiz-adv-x="194" d="M40 47q0 23 14.5 36T92 96q28 0 45.5-17.5T155 26q0-33-9.5-57t-23-40.5Q109-88 94-98t-26-14L43-78q23 12 36 30T92-1q-4-1-11-1-19 0-30 13.5T40 47z"/><glyph unicode="“" horiz-adv-x="340" d="M301 548q0-23-15-36.5T248 498q-27 0-44.5 18T186 569q0 33 9.5 56.5t23 40q13.5 16.5 28 26.5t25.5 14l25-35q-22-11-35.5-29.5T248 595q4 1 11 1 20 0 31-14t11-34zm-146 0q0-23-15-36.5T102 498q-27 0-44.5 18T40 569q0 33 9.5 56.5t23 40Q86 682 100.5 692t25.5 14l25-35q-22-11-35.5-29.5T102 595q4 1 11 1 20 0 31-14t11-34z"/><glyph unicode="”" horiz-adv-x="340" d="M186 657q0 23 14.5 36t37.5 13q28 0 45.5-17.5T301 636q0-33-9.5-57t-23-40.5Q255 522 240 512t-26-14l-25 34q23 12 36 30t13 47q-4-1-11-1-19 0-30 13.5T186 657zm-146 0q0 23 14.5 36T92 706q28 0 45.5-17.5T155 636q0-33-9.5-57t-23-40.5Q109 522 94 512t-26-14l-25 34q23 12 36 30t13 47q-4-1-11-1-19 0-30 13.5T40 657z"/><glyph unicode="„" horiz-adv-x="340" d="M186 47q0 23 14.5 36T238 96q28 0 45.5-17.5T301 26q0-33-9.5-57t-23-40.5Q255-88 240-98t-26-14l-25 34q23 12 36 30t13 47q-4-1-11-1-19 0-30 13.5T186 47zM40 47q0 23 14.5 36T92 96q28 0 45.5-17.5T155 26q0-33-9.5-57t-23-40.5Q109-88 94-98t-26-14L43-78q23 12 36 30T92-1q-4-1-11-1-19 0-30 13.5T40 47z"/><glyph unicode="†" horiz-adv-x="486" d="M40 502h131l43-11-11 47v162h80V538l-11-47 43 11h131v-72H313l-41 11 11-42V0l-15-200h-50L203 1v398l11 42-43-11H40z"/><glyph unicode="‡" horiz-adv-x="486" d="M203 400l11 41-43-11H40v72h131l43-11-11 46v163h80V537l-11-46 43 11h131v-72H313l-41 11 11-41V276l-11-41 41 11h133v-72H315l-43 11 11-46V0l-16-200h-48L203 1v138l11 46-43-11H40v72h131l43-11-11 41z"/><glyph unicode="•" horiz-adv-x="452" d="M87 311q0 31 11 56.5t29.5 44q18.5 18.5 44 28.5t54.5 10q29 0 54.5-9.5t44-27.5q18.5-18 29.5-43.5t11-58.5q0-33-11-58.5T324.5 209q-18.5-18-44-27.5T226 172q-29 0-54.5 9.5t-44 27.5Q109 227 98 252.5T87 311z"/><glyph unicode="…" horiz-adv-x="759" d="M579 46q0 27 15.5 42.5T636 104q27 0 43-15.5T695 46q0-26-16-42t-43-16q-26 0-41.5 16T579 46zm-254 0q0 27 15.5 42.5T382 104q27 0 43-15.5T441 46q0-26-16-42t-43-16q-26 0-41.5 16T325 46zM71 46q0 27 15.5 42.5T128 104q27 0 43-15.5T187 46q0-26-16-42t-43-16q-26 0-41.5 16T71 46z"/><glyph unicode="‰" horiz-adv-x="1147" d="M70 542q0 45 12 77t32.5 53q20.5 21 49 30.5T225 712q33 0 61.5-9t49-29q20.5-20 32.5-52.5t12-79.5q0-47-12-79.5T335.5 410q-20.5-20-49-29t-61.5-9q-33 0-61.5 9t-49 29Q94 430 82 462.5T70 542zm74 0q0-60 21.5-86t59.5-26q19 0 34 5.5t25.5 18q10.5 12.5 16 34T306 542q0 33-5.5 54.5t-16 34Q274 643 259 648.5t-34 5.5q-38 0-59.5-23.5T144 542zm282-372q0 45 12 77t32.5 53q20.5 21 49 30.5T581 340q33 0 61.5-9t49-29q20.5-20 32.5-52.5t12-79.5q0-47-12-79.5T691.5 38q-20.5-20-49-29T581 0q-33 0-61.5 9t-49 29Q450 58 438 90.5T426 170zm74 0q0-60 21.5-86T581 58q19 0 34 5.5t25.5 18q10.5 12.5 16 34T662 170q0 33-5.5 54.5t-16 34Q630 271 615 276.5t-34 5.5q-38 0-59.5-23.5T500 170zm283 0q0 45 12 77t32.5 53q20.5 21 49 30.5T938 340q33 0 61.5-9t49-29q20.5-20 32.5-52.5t12-79.5q0-47-12-79.5T1048.5 38q-20.5-20-49-29T938 0q-33 0-61.5 9t-49 29Q807 58 795 90.5T783 170zm74 0q0-60 21.5-86T938 58q19 0 34 5.5t25.5 18q10.5 12.5 16 34t5.5 54.5q0 33-5.5 54.5t-16 34Q987 271 972 276.5t-34 5.5q-38 0-59.5-23.5T857 170zM637 713l49-38L173-12l-50 39z"/><glyph unicode="‹" horiz-adv-x="297" d="M39 259l160 230 53-43-97-145-48-41 48-36L258 82l-53-44z"/><glyph unicode="›" horiz-adv-x="297" d="M258 268L98 38 45 81l97 145 48 41-48 36L39 445l53 44z"/><glyph unicode="⁄" horiz-adv-x="184" d="M310 713l52-35-487-690-52 36z"/><glyph unicode="₁" horiz-adv-x="394" d="M72-39h106v254l7 36-27-28-78-47-27 49 154 102h41V-39h95v-61H72z"/><glyph unicode="₂" horiz-adv-x="394" d="M319 210q0-31-10.5-60t-28-57Q263 65 239 37.5T188-18l-46-32v-2l57 15h140v-63H48v33q23 19 57.5 51T172 53q32 37 54.5 76t22.5 72q0 31-20 46.5T180 263q-27 0-52.5-9.5T83 232l-22 57q26 18 60.5 28t70.5 10q63 0 95-31t32-86z"/><glyph unicode="₃" horiz-adv-x="394" d="M169-47q48 0 73.5 19T268 28q0 32-23 52t-74 20h-55v23l97 116 34 27-49-6H68v60h256v-33L221 164l-25-18v-2l23 3q55-1 87-33t32-86q0-61-44.5-98T175-107q-36 0-62 6T67-88l15 60q17-8 39-13.5t48-5.5z"/><glyph unicode="₄" horiz-adv-x="394" d="M379-4h-83v-96h-67v96H25v37l226 302h45V55h83zM229 183l6 49h-2l-22-46-78-105-33-31 50 5h79z"/><glyph unicode="€" horiz-adv-x="545" d="M28 454h63q12 67 37.5 116t62 80.5Q227 682 272 697t96 15q51 0 88-6.5t64-17.5l-21-73q-23 11-54 17t-75 6q-33 0-64-10t-56.5-32.5Q224 573 204.5 538T175 454h282l-17-66H166q-1-11-1-19v-19-16.5q0-6.5 1-15.5h254l-17-66H173q18-94 71.5-142T383 62q39 0 71.5 9T510 94l20-65Q500 6 455.5-3T366-12q-114 0-185.5 65T89 252H10l18 66h55q-1 9-1 15.5V369q0 8 1 19H10z"/><glyph unicode="₴" horiz-adv-x="545" d="M450 317v-66H221q-11-11-21.5-25t-19-30q-8.5-16-14-32.5T161 132q0-36 28-55.5T283 57q47 0 78 9.5T415 88l24-64q-23-14-62.5-25T268-12q-96 0-143 35.5T78 124q0 18 6 37.5T99 198q9 17 18.5 31t15.5 22H41v66zM41 388v66h236q25 26 39.5 58t14.5 63q0 35-23.5 51T227 642q-40 0-67.5-9T109 613l-25 67q14 7 29 12.5t33.5 10q18.5 4.5 41.5 7t54 2.5q85 0 128-31t43-94q0-38-15-72.5T361 454h89v-66z"/><glyph unicode="₽" horiz-adv-x="545" d="M33 336h71v357q38 9 81.5 12t86.5 3q46 0 90.5-9t79-33q34.5-24 55.5-65t21-105q0-63-21.5-105t-57-68q-35.5-26-81-37T266 274l-79-1v-71h166v-62H187V0h-83v140H33v62h71v72H33zm241 302q-26 0-49.5-1.5T187 632V342h76q30 0 60 6t54 23q24 17 39 46.5t14 77.5q1 41-11.5 68.5t-34 44Q363 624 334.5 631t-60.5 7z"/><glyph unicode="ℓ" horiz-adv-x="500" d="M406 30q-22-14-57.5-28T278-12q-63 0-91.5 30.5T158 114v104l-50-44-35 44 85 74v254q0 44 10 75.5t27.5 51.5q17.5 20 41 29.5T287 712q48 0 79-29.5t31-89.5q0-74-40-157T226 265V125q0-44 17-60.5T284 48q25 0 55 10.5T389 80zm-73 558q0 34-14 49t-32 15q-12 0-23-3.5t-19.5-14q-8.5-10.5-13.5-29t-5-48.5V345q56 65 81.5 125.5T333 588z"/><glyph unicode="№" horiz-adv-x="1023" d="M669 313h278v-74H669zM211 454l-54 105h-4l12-101V0H85v711h44l316-463 51-100h5l-11 96v456h80V-11h-46zm439 88q0 45 12 77t32.5 53q20.5 21 49 30.5T805 712q33 0 61.5-9t49-29q20.5-20 32.5-52.5t12-79.5q0-47-12-79.5T915.5 410q-20.5-20-49-29t-61.5-9q-33 0-61.5 9t-49 29Q674 430 662 462.5T650 542zm74 0q0-60 21.5-86t59.5-26q19 0 34 5.5t25.5 18q10.5 12.5 16 34T886 542q0 33-5.5 54.5t-16 34Q854 643 839 648.5t-34 5.5q-38 0-59.5-23.5T724 542z"/><glyph unicode="™" horiz-adv-x="885" d="M388 632H252V340h-78v292H38v68h350zm382-125l10 103h-4l-39-85-87-140h-33l-89 139-36 86h-4l13-102V340h-73v360h78l105-168 28-58h1l30 60 97 166h79V340h-76z"/><glyph unicode="℮" horiz-adv-x="600" d="M157 259V78q62-59 145-59 124 0 193 120l35-21q-43-66-99-100.5T302-17q-59 0-107 21.5T113.5 63Q80 100 62 150.5T44 259q0 59 18.5 109.5T115 456q34 37 81.5 58T302 535q62 0 109.5-22t80.5-59.5q33-37.5 50-87.5t19-107zm291 36v145q-63 60-147 60-86 0-144-60V295z"/><glyph unicode="∂" horiz-adv-x="505" d="M287 510q42 0 62-7.5t37-21.5h5q-3 46-22.5 77.5t-48.5 51Q291 629 256 638t-69 9h-10.5q-5.5 0-10.5-1l15 66q68 0 122.5-14.5T396 648q38-35 58-93t20-145q0-108-19.5-187.5T400.5 91q-34.5-52-83-77.5T212-12q-96 0-144 50.5T20 182q0 60 17 118.5t50.5 105Q121 452 171 481t116 29zm-6-70q-36 0-68.5-19.5t-57-54.5Q131 331 117 282.5T103 177q0-23 6-45t20-38.5q14-16.5 36-26t54-9.5q50 0 83 30.5t53 79.5q20 49 28 109t8 117q-18 21-43 33.5T281 440z"/><glyph unicode="∏" horiz-adv-x="678" d="M511 626H168v-826H85v900h509v-900h-83z"/><glyph unicode="∑" horiz-adv-x="505" d="M125-90l-40-36h382v-74H14v74l224 346 34 30-35 32L14 626v74h453v-74H89l43-36 215-334z"/><glyph unicode="−" horiz-adv-x="505" d="M40 374h424v-72H40z"/><glyph unicode="∕" horiz-adv-x="505" d="M470 713l52-35L35-12l-52 36z"/><glyph unicode="√" horiz-adv-x="505" d="M167 446l92-227 23-114h2l19 116 148 479h75L300-11h-31L112 374H-9v72z"/><glyph unicode="∞" horiz-adv-x="856" d="M423 285q-36-58-88-90t-110-32q-35 0-65.5 12.5t-54 36.5q-23.5 24-37 58T55 346q0 45 13 80.5t36.5 60.5q23.5 25 56 38.5T232 539q70 0 120.5-31.5T433 427q43 60 96 86t111 26q35 0 64.5-12.5t51-36.5q21.5-24 33.5-57.5t12-75.5q0-45-13-81t-37-61q-24-25-56.5-38.5T623 163q-35 0-65 10t-55 26.5q-25 16.5-45 39T423 285zm202-48q41 0 69.5 32t28.5 86q0 21-6 41t-18.5 35.5Q686 447 667 456t-44 9q-41 0-83.5-23T462 371q12-27 29-51.5t38-42.5q21-18 45-29t51-11zM231 465q-20 0-38-9t-31.5-24.5q-13.5-15.5-21-37T133 349q0-48 29-80t80-32q22 0 43.5 8t41 22.5q19.5 14.5 36.5 33t31 39.5q-27 56-68 90.5T231 465z"/><glyph unicode="∫" horiz-adv-x="350" d="M214-58q0-78-33-114T77-208q-35 0-66 7t-55 17l22 64q23-9 45.5-13.5T69-138q38 0 51.5 24T134-31v593q0 78 33 114t105 36q34 0 65-7t55-17l-21-64q-23 9-45.5 13.5T279 642q-38 0-51.5-23T214 537z"/><glyph unicode="≈" horiz-adv-x="505" d="M31 444q43 33 78 46t64 13q28 0 52-8.5t46-19q22-10.5 43-19t44-8.5q19 0 39 8t43 28l34-61q-38-26-68.5-36.5T350 376q-27 0-49.5 8.5t-43 19q-20.5 10.5-41 19T172 431q-23 0-49-10.5T65 384zm0-167q43 33 78 46t64 13q28 0 52-8.5t46-19q22-10.5 43-19t44-8.5q19 0 39 8t43 28l34-61q-38-26-68.5-36.5T350 209q-27 0-49.5 8.5t-43 19q-20.5 10.5-41 19T172 264q-23 0-49-10.5T65 217z"/><glyph unicode="≠" horiz-adv-x="505" d="M40 457h228l61 137h72l-61-137h124v-72H309l-42-94h197v-72H236L169 66H97l67 153H40v72h155l42 94H40z"/><glyph unicode="≤" horiz-adv-x="505" d="M459 82l-35-63L56 229l35 64zM36 426v29l378 231 38-62-237-145-91-38 90-32 243-144-38-60z"/><glyph unicode="≥" horiz-adv-x="505" d="M457 234L91 19 53 81l367 215zm1 231v-29L80 205l-38 62 237 145 91 38-90 32L37 626l38 60z"/><glyph unicode="◊" horiz-adv-x="505" d="M267-11h-33L34 342l200 369h33l203-364zm18 172l102 176-109 194-28 88h-2l-28-90-102-176 109-194 29-88h1z"/><glyph unicode="Ⱨ" horiz-adv-x="707" d="M504 321H168V0H85v700h83V395h336v305h83V74h92v-203h-58L606 0H504z"/><glyph unicode="ⱨ" horiz-adv-x="579" d="M398 0v285q0 39-4.5 68.5t-16.5 49Q365 422 344.5 432T291 442q-47 0-85-30.5T157 333V0H77v700h80V444h4q26 31 62.5 49.5T314 512q42 0 73-9.5t51.5-33.5q20.5-24 30-64.5T478 302V70h74v-197h-54L483 0z"/><glyph unicode="" horiz-adv-x="0" d="M-238 870h114v-21l-163-97h-69z"/><glyph unicode="" horiz-adv-x="465" d="M103 871q17-34 52-52.5t82-18.5q48 0 81 21t47 50l40-19q-9-29-25.5-51.5t-39-38.5Q318 746 291 738t-55-8q-27 0-53.5 7T133 758q-23 14-42 36.5T60 847z"/><glyph unicode="" horiz-adv-x="287" d="M172 0l-24-43q42-8 60.5-26t18.5-49q0-39-32-64.5T105-208q-11 0-22 1t-23 3l9 39q6-1 11-1h10q22 0 34.5 4t19 9.5q6.5 5.5 8 12.5t1.5 13q0 28-86 37l48 90z"/><glyph unicode="" horiz-adv-x="440" d="M193 870h60l127-102v-21h-81l-60 49-17 35-19-34-64-50H60v22z"/><glyph unicode="" horiz-adv-x="235" d="M60-102q0 21 15.5 34T111-55q25 0 44.5-17.5T175-130q0-26-9-45.5t-21.5-34q-12.5-14.5-26-23T95-245l-28 32q20 11 32 28t12 41q-4-1-10-1-18 0-29.5 12T60-102z"/><glyph unicode="" horiz-adv-x="194" d="M40 657q0 23 14.5 36T92 706q28 0 45.5-17.5T155 636q0-33-9.5-57t-23-40.5Q109 522 94 512t-26-14l-25 34q23 12 36 30t13 47q-4-1-11-1-19 0-30 13.5T40 657z"/><glyph unicode="" horiz-adv-x="246" d="M60 797q0 21 16.5 36.5T122 849q29 0 46.5-15.5T186 797q0-23-17.5-38T122 744q-29 0-45.5 15T60 797z"/><glyph unicode="" horiz-adv-x="331" d="M60 768q0 37 25 61t80 24q50 0 78-21.5t28-63.5q0-36-26.5-59.5T165 685q-51 0-78 22.5T60 768zm61 0q0-17 10.5-28.5T165 728q22 0 33.5 11t11.5 29q0 19-11 30.5T165 810q-22 0-33-11.5T121 768z"/><glyph unicode="" horiz-adv-x="438" d="M60 785q31 32 57.5 43.5T168 840q19 0 37-5t34.5-11.5Q256 817 272 812t31-5q26 0 50 21l25-43q-27-25-51-34.5t-45-9.5q-19 0-36 5t-33.5 11.5Q196 764 180 769t-32 5q-16 0-31.5-6.5T84 744z"/><glyph unicode="" horiz-adv-x="305" d="M218 10q-35-16-55-40.5T143-87q0-20 13-35.5t38-15.5q19 0 40 10l11-43q-15-12-40-18t-46-6q-45 0-72 24t-27 65q0 41 27.5 70T163 10z"/><glyph unicode="" horiz-adv-x="584" d="M507 540q0-25-8-51t-24-48.5Q459 418 434 401t-59-26v-4q30-5 57.5-17t48.5-33q21-21 34-51t13-71q0-54-22.5-93.5t-59-64.5Q410 16 363 4T267-8h-40q-23 0-48 1.5t-50 4Q104 0 85 5v689q37 6 86 10t107 4q39 0 79.5-6.5t73.5-25q33-18.5 54.5-51.5t21.5-85zM275 64q32 0 62 7.5t53 24q23 16.5 36.5 40.5t13.5 57q0 41-16.5 66t-43 39Q354 312 321 317t-66 5h-87V71q7-2 20-3t28-2q15-1 31-1.5t28-.5zm-55 328q17 0 41 1t40 3q24 8 45 19.5t37.5 27q16.5 15.5 26 36T419 523q0 33-12.5 54.5T373 612q-21 13-48 18.5t-55 5.5q-33 0-60.5-1.5T168 630V392zm91 478h114v-21l-163-97h-69z"/><glyph unicode="" horiz-adv-x="540" d="M77 700h80V451h4q23 29 58.5 45t77.5 16q97 0 145.5-62T491 258q0-131-64-199T247-9Q191-9 145.5 3T77 29zm206-258q-50 0-81-28t-45-79V83q19-11 46-16.5t56-5.5q68 0 108.5 48T408 259q0 39-7 73t-22 58q-15 24-38.5 38T283 442zm30 278h89v-21L301 571h-47z"/><glyph unicode="" horiz-adv-x="517" d="M85 700h381v-74H168V387h278v-74H168V0H85zm226 170h114v-21l-163-97h-69z"/><glyph unicode="" horiz-adv-x="319" d="M22 500h78v28q0 46 7.5 80t24.5 55.5q17 21.5 44 32t67 10.5q32 0 56.5-4t51.5-15l-18-67q-23 10-43.5 13t-38.5 3q-26 0-40.5-8t-21-23.5q-6.5-15.5-8-38T180 514v-14h133v-70H180V0h-80v430H22zm266 370h114v-21l-163-97h-69z"/><glyph unicode="" horiz-adv-x="605" d="M-3 589h88v111h83V589h219v-66H168V398q27 15 71.5 30T340 443q42 0 77.5-9.5t60.5-32q25-22.5 39-60.5t14-94V0h-83v232q0 137-124 137-48 0-89-12.5T168 323V0H85v523H-3z"/><glyph unicode="" horiz-adv-x="549" d="M-1 632h80v68h80v-68h160v-60H159V444h4q26 31 62.5 49.5T316 512q42 0 73-9.5t51.5-33.5q20.5-24 30-64.5T480 302V0h-80v285q0 39-4.5 68.5t-16.5 49Q367 422 346.5 432T293 442q-47 0-85-30.5T159 333V0H79v572H-1z"/><glyph unicode="" horiz-adv-x="605" d="M158 700V468q0-137 124-137 47 0 88 12.5t67 33.5v323h83V-27q0-93-33.5-139T382-212q-8 0-17 .5t-14 1.5v68q28 0 45 8.5t26 26Q431-90 434-63t3 63v302q-27-15-71-30t-101-15q-42 0-77 9.5t-60 32Q103 321 89 359t-14 94v247z"/><glyph unicode="" horiz-adv-x="490" d="M333 210q-16-10-47.5-22T199 176q-37 0-65 8t-47 28q-19 20-28.5 53T49 348v152h80V364q0-27 3-48.5t12-37.5q9-16 26-24t45-8q45 0 74 10t44 22v222h80V-27q0-93-32-139t-102-46q-8 0-15 .5t-15 1.5v68q28 0 44.5 8.5t25.5 26Q328-90 330.5-63T333 0z"/><glyph unicode="" horiz-adv-x="553" d="M282 331l26-89h5l20 92 134 366h85L375 245q-27-71-47.5-118.5t-41.5-77q-21-29.5-45-42T182-5Q149-5 129.5.5T93 17l25 69q20-11 37-14t31-3q28 0 47 28.5t33 84.5L7 700h96zm40 539h114v-21l-163-97h-69z"/><glyph unicode="" horiz-adv-x="466" d="M224 176l28-96h5l22 97 97 323h81L309 51q-17-49-33.5-95T239-126q-20-36-45-57.5T136-205q-36 0-59 10l14 69q13-5 25-5 28 0 54 29.5T213 0L12 500h92zm43 544h89v-21L255 571h-47z"/><glyph unicode="" horiz-adv-x="577" d="M150 395h288q-5 61-24 107.5t-49 77Q335 610 295.5 624T210 638q-47 0-83.5-8T67 608l-22 65q31 18 77 28.5t98 10.5q64 0 119-20t95.5-63.5Q475 585 498 516t23-166q0-98-26-167T424.5 70.5Q380 27 321.5 7.5T199-12q-50 0-88.5 7T45 13l22 73q23-11 60-17.5t77-6.5q40 0 80.5 12.5T358 118q33 31 55 81t26 122H150zm13 402q0 21 16.5 36.5T225 849q29 0 46.5-15.5T289 797q0-23-17.5-38T225 744q-29 0-45.5 15T163 797z"/><glyph unicode="" horiz-adv-x="465" d="M121 285h212q-5 71-41.5 114T188 442q-41 0-71.5-11T67 407l-28 61q31 21 71 32.5t93 11.5q111 0 162-69t51-193q0-128-59-195T193-12q-47 0-86.5 7.5T40 18l23 68q23-13 56.5-20.5T185 58q140-1 149 161H121zm16 367q0 23 15.5 39.5T192 708q24 0 41-16.5t17-39.5q0-23-17-38t-41-15q-24 0-39.5 15T137 652z"/><glyph unicode="" horiz-adv-x="541" d="M139 331v70h38q13 0 26.5 1t26 1.5q12.5.5 20.5 2.5 26 4 49 13.5t40 24.5q17 15 27 35t10 44q0 33-11 55t-30.5 35.5q-19.5 13.5-45 19T235 638q-54 0-92-7.5T82 612l-22 66q20 11 72 22.5T249 712q40 0 78.5-8.5t69-28q30.5-19.5 49-53T464 540q0-50-33-95.5T332 379v-4q71-10 112-53t41-115q0-52-18.5-90.5t-49-65q-30.5-26.5-71-42T262-10l-14-169h-52L177-11q-46 2-78 9T44 14l21 75q23-11 64.5-18.5T230 63q31 0 61 8.5T344.5 97q23.5 17 38 43t14.5 62q0 63-44 92.5T238 329q-12 1-22.5 1.5t-21.5.5z"/><glyph unicode="" horiz-adv-x="441" d="M125 223v65h70q18 0 35.5 6t31.5 16.5q14 10.5 22.5 25T293 366q0 39-27 55t-81 16q-39 0-71.5-12T63 402l-23 62q30 17 70.5 30t96.5 13q166 0 166-123 0-35-22.5-68.5T286 268v-4q59-11 82.5-42t23.5-82q0-54-37.5-93.5T241-5l-14-174h-52L156-8Q116-6 88.5 2.5T38 22v66q46-13 78.5-20t70.5-7q61 0 93 21t32 64q0 36-30 56.5T183 223z"/><glyph unicode="" horiz-adv-x="571" d="M533 29Q507 9 469 0t-83-11l-17-32q42-8 60.5-26t18.5-49q0-39-32-64.5T326-208q-11 0-22 1t-23 3l9 39q6-1 11-1h10q22 0 34.5 4t19 9.5q6.5 5.5 8 12.5t1.5 13q0 28-86 37l42 80q-58 4-108 27.5T135 85q-37 44-58 110T56 350q0 98 26.5 166.5t70 112Q196 672 250 692t110 20q60 0 98-6.5t65-17.5l-20-73q-48 23-137 23-41 0-81-15t-71.5-49Q182 540 163 485t-19-135q0-72 18-126t49.5-90q31.5-36 74-54T378 62q45 0 78.5 9T513 94z"/><glyph unicode="" horiz-adv-x="451" d="M418 33Q369-2 297-10l-18-33q42-8 60.5-26t18.5-49q0-39-32-64.5T236-208q-11 0-22 1t-23 3l9 39q6-1 11-1h10q22 0 34.5 4t19 9.5q6.5 5.5 8 12.5t1.5 13q0 28-86 37l42 79q-52 3-88 23T93 66q-23 34-33.5 80.5T49 250q0 127 56 194.5T266 512q48 0 81.5-7.5T408 483l-23-69q-23 13-51 20.5t-60 7.5q-142 0-142-192 0-38 7.5-72.5t25-61q17.5-26.5 46-42T281 59q36 0 64.5 10.5T392 94z"/><glyph unicode="" horiz-adv-x="585" d="M418 194H160L90 0H8l265 711h38L577 0h-87zm-231 72h206l-78 213-25 106h-1l-25-108zm-49 577h316v-62H138z"/><glyph unicode="" horiz-adv-x="496" d="M69 463q38 23 88.5 34T263 508q52 0 83.5-14t48-36.5q16.5-22.5 22-49.5t5.5-54q0-60-3-117t-3-108q0-37 3-70t11-61h-59l-21 70h-5q-9-14-22.5-27.5t-32.5-24Q271 6 246-1t-57-7q-32 0-59.5 10T82 30.5Q62 49 50.5 75T39 134q0 44 18 73.5t50.5 47q32.5 17.5 78 25T286 287h27.5q13.5 0 27.5-2 3 30 3 54 0 55-22 77t-80 22q-17 0-36.5-2.5t-40-7q-20.5-4.5-39-11T94 403zM211 62q28 0 50 7.5t38 19q16 11.5 26.5 25.5t15.5 27v83q-14 1-28.5 1.5t-28.5.5q-31 0-60.5-3.5t-52-13q-22.5-9.5-36-26T122 142q0-35 25-57.5T211 62zM101 643h296v-62H101z"/><glyph unicode="" horiz-adv-x="536" d="M85 700h381v-74H168V397h273v-74H168V74h303V0H85zm28 143h316v-62H113z"/><glyph unicode="" horiz-adv-x="508" d="M442 40q-30-24-75.5-38T270-12q-57 0-99 18.5t-69 53Q75 94 62 142T49 250q0 128 57 195t163 67q34 0 68-7.5t61-28.5q27-21 44-59.5T459 315q0-33-6-73H132q0-44 9-78t28-57.5q19-23.5 49.5-36T293 58q34 0 68 12t51 28zM270 442q-59 0-94.5-31T133 305h248q0 76-29 106.5T270 442zM107 643h296v-62H107z"/><glyph unicode="" horiz-adv-x="536" d="M85 700h381v-74H168V397h273v-74H168V74h303V0H85zm35 94q0 21 15 34t39 13q23 0 37.5-13t14.5-34q0-20-14.5-33T174 748q-24 0-39 13t-15 33zm192 0q0 21 14.5 34t37.5 13q24 0 39-13t15-34q0-20-15-33t-39-13q-23 0-37.5 13T312 794zM110 948h316v-62H110z"/><glyph unicode="" horiz-adv-x="508" d="M442 40q-30-24-75.5-38T270-12q-57 0-99 18.5t-69 53Q75 94 62 142T49 250q0 128 57 195t163 67q34 0 68-7.5t61-28.5q27-21 44-59.5T459 315q0-33-6-73H132q0-44 9-78t28-57.5q19-23.5 49.5-36T293 58q34 0 68 12t51 28zM270 442q-59 0-94.5-31T133 305h248q0 76-29 106.5T270 442zM118 632q0 23 13.5 37t35.5 14q22 0 35.5-14t13.5-37q0-21-13.5-35T167 583q-22 0-35.5 14T118 632zm192 0q0 23 13.5 37t35.5 14q23 0 36.5-14t13.5-37q0-21-13.5-35T359 583q-22 0-35.5 14T310 632zM106 825h316v-62H106z"/><glyph unicode="" horiz-adv-x="536" d="M85 700h381v-74H168V397h273v-74H168V74h303V0H85zm35 94q0 21 15 34t39 13q23 0 37.5-13t14.5-34q0-20-14.5-33T174 748q-24 0-39 13t-15 33zm192 0q0 21 14.5 34t37.5 13q24 0 39-13t15-34q0-20-15-33t-39-13q-23 0-37.5 13T312 794zM181 993q4-37 28-57t64-20q40 0 63.5 20t28.5 56l71-17q-11-54-50.5-85.5T272 858q-71 0-116.5 27.5T102 973z"/><glyph unicode="" horiz-adv-x="508" d="M442 40q-30-24-75.5-38T270-12q-57 0-99 18.5t-69 53Q75 94 62 142T49 250q0 128 57 195t163 67q34 0 68-7.5t61-28.5q27-21 44-59.5T459 315q0-33-6-73H132q0-44 9-78t28-57.5q19-23.5 49.5-36T293 58q34 0 68 12t51 28zM270 442q-59 0-94.5-31T133 305h248q0 76-29 106.5T270 442zM118 633q0 23 13.5 37t35.5 14q22 0 35.5-14t13.5-37q0-21-13.5-35T167 584q-22 0-35.5 14T118 633zm192 0q0 23 13.5 37t35.5 14q23 0 36.5-14t13.5-37q0-21-13.5-35T359 584q-22 0-35.5 14T310 633zM176 852q4-37 28-57t64-20q40 0 63.5 20t28.5 56l71-17q-11-54-50.5-85.5T267 717q-71 0-116.5 27.5T97 832z"/><glyph unicode="" horiz-adv-x="541" d="M139 331v70h38q13 0 26.5 1t26 1.5q12.5.5 20.5 2.5 26 4 49 13.5t40 24.5q17 15 27 35t10 44q0 33-11 55t-30.5 35.5q-19.5 13.5-45 19T235 638q-54 0-92-7.5T82 612l-22 66q20 11 72 22.5T249 712q40 0 78.5-8.5t69-28q30.5-19.5 49-53T464 540q0-50-33-95.5T332 379v-4q71-10 112-53t41-115q0-57-22.5-98.5t-59-68.5Q367 13 319.5.5T223-12q-66 0-108.5 7.5T44 14l21 75q23-11 64.5-19T230 62q31 0 61 8.5t53.5 26q23.5 17.5 38 43.5t14.5 62q0 63-44 92.5T238 329q-12 1-22.5 1.5t-21.5.5zm128 415h-58L82 849v21h82l59-50 17-34 19 33 63 51h78v-22z"/><glyph unicode="" horiz-adv-x="441" d="M125 223v65h70q18 0 35.5 6t31.5 16.5q14 10.5 22.5 25T293 366q0 39-27 55t-81 16q-39 0-71.5-12T63 402l-23 62q30 17 70.5 30t96.5 13q166 0 166-123 0-35-22.5-68.5T286 268v-4q59-11 82.5-42t23.5-82q0-32-13-59t-39-47q-26-20-65.5-31.5T183-9q-51 0-84.5 9T38 22l23 66q23-13 55.5-20t70.5-7q61 0 93 21t32 64q0 36-30 56.5T183 223zm93 327h-37L66 732h78l39-66 21-58 22 58 45 66h70z"/><glyph unicode="" horiz-adv-x="684" d="M56 350q0 175 74 268.5T341 712q74 0 128-26t89.5-73.5Q594 565 611 498.5T628 350q0-175-74.5-268.5T341-12q-73 0-126.5 26t-89 73.5Q90 135 73 201.5T56 350zm88 0q0-58 11.5-110t35.5-91.5q24-39.5 61.5-63T341 62q93 0 146 70.5T540 350q0 57-11.5 109.5t-36 92q-24.5 39.5-62 63T341 638q-92 0-144.5-70.5T144 350zm46 493h316v-62H190z"/><glyph unicode="" horiz-adv-x="536" d="M49 250q0 127 56.5 194.5T268 512q56 0 97.5-18.5t68.5-53q27-34.5 40-83T487 250q0-127-56.5-194.5T268-12q-56 0-97.5 18.5t-68.5 53q-27 34.5-40 83T49 250zm83 0q0-38 7.5-73t23.5-61q16-26 42-42t63-16q136-1 136 192 0 39-7.5 74T373 385q-16 26-42 41.5T268 442q-136 1-136-192zm-12 393h296v-62H120z"/><glyph unicode="" horiz-adv-x="684" d="M56 350q0 175 74 268.5T341 712q74 0 128-26t89.5-73.5Q594 565 611 498.5T628 350q0-175-74.5-268.5T341-12q-73 0-126.5 26t-89 73.5Q90 135 73 201.5T56 350zm88 0q0-58 11.5-110t35.5-91.5q24-39.5 61.5-63T341 62q93 0 146 70.5T540 350q0 57-11.5 109.5t-36 92q-24.5 39.5-62 63T341 638q-92 0-144.5-70.5T144 350zm107 520q4-37 28-57t64-20q40 0 63.5 20t28.5 56l71-17q-11-54-50.5-85.5T342 735q-71 0-116.5 27.5T172 850z"/><glyph unicode="" horiz-adv-x="536" d="M49 250q0 127 56.5 194.5T268 512q56 0 97.5-18.5t68.5-53q27-34.5 40-83T487 250q0-127-56.5-194.5T268-12q-56 0-97.5 18.5t-68.5 53q-27 34.5-40 83T49 250zm83 0q0-38 7.5-73t23.5-61q16-26 42-42t63-16q136-1 136 192 0 39-7.5 74T373 385q-16 26-42 41.5T268 442q-136 1-136-192zm49 452q10-46 34.5-64t56.5-18q32 0 57 19t34 62l60-19q-9-58-51.5-89T270 562q-27 0-53.5 7T169 590q-21 14-36 36t-20 52z"/><glyph unicode="" horiz-adv-x="684" d="M56 350q0 175 74 268.5T341 712q74 0 128-26t89.5-73.5Q594 565 611 498.5T628 350q0-175-74.5-268.5T341-12q-73 0-126.5 26t-89 73.5Q90 135 73 201.5T56 350zm484 42q-8 119-62.5 182.5T341 638q-36 0-70-12.5T210 584q-27-29-44.5-76T144 392zm-396-74q8-129 62.5-192.5T341 62q37 0 72 12t62 41.5q27 29.5 44.5 78.5T540 318zm106 552q4-37 28-57t64-20q40 0 63.5 20t28.5 56l71-17q-11-54-50.5-85.5T341 735q-71 0-116.5 27.5T171 850z"/><glyph unicode="" horiz-adv-x="536" d="M49 250q0 127 56.5 194.5T268 512q56 0 97.5-18.5t68.5-53q27-34.5 40-83T487 250q0-127-56.5-194.5T268-12q-56 0-97.5 18.5t-68.5 53q-27 34.5-40 83T49 250zm355 31q-8 85-43.5 123T268 442q-26 0-49.5-8t-42-27Q158 388 146 357t-14-76zm-272-64q5-78 43-118.5T268 58q25 0 48.5 8t42 26q18.5 18 30.5 48.5t15 76.5zm49 485q10-46 34.5-64t56.5-18q32 0 57 19t34 62l60-19q-9-58-51.5-89T270 562q-27 0-53.5 7T169 590q-21 14-36 36t-20 52z"/><glyph unicode="" horiz-adv-x="684" d="M56 350q0 175 74 268.5T341 712q74 0 128-26t89.5-73.5Q594 565 611 498.5T628 350q0-175-74.5-268.5T341-12q-73 0-126.5 26t-89 73.5Q90 135 73 201.5T56 350zm484 42q-8 119-62.5 182.5T341 638q-36 0-70-12.5T210 584q-27-29-44.5-76T144 392zm-396-74q8-129 62.5-192.5T341 62q37 0 72 12t62 41.5q27 29.5 44.5 78.5T540 318zm49 476q0 21 15 34t39 13q23 0 37.5-13t14.5-34q0-20-14.5-33T247 748q-24 0-39 13t-15 33zm192 0q0 21 14.5 34t37.5 13q24 0 39-13t15-34q0-20-15-33t-39-13q-23 0-37.5 13T385 794zM252 993q4-37 28-57t64-20q40 0 63.5 20t28.5 56l71-17q-11-54-50.5-85.5T343 858q-71 0-116.5 27.5T173 973z"/><glyph unicode="" horiz-adv-x="536" d="M49 250q0 127 56.5 194.5T268 512q56 0 97.5-18.5t68.5-53q27-34.5 40-83T487 250q0-127-56.5-194.5T268-12q-56 0-97.5 18.5t-68.5 53q-27 34.5-40 83T49 250zm355 31q-8 85-43.5 123T268 442q-26 0-49.5-8t-42-27Q158 388 146 357t-14-76zm-272-64q5-78 43-118.5T268 58q25 0 48.5 8t42 26q18.5 18 30.5 48.5t15 76.5zm-12 416q0 23 13.5 37t35.5 14q22 0 35.5-14t13.5-37q0-21-13.5-35T169 584q-22 0-35.5 14T120 633zm192 0q0 23 13.5 37t35.5 14q23 0 36.5-14t13.5-37q0-21-13.5-35T361 584q-22 0-35.5 14T312 633zM187 852q4-37 28-57t64-20q40 0 63.5 20t28.5 56l71-17q-11-54-50.5-85.5T278 717q-71 0-116.5 27.5T108 832z"/><glyph unicode="" horiz-adv-x="769" d="M601 700h83V0h-83zm-516 0h83V428q5 1 15 2.5t22 2.5q12 1 24.5 2t24.5 1q47 0 91.5-9.5T424 393q34-24 54.5-64.5T499 226q0-60-19-104.5t-53.5-73Q392 20 344 6T238-8q-14 0-32.5.5t-39 2Q146-4 125-1T85 7zM245 64q72 0 119 39t47 117q0 42-14 70t-37.5 44.5q-23.5 16.5-54 23T241 364q-18 0-40-3t-33-6V70q27-6 77-6zm-33 779h316v-62H212z"/><glyph unicode="" horiz-adv-x="660" d="M157 70q37-6 71-6 63 0 88 24.5t25 69.5q0 40-24.5 66T231 250q-17 0-37-1t-37-6zm0 239q24 4 46 5.5t42 1.5q51 0 85.5-11.5T386 273q21-20 29.5-47.5T424 167q0-91-50.5-132T210-6Q146-6 77 0v500h80zm346 191h80V0h-80zM175 643h296v-62H175z"/><glyph unicode="" horiz-adv-x="577" d="M150 395h288q-5 61-24 107.5t-49 77Q335 610 295.5 624T210 638q-47 0-83.5-8T67 608l-22 65q31 18 77 28.5t98 10.5q64 0 119-20t95.5-63.5Q475 585 498 516t23-166q0-98-26-167T424.5 70.5Q380 27 321.5 7.5T199-12q-50 0-88.5 7T45 13l22 73q23-11 60-17.5t77-6.5q40 0 80.5 12.5T358 118q33 31 55 81t26 122H150zM86 843h316v-62H86z"/><glyph unicode="" horiz-adv-x="465" d="M121 285h212q-5 71-41.5 114T188 442q-41 0-71.5-11T67 407l-28 61q31 21 71 32.5t93 11.5q111 0 162-69t51-193q0-128-59-195T193-12q-47 0-86.5 7.5T40 18l23 68q23-13 56.5-20.5T185 58q140-1 149 161H121zM58 643h296v-62H58z"/><glyph unicode="" horiz-adv-x="577" d="M150 395h288q-5 61-24 107.5t-49 77Q335 610 295.5 624T210 638q-47 0-83.5-8T67 608l-22 65q31 18 77 28.5t98 10.5q64 0 119-20t95.5-63.5Q475 585 498 516t23-166q0-98-26-167T424.5 70.5Q380 27 321.5 7.5T199-12q-50 0-88.5 7T45 13l22 73q23-11 60-17.5t77-6.5q40 0 80.5 12.5T358 118q33 31 55 81t26 122H150zm-1 475q4-37 28-57t64-20q40 0 63.5 20t28.5 56l71-17q-11-54-50.5-85.5T240 735q-71 0-116.5 27.5T70 850z"/><glyph unicode="" horiz-adv-x="465" d="M121 285h212q-5 71-41.5 114T188 442q-41 0-71.5-11T67 407l-28 61q31 21 71 32.5t93 11.5q111 0 162-69t51-193q0-128-59-195T193-12q-47 0-86.5 7.5T40 18l23 68q23-13 56.5-20.5T185 58q140-1 149 161H121zm3 417q10-46 34.5-64t56.5-18q32 0 57 19t34 62l60-19q-9-58-51.5-89T213 562q-27 0-53.5 7T112 590q-21 14-36 36t-20 52z"/><glyph unicode="" horiz-adv-x="583" d="M544 29Q514 6 465.5-3T365-12q-63 0-119 21.5T147.5 75q-42.5 44-67 112.5T56 350q0 98 27.5 166.5t71.5 112q44 43.5 99 63.5t111 20q60 0 101-6.5t68-17.5l-20-74q-23 11-60 17.5t-82 6.5q-39 0-76.5-12.5t-69-41Q195 556 173.5 510T145 398h306v-74H144q3-66 23.5-115t53-81.5Q253 95 295 78.5T384 62q45 0 81 9t58 23zM183 794q0 21 15 34t39 13q23 0 37.5-13t14.5-34q0-20-14.5-33T237 748q-24 0-39 13t-15 33zm192 0q0 21 14.5 34t37.5 13q24 0 39-13t15-34q0-20-15-33t-39-13q-23 0-37.5 13T375 794z"/><glyph unicode="" horiz-adv-x="472" d="M438 33Q408 11 365-.5T277-12q-58 0-100.5 18.5t-71 53Q77 94 63 142.5T49 250q0 63 17 112t47.5 82q30.5 33 73.5 50.5t95 17.5q48 0 84-7.5t63-21.5l-23-69q-23 13-53.5 20.5T290 442q-69 1-110.5-38.5T130 286h236v-66H129q3-33 14.5-63t32-52Q196 83 226 70.5T298 58q35 0 65.5 11T412 94zM116 633q0 23 13.5 37t35.5 14q22 0 35.5-14t13.5-37q0-21-13.5-35T165 584q-22 0-35.5 14T116 633zm192 0q0 23 13.5 37t35.5 14q23 0 36.5-14t13.5-37q0-21-13.5-35T357 584q-22 0-35.5 14T308 633z"/><glyph unicode="" horiz-adv-x="569" d="M484 0h-83v305l-103-22L124 0H26l156 249 61 43q-36 8-66.5 24.5t-53 42Q101 384 88.5 418T76 496q0 61 20.5 101.5t56 65q35.5 24.5 83 35T336 708q34 0 72.5-3t75.5-12zM332 636q-33 0-63-6.5T215.5 607Q192 591 178 564t-14-68q0-38 13.5-65t36.5-44.5q23-17.5 53.5-25.5t65.5-8h68v277q-14 3-29 4.5t-40 1.5zM158 843h316v-62H158z"/><glyph unicode="" horiz-adv-x="475" d="M326 207l-77-12L117 0H20l120 171 40 37q-52 8-88.5 42T55 342q0 45 15.5 77t44.5 53q29 21 69 30.5t90 9.5q37 0 69-5t63-11V0h-80zm0 225q-13 5-29 7.5t-28 2.5q-64 0-97.5-23T138 346q0-45 35.5-69.5T267 252h11q6 0 17 .5t31 1.5zM91 643h296v-62H91z"/><glyph unicode="" horiz-adv-x="569" d="M484 0h-83v305l-103-22L124 0H26l156 249 61 43q-36 8-66.5 24.5t-53 42Q101 384 88.5 418T76 496q0 61 20.5 101.5t56 65q35.5 24.5 83 35T336 708q34 0 72.5-3t75.5-12zM332 636q-33 0-63-6.5T215.5 607Q192 591 178 564t-14-68q0-38 13.5-65t36.5-44.5q23-17.5 53.5-25.5t65.5-8h68v277q-14 3-29 4.5t-40 1.5zM216 870q4-37 28-57t64-20q40 0 63.5 20t28.5 56l71-17q-11-54-50.5-85.5T307 735q-71 0-116.5 27.5T137 850z"/><glyph unicode="" horiz-adv-x="475" d="M326 207l-77-12L117 0H20l120 171 40 37q-52 8-88.5 42T55 342q0 45 15.5 77t44.5 53q29 21 69 30.5t90 9.5q37 0 69-5t63-11V0h-80zm0 225q-13 5-29 7.5t-28 2.5q-64 0-97.5-23T138 346q0-45 35.5-69.5T267 252h11q6 0 17 .5t31 1.5zM155 702q10-46 34.5-64t56.5-18q32 0 57 19t34 62l60-19q-9-58-51.5-89T244 562q-27 0-53.5 7T143 590q-21 14-36 36t-20 52z"/><glyph unicode="" horiz-adv-x="893" d="M168 395h124q8 153 77 235t197 82q73 0 125-26t84-73.5q32-47.5 47-114T837 350q0-175-67-268.5T566-12q-69 0-120 23.5t-84.5 67Q328 122 311 183.5T291 321H168V0H85v700h83zm211-45q0-58 10-110t32-91.5q22-39.5 57.5-63T566 62q93 0 138 70t45 218q0 57-9 109.5t-30.5 92Q688 591 653 614.5T566 638q-93 0-140-70.5T379 350zm-82 493h316v-62H297z"/><glyph unicode="" horiz-adv-x="719" d="M465-12q-54 0-92.5 16.5t-63 47q-24.5 30.5-37 74T257 221H157V0H77v500h80V291h101q8 107 58.5 164T467 512q55 0 93.5-18.5t63-53q24.5-34.5 35.5-83T670 250q0-127-50.5-194.5T465-12zM336 250q0-39 6-74t21-61.5Q378 88 403.5 73T467 58q64 0 92 46.5T587 250q0 39-5.5 74T562 385.5Q548 412 525 427t-59 15q-69 0-99.5-46.5T336 250zM207 643h296v-62H207z"/><glyph unicode="" horiz-adv-x="893" d="M168 395h124q8 153 77 235t197 82q73 0 125-26t84-73.5q32-47.5 47-114T837 350q0-175-67-268.5T566-12q-69 0-120 23.5t-84.5 67Q328 122 311 183.5T291 321H168V0H85v700h83zm211-45q0-58 10-110t32-91.5q22-39.5 57.5-63T566 62q93 0 138 70t45 218q0 57-9 109.5t-30.5 92Q688 591 653 614.5T566 638q-93 0-140-70.5T379 350zm-40 520q4-37 28-57t64-20q40 0 63.5 20t28.5 56l71-17q-11-54-50.5-85.5T430 735q-71 0-116.5 27.5T260 850z"/><glyph unicode="" horiz-adv-x="719" d="M465-12q-54 0-92.5 16.5t-63 47q-24.5 30.5-37 74T257 221H157V0H77v500h80V291h101q8 107 58.5 164T467 512q55 0 93.5-18.5t63-53q24.5-34.5 35.5-83T670 250q0-127-50.5-194.5T465-12zM336 250q0-39 6-74t21-61.5Q378 88 403.5 73T467 58q64 0 92 46.5T587 250q0 39-5.5 74T562 385.5Q548 412 525 427t-59 15q-69 0-99.5-46.5T336 250zm-73 452q10-46 34.5-64t56.5-18q32 0 57 19t34 62l60-19q-9-58-51.5-89T352 562q-27 0-53.5 7T251 590q-21 14-36 36t-20 52z"/><glyph unicode="" horiz-adv-x="681" d="M513 474l6 80h-4l-43-82L134 0H85v700h83V220l-7-79h4l44 82 338 477h49V-27q0-93-32.5-139T459-212q-8 0-16.5.5T428-210v68q28 0 45 8.5t26 26Q508-90 510.5-63T513 0zM258 870q4-37 28-57t64-20q40 0 63.5 20t28.5 56l71-17q-11-54-50.5-85.5T349 735q-71 0-116.5 27.5T179 850z"/><glyph unicode="" horiz-adv-x="546" d="M389 296l3 62h-3l-41-64L123 0H77v500h80V195l-3-59h4l39 62 225 302h47V-27q0-93-32-139t-102-46q-8 0-15 .5t-15 1.5v68q28 0 44.5 8.5t25.5 26Q384-90 386.5-63T389 0zM192 702q10-46 34.5-64t56.5-18q32 0 57 19t34 62l60-19q-9-58-51.5-89T281 562q-27 0-53.5 7T180 590q-21 14-36 36t-20 52z"/><glyph unicode="" horiz-adv-x="684" d="M56 350q0 175 74 268.5T341 712q74 0 128-26t89.5-73.5Q594 565 611 498.5T628 350q0-175-74.5-268.5T341-12q-73 0-126.5 26t-89 73.5Q90 135 73 201.5T56 350zm88 0q0-58 11.5-110t35.5-91.5q24-39.5 61.5-63T341 62q93 0 146 70.5T540 350q0 57-11.5 109.5t-36 92q-24.5 39.5-62 63T341 638q-92 0-144.5-70.5T144 350zm134 447q0 21 16.5 36.5T340 849q29 0 46.5-15.5T404 797q0-23-17.5-38T340 744q-29 0-45.5 15T278 797z"/><glyph unicode="" horiz-adv-x="536" d="M49 250q0 127 56.5 194.5T268 512q56 0 97.5-18.5t68.5-53q27-34.5 40-83T487 250q0-127-56.5-194.5T268-12q-56 0-97.5 18.5t-68.5 53q-27 34.5-40 83T49 250zm83 0q0-38 7.5-73t23.5-61q16-26 42-42t63-16q136-1 136 192 0 39-7.5 74T373 385q-16 26-42 41.5T268 442q-136 1-136-192zm82 402q0 23 15.5 39.5T269 708q24 0 41-16.5t17-39.5q0-23-17-38t-41-15q-24 0-39.5 15T214 652z"/><glyph unicode="" horiz-adv-x="769" d="M601 700h83V0h-83zm-516 0h83V428q5 1 15 2.5t22 2.5q12 1 24.5 2t24.5 1q47 0 91.5-9.5T424 393q34-24 54.5-64.5T499 226q0-60-19-104.5t-53.5-73Q392 20 344 6T238-8q-14 0-32.5.5t-39 2Q146-4 125-1T85 7zM245 64q72 0 119 39t47 117q0 42-14 70t-37.5 44.5q-23.5 16.5-54 23T241 364q-18 0-40-3t-33-6V70q27-6 77-6zm53 806q4-37 28-57t64-20q40 0 63.5 20t28.5 56l71-17q-11-54-50.5-85.5T389 735q-71 0-116.5 27.5T219 850z"/><glyph unicode="" horiz-adv-x="660" d="M157 70q37-6 71-6 63 0 88 24.5t25 69.5q0 40-24.5 66T231 250q-17 0-37-1t-37-6zm0 239q24 4 46 5.5t42 1.5q51 0 85.5-11.5T386 273q21-20 29.5-47.5T424 167q0-91-50.5-132T210-6Q146-6 77 0v500h80zm346 191h80V0h-80zM237 702q10-46 34.5-64t56.5-18q32 0 57 19t34 62l60-19q-9-58-51.5-89T326 562q-27 0-53.5 7T225 590q-21 14-36 36t-20 52z"/><glyph unicode="" horiz-adv-x="540" d="M356 331q-12 0-22.5-.5T312 329q-71-5-115-35t-44-92q0-72 48-106t128-34q42 0 81 9.5T470 95l26-63q-25-16-70.5-30T314-12Q258-12 212.5.5T134 39q-33 26-51 65t-18 93q0 73 39 118.5T214 372v4q-33 10-57 27.5T117.5 443Q102 465 94 490t-8 50q0 45 18 77.5t49 53.5q31 21 73 31t89 10q27 0 53.5-3.5T418 700q23-5 41-11.5t29-13.5l-24-67q-27 12-66 21t-76 9q-68 0-108-24t-40-82q0-28 12-50t32-38q20-16 45-26t51-13q17-2 40-3t41-1h16v-70zM149 794q0 21 15 34t39 13q23 0 37.5-13t14.5-34q0-20-14.5-33T203 748q-24 0-39 13t-15 33zm192 0q0 21 14.5 34t37.5 13q24 0 39-13t15-34q0-20-15-33t-39-13q-23 0-37.5 13T341 794z"/><glyph unicode="" horiz-adv-x="441" d="M258 223q-69 0-99-20.5T129 146q0-38 32-61.5T254 61q37 0 70 9t56 23l23-65q-25-14-59.5-25.5T258-9Q152-9 100.5 31T49 140q0 51 24.5 80t81.5 44v4q-42 14-64.5 44T68 383q0 62 45 93t121 31q57 0 97-13t70-30l-23-62q-18 11-50.5 23T256 437q-54 0-81-16t-27-55q0-16 8.5-30.5t22.5-25q14-10.5 31.5-16.5t35.5-6h70v-65zM93 633q0 23 13.5 37t35.5 14q22 0 35.5-14t13.5-37q0-21-13.5-35T142 584q-22 0-35.5 14T93 633zm192 0q0 23 13.5 37t35.5 14q23 0 36.5-14t13.5-37q0-21-13.5-35T334 584q-22 0-35.5 14T285 633z"/><glyph unicode="" horiz-adv-x="291" d="M104 700h83V0h-83zm-20 97q0 21 16.5 36.5T146 849q29 0 46.5-15.5T210 797q0-23-17.5-38T146 744q-29 0-45.5 15T84 797z"/><glyph unicode="" horiz-adv-x="268" d="M94 500h80V0H94z"/><glyph unicode="" horiz-adv-x="517" d="M85 700h381v-74H168V387h278v-74H168V0H85z"/><glyph unicode="" horiz-adv-x="413" d="M369 430H157V277h187v-70H157V0H77v500h292z"/><glyph unicode="" horiz-adv-x="571" d="M533 29Q507 9 470 0t-80-11l-14-168h-52L305-7q-53 8-98.5 33t-79 69Q94 139 75 202.5T56 350q0 98 26.5 166.5t70 112Q196 672 250 692t110 20q60 0 98-6.5t65-17.5l-20-73q-48 23-137 23-41 0-81-15t-71.5-49Q182 540 163 485t-19-135q0-72 18-126t49.5-90q31.5-36 74-53.5T378 63q45 0 78.5 8.5T513 94z"/><glyph unicode="" horiz-adv-x="451" d="M418 33Q374 1 309-8l-14-171h-52L224-10q-48 6-81 27T89 71.5q-21 33.5-30.5 79T49 250q0 127 56 194.5T266 512q48 0 81.5-7.5T408 483l-23-69q-23 13-51 20.5t-60 7.5q-142 0-142-192 0-38 7.5-72.5t25-61Q182 90 210.5 74T281 58q36 0 64.5 11T392 94z"/><glyph unicode="" horiz-adv-x="654" d="M85 700q19 3 42.5 4.5t49 2q25.5.5 50 1t45.5.5q84 0 145.5-26T519 609.5Q559 563 578.5 498T598 355q0-71-18.5-136.5t-58.5-116q-40-50.5-104-81T262-9q-16 0-41.5.5t-52.5 2Q141-5 118-4T85-1zm189-66h-28.5q-15.5 0-30.5-1t-27.5-2q-12.5-1-19.5-2V69q5-1 19-1.5t29-1 29-1q14-.5 19-.5 70 0 117.5 24t76 64.5q28.5 40.5 40.5 93T510 355q0 49-11 98.5T461 543q-27 40-72.5 65.5T274 634zm56 236h114v-21l-163-97h-69z"/><glyph unicode="" horiz-adv-x="547" d="M461 172q0-51 1-92.5T471-2h-54l-20 71h-4q-20-35-58-58t-89-23Q146-12 97.5 51T49 248q0 128 60.5 194.5T276 509q37 0 58.5-4t46.5-13v208h80zM259 58q51 0 81 26.5t41 80.5v248q-18 14-41 20t-61 6q-69 0-108-45.5T132 248q0-41 6.5-76t21.5-60q15-25 39.5-39.5T259 58zm285 642h89v-21L532 551h-47z"/><glyph unicode="" horiz-adv-x="672" d="M504 321H168V0H85v700h83V395h336v305h83V0h-83zM379 870h114v-21l-163-97h-69z"/><glyph unicode="" horiz-adv-x="547" d="M398 0v285q0 39-4.5 68.5t-16.5 49Q365 422 344.5 432T291 442q-47 0-85-30.5T157 333V0H77v700h80V444h4q26 31 62.5 49.5T314 512q42 0 73-9.5t51.5-33.5q20.5-24 30-64.5T478 302V0zm-77 720h89v-21L309 571h-47z"/><glyph unicode="" horiz-adv-x="517" d="M499 0H85v700h83V74h331zM301 700h89v-21L289 551h-47z"/><glyph unicode="" horiz-adv-x="292" d="M166 123q0-35 12-50t34-15q13 0 28 2t34 9l9-63q-16-8-44.5-13T189-12q-45 0-74 25.5T86 100v600h80zm88 577h89v-21L242 551h-47z"/><glyph unicode="" horiz-adv-x="555" d="M537 626H319V0h-83v626H18v74h519zM350 870h114v-21l-163-97h-69z"/><glyph unicode="" horiz-adv-x="339" d="M11 500h78v99l80 23V500h136v-70H169V153q0-52 13-73.5T226 58q26 0 44 5.5T310 78l18-61Q301 4 269-4t-69-8q-61 0-86 34.5T89 138v292H11zm274 200h89v-21L273 551h-47z"/><glyph unicode="" horiz-adv-x="568" d="M267 219l24-106h1l26 108 169 479h83L305-11h-37L-2 700h91zm78 651h114v-21l-163-97h-69z"/><glyph unicode="" horiz-adv-x="482" d="M221 207l28-95h1l25 97 112 291h86L260-11h-34L9 500h92zm44 513h89v-21L253 571h-47z"/><glyph unicode="" horiz-adv-x="541" d="M139 331v70h38q13 0 26.5 1t26 1.5q12.5.5 20.5 2.5 26 4 49 13.5t40 24.5q17 15 27 35t10 44q0 33-11 55t-30.5 35.5q-19.5 13.5-45 19T235 638q-54 0-92-7.5T82 612l-22 66q20 11 72 22.5T249 712q40 0 78.5-8.5t69-28q30.5-19.5 49-53T464 540q0-50-33-95.5T332 379v-4q71-10 112-53t41-115q0-57-22.5-98.5t-59-68.5Q367 13 319.5.5T223-12q-66 0-108.5 7.5T44 14l21 75q23-11 64.5-19T230 62q31 0 61 8.5t53.5 26q23.5 17.5 38 43.5t14.5 62q0 63-44 92.5T238 329q-12 1-22.5 1.5t-21.5.5z"/><glyph unicode="" horiz-adv-x="434" d="M116 152v65h70q18 0 36 9.5t32 25.5q14 16 23 37t9 44q0 56-28 80t-83 24q-39 0-70-11.5T56 403l-23 62q30 17 69.5 29.5T198 507q78 0 123-39t45-114q0-30-8.5-55T336 253.5Q323 233 307 219t-31-21v-4q25-9 47-22.5t38-35Q377 115 386 84t9-74q0-51-17-91.5t-47-69Q301-179 260.5-194T173-209q-51 0-84 9t-60 22l23 66q23-13 53.5-20t54.5-7q32 0 60 9t49 28q21 19 33.5 48T315 14q0 70-43 104t-112 34z"/><glyph unicode="" horiz-adv-x="541" d="M139 331v70h38q13 0 26.5 1t26 1.5q12.5.5 20.5 2.5 26 4 49 13.5t40 24.5q17 15 27 35t10 44q0 33-11 55t-30.5 35.5q-19.5 13.5-45 19T235 638q-54 0-92-7.5T82 612l-22 66q20 11 72 22.5T249 712q40 0 78.5-8.5t69-28q30.5-19.5 49-53T464 540q0-50-33-95.5T332 379v-4q71-10 112-53t41-115q0-57-22.5-98.5t-59-68.5Q367 13 319.5.5T223-12q-66 0-108.5 7.5T44 14l21 75q23-11 64.5-19T230 62q31 0 61 8.5t53.5 26q23.5 17.5 38 43.5t14.5 62q0 63-44 92.5T238 329q-12 1-22.5 1.5t-21.5.5zm128 415h-58L82 849v21h82l59-50 17-34 19 33 63 51h78v-22z"/><glyph unicode="" horiz-adv-x="434" d="M116 152v65h70q18 0 36 9.5t32 25.5q14 16 23 37t9 44q0 56-28 80t-83 24q-39 0-70-11.5T56 403l-23 62q30 17 69.5 29.5T198 507q78 0 123-39t45-114q0-30-8.5-55T336 253.5Q323 233 307 219t-31-21v-4q25-9 47-22.5t38-35Q377 115 386 84t9-74q0-51-17-91.5t-47-69Q301-179 260.5-194T173-209q-51 0-84 9t-60 22l23 66q23-13 53.5-20t54.5-7q32 0 60 9t49 28q21 19 33.5 48T315 14q0 70-43 104t-112 34zm102 398h-37L66 732h78l39-66 21-58 22 58 45 66h70z"/><glyph unicode="" horiz-adv-x="194" d="M155 373q0-23-15-36.5T102 323q-27 0-44.5 18T40 394q0 33 9.5 56.5t23 40Q86 507 100.5 517t25.5 14l25-35q-22-11-35.5-29.5T102 420q4 1 11 1 20 0 31-14t11-34z"/><glyph unicode="" horiz-adv-x="194" d="M40 482q0 23 14.5 36T92 531q28 0 45.5-17.5T155 461q0-33-9.5-57t-23-40.5Q109 347 94 337t-26-14l-25 34q23 12 36 30t13 47q-4-1-11-1-19 0-30 13.5T40 482z"/><glyph unicode="" horiz-adv-x="340" d="M301 373q0-23-15-36.5T248 323q-27 0-44.5 18T186 394q0 33 9.5 56.5t23 40q13.5 16.5 28 26.5t25.5 14l25-35q-22-11-35.5-29.5T248 420q4 1 11 1 20 0 31-14t11-34zm-146 0q0-23-15-36.5T102 323q-27 0-44.5 18T40 394q0 33 9.5 56.5t23 40Q86 507 100.5 517t25.5 14l25-35q-22-11-35.5-29.5T102 420q4 1 11 1 20 0 31-14t11-34z"/><glyph unicode="" horiz-adv-x="340" d="M186 482q0 23 14.5 36t37.5 13q28 0 45.5-17.5T301 461q0-33-9.5-57t-23-40.5Q255 347 240 337t-26-14l-25 34q23 12 36 30t13 47q-4-1-11-1-19 0-30 13.5T186 482zm-146 0q0 23 14.5 36T92 531q28 0 45.5-17.5T155 461q0-33-9.5-57t-23-40.5Q109 347 94 337t-26-14l-25 34q23 12 36 30t13 47q-4-1-11-1-19 0-30 13.5T40 482z"/><glyph unicode="" horiz-adv-x="218" d="M90 525h78l-31-193H90z"/><glyph unicode="" horiz-adv-x="335" d="M207 525h78l-31-193h-47zm-117 0h78l-31-193H90z"/><glyph unicode="" horiz-adv-x="394" d="M179 595l7 36-28-28-78-47-27 49 154 102h42V280h-70z"/><glyph unicode="" horiz-adv-x="235" d="M60-102q0 21 15.5 34T111-55q25 0 44.5-17.5T175-130q0-26-9-45.5t-21.5-34q-12.5-14.5-26-23T95-245l-28 32q20 11 32 28t12 41q-4-1-10-1-18 0-29.5 12T60-102z"/><glyph unicode="" horiz-adv-x="352" d="M178 870h114v-21l-163-97H60z"/><glyph unicode="" horiz-adv-x="438" d="M245 746h-58L60 849v21h82l59-50 17-34 19 33 63 51h78v-22z"/><glyph unicode="" horiz-adv-x="418" d="M60 794q0 21 15 34t39 13q23 0 37.5-13t14.5-34q0-20-14.5-33T114 748q-24 0-39 13t-15 33zm192 0q0 21 14.5 34t37.5 13q24 0 39-13t15-34q0-20-15-33t-39-13q-23 0-37.5 13T252 794z"/><glyph unicode="" horiz-adv-x="352" d="M292 752h-74L60 849v21h114z"/><glyph unicode="" horiz-adv-x="445" d="M124 850h93v-16l-100-93H60zm162 0h99v-16l-143-93h-58z"/><glyph unicode="" horiz-adv-x="436" d="M60 843h316v-62H60z"/><glyph unicode="" horiz-adv-x="454" d="M139 870q4-37 28-57t64-20q40 0 63.5 20t28.5 56l71-17q-11-54-50.5-85.5T230 735q-71 0-116.5 27.5T60 850z"/><glyph unicode="" horiz-adv-x="430" d="M128 702q10-46 34.5-64t56.5-18q32 0 57 19t34 62l60-19q-9-58-51.5-89T217 562q-27 0-53.5 7T116 590q-21 14-36 36t-20 52z"/><glyph unicode="ﬁ" horiz-adv-x="540" d="M462 500V0h-80v430H180V0h-80v430H22v70h78v28q0 94 46.5 136.5T283 707q59 0 105-11.5t72-27.5l-27-64q-27 17-64 25t-79 8q-37 0-58.5-8.5t-33-26Q187 585 183.5 559t-3.5-59z"/><glyph unicode="ﬂ" horiz-adv-x="583" d="M376 634q-15 3-43 5.5t-55 2.5q-34 0-53.5-9.5t-29.5-28q-10-18.5-12.5-45T180 500h103v-70H180V0h-80v430H22v70h78v28q0 94 40.5 139T276 712q20 0 45-1.5t50.5-4q25.5-2.5 48-5.5t36.5-7V123q0-35 12.5-50T502 58q14 0 29 2t34 9l8-63q-8-4-19.5-7.5T529-7q-13-2-26-3.5T480-12q-45 0-74.5 25.5T376 100z"/><glyph horiz-adv-x="0"/></font>
</defs>
</svg>
