<svg xmlns="http://www.w3.org/2000/svg"><defs><font id="PTSans-BoldItalic" horiz-adv-x="513"><font-face ascent="1018" descent="276"/><glyph horiz-adv-x="253"/><glyph horiz-adv-x="253"/><glyph unicode="!" horiz-adv-x="283" d="M217 700h128l-70-329-59-163h-78l9 163zM74 66q0 35 22 55.5t58 20.5q37 0 59-20.5T235 66q0-35-22-56t-59-21q-36 0-58 21T74 66z"/><glyph unicode="&quot;" horiz-adv-x="354" d="M115 700h108l-79-216H69zm141 0h108l-79-216h-75z"/><glyph unicode="#" horiz-adv-x="545" d="M318 205h-89L193 51H86l36 154H48l22 97h75l25 106H98l22 97h73l35 144h107l-35-144h89l35 144h107l-35-144h72l-25-97h-70l-25-106h69l-24-97h-68L389 51H282zm-66 97h89l25 106h-89z"/><glyph unicode="$" horiz-adv-x="545" d="M192-10q-52 7-84 23T59 43l47 97q14-10 42.5-23T215 97l47 221q-23 15-45 32.5t-39.5 40q-17.5 22.5-28 51T139 508q0 48 16.5 84t45 61q28.5 25 65.5 39t79 19l20 89h99l-19-90q38-5 67-14.5t50-20.5l-50-102q-14 8-38 16t-53 13l-43-203q23-16 46-34t41-41.5q18-23.5 29-53t11-67.5q0-48-16-85.5T444.5 53q-28.5-27-68-43T290-11l-18-89h-99zm80 104q53 4 78 31t25 63q0 32-18 54t-45 42zm92 512q-48-2-71.5-25T269 524q0-29 16.5-49.5T328 434z"/><glyph unicode="%" horiz-adv-x="804" d="M54 499q0 54 18.5 94t48.5 66.5q30 26.5 66.5 39.5t72.5 13q66 0 100.5-30.5T395 592q0-57-17-98.5T332 425q-29-27-66.5-40T188 372q-62 0-98 34.5T54 499zm110 6q-1-22 10-35.5t32-13.5q33 0 56 34.5t23 88.5q0 49-43 49-17 0-31-10t-25-26.5q-11-16.5-17-39t-5-47.5zm256-378q0 54 18.5 94t48.5 66.5q30 26.5 66.5 39.5t72.5 13q66 0 100.5-30.5T761 220q0-57-17-98.5T698 53q-29-27-66.5-40T554 0q-62 0-98 34.5T420 127zm110 6q-1-22 10-35.5T572 84q33 0 56 34.5t23 88.5q0 49-43 49-17 0-31-10t-25-26.5q-11-16.5-17-39t-5-47.5zm126 581l73-66L153-14 80 55z"/><glyph unicode="&amp;" horiz-adv-x="783" d="M73 162q0 46 18.5 87t49 75q30.5 34 69 61.5T289 433q-17 33-21.5 60t-4.5 54q0 33 11 63t35 53q24 23 61 37t88 14q40 0 65.5-10t40.5-26.5q15-16.5 20.5-37T590 600q0-51-40.5-97.5T434 415q22-54 45.5-99t55.5-89q26 25 52 62.5t48 76.5l79-50q-10-18-25-39.5T657.5 233q-16.5-22-33-41.5T595 158q24-29 52.5-54.5T704 66l-87-96q-15 6-31 17.5t-31.5 25Q539 26 525 41t-24 29q-43-33-99.5-58.5T270-14q-46 0-82.5 13.5t-62 37Q100 60 86.5 92T73 162zm370-13q-37 53-66 105.5T329 354q-59-40-92.5-80.5T203 186q0-42 27-66t80-24q38 0 74.5 16.5T443 149zm-59 404q0-22 3.5-37.5T402 476q42 25 65 49t23 51q0 19-9 30t-34 11q-31 0-47-19t-16-45z"/><glyph unicode="'" horiz-adv-x="218" d="M137 700h108l-79-216H91z"/><glyph unicode="(" horiz-adv-x="310" d="M157-218q-29 38-47 77.5T81-62Q70-23 66 14.5T62 87q0 96 23 186.5t61.5 171Q185 525 236 593t107 119l64-54q-47-52-87.5-116.5T249 404q-30-73-47.5-151.5T184 94q0-63 9-124.5T234-164z"/><glyph unicode=")" horiz-adv-x="310" d="M183 711q45-60 65.5-135.5T269 409q0-96-22.5-187t-61-172q-38.5-81-89-150T-10-220l-67 55q45 50 86 115.5T80.5 90Q111 164 129 242t18 153q0 83-12 146.5T96 655z"/><glyph unicode="*" horiz-adv-x="356" d="M182 731l28-46 15-59 15 55 28 49 63-35-30-52-47-43 64 16h57v-73h-54l-61 16 50-47 25-42-64-37-27 46-20 64-13-58-29-49-65 37 30 49 45 37-55-16H78v74h59l59-17-50 44-28 50z"/><glyph unicode="+" horiz-adv-x="505" d="M58 394h162v169h117V394h163V282H337V111H220v171H58z"/><glyph unicode="," horiz-adv-x="226" d="M60-5Q43-4 28 12T13 54q0 40 25.5 62T99 138q35 0 52-22.5T168 64v-2q-1-49-20-85.5t-45.5-62q-26.5-25.5-55-41T0-148l-26 54Q3-83 27-58T60-5z"/><glyph unicode="-" horiz-adv-x="343" d="M81 340h239l-25-104H56z"/><glyph unicode="." horiz-adv-x="251" d="M33 66q0 35 22 55.5t58 20.5q37 0 59-20.5T194 66q0-35-22-56t-59-21q-36 0-58 21T33 66z"/><glyph unicode="/" horiz-adv-x="388" d="M432 712l86-46L8-142l-85 48z"/><glyph unicode="0" horiz-adv-x="545" d="M55 229q0 104 23.5 192.5T144 575q42 65 99.5 102T369 714q39 0 73.5-12t60.5-40q26-28 41-75t15-116q0-93-21.5-180.5t-62-155Q435 68 376.5 27T245-14q-49 0-85 19t-59 51.5q-23 32.5-34.5 77T55 229zm124 1q0-41 7-67t18.5-41q11.5-15 27.5-20.5t34-5.5q35 0 65.5 33t53.5 86q23 53 36.5 119.5T435 469q0 31-3.5 56t-13 42.5q-9.5 17.5-25.5 27t-41 9.5q-33 0-64-31t-55.5-82.5Q208 439 193.5 371T179 230z"/><glyph unicode="1" horiz-adv-x="545" d="M81 110h132l85 395 28 68-58-59-97-62-39 77 257 183h70L331 110h129L437 0H58z"/><glyph unicode="2" horiz-adv-x="545" d="M540 560q0-56-26-113.5T448 334q-40-55-88-104t-91-88l-59-41v-5l70 14h179L436 0H36l14 67q28 26 66 61.5t79 76q41 40.5 80.5 84T346 374q31 42 50.5 81t19.5 71q0 33-17 54t-65 21q-31 0-63.5-14.5T206 549l-30 94q48 35 96.5 53T385 714q74 0 114.5-42.5T540 560z"/><glyph unicode="3" horiz-adv-x="545" d="M193 389l147 165 64 45-76-9H169l24 110h363l-15-71-171-190-48-27v-5l40 6q20-2 42.5-12t41.5-29.5q19-19.5 31.5-50T490 247q0-57-18.5-105T416 59.5q-37-34.5-92-54T197-14q-43 0-87 8T41 17l57 111q20-13 49-21t67-8q39 0 67.5 11t47.5 29q19 18 28 41.5t9 47.5q0 48-25.5 70T248 320h-70z"/><glyph unicode="4" horiz-adv-x="545" d="M535 195H430L389 0H274l41 195H28l15 74 393 436h102l-86-407h105zM370 452l26 84h-3l-48-72-126-135-55-38 62 7h111z"/><glyph unicode="5" horiz-adv-x="545" d="M201 99q42 0 72 12t49.5 32q19.5 20 29 46t9.5 55q0 50-30.5 71T229 336l-77-3 77 367h327l-25-122H311l-29-138 37 4q40 0 70.5-13t51.5-36q21-23 32-55t11-69q0-138-78-211.5T182-14q-20 0-41 2.5T100.5-5Q81-1 64.5 4.5T36 16l56 106q20-10 45.5-16.5T201 99z"/><glyph unicode="6" horiz-adv-x="545" d="M516 255q0-54-16-103t-48.5-85.5Q419 30 370 8T256-14q-32 0-66.5 11.5t-63 38Q98 62 80 105T62 211q0 102 38 190.5t100.5 155Q263 623 343 664t165 50l7-103q-50-8-98-28.5t-89.5-52Q286 499 254 459t-49-86q27 29 66.5 44t81.5 15q77 0 120-48.5T516 255zm-122-23q0 40-20.5 65T305 322q-38 0-71-17t-50-43q-2-10-3.5-22.5T179 219q0-54 22.5-88.5T271 96q57 0 90 38t33 98z"/><glyph unicode="7" horiz-adv-x="545" d="M62 0l329 539 51 49-58-10H149l25 122h430l-8-38L191 0z"/><glyph unicode="8" horiz-adv-x="545" d="M54 153q0 38 13 70.5t35 59q22 26.5 51 46.5t61 32q-14 13-26.5 26.5t-22 30.5q-9.5 17-15 39.5T145 510q0 49 18.5 87.5t50.5 64q32 25.5 74 39t89 13.5q84 0 128-43.5T549 559q0-35-11.5-63.5t-31-52.5q-19.5-24-45-43.5T408 365q45-35 64.5-74.5T492 205q0-51-18.5-91.5t-51.5-69Q389 16 343 1T242-14q-39 0-73.5 11t-60 32Q83 50 68.5 81T54 153zm320 37q0 23-7.5 41t-20 32.5Q334 278 317 290.5T282 314q-51-26-81-60.5T171 177q0-35 21-58t69-23q22 0 42.5 6t36.5 17.5q16 11.5 25 29t9 41.5zM263 511q0-35 22-59.5t56-44.5q18 13 34 28t28.5 31q12.5 16 20 33t7.5 33q0 36-18 54t-51 18q-42 0-70.5-24T263 511z"/><glyph unicode="9" horiz-adv-x="545" d="M99 456q0 60 20 108t55.5 81q35.5 33 83 51T361 714q42 0 78-13t62.5-40.5q26.5-27.5 42-69T559 493q0-80-20.5-147.5t-55-122.5q-34.5-55-80-98T308 52Q258 22 206.5 5.5T109-14l-6 102q55 10 103.5 31.5t87.5 51q39 29.5 67.5 66T406 312q-29-23-63-34.5T261 266q-28 0-57 10.5t-52 33q-23 22.5-38 59T99 456zm122 19q0-29 7.5-48t20.5-31q13-12 28.5-17t32.5-5q38 0 71 12t52 32q3 11 5.5 31t2.5 29q0 57-22.5 92.5T345 606q-24 0-46-7.5T259.5 575q-17.5-16-28-41T221 475z"/><glyph unicode=":" horiz-adv-x="314" d="M90 66q0 35 22 55.5t58 20.5q37 0 59-20.5T251 66q0-35-22-56t-59-21q-36 0-58 21T90 66zm75 362q0 35 22 55.5t58 20.5q37 0 59-20.5t22-55.5q0-35-22-56t-59-21q-36 0-58 21t-22 56z"/><glyph unicode=";" horiz-adv-x="307" d="M138-5q-17 1-32 17T91 54q0 40 25.5 62t60.5 22q35 0 52-22.5T246 64v-2q-1-49-20-85.5t-45.5-62q-26.5-25.5-55-41T78-148L52-94q29 11 53 36t33 53zm20 433q0 35 22 55.5t58 20.5q37 0 59-20.5t22-55.5q0-35-22-56t-59-21q-36 0-58 21t-22 56z"/><glyph unicode="&lt;" horiz-adv-x="505" d="M51 285v70l386 231 57-90-224-139-91-35 90-31 230-137-57-90z"/><glyph unicode="=" horiz-adv-x="505" d="M58 490h442V378H58zm0-192h442V186H58z"/><glyph unicode="&gt;" horiz-adv-x="505" d="M508 365v-70L121 64l-56 91 223 138 91 36-90 30L60 497l56 89z"/><glyph unicode="?" horiz-adv-x="430" d="M127 208q6 54 24.5 92.5t43 67q24.5 28.5 52 50t50 41.5q22.5 20 37.5 41t15 49q0 27-15.5 42T278 606q-31 0-68-13.5T145 560l-31 94q41 25 89 42.5T320 714q84 0 123-35.5t39-95.5q0-53-16-89.5t-41-64q-25-27.5-55-49T312.5 335Q285 311 263 281t-30-73zM82 66q0 35 22 55.5t58 20.5q37 0 59-20.5T243 66q0-35-22-56t-59-21q-36 0-58 21T82 66z"/><glyph unicode="@" horiz-adv-x="1059" d="M706 484h70l-49-271q-2-12-3-22.5t-1-18.5q0-48 37-48 26 0 51.5 12t45.5 37q20 25 32 63t12 90q0 75-25 128.5t-68.5 88Q764 577 705 593t-126 16q-78 0-145.5-28t-117-77.5Q267 454 239 386.5T211 240q0-78 23.5-140t69-106q45.5-44 112-67.5T568-97q29 0 66 7.5T701-68l31-96q-42-20-84-28t-97-8q-98 0-180.5 28T228-89q-60 55-94 136.5T100 236q0 109 39 197t105 150q66 62 153 95.5T581 712q92 0 171-26.5t137-76q58-49.5 91-121t33-162.5q0-64-23-120t-62-97q-39-41-91.5-65T724 20q-25 0-46.5 5.5T641 44q-15 13-22 34t-4 52h-4q-15-21-32-41t-38-35.5Q520 38 495 29t-55-9q-25 0-46.5 10.5T356 60q-16 19-25.5 46t-9.5 60q0 62 20 120.5T395 390q34 45 79.5 72.5T571 490q35 0 59-10.5t45-27.5zm-63-121q-14 11-28 17.5t-34 6.5q-30 0-55.5-17.5t-44-44.5q-18.5-27-29-60.5T442 199q0-33 14-54.5t47-21.5q14 0 30 8.5t31 23q15 14.5 28.5 32.5t24.5 38z"/><glyph unicode="A" horiz-adv-x="582" d="M387 155H183L100 0H-38l389 705h96L538 0H407zM240 265h142l-16 156 1 110h-5l-40-111z"/><glyph unicode="B" horiz-adv-x="568" d="M166 695q19 3 43 6t51 5q27 2 55.5 3t55.5 1q46 0 85.5-9.5t68-29.5q28.5-20 45-51.5T586 544q0-33-11-63.5T543.5 426q-20.5-24-49-40T430 365v-5q19-4 38-14.5t34-27q15-16.5 24-39t9-50.5q0-64-25-109.5t-67-74q-42-28.5-98-42T227-10h-41.5Q160-10 131-8.5T73-4Q44-1 20 5zm1-586q4-2 14.5-3t23-1.5q12.5-.5 25.5-1t22-.5q25 0 51.5 6t48 20q21.5 14 35.5 36t14 54q0 25-11 41t-29 25.5q-18 9.5-41.5 13T271 302h-64zm63 297h43q14 0 33 .5t32 2.5q18 3 38.5 10t37 20q16.5 13 27.5 33t11 50q0 43-28.5 59T351 597q-26 0-48-1t-34-3z"/><glyph unicode="C" horiz-adv-x="537" d="M483 29q-67-43-164-43-66 0-115 22t-81.5 61Q90 108 74 160T58 272q0 118 33 201.5t87 137Q232 664 301.5 689T444 714q57 0 97.5-8.5T605 686l-51-116q-20 11-48 16.5t-71 5.5q-51 0-95-21t-76-60q-32-39-50.5-95T195 289q0-85 42.5-133T351 108q45 0 74.5 9.5T481 141z"/><glyph unicode="D" horiz-adv-x="620" d="M168 700q21 3 46 5t46.5 3q21.5 1 37.5 1 9 0 25.5.5t36.5.5q61 0 111-15.5t85.5-47.5q35.5-32 55-82T631 446q0-44-7.5-94.5T598 250q-18-51-49.5-98t-79-83q-47.5-36-114-58T201-11q-15 0-30 .5t-21 .5q-20 1-44.5 2.5l-49 3Q32-3 20-1zm6-586q4-1 12.5-1.5t18.5-1q10-.5 19-.5h14q70 0 119 31.5t79.5 79q30.5 47.5 44 103T494 428q0 80-33.5 120T349 588q-20 0-42-1t-34-3z"/><glyph unicode="E" horiz-adv-x="503" d="M168 700h394l-26-122H272l-35-163h241l-27-122H212l-37-171h269L419 0H20z"/><glyph unicode="F" horiz-adv-x="489" d="M168 700h394l-26-122H272l-37-173h243l-25-122H210L150 0H20z"/><glyph unicode="G" horiz-adv-x="585" d="M369 365h210L513 53q-45-35-94.5-51T312-14q-55 0-101.5 19T130 60q-34 36-53 89T58 270q0 115 31.5 199T175 607.5Q229 662 301 688t152 26q57 0 101.5-9.5T622 685l-52-115q-21 10-52.5 16t-76.5 6q-53 0-98-20t-78-59q-33-39-51.5-96.5T195 285q0-83 39-130t105-47q49 0 86 25l28 133-102 16z"/><glyph unicode="H" horiz-adv-x="624" d="M455 293H212L150 0H20l148 700h130l-60-285h243l60 285h130L523 0H393z"/><glyph unicode="I" horiz-adv-x="278" d="M183 700h129L164 0H35z"/><glyph unicode="J" horiz-adv-x="324" d="M239 700h130L260 188q-9-42-23-78.5T200 46q-23-27-57.5-42.5T59-12Q31-12 0-6t-51 17l50 112q23-13 54-13 21 0 35 8.5t23.5 23.5q9.5 15 15.5 35.5t12 45.5z"/><glyph unicode="K" horiz-adv-x="593" d="M260 299h-47L150 0H20l148 700h130l-66-310 31 11 237 299h156L404 403l-60-35 44-39L540 0H395z"/><glyph unicode="L" horiz-adv-x="495" d="M441 0H20l148 700h130L175 122h291z"/><glyph unicode="M" horiz-adv-x="767" d="M613 363l44 138h-6l-66-113-197-259h-41l-94 262-18 110h-5l-10-137L143 0H20l148 700h115l105-320 13-80h5l46 82 236 318h125L665 0H536z"/><glyph unicode="N" horiz-adv-x="631" d="M267 366l-33 112h-5l-9-112L143 0H20l150 705h90l172-374 31-109h6l7 109 79 369h123L528-5h-90z"/><glyph unicode="O" horiz-adv-x="644" d="M58 262q0 93 25.5 175.5t72.5 144q47 61.5 113.5 97T418 714q54 0 97.5-16t74-49.5Q620 615 637 564t17-121q0-94-25.5-177t-72-145.5Q510 58 445.5 22T303-14q-118 0-181 69.5T58 262zm137 4q0-72 27.5-115t90.5-43q46 0 83.5 27.5t64.5 74Q488 256 502.5 316T517 441q0 79-31 115t-85 36q-45 0-82.5-26t-65-70.5q-27.5-44.5-43-104T195 266z"/><glyph unicode="P" horiz-adv-x="550" d="M167 693q42 8 89.5 12.5T352 710q51 0 94.5-11.5t76-35.5q32.5-24 50.5-61.5t18-89.5q0-78-27-130.5t-71.5-85Q448 264 391 250.5T275 237h-15.5q-10.5 0-22 .5t-22 1.5q-10.5 1-15.5 2L150 0H20zm59-334q4-1 11-2t15.5-1.5q8.5-.5 16-.5H280q34 0 65.5 7.5t55.5 24q24 16.5 38.5 43.5t14.5 66q0 29-9.5 48T419 573.5Q403 584 381.5 588t-45.5 4q-18 0-34.5-1.5T274 587z"/><glyph unicode="Q" horiz-adv-x="644" d="M58 262q0 93 25.5 175.5t72.5 144q47 61.5 113.5 97T418 714q54 0 97.5-16t74-49.5Q620 615 637 564t17-121q0-94-25.5-177t-72-145.5Q510 58 445.5 22T303-14q-118 0-181 69.5T58 262zm137 4q0-72 27.5-115t90.5-43q46 0 83.5 27.5t64.5 74Q488 256 502.5 316T517 441q0 79-31 115t-85 36q-45 0-82.5-26t-65-70.5q-27.5-44.5-43-104T195 266zm432-468q-48-13-95-13-48 0-92 10.5T355.5-182Q315-170 278-159.5T205-149q-23 0-45-6l25 118q28 6 56 6 40 0 77.5-10t76-21.5Q433-74 474-84t88-10q21 0 43.5 2.5T652-83z"/><glyph unicode="R" horiz-adv-x="584" d="M167 693q48 9 97 13t88 4q46 0 87-11t71-33.5q30-22.5 47.5-58T575 524q0-55-16.5-95.5t-43.5-68q-27-27.5-61.5-43T383 297l39-31L519 0H375l-96 274-69 13L150 0H20zm63-313h53q29 0 57 5.5t49.5 20q21.5 14.5 35 38.5t13.5 61q0 34-23 58.5T341 588q-20 0-37.5-1.5T274 583z"/><glyph unicode="S" horiz-adv-x="510" d="M502 559q-19 12-56 24.5T364 596q-23 0-45-4.5T280 577q-17-10-27-26t-10-38q0-29 18-49t45.5-37.5q27.5-17.5 59-35.5t59-42q27.5-24 45.5-57.5t18-82.5q0-59-20.5-101.5t-58-69.5q-37.5-27-90-39.5T203-14q-35 0-66.5 4T78 0Q51 6 30.5 13.5T-2 28l67 116q10-6 26-13t36.5-13q20.5-6 44.5-10t48-4q28 0 53 4.5t43.5 15q18.5 10.5 29 26.5t10.5 40q0 27-18 46t-45.5 36q-27.5 17-59 35.5t-59 43.5Q147 376 129 411.5T111 498q0 58 20.5 99t55.5 67q35 26 82 38t101 12q29 0 58-3t55-8.5q26-5.5 48-13t37-16.5z"/><glyph unicode="T" horiz-adv-x="547" d="M614 578H420L297 0H168l122 578H96l26 122h517z"/><glyph unicode="U" horiz-adv-x="602" d="M531 700h122l-95-452q-15-72-39-121.5T461 46q-34-31-80-44.5T275-12q-58 0-98 13.5T111.5 40Q86 65 74.5 99T63 174q0 20 2.5 41t7.5 44l94 441h129l-92-440q-8-38-8-62 0-48 25-68t73-20q60 0 93 35t50 113z"/><glyph unicode="V" horiz-adv-x="579" d="M288 290l-7-119h4l44 119 216 410h146L296-5h-94L101 700h142z"/><glyph unicode="W" horiz-adv-x="826" d="M249 310l-14-124h5l39 126 198 388h88l29-390-13-124h5l40 126 164 388h140L597-5h-91l-37 389 8 107h-6l-38-108L234-5h-91l-34 705h137z"/><glyph unicode="X" horiz-adv-x="608" d="M256 357L143 700h141l60-202 10-71 37 71 149 202h156L433 362 558 0H419l-72 216-12 74-40-74L134 0H-24z"/><glyph unicode="Y" horiz-adv-x="569" d="M231 260L106 700h144l65-263-2-74h4l31 76 175 261h149L361 261 306 0H177z"/><glyph unicode="Z" horiz-adv-x="518" d="M15 122l360 416 58 40H112l25 122h461l-25-122-362-419-56-37h321L450 0H-11z"/><glyph unicode="[" horiz-adv-x="314" d="M198 700h223l-22-109H294L143-120h105l-24-110H2z"/><glyph unicode="\" horiz-adv-x="424" d="M472-95l-101-45L36 668l103 43z"/><glyph unicode="]" horiz-adv-x="314" d="M145-230H-78l24 110H51l150 711H96l22 109h224z"/><glyph unicode="^" horiz-adv-x="505" d="M266 705h70l185-292H390l-71 122-22 70-25-71-77-121H70z"/><glyph unicode="_" horiz-adv-x="444" d="M-46-117h444v-107H-46z"/><glyph unicode="`" horiz-adv-x="274" d="M305 566h-69l-91 124 7 30h129z"/><glyph unicode="a" horiz-adv-x="503" d="M444 200q-8-38-11.5-77T429 49q0-14 .5-26.5T431-1h-91l-14 86h-4q-11-18-28.5-35.5t-38.5-32Q234 3 210.5-5.5T162-14q-66 0-97.5 43T33 144q0 73 18.5 140T109 402q39 51 98.5 81.5T349 514q35 0 76.5-6.5T506 490zM209 89q18 0 34 7.5t29.5 19.5q13.5 12 24 26t18.5 26l50 233q-11 5-25.5 7.5T311 411q-36 0-64-21.5t-47.5-56Q180 299 170 255.5T160 168q0-32 10.5-55.5T209 89z"/><glyph unicode="b" horiz-adv-x="512" d="M164 700h123l-62-288h4q13 18 30 35.5t37.5 32Q317 494 341 503t53 9q54 0 81-38t27-101q0-95-26.5-167T406 85.5q-43-48.5-97-73T200-12Q139-12 92.5-.5T22 28zm-4-595q11-8 27-11t35-3q25 0 52 16.5t49.5 48.5q22.5 32 37 78.5T375 340q0 69-40 69-20 0-39.5-11T258 370.5Q240 354 225.5 335T202 299z"/><glyph unicode="c" horiz-adv-x="412" d="M393 387q-19 11-39.5 15t-44.5 4q-27 0-52.5-17.5t-46-46Q190 314 178 276t-12-78q0-51 22-77.5T246 94q30 0 55.5 9.5T347 125l23-84q-32-24-74.5-39.5T211-14q-48 0-81.5 14T75 38Q54 62 44 93t-10 65q0 84 24 150t63.5 111.5q39.5 45.5 90 70T315 514q47 0 74.5-9t49.5-20z"/><glyph unicode="d" horiz-adv-x="507" d="M442 176q-9-42-13-78t-4-68V14.5Q425 7 426-1h-84l-14 86h-4q-11-18-28.5-35.5t-38.5-32Q236 3 212.5-5.5T166-14q-62 0-95.5 44T37 151q0 70 19 135t53.5 115.5q34.5 50.5 84 80.5T303 512q29 0 48-3.5t36-11.5l43 203h123zm-77 218q-12 8-27.5 11.5T296 409q-30 0-54.5-20.5t-41.5-55Q183 299 173.5 254t-9.5-94q0-29 13-50t37-21q15 0 30.5 7.5t29 19.5q13.5 12 25 26t18.5 26z"/><glyph unicode="e" horiz-adv-x="466" d="M402 48q-31-26-80-44T208-14q-81 0-127.5 47.5T34 166q0 80 25 144.5T124.5 420q40.5 45 91.5 69.5T318 514q41 0 70.5-10.5t48.5-29q19-18.5 28-42.5t9-51q0-41-21-72t-58.5-51.5Q357 237 304 226.5T188 216q-8 0-15 .5t-15 .5q-2-12-3-21.5t-1-17.5q0-45 23.5-67T244 89q44 0 79 13t53 26zM176 295q28 0 59.5 2t58.5 9.5q27 7.5 45 22t18 39.5q0 15-11 30.5T300 414q-44 0-76.5-34T176 295z"/><glyph unicode="f" horiz-adv-x="294" d="M246 397L172-34q-6-37-17-68.5t-30.5-55Q105-181 75-194.5T1-208q-36 0-70.5 5.5T-129-180l34 91q17-7 34-9t43-2q32 0 49.5 25.5T58 8l63 389H51l22 103h64l13 67q7 37 18 64.5t29.5 46q18.5 18.5 45 27.5t65.5 9q16 0 36.5-1.5t40.5-5q20-3.5 39-8.5t34-12l-29-91q-23 9-47 12t-47 3q-32 0-46.5-19T268 533l-6-33h100l-20-103z"/><glyph unicode="g" horiz-adv-x="505" d="M407 0q-13-59-35-99.5T319.5-165q-30.5-25-70-36T162-212q-35 0-62.5 5T51-195q-21 7-36.5 14.5T-10-167l46 91q9-4 21-9.5t27.5-11q15.5-5.5 36-9T168-109q50 0 79.5 31T290 7l19 78h-4q-23-36-62.5-64.5T153-8Q99-8 65.5 32.5T32 141q0 77 22 144.5t61.5 118Q155 454 209 483t119 29q61 0 106.5-10.5T508 478zm-36 399q-11 6-28 8t-34 2q-32 0-59.5-19T202 338q-20-33-31.5-77.5T159 165q0-32 13.5-51T208 95q17 0 35 10.5t34.5 26.5q16.5 16 29.5 35.5t21 36.5z"/><glyph unicode="h" horiz-adv-x="528" d="M309 0l60 284q10 44 10 73 0 26-10 37.5T338 406q-19 0-40-12t-40-30q-19-18-34.5-38.5T200 288L141 0H18l148 700h123l-63-288h4q13 16 31.5 34t41 33q22.5 15 49 25t57.5 10q48 0 74.5-24t26.5-85q0-37-12-94L432 0z"/><glyph unicode="i" horiz-adv-x="256" d="M133 500h123L150 0H27zm18 142q0 33 21.5 51t54.5 18q32 0 54.5-18t22.5-51q0-32-22.5-50.5T227 573q-33 0-54.5 18.5T151 642z"/><glyph unicode="j" horiz-adv-x="244" d="M123 500h124L136-21q-19-90-64-137.5T-50-206q-31 0-62 7l24 106q25-2 43 4.5T-14.5-68Q-2-54 6.5-32.5T21 16zm17 142q0 33 21.5 51t54.5 18q32 0 54.5-18t22.5-51q0-32-22.5-50.5T216 573q-33 0-54.5 18.5T140 642z"/><glyph unicode="k" horiz-adv-x="465" d="M224 207h-40L141 0H18l148 700h123l-88-413 37 13 141 200h137L367 299l-60-38 45-38L428 0H296z"/><glyph unicode="l" horiz-adv-x="272" d="M168 148q-6-29 .5-43T190 91q28 0 53 11l-3-89Q222 2 188-5t-67-7Q78-12 55.5 4.5T33 66q0 23 6 53l123 581h123z"/><glyph unicode="m" horiz-adv-x="767" d="M283 0l57 272q6 28 9.5 49.5T353 360q0 46-35 46-17 0-34-9t-31.5-23q-14.5-14-27-30.5T205 312L141 0H18l106 500h96l-6-88h4q15 16 32.5 34t39.5 33q22 15 49 25t59 10q40 0 60.5-29t18.5-77q15 19 34.5 38t42 34q22.5 15 48 24.5T654 514q46 0 70.5-21.5T749 412q0-43-15-112L671 0H548l59 281q5 23 8 43t3 35q0 23-8.5 35T581 406q-16 0-32.5-9.5t-31.5-24Q502 358 489.5 341T470 309L406 0z"/><glyph unicode="n" horiz-adv-x="521" d="M299 0l66 310q6 28 6 49 0 22-9 34.5T329 406q-18 0-36-9t-34-24q-16-15-30-33.5T205 302L141 0H18l106 500h93l-5-88h4q13 16 30.5 34t40.5 33q23 15 51.5 25t64.5 10q45 0 72-24.5t27-81.5q0-15-1.5-32t-6.5-37L422 0z"/><glyph unicode="o" horiz-adv-x="496" d="M34 162q0 79 22.5 144t60 111q37.5 46 87 71.5T307 514q48 0 81-15t53.5-40q20.5-25 29.5-57t9-66q0-78-22-142.5T399 83q-37-46-86-71.5T210-14q-47 0-80 15.5T75.5 42Q54 67 44 98.5T34 162zm127 17q0-90 65-90 24 0 47 21t41 55q18 34 28.5 77t10.5 86q0 40-13.5 61.5T289 411q-24 0-47-20t-41-52.5Q183 306 172 264t-11-85z"/><glyph unicode="p" horiz-adv-x="506" d="M122 500h91l-5-88h4q14 19 32 37.5t40 32.5q22 14 47 23t54 9q51 0 82-35t31-110q0-85-22.5-155.5t-60-121Q378 42 327.5 14T222-14q-26 0-49 5T139 4L96-200H-26zm38-394q25-17 56-17t59 21q28 21 49.5 56t34 81.5Q371 294 371 345q0 29-13.5 47.5T321 411q-18 0-35-9t-32-22.5Q239 366 227 349t-21-33z"/><glyph unicode="q" horiz-adv-x="501" d="M356-200H236l61 278h-4q-10-17-24.5-33t-33-29.5Q217 2 195-6t-47-8q-33 0-55.5 12.5T56 32.5Q42 54 35.5 81.5T29 139q0 76 24.5 144t67 119q42.5 51 99 80.5T339 512q48 0 93.5-10.5T503 477zm8 599q-14 6-29 8t-30 2q-30 0-57.5-21.5t-47.5-57Q180 295 168 249t-12-94q0-31 11.5-48.5T199 89q19 0 38 11.5t35.5 29q16.5 17.5 30 38T324 206z"/><glyph unicode="r" horiz-adv-x="343" d="M215 500l1-88h4q22 40 53.5 68t79.5 28q21 0 50-8l-31-107q-10 3-19 5t-19 2q-41 0-75.5-26.5T206 312L141 0H18l106 500z"/><glyph unicode="s" horiz-adv-x="396" d="M38 117q20-11 51.5-19.5T156 89q35 0 53.5 13.5T229 144q0 20-12 34.5T186.5 206Q168 219 147 232.5t-39.5 31Q89 281 77 305t-12 58q0 33 13 61t36.5 48q23.5 20 57 31t75.5 11q58 0 96-8.5t60-21.5l-34-94q-20 9-48.5 15t-59.5 6q-32 0-50.5-11T192 365q0-16 12-28.5t30.5-25.5q18.5-13 39.5-26.5t39.5-32.5q18.5-19 30.5-43.5t12-58.5q0-83-54-123.5T158-14q-51 0-93.5 9.5T-1 19z"/><glyph unicode="t" horiz-adv-x="320" d="M64 500h65l20 94 131 37-28-131h117l-23-103H230l-49-226q-6-27-6-44 0-22 10-30t30-8q19 0 34.5 4t32.5 13V14q-11-6-26.5-11.5t-33.5-9Q204-10 185-12t-35-2Q99-14 71.5 9.5T44 81q0 10 1.5 21t3.5 23l58 272H40z"/><glyph unicode="u" horiz-adv-x="512" d="M241 500l-65-309q-6-30-6-50t8-31q8-11 28-11 17 0 34.5 8.5t33.5 22q16 13.5 29.5 30T326 192l64 308h123l-63-300q-5-20-8.5-47T435 97.5Q432 69 431 43t0-43h-99l-5 90h-4q-14-19-32.5-37.5t-41-33.5Q227 4 200.5-5T144-14Q97-14 68 9.5T39 96q0 37 10 81l69 323z"/><glyph unicode="v" horiz-adv-x="448" d="M209 238l2-77h3l30 79 137 260h139L214-5h-76L40 500h136z"/><glyph unicode="w" horiz-adv-x="678" d="M445 500l32-256-1-83h5l30 84 116 255h120L492-5h-91l-35 280v63h-4l-26-64L186-5H92L46 500h126l16-251-6-89h5l34 90 132 250z"/><glyph unicode="x" horiz-adv-x="496" d="M166 256L76 500h139l38-107 13-70 44 70 87 107h143L345 260 445 0H309l-48 120-15 74-45-74L102 0H-41z"/><glyph unicode="y" horiz-adv-x="452" d="M216 219l1-78h6l27 79 136 280h131L277 51Q247-5 220.5-52T167-133q-27-34-56-53t-62-19q-44 0-66 15l33 98q6-3 12.5-4T41-97q24 0 49 23t50 74L46 500h141z"/><glyph unicode="z" horiz-adv-x="435" d="M9 108l225 239 71 45H69l24 108h372l-23-108-230-243-64-41h234L359 0H-13z"/><glyph unicode="{" horiz-adv-x="356" d="M122 96q11 51-4.5 70T65 185l22 100q36 0 60 20.5t33 64.5l44 209q11 54 42 88t85 34h114l-23-110h-48q-26 0-40.5-14T332 531l-41-195q-9-44-34-66.5T205 242l-2-10q25-4 39.5-30t5.5-68L207-60q-7-32 2-46t36-14h47l-24-110H154q-50 0-69 31.5T79-109z"/><glyph unicode="|" horiz-adv-x="232" d="M94 700h106v-830H94z"/><glyph unicode="}" horiz-adv-x="356" d="M266 375q-11-51 5-70t53-19l-21-100q-76 0-94-85l-45-209q-11-54-43.5-88T34-230H-76l24 110h48q25 0 39 13.5T56-60l42 195q9 44 33.5 66.5T184 229l3 10q-26 4-41 30t-6 68l41 194q7 31-1.5 45.5T144 591H98l22 110h113q50 0 69.5-31.5T310 580z"/><glyph unicode="~" horiz-adv-x="505" d="M45 378q47 38 84.5 52.5T199 445q29 0 54-8.5t48-18q23-9.5 45.5-18T392 392q18 0 37 6t40 23l47-103q-36-27-66-38t-56-11q-28 0-52 9t-46.5 20Q273 309 250 318t-49 9q-24 0-51.5-10.5T89 278z"/><glyph horiz-adv-x="253"/><glyph unicode="¡" horiz-adv-x="279" d="M117-200H-10l69 329 59 162h78l-9-162zm-17 635q0 35 22 55.5t58 20.5q37 0 59-20.5t22-55.5q0-35-22-56t-59-21q-36 0-58 21t-22 56z"/><glyph unicode="¢" horiz-adv-x="545" d="M447 41q-21-17-51.5-29.5T333-7l-19-93H199l19 91q-33 7-57 23t-39 38.5Q107 75 100 102t-7 56q0 75 19 135.5T163.5 399q32.5 45 75.5 73t90 37l19 91h115l-20-92q46-9 72-23l-45-98q-11 6-25.5 10t-30.5 6L349 98q22 5 41.5 12t32.5 15zM327 398q-22-9-42.5-27t-36-44q-15.5-26-25-58.5T214 198q0-42 14-65t36-32z"/><glyph unicode="£" horiz-adv-x="545" d="M113 399h70q-5 20-9 43.5t-4 55.5q0 56 21.5 97t57.5 67.5q36 26.5 82 39t95 12.5q45 0 85.5-9.5T575 679l-42-97q-17 9-46.5 16.5T417 606q-24 0-46.5-8.5t-39-24.5Q315 557 305 535t-10-50q0-29 4-48.5t10-37.5h140l-23-103h-95q0-4 .5-6.5t.5-6.5q0-50-21-91t-46-63l-47-30-1-6 67 15h218L478 0H30l24 109h2q30 1 57.5 14t48.5 35.5q21 22.5 33.5 52.5t12.5 65v10q0 5-1 10H90z"/><glyph unicode="¤" horiz-adv-x="545" d="M117 622l78-77 19-37q20 15 47.5 22.5T319 538q29 0 57.5-7.5T424 509l20 36 78 77 77-80-77-78-38-16q15-21 21-47.5t6-55.5q0-30-6.5-56.5T484 244l38-16 77-78-77-80-78 77-18 37q-19-14-48.5-22t-58.5-8q-30 0-57.5 7.5T214 183l-19-36-78-77-76 80 77 78 36 17q-12 21-19 45.5t-7 54.5q0 29 7.5 54t19.5 48l-37 17-77 78zm120-276q0-38 23-62t60-24q37 0 59.5 24t22.5 62q0 36-22.5 61T320 432q-37 0-60-25t-23-61z"/><glyph unicode="¥" horiz-adv-x="545" d="M112 337h85L94 700h152l67-263-3-74h5l30 76 173 261h142L403 337h87l-17-80H348l-12-57h125l-17-80H319L294 0H164l25 120H65l17 80h124l12 57H95z"/><glyph unicode="¦" horiz-adv-x="227" d="M60 213h107v-343H60zm107 144H60v343h107z"/><glyph unicode="§" horiz-adv-x="505" d="M85 123q20-11 50.5-22.5T207 89q35 0 56 13.5t21 37.5q0 16-15.5 27T230 188q-23 10-50.5 21.5T129 237q-23 16-38.5 39.5T75 335q0 45 24 76.5t56 54.5l48 16q-22 16-33 38.5T158 568q0 30 14.5 57t40.5 46.5q26 19.5 62.5 31T355 714q56 0 93-11.5t63-25.5l-37-95q-20 11-53.5 20t-66.5 9q-35 0-54-14.5T281 559q0-17 15.5-27.5t38.5-19q23-8.5 50-17.5t50-24q23-15 38.5-38.5T489 373q0-48-24.5-82.5T410 235l-51-16q23-16 34-36.5t10-52.5q-1-69-55-106.5T205-14q-55 0-97 13.5T42 30zm212 147q23 12 44 32t21 48q0 17-6 28t-18 20q-12 9-31 16.5T263 431q-22-12-41.5-32T202 351q0-31 22.5-48t72.5-33z"/><glyph unicode="¨" horiz-adv-x="472" d="M163 651q0 33 18.5 51.5T229 721q29 0 47.5-18.5T295 651q0-32-18.5-50T229 583q-29 0-47.5 18T163 651zm208 1q0 32 18.5 50.5T437 721q29 0 47.5-18.5T503 652q0-32-18.5-50.5T437 583q-29 0-47.5 18.5T371 652z"/><glyph unicode="©" horiz-adv-x="836" d="M80 290q0 83 28 149.5T184.5 553Q233 600 299 625.5T441 651q76 0 141.5-25.5T697 553q49-47 77-113.5T802 290q0-83-28-149.5T697 27q-49-47-114.5-72.5T441-71q-83 0-150 25.5T177 27q-47 47-72 113.5T80 290zm97 0q0-62 20-112t55-84.5q35-34.5 83.5-53T441 22q57 0 105.5 18.5t84 53q35.5 34.5 55 84.5T705 290q0 62-19.5 112t-55 84.5q-35.5 34.5-84 53T441 558q-57 0-105.5-18.5t-83.5-53Q217 452 197 402t-20-112zm389-159q-22-14-55.5-22.5T439 100q-81 0-123.5 51T273 290q0 91 45.5 140.5T439 480q37 0 65.5-8.5T559 448l-32-86q-18 9-32.5 12t-28.5 3q-29 0-46-19.5T403 290q0-42 18-64.5t52-22.5q19 0 34 3.5t30 11.5z"/><glyph unicode="ª" horiz-adv-x="401" d="M121 674q28 14 72 24t101 10q60 0 84.5-25t24.5-62q0-25-7-56.5T380.5 500q-8.5-33-15-64.5T359 380h-90l-3 46h-3q-14-17-41-33.5T153 376q-23 0-40.5 7t-29 19Q72 414 66 429.5T60 461q0 34 15 56.5t40 36.5q25 14 58 20t69 6q12 0 24-.5t24-1.5q8 25-1 40.5T247 634q-38 0-64.5-7T135 612zm156-150q-8 1-16.5 1.5t-16.5.5q-30 0-51-9t-21-33q0-13 7.5-21.5T201 454q30 0 44.5 11.5T270 489z"/><glyph unicode="«" horiz-adv-x="465" d="M216 261l192 216 57-58-104-122-52-37 33-37 56-121-75-54zm-185-2l200 230 63-64-109-126-60-37 39-39 60-126-77-59z"/><glyph unicode="¬" horiz-adv-x="527" d="M66 412h442V186H388v114H66z"/><glyph unicode="­" horiz-adv-x="343" d="M81 340h239l-25-104H56z"/><glyph unicode="®" horiz-adv-x="693" d="M117 451q0 67 22.5 119.5t61 88.5q38.5 36 90 55T399 733q59 0 110.5-19t90-55q38.5-36 60.5-88.5T682 451q0-68-22.5-120.5T598 242q-39-36-90.5-54.5T399 169q-59 0-110.5 18.5T199 242q-38 36-60 88.5T117 451zm94 0q0-48 15-84t41-60q26-24 60-36t72-12q40 0 74.5 11.5t60 35.5q25.5 24 40 60t14.5 85q0 48-15 84t-41 60q-26 24-60.5 36T399 643q-42 0-76.5-13T263 592q-25-25-38.5-60.5T211 451zm85 130q16 5 45 7.5t55 2.5q42 0 72-17.5t30-60.5q0-32-20.5-49T427 445l28-14 65-109h-61l-63 104-48 15V322h-52zm89-35q-11 0-21-.5t-16-3.5v-71h34q29 0 45 9t16 31q0 35-58 35z"/><glyph unicode="¯" horiz-adv-x="421" d="M157 658h308l-19-92H138z"/><glyph unicode="°" horiz-adv-x="437" d="M121 548q0 37 13 67.5t35.5 52.5q22.5 22 52.5 34t63 12q34 0 64.5-11t53-32.5Q425 649 438 618t13-70q0-39-13-69.5T402.5 427q-22.5-21-53-32T285 384q-33 0-63 11t-52.5 32Q147 448 134 478.5T121 548zm100 0q0-32 19-50.5t46-18.5q27 0 46 18.5t19 50.5q0 32-19 51.5T286 619q-27 0-46-19.5T221 548z"/><glyph unicode="±" horiz-adv-x="505" d="M58 517h162v165h117V517h162V405H337V299H220v106H58zm0-264h441V141H58z"/><glyph unicode="²" horiz-adv-x="402" d="M446 707q-1-60-37.5-110T307 499l-50-25v-4l57 11h101l-22-101H96l16 71q29 18 67 44t71.5 55q33.5 29 56.5 59.5t24 57.5q0 18-9.5 28T286 705q-26 0-51-9t-44-19l-14 90q37 21 76.5 30.5T327 807q57 0 88-26t31-74z"/><glyph unicode="³" horiz-adv-x="402" d="M227 468q49 0 70 18.5t20 41.5q0 21-14 30t-63 10h-41l8 38 85 81 46 24-56-6H174l21 95h269l-14-62-102-93-35-17v-5l27 3q37-2 61-26t24-63q0-42-15.5-73T367 413q-27-20-64-30t-80-10q-36 0-67.5 6.5T104 397l40 90q40-19 83-19z"/><glyph unicode="´" horiz-adv-x="267" d="M210 720h125l-6-30-133-124h-69z"/><glyph unicode="µ" horiz-adv-x="542" d="M238 500l-59-273q-7-31-7-59 0-35 16-53.5T239 96q45 0 76 24t51 65l68 315h123l-72-337q-8-41-14.5-82.5T465 0h-90l-17 74h-3q-24-35-60.5-60.5T208-12q-38 0-56 17t-26 43h-5l-4-115-28-133H-34l148 700z"/><glyph unicode="¶" horiz-adv-x="538" d="M399 700h106v-830H399zM214 294q-33 0-61 16.5t-48.5 45Q84 384 73 420.5T62 498q0 40 13 76.5t37 64.5q24 28 58 44.5t76 16.5h74v-830H214z"/><glyph unicode="·" horiz-adv-x="253" d="M73 316q0 35 22 55.5t58 20.5q37 0 59-20.5t22-55.5q0-35-22-56t-59-21q-36 0-58 21t-22 56z"/><glyph unicode="¸" horiz-adv-x="284" d="M112-43q34-2 52-21t18-48q0-26-11.5-45t-31-31.5Q120-201 93.5-207T37-213q-38 0-77 9l20 48q51-5 70 6t19 25q0 32-78 30L66 0h79z"/><glyph unicode="¹" horiz-adv-x="402" d="M140 480h93l35 164 19 46-35-32-63-37-34 73 175 113h82l-70-327h83l-21-100H119z"/><glyph unicode="º" horiz-adv-x="399" d="M60 499q0 54 18.5 94t48.5 66.5q30 26.5 66.5 39.5t72.5 13q66 0 100.5-30.5T401 592q0-57-17-98.5T338 425q-29-27-66.5-40T194 372q-62 0-98 34.5T60 499zm110 6q-1-22 10-35.5t32-13.5q33 0 56 34.5t23 88.5q0 49-43 49-17 0-31-10t-25-26.5q-11-16.5-17-39t-5-47.5z"/><glyph unicode="»" horiz-adv-x="465" d="M280 270L89 50l-58 57 104 123 52 37-35 38-55 121 76 53zm185-2L265 38l-63 63 109 126 57 43-37 39-62 124 85 56z"/><glyph unicode="¼" horiz-adv-x="840" d="M618 715l85-50L273-14l-86 53zM766 78h-72L677 0h-96l17 78H402l14 67 265 283h87l-55-261h72zM635 253l17 53h-5l-31-49-60-66-41-32 52 8h50zM230 544l20 46-36-32-63-36-37 75 179 110h81l-91-427H174z"/><glyph unicode="½" horiz-adv-x="862" d="M619 715l85-50L274-14l-86 53zm205-388q-1-60-37.5-110T685 119l-50-25v-4l57 11h101L771 0H474l16 71q29 18 67 44t71.5 55q33.5 29 56.5 59.5t24 57.5q0 18-9.5 28T664 325q-26 0-51-9t-44-19l-14 90q37 21 76.5 30.5T705 427q57 0 88-26t31-74zM230 544l20 46-36-32-63-36-37 75 179 110h81l-91-427H174z"/><glyph unicode="¾" horiz-adv-x="864" d="M643 715l85-50L298-14l-86 53zM791 78h-72L702 0h-96l17 78H427l14 67 265 283h87l-55-261h72zM660 253l17 53h-5l-31-49-60-66-41-32 52 8h50zM187 368q49 0 70 18.5t20 41.5q0 21-14 30t-63 10h-41l8 38 85 81 46 24-56-6H134l21 95h269l-14-62-102-93-35-17v-5l27 3q37-2 61-26t24-63q0-42-15.5-73T327 313q-27-20-64-30t-80-10q-36 0-67.5 6.5T64 297l40 90q40-19 83-19z"/><glyph unicode="¿" horiz-adv-x="430" d="M332 293q-6-53-24.5-91.5t-43-67q-24.5-28.5-52-50t-50-41.5Q140 23 125 2t-15-49q0-27 15.5-42t55.5-15q31 0 68 13.5T315-58l30-94q-41-26-89-43t-117-17q-84 0-123 35.5T-23-81q0 53 16 89t41 63.5Q59 99 89.5 121t58 46q27.5 24 49 53.5T226 293zM213 435q0 35 22 55.5t58 20.5q37 0 59-20.5t22-55.5q0-35-22-56t-59-21q-36 0-58 21t-22 56z"/><glyph unicode="À" horiz-adv-x="582" d="M387 155H183L100 0H-38l389 705h96L538 0H407zM240 265h142l-16 156 1 110h-5l-40-111zm251 487h-90l-131 88 6 30h140z"/><glyph unicode="Á" horiz-adv-x="582" d="M387 155H183L100 0H-38l389 705h96L538 0H407zM240 265h142l-16 156 1 110h-5l-40-111zm201 605h157l-6-30-172-88H316z"/><glyph unicode="Â" horiz-adv-x="582" d="M387 155H183L100 0H-38l389 705h96L538 0H407zM240 265h142l-16 156 1 110h-5l-40-111zm148 605h87l101-93-8-39h-88l-45 41-13 34-27-33-67-42h-94l9 40z"/><glyph unicode="Ã" horiz-adv-x="582" d="M387 155H183L100 0H-38l389 705h96L538 0H407zM240 265h142l-16 156 1 110h-5l-40-111zm0 535q38 35 69 48t58 13q21 0 40.5-5.5t38-12q18.5-6.5 36-12T517 826q15 0 30 5t31 19l10-67q-33-27-60-37t-51-10q-21 0-39.5 5.5T401 753q-18 6-35.5 11.5T329 770q-18 0-37.5-7T249 737z"/><glyph unicode="Ä" horiz-adv-x="582" d="M387 155H183L100 0H-38l389 705h96L538 0H407zM240 265h142l-16 156 1 110h-5l-40-111zm6 533q0 29 20 43.5t52 14.5q32 0 52-14.5t20-43.5q0-29-20-43t-52-14q-32 0-52 14t-20 43zm204 0q0 29 20 43.5t52 14.5q32 0 52-14.5t20-43.5q0-29-20-43t-52-14q-32 0-52 14t-20 43z"/><glyph unicode="Å" horiz-adv-x="582" d="M286 771q0 18 6 34.5t20.5 29q14.5 12.5 39 19.5t62.5 7q70 0 99-24t29-66q0-32-20.5-55.5T449 686L538 0H407l-20 155H183L100 0H-38l382 693q-32 11-45 31t-13 47zm96-506l-16 156 1 110h-5l-40-111-82-155zm-12 506q0-31 44-31 25 0 35 8t10 23q0 33-45 33-44 0-44-33z"/><glyph unicode="Æ" horiz-adv-x="826" d="M449 530l-44-94-116-155h114l52 249zm-70-360H208L80 0H-66l547 700h404l-26-122H595l-35-163h241l-26-122H535l-36-171h269L742 0H343z"/><glyph unicode="Ç" horiz-adv-x="537" d="M483 29q-65-42-157-43l-22-29q34-2 52-20.5t18-47.5q0-26-11.5-45t-31-31.5Q312-200 285.5-206t-56.5-6q-38 0-77 9l20 48q51-5 70 6t19 25q0 17-20 23.5T183-95l69 88q-49 10-85.5 35.5T106 91q-24 37-36 83t-12 98q0 118 33 201.5t87 137Q232 664 301.5 689T444 714q57 0 97.5-8.5T605 686l-51-116q-20 11-48 16.5t-71 5.5q-51 0-95-21t-76-60q-32-39-50.5-95T195 289q0-85 42.5-133T351 108q45 0 74.5 9.5T481 141z"/><glyph unicode="È" horiz-adv-x="503" d="M168 700h394l-26-122H272l-35-163h241l-27-122H212l-37-171h269L419 0H20zm284 52h-90l-131 88 6 30h140z"/><glyph unicode="É" horiz-adv-x="503" d="M168 700h394l-26-122H272l-35-163h241l-27-122H212l-37-171h269L419 0H20zm255 170h157l-6-30-172-88H298z"/><glyph unicode="Ê" horiz-adv-x="503" d="M168 700h394l-26-122H272l-35-163h241l-27-122H212l-37-171h269L419 0H20zm191 170h87l101-93-8-39h-88l-45 41-13 34-27-33-67-42h-94l9 40z"/><glyph unicode="Ë" horiz-adv-x="503" d="M168 700h394l-26-122H272l-35-163h241l-27-122H212l-37-171h269L419 0H20zm42 98q0 29 20 43.5t52 14.5q32 0 52-14.5t20-43.5q0-29-20-43t-52-14q-32 0-52 14t-20 43zm204 0q0 29 20 43.5t52 14.5q32 0 52-14.5t20-43.5q0-29-20-43t-52-14q-32 0-52 14t-20 43z"/><glyph unicode="Ì" horiz-adv-x="278" d="M183 700h129L164 0H35zm150 52h-90l-131 88 6 30h140z"/><glyph unicode="Í" horiz-adv-x="278" d="M183 700h129L164 0H35zm120 170h157l-6-30-172-88H178z"/><glyph unicode="Î" horiz-adv-x="278" d="M183 700h129L164 0H35zm57 170h87l101-93-8-39h-88l-45 41-13 34-27-33-67-42H86l9 40z"/><glyph unicode="Ï" horiz-adv-x="278" d="M183 700h129L164 0H35zm-92 98q0 29 20 43.5t52 14.5q32 0 52-14.5t20-43.5q0-29-20-43t-52-14q-32 0-52 14t-20 43zm204 0q0 29 20 43.5t52 14.5q32 0 52-14.5t20-43.5q0-29-20-43t-52-14q-32 0-52 14t-20 43z"/><glyph unicode="Ð" horiz-adv-x="640" d="M40 401h85l63 299q21 3 46 5t47.5 3q22.5 1 36.5 1 10 0 26 .5t35 .5q62 0 112-15.5t85.5-47.5q35.5-32 55-82T651 446q0-44-7.5-94.5T618 250q-18-51-49.5-98t-79-83q-47.5-36-114-58T221-11q-15 0-29 .5t-22 .5q-18 1-43.5 2.5t-50 3Q52-3 40-1l68 322H23zm214 0h132l-17-80H237l-43-207q4-1 12.5-1.5t18.5-1q10-.5 19-.5h14q70 0 119 31.5t79.5 79q30.5 47.5 44 103T514 428q0 80-33.5 120T368 588q-19 0-41-1t-34-3z"/><glyph unicode="Ñ" horiz-adv-x="631" d="M267 366l-33 112h-5l-9-112L143 0H20l150 705h90l172-374 31-109h6l7 109 79 369h123L528-5h-90zm-8 434q38 35 69 48t58 13q21 0 40.5-5.5t38-12q18.5-6.5 36-12T536 826q15 0 30 5t31 19l10-67q-33-27-60-37t-51-10q-21 0-39.5 5.5T420 753q-18 6-35.5 11.5T348 770q-18 0-37.5-7T268 737z"/><glyph unicode="Ò" horiz-adv-x="644" d="M58 262q0 93 25.5 175.5t72.5 144q47 61.5 113.5 97T418 714q54 0 97.5-16t74-49.5Q620 615 637 564t17-121q0-94-25.5-177t-72-145.5Q510 58 445.5 22T303-14q-118 0-181 69.5T58 262zm137 4q0-72 27.5-115t90.5-43q46 0 83.5 27.5t64.5 74Q488 256 502.5 316T517 441q0 79-31 115t-85 36q-45 0-82.5-26t-65-70.5q-27.5-44.5-43-104T195 266zm316 486h-90l-131 88 6 30h140z"/><glyph unicode="Ó" horiz-adv-x="644" d="M58 262q0 93 25.5 175.5t72.5 144q47 61.5 113.5 97T418 714q54 0 97.5-16t74-49.5Q620 615 637 564t17-121q0-94-25.5-177t-72-145.5Q510 58 445.5 22T303-14q-118 0-181 69.5T58 262zm137 4q0-72 27.5-115t90.5-43q46 0 83.5 27.5t64.5 74Q488 256 502.5 316T517 441q0 79-31 115t-85 36q-45 0-82.5-26t-65-70.5q-27.5-44.5-43-104T195 266zm296 604h157l-6-30-172-88H366z"/><glyph unicode="Ô" horiz-adv-x="644" d="M58 262q0 93 25.5 175.5t72.5 144q47 61.5 113.5 97T418 714q54 0 97.5-16t74-49.5Q620 615 637 564t17-121q0-94-25.5-177t-72-145.5Q510 58 445.5 22T303-14q-118 0-181 69.5T58 262zm137 4q0-72 27.5-115t90.5-43q46 0 83.5 27.5t64.5 74Q488 256 502.5 316T517 441q0 79-31 115t-85 36q-45 0-82.5-26t-65-70.5q-27.5-44.5-43-104T195 266zm228 604h87l101-93-8-39h-88l-45 41-13 34-27-33-67-42h-94l9 40z"/><glyph unicode="Õ" horiz-adv-x="644" d="M58 262q0 93 25.5 175.5t72.5 144q47 61.5 113.5 97T418 714q54 0 97.5-16t74-49.5Q620 615 637 564t17-121q0-94-25.5-177t-72-145.5Q510 58 445.5 22T303-14q-118 0-181 69.5T58 262zm137 4q0-72 27.5-115t90.5-43q46 0 83.5 27.5t64.5 74Q488 256 502.5 316T517 441q0 79-31 115t-85 36q-45 0-82.5-26t-65-70.5q-27.5-44.5-43-104T195 266zm73 534q38 35 69 48t58 13q21 0 40.5-5.5t38-12q18.5-6.5 36-12T545 826q15 0 30 5t31 19l10-67q-33-27-60-37t-51-10q-21 0-39.5 5.5T429 753q-18 6-35.5 11.5T357 770q-18 0-37.5-7T277 737z"/><glyph unicode="Ö" horiz-adv-x="644" d="M58 262q0 93 25.5 175.5t72.5 144q47 61.5 113.5 97T418 714q54 0 97.5-16t74-49.5Q620 615 637 564t17-121q0-94-25.5-177t-72-145.5Q510 58 445.5 22T303-14q-118 0-181 69.5T58 262zm137 4q0-72 27.5-115t90.5-43q46 0 83.5 27.5t64.5 74Q488 256 502.5 316T517 441q0 79-31 115t-85 36q-45 0-82.5-26t-65-70.5q-27.5-44.5-43-104T195 266zm75 532q0 29 20 43.5t52 14.5q32 0 52-14.5t20-43.5q0-29-20-43t-52-14q-32 0-52 14t-20 43zm204 0q0 29 20 43.5t52 14.5q32 0 52-14.5t20-43.5q0-29-20-43t-52-14q-32 0-52 14t-20 43z"/><glyph unicode="×" horiz-adv-x="505" d="M146 547l131-130 130 130 79-81-130-127 130-129-79-82-130 131-132-132-79 81 131 131L68 466z"/><glyph unicode="Ø" horiz-adv-x="644" d="M58 262q0 93 25.5 175.5t72.5 144q47 61.5 113.5 97T418 714q86 0 142-40l27 32 72-62-37-45q15-30 23.5-69t8.5-87q0-94-25.5-177t-72-145.5Q510 58 445.5 22T303-14q-90 0-149 41L127-5 57 59l34 42q-16 32-24.5 72T58 262zm416 306q-29 24-73 24-45 0-82.5-26t-65-70.5q-27.5-44.5-43-104T195 266v-19q0-9 2-18zM239 132q28-24 74-24t83.5 27.5q37.5 27.5 64.5 74T502.5 316Q517 376 517 441v14.5q0 6.5-1 13.5z"/><glyph unicode="Ù" horiz-adv-x="602" d="M531 700h122l-95-452q-15-72-39-121.5T461 46q-34-31-80-44.5T275-12q-58 0-98 13.5T111.5 40Q86 65 74.5 99T63 174q0 20 2.5 41t7.5 44l94 441h129l-92-440q-8-38-8-62 0-48 25-68t73-20q60 0 93 35t50 113zm-42 52h-90l-131 88 6 30h140z"/><glyph unicode="Ú" horiz-adv-x="602" d="M531 700h122l-95-452q-15-72-39-121.5T461 46q-34-31-80-44.5T275-12q-58 0-98 13.5T111.5 40Q86 65 74.5 99T63 174q0 20 2.5 41t7.5 44l94 441h129l-92-440q-8-38-8-62 0-48 25-68t73-20q60 0 93 35t50 113zm-44 170h157l-6-30-172-88H362z"/><glyph unicode="Û" horiz-adv-x="602" d="M531 700h122l-95-452q-15-72-39-121.5T461 46q-34-31-80-44.5T275-12q-58 0-98 13.5T111.5 40Q86 65 74.5 99T63 174q0 20 2.5 41t7.5 44l94 441h129l-92-440q-8-38-8-62 0-48 25-68t73-20q60 0 93 35t50 113zM409 870h87l101-93-8-39h-88l-45 41-13 34-27-33-67-42h-94l9 40z"/><glyph unicode="Ü" horiz-adv-x="602" d="M531 700h122l-95-452q-15-72-39-121.5T461 46q-34-31-80-44.5T275-12q-58 0-98 13.5T111.5 40Q86 65 74.5 99T63 174q0 20 2.5 41t7.5 44l94 441h129l-92-440q-8-38-8-62 0-48 25-68t73-20q60 0 93 35t50 113zm-275 98q0 29 20 43.5t52 14.5q32 0 52-14.5t20-43.5q0-29-20-43t-52-14q-32 0-52 14t-20 43zm204 0q0 29 20 43.5t52 14.5q32 0 52-14.5t20-43.5q0-29-20-43t-52-14q-32 0-52 14t-20 43z"/><glyph unicode="Ý" horiz-adv-x="569" d="M231 260L106 700h144l65-263-2-74h4l31 76 175 261h149L361 261 306 0H177zm220 610h157l-6-30-172-88H326z"/><glyph unicode="Þ" horiz-adv-x="550" d="M169 700h129l-15-71q13 1 26 1h26q51 0 94.5-11.5t76-35.5q32.5-24 50.5-61.5t18-89.5q0-78-27-130.5t-71.5-85Q431 184 374 170.5T258 157h-15.5q-10.5 0-22 .5t-22 1Q188 159 183 160L150 0H20zm88-193q-12-58-24-114t-24-113q4-1 11-2t15.5-1.5q8.5-.5 16-1t11.5-.5q34 0 65.5 7t55.5 23.5q24 16.5 38.5 43.5t14.5 66q0 30-9.5 48.5T402 493q-16 11-37.5 15t-45.5 4q-18 0-34.5-1.5T257 507z"/><glyph unicode="ß" horiz-adv-x="608" d="M153 528q12 57 35 92t55 54.5q32 19.5 72 26.5t87 7q51 0 86-11t57-29.5q22-18.5 32-43t10-52.5q0-35-11.5-60T547 469q-17-18-37.5-31T472 413q-17-12-28.5-25T432 358q0-17 11.5-28t28.5-20q17-9 37.5-19t37.5-25.5q17-15.5 28.5-39T587 167q0-39-17.5-72.5t-48-57.5Q491 13 449.5-.5T360-14q-41 0-81 11.5T214 26l56 97q21-13 44.5-23T372 90q15 0 30 5t27 14q12 9 19.5 22.5T456 162q0 19-11.5 31.5t-29 22.5q-17.5 10-38 20.5t-38 25Q322 276 310.5 297T299 350q0 29 11.5 50.5t29 37.5q17.5 16 37.5 28.5t37.5 24.5q17.5 12 29 25.5T455 548q0 23-18 37.5T385 600q-48 0-77-26.5T268 488L179 0q-9-51-21-90t-32.5-65Q105-181 75-194.5T1-208q-36 0-70.5 5.5T-129-180l34 91q17-7 34-9t43-2q32 0 49.5 25T57 0l71 398H46l20 102h81l6 28z"/><glyph unicode="à" horiz-adv-x="503" d="M444 200q-8-38-11.5-77T429 49q0-14 .5-26.5T431-1h-91l-14 86h-4q-11-18-28.5-35.5t-38.5-32Q234 3 210.5-5.5T162-14q-66 0-97.5 43T33 144q0 73 18.5 140T109 402q39 51 98.5 81.5T349 514q35 0 76.5-6.5T506 490zM209 89q18 0 34 7.5t29.5 19.5q13.5 12 24 26t18.5 26l50 233q-11 5-25.5 7.5T311 411q-36 0-64-21.5t-47.5-56Q180 299 170 255.5T160 168q0-32 10.5-55.5T209 89zm178 477h-69l-91 124 7 30h129z"/><glyph unicode="á" horiz-adv-x="503" d="M444 200q-8-38-11.5-77T429 49q0-14 .5-26.5T431-1h-91l-14 86h-4q-11-18-28.5-35.5t-38.5-32Q234 3 210.5-5.5T162-14q-66 0-97.5 43T33 144q0 73 18.5 140T109 402q39 51 98.5 81.5T349 514q35 0 76.5-6.5T506 490zM209 89q18 0 34 7.5t29.5 19.5q13.5 12 24 26t18.5 26l50 233q-11 5-25.5 7.5T311 411q-36 0-64-21.5t-47.5-56Q180 299 170 255.5T160 168q0-32 10.5-55.5T209 89zm172 631h125l-6-30-133-124h-69z"/><glyph unicode="â" horiz-adv-x="503" d="M444 200q-8-38-11.5-77T429 49q0-14 .5-26.5T431-1h-91l-14 86h-4q-11-18-28.5-35.5t-38.5-32Q234 3 210.5-5.5T162-14q-66 0-97.5 43T33 144q0 73 18.5 140T109 402q39 51 98.5 81.5T349 514q35 0 76.5-6.5T506 490zM209 89q18 0 34 7.5t29.5 19.5q13.5 12 24 26t18.5 26l50 233q-11 5-25.5 7.5T311 411q-36 0-64-21.5t-47.5-56Q180 299 170 255.5T160 168q0-32 10.5-55.5T209 89zm136 643h82l67-182h-96l-24 66-4 49-27-49-57-66h-97z"/><glyph unicode="ã" horiz-adv-x="503" d="M444 200q-8-38-11.5-77T429 49q0-14 .5-26.5T431-1h-91l-14 86h-4q-11-18-28.5-35.5t-38.5-32Q234 3 210.5-5.5T162-14q-66 0-97.5 43T33 144q0 73 18.5 140T109 402q39 51 98.5 81.5T349 514q35 0 76.5-6.5T506 490zM209 89q18 0 34 7.5t29.5 19.5q13.5 12 24 26t18.5 26l50 233q-11 5-25.5 7.5T311 411q-36 0-64-21.5t-47.5-56Q180 299 170 255.5T160 168q0-32 10.5-55.5T209 89zm-13 569q35 37 61.5 51t48.5 14q18 0 33.5-7t31-15 31-15q15.5-7 33.5-7 14 0 30.5 6t36.5 21l4-70q-32-32-57-44.5T403 579q-18 0-34 6.5T337 600t-32 14.5q-16 6.5-34 6.5-15 0-33-6t-38-22z"/><glyph unicode="ä" horiz-adv-x="503" d="M444 200q-8-38-11.5-77T429 49q0-14 .5-26.5T431-1h-91l-14 86h-4q-11-18-28.5-35.5t-38.5-32Q234 3 210.5-5.5T162-14q-66 0-97.5 43T33 144q0 73 18.5 140T109 402q39 51 98.5 81.5T349 514q35 0 76.5-6.5T506 490zM209 89q18 0 34 7.5t29.5 19.5q13.5 12 24 26t18.5 26l50 233q-11 5-25.5 7.5T311 411q-36 0-64-21.5t-47.5-56Q180 299 170 255.5T160 168q0-32 10.5-55.5T209 89zm-39 562q0 33 18.5 51.5T236 721q29 0 47.5-18.5T302 651q0-32-18.5-50T236 583q-29 0-47.5 18T170 651zm208 1q0 32 18.5 50.5T444 721q29 0 47.5-18.5T510 652q0-32-18.5-50.5T444 583q-29 0-47.5 18.5T378 652z"/><glyph unicode="å" horiz-adv-x="503" d="M444 200q-8-38-11.5-77T429 49q0-14 .5-26.5T431-1h-91l-14 86h-4q-11-18-28.5-35.5t-38.5-32Q234 3 210.5-5.5T162-14q-66 0-97.5 43T33 144q0 73 18.5 140T109 402q39 51 98.5 81.5T349 514q35 0 76.5-6.5T506 490zM209 89q18 0 34 7.5t29.5 19.5q13.5 12 24 26t18.5 26l50 233q-11 5-25.5 7.5T311 411q-36 0-64-21.5t-47.5-56Q180 299 170 255.5T160 168q0-32 10.5-55.5T209 89zm45 558q0 42 28.5 69t82.5 27q51 0 81-24.5t30-71.5q0-39-29.5-66.5T365 553q-53 0-82 25.5T254 647zm72 0q0-16 11.5-24.5T365 614q17 0 28 8t11 25q0 17-11.5 25.5T365 681q-16 0-27.5-8T326 647z"/><glyph unicode="æ" horiz-adv-x="744" d="M312 223q-8 1-16.5 1H279q-57 0-96-18.5T144 148q0-27 14-39t37-12q18 0 34.5 7.5t30.5 18q14 10.5 25 22t18 20.5zm3-146q-32-36-74-60.5T142-8Q109-8 85.5 2.5T47 30.5Q32 48 24.5 71T17 118q0 49 22 84t60 57q38 22 88 32.5T294 302h16.5q8.5 0 16.5-1 11 38 11 59 0 24-15 35.5T272 407q-33 0-70-8t-69-21l-18 93q41 20 94.5 29.5T313 510q46 0 78-14.5t45-45.5q29 31 72.5 47.5T597 514q42 0 71.5-9.5t48-26.5q18.5-17 27-39.5T752 389q0-56-26.5-90T654 245.5Q609 226 550 219t-123-7q-1-8-1.5-15.5T425 182q0-45 23-69t76-24q38 0 71.5 10.5T649 122l23-86q-34-24-85.5-37T484-14q-66 0-106.5 24T320 77zm132 215q32 0 65 1.5t60 9q27 7.5 44 23t17 42.5q0 17-12 31.5T576 414q-53 0-83.5-35.5T447 292z"/><glyph unicode="ç" horiz-adv-x="412" d="M370 41q-26-19-58-33t-66-19l-24-32q34-2 52-20.5t18-47.5q0-26-11.5-45t-31-31.5Q230-200 203.5-206t-56.5-6q-38 0-77 9l20 48q51-5 70 6t19 25q0 17-20 23.5T101-95l66 85q-36 6-61 21.5t-41 38Q49 72 41.5 100T34 158q0 84 24 150t63.5 111.5q39.5 45.5 90 70T315 514q47 0 74.5-9t49.5-20l-46-98q-19 11-39.5 15t-44.5 4q-27 0-52.5-17.5t-46-46Q190 314 178 276t-12-78q0-51 22-77.5T246 94q30 0 55.5 9.5T347 125z"/><glyph unicode="è" horiz-adv-x="466" d="M402 48q-31-26-80-44T208-14q-81 0-127.5 47.5T34 166q0 80 25 144.5T124.5 420q40.5 45 91.5 69.5T318 514q41 0 70.5-10.5t48.5-29q19-18.5 28-42.5t9-51q0-41-21-72t-58.5-51.5Q357 237 304 226.5T188 216q-8 0-15 .5t-15 .5q-2-12-3-21.5t-1-17.5q0-45 23.5-67T244 89q44 0 79 13t53 26zM176 295q28 0 59.5 2t58.5 9.5q27 7.5 45 22t18 39.5q0 15-11 30.5T300 414q-44 0-76.5-34T176 295zm191 271h-69l-91 124 7 30h129z"/><glyph unicode="é" horiz-adv-x="466" d="M402 48q-31-26-80-44T208-14q-81 0-127.5 47.5T34 166q0 80 25 144.5T124.5 420q40.5 45 91.5 69.5T318 514q41 0 70.5-10.5t48.5-29q19-18.5 28-42.5t9-51q0-41-21-72t-58.5-51.5Q357 237 304 226.5T188 216q-8 0-15 .5t-15 .5q-2-12-3-21.5t-1-17.5q0-45 23.5-67T244 89q44 0 79 13t53 26zM176 295q28 0 59.5 2t58.5 9.5q27 7.5 45 22t18 39.5q0 15-11 30.5T300 414q-44 0-76.5-34T176 295zm189 425h125l-6-30-133-124h-69z"/><glyph unicode="ê" horiz-adv-x="466" d="M402 48q-31-26-80-44T208-14q-81 0-127.5 47.5T34 166q0 80 25 144.5T124.5 420q40.5 45 91.5 69.5T318 514q41 0 70.5-10.5t48.5-29q19-18.5 28-42.5t9-51q0-41-21-72t-58.5-51.5Q357 237 304 226.5T188 216q-8 0-15 .5t-15 .5q-2-12-3-21.5t-1-17.5q0-45 23.5-67T244 89q44 0 79 13t53 26zM176 295q28 0 59.5 2t58.5 9.5q27 7.5 45 22t18 39.5q0 15-11 30.5T300 414q-44 0-76.5-34T176 295zm146 437h82l67-182h-96l-24 66-4 49-27-49-57-66h-97z"/><glyph unicode="ë" horiz-adv-x="466" d="M402 48q-31-26-80-44T208-14q-81 0-127.5 47.5T34 166q0 80 25 144.5T124.5 420q40.5 45 91.5 69.5T318 514q41 0 70.5-10.5t48.5-29q19-18.5 28-42.5t9-51q0-41-21-72t-58.5-51.5Q357 237 304 226.5T188 216q-8 0-15 .5t-15 .5q-2-12-3-21.5t-1-17.5q0-45 23.5-67T244 89q44 0 79 13t53 26zM176 295q28 0 59.5 2t58.5 9.5q27 7.5 45 22t18 39.5q0 15-11 30.5T300 414q-44 0-76.5-34T176 295zm-13 356q0 33 18.5 51.5T229 721q29 0 47.5-18.5T295 651q0-32-18.5-50T229 583q-29 0-47.5 18T163 651zm208 1q0 32 18.5 50.5T437 721q29 0 47.5-18.5T503 652q0-32-18.5-50.5T437 583q-29 0-47.5 18.5T371 652z"/><glyph unicode="ì" horiz-adv-x="256" d="M133 500h123L150 0H27zm131 66h-69l-91 124 7 30h129z"/><glyph unicode="í" horiz-adv-x="256" d="M133 500h123L150 0H27zm104 220h125l-6-30-133-124h-69z"/><glyph unicode="î" horiz-adv-x="256" d="M133 500h123L150 0H27zm70 232h82l67-182h-96l-24 66-4 49-27-49-57-66H47z"/><glyph unicode="ï" horiz-adv-x="256" d="M133 500h123L150 0H27zM54 651q0 33 18.5 51.5T120 721q29 0 47.5-18.5T186 651q0-32-18.5-50T120 583q-29 0-47.5 18T54 651zm208 1q0 32 18.5 50.5T328 721q29 0 47.5-18.5T394 652q0-32-18.5-50.5T328 583q-29 0-47.5 18.5T262 652z"/><glyph unicode="ð" horiz-adv-x="508" d="M262 592l70 29q-18 18-39.5 31T248 673l97 41q45-17 82-54l73 30 28-54-64-27q17-31 27-69t10-83q0-123-23.5-212T414 98.5q-40-57.5-92.5-85T211-14q-80 0-127 47.5T37 172q0 70 20.5 130t55 104q34.5 44 80 68.5T289 499q69 0 101-38 2 32-4 58.5T369 569l-75-31zm-98-415q0-42 16.5-65T226 89q39 0 66.5 28t44.5 68.5q17 40.5 25 86.5t7 81q-8 20-26.5 32T298 397q-30 0-54.5-19t-42-50Q184 297 174 257.5T164 177z"/><glyph unicode="ñ" horiz-adv-x="521" d="M294 0l66 310q6 28 6 49 0 22-9 34.5T324 406q-18 0-36-9t-34-24q-16-15-30-33.5T200 302L136 0H13l106 500h93l-5-88h4q13 16 30.5 34t40.5 33q23 15 51.5 25t64.5 10q45 0 72-24.5t27-81.5q0-15-1.5-32t-6.5-37L417 0zm-92 658q35 37 61.5 51t48.5 14q18 0 33.5-7t31-15 31-15q15.5-7 33.5-7 14 0 30.5 6t36.5 21l4-70q-32-32-57-44.5T409 579q-18 0-34 6.5T343 600t-32 14.5q-16 6.5-34 6.5-15 0-33-6t-38-22z"/><glyph unicode="ò" horiz-adv-x="496" d="M34 162q0 79 22.5 144t60 111q37.5 46 87 71.5T307 514q48 0 81-15t53.5-40q20.5-25 29.5-57t9-66q0-78-22-142.5T399 83q-37-46-86-71.5T210-14q-47 0-80 15.5T75.5 42Q54 67 44 98.5T34 162zm127 17q0-90 65-90 24 0 47 21t41 55q18 34 28.5 77t10.5 86q0 40-13.5 61.5T289 411q-24 0-47-20t-41-52.5Q183 306 172 264t-11-85zm214 387h-69l-91 124 7 30h129z"/><glyph unicode="ó" horiz-adv-x="496" d="M34 162q0 79 22.5 144t60 111q37.5 46 87 71.5T307 514q48 0 81-15t53.5-40q20.5-25 29.5-57t9-66q0-78-22-142.5T399 83q-37-46-86-71.5T210-14q-47 0-80 15.5T75.5 42Q54 67 44 98.5T34 162zm127 17q0-90 65-90 24 0 47 21t41 55q18 34 28.5 77t10.5 86q0 40-13.5 61.5T289 411q-24 0-47-20t-41-52.5Q183 306 172 264t-11-85zm202 541h125l-6-30-133-124h-69z"/><glyph unicode="ô" horiz-adv-x="496" d="M34 162q0 79 22.5 144t60 111q37.5 46 87 71.5T307 514q48 0 81-15t53.5-40q20.5-25 29.5-57t9-66q0-78-22-142.5T399 83q-37-46-86-71.5T210-14q-47 0-80 15.5T75.5 42Q54 67 44 98.5T34 162zm127 17q0-90 65-90 24 0 47 21t41 55q18 34 28.5 77t10.5 86q0 40-13.5 61.5T289 411q-24 0-47-20t-41-52.5Q183 306 172 264t-11-85zm158 553h82l67-182h-96l-24 66-4 49-27-49-57-66h-97z"/><glyph unicode="õ" horiz-adv-x="496" d="M34 162q0 79 22.5 144t60 111q37.5 46 87 71.5T307 514q48 0 81-15t53.5-40q20.5-25 29.5-57t9-66q0-78-22-142.5T399 83q-37-46-86-71.5T210-14q-47 0-80 15.5T75.5 42Q54 67 44 98.5T34 162zm127 17q0-90 65-90 24 0 47 21t41 55q18 34 28.5 77t10.5 86q0 40-13.5 61.5T289 411q-24 0-47-20t-41-52.5Q183 306 172 264t-11-85zm17 479q35 37 61.5 51t48.5 14q18 0 33.5-7t31-15 31-15q15.5-7 33.5-7 14 0 30.5 6t36.5 21l4-70q-32-32-57-44.5T385 579q-18 0-34 6.5T319 600t-32 14.5q-16 6.5-34 6.5-15 0-33-6t-38-22z"/><glyph unicode="ö" horiz-adv-x="496" d="M34 162q0 79 22.5 144t60 111q37.5 46 87 71.5T307 514q48 0 81-15t53.5-40q20.5-25 29.5-57t9-66q0-78-22-142.5T399 83q-37-46-86-71.5T210-14q-47 0-80 15.5T75.5 42Q54 67 44 98.5T34 162zm127 17q0-90 65-90 24 0 47 21t41 55q18 34 28.5 77t10.5 86q0 40-13.5 61.5T289 411q-24 0-47-20t-41-52.5Q183 306 172 264t-11-85zm1 472q0 33 18.5 51.5T228 721q29 0 47.5-18.5T294 651q0-32-18.5-50T228 583q-29 0-47.5 18T162 651zm208 1q0 32 18.5 50.5T436 721q29 0 47.5-18.5T502 652q0-32-18.5-50.5T436 583q-29 0-47.5 18.5T370 652z"/><glyph unicode="÷" horiz-adv-x="505" d="M58 394h442V282H58zm141 140q0 35 22 55.5t58 20.5q37 0 59-20.5t22-55.5q0-35-22-56t-59-21q-36 0-58 21t-22 56zm0-395q0 35 22 55.5t58 20.5q37 0 59-20.5t22-55.5q0-35-22-56t-59-21q-36 0-58 21t-22 56z"/><glyph unicode="ø" horiz-adv-x="496" d="M34 162q0 79 22.5 144t60 111q37.5 46 87 71.5T307 514q32 0 57-7t44-19l34 38 64-59-42-47q16-38 16-84 0-78-22-142.5T399 83q-37-46-86-71.5T210-14q-34 0-60.5 8.5T103 17L66-24 0 36l47 54q-13 33-13 72zm142-48q16-25 50-25 23 0 45 19.5t39.5 51q17.5 31.5 29 71.5t13.5 81zm161 278q-16 19-48 19-23 0-45-18.5T204.5 344Q187 314 175 275t-14-81z"/><glyph unicode="ù" horiz-adv-x="512" d="M241 500l-65-309q-6-30-6-50t8-31q8-11 28-11 17 0 34.5 8.5t33.5 22q16 13.5 29.5 30T326 192l64 308h123l-63-300q-5-20-8.5-47T435 97.5Q432 69 431 43t0-43h-99l-5 90h-4q-14-19-32.5-37.5t-41-33.5Q227 4 200.5-5T144-14Q97-14 68 9.5T39 96q0 37 10 81l69 323zm131 66h-69l-91 124 7 30h129z"/><glyph unicode="ú" horiz-adv-x="512" d="M241 500l-65-309q-6-30-6-50t8-31q8-11 28-11 17 0 34.5 8.5t33.5 22q16 13.5 29.5 30T326 192l64 308h123l-63-300q-5-20-8.5-47T435 97.5Q432 69 431 43t0-43h-99l-5 90h-4q-14-19-32.5-37.5t-41-33.5Q227 4 200.5-5T144-14Q97-14 68 9.5T39 96q0 37 10 81l69 323zm110 220h125l-6-30-133-124h-69z"/><glyph unicode="û" horiz-adv-x="512" d="M241 500l-65-309q-6-30-6-50t8-31q8-11 28-11 17 0 34.5 8.5t33.5 22q16 13.5 29.5 30T326 192l64 308h123l-63-300q-5-20-8.5-47T435 97.5Q432 69 431 43t0-43h-99l-5 90h-4q-14-19-32.5-37.5t-41-33.5Q227 4 200.5-5T144-14Q97-14 68 9.5T39 96q0 37 10 81l69 323zm84 232h82l67-182h-96l-24 66-4 49-27-49-57-66h-97z"/><glyph unicode="ü" horiz-adv-x="512" d="M241 500l-65-309q-6-30-6-50t8-31q8-11 28-11 17 0 34.5 8.5t33.5 22q16 13.5 29.5 30T326 192l64 308h123l-63-300q-5-20-8.5-47T435 97.5Q432 69 431 43t0-43h-99l-5 90h-4q-14-19-32.5-37.5t-41-33.5Q227 4 200.5-5T144-14Q97-14 68 9.5T39 96q0 37 10 81l69 323zm-69 151q0 33 18.5 51.5T238 721q29 0 47.5-18.5T304 651q0-32-18.5-50T238 583q-29 0-47.5 18T172 651zm208 1q0 32 18.5 50.5T446 721q29 0 47.5-18.5T512 652q0-32-18.5-50.5T446 583q-29 0-47.5 18.5T380 652z"/><glyph unicode="ý" horiz-adv-x="452" d="M216 219l1-78h6l27 79 136 280h131L277 51Q247-5 220.5-52T167-133q-27-34-56-53t-62-19q-44 0-66 15l33 98q6-3 12.5-4T41-97q24 0 49 23t50 74L46 500h141zm114 501h125l-6-30-133-124h-69z"/><glyph unicode="þ" horiz-adv-x="506" d="M165 700h123l-62-268h4q12 16 27 31t34 26q19 11 42 18t52 7q51 0 82-35t31-110q0-85-22.5-155.5t-60-121Q378 42 327.5 14T222-14q-26 0-49 5T139 4L96-200H-26zm-5-594q25-17 56-17t58.5 21q27.5 21 48 56t32.5 81.5q12 46.5 12 97.5 0 29-11.5 47.5T321 411q-18 0-35-9t-32-22.5Q239 366 227 349t-21-33z"/><glyph unicode="ÿ" horiz-adv-x="452" d="M216 219l1-78h6l27 79 136 280h131L277 51Q247-5 220.5-52T167-133q-27-34-56-53t-62-19q-44 0-66 15l33 98q6-3 12.5-4T41-97q24 0 49 23t50 74L46 500h141zm-86 432q0 33 18.5 51.5T196 721q29 0 47.5-18.5T262 651q0-32-18.5-50T196 583q-29 0-47.5 18T130 651zm208 1q0 32 18.5 50.5T404 721q29 0 47.5-18.5T470 652q0-32-18.5-50.5T404 583q-29 0-47.5 18.5T338 652z"/><glyph unicode="Ā" horiz-adv-x="582" d="M387 155H183L100 0H-38l389 705h96L538 0H407zM240 265h142l-16 156 1 110h-5l-40-111zm21 591h327l-19-89H243z"/><glyph unicode="ā" horiz-adv-x="503" d="M444 200q-8-38-11.5-77T429 49q0-14 .5-26.5T431-1h-91l-14 86h-4q-11-18-28.5-35.5t-38.5-32Q234 3 210.5-5.5T162-14q-66 0-97.5 43T33 144q0 73 18.5 140T109 402q39 51 98.5 81.5T349 514q35 0 76.5-6.5T506 490zM209 89q18 0 34 7.5t29.5 19.5q13.5 12 24 26t18.5 26l50 233q-11 5-25.5 7.5T311 411q-36 0-64-21.5t-47.5-56Q180 299 170 255.5T160 168q0-32 10.5-55.5T209 89zm-9 569h308l-19-92H181z"/><glyph unicode="Ă" horiz-adv-x="582" d="M387 155H183L100 0H-38l389 705h96L538 0H407zM240 265h142l-16 156 1 110h-5l-40-111zm55 610q18-26 44-40t65-14q55 0 92 15t65 39l49-32q-17-30-40-51.5t-50-35q-27-13.5-57.5-20T401 730q-26 0-50.5 7.5t-45 22Q285 774 269.5 794T247 838z"/><glyph unicode="ă" horiz-adv-x="503" d="M444 200q-8-38-11.5-77T429 49q0-14 .5-26.5T431-1h-91l-14 86h-4q-11-18-28.5-35.5t-38.5-32Q234 3 210.5-5.5T162-14q-66 0-97.5 43T33 144q0 73 18.5 140T109 402q39 51 98.5 81.5T349 514q35 0 76.5-6.5T506 490zM209 89q18 0 34 7.5t29.5 19.5q13.5 12 24 26t18.5 26l50 233q-11 5-25.5 7.5T311 411q-36 0-64-21.5t-47.5-56Q180 299 170 255.5T160 168q0-32 10.5-55.5T209 89zm65 631q21-59 84-59 39 0 70.5 15.5T481 720l51-27q-8-24-25.5-47.5t-42-41.5Q440 586 409 575t-64-11q-62 0-99 33.5T207 688z"/><glyph unicode="Ą" horiz-adv-x="582" d="M387 155H183L100 0H-38l389 705h96L538 0h-21q-32-12-53.5-31.5T442-80q0-34 38-34 14 0 38 8l5-62q-18-13-49.5-23T409-201q-48 0-71.5 22T314-123q0 24 9 43.5T347-45q15 15 34.5 26T422 0h-15zM240 265h142l-16 156 1 110h-5l-40-111z"/><glyph unicode="ą" horiz-adv-x="503" d="M444 200q-8-38-11.5-77T429 49q0-14 .5-26.5T431-1h-21q-31-12-52-31t-21-50q1-31 37-33 16 0 39 9l6-62q-19-13-50.5-23.5T304-202q-48 0-71.5 22T209-124q0 26 11 47t29.5 37q18.5 16 42 27T339 5l-13 80h-4q-11-18-28.5-35.5t-38.5-32Q234 3 210.5-5.5T162-14q-64 0-96.5 43T33 144q0 73 19 140t57.5 118q38.5 51 98 81.5T349 514q35 0 76.5-6.5T506 490zm-79 202q-11 5-25.5 7.5T311 412q-37-1-64.5-22t-47-56Q180 299 170 255.5T160 168q0-32 11-55.5T209 89q18 0 34 7.5t29.5 19.5q13.5 12 24 26t18.5 26z"/><glyph unicode="Ć" horiz-adv-x="537" d="M483 29q-67-43-164-43-66 0-115 22t-81.5 61Q90 108 74 160T58 272q0 118 33 201.5t87 137Q232 664 301.5 689T444 714q57 0 97.5-8.5T605 686l-51-116q-20 11-48 16.5t-71 5.5q-51 0-95-21t-76-60q-32-39-50.5-95T195 289q0-85 42.5-133T351 108q45 0 74.5 9.5T481 141zm15 841h157l-6-30-172-88H373z"/><glyph unicode="ć" horiz-adv-x="412" d="M393 387q-19 11-39.5 15t-44.5 4q-27 0-52.5-17.5t-46-46Q190 314 178 276t-12-78q0-51 22-77.5T246 94q30 0 55.5 9.5T347 125l23-84q-32-24-74.5-39.5T211-14q-48 0-81.5 14T75 38Q54 62 44 93t-10 65q0 84 24 150t63.5 111.5q39.5 45.5 90 70T315 514q47 0 74.5-9t49.5-20zm-44 333h125l-6-30-133-124h-69z"/><glyph unicode="Ĉ" horiz-adv-x="537" d="M483 29q-67-43-164-43-66 0-115 22t-81.5 61Q90 108 74 160T58 272q0 118 33 201.5t87 137Q232 664 301.5 689T444 714q57 0 97.5-8.5T605 686l-51-116q-20 11-48 16.5t-71 5.5q-51 0-95-21t-76-60q-32-39-50.5-95T195 289q0-85 42.5-133T351 108q45 0 74.5 9.5T481 141zm-59 841h87l101-93-8-39h-88l-45 41-13 34-27-33-67-42h-94l9 40z"/><glyph unicode="ĉ" horiz-adv-x="412" d="M393 387q-19 11-39.5 15t-44.5 4q-27 0-52.5-17.5t-46-46Q190 314 178 276t-12-78q0-51 22-77.5T246 94q30 0 55.5 9.5T347 125l23-84q-32-24-74.5-39.5T211-14q-48 0-81.5 14T75 38Q54 62 44 93t-10 65q0 84 24 150t63.5 111.5q39.5 45.5 90 70T315 514q47 0 74.5-9t49.5-20zm-87 345h82l67-182h-96l-24 66-4 49-27-49-57-66h-97z"/><glyph unicode="Č" horiz-adv-x="537" d="M483 29q-67-43-164-43-66 0-115 22t-81.5 61Q90 108 74 160T58 272q0 118 33 201.5t87 137Q232 664 301.5 689T444 714q57 0 97.5-8.5T605 686l-51-116q-20 11-48 16.5t-71 5.5q-51 0-95-21t-76-60q-32-39-50.5-95T195 289q0-85 42.5-133T351 108q45 0 74.5 9.5T481 141zm0 708h-84l-101 94 8 39h92l41-45 12-30 25 29 64 46h98l-8-40z"/><glyph unicode="č" horiz-adv-x="412" d="M393 387q-19 11-39.5 15t-44.5 4q-27 0-52.5-17.5t-46-46Q190 314 178 276t-12-78q0-51 22-77.5T246 94q30 0 55.5 9.5T347 125l23-84q-32-24-74.5-39.5T211-14q-48 0-81.5 14T75 38Q54 62 44 93t-10 65q0 84 24 150t63.5 111.5q39.5 45.5 90 70T315 514q47 0 74.5-9t49.5-20zm-47 163h-87l-70 182h103l23-66 5-49 28 49 56 66h98z"/><glyph unicode="Ď" horiz-adv-x="620" d="M168 700q21 3 46 5t46.5 3q21.5 1 37.5 1 9 0 25.5.5t36.5.5q61 0 111-15.5t85.5-47.5q35.5-32 55-82T631 446q0-44-7.5-94.5T598 250q-18-51-49.5-98t-79-83q-47.5-36-114-58T201-11q-15 0-30 .5t-21 .5q-20 1-44.5 2.5l-49 3Q32-3 20-1zm6-586q4-1 12.5-1.5t18.5-1q10-.5 19-.5h14q70 0 119 31.5t79.5 79q30.5 47.5 44 103T494 428q0 80-33.5 120T349 588q-20 0-42-1t-34-3zm254 623h-84l-101 94 8 39h92l41-45 12-30 25 29 64 46h98l-8-40z"/><glyph unicode="ď" horiz-adv-x="507" d="M442 176q-9-42-13-78t-4-68V14.5Q425 7 426-1h-84l-14 86h-4q-11-18-28.5-35.5t-38.5-32Q236 3 212.5-5.5T166-14q-62 0-95.5 44T37 151q0 70 19 135t53.5 115.5q34.5 50.5 84 80.5T303 512q29 0 48-3.5t36-11.5l43 203h123zm-77 218q-12 8-27.5 11.5T296 409q-30 0-54.5-20.5t-41.5-55Q183 299 173.5 254t-9.5-94q0-29 13-50t37-21q15 0 30.5 7.5t29 19.5q13.5 12 25 26t18.5 26zm352 306q-8-29-24-60.5t-35-60q-19-28.5-38.5-51T587 496l-47 31q24 36 41.5 81.5T609 700z"/><glyph unicode="Đ" horiz-adv-x="640" d="M40 401h85l63 299q21 3 46 5t47.5 3q22.5 1 36.5 1 10 0 26 .5t35 .5q62 0 112-15.5t85.5-47.5q35.5-32 55-82T651 446q0-44-7.5-94.5T618 250q-18-51-49.5-98t-79-83q-47.5-36-114-58T221-11q-15 0-29 .5t-22 .5q-18 1-43.5 2.5t-50 3Q52-3 40-1l68 322H23zm214 0h132l-17-80H237l-43-207q4-1 12.5-1.5t18.5-1q10-.5 19-.5h14q70 0 119 31.5t79.5 79q30.5 47.5 44 103T514 428q0 80-33.5 120T368 588q-19 0-41-1t-34-3z"/><glyph unicode="đ" horiz-adv-x="507" d="M540 641h103l-17-80H523l-81-385q-9-42-13-78t-4-68V14.5Q425 7 426-1h-84l-14 86h-4q-11-18-28.5-35.5t-38.5-32Q236 3 212.5-5.5T166-14q-62 0-95.5 44T37 151q0 70 19 135t53.5 115.5q34.5 50.5 84 80.5T303 512q29 0 48-3.5t36-11.5l13 64H291l17 80h109l13 59h123zM365 394q-12 8-27.5 11.5T296 409q-30 0-54.5-20.5t-41.5-55Q183 299 173.5 254t-9.5-94q0-29 13-50t37-21q15 0 30.5 7.5t29 19.5q13.5 12 25 26t18.5 26z"/><glyph unicode="Ē" horiz-adv-x="503" d="M168 700h394l-26-122H272l-35-163h241l-27-122H212l-37-171h269L419 0H20zm58 156h327l-19-89H208z"/><glyph unicode="ē" horiz-adv-x="466" d="M402 48q-31-26-80-44T208-14q-81 0-127.5 47.5T34 166q0 80 25 144.5T124.5 420q40.5 45 91.5 69.5T318 514q41 0 70.5-10.5t48.5-29q19-18.5 28-42.5t9-51q0-41-21-72t-58.5-51.5Q357 237 304 226.5T188 216q-8 0-15 .5t-15 .5q-2-12-3-21.5t-1-17.5q0-45 23.5-67T244 89q44 0 79 13t53 26zM176 295q28 0 59.5 2t58.5 9.5q27 7.5 45 22t18 39.5q0 15-11 30.5T300 414q-44 0-76.5-34T176 295zm12 363h308l-19-92H169z"/><glyph unicode="Ė" horiz-adv-x="503" d="M168 700h394l-26-122H272l-35-163h241l-27-122H212l-37-171h269L419 0H20zm139 98q0 31 24 46t59 15q33 0 58-15t25-46q0-30-24-45.5T390 737q-35 0-59 15t-24 46z"/><glyph unicode="ė" horiz-adv-x="466" d="M402 48q-31-26-80-44T208-14q-81 0-127.5 47.5T34 166q0 80 25 144.5T124.5 420q40.5 45 91.5 69.5T318 514q41 0 70.5-10.5t48.5-29q19-18.5 28-42.5t9-51q0-41-21-72t-58.5-51.5Q357 237 304 226.5T188 216q-8 0-15 .5t-15 .5q-2-12-3-21.5t-1-17.5q0-45 23.5-67T244 89q44 0 79 13t53 26zM176 295q28 0 59.5 2t58.5 9.5q27 7.5 45 22t18 39.5q0 15-11 30.5T300 414q-44 0-76.5-34T176 295zm94 347q0 33 21.5 51t54.5 18q32 0 54.5-18t22.5-51q0-32-22.5-50.5T346 573q-33 0-54.5 18.5T270 642z"/><glyph unicode="Ę" horiz-adv-x="503" d="M168 700h394l-26-122H272l-35-163h241l-27-122H212l-37-171h269L419 0h-20q-32-12-53.5-31.5T324-80q0-34 38-34 14 0 38 8l5-62q-18-13-49.5-23T291-201q-48 0-71.5 22T196-123q0 24 9 43.5T229-45q15 15 34.5 26T304 0H20z"/><glyph unicode="ę" horiz-adv-x="466" d="M402 48q-32-27-78-43-26-16-43-38t-17-47q0-11 4-20t13-13q9-4 23-2.5t34 11.5l5-62q-9-6-22-12.5T292.5-190q-15.5-5-33-8.5T226-202q-51 0-71.5 22T134-124q0 34 24 62t58 48h-8q-81 0-127.5 47.5T34 166q0 80 25 144.5T124.5 420q40.5 45 91.5 69.5T318 514q41 0 70.5-10.5t48.5-29q19-18.5 28-42.5t9-51q0-43-23.5-75t-64-52.5q-40.5-20.5-100-30T158 217q-2-12-3-21.5t-1-17.5q0-45 23.5-67T244 89q44 0 79 13t53 26zM300 414q-44 0-76.5-34T176 295q28 0 59.5 2t58.5 9.5q27 7.5 45 22t18 39.5q0 15-11 30.5T300 414z"/><glyph unicode="Ě" horiz-adv-x="503" d="M168 700h394l-26-122H272l-35-163h241l-27-122H212l-37-171h269L419 0H20zm239 37h-84l-101 94 8 39h92l41-45 12-30 25 29 64 46h98l-8-40z"/><glyph unicode="ě" horiz-adv-x="466" d="M402 48q-31-26-80-44T208-14q-81 0-127.5 47.5T34 166q0 80 25 144.5T124.5 420q40.5 45 91.5 69.5T318 514q41 0 70.5-10.5t48.5-29q19-18.5 28-42.5t9-51q0-41-21-72t-58.5-51.5Q357 237 304 226.5T188 216q-8 0-15 .5t-15 .5q-2-12-3-21.5t-1-17.5q0-45 23.5-67T244 89q44 0 79 13t53 26zM176 295q28 0 59.5 2t58.5 9.5q27 7.5 45 22t18 39.5q0 15-11 30.5T300 414q-44 0-76.5-34T176 295zm186 255h-87l-70 182h103l23-66 5-49 28 49 56 66h98z"/><glyph unicode="Ĝ" horiz-adv-x="585" d="M369 365h210L513 53q-45-35-94.5-51T312-14q-55 0-101.5 19T130 60q-34 36-53 89T58 270q0 115 31.5 199T175 607.5Q229 662 301 688t152 26q57 0 101.5-9.5T622 685l-52-115q-21 10-52.5 16t-76.5 6q-53 0-98-20t-78-59q-33-39-51.5-96.5T195 285q0-83 39-130t105-47q49 0 86 25l28 133-102 16zm70 505h87l101-93-8-39h-88l-45 41-13 34-27-33-67-42h-94l9 40z"/><glyph unicode="ĝ" horiz-adv-x="505" d="M407 0q-13-59-35-99.5T319.5-165q-30.5-25-70-36T162-212q-35 0-62.5 5T51-195q-21 7-36.5 14.5T-10-167l46 91q9-4 21-9.5t27.5-11q15.5-5.5 36-9T168-109q50 0 79.5 31T290 7l19 78h-4q-23-36-62.5-64.5T153-8Q99-8 65.5 32.5T32 141q0 77 22 144.5t61.5 118Q155 454 209 483t119 29q61 0 106.5-10.5T508 478zm-36 399q-11 6-28 8t-34 2q-32 0-59.5-19T202 338q-20-33-31.5-77.5T159 165q0-32 13.5-51T208 95q17 0 35 10.5t34.5 26.5q16.5 16 29.5 35.5t21 36.5zm-33 333h82l67-182h-96l-24 66-4 49-27-49-57-66h-97z"/><glyph unicode="Ğ" horiz-adv-x="585" d="M369 365h210L513 53q-45-35-94.5-51T312-14q-55 0-101.5 19T130 60q-34 36-53 89T58 270q0 115 31.5 199T175 607.5Q229 662 301 688t152 26q57 0 101.5-9.5T622 685l-52-115q-21 10-52.5 16t-76.5 6q-53 0-98-20t-78-59q-33-39-51.5-96.5T195 285q0-83 39-130t105-47q49 0 86 25l28 133-102 16zm-30 510q18-26 44-40t65-14q55 0 92 15t65 39l49-32q-17-30-40-51.5t-50-35q-27-13.5-57.5-20T445 730q-26 0-50.5 7.5t-45 22Q329 774 313.5 794T291 838z"/><glyph unicode="ğ" horiz-adv-x="505" d="M407 0q-13-59-35-99.5T319.5-165q-30.5-25-70-36T162-212q-35 0-62.5 5T51-195q-21 7-36.5 14.5T-10-167l46 91q9-4 21-9.5t27.5-11q15.5-5.5 36-9T168-109q50 0 79.5 31T290 7l19 78h-4q-23-36-62.5-64.5T153-8Q99-8 65.5 32.5T32 141q0 77 22 144.5t61.5 118Q155 454 209 483t119 29q61 0 106.5-10.5T508 478zm-36 399q-11 6-28 8t-34 2q-32 0-59.5-19T202 338q-20-33-31.5-77.5T159 165q0-32 13.5-51T208 95q17 0 35 10.5t34.5 26.5q16.5 16 29.5 35.5t21 36.5zM259 720q21-59 84-59 39 0 70.5 15.5T466 720l51-27q-8-24-25.5-47.5t-42-41.5Q425 586 394 575t-64-11q-62 0-99 33.5T192 688z"/><glyph unicode="Ģ" horiz-adv-x="585" d="M369 365h210L513 53q-45-35-94.5-51T312-14q-55 0-101.5 19T130 60q-34 36-53 89T58 270q0 115 31.5 199T175 607.5Q229 662 301 688t152 26q57 0 101.5-9.5T622 685l-52-115q-21 10-52.5 16t-76.5 6q-53 0-98-20t-78-59q-33-39-51.5-96.5T195 285q0-83 39-130t105-47q49 0 86 25l28 133-102 16zM221-113q0 17 6.5 30t17 22Q255-52 268-47t27 5q35 0 49.5-19t13.5-51q0-36-14-63.5T309.5-223Q289-243 267-255.5T229-273l-21 54q16 7 31.5 19.5T263-167q-19 3-30.5 16.5T221-113z"/><glyph unicode="ģ" horiz-adv-x="505" d="M407 0q-13-59-35-99.5T319.5-165q-30.5-25-70-36T162-212q-35 0-62.5 5T51-195q-21 7-36.5 14.5T-10-167l46 91q9-4 21-9.5t27.5-11q15.5-5.5 36-9T168-109q50 0 79.5 31T290 7l19 78h-4q-23-36-62.5-64.5T153-8Q99-8 65.5 32.5T32 141q0 77 22 144.5t61.5 118Q155 454 209 483t119 29q61 0 106.5-10.5T508 478zm-36 399q-11 6-28 8t-34 2q-32 0-59.5-19T202 338q-20-33-31.5-77.5T159 165q0-32 13.5-51T208 95q17 0 35 10.5t34.5 26.5q16.5 16 29.5 35.5t21 36.5zm45 223q0-17-6.5-30t-17-22q-10.5-9-23.5-14t-27-5q-35 0-49.5 19T279 621q0 36 14 63.5t34.5 47.5q20.5 20 42.5 32.5t38 17.5l21-54q-16-7-31.5-19.5T374 676q19-3 30.5-16.5T416 622z"/><glyph unicode="Ĥ" horiz-adv-x="624" d="M455 293H212L150 0H20l148 700h130l-60-285h243l60 285h130L523 0H393zm-31 577h87l101-93-8-39h-88l-45 41-13 34-27-33-67-42h-94l9 40z"/><glyph unicode="ĥ" horiz-adv-x="528" d="M309 0l60 284q10 44 10 73 0 26-10 37.5T338 406q-19 0-40-12t-40-30q-19-18-34.5-38.5T200 288L141 0H18l148 700h123l-63-288h4q13 16 31.5 34t41 33q22.5 15 49 25t57.5 10q48 0 74.5-24t26.5-85q0-37-12-94L432 0zm-88 870h87l101-93-8-39h-88l-45 41-13 34-27-33-67-42H67l9 40z"/><glyph unicode="Ħ" horiz-adv-x="656" d="M92 598h70l22 102h130l-22-102h243l22 102h130l-22-102h72l-17-82h-72L539 0H409l62 293H228L166 0H36l109 516H75zm405-183l21 101H275l-21-101z"/><glyph unicode="ħ" horiz-adv-x="528" d="M84 641h69l13 59h123l-13-59h155l-17-80H258l-32-149h4q13 16 31.5 34t41 33q22.5 15 49 25t57.5 10q48 0 74.5-24t26.5-85q0-37-12-94L432 0H309l60 284q10 44 10 73 0 26-10 37.5T338 406q-19 0-40-12t-40-30q-19-18-34.5-38.5T200 288L141 0H18l118 561H67z"/><glyph unicode="Ī" horiz-adv-x="278" d="M183 700h129L164 0H35zm-72 156h327l-19-89H93z"/><glyph unicode="ī" horiz-adv-x="256" d="M133 500h123L150 0H27zM74 658h308l-19-92H55z"/><glyph unicode="Į" horiz-adv-x="278" d="M183 700h129L164 0h-14q-26-13-44.5-32.5T87-79q0-16 9.5-25.5T124-114q16 0 39 9l5-62q-18-13-49.5-23.5T54-201q-48 0-71.5 22T-41-123q0 23 9 42t24 34.5Q7-31 26-19.5T65 0H35z"/><glyph unicode="į" horiz-adv-x="257" d="M133 500h123L150 0h-10q-26-15-44-37.5T78-84q0-20 16.5-30t57.5 10l6-62q-9-6-22-12.5T107.5-190q-15.5-5-33-8.5T41-202q-53 0-72 20.5T-50-128q0 20 8.5 39T-18-53.5Q-3-37 16.5-23T58 0H27zm17 142q0 33 21.5 51t54.5 18q32 0 54.5-18t22.5-51q0-32-22.5-50.5T226 573q-33 0-54.5 18.5T150 642z"/><glyph unicode="İ" horiz-adv-x="278" d="M183 700h129L164 0H35zm0 98q0 31 24 46t59 15q33 0 58-15t25-46q0-30-24-45.5T266 737q-35 0-59 15t-24 46z"/><glyph unicode="ı" horiz-adv-x="256" d="M133 500h123L150 0H27z"/><glyph unicode="Ĵ" horiz-adv-x="324" d="M239 700h130L260 188q-9-42-23-78.5T200 46q-23-27-57.5-42.5T59-12Q31-12 0-6t-51 17l50 112q23-13 54-13 21 0 35 8.5t23.5 23.5q9.5 15 15.5 35.5t12 45.5zm56 170h87l101-93-8-39h-88l-45 41-13 34-27-33-67-42h-94l9 40z"/><glyph unicode="ĵ" horiz-adv-x="244" d="M123 500h124L136-21q-19-90-64-137.5T-50-206q-31 0-62 7l24 106q25-2 43 4.5T-14.5-68Q-2-54 6.5-32.5T21 16zm74 232h82l67-182h-96l-24 66-4 49-27-49-57-66H41z"/><glyph unicode="Ķ" horiz-adv-x="593" d="M260 299h-47L150 0H20l148 700h130l-66-310 31 11 237 299h156L404 403l-60-35 44-39L540 0H395zM151-113q0 17 6.5 30t17 22Q185-52 198-47t27 5q35 0 49.5-19t13.5-51q0-36-14-63.5T239.5-223Q219-243 197-255.5T159-273l-21 54q16 7 31.5 19.5T193-167q-19 3-30.5 16.5T151-113z"/><glyph unicode="ķ" horiz-adv-x="465" d="M224 207h-40L141 0H18l148 700h123l-88-413 37 13 141 200h137L367 299l-60-38 45-38L428 0H296zM109-113q0 17 6.5 30t17 22Q143-52 156-47t27 5q35 0 49.5-19t13.5-51q0-36-14-63.5T197.5-223Q177-243 155-255.5T117-273l-21 54q16 7 31.5 19.5T151-167q-19 3-30.5 16.5T109-113z"/><glyph unicode="Ĺ" horiz-adv-x="495" d="M441 0H20l148 700h130L175 122h291zM311 870h157l-6-30-172-88H186z"/><glyph unicode="ĺ" horiz-adv-x="272" d="M168 148q-6-29 .5-43T190 91q28 0 53 11l-3-89Q222 2 188-5t-67-7Q78-12 55.5 4.5T33 66q0 23 6 53l123 581h123zm131 722h157l-6-30-172-88H174z"/><glyph unicode="Ļ" horiz-adv-x="495" d="M441 0H20l148 700h130L175 122h291zM126-113q0 17 6.5 30t17 22Q160-52 173-47t27 5q35 0 49.5-19t13.5-51q0-36-14-63.5T214.5-223Q194-243 172-255.5T134-273l-21 54q16 7 31.5 19.5T168-167q-19 3-30.5 16.5T126-113z"/><glyph unicode="ļ" horiz-adv-x="272" d="M168 148q-6-29 .5-43T190 91q28 0 53 11l-3-89Q222 2 188-5t-67-7Q78-12 55.5 4.5T33 66q0 23 6 53l123 581h123zM27-113q0 17 6.5 30t17 22Q61-52 74-47t27 5q35 0 49.5-19t13.5-51q0-36-14-63.5T115.5-223Q95-243 73-255.5T35-273l-21 54q16 7 31.5 19.5T69-167q-19 3-30.5 16.5T27-113z"/><glyph unicode="Ľ" horiz-adv-x="495" d="M441 0H20l148 700h130L175 122h291zm110 700q-8-29-24-60.5t-35-60q-19-28.5-38.5-51T421 496l-47 31q24 36 41.5 81.5T443 700z"/><glyph unicode="ľ" horiz-adv-x="272" d="M168 148q-6-29 .5-43T190 91q28 0 53 11l-3-89Q222 2 188-5t-67-7Q78-12 55.5 4.5T33 66q0 23 6 53l123 581h123zm284 552q-8-29-24-60.5t-35-60q-19-28.5-38.5-51T322 496l-47 31q24 36 41.5 81.5T344 700z"/><glyph unicode="Ł" horiz-adv-x="500" d="M29 318l72 44 72 338h130l-53-246 112 68-27-125-111-67-44-208h291L446 0H25l51 241-73-44z"/><glyph unicode="ł" horiz-adv-x="272" d="M4 307l86 52 72 341h123l-54-254 106 65-27-125-105-63-37-175q-6-29 .5-43T190 91q28 0 53 11l-3-89Q222 2 188-5t-67-7Q78-12 55.5 4.5T33 66q0 23 6 53l25 119-86-52z"/><glyph unicode="Ń" horiz-adv-x="631" d="M267 366l-33 112h-5l-9-112L143 0H20l150 705h90l172-374 31-109h6l7 109 79 369h123L528-5h-90zm222 504h157l-6-30-172-88H364z"/><glyph unicode="ń" horiz-adv-x="521" d="M294 0l66 310q6 28 6 49 0 22-9 34.5T324 406q-18 0-36-9t-34-24q-16-15-30-33.5T200 302L136 0H13l106 500h93l-5-88h4q13 16 30.5 34t40.5 33q23 15 51.5 25t64.5 10q45 0 72-24.5t27-81.5q0-15-1.5-32t-6.5-37L417 0zm86 720h125l-6-30-133-124h-69z"/><glyph unicode="Ņ" horiz-adv-x="631" d="M267 366l-33 112h-5l-9-112L143 0H20l150 705h90l172-374 31-109h6l7 109 79 369h123L528-5h-90zm-86-479q0 17 6.5 30t17 22Q215-52 228-47t27 5q35 0 49.5-19t13.5-51q0-36-14-63.5T269.5-223Q249-243 227-255.5T189-273l-21 54q16 7 31.5 19.5T223-167q-19 3-30.5 16.5T181-113z"/><glyph unicode="ņ" horiz-adv-x="521" d="M294 0l66 310q6 28 6 49 0 22-9 34.5T324 406q-18 0-36-9t-34-24q-16-15-30-33.5T200 302L136 0H13l106 500h93l-5-88h4q13 16 30.5 34t40.5 33q23 15 51.5 25t64.5 10q45 0 72-24.5t27-81.5q0-15-1.5-32t-6.5-37L417 0zM128-113q0 17 6.5 30t17 22Q162-52 175-47t27 5q35 0 49.5-19t13.5-51q0-36-14-63.5T216.5-223Q196-243 174-255.5T136-273l-21 54q16 7 31.5 19.5T170-167q-19 3-30.5 16.5T128-113z"/><glyph unicode="Ň" horiz-adv-x="631" d="M267 366l-33 112h-5l-9-112L143 0H20l150 705h90l172-374 31-109h6l7 109 79 369h123L528-5h-90zm202 371h-84l-101 94 8 39h92l41-45 12-30 25 29 64 46h98l-8-40z"/><glyph unicode="ň" horiz-adv-x="521" d="M294 0l66 310q6 28 6 49 0 22-9 34.5T324 406q-18 0-36-9t-34-24q-16-15-30-33.5T200 302L136 0H13l106 500h93l-5-88h4q13 16 30.5 34t40.5 33q23 15 51.5 25t64.5 10q45 0 72-24.5t27-81.5q0-15-1.5-32t-6.5-37L417 0zm83 550h-87l-70 182h103l23-66 5-49 28 49 56 66h98z"/><glyph unicode="Ō" horiz-adv-x="644" d="M58 262q0 93 25.5 175.5t72.5 144q47 61.5 113.5 97T418 714q54 0 97.5-16t74-49.5Q620 615 637 564t17-121q0-94-25.5-177t-72-145.5Q510 58 445.5 22T303-14q-118 0-181 69.5T58 262zm137 4q0-72 27.5-115t90.5-43q46 0 83.5 27.5t64.5 74Q488 256 502.5 316T517 441q0 79-31 115t-85 36q-45 0-82.5-26t-65-70.5q-27.5-44.5-43-104T195 266zm99 590h327l-19-89H276z"/><glyph unicode="ō" horiz-adv-x="496" d="M34 162q0 79 22.5 144t60 111q37.5 46 87 71.5T307 514q48 0 81-15t53.5-40q20.5-25 29.5-57t9-66q0-78-22-142.5T399 83q-37-46-86-71.5T210-14q-47 0-80 15.5T75.5 42Q54 67 44 98.5T34 162zm127 17q0-90 65-90 24 0 47 21t41 55q18 34 28.5 77t10.5 86q0 40-13.5 61.5T289 411q-24 0-47-20t-41-52.5Q183 306 172 264t-11-85zm29 479h308l-19-92H171z"/><glyph unicode="Ő" horiz-adv-x="644" d="M58 262q0 93 25.5 175.5t72.5 144q47 61.5 113.5 97T418 714q54 0 97.5-16t74-49.5Q620 615 637 564t17-121q0-94-25.5-177t-72-145.5Q510 58 445.5 22T303-14q-118 0-181 69.5T58 262zm137 4q0-72 27.5-115t90.5-43q46 0 83.5 27.5t64.5 74Q488 256 502.5 316T517 441q0 79-31 115t-85 36q-45 0-82.5-26t-65-70.5q-27.5-44.5-43-104T195 266zm183 584h126l-3-16-115-93h-87zm188 0h132l-3-16-155-93h-90z"/><glyph unicode="ő" horiz-adv-x="496" d="M34 162q0 79 22.5 144t60 111q37.5 46 87 71.5T307 514q48 0 81-15t53.5-40q20.5-25 29.5-57t9-66q0-78-22-142.5T399 83q-37-46-86-71.5T210-14q-47 0-80 15.5T75.5 42Q54 67 44 98.5T34 162zm127 17q0-90 65-90 24 0 47 21t41 55q18 34 28.5 77t10.5 86q0 40-13.5 61.5T289 411q-24 0-47-20t-41-52.5Q183 306 172 264t-11-85zm107 521h112l-3-16-95-113h-74zm169 0h120l-3-16-136-113h-78z"/><glyph unicode="Œ" horiz-adv-x="877" d="M514 567q-18 12-42.5 18.5T407 592q-47 0-85.5-24t-67-67q-28.5-43-44-103T195 266q0-26 5-53.5t18.5-51q13.5-23.5 38-38.5t63.5-15q28 0 49.5 3.5T421 127zM394 0q-20-7-46.5-10.5T293-14q-43 0-85 13t-75.5 44.5q-33.5 31.5-54 85T58 262q0 105 27 189t76 142.5Q210 652 277 683t147 31q38 0 65.5-4t52.5-10h394l-26-122H646l-35-163h241l-26-122H586l-36-171h268L793 0z"/><glyph unicode="œ" horiz-adv-x="769" d="M161 179q0-90 65-90 24 0 47 21t41 55q18 34 28.5 77t10.5 86q0 40-13.5 61.5T289 411q-24 0-47-20t-41-52.5Q183 306 172 264t-11-85zM371 65q-25-34-68-56.5T209-14q-47 0-80 15.5T75 42Q54 67 44 98.5T34 162q0 79 22.5 144T117 417q38 46 87.5 71.5T308 514q54 0 88.5-22t53.5-60q30 35 72.5 58.5T621 514q41 0 70.5-10.5t48.5-29q19-18.5 28-42.5t9-51q0-41-21-72t-58.5-51.5Q660 237 607 226.5T491 216q-8 0-15 .5t-15 .5q-2-12-3-21.5t-1-17.5q0-45 23.5-67T547 89q44 0 79 13t53 26l26-80q-31-26-80-44T511-14q-29 0-52 6.5t-40 18Q402 22 390 36t-19 29zm108 230q28 0 59.5 2t58.5 9.5q27 7.5 45 22t18 39.5q0 15-11 30.5T603 414q-44 0-76.5-34T479 295z"/><glyph unicode="Ŕ" horiz-adv-x="584" d="M167 693q48 9 97 13t88 4q46 0 87-11t71-33.5q30-22.5 47.5-58T575 524q0-55-16.5-95.5t-43.5-68q-27-27.5-61.5-43T383 297l39-31L519 0H375l-96 274-69 13L150 0H20zm63-313h53q29 0 57 5.5t49.5 20q21.5 14.5 35 38.5t13.5 61q0 34-23 58.5T341 588q-20 0-37.5-1.5T274 583zm189 490h157l-6-30-172-88H294z"/><glyph unicode="ŕ" horiz-adv-x="343" d="M215 500l1-88h4q22 40 53.5 68t79.5 28q21 0 50-8l-31-107q-10 3-19 5t-19 2q-41 0-75.5-26.5T206 312L141 0H18l106 500zm66 220h125l-6-30-133-124h-69z"/><glyph unicode="Ŗ" horiz-adv-x="584" d="M167 693q48 9 97 13t88 4q46 0 87-11t71-33.5q30-22.5 47.5-58T575 524q0-55-16.5-95.5t-43.5-68q-27-27.5-61.5-43T383 297l39-31L519 0H375l-96 274-69 13L150 0H20zm63-313h53q29 0 57 5.5t49.5 20q21.5 14.5 35 38.5t13.5 61q0 34-23 58.5T341 588q-20 0-37.5-1.5T274 583zm-75-493q0 17 6.5 30t17 22Q189-52 202-47t27 5q35 0 49.5-19t13.5-51q0-36-14-63.5T243.5-223Q223-243 201-255.5T163-273l-21 54q16 7 31.5 19.5T197-167q-19 3-30.5 16.5T155-113z"/><glyph unicode="ŗ" horiz-adv-x="343" d="M215 500l1-88h4q22 40 53.5 68t79.5 28q21 0 50-8l-31-107q-10 3-19 5t-19 2q-41 0-75.5-26.5T206 312L141 0H18l106 500zM20-113q0 17 6.5 30t17 22Q54-52 67-47t27 5q35 0 49.5-19t13.5-51q0-36-14-63.5T108.5-223Q88-243 66-255.5T28-273L7-219q16 7 31.5 19.5T62-167q-19 3-30.5 16.5T20-113z"/><glyph unicode="Ř" horiz-adv-x="584" d="M167 693q48 9 97 13t88 4q46 0 87-11t71-33.5q30-22.5 47.5-58T575 524q0-55-16.5-95.5t-43.5-68q-27-27.5-61.5-43T383 297l39-31L519 0H375l-96 274-69 13L150 0H20zm63-313h53q29 0 57 5.5t49.5 20q21.5 14.5 35 38.5t13.5 61q0 34-23 58.5T341 588q-20 0-37.5-1.5T274 583zm174 357h-84l-101 94 8 39h92l41-45 12-30 25 29 64 46h98l-8-40z"/><glyph unicode="ř" horiz-adv-x="343" d="M215 500l1-88h4q22 40 53.5 68t79.5 28q21 0 50-8l-31-107q-10 3-19 5t-19 2q-41 0-75.5-26.5T206 312L141 0H18l106 500zm92 50h-87l-70 182h103l23-66 5-49 28 49 56 66h98z"/><glyph unicode="Ś" horiz-adv-x="510" d="M502 559q-19 12-56 24.5T364 596q-23 0-45-4.5T280 577q-17-10-27-26t-10-38q0-29 18-49t45.5-37.5q27.5-17.5 59-35.5t59-42q27.5-24 45.5-57.5t18-82.5q0-59-20.5-101.5t-58-69.5q-37.5-27-90-39.5T203-14q-35 0-66.5 4T78 0Q51 6 30.5 13.5T-2 28l67 116q10-6 26-13t36.5-13q20.5-6 44.5-10t48-4q28 0 53 4.5t43.5 15q18.5 10.5 29 26.5t10.5 40q0 27-18 46t-45.5 36q-27.5 17-59 35.5t-59 43.5Q147 376 129 411.5T111 498q0 58 20.5 99t55.5 67q35 26 82 38t101 12q29 0 58-3t55-8.5q26-5.5 48-13t37-16.5zm-74 311h157l-6-30-172-88H303z"/><glyph unicode="ś" horiz-adv-x="396" d="M38 117q20-11 51.5-19.5T156 89q35 0 53.5 13.5T229 144q0 20-12 34.5T186.5 206Q168 219 147 232.5t-39.5 31Q89 281 77 305t-12 58q0 33 13 61t36.5 48q23.5 20 57 31t75.5 11q58 0 96-8.5t60-21.5l-34-94q-20 9-48.5 15t-59.5 6q-32 0-50.5-11T192 365q0-16 12-28.5t30.5-25.5q18.5-13 39.5-26.5t39.5-32.5q18.5-19 30.5-43.5t12-58.5q0-83-54-123.5T158-14q-51 0-93.5 9.5T-1 19zm264 603h125l-6-30-133-124h-69z"/><glyph unicode="Ŝ" horiz-adv-x="510" d="M502 559q-19 12-56 24.5T364 596q-23 0-45-4.5T280 577q-17-10-27-26t-10-38q0-29 18-49t45.5-37.5q27.5-17.5 59-35.5t59-42q27.5-24 45.5-57.5t18-82.5q0-59-20.5-101.5t-58-69.5q-37.5-27-90-39.5T203-14q-35 0-66.5 4T78 0Q51 6 30.5 13.5T-2 28l67 116q10-6 26-13t36.5-13q20.5-6 44.5-10t48-4q28 0 53 4.5t43.5 15q18.5 10.5 29 26.5t10.5 40q0 27-18 46t-45.5 36q-27.5 17-59 35.5t-59 43.5Q147 376 129 411.5T111 498q0 58 20.5 99t55.5 67q35 26 82 38t101 12q29 0 58-3t55-8.5q26-5.5 48-13t37-16.5zM369 870h87l101-93-8-39h-88l-45 41-13 34-27-33-67-42h-94l9 40z"/><glyph unicode="ŝ" horiz-adv-x="396" d="M38 117q20-11 51.5-19.5T156 89q35 0 53.5 13.5T229 144q0 20-12 34.5T186.5 206Q168 219 147 232.5t-39.5 31Q89 281 77 305t-12 58q0 33 13 61t36.5 48q23.5 20 57 31t75.5 11q58 0 96-8.5t60-21.5l-34-94q-20 9-48.5 15t-59.5 6q-32 0-50.5-11T192 365q0-16 12-28.5t30.5-25.5q18.5-13 39.5-26.5t39.5-32.5q18.5-19 30.5-43.5t12-58.5q0-83-54-123.5T158-14q-51 0-93.5 9.5T-1 19zm229 615h82l67-182h-96l-24 66-4 49-27-49-57-66h-97z"/><glyph unicode="Ş" horiz-adv-x="510" d="M521 559q-19 12-56 24.5T383 596q-23 0-45-4.5T299 577q-17-10-27-26t-10-38q0-29 18-49t45.5-37.5q27.5-17.5 59-35.5t59-42q27.5-24 45.5-57.5t18-82.5q0-54-17-93.5T442 49q-31-27-75-42t-98-19l-23-31q34-2 52-20.5t18-47.5q0-26-11.5-45t-31-31.5Q254-200 227.5-206t-56.5-6q-38 0-77 9l20 48q51-5 70 6t19 25q0 17-20 23.5T125-95l64 82Q130-9 83.5 3T17 28l67 118q10-6 26-13t36.5-13q20.5-6 44.5-10t48-4q28 0 53 4.5t43.5 14q18.5 9.5 29 25.5t10.5 40q0 27-18 46t-45.5 36q-27.5 17-59 35.5t-59 43.5Q166 376 148 411.5T130 498q0 58 20.5 99t55.5 67q35 26 82 38t101 12q29 0 58-3t55-8.5q26-5.5 48-13t37-16.5z"/><glyph unicode="ş" horiz-adv-x="396" d="M38 117q20-11 51.5-19.5T156 89q35 0 53.5 13.5T229 144q0 20-12 34.5T186.5 206Q168 219 147 232.5t-39.5 31Q89 281 77 305t-12 58q0 33 13 61t36.5 48q23.5 20 57 31t75.5 11q58 0 96-8.5t60-21.5l-34-94q-20 9-48.5 15t-59.5 6q-32 0-50.5-11T192 365q0-16 12-28.5t30.5-25.5q18.5-13 39.5-26.5t39.5-32.5q18.5-19 30.5-43.5t12-58.5q0-73-42-113T200-11l-24-32q34-2 52-20.5t18-47.5q0-26-11.5-45t-31-31.5Q184-200 157.5-206t-56.5-6q-38 0-77 9l20 48q51-5 70 6t19 25q0 17-20 23.5T55-95l65 83Q81-9 49.5-1T-1 19z"/><glyph unicode="Š" horiz-adv-x="510" d="M502 559q-19 12-56 24.5T364 596q-23 0-45-4.5T280 577q-17-10-27-26t-10-38q0-29 18-49t45.5-37.5q27.5-17.5 59-35.5t59-42q27.5-24 45.5-57.5t18-82.5q0-59-20.5-101.5t-58-69.5q-37.5-27-90-39.5T203-14q-35 0-66.5 4T78 0Q51 6 30.5 13.5T-2 28l67 116q10-6 26-13t36.5-13q20.5-6 44.5-10t48-4q28 0 53 4.5t43.5 15q18.5 10.5 29 26.5t10.5 40q0 27-18 46t-45.5 36q-27.5 17-59 35.5t-59 43.5Q147 376 129 411.5T111 498q0 58 20.5 99t55.5 67q35 26 82 38t101 12q29 0 58-3t55-8.5q26-5.5 48-13t37-16.5zm-74 178h-84l-101 94 8 39h92l41-45 12-30 25 29 64 46h98l-8-40z"/><glyph unicode="š" horiz-adv-x="396" d="M38 117q20-11 51.5-19.5T156 89q35 0 53.5 13.5T229 144q0 20-12 34.5T186.5 206Q168 219 147 232.5t-39.5 31Q89 281 77 305t-12 58q0 33 13 61t36.5 48q23.5 20 57 31t75.5 11q58 0 96-8.5t60-21.5l-34-94q-20 9-48.5 15t-59.5 6q-32 0-50.5-11T192 365q0-16 12-28.5t30.5-25.5q18.5-13 39.5-26.5t39.5-32.5q18.5-19 30.5-43.5t12-58.5q0-83-54-123.5T158-14q-51 0-93.5 9.5T-1 19zm269 433h-87l-70 182h103l23-66 5-49 28 49 56 66h98z"/><glyph unicode="Ţ" horiz-adv-x="547" d="M614 578H420L297 0h-21l-33-43q34-2 52-21t18-48q0-26-11.5-45t-31-31.5Q251-201 224.5-207t-56.5-6q-38 0-77 9l20 48q51-5 70 6t19 25q0 32-78 30l75 95h-29l122 578H96l26 122h517z"/><glyph unicode="ţ" horiz-adv-x="320" d="M64 500h65l20 94 131 37-28-131h117l-23-103H230l-49-226q-6-27-6-44 0-22 10-30t30-8q19 0 34.5 4t32.5 13V14Q265 3 234.5-4T175-13l-23-30q34-2 52-21t18-48q0-26-11.5-45t-31-31.5Q160-201 133.5-207T77-213q-38 0-77 9l20 48q51-5 70 6t19 25q0 32-78 30l69 89Q44 13 44 81q0 10 1.5 21t3.5 23l58 272H40z"/><glyph unicode="Ť" horiz-adv-x="547" d="M614 578H420L297 0H168l122 578H96l26 122h517zM426 737h-84l-101 94 8 39h92l41-45 12-30 25 29 64 46h98l-8-40z"/><glyph unicode="ť" horiz-adv-x="320" d="M64 500h65l20 94 131 37-28-131h117l-23-103H230l-49-226q-6-27-6-44 0-22 10-30t30-8q19 0 34.5 4t32.5 13V14q-11-6-26.5-11.5t-33.5-9Q204-10 185-12t-35-2Q99-14 71.5 9.5T44 81q0 10 1.5 21t3.5 23l58 272H40zm398 223q-8-29-24-60.5t-35-60q-19-28.5-38.5-51T332 519l-47 31q24 36 41.5 81.5T354 723z"/><glyph unicode="Ū" horiz-adv-x="602" d="M531 700h122l-95-452q-15-72-39-121.5T461 46q-34-31-80-44.5T275-12q-58 0-98 13.5T111.5 40Q86 65 74.5 99T63 174q0 20 2.5 41t7.5 44l94 441h129l-92-440q-8-38-8-62 0-48 25-68t73-20q60 0 93 35t50 113zM274 856h327l-19-89H256z"/><glyph unicode="ū" horiz-adv-x="512" d="M241 500l-65-309q-6-30-6-50t8-31q8-11 28-11 17 0 34.5 8.5t33.5 22q16 13.5 29.5 30T326 192l64 308h123l-63-300q-5-20-8.5-47T435 97.5Q432 69 431 43t0-43h-99l-5 90h-4q-14-19-32.5-37.5t-41-33.5Q227 4 200.5-5T144-14Q97-14 68 9.5T39 96q0 37 10 81l69 323zm-50 158h308l-19-92H172z"/><glyph unicode="Ŭ" horiz-adv-x="602" d="M531 700h122l-95-452q-15-72-39-121.5T461 46q-34-31-80-44.5T275-12q-58 0-98 13.5T111.5 40Q86 65 74.5 99T63 174q0 20 2.5 41t7.5 44l94 441h129l-92-440q-8-38-8-62 0-48 25-68t73-20q60 0 93 35t50 113zM300 875q18-26 44-40t65-14q55 0 92 15t65 39l49-32q-17-30-40-51.5t-50-35q-27-13.5-57.5-20T406 730q-26 0-50.5 7.5t-45 22Q290 774 274.5 794T252 838z"/><glyph unicode="ŭ" horiz-adv-x="512" d="M241 500l-65-309q-6-30-6-50t8-31q8-11 28-11 17 0 34.5 8.5t33.5 22q16 13.5 29.5 30T326 192l64 308h123l-63-300q-5-20-8.5-47T435 97.5Q432 69 431 43t0-43h-99l-5 90h-4q-14-19-32.5-37.5t-41-33.5Q227 4 200.5-5T144-14Q97-14 68 9.5T39 96q0 37 10 81l69 323zm13 220q21-59 84-59 39 0 70.5 15.5T461 720l51-27q-8-24-25.5-47.5t-42-41.5Q420 586 389 575t-64-11q-62 0-99 33.5T187 688z"/><glyph unicode="Ů" horiz-adv-x="602" d="M531 700h122l-95-452q-15-72-39-121.5T461 46q-34-31-80-44.5T275-12q-58 0-98 13.5T111.5 40Q86 65 74.5 99T63 174q0 20 2.5 41t7.5 44l94 441h129l-92-440q-8-38-8-62 0-48 25-68t73-20q60 0 93 35t50 113zm-229 72q0 18 6 34.5t20.5 29q14.5 12.5 39 19.5t62.5 7q70 0 99-24t30-66q-1-18-7.5-34T530 710.5Q515 699 490.5 692t-60.5-8q-71 1-99.5 25.5T302 772zm84 0q0-31 44-31 25 0 35 8t10 23q0 33-45 33-44 0-44-33z"/><glyph unicode="ů" horiz-adv-x="512" d="M241 500l-65-309q-6-30-6-50t8-31q8-11 28-11 17 0 34.5 8.5t33.5 22q16 13.5 29.5 30T326 192l64 308h123l-63-300q-5-20-8.5-47T435 97.5Q432 69 431 43t0-43h-99l-5 90h-4q-14-19-32.5-37.5t-41-33.5Q227 4 200.5-5T144-14Q97-14 68 9.5T39 96q0 37 10 81l69 323zm-23 147q0 42 28.5 69t82.5 27q51 0 81-24.5t30-71.5q0-39-29.5-66.5T329 553q-53 0-82 25.5T218 647zm72 0q0-16 11.5-24.5T329 614q17 0 28 8t11 25q0 17-11.5 25.5T329 681q-16 0-27.5-8T290 647z"/><glyph unicode="Ű" horiz-adv-x="602" d="M531 700h122l-95-452q-15-72-39-121.5T461 46q-34-31-80-44.5T275-12q-58 0-98 13.5T111.5 40Q86 65 74.5 99T63 174q0 20 2.5 41t7.5 44l94 441h129l-92-440q-8-38-8-62 0-48 25-68t73-20q60 0 93 35t50 113zM353 850h126l-3-16-115-93h-87zm188 0h132l-3-16-155-93h-90z"/><glyph unicode="ű" horiz-adv-x="512" d="M241 500l-65-309q-6-30-6-50t8-31q8-11 28-11 17 0 34.5 8.5t33.5 22q16 13.5 29.5 30T326 192l64 308h123l-63-300q-5-20-8.5-47T435 97.5Q432 69 431 43t0-43h-99l-5 90h-4q-14-19-32.5-37.5t-41-33.5Q227 4 200.5-5T144-14Q97-14 68 9.5T39 96q0 37 10 81l69 323zm31 200h112l-3-16-95-113h-74zm169 0h120l-3-16-136-113h-78z"/><glyph unicode="Ų" horiz-adv-x="602" d="M531 700h122l-95-452q-23-108-64.5-166T383 2q-23-14-39-33t-16-45q0-17 10-27.5t28-10.5q16 0 38 8l6-62q-19-13-50.5-23.5T295-202q-48 0-71.5 24.5T200-119q0 35 20 61.5T269-12q-56 1-95.5 15t-64 38.5Q85 66 74 100t-11 74q0 20 2.5 41t7.5 44l94 441h129l-92-440q-8-38-8-62 0-48 25-68t73-20q60 0 93 35t50 113z"/><glyph unicode="ų" horiz-adv-x="512" d="M241 500l-65-309q-7-30-7-50t8.5-31Q186 99 206 99q17 0 34.5 8.5t33.5 22q16 13.5 29.5 30T326 192l64 308h123l-63-300q-4-20-8-47t-7-55.5Q432 69 431 43t0-43h-17q-31-12-52-34t-21-48q0-11 4-19.5t12.5-12.5q8.5-4 22.5-2t35 12l5-62q-9-6-22-12.5T369.5-190q-15.5-5-33-8.5T303-202q-53 0-72.5 20.5T211-128q0 23 10 43.5t26.5 37Q264-31 286-18t46 21l-5 87h-4q-14-19-32.5-37.5t-41-33.5Q227 4 200.5-5T144-14q-50 0-77 24.5T39 96q0 37 10 81l69 323z"/><glyph unicode="Ÿ" horiz-adv-x="569" d="M231 260L106 700h144l65-263-2-74h4l31 76 175 261h149L361 261 306 0H177zm9 538q0 29 20 43.5t52 14.5q32 0 52-14.5t20-43.5q0-29-20-43t-52-14q-32 0-52 14t-20 43zm204 0q0 29 20 43.5t52 14.5q32 0 52-14.5t20-43.5q0-29-20-43t-52-14q-32 0-52 14t-20 43z"/><glyph unicode="Ź" horiz-adv-x="518" d="M15 122l360 416 58 40H112l25 122h461l-25-122-362-419-56-37h321L450 0H-11zm409 748h157l-6-30-172-88H299z"/><glyph unicode="ź" horiz-adv-x="435" d="M9 108l225 239 71 45H69l24 108h372l-23-108-230-243-64-41h234L359 0H-13zm313 612h125l-6-30-133-124h-69z"/><glyph unicode="Ż" horiz-adv-x="518" d="M15 122l360 416 58 40H112l25 122h461l-25-122-362-419-56-37h321L450 0H-11zm292 676q0 31 24 46t59 15q33 0 58-15t25-46q0-30-24-45.5T390 737q-35 0-59 15t-24 46z"/><glyph unicode="ż" horiz-adv-x="435" d="M9 108l225 239 71 45H69l24 108h372l-23-108-230-243-64-41h234L359 0H-13zm202 534q0 33 21.5 51t54.5 18q32 0 54.5-18t22.5-51q0-32-22.5-50.5T287 573q-33 0-54.5 18.5T211 642z"/><glyph unicode="Ž" horiz-adv-x="518" d="M15 122l360 416 58 40H112l25 122h461l-25-122-362-419-56-37h321L450 0H-11zm394 615h-84l-101 94 8 39h92l41-45 12-30 25 29 64 46h98l-8-40z"/><glyph unicode="ž" horiz-adv-x="435" d="M9 108l225 239 71 45H69l24 108h372l-23-108-230-243-64-41h234L359 0H-13zm315 442h-87l-70 182h103l23-66 5-49 28 49 56 66h98z"/><glyph unicode="ſ" horiz-adv-x="286" d="M66 500h76l6 28q20 95 67 137.5T335 708q43 0 71-6.5t51-17.5l-45-90q-20 8-36 9.5t-31 1.5q-40-1-56-29t-24-76L179 0q-9-51-21-90t-32.5-65Q105-181 75-194.5T1-208q-36 0-70.5 5.5T-129-180l34 91q17-7 34-9t43-2q32 0 49.5 25T57 0l66 397H46z"/><glyph unicode="ƒ" horiz-adv-x="545" d="M410 390L339-34q-6-37-17.5-68.5t-32-55q-20.5-23.5-51-37T164-208q-14 0-34.5 2T88-201q-21 3-40.5 7.5T16-184L37-79q23-10 44-14.5t49-4.5q36 0 56 24.5T215 8l61 382h-78v110h96l11 67q6 37 16.5 64.5t29 46Q369 696 398 705t72 9q16 0 36.5-2.5t41.5-7q21-4.5 41-10t35-12.5l-32-97q-49 19-95 19-32 0-44.5-15.5T434 533l-5-33h119V390z"/><glyph unicode="Ǵ" horiz-adv-x="585" d="M369 365h210L513 53q-45-35-94.5-51T312-14q-55 0-101.5 19T130 60q-34 36-53 89T58 270q0 115 31.5 199T175 607.5Q229 662 301 688t152 26q57 0 101.5-9.5T622 685l-52-115q-21 10-52.5 16t-76.5 6q-53 0-98-20t-78-59q-33-39-51.5-96.5T195 285q0-83 39-130t105-47q49 0 86 25l28 133-102 16zm144 505h157l-6-30-172-88H388z"/><glyph unicode="ǵ" horiz-adv-x="505" d="M407 0q-13-59-35-99.5T319.5-165q-30.5-25-70-36T162-212q-35 0-62.5 5T51-195q-21 7-36.5 14.5T-10-167l46 91q9-4 21-9.5t27.5-11q15.5-5.5 36-9T168-109q50 0 79.5 31T290 7l19 78h-4q-23-36-62.5-64.5T153-8Q99-8 65.5 32.5T32 141q0 77 22 144.5t61.5 118Q155 454 209 483t119 29q61 0 106.5-10.5T508 478zm-36 399q-11 6-28 8t-34 2q-32 0-59.5-19T202 338q-20-33-31.5-77.5T159 165q0-32 13.5-51T208 95q17 0 35 10.5t34.5 26.5q16.5 16 29.5 35.5t21 36.5zm-2 321h125l-6-30-133-124h-69z"/><glyph unicode="Ș" horiz-adv-x="510" d="M521 559q-19 12-56 24.5T383 596q-23 0-45-4.5T299 577q-17-10-27-26t-10-38q0-29 18-49t45.5-37.5q27.5-17.5 59-35.5t59-42q27.5-24 45.5-57.5t18-82.5q0-59-20.5-101.5t-58-69.5q-37.5-27-90-39.5T222-14q-35 0-66.5 4T97 0Q70 6 49.5 13.5T17 28l67 116q10-6 26-13t36.5-13q20.5-6 44.5-10t48-4q28 0 53 4.5t43.5 15q18.5 10.5 29 26.5t10.5 40q0 27-18 46t-45.5 36q-27.5 17-59 35.5t-59 43.5Q166 376 148 411.5T130 498q0 58 20.5 99t55.5 67q35 26 82 38t101 12q29 0 58-3t55-8.5q26-5.5 48-13t37-16.5zM134-113q0 17 6.5 30t17 22Q168-52 181-47t27 5q35 0 49.5-19t13.5-51q0-36-14-63.5T222.5-223Q202-243 180-255.5T142-273l-21 54q16 7 31.5 19.5T176-167q-19 3-30.5 16.5T134-113z"/><glyph unicode="ș" horiz-adv-x="396" d="M38 117q20-11 51.5-19.5T156 89q35 0 53.5 13.5T229 144q0 20-12 34.5T186.5 206Q168 219 147 232.5t-39.5 31Q89 281 77 305t-12 58q0 33 13 61t36.5 48q23.5 20 57 31t75.5 11q58 0 96-8.5t60-21.5l-34-94q-20 9-48.5 15t-59.5 6q-32 0-50.5-11T192 365q0-16 12-28.5t30.5-25.5q18.5-13 39.5-26.5t39.5-32.5q18.5-19 30.5-43.5t12-58.5q0-83-54-123.5T158-14q-51 0-93.5 9.5T-1 19zm22-230q0 17 6.5 30t17 22Q94-52 107-47t27 5q35 0 49.5-19t13.5-51q0-36-14-63.5T148.5-223Q128-243 106-255.5T68-273l-21 54q16 7 31.5 19.5T102-167q-19 3-30.5 16.5T60-113z"/><glyph unicode="Ț" horiz-adv-x="547" d="M614 578H420L297 0H168l122 578H96l26 122h517zM132-113q0 17 6.5 30t17 22Q166-52 179-47t27 5q35 0 49.5-19t13.5-51q0-36-14-63.5T220.5-223Q200-243 178-255.5T140-273l-21 54q16 7 31.5 19.5T174-167q-19 3-30.5 16.5T132-113z"/><glyph unicode="ț" horiz-adv-x="320" d="M64 500h65l20 94 131 37-28-131h117l-23-103H230l-49-226q-6-27-6-44 0-22 10-30t30-8q19 0 34.5 4t32.5 13V14q-11-6-26.5-11.5t-33.5-9Q204-10 185-12t-35-2Q99-14 71.5 9.5T44 81q0 10 1.5 21t3.5 23l58 272H40zM48-113q0 17 6.5 30t17 22Q82-52 95-47t27 5q35 0 49.5-19t13.5-51q0-36-14-63.5T136.5-223Q116-243 94-255.5T56-273l-21 54q16 7 31.5 19.5T90-167q-19 3-30.5 16.5T48-113z"/><glyph unicode="ȷ" horiz-adv-x="244" d="M123 500h124L136-21q-19-90-64-137.5T-50-206q-31 0-62 7l24 106q25-2 43 4.5T-14.5-68Q-2-54 6.5-32.5T21 16z"/><glyph unicode="ʼ" horiz-adv-x="276" d="M170 642q0 18 7.5 31.5T196 696q11 9 24 13.5t25 4.5q35 0 50-18t15-49q0-41-15.5-72t-38-53q-22.5-22-47-34.5T167 469l-19 55q21 9 38.5 23.5T211 585q-18 2-30 16.5T170 642z"/><glyph unicode="ˆ" horiz-adv-x="398" d="M285 732h82l67-182h-96l-24 66-4 49-27-49-57-66h-97z"/><glyph unicode="ˇ" horiz-adv-x="417" d="M314 550h-87l-70 182h103l23-66 5-49 28 49 56 66h98z"/><glyph unicode="˘" horiz-adv-x="436" d="M231 720q21-59 84-59 39 0 70.5 15.5T438 720l51-27q-8-24-25.5-47.5t-42-41.5Q397 586 366 575t-64-11q-62 0-99 33.5T164 688z"/><glyph unicode="˙" horiz-adv-x="291" d="M170 642q0 33 21.5 51t54.5 18q32 0 54.5-18t22.5-51q0-32-22.5-50.5T246 573q-33 0-54.5 18.5T170 642z"/><glyph unicode="˚" horiz-adv-x="368" d="M173 647q0 42 28.5 69t82.5 27q51 0 81-24.5t30-71.5q0-39-29.5-66.5T284 553q-53 0-82 25.5T173 647zm72 0q0-16 11.5-24.5T284 614q17 0 28 8t11 25q0 17-11.5 25.5T284 681q-16 0-27.5-8T245 647z"/><glyph unicode="˛" horiz-adv-x="381" d="M257 10q-37-12-64.5-33T165-76q0-34 38-34 14 0 38 8l5-62q-18-13-49.5-23T132-197q-48 0-71.5 22T37-119q0 27 11 47.5T77-35q18 16 40.5 27T163 10z"/><glyph unicode="˜" horiz-adv-x="349" d="M126 658q35 37 61.5 51t48.5 14q18 0 33.5-7t31-15 31-15q15.5-7 33.5-7 14 0 30.5 6t36.5 21l4-70q-32-32-57-44.5T333 579q-18 0-34 6.5T267 600t-32 14.5q-16 6.5-34 6.5-15 0-33-6t-38-22z"/><glyph unicode="˝" horiz-adv-x="464" d="M217 700h112l-3-16-95-113h-74zm169 0h120l-3-16-136-113h-78z"/><glyph unicode="́" horiz-adv-x="0" d="M-87 720H38l-6-30-133-124h-69z"/><glyph unicode="Δ" horiz-adv-x="589" d="M1 0v71l241 634h79L564 71V0zm145 116h270L305 414l-24 100h-4l-25-101z"/><glyph unicode="Ω" horiz-adv-x="782" d="M73 110h105l85-13v28l-46 9q-30 14-56 37t-45.5 56Q96 260 85 302.5T74 397q0 73 23.5 131.5t67 99.5Q208 669 269 691.5T404 714q78 0 139.5-23.5T647 625q42-42 64.5-101T734 393q0-52-12-93.5T690.5 226q-19.5-32-45-54.5T593 135l-49-10V97l85 13h106V0H435v203q26 4 53.5 17t50 35.5q22.5 22.5 37 56T590 392q0 37-10 73t-32 64.5Q526 558 490.5 575T403 592q-89 0-137-51t-48-152q0-45 14-78.5t36-56q22-22.5 49.5-35T373 203V0H73z"/><glyph unicode="π" horiz-adv-x="666" d="M515 156q-5-28 .5-38.5T535 107q10 0 22 2t21 4l1-91q-21-9-52.5-18.5T451-6q-41 0-57.5 18T377 62q0 10 1.5 21t3.5 23l60 284H309L227 0H104l82 390h-13q-17 0-32-10t-32-34l-62 48q29 51 70.5 78.5T210 500h458l-23-110h-79z"/><glyph unicode="Ё" horiz-adv-x="503" d="M168 700h394l-26-122H272l-35-163h241l-27-122H212l-37-171h269L419 0H20zm38 98q0 29 20 43.5t52 14.5q32 0 52-14.5t20-43.5q0-29-20-43t-52-14q-32 0-52 14t-20 43zm204 0q0 29 20 43.5t52 14.5q32 0 52-14.5t20-43.5q0-29-20-43t-52-14q-32 0-52 14t-20 43z"/><glyph unicode="Ђ" horiz-adv-x="709" d="M297 0H168l122 578H96l26 122h517l-25-122H420l-31-143q17 6 45 14t79 8q48 0 81-14.5t53.5-40q20.5-25.5 29.5-59t9-70.5q0-54-16-104.5T620 79q-34-39-87.5-62.5T404-7q-53 0-65 4l26 117q6-1 20.5-2t30.5-1q31 0 56 11t42 30q17 19 26 44t9 53q0 49-24 67.5T451 335q-22 0-48-6t-39-12z"/><glyph unicode="Ѓ" horiz-adv-x="436" d="M528 578H272L150 0H20l148 700h386zM419 870h157l-6-30-172-88H294z"/><glyph unicode="Є" horiz-adv-x="559" d="M498 29Q463 7 415.5-3.5T319-14q-66 0-115 22t-81.5 61Q90 108 74 160T58 272q0 118 33 201.5t87 137Q232 664 301.5 689T444 714q28 0 54.5-2.5t50-6.5q23.5-4 41.5-9t30-10l-51-116q-21 11-56 16.5t-78 5.5q-77 0-136-46t-86-130h271l-24-113H195v-15q0-85 42.5-132.5T351 108q45 0 82 9.5t62 23.5z"/><glyph unicode="Ѕ" horiz-adv-x="510" d="M502 559q-19 12-56 24.5T364 596q-23 0-45-4.5T280 577q-17-10-27-26t-10-38q0-29 18-49t45.5-37.5q27.5-17.5 59-35.5t59-42q27.5-24 45.5-57.5t18-82.5q0-59-20.5-101.5t-58-69.5q-37.5-27-90-39.5T203-14q-35 0-66.5 4T78 0Q51 6 30.5 13.5T-2 28l67 116q10-6 26-13t36.5-13q20.5-6 44.5-10t48-4q28 0 53 4.5t43.5 15q18.5 10.5 29 26.5t10.5 40q0 27-18 46t-45.5 36q-27.5 17-59 35.5t-59 43.5Q147 376 129 411.5T111 498q0 58 20.5 99t55.5 67q35 26 82 38t101 12q29 0 58-3t55-8.5q26-5.5 48-13t37-16.5z"/><glyph unicode="І" horiz-adv-x="278" d="M183 700h129L164 0H35z"/><glyph unicode="Ї" horiz-adv-x="278" d="M183 700h129L164 0H35zm-44 92q0 30 15 47t41 17q25 0 40.5-17t15.5-47q0-29-15.5-45.5T195 730q-26 0-41 16.5T139 792zm133 0q0 30 15.5 47t40.5 17q25 0 41-17t16-47q0-29-16-45.5T328 730q-25 0-40.5 16.5T272 792z"/><glyph unicode="Ј" horiz-adv-x="324" d="M239 700h130L260 188q-9-42-23-78.5T200 46q-23-27-57.5-42.5T59-12Q31-12 0-6t-51 17l50 112q23-13 54-13 21 0 35 8.5t23.5 23.5q9.5 15 15.5 35.5t12 45.5z"/><glyph unicode="Љ" horiz-adv-x="890" d="M489 578H350q-23-95-43.5-173t-41-140Q245 203 222 155t-50-84q-18-24-37.5-39t-39-23.5Q76 0 58-3.5T24-7Q-22-7-48 7l39 118q5-2 10.5-3t10.5-1q17-1 34.5 8T79 158q18 22 38 64t41.5 108q21.5 66 45 157T253 700h392l-53-251q12 2 37.5 5t47.5 3q46 0 84-12.5t66-36.5q28-24 43.5-59t15.5-81q0-75-26-128t-71-86Q744 21 683 5.5T553-10q-13 0-35.5.5T469-7q-26 2-53 5t-48 9zm32-460q11-2 28-4t36-2q33 0 62.5 7.5t52 24q22.5 16.5 36 41.5t13.5 61q0 50-32 69.5T632 335q-6 0-16-1t-19.5-2q-9.5-1-18-2.5T566 327z"/><glyph unicode="Њ" horiz-adv-x="916" d="M458 305H215L150 0H20l148 700h130l-58-273h243l58 273h130l-56-266q6 1 16.5 2.5t23 3q12.5 1.5 26 2t24.5.5q94 0 150.5-48T912 254q0-61-20.5-110T830 61Q789 27 726.5 8.5T579-10q-13 0-34 .5t-49 2q-28 1.5-54.5 4T394 3zm90-187q10-3 28-4.5t37-1.5q83 0 122.5 32t39.5 94q0 47-30 64.5T658 320q-7 0-17-1l-20-2q-10-1-19-3t-13-3z"/><glyph unicode="Ћ" horiz-adv-x="727" d="M297 0H168l122 578H96l26 122h517l-25-122H419l-37-177q28 16 64.5 28.5T536 442q33 0 62-8.5t50.5-27.5q21.5-19 34.5-48t13-70q0-14-1.5-30.5T689 224L642 0H512l44 202q2 12 3.5 22.5T561 245q0 79-82 79-36 0-65.5-9.5T359 290z"/><glyph unicode="Ќ" horiz-adv-x="593" d="M260 299h-47L150 0H20l148 700h130l-66-310 31 11 237 299h156L404 403l-60-35 44-39L540 0H395zm184 571h157l-6-30-172-88H319z"/><glyph unicode="Ў" horiz-adv-x="546" d="M315 391l1-91h6l33 94 163 306h145L383 216q-33-57-59-99t-51.5-69.5Q247 20 218 6.5T150-7Q89-7 52 17l57 111q14-8 26-10.5t27-2.5q21 0 41 21.5t39 55.5L102 700h143zm19 483q-2-28 13.5-44t43.5-16q65 0 85 59l114-17q-21-61-74.5-91T381 735q-39 0-68 9.5T265 770q-19 16-28.5 37.5T226 854z"/><glyph unicode="Џ" horiz-adv-x="614" d="M531 700h129L512 0H314l-26-175H172L217 0H20l148 700h130L175 122h233z"/><glyph unicode="А" horiz-adv-x="582" d="M387 155H183L100 0H-38l389 705h96L538 0H407zM240 265h142l-16 156 1 110h-5l-40-111z"/><glyph unicode="Б" horiz-adv-x="548" d="M167 700h408l-26-122H271l-31-146q17 3 41 6t47 3q55 0 93.5-15t62.5-40q24-25 35.5-58t11.5-68q0-63-21.5-113t-63-85Q405 27 345 8.5T209-10q-16 0-37.5.5t-50.5 3Q92-4 65.5-1T20 7zm4-592q10-3 31-4t41-1q28 0 55 8.5t48.5 25Q368 153 381 178t13 58q0 52-30.5 72T278 328q-14 0-34-2.5t-28-4.5z"/><glyph unicode="В" horiz-adv-x="568" d="M166 695q19 3 43 6t51 5q27 2 55.5 3t55.5 1q46 0 85.5-9.5t68-29.5q28.5-20 45-51.5T586 544q0-33-11-63.5T543.5 426q-20.5-24-49-40T430 365v-5q19-4 38-14.5t34-27q15-16.5 24-39t9-50.5q0-64-25-109.5t-67-74q-42-28.5-98-42T227-10h-41.5Q160-10 131-8.5T73-4Q44-1 20 5zm1-586q4-2 14.5-3t23-1.5q12.5-.5 25.5-1t22-.5q25 0 51.5 6t48 20q21.5 14 35.5 36t14 54q0 25-11 41t-29 25.5q-18 9.5-41.5 13T271 302h-64zm63 297h43q14 0 33 .5t32 2.5q18 3 38.5 10t37 20q16.5 13 27.5 33t11 50q0 43-28.5 59T351 597q-26 0-48-1t-34-3z"/><glyph unicode="Г" horiz-adv-x="436" d="M528 578H272L150 0H20l148 700h386z"/><glyph unicode="Д" horiz-adv-x="663" d="M575-125h-91L496 0H69L28-125h-92l52 247h70q9 11 33.5 48.5t54.5 107Q176 347 208.5 451T267 700h399L543 122h85zM414 122l96 456H364q-42-180-87-293t-79-163z"/><glyph unicode="Е" horiz-adv-x="503" d="M168 700h394l-26-122H272l-35-163h241l-27-122H212l-37-171h269L419 0H20z"/><glyph unicode="Ж" horiz-adv-x="803" d="M440 700h124l-66-311 34 11 195 300h154L662 393l-53-34 42-42L763 0H619l-98 304h-41L416 0H292l67 316-33-12L113 0H-46l236 307 61 39-38 37-98 317h140l82-299h40z"/><glyph unicode="З" horiz-adv-x="507" d="M141 309l23 108h23q9 0 21 .5t24.5 1.5q12.5 1 24.5 2t20 2q20 3 40 9.5t35.5 18.5q15.5 12 25.5 29t10 41q0 32-24.5 50.5T291 590q-42 0-80.5-12T147 555l-9 116q12 6 32.5 13t46 13q25.5 6 55.5 10.5t60 4.5q42 0 77-9.5t61-28.5q26-19 40.5-47.5T525 561q0-69-37.5-121T376 371v-5q19-6 37-16.5t31.5-27.5q13.5-17 22-41t8.5-57q0-61-24-105.5t-65.5-74Q344 15 288 .5T169-14Q106-14 56.5-3T-17 23l58 119q20-11 58-22.5t94-11.5q24 0 50 6t47 19.5q21 13.5 34.5 35.5t13.5 54q0 48-34.5 66T205 309h-38z"/><glyph unicode="И" horiz-adv-x="638" d="M487 381l29 89h-6l-64-96L120 0H20l148 700h130l-79-374-30-92h6l66 99 324 367h100L537 0H407z"/><glyph unicode="Й" horiz-adv-x="638" d="M487 381l29 89h-6l-64-96L120 0H20l148 700h130l-79-374-30-92h6l66 99 324 367h100L537 0H407zm-89 493q-2-28 13.5-44t43.5-16q65 0 85 59l114-17q-21-61-74.5-91T445 735q-39 0-68 9.5T329 770q-19 16-28.5 37.5T290 854z"/><glyph unicode="К" horiz-adv-x="593" d="M260 299h-47L150 0H20l148 700h130l-66-310 31 11 237 299h156L404 403l-60-35 44-39L540 0H395z"/><glyph unicode="Л" horiz-adv-x="599" d="M490 578H350q-23-95-43.5-173t-41-140Q245 203 222 155t-50-84q-18-24-37.5-39t-39-23.5Q76 0 58-3.5T24-7Q-22-7-48 7l39 118q5-2 10.5-3t10.5-1q17-1 34.5 8T79 158q18 22 38 64t41.5 108q21.5 66 45 157T253 700h392L497 0H368z"/><glyph unicode="М" horiz-adv-x="767" d="M613 363l44 138h-6l-66-113-197-259h-41l-94 262-18 110h-5l-10-137L143 0H20l148 700h115l105-320 13-80h5l46 82 236 318h125L665 0H536z"/><glyph unicode="Н" horiz-adv-x="624" d="M455 293H212L150 0H20l148 700h130l-60-285h243l60 285h130L523 0H393z"/><glyph unicode="О" horiz-adv-x="644" d="M58 262q0 93 25.5 175.5t72.5 144q47 61.5 113.5 97T418 714q54 0 97.5-16t74-49.5Q620 615 637 564t17-121q0-94-25.5-177t-72-145.5Q510 58 445.5 22T303-14q-118 0-181 69.5T58 262zm137 4q0-72 27.5-115t90.5-43q46 0 83.5 27.5t64.5 74Q488 256 502.5 316T517 441q0 79-31 115t-85 36q-45 0-82.5-26t-65-70.5q-27.5-44.5-43-104T195 266z"/><glyph unicode="П" horiz-adv-x="613" d="M504 578H272L150 0H20l148 700h492L512 0H382z"/><glyph unicode="Р" horiz-adv-x="550" d="M167 693q42 8 89.5 12.5T352 710q51 0 94.5-11.5t76-35.5q32.5-24 50.5-61.5t18-89.5q0-78-27-130.5t-71.5-85Q448 264 391 250.5T275 237h-15.5q-10.5 0-22 .5t-22 1.5q-10.5 1-15.5 2L150 0H20zm59-334q4-1 11-2t15.5-1.5q8.5-.5 16-.5H280q34 0 65.5 7.5t55.5 24q24 16.5 38.5 43.5t14.5 66q0 29-9.5 48T419 573.5Q403 584 381.5 588t-45.5 4q-18 0-34.5-1.5T274 587z"/><glyph unicode="С" horiz-adv-x="537" d="M483 29q-67-43-164-43-66 0-115 22t-81.5 61Q90 108 74 160T58 272q0 118 33 201.5t87 137Q232 664 301.5 689T444 714q57 0 97.5-8.5T605 686l-51-116q-20 11-48 16.5t-71 5.5q-51 0-95-21t-76-60q-32-39-50.5-95T195 289q0-85 42.5-133T351 108q45 0 74.5 9.5T481 141z"/><glyph unicode="Т" horiz-adv-x="547" d="M614 578H420L297 0H168l122 578H96l26 122h517z"/><glyph unicode="У" horiz-adv-x="546" d="M315 391l1-91h6l33 94 163 306h145L383 216q-33-57-59-99t-51.5-69.5Q247 20 218 6.5T150-7Q89-7 52 17l57 111q14-8 26-10.5t27-2.5q21 0 41 21.5t39 55.5L102 700h143z"/><glyph unicode="Ф" horiz-adv-x="770" d="M297 78q-20-4-35-5.5T222 71q-34 0-65 12.5t-54.5 38Q79 147 65 185.5T51 275q0 90 23.5 158.5t65 114q41.5 45.5 97 69T355 640q13 0 31-1.5t29-3.5l18 85h128l-18-88q19 5 38.5 6.5T616 640q78 0 125-51.5T788 437q0-80-21.5-147T706 174q-39-49-93.5-76T491 71q-17 0-35 1.5T425 78l-21-98H276zm145 105q8-2 19.5-2H485q36 0 67 16.5t54.5 47q23.5 30.5 37 74.5t13.5 99q0 112-91 112-11 0-26-1t-26-4zm-45 344q-10 2-22.5 2.5t-23.5.5q-36 0-66.5-16T231 467.5q-23-30.5-36-74T182 295q0-31 7.5-52.5t20-35q12.5-13.5 29.5-20t36-6.5q8 0 23 .5t27 4.5z"/><glyph unicode="Х" horiz-adv-x="608" d="M256 357L143 700h141l60-202 10-71 37 71 149 202h156L433 362 558 0H419l-72 216-12 74-40-74L134 0H-24z"/><glyph unicode="Ц" horiz-adv-x="655" d="M566-125h-91L487 0H20l148 700h130L175 122h230l123 578h129L535 122h84z"/><glyph unicode="Ч" horiz-adv-x="583" d="M284 700l-46-217q-3-13-3.5-24t-.5-22q0-39 18.5-58t60.5-19q36 0 67.5 8t53.5 25l65 307h130L481 0H351l60 282q-14-7-29-14t-33-13q-18-6-40.5-9.5T258 242q-35 0-64.5 9t-51 28Q121 298 109 327t-12 68q0 31 7 63l51 242z"/><glyph unicode="Ш" horiz-adv-x="825" d="M437 0H20l148 700h130L175 122h157l123 578h129L462 122h157l122 578h130L723 0H594z"/><glyph unicode="Щ" horiz-adv-x="869" d="M150 0H20l148 700h130L175 122h157l123 578h129L462 122h157l122 578h130L748 122h88l-52-247h-91L705 0H307z"/><glyph unicode="Ъ" horiz-adv-x="632" d="M232 578H81l25 122h281l-53-251q13 2 38.5 5t47.5 3q95 0 151.5-50T628 268q0-64-21-115.5T545 65Q504 29 441.5 9.5T297-10q-13 0-34.5.5t-49 2.5Q186-5 159-2t-48 9zm32-460q10-3 26.5-4.5T326 112q32 0 62 7.5t53 24q23 16.5 36.5 42T491 247q0 26-9 43t-24.5 27Q442 327 421 331t-45 4q-7 0-17-1l-20-2q-10-1-18.5-2.5T308 327z"/><glyph unicode="Ы" horiz-adv-x="765" d="M681 700h130L663 0H533zm-514 0h130l-53-251q13 2 33 5t43 3q48 0 85.5-13.5t63-38q25.5-24.5 38.5-58t13-73.5q0-66-22-118.5T434 66Q392 29 331 9.5T192-10h-26q-13 0-16 1-18 0-39 2T65.5-2Q41 1 20 7zm6-582q21-6 54-6t61.5 9q28.5 9 49.5 26.5t33 42.5q12 25 12 58 0 87-106 87-13 0-32-2.5t-27-5.5z"/><glyph unicode="Ь" horiz-adv-x="542" d="M167 700h130l-53-251q12 2 37.5 5t47.5 3q46 0 84-12.5t66-36.5q28-24 43.5-59t15.5-81q0-75-26-128t-71-86Q396 21 335 5.5T205-10q-13 0-34 .5T122.5-7Q95-5 68-2T20 7zm6-582q11-2 28-4t36-2q33 0 62.5 7.5t52 24q22.5 16.5 36 41.5t13.5 61q0 50-32 70t-85 19q-6 0-16-1t-19.5-2q-9.5-1-18-2.5T218 327z"/><glyph unicode="Э" horiz-adv-x="552" d="M176 410h251q3 38-2 71.5t-21.5 58Q387 564 356.5 578T278 592q-50 0-85-11.5T132 555l-4 116q38 18 82.5 30.5T306 714q70 0 119.5-22t80-59q30.5-37 44.5-84.5t14-99.5q0-99-24-184t-73.5-147Q417 56 341 21T161-14q-26 0-51.5 3T61-3.5Q38 1 19 7t-31 12l60 119q19-11 54-20.5t83-9.5q44 0 83 14t69 39.5q30 25.5 50.5 61T416 300H153z"/><glyph unicode="Ю" horiz-adv-x="864" d="M238 415h85q42 147 127.5 223T649 714q109 0 167.5-66T875 467q0-97-23.5-184.5T783 129Q738 63 671 24.5T517-14q-56 0-96.5 19.5t-66.5 54Q328 94 315.5 140T303 240q0 26 3 53h-94L150 0H20l148 700h130zm197-166q0-64 24-102.5t82-38.5q45 0 81.5 29.5t62 78Q710 264 724 327.5T738 459q0 63-26 98t-80 35q-44 0-80-28.5t-62-76Q464 440 449.5 378T435 249z"/><glyph unicode="Я" horiz-adv-x="557" d="M327 0l59 277-70-18L121 0H-30l184 235 66 44q-18 8-37.5 22T147 336q-16 21-26 50t-10 68q0 75 29 124t75.5 78.5Q262 686 321.5 698T442 710q15 0 30-1 1 0 14.5-.5t36-2.5q22.5-2 43.5-5t37-8L456 0zm124 583q-11 2-23 3.5t-29 1.5q-27 0-54-5.5T296.5 563q-21.5-14-35-38.5T248 463q0-48 29.5-72.5T355 366h49z"/><glyph unicode="а" horiz-adv-x="503" d="M444 200q-8-38-11.5-77T429 49q0-14 .5-26.5T431-1h-91l-14 86h-4q-11-18-28.5-35.5t-38.5-32Q234 3 210.5-5.5T162-14q-66 0-97.5 43T33 144q0 73 18.5 140T109 402q39 51 98.5 81.5T349 514q35 0 76.5-6.5T506 490zM209 89q18 0 34 7.5t29.5 19.5q13.5 12 24 26t18.5 26l50 233q-11 5-25.5 7.5T311 411q-36 0-64-21.5t-47.5-56Q180 299 170 255.5T160 168q0-32 10.5-55.5T209 89z"/><glyph unicode="б" horiz-adv-x="505" d="M176 392q72 97 180 97 39 0 66-11.5t44-32q17-20.5 24.5-49T498 334q0-80-21.5-144.5T417.5 80q-37.5-45-87-69.5T226-14Q179-14 144.5.5t-57 40Q65 66 53.5 102T42 181q0 105 23 196t63 159q40 68 95 109t120 46q82 7 134 13t73 23l-13-115q-20-14-59-21.5T370 578q-33-3-62-10.5T254 540q-25-20-46-55t-37-93zm-7-208q0-19 3-36.5t10.5-30.5q7.5-13 21.5-20.5t35-7.5q24 0 47.5 16t42.5 44.5q19 28.5 30.5 68T371 305q0 15-3.5 29.5t-11.5 26q-8 11.5-21 18.5t-32 7q-27 0-51.5-15.5T209 328q-18-27-29-64t-11-80z"/><glyph unicode="в" horiz-adv-x="465" d="M54 288q11 48 33 88.5t54 70q32 29.5 73.5 45.5t90.5 16q44 0 74-7t48.5-20.5Q446 467 454 448t8-44q0-24-9-45.5T429 319q-15-18-36-32t-45-21l-1-4q41-5 63-24.5t22-61.5q0-44-18-78t-49.5-57.5Q333 17 290 4.5T197-8q-36 0-66 9T79 29Q57 48 45 78t-12 73q0 20 3 41.5t8 46.5zm100-91q-4-19-4-38 0-67 67-67 38 0 64.5 20t26.5 57q0 22-18 36.5T226 216l-69-5zm92 99q12 1 27.5 6t29 13.5q13.5 8.5 23 21T335 366q0 20-9 31t-41 11q-81 0-106-92l-8-28z"/><glyph unicode="г" horiz-adv-x="410" d="M351 40q-32-24-76.5-39T188-14q-48 0-81 11.5t-54 31Q32 48 22.5 72.5T13 123q0 47 19.5 77.5t48.5 50q29 19.5 62.5 31.5t62.5 23q29 11 48.5 24t19.5 35q0 23-13 32.5t-42 9.5q-45 0-74-8.5T95 379l-15 93q16 9 37.5 15.5T163 499q24 5 48.5 7.5T257 509q40 0 67.5-9t44.5-24.5q17-15.5 24.5-36.5t7.5-45q0-49-19.5-79.5T333 264q-29-20-62.5-32T208 208.5Q179 197 159.5 182T140 143q0-26 19-40t48-14q34 0 65.5 9t51.5 22z"/><glyph unicode="д" horiz-adv-x="501" d="M293 500q27 0 43-5t28-13h5q-6 72-56.5 107T183 623l20 91q148 4 219-72.5T493 421q0-110-23-191.5T408 94q-39-54-89-81T215-14q-91 0-134.5 54.5T37 186q0 63 18.5 119.5t52.5 100q34 43.5 81 69T293 500zm73-127q-14 12-29.5 18t-39.5 6q-26 0-50-14.5t-42.5-42Q186 313 175 273.5T164 184q0-38 15.5-66.5T228 89q37 0 63 27.5t42.5 69.5q16.5 42 24.5 92t8 95z"/><glyph unicode="е" horiz-adv-x="466" d="M402 48q-31-26-80-44T208-14q-81 0-127.5 47.5T34 166q0 80 25 144.5T124.5 420q40.5 45 91.5 69.5T318 514q41 0 70.5-10.5t48.5-29q19-18.5 28-42.5t9-51q0-41-21-72t-58.5-51.5Q357 237 304 226.5T188 216q-8 0-15 .5t-15 .5q-2-12-3-21.5t-1-17.5q0-45 23.5-67T244 89q44 0 79 13t53 26zM176 295q28 0 59.5 2t58.5 9.5q27 7.5 45 22t18 39.5q0 15-11 30.5T300 414q-44 0-76.5-34T176 295z"/><glyph unicode="ж" horiz-adv-x="757" d="M249 206q-15-57-36.5-97.5t-47-65.5q-25.5-25-54-36.5T53-5Q33-5 14 0t-39 13L8 113q18-5 32-5 37 0 65 34t44 115q4 20 5 36t1 30q0 51-20.5 67.5T79 401l-12 89q45 12 80 12 60 0 91-35t31-110q0-14-1-28.5t-3-31.5h76l43 203h118l-44-203h70q14 58 34.5 97.5t45.5 64q25 24.5 53 35t56 10.5q31 0 65-13l-26-90q-11 3-21 3-31 0-58-29.5T633 268q-9-39-9-72 0-26 5-46t15.5-33q10.5-13 25.5-17t35 3l12-90Q670-3 635-3q-34 0-58 13.5T538 47q-15 23-21.5 54.5T510 168q0 10 .5 19t1.5 19h-73L396 0H278l44 206z"/><glyph unicode="з" horiz-adv-x="407" d="M100 208l19 89h58q16 0 32.5 5t29 14q12.5 9 20.5 21t8 26q0 24-15.5 34T198 407q-33 0-56-6t-48-17l-21 91q16 9 37 15t44.5 10.5q23.5 4.5 48 6.5t47.5 2q80 0 114-28.5t33-78.5q0-24-8-45.5T367 318q-14-17-32.5-30T295 268v-4q41-10 56.5-35.5T367 172q0-43-18-77t-50-57.5q-32-23.5-75.5-36T129-11Q81-11 41.5 1T-20 29l46 94q20-13 49.5-22.5T142 91q47 0 73 21.5t26 54.5q0 22-19 31.5t-76 9.5z"/><glyph unicode="и" horiz-adv-x="512" d="M241 500l-65-309q-6-30-6-50t8-31q8-11 28-11 17 0 34.5 8.5t33.5 22q16 13.5 29.5 30T326 192l64 308h123l-63-300q-5-20-8.5-47T435 97.5Q432 69 431 43t0-43h-99l-5 90h-4q-14-19-32.5-37.5t-41-33.5Q227 4 200.5-5T144-14Q97-14 68 9.5T39 96q0 37 10 81l69 323z"/><glyph unicode="й" horiz-adv-x="512" d="M241 500l-65-309q-6-30-6-50t8-31q8-11 28-11 17 0 34.5 8.5t33.5 22q16 13.5 29.5 30T326 192l64 308h123l-63-300q-5-20-8.5-47T435 97.5Q432 69 431 43t0-43h-99l-5 90h-4q-14-19-32.5-37.5t-41-33.5Q227 4 200.5-5T144-14Q97-14 68 9.5T39 96q0 37 10 81l69 323zm52 204q-2-39 10-55t37-16q26 0 45.5 16t33.5 54l87-25q-24-65-75-96.5T319 550q-29 0-55 7t-44.5 22.5Q201 595 191 619t-8 59z"/><glyph unicode="к" horiz-adv-x="472" d="M225 207h-44L138 0H15l106 500h123l-46-213 36 13 139 200h135L362 310l-58-38 46-39L429 0H298z"/><glyph unicode="л" horiz-adv-x="502" d="M363 397h-92q-25-93-48.5-167.5t-51.5-127Q143 50 108.5 22T28-6Q-26-6-47 9l38 108q17-5 29-5 20 1 37.5 18T94 190.5Q113 234 134.5 309T184 500h323L401 0H278z"/><glyph unicode="м" horiz-adv-x="641" d="M470 229l30 104h-5l-56-86L316 92h-45l-64 155-18 86h-6l-9-103L126 0H15l106 500h122l67-188 15-63h3l41 65 141 186h136L540 0H422z"/><glyph unicode="н" horiz-adv-x="518" d="M335 195H179L138 0H15l106 500h123l-41-187h156l40 187h124L417 0H293z"/><glyph unicode="о" horiz-adv-x="496" d="M34 162q0 79 22.5 144t60 111q37.5 46 87 71.5T307 514q48 0 81-15t53.5-40q20.5-25 29.5-57t9-66q0-78-22-142.5T399 83q-37-46-86-71.5T210-14q-47 0-80 15.5T75.5 42Q54 67 44 98.5T34 162zm127 17q0-90 65-90 24 0 47 21t41 55q18 34 28.5 77t10.5 86q0 40-13.5 61.5T289 411q-24 0-47-20t-41-52.5Q183 306 172 264t-11-85z"/><glyph unicode="п" horiz-adv-x="521" d="M294 0l66 310q6 28 6 49 0 22-9 34.5T324 406q-18 0-36-9t-34-24q-16-15-30-33.5T200 302L136 0H13l106 500h93l-5-88h4q13 16 30.5 34t40.5 33q23 15 51.5 25t64.5 10q45 0 72-24.5t27-81.5q0-15-1.5-32t-6.5-37L417 0z"/><glyph unicode="р" horiz-adv-x="506" d="M122 500h91l-5-88h4q14 19 32 37.5t40 32.5q22 14 47 23t54 9q51 0 82-35t31-110q0-85-22.5-155.5t-60-121Q378 42 327.5 14T222-14q-26 0-49 5T139 4L96-200H-26zm38-394q25-17 56-17t59 21q28 21 49.5 56t34 81.5Q371 294 371 345q0 29-13.5 47.5T321 411q-18 0-35-9t-32-22.5Q239 366 227 349t-21-33z"/><glyph unicode="с" horiz-adv-x="412" d="M393 387q-19 11-39.5 15t-44.5 4q-27 0-52.5-17.5t-46-46Q190 314 178 276t-12-78q0-51 22-77.5T246 94q30 0 55.5 9.5T347 125l23-84q-32-24-74.5-39.5T211-14q-48 0-81.5 14T75 38Q54 62 44 93t-10 65q0 84 24 150t63.5 111.5q39.5 45.5 90 70T315 514q47 0 74.5-9t49.5-20z"/><glyph unicode="т" horiz-adv-x="767" d="M283 0l57 272q6 28 9.5 49.5T353 360q0 46-35 46-17 0-34-9t-31.5-23q-14.5-14-27-30.5T205 312L141 0H18l106 500h96l-6-88h4q15 16 32.5 34t39.5 33q22 15 49 25t59 10q40 0 60.5-29t18.5-77q15 19 34.5 38t42 34q22.5 15 48 24.5T654 514q46 0 70.5-21.5T749 412q0-43-15-112L671 0H548l59 281q5 23 8 43t3 35q0 23-8.5 35T581 406q-16 0-32.5-9.5t-31.5-24Q502 358 489.5 341T470 309L406 0z"/><glyph unicode="у" horiz-adv-x="452" d="M216 219l1-78h6l27 79 136 280h131L277 51Q247-5 220.5-52T167-133q-27-34-56-53t-62-19q-44 0-66 15l33 98q6-3 12.5-4T41-97q24 0 49 23t50 74L46 500h141z"/><glyph unicode="ф" horiz-adv-x="689" d="M237-6q-16-5-30-6.5T181-14q-77 0-114.5 45T29 149q0 89 23 156.5t61 113q38 45.5 87 68.5t101 23q26 0 45-4l41 194h121l-41-195q17 3 30.5 4t26.5 1q79 0 116.5-43.5T678 351q0-93-24-162T591.5 75Q553 30 505 8t-96-22q-9 0-25 1.5T358-7l-41-193H196zm137 96q7-2 16-3t19-1q25 0 51 16.5t47 48q21 31.5 34 78T554 334q0 37-18.5 56.5T475 410q-10 0-16.5-1.5T441 404zm-44 315q-9 2-17.5 3.5T293 410q-23 0-47.5-17t-45-48.5q-20.5-31.5-34-75T153 174q0-42 18.5-65T225 86q10 0 18.5 1.5T263 92z"/><glyph unicode="х" horiz-adv-x="496" d="M166 256L76 500h139l38-107 13-70 44 70 87 107h143L345 260 445 0H309l-48 120-15 74-45-74L102 0H-41z"/><glyph unicode="ц" horiz-adv-x="536" d="M396 0q-43 0-61.5 23.5T324 90h-4q-11-17-28.5-35.5t-40-33.5Q229 6 201.5-4T144-14Q97-14 68 9.5T39 96q0 37 10 81l69 323h123l-65-308q-6-30-6-51 0-20 8-31t28-11q17 0 34.5 8.5t33.5 22q16 13.5 29.5 30T326 192l64 308h123l-68-321q-6-29-6-46t7-24q7-7 25-7h50l-61-216h-95z"/><glyph unicode="ч" horiz-adv-x="485" d="M219 500l-24-114q-5-21-7.5-38t-2.5-31q0-28 11.5-42t38.5-14q29 0 50.5 9t35.5 20l46 210h123L384 0H261l41 196q-17-11-48.5-24.5T174 158q-26 0-48 5.5T87.5 182Q71 195 62 216t-9 53q0 29 7 61l36 170z"/><glyph unicode="ш" horiz-adv-x="748" d="M495 500l-58-272q-12-56-12-85 0-45 31-45 13 0 28.5 8.5t30 21.5q14.5 13 27.5 29t21 31l64 312h123l-74-349q-8-38-12.5-76.5T657 0H556l-3 85h-4q-15-18-32-35.5T479.5 19Q459 6 434.5-2T380-10q-36 0-58.5 25T301 89q-30-39-71.5-69T132-10q-45 0-69 20.5T39 88q0 43 15 112l63 300h123l-59-281q-5-24-8-43t-3-34q0-44 27-44 17 0 34 9t31.5 23q14.5 14 26 30t18.5 31l64 309z"/><glyph unicode="щ" horiz-adv-x="771" d="M556 90q-30-41-73-70.5T380-10q-36 0-59 25t-21 74q-30-39-71.5-69T132-10q-45 0-69 20.5T39 88q0 43 15 112l63 300h123l-59-281q-5-24-8-43t-3-34q0-44 27-44 17 0 34 9t31.5 23q14.5 14 26 30t18.5 31l64 309h124l-58-272q-12-56-12-85 0-45 31-45 13 0 28.5 8.5t30 21.5q14.5 13 27.5 29t21 31l64 312h123l-69-321q-3-14-5-25.5t-2-20.5q0-17 7.5-24t25.5-7h51l-62-216h-94L632 0q-43 0-61.5 23.5T560 90h-4z"/><glyph unicode="ъ" horiz-adv-x="512" d="M213 154q-2-7-3-12.5t-1-10.5q0-35 45-35 22 0 42 7t35.5 19.5Q347 135 356 152t9 37q0 24-12 36.5T307 238q-20 0-41-5t-35-13zm36 160q24 8 52.5 11.5T354 329q71 0 104.5-29t33.5-83q0-47-21.5-88t-59-71q-37.5-30-87-47.5T218-7q-38 0-64 8t-42 22Q96 37 89 56t-7 41q0 12 2 24t5 25l66 251H41l22 103h237z"/><glyph unicode="ы" horiz-adv-x="675" d="M166 142q-1-4-2-7t-1-7q0-32 39-32 21 0 40.5 7t34 19q14.5 12 23.5 28.5t9 36.5q0 28-13.5 39.5T248 238q-18 0-33.5-3.5T185 226zm38 174q20 5 48 9t49 4q74 0 104.5-30t30.5-78q0-51-21.5-93T357 56q-36-30-84-46.5T172-7Q101-7 68.5 17.5T36 86q0 14 3 31l84 383h123zm353 184h123L574 0H451z"/><glyph unicode="ь" horiz-adv-x="464" d="M167 148q-1-4-2-7t-1-6q-2-39 48-39 21 0 40 7t33.5 20q14.5 13 23.5 30t9 38q0 26-13.5 36.5T257 238q-20 0-38.5-4.5T186 222zm37 166q22 6 49.5 10.5T313 329q41 0 67-9.5t40.5-25q14.5-15.5 19.5-35t5-39.5q0-48-19-89.5t-54-72q-35-30.5-83.5-48T180-7q-41 0-68.5 8t-44 21.5Q51 36 44 53.5T37 90v13.5q0 6.5 2 13.5l85 383h123z"/><glyph unicode="э" horiz-adv-x="433" d="M115 296h177q1 8 1.5 16t.5 14q0 44-21 64.5T217 411q-46 0-73.5-8.5T93 383l-28 81q40 24 85.5 37t93.5 13q85 0 129-45t44-126q0-94-23.5-161.5T331 70.5q-39-43.5-90-64T134-14Q86-14 43-2.5T-23 26l47 92q20-13 49-21t60-8q118 0 145 122H99z"/><glyph unicode="ю" horiz-adv-x="699" d="M275 308q29 97 92 151.5T514 514q48 0 80-15t51.5-40q19.5-25 28-57t8.5-66q0-76-21-140.5t-57-111Q568 38 520 12T418-14q-48 0-79.5 15.5t-51 40.5Q268 67 260 98.5t-8 63.5q0 11 .5 21.5T254 205h-73L138 0H15l106 500h123l-41-192zm99-129q0-45 13-67.5T433 89q23 0 45 21t39 55q17 34 27.5 77t10.5 86q0 40-11.5 61.5T495 411q-24 0-46-20t-38.5-52.5Q394 306 384 264t-10-85z"/><glyph unicode="я" horiz-adv-x="481" d="M300 182l-63-12L115 0H-32L88 159l57 35q-33 9-57 37.5T64 305q0 46 19.5 84.5t53.5 66q34 27.5 80 43T317 514q25 0 50.5-3t48-8q22.5-5 41-10.5T486 483L384 0H261zm15 74l31 141q-5 2-18.5 5.5T294 406q-44 0-73.5-23T191 318q0-32 19-48t70-16z"/><glyph unicode="ё" horiz-adv-x="466" d="M402 48q-31-26-80-44T208-14q-81 0-127.5 47.5T34 166q0 80 25 144.5T124.5 420q40.5 45 91.5 69.5T318 514q41 0 70.5-10.5t48.5-29q19-18.5 28-42.5t9-51q0-41-21-72t-58.5-51.5Q357 237 304 226.5T188 216q-8 0-15 .5t-15 .5q-2-12-3-21.5t-1-17.5q0-45 23.5-67T244 89q44 0 79 13t53 26zM176 295q28 0 59.5 2t58.5 9.5q27 7.5 45 22t18 39.5q0 15-11 30.5T300 414q-44 0-76.5-34T176 295zm-6 336q0 33 18.5 51.5T236 701q29 0 47.5-18.5T302 631q0-32-18.5-50T236 563q-29 0-47.5 18T170 631zm208 1q0 32 18.5 50.5T444 701q29 0 47.5-18.5T510 632q0-32-18.5-50.5T444 563q-29 0-47.5 18.5T378 632z"/><glyph unicode="ђ" horiz-adv-x="511" d="M85 600h70l21 100h123l-22-100h155l-17-80H260l-30-140h4q13 13 30 27t38.5 26q21.5 12 47.5 19.5t57 7.5q47 0 71.5-24t24.5-82q0-40-12-97L437 0q-23-106-67.5-157T250-208q-14 0-28.5 1.5T191-201l23 111q24-2 41 2.5t28 16Q294-60 301.5-42T314 0l51 241q8 37 8 61 0 26-10 40.5T330 357q-17 0-35.5-8t-35-21Q243 315 229 298.5T207 264L151 0H28l110 520H68z"/><glyph unicode="ѓ" horiz-adv-x="410" d="M351 40q-32-24-76.5-39T188-14q-48 0-81 11.5t-54 31Q32 48 22.5 72.5T13 123q0 47 19.5 77.5t48.5 50q29 19.5 62.5 31.5t62.5 23q29 11 48.5 24t19.5 35q0 23-13 32.5t-42 9.5q-45 0-74-8.5T95 379l-15 93q16 9 37.5 15.5T163 499q24 5 48.5 7.5T257 509q40 0 67.5-9t44.5-24.5q17-15.5 24.5-36.5t7.5-45q0-49-19.5-79.5T333 264q-29-20-62.5-32T208 208.5Q179 197 159.5 182T140 143q0-26 19-40t48-14q34 0 65.5 9t51.5 22zm-48 680h125l-6-30-133-124h-69z"/><glyph unicode="є" horiz-adv-x="430" d="M393 46q-35-29-83-44.5T214-14q-41 0-74 13T83.5 36.5Q60 61 47 95t-13 76q0 85 25.5 149.5t67 107.5q41.5 43 94 64.5T327 514q52 0 79.5-9t47.5-20l-42-91q-21 11-41 14t-44 3q-42 0-82.5-28.5T181 300h188l-19-86H161v-20q0-48 22-76.5T259 89q33 0 60.5 11t47.5 24z"/><glyph unicode="ѕ" horiz-adv-x="396" d="M38 117q20-11 51.5-19.5T156 89q35 0 53.5 13.5T229 144q0 20-12 34.5T186.5 206Q168 219 147 232.5t-39.5 31Q89 281 77 305t-12 58q0 33 13 61t36.5 48q23.5 20 57 31t75.5 11q58 0 96-8.5t60-21.5l-34-94q-20 9-48.5 15t-59.5 6q-32 0-50.5-11T192 365q0-16 12-28.5t30.5-25.5q18.5-13 39.5-26.5t39.5-32.5q18.5-19 30.5-43.5t12-58.5q0-83-54-123.5T158-14q-51 0-93.5 9.5T-1 19z"/><glyph unicode="і" horiz-adv-x="256" d="M133 500h123L150 0H27zm17 142q0 33 21.5 51t54.5 18q32 0 54.5-18t22.5-51q0-32-22.5-50.5T226 573q-33 0-54.5 18.5T150 642z"/><glyph unicode="ї" horiz-adv-x="302" d="M144 500h123L161 0H38zm-42 141q0 32 16.5 49.5T163 708q28 0 44.5-17.5T224 641q0-32-16.5-49T163 575q-29 0-45 17t-16 49zm144 0q0 32 16 49.5t45 17.5q28 0 44.5-17.5T368 641q0-32-16.5-49T306 575q-28 0-44 17t-16 49z"/><glyph unicode="ј" horiz-adv-x="244" d="M123 500h124L136-21q-19-90-64-137.5T-50-206q-31 0-62 7l24 106q25-2 43 4.5T-14.5-68Q-2-54 6.5-32.5T21 16zm16 142q0 33 21.5 51t54.5 18q32 0 54.5-18t22.5-51q0-32-22.5-50.5T215 573q-33 0-54.5 18.5T139 642z"/><glyph unicode="љ" horiz-adv-x="724" d="M427 149q-1-5-2-9t-1-8q0-36 48-36 21 0 40 7.5t33.5 20.5q14.5 13 23.5 30.5t9 38.5q0 26-13.5 35.5T517 238q-20 0-39-4t-33-11zm78 351l-41-186q22 6 49.5 10.5T573 329q41 0 67-9.5t40.5-25q14.5-15.5 19.5-35t5-39.5q0-48-19-89.5t-54-72q-35-30.5-83.5-48T440-7q-41 0-68.5 8.5t-44 22Q311 37 304 54.5T297 91v13.5q0 6.5 2 12.5l62 280h-90q-25-93-48.5-167.5t-51.5-127Q143 50 108.5 22T28-6Q-26-6-47 9l38 107q27-9 48-1t42.5 48.5Q103 204 127 284t57 216z"/><glyph unicode="њ" horiz-adv-x="738" d="M477 313q23 6 51 11t60 5q41 0 66.5-9.5t40-25q14.5-15.5 19.5-35t5-39.5q0-48-19-89.5t-53.5-72q-34.5-30.5-83-48T455-7q-41 0-68 8t-44 21.5Q326 36 318.5 53T311 89q0 16 3 31l18 85H181L138 0H15l106 500h123l-42-192h152l41 192h123zm-36-165q-1-5-2-8.5t-1-7.5q0-36 49-36 21 0 40 7.5t33.5 20q14.5 12.5 23 30T592 192q0 26-13.5 36T531 238q-20 0-38.5-4T460 223z"/><glyph unicode="ћ" horiz-adv-x="505" d="M85 600h70l21 100h123l-22-100h155l-17-80H260l-29-135h4q34 31 75.5 53t95.5 22q41 0 66-24t25-86q0-20-2.5-42.5T486 257L432 0H309l51 244q5 20 7.5 36t2.5 30q0 23-9 35t-32 12q-20 0-38.5-8.5t-34.5-22q-16-13.5-29-31T205 260L151 0H28l110 520H68z"/><glyph unicode="ќ" horiz-adv-x="472" d="M225 207h-44L138 0H15l106 500h123l-46-213 36 13 139 200h135L362 310l-58-38 46-39L429 0H298zm121 513h125l-6-30-133-124h-69z"/><glyph unicode="ў" horiz-adv-x="452" d="M216 219l1-78h6l27 79 136 280h131L277 51Q247-5 220.5-52T167-133q-27-34-56-53t-62-19q-44 0-66 15l33 98q6-3 12.5-4T41-97q24 0 49 23t50 74L46 500h141zm60 485q-2-39 10-55t37-16q26 0 45.5 16t33.5 54l87-25q-24-65-75-96.5T302 550q-29 0-55 7t-44.5 22.5Q184 595 174 619t-8 59z"/><glyph unicode="џ" horiz-adv-x="512" d="M241 500l-65-309q-6-30-6-50t8-31q8-11 28-11 17 0 34.5 8.5t33.5 22q16 13.5 29.5 30T326 192l64 308h123l-63-300q-5-20-8.5-47T435 97.5Q432 69 431 43t0-43h-99l-5 90h-4q-14-19-32.5-37.5t-41-33.5Q227 4 200.5-5T144-14Q97-14 68 9.5T39 96q0 37 10 81l69 323zm39-535l-22-165H144l45 165z"/><glyph unicode="Ѣ" horiz-adv-x="626" d="M101 646h135l17 79h130l-17-79h191l-25-111H342l-20-92q11 2 38 5t49 3q46 0 84-12t65.5-35q27.5-23 43-57.5T617 266q0-72-24.5-124T524 56.5Q480 23 419.5 6.5T286-10q-14 0-36.5.5T201-7q-26 2-53 5t-48 9l112 528H77zm152-528q10-3 27.5-4.5T317 112q30 0 59.5 7t52.5 22.5q23 15.5 37 41t14 62.5q0 52-32.5 71T363 335q-6 0-16-1t-19.5-2q-9.5-1-18-2.5T297 327z"/><glyph unicode="ѣ" horiz-adv-x="706" d="M408 148q-11-52 45-52 21 0 40 7.5t34 20q15 12.5 23.5 30T559 192q0 26-13.5 36T498 238q-20 0-38.5-4T427 223zm-85 162q9 39 9 61 0 35-27 35-14 0-28-9.5T250 372q-13-15-24.5-33.5T205 302L141 0H18l106 500h93l-5-84h4q11 18 25 35.5t32.5 31.5q18.5 14 43.5 22.5t57 8.5q41 0 64.5-22.5T462 417q0-17-3-36t-8-42l-6-25q23 6 50 10.5t59 4.5q41 0 67-9.5t40.5-25q14.5-15.5 19.5-35t5-39.5q0-48-19-89.5t-53.5-72q-34.5-30.5-83-48T422-7q-49 0-79 11t-45.5 29q-15.5 18-19 40t1.5 44z"/><glyph unicode="Ѳ" horiz-adv-x="644" d="M58 262q0 93 24.5 175.5t71 144q46.5 61.5 112 97T414 714q53 0 97.5-16t76-49.5q31.5-33.5 49-84.5T654 443q0-94-25-177t-70.5-145.5Q513 58 449.5 22T308-14q-118 0-183.5 69.5T58 262zm138 34q-1-8-1-15v-15q0-72 29.5-115t92.5-43q32 0 60 14t51 39.5q23 25.5 40.5 59.5t28.5 75zm320 111q0 8 .5 16.5t.5 17.5q0 79-33 115t-87 36q-32 0-60.5-13.5T285 540q-23-25-41-59t-30-74z"/><glyph unicode="ѳ" horiz-adv-x="496" d="M34 162q0 79 22.5 144T117 417q38 46 87.5 71.5T308 514q48 0 81-15t53-40q20-25 29-57t9-66q0-78-22-142.5T398.5 83Q361 37 312 11.5T209-14q-47 0-80 15.5T75 42Q54 67 44 98.5T34 162zm316 127q3 19 3 39 0 40-13.5 61.5T289 411q-16 0-32-9.5t-30-26Q213 359 200.5 337T179 289zm-188-81q-1-8-1-15v-14q0-90 65-90 32 0 60 34t46 85z"/><glyph unicode="Ѵ" horiz-adv-x="604" d="M296-5h-94L101 700h142l45-411-8-118h4l43 119 113 229q28 58 53 95t50.5 58q25.5 21 53.5 29t62 8q35 0 59.5-6.5T761 686l-53-114q-14 8-26.5 11.5T655 587q-23 0-42.5-18.5T572 510z"/><glyph unicode="ѵ" horiz-adv-x="463" d="M214-5h-76L40 500h135l33-262v-77h4l30 79 38 71q28 54 52 92t48 61.5q24 23.5 49.5 34T486 509q23 0 42.5-4.5T561 492l-39-104q-8 3-15 5.5t-15 2.5q-17 0-35-14.5T415 329z"/><glyph unicode="Ҋ" horiz-adv-x="683" d="M487 381l29 89h-6l-64-96L120 0H20l148 700h130l-79-374-30-92h6l66 99 324 367h100L561 118h111l-6-31-136-217h-90L511 0H407zM385 874q-2-28 13.5-44t43.5-16q65 0 85 59l114-17q-21-61-74.5-91T432 735q-39 0-68 9.5T316 770q-19 16-28.5 37.5T277 854z"/><glyph unicode="ҋ" horiz-adv-x="561" d="M241 500l-65-309q-6-30-6-50t8-31q8-11 28-11 17 0 34.5 8.5t33.5 22q16 13.5 29.5 30T326 192l64 308h123l-63-300q-4-17-7.5-37.5T436 118h116l-6-31-136-217h-90L391 0h-59l-5 90h-4q-14-19-32.5-37.5t-41-33.5Q227 4 200.5-5T144-14Q97-14 68 9.5T39 96q0 37 10 81l69 323zm52 204q-2-39 10-55t37-16q26 0 45.5 16t33.5 54l88-25q-25-65-76-96.5T319 550q-29 0-55 7t-44.5 22.5Q201 595 191 619t-8 59z"/><glyph unicode="Ҍ" horiz-adv-x="626" d="M101 646h135l17 79h130l-17-79h191l-25-111H342l-20-92q11 2 38 5t49 3q46 0 84-12t65.5-35q27.5-23 43-57.5T617 266q0-72-24.5-124T524 56.5Q480 23 419.5 6.5T286-10q-14 0-36.5.5T201-7q-26 2-53 5t-48 9l112 528H77zm152-528q10-3 27.5-4.5T317 112q30 0 59.5 7t52.5 22.5q23 15.5 37 41t14 62.5q0 52-32.5 71T363 335q-6 0-16-1t-19.5-2q-9.5-1-18-2.5T297 327z"/><glyph unicode="ҍ" horiz-adv-x="464" d="M247 500h175l-20-91H226l-22-95q22 6 49.5 10.5T313 329q41 0 67-9.5t40.5-25q14.5-15.5 19.5-35t5-39.5q0-48-19-89.5t-54-72q-35-30.5-83.5-48T180-7q-48 0-78 11T56.5 33Q41 51 37.5 73t1.5 44l65 292H22l20 91h83l45 200h123zm-80-352q-5-25 5.5-39T212 95q21 0 40 7.5t33.5 20.5q14.5 13 23.5 30.5t9 38.5q0 26-13.5 36T257 238q-20 0-38.5-4T186 223z"/><glyph unicode="Ҏ" horiz-adv-x="550" d="M167 693q42 8 89.5 12.5T352 710q51 0 94.5-11.5t76-35.5q32.5-24 50.5-61.5t18-89.5q0-92-37-149t-95-87l41-85-89-43-47 97q-22-5-44-6.5t-45-1.5h-15.5q-10.5 0-22 .5t-22 1.5q-10.5 1-15.5 2L150 0H20zm59-334q4-1 11-2t15.5-1.5q8.5-.5 16-.5H280q14 0 27.5 1t27.5 4l-40 87 56 27 42-93q28 17 44.5 44.5T454 496q0 29-9.5 48T419 573.5Q403 584 381.5 588t-45.5 4q-18 0-34.5-1.5T274 587z"/><glyph unicode="ҏ" horiz-adv-x="506" d="M122 500h91l-5-88h4q14 19 32 37.5t40 32.5q22 14 47 23t54 9q51 0 82-35t31-110q0-109-35.5-192.5T370 44l35-62-82-60-41 73q-30-9-60-9-26 0-49 5T139 4L96-200H-26zm146-317l29-53q33 35 53.5 92T371 345q0 29-13.5 47.5T321 411q-18 0-35-9t-32-22.5Q239 366 227 349t-21-33l-46-210q25-17 56-17 16 0 33 6l-30 54z"/><glyph unicode="Ґ" horiz-adv-x="436" d="M451 700l52 152h83l-58-274H272L150 0H20l148 700z"/><glyph unicode="ґ" horiz-adv-x="378" d="M405 392H226L143 0H15l106 500h204l52 152h83z"/><glyph unicode="Ғ" horiz-adv-x="489" d="M561 578H305l-41-191h214l-19-93H245L183 0H53l62 294H24l20 93h90l67 313h386z"/><glyph unicode="ғ" horiz-adv-x="416" d="M426 397H247l-27-123h164l-17-80H202L160 0H37l41 194H7l17 80h71l48 226h302z"/><glyph unicode="Ҕ" horiz-adv-x="560" d="M150 0H20l148 700h386l-26-122H272l-43-203q18 7 49.5 14.5T355 397q82 0 129.5-47.5T532 210q0-60-15.5-120.5T466-19q-35-48-91.5-78T236-127q-52 0-65 4L196-6q13-3 54-3 36 0 63.5 15.5T359 48q18 26 27 60.5t9 72.5q0 51-26 72.5T294 275q-23 0-49.5-5.5T204 257z"/><glyph unicode="ҕ" horiz-adv-x="476" d="M141 0H18l106 500h302l-21-103H225l-30-142q17 6 49 15.5t83 9.5q62 0 97-34.5t35-97.5q0-94-21.5-161T378-123q-38-43-90.5-63.5T173-207q-25 0-38 1.5t-20 4.5l24 101q7-2 19.5-3t33.5-1q24 0 48.5 12.5t45 38Q306-28 319 11t13 93q0 38-20.5 55.5T261 177q-29 0-52-6t-35-13z"/><glyph unicode="Җ" horiz-adv-x="821" d="M440 700h124l-66-311 34 11 195 300h154L662 393l-53-34 42-42 69-195h79l-53-247h-91L667 0h-48l-98 304h-41L416 0H292l67 316-33-12L113 0H-46l236 307 61 39-38 37-98 317h140l82-299h40z"/><glyph unicode="җ" horiz-adv-x="770" d="M249 206q-15-57-36.5-97.5t-47-65.5q-25.5-25-54-36.5T53-5Q33-5 14 0t-39 13L8 113q18-5 32-5 37 0 65 34t44 115q4 20 5 36t1 30q0 51-20.5 67.5T79 401l-12 89q45 12 80 12 60 0 91-35t31-110q0-14-1-28.5t-3-31.5h76l43 203h118l-44-203h70q14 58 34.5 97.5t45.5 64q25 24.5 53 35t56 10.5q31 0 65-13l-26-90q-11 3-21 3-31 0-58-29.5T633 268q-9-39-9-72 0-26 5-46t15.5-33q10.5-13 25.5-17t35 3l39-29-54-188h-94L625-3q-31 2-53 16t-35.5 37q-13.5 23-20 53.5T510 168q0 10 .5 19t1.5 19h-73L396 0H278l44 206z"/><glyph unicode="Ҙ" horiz-adv-x="507" d="M164 417h23q9 0 21 .5t24.5 1.5q12.5 1 24.5 2t20 2q20 3 40 9.5t35.5 18.5q15.5 12 25.5 29t10 41q0 32-24.5 50.5T291 590q-42 0-80.5-12T147 555l-9 116q12 6 32.5 13t46 13q25.5 6 55.5 10.5t60 4.5q42 0 77-9.5t61-28.5q26-19 40.5-47.5T525 561q0-69-37.5-121T376 371v-5q19-6 37-16.5t31.5-27.5q13.5-17 22-41t8.5-57q0-55-19.5-96.5t-54-71Q367 27 320 10.5T219-11l-25-164H78l43 163Q74-8 38 1.5T-17 23l58 119q20-11 58-22.5t94-11.5q24 0 50 6t47 19.5q21 13.5 34.5 35.5t13.5 54q0 49-34.5 67.5T205 309h-64z"/><glyph unicode="ҙ" horiz-adv-x="407" d="M100 206l19 91h58q16 0 33 5t30 13.5q13 8.5 21.5 20.5t8.5 26q0 24-17 34t-55 10q-33 0-56-6t-48-17l-21 92q16 9 37 15t44.5 10.5q23.5 4.5 48 6.5t47.5 2q80 0 113.5-28.5T397 402q0-24-8-45.5T367 318q-14-17-32.5-30T295 268v-4q42-10 57-35.5t15-56.5q0-74-49.5-120T189-6l-26-169H47L90-9Q55-4 26 6t-46 23l46 95q20-13 49.5-22.5T142 92q47 0 73 20t26 52q0 23-19 32.5t-76 9.5z"/><glyph unicode="Қ" horiz-adv-x="607" d="M260 299h-47L150 0H20l148 700h130l-66-310 31 11 237 299h156L404 403l-60-35 44-39 95-207h106l-52-247h-92L457 0h-62z"/><glyph unicode="қ" horiz-adv-x="478" d="M225 207h-44L138 0H15l106 500h123l-46-213 36 13 139 200h135L362 310l-58-38 46-39 44-130h88l-64-217h-94L354 0h-56z"/><glyph unicode="Ҝ" horiz-adv-x="691" d="M259 299h-46L150 0H20l148 700h130l-66-310 47 4 28 133h88l-26-125 16 2 215 296h152L526 405l-59-37 45-39L631 0H492L387 299h-40l-27-127h-88z"/><glyph unicode="ҝ" horiz-adv-x="540" d="M223 207h-42L138 0H15l106 500h123l-46-213 43 4 25 120h72l-24-112 19 2 128 199h131L469 310l-67-38 45-39L503 0H373l-48 207h-30L270 89h-72z"/><glyph unicode="Ҟ" horiz-adv-x="667" d="M99 643h125l12 57h129l-12-57h89l-19-93h-90l-33-160 51 14 227 296h149L486 404l-72-36 51-39L605 0H463L336 299h-56L217 0H88l114 539H78z"/><glyph unicode="ҟ" horiz-adv-x="465" d="M74 626h76l16 74h123l-16-74h148l-17-80H256l-55-259 37 13 141 200h137L367 299l-60-38 45-38L428 0H296l-72 207h-40L141 0H18l115 546H57z"/><glyph unicode="Ҡ" horiz-adv-x="690" d="M237 578H85l26 122h281l-66-310 30 11 238 299h156L498 404l-60-36 44-39L634 0H489L354 299h-47L244 0H114z"/><glyph unicode="ҡ" horiz-adv-x="501" d="M228 287l29 14 154 199h141L398 310l-64-38 46-39L458 0H329l-72 207h-46L167 0H44l85 397H24l22 103h227z"/><glyph unicode="Ң" horiz-adv-x="666" d="M455 293H212L150 0H20l148 700h130l-60-285h243l60 285h130L549 122h83l-53-247h-91L500 0H393z"/><glyph unicode="ң" horiz-adv-x="529" d="M338 195H182L141 0H18l106 500h123l-41-187h156l40 187h124l-85-397h76l-64-217h-94L389 0h-93z"/><glyph unicode="Ҥ" horiz-adv-x="809" d="M901 578H645L523 0H393l62 293H212L150 0H20l148 700h130l-60-285h243l60 285h386z"/><glyph unicode="ҥ" horiz-adv-x="654" d="M338 195H182L141 0H18l106 500h123l-41-187h156l40 187h303l-22-103H504L420 0H296z"/><glyph unicode="Ҧ" horiz-adv-x="916" d="M512 0H382l122 578H272L150 0H20l148 700h492l-69-325q17 6 49 14t78 8q34 0 66-10t56.5-32.5q24.5-22.5 39-57.5t14.5-86q0-66-16.5-127T825-24q-36-47-92.5-75T595-127q-27 0-41 1t-21 3L558-6q6-2 21-2.5t35-.5q36 0 63 15.5T721.5 48Q739 74 748 108t9 72q0 28-7.5 46.5t-21 29.5Q715 267 696 271t-42 4q-23 1-49-5.5T566 257z"/><glyph unicode="ҧ" horiz-adv-x="752" d="M422 0H299l66 310q6 28 6 49 0 22-9 34.5T329 406q-18 0-36-9t-34-24q-16-15-30-33.5T205 302L141 0H18l106 500h93l-5-88h4q13 16 30.5 34t40.5 33q23 15 51.5 25t64.5 10q45 0 72-24.5t27-81.5q0-15-1.5-32t-6.5-37l-16-80q17 6 44 13.5t63 7.5q72 0 111.5-35.5T736 137q0-84-20.5-148T659-118.5Q623-162 573.5-184T466-206q-22 0-39.5 3.5T402-196l24 100q18-7 53-7 24 0 47.5 14T568-49q18 26 29.5 63T609 98q0 42-15.5 60.5T533 177q-21 0-42.5-6.5T456 158z"/><glyph unicode="Ҩ" horiz-adv-x="839" d="M413 592q-42 0-81.5-21.5T262 510q-30-39-48.5-94.5T195 292q0-51 11.5-86.5t31.5-57q20-21.5 47-31t59-9.5q11 0 25 2.5t24 7.5q-9 8-20.5 25T351 184.5Q341 209 334 242t-7 72q0 93 26 161.5t68.5 114q42.5 45.5 97.5 68T632 680q33 0 67.5-9.5t63.5-33q29-23.5 47.5-64T829 471q0-57-14-112t-40-102.5Q749 209 711 171t-87-62q5-2 10.5-1.5t11.5.5q29 0 57 8t48 22l17-107q-25-20-59.5-32.5T623-14q-38 0-75 11t-61 37q-37-24-75.5-36T321-14q-80 0-131 28.5T110 86q-29 43-40.5 94T58 276q0 110 31.5 192.5t84.5 137Q227 660 296 687t143 27zm51-267q0-17 2-39.5t8.5-46.5q6.5-24 19.5-46.5t34-39.5q34 19 64 49.5t52.5 68.5q22.5 38 35 82t12.5 92q0 55-19 84t-63 29q-24 0-50-15t-47.5-44q-21.5-29-35-73T464 325z"/><glyph unicode="ҩ" horiz-adv-x="668" d="M299 404q-27-2-52-18t-44-43q-19-27-30.5-63T161 202q0-30 7.5-51t19.5-34.5q12-13.5 28-20t34-6.5q15 0 31.5 4t24.5 9q-17 17-31.5 51.5T260 237q0 43 17 89t48.5 83q31.5 37 75.5 61t98 24q77 0 115-38.5T652 342q0-42-13.5-80.5t-35-71Q582 158 554 133t-56-41q10-10 25-13t31.5-1.5Q571 79 586 83t25 9l-8-80Q590 1 562-6.5T507-14q-42 0-72 11.5T380 36q-7-7-21.5-15.5T324 4.5q-20-7.5-45.5-13T223-14q-89 0-139 53.5T34 190q0 62 20 119.5T111.5 411q37.5 44 91 72T322 514zm79-170q0-29 9-58t29-46q18 10 37.5 30.5t35 46.5q15.5 26 26 56t10.5 61q0 38-10.5 52T480 390q-21 0-39.5-12T408 345q-14-21-22-49.5t-8-61.5z"/><glyph unicode="Ҫ" horiz-adv-x="537" d="M483 29Q428-7 349-13l-25-162H208L252-7q-49 10-85.5 35.5T106 91q-24 37-36 83t-12 98q0 118 33 201.5t87 137Q232 664 301.5 689T444 714q57 0 97.5-8.5T605 686l-51-116q-20 11-48 16.5t-71 5.5q-51 0-95-21t-76-60q-32-39-50.5-95T195 289q0-85 42.5-132.5T351 109q45 0 74.5 9.5T481 142z"/><glyph unicode="ҫ" horiz-adv-x="412" d="M370 41q-26-19-57.5-32.5T248-11l-25-164H107L151-7q-31 8-53 24T61.5 55q-14.5 22-21 48.5T34 158q0 84 24 150t63.5 111.5q39.5 45.5 90 70T315 514q47 0 74.5-9t49.5-20l-46-98q-19 11-39.5 15t-44.5 4q-27 0-52.5-17.5t-46-46Q190 314 178 276t-12-78q0-51 22-77.5T246 94q30 0 55.5 9.5T347 125z"/><glyph unicode="Ҭ" horiz-adv-x="547" d="M614 578H420l-97-456h84l-53-247h-91L275 0H168l122 578H96l26 122h517z"/><glyph unicode="ҭ" horiz-adv-x="796" d="M548 0l59 281q5 23 8 43t3 35q0 23-8.5 35T581 406q-16 0-32.5-9.5t-31.5-24Q502 358 489.5 341T470 309L406 0H283l57 272q6 28 9.5 49.5T353 360q0 46-35 46-17 0-34-9t-31.5-23q-14.5-14-27-30.5T205 312L141 0H18l106 500h96l-6-88h4q15 16 32.5 34t39.5 33q22 15 49 25t59 10q40 0 60.5-29t18.5-77q15 19 34.5 38t42 34q22.5 15 48 24.5T654 514q46 0 70.5-21.5T749 412q0-43-15-112l-42-197h92l-64-217h-94L656 0z"/><glyph unicode="Ү" horiz-adv-x="569" d="M231 260L106 700h144l65-263-2-74h4l31 76 175 261h149L361 261 306 0H177z"/><glyph unicode="ү" horiz-adv-x="448" d="M40 500h138l26-297-4-93h5l34 95 142 295h139L241-1l-43-199H75L117-1z"/><glyph unicode="Ұ" horiz-adv-x="569" d="M92 294h129L106 700h144l65-263-2-74h4l31 76 175 261h149L384 294h133l-20-91H349L306 0H177l42 203H72z"/><glyph unicode="ұ" horiz-adv-x="463" d="M20 0h112L55 500h138l26-297-4-93h5l34 95 142 295h139L256 0h111l-17-80H239l-26-120H90l25 120H3z"/><glyph unicode="Ҳ" horiz-adv-x="638" d="M256 357L143 700h141l60-202 10-71 37 71 149 202h156L433 362l83-240h97l-53-247h-91L481 0h-62l-72 216-12 74-40-74L134 0H-24z"/><glyph unicode="ҳ" horiz-adv-x="496" d="M261 120l-15 74-45-74L102 0H-41l207 256-90 244h139l38-107 13-70 44 70 87 107h143L345 260l61-157h77l-64-217h-94L355 0h-46z"/><glyph unicode="Ҵ" horiz-adv-x="803" d="M713-125h-91L634 0H167l122 578H96l26 122h458l-26-122H419l-97-456h230l123 578h129L682 122h84z"/><glyph unicode="ҵ" horiz-adv-x="536" d="M396 0q-43 0-61.5 23.5T324 90h-4q-11-17-28.5-35.5t-40-33.5Q229 6 201.5-4T144-14Q97-14 68 9.5T39 96q0 37 10 81l69 323h123l-65-308q-6-30-6-51 0-20 8-31t28-11q17 0 34.5 8.5t33.5 22q16 13.5 29.5 30T326 192l64 308h123l-68-321q-6-29-6-46t7-24q7-7 25-7h50l-61-216h-95zM188 658h308l-19-92H169z"/><glyph unicode="Ҷ" horiz-adv-x="624" d="M284 700l-46-217q-3-13-3.5-24t-.5-22q0-39 18.5-58t60.5-19q36 0 67.5 8t53.5 25l65 307h130L507 122h83l-53-247h-91L458 0H351l60 282q-14-7-29-14t-33-13q-18-6-40.5-9.5T258 242q-35 0-64.5 9t-51 28Q121 298 109 327t-12 68q0 31 7 63l51 242z"/><glyph unicode="ҷ" horiz-adv-x="496" d="M219 500l-24-114q-5-21-7.5-38t-2.5-31q0-28 11.5-42t38.5-14q29 0 50.5 9t35.5 20l46 210h123l-85-397h82l-64-217h-94L359 0h-98l41 196q-17-11-48.5-24.5T174 158q-26 0-48 5.5T87.5 182Q71 195 62 216t-9 53q0 29 7 61l36 170z"/><glyph unicode="Ҹ" horiz-adv-x="619" d="M284 700l-46-217q-6-27-6-48 0-32 14.5-51t49.5-24l25 117h89l-24-112q25 5 47.5 12t36.5 16l66 307h129L517 0H388l59 282q-14-8-35.5-16.5T361 251l-27-129h-88l25 120q-80 1-126.5 38.5T98 396q0 31 7 65l50 239z"/><glyph unicode="ҹ" horiz-adv-x="517" d="M204 159q-6-1-12.5-1H178q-57 0-91 25.5T53 270q0 29 7 60l36 170h123l-25-118q-4-19-6-34t-2-28q0-26 9-40.5t31-18.5l27 125h72l-26-119q18 5 32 11.5t23 12.5l44 209h124L416 0H292l42 196q-17-11-55-23L255 59h-72z"/><glyph unicode="Һ" horiz-adv-x="583" d="M365 0l47 219q2 12 3.5 22.5T417 262q0 78-81 78-37 0-67-9.5T215 306L150 0H20l148 700h130l-60-282q28 15 63.5 27.5T391 458q32 0 61-8.5t51.5-27Q526 404 539 375t13-71q0-31-7-63L494 0z"/><glyph unicode="һ" horiz-adv-x="528" d="M309 0l60 284q10 44 10 73 0 26-10 37.5T338 406q-19 0-40-12t-40-30q-19-18-34.5-38.5T200 288L141 0H18l148 700h123l-63-288h4q13 16 31.5 34t41 33q22.5 15 49 25t57.5 10q48 0 74.5-24t26.5-85q0-37-12-94L432 0z"/><glyph unicode="Ҽ" horiz-adv-x="761" d="M356 295q-1-8-1.5-17t-.5-17q0-31 7-58.5t23.5-48.5q16.5-21 43-33.5T493 108q42 0 82.5 13.5T651 158l8-116q-44-28-88-42T468-14q-61 0-106.5 19.5t-76 55.5Q255 97 240 147t-15 112v17.5q0 9.5 1 18.5h-33q-71 0-103 35t-32 88q0 32 11 59.5T95 521h111q-16-12-26-28.5T170 458q0-9 2-18.5t9.5-16.5q7.5-7 22-11.5T242 408q18 76 49.5 133.5t74.5 96q43 38.5 96 57.5t112 19q52 0 90-16.5t63.5-45.5q25.5-29 38-69.5T778 494q0-45-10.5-95T735 295zm285 113q6 20 9.5 40.5T654 489q0 22-5 42.5t-16.5 36Q621 583 603 592t-44 9q-64 0-113-48.5T374 408z"/><glyph unicode="ҽ" horiz-adv-x="575" d="M511 48q-31-26-80-44T317-14q-81 0-127.5 47.5T143 166q0 12 .5 24t1.5 24h-9q-35 0-59.5 9T36 247q-16 15-23.5 35T5 324q0 36 19.5 63.5T67 427h105q-22-12-40.5-31.5T112 350q0-8 2-16.5t7.5-15.5q5.5-7 16-11.5T165 302q17 50 45.5 89.5T274 458q35 27 74.5 41.5T427 514q41 0 70.5-10.5t48.5-29q19-18.5 28-42.5t9-51q0-41-21-72t-58.5-51.5Q466 237 413 226.5T297 216q-8 0-15 .5t-15 .5q-2-12-3-21.5t-1-17.5q0-45 23.5-67T353 89q44 0 79 13t53 26zM285 295q28 0 59.5 2t58.5 9.5q27 7.5 45 22t18 39.5q0 15-11 30.5T409 414q-44 0-76.5-34T285 295z"/><glyph unicode="Ҿ" horiz-adv-x="761" d="M356 295q-1-8-1.5-17t-.5-17q0-31 7-58.5t23.5-48.5q16.5-21 43-33t65.5-12q42 0 82.5 13.5T651 159l8-117q-38-24-76-37.5T498-13l-25-162H357L401-7q-89 20-132.5 90T225 259v17.5q0 9.5 1 18.5h-33q-71 0-103 35t-32 88q0 32 11 59.5T95 521h111q-16-12-26-28.5T170 458q0-9 2-18.5t9.5-16.5q7.5-7 22-11.5T242 408q18 76 49.5 133.5t74.5 96q43 38.5 96 57.5t112 19q52 0 90-16.5t63.5-45.5q25.5-29 38-69.5T778 494q0-45-10.5-95T735 295zm285 113q6 20 9.5 40.5T654 489q0 22-5 42.5t-16.5 36Q621 583 603 592t-44 9q-64 0-113-48.5T374 408z"/><glyph unicode="ҿ" horiz-adv-x="575" d="M511 48q-25-21-61.5-37T365-11l-25-164H224L267-8q-59 13-91.5 57.5T143 166q0 12 .5 24t1.5 24h-9q-35 0-59.5 9T36 247q-16 15-23.5 35T5 324q0 36 19.5 63.5T67 427h105q-22-12-40.5-31.5T112 350q0-8 2-16.5t7.5-15.5q5.5-7 16-11.5T165 302q17 50 45.5 89.5T274 458q35 27 74.5 41.5T427 514q41 0 70.5-10.5t48.5-29q19-18.5 28-42.5t9-51q0-41-21-72t-58.5-51.5Q466 237 413 226.5T297 216q-8 0-15 .5t-15 .5q-2-12-3-21.5t-1-17.5q0-45 23.5-67T353 89q44 0 79 13t53 26zM285 295q28 0 59.5 2t58.5 9.5q27 7.5 45 22t18 39.5q0 15-11 30.5T409 414q-44 0-76.5-34T285 295z"/><glyph unicode="Ӏ" horiz-adv-x="278" d="M183 700h129L164 0H35z"/><glyph unicode="Ӄ" horiz-adv-x="591" d="M391 180q0 39-10 62.5t-29 36Q333 291 306.5 295t-60.5 4h-33L150 0H20l148 700h130l-66-310 32 12 237 298h155L414 418l-66-38h48q15-2 37-10t41.5-28q19.5-20 33.5-53.5t14-86.5v-28q0-77-21-145T441-90.5Q402-142 345.5-172T218-202h-15q-7 0-15 1l24 112q48 0 82 24t55.5 62.5Q371 36 381 84t10 96z"/><glyph unicode="ӄ" horiz-adv-x="480" d="M291 27q5 22 6.5 41t1.5 35q0 92-81 99h-34L141 0H18l106 500h123l-47-217 35 14 155 203h136L368 303l-56-32 38-2q41-13 58.5-54t17.5-92q0-39-9-78l-4-17q-26-122-82-178.5T195-207q-32 0-61 7l24 102q5-1 8.5-1h8.5q89-2 116 126z"/><glyph unicode="Ӆ" horiz-adv-x="631" d="M490 578H350q-23-95-43.5-173t-41-140Q245 203 222 155t-50-84q-18-24-37.5-39t-39-23.5Q76 0 58-3.5T24-7Q-22-7-48 7l39 118q5-2 10.5-3t10.5-1q17-1 34.5 8T79 158q18 22 38 64t41.5 108q21.5 66 45 157T253 700h392L521 118h98l-6-31-136-217h-90L458 0h-90z"/><glyph unicode="ӆ" horiz-adv-x="532" d="M363 397h-92q-25-93-48.5-167.5t-51.5-127Q143 50 108.5 22T28-6Q-26-6-47 9l38 108q17-5 29-5 20 1 37.5 18T94 190.5Q113 234 134.5 309T184 500h323l-82-382h98l-6-31-136-217h-90L362 0h-84z"/><glyph unicode="Ӈ" horiz-adv-x="624" d="M523 0q-23-108-65.5-157.5T337-207q-28 0-61 6l23 112q25-2 41 2.5t26 16q10 11.5 16 29T393 0l62 293H212L150 0H20l148 700h130l-60-285h243l60 285h130z"/><glyph unicode="ӈ" horiz-adv-x="521" d="M247 500l-41-187h156l40 187h124L415-21q-20-91-63.5-139T233-208q-14 0-28.5 1.5T174-201l23 111q24-2 40.5 3t28 16.5Q277-59 284-41t12 42l42 194H182L141 0H18l106 500z"/><glyph unicode="Ӊ" horiz-adv-x="656" d="M455 293H212L150 0H20l148 700h130l-60-285h243l60 285h130L547 118h96l-6-31-136-217h-90L482 0h-89z"/><glyph unicode="ӊ" horiz-adv-x="545" d="M335 195H179L138 0H15l106 500h123l-41-187h156l40 187h124l-82-382h95l-6-31-136-217h-90L375 0h-82z"/><glyph unicode="Ӌ" horiz-adv-x="583" d="M284 700l-46-217q-3-13-3.5-24t-.5-22q0-39 18.5-58t60.5-19q36 0 67.5 8t53.5 25l65 307h130L481 0H375l-41-125h-91l51 247h83l34 160q-14-7-29-14t-33-13q-18-6-40.5-9.5T258 242q-35 0-64.5 9t-51 28Q121 298 109 327t-12 68q0 31 7 63l51 242z"/><glyph unicode="ӌ" horiz-adv-x="483" d="M303 207q-17-11-48.5-22T173 174q-57 0-88.5 25T53 281q0 13 1.5 28t5.5 32l34 159h123l-22-103q-4-19-6-34t-2-28q0-26 11-39.5t39-13.5q28 0 50 8t37 18l41 192h123L382 0H262l-29-114H129l55 212h95z"/><glyph unicode="Ӎ" horiz-adv-x="799" d="M613 363l44 138h-6l-66-113-197-259h-41l-94 262-18 110h-5l-10-137L143 0H20l148 700h115l105-320 13-80h5l46 82 236 318h125L689 118h98l-6-31-136-217h-90L626 0h-90z"/><glyph unicode="ӎ" horiz-adv-x="673" d="M470 229l30 104h-5l-56-86L316 92h-45l-64 155-18 86h-6l-9-103L126 0H15l106 500h122l67-188 15-63h3l41 65 141 186h136l-82-382h100l-6-31-136-217h-90L503 0h-81z"/><glyph unicode="ӏ" horiz-adv-x="244" d="M166 700h123L141 0H18z"/><glyph unicode="Ӑ" horiz-adv-x="582" d="M387 155H183L100 0H-38l389 705h96L538 0H407zM240 265h142l-16 156 1 110h-5l-40-111zm114 609q-2-28 13.5-44t43.5-16q65 0 85 59l114-17q-21-61-74.5-91T401 735q-39 0-68 9.5T285 770q-19 16-28.5 37.5T246 854z"/><glyph unicode="ӑ" horiz-adv-x="503" d="M444 200q-8-38-11.5-77T429 49q0-14 .5-26.5T431-1h-91l-14 86h-4q-11-18-28.5-35.5t-38.5-32Q234 3 210.5-5.5T162-14q-66 0-97.5 43T33 144q0 73 18.5 140T109 402q39 51 98.5 81.5T349 514q35 0 76.5-6.5T506 490zM209 89q18 0 34 7.5t29.5 19.5q13.5 12 24 26t18.5 26l50 233q-11 5-25.5 7.5T311 411q-36 0-64-21.5t-47.5-56Q180 299 170 255.5T160 168q0-32 10.5-55.5T209 89zm105 615q-2-39 10-55t37-16q26 0 45.5 16t33.5 54l87-25q-24-65-75-96.5T340 550q-29 0-55 7t-44.5 22.5Q222 595 212 619t-8 59z"/><glyph unicode="Ӓ" horiz-adv-x="582" d="M387 155H183L100 0H-38l389 705h96L538 0H407zM240 265h142l-16 156 1 110h-5l-40-111zm2 533q0 29 20 43.5t52 14.5q32 0 52-14.5t20-43.5q0-29-20-43t-52-14q-32 0-52 14t-20 43zm204 0q0 29 20 43.5t52 14.5q32 0 52-14.5t20-43.5q0-29-20-43t-52-14q-32 0-52 14t-20 43z"/><glyph unicode="ӓ" horiz-adv-x="503" d="M444 200q-8-38-11.5-77T429 49q0-14 .5-26.5T431-1h-91l-14 86h-4q-11-18-28.5-35.5t-38.5-32Q234 3 210.5-5.5T162-14q-66 0-97.5 43T33 144q0 73 18.5 140T109 402q39 51 98.5 81.5T349 514q35 0 76.5-6.5T506 490zM209 89q18 0 34 7.5t29.5 19.5q13.5 12 24 26t18.5 26l50 233q-11 5-25.5 7.5T311 411q-36 0-64-21.5t-47.5-56Q180 299 170 255.5T160 168q0-32 10.5-55.5T209 89zm-27 542q0 33 18.5 51.5T248 701q29 0 47.5-18.5T314 631q0-32-18.5-50T248 563q-29 0-47.5 18T182 631zm208 1q0 32 18.5 50.5T456 701q29 0 47.5-18.5T522 632q0-32-18.5-50.5T456 563q-29 0-47.5 18.5T390 632z"/><glyph unicode="Ӕ" horiz-adv-x="826" d="M449 530l-44-94-116-155h114l52 249zm-70-360H208L80 0H-66l547 700h404l-26-122H595l-35-163h241l-26-122H535l-36-171h269L742 0H343z"/><glyph unicode="ӕ" horiz-adv-x="744" d="M312 223q-8 1-16.5 1H279q-57 0-96-18.5T144 148q0-27 14-39t37-12q18 0 34.5 7.5t30.5 18q14 10.5 25 22t18 20.5zm3-146q-32-36-74-60.5T142-8Q109-8 85.5 2.5T47 30.5Q32 48 24.5 71T17 118q0 49 22 84t60 57q38 22 88 32.5T294 302h16.5q8.5 0 16.5-1 11 38 11 59 0 24-15 35.5T272 407q-33 0-70-8t-69-21l-18 93q41 20 94.5 29.5T313 510q46 0 78-14.5t45-45.5q29 31 72.5 47.5T597 514q42 0 71.5-9.5t48-26.5q18.5-17 27-39.5T752 389q0-56-26.5-90T654 245.5Q609 226 550 219t-123-7q-1-8-1.5-15.5T425 182q0-45 23-69t76-24q38 0 71.5 10.5T649 122l23-86q-34-24-85.5-37T484-14q-66 0-106.5 24T320 77zm132 215q32 0 65 1.5t60 9q27 7.5 44 23t17 42.5q0 17-12 31.5T576 414q-53 0-83.5-35.5T447 292z"/><glyph unicode="Ӗ" horiz-adv-x="503" d="M168 700h394l-26-122H272l-35-163h241l-27-122H212l-37-171h269L419 0H20zm155 174q-2-28 13.5-44t43.5-16q65 0 85 59l114-17q-21-61-74.5-91T370 735q-39 0-68 9.5T254 770q-19 16-28.5 37.5T215 854z"/><glyph unicode="ӗ" horiz-adv-x="466" d="M402 48q-31-26-80-44T208-14q-81 0-127.5 47.5T34 166q0 80 25 144.5T124.5 420q40.5 45 91.5 69.5T318 514q41 0 70.5-10.5t48.5-29q19-18.5 28-42.5t9-51q0-41-21-72t-58.5-51.5Q357 237 304 226.5T188 216q-8 0-15 .5t-15 .5q-2-12-3-21.5t-1-17.5q0-45 23.5-67T244 89q44 0 79 13t53 26zM176 295q28 0 59.5 2t58.5 9.5q27 7.5 45 22t18 39.5q0 15-11 30.5T300 414q-44 0-76.5-34T176 295zm121 409q-2-39 10-55t37-16q26 0 45.5 16t33.5 54l87-25q-24-65-75-96.5T323 550q-29 0-55 7t-44.5 22.5Q205 595 195 619t-8 59z"/><glyph unicode="Ә" horiz-adv-x="599" d="M186 296q-5-19-6.5-38t-1.5-37q0-51 23-86.5T277 99q36 0 65 14.5t51.5 40.5q22.5 26 38.5 62t24 80zm285 113q1 6 1 12v12q0 34-6.5 63t-22 50.5Q428 568 402 580t-65 12q-24 0-47-4.5T246.5 576q-20.5-7-37.5-14.5T180 547l-3 117q34 19 83 34.5T368 714q54 0 98-16.5t76-50q32-33.5 49.5-84.5T609 444q0-89-21.5-171.5t-64-146Q481 63 416.5 24.5T266-14q-54 0-94 17.5T105 52q-27 31-40.5 74.5T51 222q0 86 36 187z"/><glyph unicode="ә" horiz-adv-x="490" d="M101 469q34 21 82 33t105 12q47 0 82-14t58-38q23-24 34-56t11-68q0-84-21.5-149.5T391.5 78q-38.5-45-91-68.5T186-14q-39 0-69.5 11.5T65.5 28Q45 47 34 72.5T23 127q0 79 60 123.5T277 295q34 0 73-3 2 11 3 20t1 17q0 44-28.5 63T256 411q-41 0-74.5-9.5T128 382zm230-257q-16 2-31.5 3.5T269 217q-53 0-89-17t-36-54q0-22 13.5-39.5T207 89q48 0 79 34.5t45 88.5z"/><glyph unicode="Ӛ" horiz-adv-x="599" d="M186 296q-5-19-6.5-38t-1.5-37q0-51 23-86.5T277 99q36 0 65 14.5t51.5 40.5q22.5 26 38.5 62t24 80zm285 113q1 6 1 12v12q0 34-6.5 63t-22 50.5Q428 568 402 580t-65 12q-24 0-47-4.5T246.5 576q-20.5-7-37.5-14.5T180 547l-3 117q34 19 83 34.5T368 714q54 0 98-16.5t76-50q32-33.5 49.5-84.5T609 444q0-89-21.5-171.5t-64-146Q481 63 416.5 24.5T266-14q-54 0-94 17.5T105 52q-27 31-40.5 74.5T51 222q0 86 36 187zM243 798q0 29 20 43.5t52 14.5q32 0 52-14.5t20-43.5q0-29-20-43t-52-14q-32 0-52 14t-20 43zm204 0q0 29 20 43.5t52 14.5q32 0 52-14.5t20-43.5q0-29-20-43t-52-14q-32 0-52 14t-20 43z"/><glyph unicode="ӛ" horiz-adv-x="490" d="M101 469q34 21 82 33t105 12q47 0 82-14t58-38q23-24 34-56t11-68q0-84-21.5-149.5T391.5 78q-38.5-45-91-68.5T186-14q-39 0-69.5 11.5T65.5 28Q45 47 34 72.5T23 127q0 79 60 123.5T277 295q34 0 73-3 2 11 3 20t1 17q0 44-28.5 63T256 411q-41 0-74.5-9.5T128 382zm230-257q-16 2-31.5 3.5T269 217q-53 0-89-17t-36-54q0-22 13.5-39.5T207 89q48 0 79 34.5t45 88.5zM126 631q0 33 18.5 51.5T192 701q29 0 47.5-18.5T258 631q0-32-18.5-50T192 563q-29 0-47.5 18T126 631zm208 1q0 32 18.5 50.5T400 701q29 0 47.5-18.5T466 632q0-32-18.5-50.5T400 563q-29 0-47.5 18.5T334 632z"/><glyph unicode="Ӝ" horiz-adv-x="803" d="M440 700h124l-66-311 34 11 195 300h154L662 393l-53-34 42-42L763 0H619l-98 304h-41L416 0H292l67 316-33-12L113 0H-46l236 307 61 39-38 37-98 317h140l82-299h40zm-88 98q0 29 20 43.5t52 14.5q32 0 52-14.5t20-43.5q0-29-20-43t-52-14q-32 0-52 14t-20 43zm204 0q0 29 20 43.5t52 14.5q32 0 52-14.5t20-43.5q0-29-20-43t-52-14q-32 0-52 14t-20 43z"/><glyph unicode="ӝ" horiz-adv-x="757" d="M249 206q-15-57-36.5-97.5t-47-65.5q-25.5-25-54-36.5T53-5Q33-5 14 0t-39 13L8 113q18-5 32-5 37 0 65 34t44 115q4 20 5 36t1 30q0 51-20.5 67.5T79 401l-12 89q45 12 80 12 60 0 91-35t31-110q0-14-1-28.5t-3-31.5h76l43 203h118l-44-203h70q14 58 34.5 97.5t45.5 64q25 24.5 53 35t56 10.5q31 0 65-13l-26-90q-11 3-21 3-31 0-58-29.5T633 268q-9-39-9-72 0-26 5-46t15.5-33q10.5-13 25.5-17t35 3l12-90Q670-3 635-3q-34 0-58 13.5T538 47q-15 23-21.5 54.5T510 168q0 10 .5 19t1.5 19h-73L396 0H278l44 206zm53 425q0 33 18.5 51.5T368 701q29 0 47.5-18.5T434 631q0-32-18.5-50T368 563q-29 0-47.5 18T302 631zm208 1q0 32 18.5 50.5T576 701q29 0 47.5-18.5T642 632q0-32-18.5-50.5T576 563q-29 0-47.5 18.5T510 632z"/><glyph unicode="Ӟ" horiz-adv-x="507" d="M141 309l23 108h23q9 0 21 .5t24.5 1.5q12.5 1 24.5 2t20 2q20 3 40 9.5t35.5 18.5q15.5 12 25.5 29t10 41q0 32-24.5 50.5T291 590q-42 0-80.5-12T147 555l-9 116q12 6 32.5 13t46 13q25.5 6 55.5 10.5t60 4.5q42 0 77-9.5t61-28.5q26-19 40.5-47.5T525 561q0-69-37.5-121T376 371v-5q19-6 37-16.5t31.5-27.5q13.5-17 22-41t8.5-57q0-61-24-105.5t-65.5-74Q344 15 288 .5T169-14Q106-14 56.5-3T-17 23l58 119q20-11 58-22.5t94-11.5q24 0 50 6t47 19.5q21 13.5 34.5 35.5t13.5 54q0 48-34.5 66T205 309h-38zm43 489q0 29 20 43.5t52 14.5q32 0 52-14.5t20-43.5q0-29-20-43t-52-14q-32 0-52 14t-20 43zm204 0q0 29 20 43.5t52 14.5q32 0 52-14.5t20-43.5q0-29-20-43t-52-14q-32 0-52 14t-20 43z"/><glyph unicode="ӟ" horiz-adv-x="407" d="M100 208l19 89h58q16 0 32.5 5t29 14q12.5 9 20.5 21t8 26q0 24-15.5 34T198 407q-33 0-56-6t-48-17l-21 91q16 9 37 15t44.5 10.5q23.5 4.5 48 6.5t47.5 2q80 0 114-28.5t33-78.5q0-24-8-45.5T367 318q-14-17-32.5-30T295 268v-4q41-10 56.5-35.5T367 172q0-43-18-77t-50-57.5q-32-23.5-75.5-36T129-11Q81-11 41.5 1T-20 29l46 94q20-13 49.5-22.5T142 91q47 0 73 21.5t26 54.5q0 22-19 31.5t-76 9.5zm-1 423q0 33 18.5 51.5T165 701q29 0 47.5-18.5T231 631q0-32-18.5-50T165 563q-29 0-47.5 18T99 631zm208 1q0 32 18.5 50.5T373 701q29 0 47.5-18.5T439 632q0-32-18.5-50.5T373 563q-29 0-47.5 18.5T307 632z"/><glyph unicode="Ӡ" horiz-adv-x="528" d="M201 108q41 0 71.5 10.5t50.5 28q20 17.5 30 39.5t10 45q0 49-30.5 69T222 320h-83l13 58 180 174 53 43-59-13H134l25 118h409l-16-75-197-189-51-31v-5l46 11q30-1 57.5-12.5t48-32Q476 346 488 317t12-65q0-62-22-111t-62.5-83.5q-40.5-34.5-98-53T190-14q-21 0-47.5 2.5T90-4.5Q64 0 41 7.5T3 25l57 120q24-15 64-26t77-11z"/><glyph unicode="ӡ" horiz-adv-x="435" d="M91-109q33 0 64 10t54 29q23 19 37 45t14 59q0 48-32 69t-114 21H64l11 47 149 183 65 52-71-9H56l22 103h377l-15-70-173-187-44-29v-2l30 3q25 0 49-9.5t43-28q19-18.5 30.5-46T387 69q0-67-25-119t-67.5-88Q252-174 197-193T82-212q-48 0-90 12t-69 35l55 89q23-15 53-24t60-9z"/><glyph unicode="Ӣ" horiz-adv-x="638" d="M487 381l29 89h-6l-64-96L120 0H20l148 700h130l-79-374-30-92h6l66 99 324 367h100L537 0H407zM294 856h327l-19-89H276z"/><glyph unicode="ӣ" horiz-adv-x="512" d="M241 500l-65-309q-6-30-6-50t8-31q8-11 28-11 17 0 34.5 8.5t33.5 22q16 13.5 29.5 30T326 192l64 308h123l-63-300q-5-20-8.5-47T435 97.5Q432 69 431 43t0-43h-99l-5 90h-4q-14-19-32.5-37.5t-41-33.5Q227 4 200.5-5T144-14Q97-14 68 9.5T39 96q0 37 10 81l69 323zm-54 158h308l-19-92H168z"/><glyph unicode="Ӥ" horiz-adv-x="638" d="M487 381l29 89h-6l-64-96L120 0H20l148 700h130l-79-374-30-92h6l66 99 324 367h100L537 0H407zM271 798q0 29 20 43.5t52 14.5q32 0 52-14.5t20-43.5q0-29-20-43t-52-14q-32 0-52 14t-20 43zm204 0q0 29 20 43.5t52 14.5q32 0 52-14.5t20-43.5q0-29-20-43t-52-14q-32 0-52 14t-20 43z"/><glyph unicode="ӥ" horiz-adv-x="512" d="M241 500l-65-309q-6-30-6-50t8-31q8-11 28-11 17 0 34.5 8.5t33.5 22q16 13.5 29.5 30T326 192l64 308h123l-63-300q-5-20-8.5-47T435 97.5Q432 69 431 43t0-43h-99l-5 90h-4q-14-19-32.5-37.5t-41-33.5Q227 4 200.5-5T144-14Q97-14 68 9.5T39 96q0 37 10 81l69 323zm-65 131q0 33 18.5 51.5T242 701q29 0 47.5-18.5T308 631q0-32-18.5-50T242 563q-29 0-47.5 18T176 631zm208 1q0 32 18.5 50.5T450 701q29 0 47.5-18.5T516 632q0-32-18.5-50.5T450 563q-29 0-47.5 18.5T384 632z"/><glyph unicode="Ӧ" horiz-adv-x="644" d="M58 262q0 93 25.5 175.5t72.5 144q47 61.5 113.5 97T418 714q54 0 97.5-16t74-49.5Q620 615 637 564t17-121q0-94-25.5-177t-72-145.5Q510 58 445.5 22T303-14q-118 0-181 69.5T58 262zm137 4q0-72 27.5-115t90.5-43q46 0 83.5 27.5t64.5 74Q488 256 502.5 316T517 441q0 79-31 115t-85 36q-45 0-82.5-26t-65-70.5q-27.5-44.5-43-104T195 266zm76 532q0 29 20 43.5t52 14.5q32 0 52-14.5t20-43.5q0-29-20-43t-52-14q-32 0-52 14t-20 43zm204 0q0 29 20 43.5t52 14.5q32 0 52-14.5t20-43.5q0-29-20-43t-52-14q-32 0-52 14t-20 43z"/><glyph unicode="ӧ" horiz-adv-x="496" d="M34 162q0 79 22.5 144t60 111q37.5 46 87 71.5T307 514q48 0 81-15t53.5-40q20.5-25 29.5-57t9-66q0-78-22-142.5T399 83q-37-46-86-71.5T210-14q-47 0-80 15.5T75.5 42Q54 67 44 98.5T34 162zm127 17q0-90 65-90 24 0 47 21t41 55q18 34 28.5 77t10.5 86q0 40-13.5 61.5T289 411q-24 0-47-20t-41-52.5Q183 306 172 264t-11-85zm1 452q0 33 18.5 51.5T228 701q29 0 47.5-18.5T294 631q0-32-18.5-50T228 563q-29 0-47.5 18T162 631zm208 1q0 32 18.5 50.5T436 701q29 0 47.5-18.5T502 632q0-32-18.5-50.5T436 563q-29 0-47.5 18.5T370 632z"/><glyph unicode="Ө" horiz-adv-x="644" d="M58 262q0 93 24.5 175.5t71 144q46.5 61.5 112 97T414 714q53 0 97.5-16t76-49.5q31.5-33.5 49-84.5T654 443q0-94-25-177t-70.5-145.5Q513 58 449.5 22T308-14q-118 0-183.5 69.5T58 262zm138 34q-1-8-1-15v-15q0-72 29.5-115t92.5-43q32 0 60 14t51 39.5q23 25.5 40.5 59.5t28.5 75zm320 111q0 8 .5 16.5t.5 17.5q0 79-33 115t-87 36q-32 0-60.5-13.5T285 540q-23-25-41-59t-30-74z"/><glyph unicode="ө" horiz-adv-x="496" d="M34 162q0 79 22.5 144T117 417q38 46 87.5 71.5T308 514q48 0 81-15t53-40q20-25 29-57t9-66q0-78-22-142.5T398.5 83Q361 37 312 11.5T209-14q-47 0-80 15.5T75 42Q54 67 44 98.5T34 162zm316 127q3 19 3 39 0 40-13.5 61.5T289 411q-16 0-32-9.5t-30-26Q213 359 200.5 337T179 289zm-188-81q-1-8-1-15v-14q0-90 65-90 32 0 60 34t46 85z"/><glyph unicode="Ӫ" horiz-adv-x="644" d="M58 262q0 93 24.5 175.5t71 144q46.5 61.5 112 97T414 714q53 0 97.5-16t76-49.5q31.5-33.5 49-84.5T654 443q0-94-25-177t-70.5-145.5Q513 58 449.5 22T308-14q-118 0-183.5 69.5T58 262zm138 34q-1-8-1-15v-15q0-72 29.5-115t92.5-43q32 0 60 14t51 39.5q23 25.5 40.5 59.5t28.5 75zm320 111q0 8 .5 16.5t.5 17.5q0 79-33 115t-87 36q-32 0-60.5-13.5T285 540q-23-25-41-59t-30-74zM275 798q0 29 20 43.5t52 14.5q32 0 52-14.5t20-43.5q0-29-20-43t-52-14q-32 0-52 14t-20 43zm204 0q0 29 20 43.5t52 14.5q32 0 52-14.5t20-43.5q0-29-20-43t-52-14q-32 0-52 14t-20 43z"/><glyph unicode="ӫ" horiz-adv-x="496" d="M34 162q0 79 22.5 144T117 417q38 46 87.5 71.5T308 514q48 0 81-15t53-40q20-25 29-57t9-66q0-78-22-142.5T398.5 83Q361 37 312 11.5T209-14q-47 0-80 15.5T75 42Q54 67 44 98.5T34 162zm316 127q3 19 3 39 0 40-13.5 61.5T289 411q-16 0-32-9.5t-30-26Q213 359 200.5 337T179 289zm-188-81q-1-8-1-15v-14q0-90 65-90 32 0 60 34t46 85zm0 423q0 33 18.5 51.5T228 701q29 0 47.5-18.5T294 631q0-32-18.5-50T228 563q-29 0-47.5 18T162 631zm208 1q0 32 18.5 50.5T436 701q29 0 47.5-18.5T502 632q0-32-18.5-50.5T436 563q-29 0-47.5 18.5T370 632z"/><glyph unicode="Ӭ" horiz-adv-x="552" d="M176 410h251q3 38-2 71.5t-21.5 58Q387 564 356.5 578T278 592q-50 0-85-11.5T132 555l-4 116q38 18 82.5 30.5T306 714q70 0 119.5-22t80-59q30.5-37 44.5-84.5t14-99.5q0-99-24-184t-73.5-147Q417 56 341 21T161-14q-26 0-51.5 3T61-3.5Q38 1 19 7t-31 12l60 119q19-11 54-20.5t83-9.5q44 0 83 14t69 39.5q30 25.5 50.5 61T416 300H153zm0 388q0 29 20 43.5t52 14.5q32 0 52-14.5t20-43.5q0-29-20-43t-52-14q-32 0-52 14t-20 43zm204 0q0 29 20 43.5t52 14.5q32 0 52-14.5t20-43.5q0-29-20-43t-52-14q-32 0-52 14t-20 43z"/><glyph unicode="ӭ" horiz-adv-x="433" d="M115 296h177q1 8 1.5 16t.5 14q0 44-21 64.5T217 411q-46 0-73.5-8.5T93 383l-28 81q40 24 85.5 37t93.5 13q85 0 129-45t44-126q0-94-23.5-161.5T331 70.5q-39-43.5-90-64T134-14Q86-14 43-2.5T-23 26l47 92q20-13 49-21t60-8q118 0 145 122H99zM86 631q0 33 18.5 51.5T152 701q29 0 47.5-18.5T218 631q0-32-18.5-50T152 563q-29 0-47.5 18T86 631zm208 1q0 32 18.5 50.5T360 701q29 0 47.5-18.5T426 632q0-32-18.5-50.5T360 563q-29 0-47.5 18.5T294 632z"/><glyph unicode="Ӯ" horiz-adv-x="546" d="M315 391l1-91h6l33 94 163 306h145L383 216q-33-57-59-99t-51.5-69.5Q247 20 218 6.5T150-7Q89-7 52 17l57 111q14-8 26-10.5t27-2.5q21 0 41 21.5t39 55.5L102 700h143zm-73 465h327l-19-89H224z"/><glyph unicode="ӯ" horiz-adv-x="452" d="M216 219l1-78h6l27 79 136 280h131L277 51Q247-5 220.5-52T167-133q-27-34-56-53t-62-19q-44 0-66 15l33 98q6-3 12.5-4T41-97q24 0 49 23t50 74L46 500h141zm-71 439h308l-19-92H126z"/><glyph unicode="Ӱ" horiz-adv-x="546" d="M315 391l1-91h6l33 94 163 306h145L383 216q-33-57-59-99t-51.5-69.5Q247 20 218 6.5T150-7Q89-7 52 17l57 111q14-8 26-10.5t27-2.5q21 0 41 21.5t39 55.5L102 700h143zm-78 407q0 29 20 43.5t52 14.5q32 0 52-14.5t20-43.5q0-29-20-43t-52-14q-32 0-52 14t-20 43zm204 0q0 29 20 43.5t52 14.5q32 0 52-14.5t20-43.5q0-29-20-43t-52-14q-32 0-52 14t-20 43z"/><glyph unicode="ӱ" horiz-adv-x="452" d="M216 219l1-78h6l27 79 136 280h131L277 51Q247-5 220.5-52T167-133q-27-34-56-53t-62-19q-44 0-66 15l33 98q6-3 12.5-4T41-97q24 0 49 23t50 74L46 500h141zm-82 412q0 33 18.5 51.5T200 701q29 0 47.5-18.5T266 631q0-32-18.5-50T200 563q-29 0-47.5 18T134 631zm208 1q0 32 18.5 50.5T408 701q29 0 47.5-18.5T474 632q0-32-18.5-50.5T408 563q-29 0-47.5 18.5T342 632z"/><glyph unicode="Ӳ" horiz-adv-x="546" d="M315 391l1-91h6l33 94 163 306h145L383 216q-33-57-59-99t-51.5-69.5Q247 20 218 6.5T150-7Q89-7 52 17l57 111q14-8 26-10.5t27-2.5q21 0 41 21.5t39 55.5L102 700h143zm14 459h126l-3-16-115-93h-87zm188 0h132l-3-16-155-93h-90z"/><glyph unicode="ӳ" horiz-adv-x="452" d="M216 219l1-78h6l27 79 136 280h131L277 51Q247-5 220.5-52T167-133q-27-34-56-53t-62-19q-44 0-66 15l33 98q6-3 12.5-4T41-97q24 0 49 23t50 74L46 500h141zm25 481h112l-3-16-95-113h-74zm169 0h120l-3-16-136-113h-78z"/><glyph unicode="Ӵ" horiz-adv-x="583" d="M284 700l-46-217q-3-13-3.5-24t-.5-22q0-39 18.5-58t60.5-19q36 0 67.5 8t53.5 25l65 307h130L481 0H351l60 282q-14-7-29-14t-33-13q-18-6-40.5-9.5T258 242q-35 0-64.5 9t-51 28Q121 298 109 327t-12 68q0 31 7 63l51 242zm-41 98q0 29 20 43.5t52 14.5q32 0 52-14.5t20-43.5q0-29-20-43t-52-14q-32 0-52 14t-20 43zm204 0q0 29 20 43.5t52 14.5q32 0 52-14.5t20-43.5q0-29-20-43t-52-14q-32 0-52 14t-20 43z"/><glyph unicode="ӵ" horiz-adv-x="485" d="M219 500l-24-114q-5-21-7.5-38t-2.5-31q0-28 11.5-42t38.5-14q29 0 50.5 9t35.5 20l46 210h123L384 0H261l41 196q-17-11-48.5-24.5T174 158q-26 0-48 5.5T87.5 182Q71 195 62 216t-9 53q0 29 7 61l36 170zm-70 131q0 33 18.5 51.5T215 701q29 0 47.5-18.5T281 631q0-32-18.5-50T215 563q-29 0-47.5 18T149 631zm208 1q0 32 18.5 50.5T423 701q29 0 47.5-18.5T489 632q0-32-18.5-50.5T423 563q-29 0-47.5 18.5T357 632z"/><glyph unicode="Ӷ" horiz-adv-x="436" d="M168 700h386l-26-122H272l-96-456h83l-53-247h-91L127 0H20z"/><glyph unicode="ӷ" horiz-adv-x="416" d="M260 9Q243-2 221.5-8T171-14q-38 0-67.5 11.5T54 28.5Q34 48 23.5 72.5T13 123q0 47 19.5 78T81 251q29 19 63 31.5t63 23.5q29 11 48 24t19 35q0 23-13 32.5t-42 9.5q-45 0-74-8.5T95 380l-15 92q16 9 37.5 15.5T163 499q24 5 48.5 7.5T257 509q40 0 67.5-9t44.5-24.5q17-15.5 24.5-36.5t7.5-45q0-49-19-79.5T333.5 264q-29.5-20-63-32T208 208.5Q179 197 159.5 182T140 143q0-26 19-40t48-14q13 0 29.5 3t32.5 8q16 5 29.5 11t21.5 12l57-53-53-184h-94z"/><glyph unicode="Ӹ" horiz-adv-x="765" d="M681 700h130L663 0H533zm-514 0h130l-53-251q13 2 33 5t43 3q48 0 85.5-13.5t63-38q25.5-24.5 38.5-58t13-73.5q0-66-22-118.5T434 66Q392 29 331 9.5T192-10h-26q-13 0-16 1-18 0-39 2T65.5-2Q41 1 20 7zm6-582q21-6 54-6t61.5 9q28.5 9 49.5 26.5t33 42.5q12 25 12 58 0 87-106 87-13 0-32-2.5t-27-5.5zm157 680q0 29 20 43.5t52 14.5q32 0 52-14.5t20-43.5q0-29-20-43t-52-14q-32 0-52 14t-20 43zm204 0q0 29 20 43.5t52 14.5q32 0 52-14.5t20-43.5q0-29-20-43t-52-14q-32 0-52 14t-20 43z"/><glyph unicode="ӹ" horiz-adv-x="675" d="M166 142q-1-4-2-7t-1-7q0-32 39-32 21 0 40.5 7t34 19q14.5 12 23.5 28.5t9 36.5q0 28-13.5 39.5T248 238q-18 0-33.5-3.5T185 226zm38 174q20 5 48 9t49 4q74 0 104.5-30t30.5-78q0-51-21.5-93T357 56q-36-30-84-46.5T172-7Q101-7 68.5 17.5T36 86q0 14 3 31l84 383h123zm353 184h123L574 0H451zM249 631q0 33 18.5 51.5T315 701q29 0 47.5-18.5T381 631q0-32-18.5-50T315 563q-29 0-47.5 18T249 631zm208 1q0 32 18.5 50.5T523 701q29 0 47.5-18.5T589 632q0-32-18.5-50.5T523 563q-29 0-47.5 18.5T457 632z"/><glyph unicode="Ӽ" horiz-adv-x="608" d="M296 216L133 0H-24l279 357-112 343h142l60-202 10-71 36 70 150 203h155L434 363l73-213q15-38 23.5-72.5T539 1q0-53-13.5-92.5t-38-65q-24.5-25.5-59-38T353-207q-34 0-66 7l24 111q32-3 51.5 3T393-67.5Q404-55 408-37t4 39q0 8-2.5 20.5t-6 26.5q-3.5 14-8 28t-8.5 26l-42 113-10 74z"/><glyph unicode="ӽ" horiz-adv-x="496" d="M399 128q14-32 20.5-60.5T426 1q0-49-15.5-87T368-150.5q-27-26.5-63.5-40T226-204q-29 0-57 6l21 102q50-8 79.5 17T299-9q0 21-3.5 39.5T284 70l-21 50-18 72-44-72L102 0H-41l207 256-90 244h140l38-107 12-70 44 70 86 107h144L345 260z"/><glyph unicode="Ԑ" horiz-adv-x="506" d="M392 309h-19.5q-5.5 0-17.5-1-40-1-73.5-6t-58-17q-24.5-12-38-33.5T172 196q0-45 32-66.5t79-21.5q48 0 90 10.5t67 25.5l12-108Q423 15 367.5.5T250-14q-41 0-79.5 11T102 30.5Q72 53 53.5 88T35 171q0 48 15 84t40 61q25 25 56 39t63 18v6q-33 14-56.5 44T129 506q0 56 24.5 95.5t63 64Q255 690 302 701t92 11q28 0 56-4t52.5-10.5q24.5-6.5 43.5-14t28-14.5l-58-110q-21 11-55 21t-68 10q-26 0-49-5t-40.5-16Q286 558 276 541.5T266 501q0-37 20-54t52-25q15-5 39-5h64l-23-108z"/><glyph unicode="ԑ" horiz-adv-x="423" d="M267 210q-61 0-87-18.5T152 147q-2-24 14.5-39.5T225 92q38 0 71 9t58 23l10-90q-26-19-70-32t-92-13q-49 0-83 9T64 24Q43 41 34 64.5T25 118q0 52 31 90t88 56v4q-27 11-40 35t-13 55q0 31 13.5 58.5t38.5 48q25 20.5 60.5 32.5t79.5 12q59 0 100.5-12.5T450 467l-47-93q-15 11-42 21.5T293 406q-36 0-58-17t-24-44q-2-23 14.5-36t49.5-13h58l-19-86z"/><glyph unicode="Ԓ" horiz-adv-x="600" d="M493-21q-19-91-61.5-138.5T311-207q-27 0-60 6l23 112q25-2 41 2.5t25.5 15Q350-61 356-43t12 43l122 578H350q-23-95-44-174t-42-142q-21-63-43.5-110.5T172 71q-20-24-40-39.5t-39-24Q74-1 56.5-4T24-7Q-22-7-48 7l39 118q11-4 24-4 16 0 31.5 8T78 157q18 20 37.5 62t41 108Q178 393 202 485.5T253 700h393z"/><glyph unicode="ԓ" horiz-adv-x="502" d="M507 500L401 0q-23-106-67.5-157T214-208q-14 0-28.5 1.5T155-201l23 109q24-2 41 3t28 17q11 12 18.5 30.5T278 1l85 396h-92q-25-93-48.5-167.5t-51.5-127Q143 50 108.5 22T28-6Q-26-6-47 9l38 108q17-5 29-5 20 1 37.5 18T94 190.5Q113 234 134.5 309T184 500z"/><glyph unicode="Ԝ" horiz-adv-x="826" d="M249 310l-14-124h5l39 126 198 388h88l29-390-13-124h5l40 126 164 388h140L597-5h-91l-37 389 8 107h-6l-38-108L234-5h-91l-34 705h137z"/><glyph unicode="ԝ" horiz-adv-x="678" d="M445 500l32-256-1-83h5l30 84 116 255h120L492-5h-91l-35 280v63h-4l-26-64L186-5H92L46 500h126l16-251-6-89h5l34 90 132 250z"/><glyph unicode="Ԥ" horiz-adv-x="655" d="M504 578H272L150 0H20l148 700h492L538 122h84l-53-247h-91L490 0H382z"/><glyph unicode="ԥ" horiz-adv-x="546" d="M410 0H294l66 310q6 28 6 49 0 22-9 34.5T324 406q-18 0-36-9t-34-24q-16-15-30-33.5T200 302L136 0H13l106 500h93l-5-88h4q13 16 30.5 34t40.5 33q23 15 51.5 25t64.5 10q45 0 72-24.5t27-81.5q0-15-1.5-32t-6.5-37l-51-236h100l-64-217h-94z"/><glyph unicode="Ԧ" horiz-adv-x="635" d="M520 122h84l-53-247h-91L472 0H365l47 219q2 12 3.5 22.5T417 262q0 78-81 78-37 0-67-9.5T215 306L150 0H20l148 700h130l-60-282q28 15 63.5 27.5T391 458q32 0 61-8.5t51.5-27Q526 404 539 375t13-71q0-31-7-63z"/><glyph unicode="ԧ" horiz-adv-x="544" d="M453 103h79l-64-217h-94L404 0h-95l60 284q10 44 10 73 0 26-10 37.5T338 406q-19 0-40-12t-40-30q-19-18-34.5-38.5T200 288L141 0H18l148 700h123l-63-288h4q13 16 31.5 34t41 33q22.5 15 49 25t57.5 10q48 0 74.5-24t26.5-85q0-37-12-94z"/><glyph unicode="Ԯ" horiz-adv-x="640" d="M490 578H350q-23-95-43.5-173t-41-140Q245 203 222 155t-50-84q-18-24-37.5-39t-39-23.5Q76 0 58-3.5T24-7Q-22-7-48 7l39 118q5-2 10.5-3t10.5-1q17-1 34.5 8T79 158q18 22 38 64t41.5 108q21.5 66 45 157T253 700h392L523 122h84l-53-247h-91L475 0H368z"/><glyph unicode="ԯ" horiz-adv-x="526" d="M363 397h-92q-25-93-48.5-167.5t-51.5-127Q143 50 108.5 22T28-6Q-26-6-47 9l38 108q17-5 29-5 20 1 37.5 18T94 190.5Q113 234 134.5 309T184 500h323l-85-397h89l-64-217h-94L383 0H278z"/><glyph unicode="Ḱ" horiz-adv-x="593" d="M260 299h-47L150 0H20l148 700h130l-66-310 31 11 237 299h156L404 403l-60-35 44-39L540 0H395zm176 571h157l-6-30-172-88H311z"/><glyph unicode="ḱ" horiz-adv-x="465" d="M224 207h-40L141 0H18l148 700h123l-88-413 37 13 141 200h137L367 299l-60-38 45-38L428 0H296zm177 513h125l-6-30-133-124h-69z"/><glyph unicode="Ḿ" horiz-adv-x="767" d="M613 363l44 138h-6l-66-113-197-259h-41l-94 262-18 110h-5l-10-137L143 0H20l148 700h115l105-320 13-80h5l46 82 236 318h125L665 0H536zm-70 507h157l-6-30-172-88H418z"/><glyph unicode="ḿ" horiz-adv-x="767" d="M283 0l57 272q6 28 9.5 49.5T353 360q0 46-35 46-17 0-34-9t-31.5-23q-14.5-14-27-30.5T205 312L141 0H18l106 500h96l-6-88h4q15 16 32.5 34t39.5 33q22 15 49 25t59 10q40 0 60.5-29t18.5-77q15 19 34.5 38t42 34q22.5 15 48 24.5T654 514q46 0 70.5-21.5T749 412q0-43-15-112L671 0H548l59 281q5 23 8 43t3 35q0 23-8.5 35T581 406q-16 0-32.5-9.5t-31.5-24Q502 358 489.5 341T470 309L406 0zm214 720h125l-6-30-133-124h-69z"/><glyph unicode="Ṕ" horiz-adv-x="550" d="M167 693q42 8 89.5 12.5T352 710q51 0 94.5-11.5t76-35.5q32.5-24 50.5-61.5t18-89.5q0-78-27-130.5t-71.5-85Q448 264 391 250.5T275 237h-15.5q-10.5 0-22 .5t-22 1.5q-10.5 1-15.5 2L150 0H20zm59-334q4-1 11-2t15.5-1.5q8.5-.5 16-.5H280q34 0 65.5 7.5t55.5 24q24 16.5 38.5 43.5t14.5 66q0 29-9.5 48T419 573.5Q403 584 381.5 588t-45.5 4q-18 0-34.5-1.5T274 587zm193 511h157l-6-30-172-88H294z"/><glyph unicode="ṕ" horiz-adv-x="506" d="M122 500h91l-5-88h4q14 19 32 37.5t40 32.5q22 14 47 23t54 9q51 0 82-35t31-110q0-85-22.5-155.5t-60-121Q378 42 327.5 14T222-14q-26 0-49 5T139 4L96-200H-26zm38-394q25-17 56-17t59 21q28 21 49.5 56t34 81.5Q371 294 371 345q0 29-13.5 47.5T321 411q-18 0-35-9t-32-22.5Q239 366 227 349t-21-33zm206 614h125l-6-30-133-124h-69z"/><glyph unicode="ẞ" horiz-adv-x="664" d="M489 570q-15 16-42 25.5t-64 9.5q-33 0-56.5-13T287 556.5q-16-22.5-26.5-54T242 433L149 0H20l101 478q12 57 33.5 100.5T210 652q34 30 82.5 45.5T407 713q51 0 90-8.5t69-22q30-13.5 52-31t40-35.5L490 437l-41-29-1-5 38 8q74-6 109.5-49T631 252q0-65-24-114.5T543 54q-40-34-93.5-51T338-14q-14 0-34 2t-40 6q-20 4-37 9t-25 10l52 114q9-5 21.5-8.5T302 113q14-2 28-3.5t25-1.5q24 0 49 7t45 22q20 15 32.5 38.5T494 231q0 47-31.5 68T356 320h-51l18 83z"/><glyph unicode="‑" horiz-adv-x="343" d="M81 340h239l-25-104H56z"/><glyph unicode="–" horiz-adv-x="627" d="M130 340h419l-25-104H105z"/><glyph unicode="—" horiz-adv-x="779" d="M130 340h571l-25-104H105z"/><glyph unicode="‘" horiz-adv-x="215" d="M238 546q0-39-23-58t-50-19q-17 0-29.5 6.5t-20.5 17q-8 10.5-12 23T99 541q0 40 17 71t40.5 52.5q23.5 21.5 47 34T241 714l19-54q-20-8-37.5-25.5T199 597q17 0 28-15t11-36z"/><glyph unicode="’" horiz-adv-x="215" d="M121 642q0 18 7.5 31.5T147 696q11 9 24 13.5t25 4.5q35 0 50-18t15-49q0-41-15.5-72t-38-53q-22.5-22-47-34.5T118 469l-19 55q21 9 38.5 23.5T162 585q-18 2-30 16.5T121 642z"/><glyph unicode="‚" horiz-adv-x="226" d="M29 59q0 18 7.5 31.5T55 113q11 9 24 13.5t25 4.5q35 0 50-18t15-49q0-41-15.5-72t-38-53Q93-83 68.5-95.5T26-114L7-59q21 9 38.5 23.5T70 2Q52 4 40 18.5T29 59z"/><glyph unicode="“" horiz-adv-x="379" d="M402 546q0-39-23-58t-50-19q-17 0-29.5 6.5t-20.5 17q-8 10.5-12 23t-4 25.5q0 40 17 71t40.5 52.5q23.5 21.5 47 34T405 714l19-54q-20-8-37.5-25.5T363 597q17 0 28-15t11-36zm-164 0q0-39-23-58t-50-19q-17 0-29.5 6.5t-20.5 17q-8 10.5-12 23T99 541q0 40 17 71t40.5 52.5q23.5 21.5 47 34T241 714l19-54q-20-8-37.5-25.5T199 597q17 0 28-15t11-36z"/><glyph unicode="”" horiz-adv-x="379" d="M284 642q0 18 7.5 31.5T310 696q11 9 24 13.5t25 4.5q35 0 50-18t15-49q0-41-15.5-72t-38-53q-22.5-22-47-34.5T281 469l-19 55q21 9 38.5 23.5T325 585q-18 2-30 16.5T284 642zm-163 0q0 18 7.5 31.5T147 696q11 9 24 13.5t25 4.5q35 0 50-18t15-49q0-41-15.5-72t-38-53q-22.5-22-47-34.5T118 469l-19 55q21 9 38.5 23.5T162 585q-18 2-30 16.5T121 642z"/><glyph unicode="„" horiz-adv-x="389" d="M192 59q0 18 7.5 31.5T218 113q11 9 24 13.5t25 4.5q35 0 50-18t15-49q0-41-15.5-72t-38-53q-22.5-22-47-34.5T189-114l-19 55q21 9 38.5 23.5T233 2q-18 2-30 16.5T192 59zM29 59q0 18 7.5 31.5T55 113q11 9 24 13.5t25 4.5q35 0 50-18t15-49q0-41-15.5-72t-38-53Q93-83 68.5-95.5T26-114L7-59q21 9 38.5 23.5T70 2Q52 4 40 18.5T29 59z"/><glyph unicode="†" horiz-adv-x="490" d="M111 513h110l46-16-4 54 32 149h117l-32-149-26-54 53 16h110l-24-113H381l-44 16 5-49L264 0l-58-200h-87L147 1l78 366 24 49-51-16H87z"/><glyph unicode="‡" horiz-adv-x="490" d="M225 371l24 44-51-15H87l24 113h110l46-15-4 50 32 152h117l-32-152-25-50 52 15h110l-24-113H381l-44 15 5-44-17-84-25-45 50 15h112l-23-113H328l-45 15 4-49L264 0l-59-200h-85L147 1l23 109 25 49-52-15H32l24 113h110l46-15-4 45z"/><glyph unicode="•" horiz-adv-x="452" d="M98 311q0 34 12 62t32.5 48q20.5 20 48 31.5T250 464q32 0 60-10.5t48.5-30q20.5-19.5 32.5-48t12-64.5q0-36-12-64t-32.5-47.5Q338 180 310 169.5T250 159q-32 0-59.5 10.5t-48 30Q122 219 110 247t-12 64z"/><glyph unicode="…" horiz-adv-x="769" d="M535 66q0 35 22 55.5t58 20.5q37 0 59-20.5T696 66q0-35-22-56t-59-21q-36 0-58 21t-22 56zm-259 0q0 35 22 55.5t58 20.5q37 0 59-20.5T437 66q0-35-22-56t-59-21q-36 0-58 21t-22 56zM18 66q0 35 22 55.5T98 142q37 0 59-20.5T179 66q0-35-22-56T98-11q-36 0-58 21T18 66z"/><glyph unicode="‰" horiz-adv-x="1144" d="M54 499q0 54 18.5 94t48.5 66.5q30 26.5 66.5 39.5t72.5 13q66 0 100.5-30.5T395 592q0-57-17-98.5T332 425q-29-27-66.5-40T188 372q-62 0-98 34.5T54 499zm110 6q-1-22 10-35.5t32-13.5q33 0 56 34.5t23 88.5q0 49-43 49-17 0-31-10t-25-26.5q-11-16.5-17-39t-5-47.5zm227-378q0 54 18.5 94t48.5 66.5q30 26.5 66.5 39.5t72.5 13q66 0 100.5-30.5T732 220q0-57-17-98.5T669 53q-29-27-66.5-40T525 0q-62 0-98 34.5T391 127zm110 6q-1-22 10-35.5T543 84q33 0 56 34.5t23 88.5q0 49-43 49-17 0-31-10t-25-26.5q-11-16.5-17-39t-5-47.5zm259-6q0 54 18.5 94t48.5 66.5q30 26.5 66.5 39.5t72.5 13q66 0 100.5-30.5T1101 220q0-57-17-98.5T1038 53q-29-27-66.5-40T894 0q-62 0-98 34.5T760 127zm110 6q-1-22 10-35.5T912 84q33 0 56 34.5t23 88.5q0 49-43 49-17 0-31-10t-25-26.5q-11-16.5-17-39t-5-47.5zM641 714l73-66L138-14 65 55z"/><glyph unicode="‹" horiz-adv-x="293" d="M32 259l200 230 60-64-106-126-55-39 36-37 60-123-84-62z"/><glyph unicode="›" horiz-adv-x="293" d="M293 268L93 38 31 99l108 127 55 41-35 39-62 124 86 59z"/><glyph unicode="⁄" horiz-adv-x="184" d="M293 715l85-50L-52-14l-86 53z"/><glyph unicode="₁" horiz-adv-x="402" d="M38 0h93l35 164 19 46-35-32-63-37-34 73 175 113h82L240 0h83l-21-100H17z"/><glyph unicode="₂" horiz-adv-x="402" d="M344 227q-1-60-37.5-110T205 19L155-6v-4l57 11h101l-22-101H-6l16 71q29 18 67 44t71.5 55Q182 99 205 129.5t24 57.5q0 18-9.5 28T184 225q-26 0-51-9t-44-19l-14 90q37 21 76.5 30.5T225 327q57 0 88-26t31-74z"/><glyph unicode="₃" horiz-adv-x="402" d="M125-12q49 0 70 18.5T215 48q0 21-14 30t-63 10H97l8 38 85 81 46 24-56-6H72l21 95h269l-14-62-102-93-35-17v-5l27 3q37-2 61-26t24-63q0-42-15.5-73T265-67q-27-20-64-30t-80-10q-36 0-67.5 6.5T2-83L42 7q40-19 83-19z"/><glyph unicode="₄" horiz-adv-x="402" d="M345-22h-72l-17-78h-96l17 78H-19l14 67 265 283h87L292 67h72zM214 153l17 53h-5l-31-49-60-66-41-32 52 8h50z"/><glyph unicode="€" horiz-adv-x="545" d="M45 324h65q4 30 10 58H25l52 93h72q33 76 84 128 56 58 123 84.5T483 714q49 0 85-9.5t60-23.5l-53-90q-18 9-44.5 14t-63.5 5q-39 0-82.5-21T304 525q-19-22-34-50h254l-46-93H234q-6-27-10-58h222l-46-93H222q2-22 6-41 7-31 24.5-53.5t46-34.5Q327 90 371 90q37 0 67 9t56 23l17-91Q477 9 428-2.5T331-14q-59 0-101.5 18.5T159 56q-28 33-41 78-13 44-13 97H-6z"/><glyph unicode="₴" horiz-adv-x="545" d="M511 321l-20-91H255q-17-15-34-39t-17-47q0-11 3.5-20.5T220 106q9-8 24.5-12t40.5-4q50 0 82 10t56 22l6-98q-26-14-71.5-26T237-14q-76 0-117 32t-41 90q0 20 6.5 39.5t15 36Q109 200 118 212t15 18H64l20 91zM95 379l20 91h237q17 14 34.5 38.5T404 562q0 22-14 35t-49 13q-38 0-67-8.5T220 581l-15 97q18 8 34.5 14.5t36 11.5q19.5 5 44.5 7.5t59 2.5q78 0 113.5-29.5T528 603q0-26-6-46.5t-15-37q-9-16.5-19.5-28.5T468 470h74l-20-91z"/><glyph unicode="₽" horiz-adv-x="545" d="M68 364h76l70 329q44 8 86 12.5t93 4.5q45 0 83-10.5t65.5-32.5q27.5-22 43-55.5T600 533q0-73-26.5-122.5T505 330q-42-31-93.5-44.5T311 272h-68l-12-57h155l-19-91H212L186 0H67l26 124H16l20 91h77l12 58H47zm312 236q-20 0-38-1.5t-30-3.5l-48-228h52q27 0 55.5 8t52 24.5q23.5 16.5 38 42T476 503q0 48-22 72.5T380 600z"/><glyph unicode="ℓ" horiz-adv-x="500" d="M424 30q-22-14-57.5-28T296-12q-63 0-91.5 30.5T176 114v104l-50-44-35 44 85 74v254q0 44 10 75.5t27.5 51.5q17.5 20 41 29.5T305 712q48 0 79-29.5t31-89.5q0-74-40-157T244 265V125q0-44 17-60.5T302 48q25 0 55 10.5T407 80zm-73 558q0 34-14 49t-32 15q-12 0-23-3.5t-19.5-14q-8.5-10.5-13.5-29t-5-48.5V345q56 65 81.5 125.5T351 588z"/><glyph unicode="№" horiz-adv-x="1015" d="M663 317h298l-24-104H639zm-393 47l-28 111h-5l-8-110L152 0H29l149 705h95l159-372 27-108h6l7 107 78 368h123L524-5h-95zm416 135q0 54 18.5 94t48.5 66.5q30 26.5 66.5 39.5t72.5 13q66 0 100.5-30.5T1027 592q0-57-17-98.5T964 425q-29-27-66.5-40T820 372q-62 0-98 34.5T686 499zm109 6q0-22 11-35.5t32-13.5q33 0 56 34.5t23 88.5q0 49-43 49-17 0-31-10t-25-26.5q-11-16.5-17-39t-6-47.5z"/><glyph unicode="™" horiz-adv-x="953" d="M457 590H339V340H210v250H92v110h365zm406-106l16 103h-5l-36-85-68-117h-78l-69 114-38 88h-6l24-102V340H492v360h130l91-150 24-63h1l25 65 84 148h129V340H863z"/><glyph unicode="℮" horiz-adv-x="600" d="M166 259V78q62-59 145-59 124 0 193 120l35-21q-43-66-99-100.5T311-17q-59 0-107 21.5T122.5 63Q89 100 71 150.5T53 259q0 59 18.5 109.5T124 456q34 37 81.5 58T311 535q62 0 109.5-22t80.5-59.5q33-37.5 50-87.5t19-107zm291 36v145q-63 60-147 60-86 0-144-60V295z"/><glyph unicode="∂" horiz-adv-x="541" d="M290 503q21 0 36-2t26-5.5q11-3.5 20-8t17-9.5h5q-5 39-25 65t-48.5 41.5Q292 600 258 606.5t-68 6.5h-14.5q-6.5 0-13.5-1l22 101q8 1 16.5 1H217q66 0 122-14.5t98.5-49.5q42.5-35 66.5-94t24-146q0-112-21.5-192T447 86.5q-38-51.5-90.5-76T242-14q-98 0-154 55T32 189q0 57 15.5 113t47 101q31.5 45 80.5 72.5T290 503zm8-110q-57 0-94.5-53T166 194q0-41 22-69.5T253 96q41 0 68 23t43.5 60q16.5 37 23 84t6.5 94q-18 17-40 26.5t-56 9.5z"/><glyph unicode="∏" horiz-adv-x="657" d="M493 578H228v-778H91v900h533v-900H493z"/><glyph unicode="∑" horiz-adv-x="505" d="M222-38l-43-40h361v-122H58v122l186 292 43 34-46 37L58 578v122h482V578H192l45-41 173-281z"/><glyph unicode="−" horiz-adv-x="505" d="M58 394h442V282H58z"/><glyph unicode="∕" horiz-adv-x="505" d="M462 715l85-50L117-14 31 39z"/><glyph unicode="√" horiz-adv-x="505" d="M223 475l79-186 21-115h4l19 117 120 409h124L360-5h-67L142 364H31v111z"/><glyph unicode="∞" horiz-adv-x="861" d="M450 265q-37-58-88-86t-113-28q-36 0-69 13.5t-58 39q-25 25.5-40 62T67 348q0 48 15 86t40.5 64q25.5 26 61.5 40t75 14q73 0 124-29t88-75q45 56 95.5 80T678 552q37 0 69-13.5t56-38.5q24-25 37.5-61.5T854 356q0-49-15-87t-42-64.5q-27-26.5-64-40T653 151q-36 0-66 9t-54 24.5q-24 15.5-44.5 36T450 265zm202-3q35 0 58 25.5t23 65.5q0 16-5 32t-15.5 28.5q-10.5 12.5-26 20T650 441q-31 0-64-18.5T524 366q11-21 25-39.5t30.5-33q16.5-14.5 35-23T652 262zM269 441q-34 0-57-26.5T189 349q0-38 24.5-62.5T275 262q32 0 65 22.5t57 55.5q-23 45-54.5 73T269 441z"/><glyph unicode="∫" horiz-adv-x="371" d="M248-34q0-96-38.5-135T93-208q-46 0-87.5 7T-60-184l29 103q44-17 84-17 38 0 52 23t14 78v535q0 96 36.5 136T273 714q18 0 38.5-2t40.5-5.5q20-3.5 38-8t31-9.5l-22-102q-23 8-42.5 12.5T310 604q-35 0-48.5-20.5T248 509z"/><glyph unicode="≈" horiz-adv-x="505" d="M45 473q47 38 84.5 52.5T199 540q29 0 54-8.5t48-18q23-9.5 45.5-18T392 487q18 0 37 6t40 23l47-103q-36-27-66-38t-56-11q-28 0-52 9t-46.5 20Q273 404 250 413t-49 9q-24 0-51.5-10.5T89 373zm0-194q47 38 84.5 52.5T199 346q29 0 54-8.5t48-18q23-9.5 45.5-18T392 293q18 0 37 6t40 23l47-103q-36-27-66-38t-56-11q-28 0-52 9t-46.5 20Q273 210 250 219t-49 9q-24 0-51.5-10.5T89 179z"/><glyph unicode="≠" horiz-adv-x="505" d="M58 490h227l50 113h113l-50-113h102V378H348l-36-80h188V186H263L206 57H94l57 129H58v112h142l36 80H58z"/><glyph unicode="≤" horiz-adv-x="505" d="M500 80l-55-96L62 199l56 96zM52 413v70l386 231 57-90-224-139-91-35 90-31 230-137-57-90z"/><glyph unicode="≥" horiz-adv-x="505" d="M500 205L118-16 62 79l381 222zm29 288v-70L143 192l-57 90 224 139 91 35-90 31L81 624l57 90z"/><glyph unicode="◊" horiz-adv-x="505" d="M314-5h-75L42 342l197 363h75l201-358zm0 206l79 133-91 157-27 84h-5l-28-86-77-134 89-156 28-84h4z"/><glyph unicode="Ⱨ" horiz-adv-x="666" d="M455 293H212L150 0H20l148 700h130l-60-285h243l60 285h130L549 122h83l-53-247h-91L500 0H393z"/><glyph unicode="ⱨ" horiz-adv-x="544" d="M453 103h79l-64-217h-94L404 0h-95l60 284q10 44 10 73 0 26-10 37.5T338 406q-19 0-40-12t-40-30q-19-18-34.5-38.5T200 288L141 0H18l148 700h123l-63-288h4q13 16 31.5 34t41 33q22.5 15 49 25t57.5 10q48 0 74.5-24t26.5-85q0-37-12-94z"/><glyph unicode="" horiz-adv-x="0" d="M-109 870H48l-6-30-172-88h-104z"/><glyph unicode="" horiz-adv-x="432" d="M195 875q18-26 44-40t65-14q55 0 92 15t65 39l49-32q-17-30-40-51.5t-50-35q-27-13.5-57.5-20T301 730q-26 0-50.5 7.5t-45 22Q185 774 169.5 794T147 838z"/><glyph unicode="" horiz-adv-x="346" d="M172-43q34-2 52-21t18-48q0-26-11.5-45t-31-31.5Q180-201 153.5-207T97-213q-38 0-77 9l20 48q51-5 70 6t19 25q0 32-78 30l75 95h79z"/><glyph unicode="" horiz-adv-x="398" d="M299 870h87l101-93-8-39h-88l-45 41-13 34-27-33-67-42h-94l9 40z"/><glyph unicode="" horiz-adv-x="261" d="M20-113q0 17 6.5 30t17 22Q54-52 67-47t27 5q35 0 49.5-19t13.5-51q0-36-14-63.5T108.5-223Q88-243 66-255.5T28-273L7-219q16 7 31.5 19.5T62-167q-19 3-30.5 16.5T20-113z"/><glyph unicode="" horiz-adv-x="276" d="M170 642q0 18 7.5 31.5T196 696q11 9 24 13.5t25 4.5q35 0 50-18t15-49q0-41-15.5-72t-38-53q-22.5-22-47-34.5T167 469l-19 55q21 9 38.5 23.5T211 585q-18 2-30 16.5T170 642z"/><glyph unicode="" horiz-adv-x="243" d="M165 798q0 31 24 46t59 15q33 0 58-15t25-46q0-30-24-45.5T248 737q-35 0-59 15t-24 46z"/><glyph unicode="" horiz-adv-x="329" d="M162 772q0 18 6 34.5t20.5 29q14.5 12.5 39 19.5t62.5 7q70 0 99-24t30-66q-1-18-7.5-34T390 710.5Q375 699 350.5 692t-60.5-8q-71 1-99.5 25.5T162 772zm84 0q0-31 44-31 25 0 35 8t10 23q0 33-45 33-44 0-44-33z"/><glyph unicode="" horiz-adv-x="400" d="M149 800q38 35 69 48t58 13q21 0 40.5-5.5t38-12q18.5-6.5 36-12T426 826q15 0 30 5t31 19l10-67q-33-27-60-37t-51-10q-21 0-39.5 5.5T310 753q-18 6-35.5 11.5T238 770q-18 0-37.5-7T158 737z"/><glyph unicode="" horiz-adv-x="342" d="M237 10q-37-12-64.5-33T145-76q0-34 38-34 14 0 38 8l5-62q-18-13-49.5-23T112-197q-48 0-71.5 22T17-119q0 27 11 47.5T57-35Q75-19 97.5-8T143 10z"/><glyph unicode="" horiz-adv-x="568" d="M166 695q19 3 43 6t51 5q27 2 55.5 3t55.5 1q46 0 85.5-9.5t68-29.5q28.5-20 45-51.5T586 544q0-33-11-63.5T543.5 426q-20.5-24-49-40T430 365v-5q19-4 38-14.5t34-27q15-16.5 24-39t9-50.5q0-64-25-109.5t-67-74q-42-28.5-98-42T227-10h-41.5Q160-10 131-8.5T73-4Q44-1 20 5zm1-586q4-2 14.5-3t23-1.5q12.5-.5 25.5-1t22-.5q25 0 51.5 6t48 20q21.5 14 35.5 36t14 54q0 25-11 41t-29 25.5q-18 9.5-41.5 13T271 302h-64zm63 297h43q14 0 33 .5t32 2.5q18 3 38.5 10t37 20q16.5 13 27.5 33t11 50q0 43-28.5 59T351 597q-26 0-48-1t-34-3zm185 464h157l-6-30-172-88H290z"/><glyph unicode="" horiz-adv-x="512" d="M164 700h123l-62-288h4q13 18 30 35.5t37.5 32Q317 494 341 503t53 9q54 0 81-38t27-101q0-95-26.5-167T406 85.5q-43-48.5-97-73T200-12Q139-12 92.5-.5T22 28zm-4-595q11-8 27-11t35-3q25 0 52 16.5t49.5 48.5q22.5 32 37 78.5T375 340q0 69-40 69-20 0-39.5-11T258 370.5Q240 354 225.5 335T202 299zm253 615h125l-6-30-133-124h-69z"/><glyph unicode="" horiz-adv-x="489" d="M168 700h394l-26-122H272l-37-173h243l-25-122H210L150 0H20zm247 170h157l-6-30-172-88H290z"/><glyph unicode="" horiz-adv-x="294" d="M246 397L172-34q-6-37-17-68.5t-30.5-55Q105-181 75-194.5T1-208q-36 0-70.5 5.5T-129-180l34 91q17-7 34-9t43-2q32 0 49.5 25.5T58 8l63 389H51l22 103h64l13 67q7 37 18 64.5t29.5 46q18.5 18.5 45 27.5t65.5 9q16 0 36.5-1.5t40.5-5q20-3.5 39-8.5t34-12l-29-91q-23 9-47 12t-47 3q-32 0-46.5-19T268 533l-6-33h100l-20-103zm138 473h157l-6-30-172-88H259z"/><glyph unicode="" horiz-adv-x="576" d="M94 607h73l20 93h130l-20-93h211l-19-93H277l-20-96q28 15 63.5 27.5T410 458q32 0 61-8.5t51.5-27Q545 404 558 375t13-71q0-31-7-63L513 0H384l47 219q2 12 3.5 22.5T436 262q0 78-81 78-37 0-67-9.5T234 306L169 0H39l108 514H75z"/><glyph unicode="" horiz-adv-x="528" d="M84 641h69l13 59h123l-13-59h155l-17-80H258l-32-149h4q13 16 31.5 34t41 33q22.5 15 49 25t57.5 10q48 0 74.5-24t26.5-85q0-37-12-94L432 0H309l60 284q10 44 10 73 0 26-10 37.5T338 406q-19 0-40-12t-40-30q-19-18-34.5-38.5T200 288L141 0H18l118 561H67z"/><glyph unicode="" horiz-adv-x="583" d="M284 700l-46-217q-3-13-3.5-24t-.5-22q0-39 18.5-58t60.5-19q36 0 67.5 8t53.5 25l65 307h130L481 0q-11-53-27-92t-38-64.5q-22-25.5-52-38T295-207q-28 0-61 6l24 112q25-2 40.5 2T324-72q10 11 15.5 28.5T351 0l60 282q-14-7-29-14t-33-13q-18-6-40.5-9.5T258 242q-35 0-64.5 9t-51 28Q121 298 109 327t-12 68q0 31 7 63l51 242z"/><glyph unicode="" horiz-adv-x="485" d="M302 196q-17-11-48.5-24.5T174 158q-26 0-48 5.5T87.5 182Q71 195 62 216t-9 53q0 29 7 61l36 170h123l-24-114q-5-21-7.5-38t-2.5-31q0-28 11.5-42t38.5-14q29 0 50.5 9t35.5 20l46 210h123L384 0q-23-106-67.5-157T197-208q-14 0-28.5 1.5T138-201l23 111q24-2 41 2.5t28 16Q241-60 248.5-42T261 0z"/><glyph unicode="" horiz-adv-x="546" d="M315 391l1-91h6l33 94 163 306h145L383 216q-33-57-59-99t-51.5-69.5Q247 20 218 6.5T150-7Q89-7 52 17l57 111q14-8 26-10.5t27-2.5q21 0 41 21.5t39 55.5L102 700h143zm112 479h157l-6-30-172-88H302z"/><glyph unicode="" horiz-adv-x="452" d="M216 219l1-78h6l27 79 136 280h131L277 51Q247-5 220.5-52T167-133q-27-34-56-53t-62-19q-44 0-66 15l33 98q6-3 12.5-4T41-97q24 0 49 23t50 74L46 500h141zm117 501h125l-6-30-133-124h-69z"/><glyph unicode="" horiz-adv-x="552" d="M176 410h251q3 38-2 71.5t-21.5 58Q387 564 356.5 578T278 592q-50 0-85-11.5T132 555l-4 116q38 18 82.5 30.5T306 714q70 0 119.5-22t80-59q30.5-37 44.5-84.5t14-99.5q0-99-24-184t-73.5-147Q417 56 341 21T161-14q-26 0-51.5 3T61-3.5Q38 1 19 7t-31 12l60 119q19-11 54-20.5t83-9.5q44 0 83 14t69 39.5q30 25.5 50.5 61T416 300H153zm97 388q0 31 24 46t59 15q33 0 58-15t25-46q0-30-24-45.5T356 737q-35 0-59 15t-24 46z"/><glyph unicode="" horiz-adv-x="433" d="M115 296h177q1 8 1.5 16t.5 14q0 44-21 64.5T217 411q-46 0-73.5-8.5T93 383l-28 81q40 24 85.5 37t93.5 13q85 0 129-45t44-126q0-94-23.5-161.5T331 70.5q-39-43.5-90-64T134-14Q86-14 43-2.5T-23 26l47 92q20-13 49-21t60-8q118 0 145 122H99zm80 346q0 33 21.5 51t54.5 18q32 0 54.5-18t22.5-51q0-32-22.5-50.5T271 573q-33 0-54.5 18.5T195 642z"/><glyph unicode="" horiz-adv-x="507" d="M164 417h23q9 0 21 .5t24.5 1.5q12.5 1 24.5 2t20 2q20 3 40 9.5t35.5 18.5q15.5 12 25.5 29t10 41q0 32-24.5 50.5T291 590q-42 0-80.5-12T147 555l-9 116q12 6 32.5 13t46 13q25.5 6 55.5 10.5t60 4.5q42 0 77-9.5t61-28.5q26-19 40.5-47.5T525 561q0-69-37.5-121T376 371v-5q19-6 37-16.5t31.5-27.5q13.5-17 22-41t8.5-57q0-55-19.5-96.5t-54-71Q367 27 320 10.5T219-11l-25-164H78l43 163Q74-8 38 1.5T-17 23l58 119q20-11 58-22.5t94-11.5q24 0 50 6t47 19.5q21 13.5 34.5 35.5t13.5 54q0 49-34.5 67.5T205 309h-64z"/><glyph unicode="" horiz-adv-x="407" d="M100 206l19 91h58q16 0 33 5t30 13.5q13 8.5 21.5 20.5t8.5 26q0 24-17 34t-55 10q-33 0-56-6t-48-17l-21 92q16 9 37 15t44.5 10.5q23.5 4.5 48 6.5t47.5 2q80 0 113.5-28.5T397 402q0-24-8-45.5T367 318q-14-17-32.5-30T295 268v-4q42-10 57-35.5t15-56.5q0-74-49.5-120T189-6l-26-169H47L90-9Q55-4 26 6t-46 23l46 95q20-13 49.5-22.5T142 92q47 0 73 20t26 52q0 23-19 32.5t-76 9.5z"/><glyph unicode="" horiz-adv-x="537" d="M483 29q-65-42-157-43l-22-29q34-2 52-20.5t18-47.5q0-26-11.5-45t-31-31.5Q312-200 285.5-206t-56.5-6q-38 0-77 9l20 48q51-5 70 6t19 25q0 17-20 23.5T183-95l69 88q-49 10-85.5 35.5T106 91q-24 37-36 83t-12 98q0 118 33 201.5t87 137Q232 664 301.5 689T444 714q57 0 97.5-8.5T605 686l-51-116q-20 11-48 16.5t-71 5.5q-51 0-95-21t-76-60q-32-39-50.5-95T195 289q0-85 42.5-133T351 108q45 0 74.5 9.5T481 141z"/><glyph unicode="" horiz-adv-x="412" d="M370 41q-26-19-58-33t-66-19l-24-32q34-2 52-20.5t18-47.5q0-26-11.5-45t-31-31.5Q230-200 203.5-206t-56.5-6q-38 0-77 9l20 48q51-5 70 6t19 25q0 17-20 23.5T101-95l66 85q-36 6-61 21.5t-41 38Q49 72 41.5 100T34 158q0 84 24 150t63.5 111.5q39.5 45.5 90 70T315 514q47 0 74.5-9t49.5-20l-46-98q-19 11-39.5 15t-44.5 4q-27 0-52.5-17.5t-46-46Q190 314 178 276t-12-78q0-51 22-77.5T246 94q30 0 55.5 9.5T347 125z"/><glyph unicode="" horiz-adv-x="582" d="M387 155H183L100 0H-38l389 705h96L538 0H407zM240 265h142l-16 156 1 110h-5l-40-111zm23 591h327l-19-89H245z"/><glyph unicode="" horiz-adv-x="503" d="M444 200q-8-38-11.5-77T429 49q0-14 .5-26.5T431-1h-91l-14 86h-4q-11-18-28.5-35.5t-38.5-32Q234 3 210.5-5.5T162-14q-66 0-97.5 43T33 144q0 73 18.5 140T109 402q39 51 98.5 81.5T349 514q35 0 76.5-6.5T506 490zM209 89q18 0 34 7.5t29.5 19.5q13.5 12 24 26t18.5 26l50 233q-11 5-25.5 7.5T311 411q-36 0-64-21.5t-47.5-56Q180 299 170 255.5T160 168q0-32 10.5-55.5T209 89zm2 569h308l-19-92H192z"/><glyph unicode="" horiz-adv-x="503" d="M168 700h394l-26-122H272l-35-163h241l-27-122H212l-37-171h269L419 0H20zm61 156h327l-19-89H211z"/><glyph unicode="" horiz-adv-x="466" d="M402 48q-31-26-80-44T208-14q-81 0-127.5 47.5T34 166q0 80 25 144.5T124.5 420q40.5 45 91.5 69.5T318 514q41 0 70.5-10.5t48.5-29q19-18.5 28-42.5t9-51q0-41-21-72t-58.5-51.5Q357 237 304 226.5T188 216q-8 0-15 .5t-15 .5q-2-12-3-21.5t-1-17.5q0-45 23.5-67T244 89q44 0 79 13t53 26zM176 295q28 0 59.5 2t58.5 9.5q27 7.5 45 22t18 39.5q0 15-11 30.5T300 414q-44 0-76.5-34T176 295zm12 363h308l-19-92H169z"/><glyph unicode="" horiz-adv-x="503" d="M168 700h394l-26-122H272l-35-163h241l-27-122H212l-37-171h269L419 0H20zm38 98q0 29 20 43.5t52 14.5q32 0 52-14.5t20-43.5q0-29-20-43t-52-14q-32 0-52 14t-20 43zm204 0q0 29 20 43.5t52 14.5q32 0 52-14.5t20-43.5q0-29-20-43t-52-14q-32 0-52 14t-20 43zM256 993h327l-19-89H238z"/><glyph unicode="" horiz-adv-x="466" d="M402 48q-31-26-80-44T208-14q-81 0-127.5 47.5T34 166q0 80 25 144.5T124.5 420q40.5 45 91.5 69.5T318 514q41 0 70.5-10.5t48.5-29q19-18.5 28-42.5t9-51q0-41-21-72t-58.5-51.5Q357 237 304 226.5T188 216q-8 0-15 .5t-15 .5q-2-12-3-21.5t-1-17.5q0-45 23.5-67T244 89q44 0 79 13t53 26zM176 295q28 0 59.5 2t58.5 9.5q27 7.5 45 22t18 39.5q0 15-11 30.5T300 414q-44 0-76.5-34T176 295zm-11 330q0 33 18.5 51.5T231 695q29 0 47.5-18.5T297 625q0-32-18.5-50T231 557q-29 0-47.5 18T165 625zm208 1q0 32 18.5 50.5T439 695q29 0 47.5-18.5T505 626q0-32-18.5-50.5T439 557q-29 0-47.5 18.5T373 626zM215 856h327l-19-89H197z"/><glyph unicode="" horiz-adv-x="503" d="M168 700h394l-26-122H272l-35-163h241l-27-122H212l-37-171h269L419 0H20zm40 98q0 29 20 43.5t52 14.5q32 0 52-14.5t20-43.5q0-29-20-43t-52-14q-32 0-52 14t-20 43zm204 0q0 29 20 43.5t52 14.5q32 0 52-14.5t20-43.5q0-29-20-43t-52-14q-32 0-52 14t-20 43zm-56 208q-2-28 13.5-44t43.5-16q65 0 85 59l114-17q-21-61-74.5-91T403 867q-39 0-68 9.5T287 902q-19 16-28.5 37.5T248 986z"/><glyph unicode="" horiz-adv-x="466" d="M402 48q-31-26-80-44T208-14q-81 0-127.5 47.5T34 166q0 80 25 144.5T124.5 420q40.5 45 91.5 69.5T318 514q41 0 70.5-10.5t48.5-29q19-18.5 28-42.5t9-51q0-41-21-72t-58.5-51.5Q357 237 304 226.5T188 216q-8 0-15 .5t-15 .5q-2-12-3-21.5t-1-17.5q0-45 23.5-67T244 89q44 0 79 13t53 26zM176 295q28 0 59.5 2t58.5 9.5q27 7.5 45 22t18 39.5q0 15-11 30.5T300 414q-44 0-76.5-34T176 295zm-11 330q0 33 18.5 51.5T231 695q29 0 47.5-18.5T297 625q0-32-18.5-50T231 557q-29 0-47.5 18T165 625zm208 1q0 32 18.5 50.5T439 695q29 0 47.5-18.5T505 626q0-32-18.5-50.5T439 557q-29 0-47.5 18.5T373 626zm-64 248q-2-28 13.5-44t43.5-16q65 0 85 59l114-17q-21-61-74.5-91T356 735q-39 0-68 9.5T240 770q-19 16-28.5 37.5T201 854z"/><glyph unicode="" horiz-adv-x="507" d="M141 309l23 108h23q9 0 21 .5t24.5 1.5q12.5 1 24.5 2t20 2q20 3 40 9.5t35.5 18.5q15.5 12 25.5 29t10 41q0 32-24.5 50.5T291 590q-42 0-80.5-12T147 555l-9 116q12 6 32.5 13t46 13q25.5 6 55.5 10.5t60 4.5q42 0 77-9.5t61-28.5q26-19 40.5-47.5T525 561q0-69-37.5-121T376 371v-5q19-6 37-16.5t31.5-27.5q13.5-17 22-41t8.5-57q0-61-24-105.5t-65.5-74Q344 15 288 .5T169-14Q106-14 56.5-3T-17 23l58 119q20-11 58-22.5t94-11.5q24 0 50 6t47 19.5q21 13.5 34.5 35.5t13.5 54q0 48-34.5 66T205 309h-38zm226 428h-84l-101 94 8 39h92l41-45 12-30 25 29 64 46h98l-8-40z"/><glyph unicode="" horiz-adv-x="407" d="M100 208l19 89h58q16 0 32.5 5t29 14q12.5 9 20.5 21t8 26q0 24-15.5 34T198 407q-33 0-56-6t-48-17l-21 91q16 9 37 15t44.5 10.5q23.5 4.5 48 6.5t47.5 2q80 0 114-28.5t33-78.5q0-24-8-45.5T367 318q-14-17-32.5-30T295 268v-4q41-10 56.5-35.5T367 172q0-43-18-77t-50-57.5q-32-23.5-75.5-36T129-11Q81-11 41.5 1T-20 29l46 94q20-13 49.5-22.5T142 91q47 0 73 21.5t26 54.5q0 22-19 31.5t-76 9.5zm180 342h-87l-70 182h103l23-66 5-49 28 49 56 66h98z"/><glyph unicode="" horiz-adv-x="644" d="M58 262q0 93 25.5 175.5t72.5 144q47 61.5 113.5 97T418 714q54 0 97.5-16t74-49.5Q620 615 637 564t17-121q0-94-25.5-177t-72-145.5Q510 58 445.5 22T303-14q-118 0-181 69.5T58 262zm137 4q0-72 27.5-115t90.5-43q46 0 83.5 27.5t64.5 74Q488 256 502.5 316T517 441q0 79-31 115t-85 36q-45 0-82.5-26t-65-70.5q-27.5-44.5-43-104T195 266zm95 590h327l-19-89H272z"/><glyph unicode="" horiz-adv-x="496" d="M34 162q0 79 22.5 144t60 111q37.5 46 87 71.5T307 514q48 0 81-15t53.5-40q20.5-25 29.5-57t9-66q0-78-22-142.5T399 83q-37-46-86-71.5T210-14q-47 0-80 15.5T75.5 42Q54 67 44 98.5T34 162zm127 17q0-90 65-90 24 0 47 21t41 55q18 34 28.5 77t10.5 86q0 40-13.5 61.5T289 411q-24 0-47-20t-41-52.5Q183 306 172 264t-11-85zm29 479h308l-19-92H171z"/><glyph unicode="" horiz-adv-x="644" d="M58 262q0 93 25.5 175.5t72.5 144q47 61.5 113.5 97T418 714q54 0 97.5-16t74-49.5Q620 615 637 564t17-121q0-94-25.5-177t-72-145.5Q510 58 445.5 22T303-14q-118 0-181 69.5T58 262zm137 4q0-72 27.5-115t90.5-43q46 0 83.5 27.5t64.5 74Q488 256 502.5 316T517 441q0 79-31 115t-85 36q-45 0-82.5-26t-65-70.5q-27.5-44.5-43-104T195 266zm193 608q-2-28 13.5-44t43.5-16q65 0 85 59l114-17q-21-61-74.5-91T435 735q-39 0-68 9.5T319 770q-19 16-28.5 37.5T280 854z"/><glyph unicode="" horiz-adv-x="496" d="M34 162q0 79 22.5 144t60 111q37.5 46 87 71.5T307 514q48 0 81-15t53.5-40q20.5-25 29.5-57t9-66q0-78-22-142.5T399 83q-37-46-86-71.5T210-14q-47 0-80 15.5T75.5 42Q54 67 44 98.5T34 162zm127 17q0-90 65-90 24 0 47 21t41 55q18 34 28.5 77t10.5 86q0 40-13.5 61.5T289 411q-24 0-47-20t-41-52.5Q183 306 172 264t-11-85zm137 525q-2-39 10-55t37-16q26 0 45.5 16t33.5 54l87-25q-24-65-75-96.5T324 550q-29 0-55 7t-44.5 22.5Q206 595 196 619t-8 59z"/><glyph unicode="" horiz-adv-x="644" d="M58 262q0 93 24.5 175.5t71 144q46.5 61.5 112 97T414 714q53 0 97.5-16t76-49.5q31.5-33.5 49-84.5T654 443q0-94-25-177t-70.5-145.5Q513 58 449.5 22T308-14q-118 0-183.5 69.5T58 262zm138 34q-1-8-1-15v-15q0-72 29.5-115t92.5-43q32 0 60 14t51 39.5q23 25.5 40.5 59.5t28.5 75zm320 111q0 8 .5 16.5t.5 17.5q0 79-33 115t-87 36q-32 0-60.5-13.5T285 540q-23-25-41-59t-30-74zM385 874q-2-28 13.5-44t43.5-16q65 0 85 59l114-17q-21-61-74.5-91T432 735q-39 0-68 9.5T316 770q-19 16-28.5 37.5T277 854z"/><glyph unicode="" horiz-adv-x="496" d="M34 162q0 79 22.5 144T117 417q38 46 87.5 71.5T308 514q48 0 81-15t53-40q20-25 29-57t9-66q0-78-22-142.5T398.5 83Q361 37 312 11.5T209-14q-47 0-80 15.5T75 42Q54 67 44 98.5T34 162zm316 127q3 19 3 39 0 40-13.5 61.5T289 411q-16 0-32-9.5t-30-26Q213 359 200.5 337T179 289zm-188-81q-1-8-1-15v-14q0-90 65-90 32 0 60 34t46 85zm140 496q-2-39 10-55t37-16q26 0 45.5 16t33.5 54l87-25q-24-65-75-96.5T328 550q-29 0-55 7t-44.5 22.5Q210 595 200 619t-8 59z"/><glyph unicode="" horiz-adv-x="644" d="M58 262q0 93 24.5 175.5t71 144q46.5 61.5 112 97T414 714q53 0 97.5-16t76-49.5q31.5-33.5 49-84.5T654 443q0-94-25-177t-70.5-145.5Q513 58 449.5 22T308-14q-118 0-183.5 69.5T58 262zm138 34q-1-8-1-15v-15q0-72 29.5-115t92.5-43q32 0 60 14t51 39.5q23 25.5 40.5 59.5t28.5 75zm320 111q0 8 .5 16.5t.5 17.5q0 79-33 115t-87 36q-32 0-60.5-13.5T285 540q-23-25-41-59t-30-74zm-95 599q-2-28 13.5-44t43.5-16q65 0 85 59l114-17q-21-61-74.5-91T468 867q-39 0-68 9.5T352 902q-19 16-28.5 37.5T313 986zM275 798q0 29 20 43.5t52 14.5q32 0 52-14.5t20-43.5q0-29-20-43t-52-14q-32 0-52 14t-20 43zm204 0q0 29 20 43.5t52 14.5q32 0 52-14.5t20-43.5q0-29-20-43t-52-14q-32 0-52 14t-20 43z"/><glyph unicode="" horiz-adv-x="496" d="M34 162q0 79 22.5 144T117 417q38 46 87.5 71.5T308 514q48 0 81-15t53-40q20-25 29-57t9-66q0-78-22-142.5T398.5 83Q361 37 312 11.5T209-14q-47 0-80 15.5T75 42Q54 67 44 98.5T34 162zm316 127q3 19 3 39 0 40-13.5 61.5T289 411q-16 0-32-9.5t-30-26Q213 359 200.5 337T179 289zm-188-81q-1-8-1-15v-14q0-90 65-90 32 0 60 34t46 85zm-2 417q0 33 18.5 51.5T226 695q29 0 47.5-18.5T292 625q0-32-18.5-50T226 557q-29 0-47.5 18T160 625zm208 1q0 32 18.5 50.5T434 695q29 0 47.5-18.5T500 626q0-32-18.5-50.5T434 557q-29 0-47.5 18.5T368 626zm-77 248q-2-28 13.5-44t43.5-16q65 0 85 59l114-17q-21-61-74.5-91T338 735q-39 0-68 9.5T222 770q-19 16-28.5 37.5T183 854z"/><glyph unicode="" horiz-adv-x="765" d="M681 700h130L663 0H533zm-514 0h130l-53-251q13 2 33 5t43 3q48 0 85.5-13.5t63-38q25.5-24.5 38.5-58t13-73.5q0-66-22-118.5T434 66Q392 29 331 9.5T192-10h-26q-13 0-16 1-18 0-39 2T65.5-2Q41 1 20 7zm6-582q21-6 54-6t61.5 9q28.5 9 49.5 26.5t33 42.5q12 25 12 58 0 87-106 87-13 0-32-2.5t-27-5.5zm175 738h327l-19-89H330z"/><glyph unicode="" horiz-adv-x="675" d="M166 142q-1-4-2-7t-1-7q0-32 39-32 21 0 40.5 7t34 19q14.5 12 23.5 28.5t9 36.5q0 28-13.5 39.5T248 238q-18 0-33.5-3.5T185 226zm38 174q20 5 48 9t49 4q74 0 104.5-30t30.5-78q0-51-21.5-93T357 56q-36-30-84-46.5T172-7Q101-7 68.5 17.5T36 86q0 14 3 31l84 383h123zm353 184h123L574 0H451zM274 658h308l-19-92H255z"/><glyph unicode="" horiz-adv-x="552" d="M176 410h251q3 38-2 71.5t-21.5 58Q387 564 356.5 578T278 592q-50 0-85-11.5T132 555l-4 116q38 18 82.5 30.5T306 714q70 0 119.5-22t80-59q30.5-37 44.5-84.5t14-99.5q0-99-24-184t-73.5-147Q417 56 341 21T161-14q-26 0-51.5 3T61-3.5Q38 1 19 7t-31 12l60 119q19-11 54-20.5t83-9.5q44 0 83 14t69 39.5q30 25.5 50.5 61T416 300H153zm26 446h327l-19-89H184z"/><glyph unicode="" horiz-adv-x="433" d="M115 296h177q1 8 1.5 16t.5 14q0 44-21 64.5T217 411q-46 0-73.5-8.5T93 383l-28 81q40 24 85.5 37t93.5 13q85 0 129-45t44-126q0-94-23.5-161.5T331 70.5q-39-43.5-90-64T134-14Q86-14 43-2.5T-23 26l47 92q20-13 49-21t60-8q118 0 145 122H99zm-7 362h308l-19-92H89z"/><glyph unicode="" horiz-adv-x="552" d="M176 410h251q3 38-2 71.5t-21.5 58Q387 564 356.5 578T278 592q-50 0-85-11.5T132 555l-4 116q38 18 82.5 30.5T306 714q70 0 119.5-22t80-59q30.5-37 44.5-84.5t14-99.5q0-99-24-184t-73.5-147Q417 56 341 21T161-14q-26 0-51.5 3T61-3.5Q38 1 19 7t-31 12l60 119q19-11 54-20.5t83-9.5q44 0 83 14t69 39.5q30 25.5 50.5 61T416 300H153zm98 464q-2-28 13.5-44t43.5-16q65 0 85 59l114-17q-21-61-74.5-91T321 735q-39 0-68 9.5T205 770q-19 16-28.5 37.5T166 854z"/><glyph unicode="" horiz-adv-x="433" d="M115 296h177q1 8 1.5 16t.5 14q0 44-21 64.5T217 411q-46 0-73.5-8.5T93 383l-28 81q40 24 85.5 37t93.5 13q85 0 129-45t44-126q0-94-23.5-161.5T331 70.5q-39-43.5-90-64T134-14Q86-14 43-2.5T-23 26l47 92q20-13 49-21t60-8q118 0 145 122H99zm104 408q-2-39 10-55t37-16q26 0 45.5 16t33.5 54l87-25q-24-65-75-96.5T245 550q-29 0-55 7t-44.5 22.5Q127 595 117 619t-8 59z"/><glyph unicode="" horiz-adv-x="559" d="M498 29Q463 7 415.5-3.5T319-14q-66 0-115 22t-81.5 61Q90 108 74 160T58 272q0 118 33 201.5t87 137Q232 664 301.5 689T444 714q28 0 54.5-2.5t50-6.5q23.5-4 41.5-9t30-10l-51-116q-21 11-56 16.5t-78 5.5q-77 0-136-46t-86-130h271l-24-113H195v-15q0-85 42.5-132.5T351 108q45 0 82 9.5t62 23.5zM280 798q0 29 20 43.5t52 14.5q32 0 52-14.5t20-43.5q0-29-20-43t-52-14q-32 0-52 14t-20 43zm204 0q0 29 20 43.5t52 14.5q32 0 52-14.5t20-43.5q0-29-20-43t-52-14q-32 0-52 14t-20 43z"/><glyph unicode="" horiz-adv-x="430" d="M393 46q-35-29-83-44.5T214-14q-41 0-74 13T83.5 36.5Q60 61 47 95t-13 76q0 85 25.5 149.5t67 107.5q41.5 43 94 64.5T327 514q52 0 79.5-9t47.5-20l-42-91q-21 11-41 14t-44 3q-42 0-82.5-28.5T181 300h188l-19-86H161v-20q0-48 22-76.5T259 89q33 0 60.5 11t47.5 24zM147 631q0 33 18.5 51.5T213 701q29 0 47.5-18.5T279 631q0-32-18.5-50T213 563q-29 0-47.5 18T147 631zm208 1q0 32 18.5 50.5T421 701q29 0 47.5-18.5T487 632q0-32-18.5-50.5T421 563q-29 0-47.5 18.5T355 632z"/><glyph unicode="" horiz-adv-x="557" d="M327 0l59 277-70-18L121 0H-30l184 235 66 44q-18 8-37.5 22T147 336q-16 21-26 50t-10 68q0 75 29 124t75.5 78.5Q262 686 321.5 698T442 710q15 0 30-1 1 0 14.5-.5t36-2.5q22.5-2 43.5-5t37-8L456 0zm124 583q-11 2-23 3.5t-29 1.5q-27 0-54-5.5T296.5 563q-21.5-14-35-38.5T248 463q0-48 29.5-72.5T355 366h49zM281 856h327l-19-89H263z"/><glyph unicode="" horiz-adv-x="481" d="M300 182l-63-12L115 0H-32L88 159l57 35q-33 9-57 37.5T64 305q0 46 19.5 84.5t53.5 66q34 27.5 80 43T317 514q25 0 50.5-3t48-8q22.5-5 41-10.5T486 483L384 0H261zm15 74l31 141q-5 2-18.5 5.5T294 406q-44 0-73.5-23T191 318q0-32 19-48t70-16zM185 658h308l-19-92H166z"/><glyph unicode="" horiz-adv-x="557" d="M327 0l59 277-70-18L121 0H-30l184 235 66 44q-18 8-37.5 22T147 336q-16 21-26 50t-10 68q0 75 29 124t75.5 78.5Q262 686 321.5 698T442 710q15 0 30-1 1 0 14.5-.5t36-2.5q22.5-2 43.5-5t37-8L456 0zm124 583q-11 2-23 3.5t-29 1.5q-27 0-54-5.5T296.5 563q-21.5-14-35-38.5T248 463q0-48 29.5-72.5T355 366h49zm-76 291q-2-28 13.5-44t43.5-16q65 0 85 59l114-17q-21-61-74.5-91T422 735q-39 0-68 9.5T306 770q-19 16-28.5 37.5T267 854z"/><glyph unicode="" horiz-adv-x="481" d="M300 182l-63-12L115 0H-32L88 159l57 35q-33 9-57 37.5T64 305q0 46 19.5 84.5t53.5 66q34 27.5 80 43T317 514q25 0 50.5-3t48-8q22.5-5 41-10.5T486 483L384 0H261zm15 74l31 141q-5 2-18.5 5.5T294 406q-44 0-73.5-23T191 318q0-32 19-48t70-16zm-28 448q-2-39 10-55t37-16q26 0 45.5 16t33.5 54l87-25q-24-65-75-96.5T313 550q-29 0-55 7t-44.5 22.5Q195 595 185 619t-8 59z"/><glyph unicode="" horiz-adv-x="864" d="M238 415h85q42 147 127.5 223T649 714q109 0 167.5-66T875 467q0-97-23.5-184.5T783 129Q738 63 671 24.5T517-14q-56 0-96.5 19.5t-66.5 54Q328 94 315.5 140T303 240q0 26 3 53h-94L150 0H20l148 700h130zm197-166q0-64 24-102.5t82-38.5q45 0 81.5 29.5t62 78Q710 264 724 327.5T738 459q0 63-26 98t-80 35q-44 0-80-28.5t-62-76Q464 440 449.5 378T435 249zm-26 607h327l-19-89H391z"/><glyph unicode="" horiz-adv-x="699" d="M275 308q29 97 92 151.5T514 514q48 0 80-15t51.5-40q19.5-25 28-57t8.5-66q0-76-21-140.5t-57-111Q568 38 520 12T418-14q-48 0-79.5 15.5t-51 40.5Q268 67 260 98.5t-8 63.5q0 11 .5 21.5T254 205h-73L138 0H15l106 500h123l-41-192zm99-129q0-45 13-67.5T433 89q23 0 45 21t39 55q17 34 27.5 77t10.5 86q0 40-11.5 61.5T495 411q-24 0-46-20t-38.5-52.5Q394 306 384 264t-10-85zm-88 479h308l-19-92H267z"/><glyph unicode="" horiz-adv-x="864" d="M238 415h85q42 147 127.5 223T649 714q109 0 167.5-66T875 467q0-97-23.5-184.5T783 129Q738 63 671 24.5T517-14q-56 0-96.5 19.5t-66.5 54Q328 94 315.5 140T303 240q0 26 3 53h-94L150 0H20l148 700h130zm197-166q0-64 24-102.5t82-38.5q45 0 81.5 29.5t62 78Q710 264 724 327.5T738 459q0 63-26 98t-80 35q-44 0-80-28.5t-62-76Q464 440 449.5 378T435 249zm41 625q-2-28 13.5-44t43.5-16q65 0 85 59l114-17q-21-61-74.5-91T523 735q-39 0-68 9.5T407 770q-19 16-28.5 37.5T368 854z"/><glyph unicode="" horiz-adv-x="699" d="M275 308q29 97 92 151.5T514 514q48 0 80-15t51.5-40q19.5-25 28-57t8.5-66q0-76-21-140.5t-57-111Q568 38 520 12T418-14q-48 0-79.5 15.5t-51 40.5Q268 67 260 98.5t-8 63.5q0 11 .5 21.5T254 205h-73L138 0H15l106 500h123l-41-192zm99-129q0-45 13-67.5T433 89q23 0 45 21t39 55q17 34 27.5 77t10.5 86q0 40-11.5 61.5T495 411q-24 0-46-20t-38.5-52.5Q394 306 384 264t-10-85zm24 525q-2-39 10-55t37-16q26 0 45.5 16t33.5 54l87-25q-24-65-75-96.5T424 550q-29 0-55 7t-44.5 22.5Q306 595 296 619t-8 59z"/><glyph unicode="" horiz-adv-x="638" d="M298 700l-79-374-30-92h6l66 99 324 367h100L532-21q-19-91-61-138.5T351-207q-28 0-61 6l24 112q25-2 40.5 2t25 15Q389-61 395-43.5T407 0l80 381 29 89h-6l-64-96L120 0H20l148 700zm97 174q-2-28 13.5-44t43.5-16q65 0 85 59l114-17q-21-61-74.5-91T442 735q-39 0-68 9.5T326 770q-19 16-28.5 37.5T287 854z"/><glyph unicode="" horiz-adv-x="512" d="M241 500l-65-308q-3-15-5-27t-2-23q0-20 8.5-31.5T206 99q17 0 35 9t34.5 22.5q16.5 13.5 30 30T328 193l62 307h123L428 0q-23-106-67.5-157T241-208q-14 0-28.5 1.5T182-201l23 111q24-2 41 2.5t28 16Q285-60 292.5-42T305 0l23 90h-4q-15-19-33.5-37.5t-41-33.5Q227 4 200.5-5T144-14Q97-14 68 9.5T39 96q0 37 10 81l69 323zm57 204q-2-39 10-55t37-16q26 0 45.5 16t33.5 54l88-25q-25-65-76-96.5T324 550q-29 0-55 7t-44.5 22.5Q206 595 196 619t-8 59z"/><glyph unicode="" horiz-adv-x="644" d="M58 262q0 93 25.5 175.5t72.5 144q47 61.5 113.5 97T418 714q54 0 97.5-16t74-49.5Q620 615 637 564t17-121q0-94-25.5-177t-72-145.5Q510 58 445.5 22T303-14q-118 0-181 69.5T58 262zm137 4q0-72 27.5-115t90.5-43q46 0 83.5 27.5t64.5 74Q488 256 502.5 316T517 441q0 79-31 115t-85 36q-45 0-82.5-26t-65-70.5q-27.5-44.5-43-104T195 266zm173 532q0 31 24 46t59 15q33 0 58-15t25-46q0-30-24-45.5T451 737q-35 0-59 15t-24 46z"/><glyph unicode="" horiz-adv-x="496" d="M34 162q0 79 22.5 144t60 111q37.5 46 87 71.5T307 514q48 0 81-15t53.5-40q20.5-25 29.5-57t9-66q0-78-22-142.5T399 83q-37-46-86-71.5T210-14q-47 0-80 15.5T75.5 42Q54 67 44 98.5T34 162zm127 17q0-90 65-90 24 0 47 21t41 55q18 34 28.5 77t10.5 86q0 40-13.5 61.5T289 411q-24 0-47-20t-41-52.5Q183 306 172 264t-11-85zm107 463q0 33 21.5 51t54.5 18q32 0 54.5-18t22.5-51q0-32-22.5-50.5T344 573q-33 0-54.5 18.5T268 642z"/><glyph unicode="" horiz-adv-x="765" d="M681 700h130L663 0H533zm-514 0h130l-53-251q13 2 33 5t43 3q48 0 85.5-13.5t63-38q25.5-24.5 38.5-58t13-73.5q0-66-22-118.5T434 66Q392 29 331 9.5T192-10h-26q-13 0-16 1-18 0-39 2T65.5-2Q41 1 20 7zm6-582q21-6 54-6t61.5 9q28.5 9 49.5 26.5t33 42.5q12 25 12 58 0 87-106 87-13 0-32-2.5t-27-5.5zm276 756q-2-28 13.5-44t43.5-16q65 0 85 59l114-17q-21-61-74.5-91T496 735q-39 0-68 9.5T380 770q-19 16-28.5 37.5T341 854z"/><glyph unicode="" horiz-adv-x="675" d="M166 142q-1-4-2-7t-1-7q0-32 39-32 21 0 40.5 7t34 19q14.5 12 23.5 28.5t9 36.5q0 28-13.5 39.5T248 238q-18 0-33.5-3.5T185 226zm38 174q20 5 48 9t49 4q74 0 104.5-30t30.5-78q0-51-21.5-93T357 56q-36-30-84-46.5T172-7Q101-7 68.5 17.5T36 86q0 14 3 31l84 383h123zm353 184h123L574 0H451zM373 704q-2-39 10-55t37-16q26 0 45.5 16t33.5 54l87-25q-24-65-75-96.5T399 550q-29 0-55 7t-44.5 22.5Q281 595 271 619t-8 59z"/><glyph unicode="" horiz-adv-x="506" d="M392 309h-19.5q-5.5 0-17.5-1-40-1-73.5-6t-58-17q-24.5-12-38-33.5T172 196q0-45 32-66.5t79-21.5q48 0 90 10.5t67 25.5l12-108Q423 15 367.5.5T250-14q-41 0-79.5 11T102 30.5Q72 53 53.5 88T35 171q0 48 15 84t40 61q25 25 56 39t63 18v6q-33 14-56.5 44T129 506q0 56 24.5 95.5t63 64Q255 690 302 701t92 11q28 0 56-4t52.5-10.5q24.5-6.5 43.5-14t28-14.5l-58-110q-21 11-55 21t-68 10q-26 0-49-5t-40.5-16Q286 558 276 541.5T266 501q0-37 20-54t52-25q15-5 39-5h64l-23-108zM230 798q0 29 20 43.5t52 14.5q32 0 52-14.5t20-43.5q0-29-20-43t-52-14q-32 0-52 14t-20 43zm204 0q0 29 20 43.5t52 14.5q32 0 52-14.5t20-43.5q0-29-20-43t-52-14q-32 0-52 14t-20 43z"/><glyph unicode="" horiz-adv-x="423" d="M267 210q-61 0-87-18.5T152 147q-2-24 14.5-39.5T225 92q38 0 71 9t58 23l10-90q-26-19-70-32t-92-13q-49 0-83 9T64 24Q43 41 34 64.5T25 118q0 52 31 90t88 56v4q-27 11-40 35t-13 55q0 31 13.5 58.5t38.5 48q25 20.5 60.5 32.5t79.5 12q59 0 100.5-12.5T450 467l-47-93q-15 11-42 21.5T293 406q-36 0-58-17t-24-44q-2-23 14.5-36t49.5-13h58l-19-86zM135 631q0 33 18.5 51.5T201 701q29 0 47.5-18.5T267 631q0-32-18.5-50T201 563q-29 0-47.5 18T135 631zm208 1q0 32 18.5 50.5T409 701q29 0 47.5-18.5T475 632q0-32-18.5-50.5T409 563q-29 0-47.5 18.5T343 632z"/><glyph unicode="" horiz-adv-x="278" d="M183 700h129L164 0H35zm1 98q0 31 24 46t59 15q33 0 58-15t25-46q0-30-24-45.5T267 737q-35 0-59 15t-24 46z"/><glyph unicode="" horiz-adv-x="256" d="M133 500h123L150 0H27z"/><glyph unicode="" horiz-adv-x="489" d="M168 700h394l-26-122H272l-37-173h243l-25-122H210L150 0H20z"/><glyph unicode="" horiz-adv-x="414" d="M403 397H224l-27-120h173l-22-103H175L138 0H15l106 500h302z"/><glyph unicode="" horiz-adv-x="537" d="M483 29Q428-7 349-13l-25-162H208L252-7q-49 10-85.5 35.5T106 91q-24 37-36 83t-12 98q0 118 33 201.5t87 137Q232 664 301.5 689T444 714q57 0 97.5-8.5T605 686l-51-116q-20 11-48 16.5t-71 5.5q-51 0-95-21t-76-60q-32-39-50.5-95T195 289q0-85 42.5-132.5T351 109q45 0 74.5 9.5T481 142z"/><glyph unicode="" horiz-adv-x="412" d="M370 41q-26-19-57.5-32.5T248-11l-25-164H107L151-7q-31 8-53 24T61.5 55q-14.5 22-21 48.5T34 158q0 84 24 150t63.5 111.5q39.5 45.5 90 70T315 514q47 0 74.5-9t49.5-20l-46-98q-19 11-39.5 15t-44.5 4q-27 0-52.5-17.5t-46-46Q190 314 178 276t-12-78q0-51 22-77.5T246 94q30 0 55.5 9.5T347 125z"/></font>
</defs>
</svg>
