<svg xmlns="http://www.w3.org/2000/svg"><defs><font id="PTSans-Bold" horiz-adv-x="534"><font-face ascent="1018" descent="276"/><glyph horiz-adv-x="253"/><glyph horiz-adv-x="253"/><glyph unicode="!" horiz-adv-x="294" d="M100 700h134V371l-26-163h-82l-26 163zM86 66q0 35 22 55.5t58 20.5q38 0 60-20.5T248 66q0-35-22-56t-60-21q-36 0-58 21T86 66z"/><glyph unicode="&quot;" horiz-adv-x="402" d="M90 700h114l-36-216H90zm148 0h114l-36-216h-78z"/><glyph unicode="#" horiz-adv-x="567" d="M289 205h-89L164 51H57l36 154H19l22 97h75l25 106H69l22 97h73l35 144h106l-34-144h89l35 144h106l-34-144h72l-25-97h-70l-25-106h69l-24-97h-68L360 51H253zm-66 97h89l25 106h-89z"/><glyph unicode="$" horiz-adv-x="567" d="M238-13q-57 2-100 12T71 22l39 113q18-11 50.5-21t77.5-14v205q-31 14-61.5 31T122 377q-24 24-38.5 57.5T69 514q0 86 45.5 133.5T238 709v91h104v-87q44-3 77-12t61-21l-36-111q-17 8-43 16t-59 12V410q31-14 62.5-31.5t56-41.5q24.5-24 40-56.5T516 203q0-92-46.5-143.5T342-7v-93H238zm148 201q0 32-25.5 52.5T299 278V100q44 5 65.5 28t21.5 60zM199 525q0-30 23.5-50t58.5-37v162q-47-2-64.5-23T199 525z"/><glyph unicode="%" horiz-adv-x="840" d="M51 542q0 45 13 77t36 53q23 21 55.5 30.5T226 712q38 0 70-9t55.5-29q23.5-20 36.5-52.5t14-79.5q-1-47-14-79.5T351.5 410Q328 390 296 381t-70-9q-38 0-70.5 9T100 410q-23 20-36 52.5T51 542zm116 0q0-86 59-86 31 0 44.5 18.5T285 542q-1 48-14.5 67T226 628q-31 0-45-19t-14-67zm290-372q0 45 13 77t36 53q23 21 55.5 30.5T632 340q38 0 70-9t55.5-29q23.5-20 36.5-52.5t14-79.5q-1-47-14-79.5T757.5 38Q734 18 702 9t-70-9q-38 0-70.5 9T506 38q-23 20-36 52.5T457 170zm116 0q0-86 59-86 31 0 44.5 18.5T691 170q-1 48-14.5 67T632 256q-31 0-45-19t-14-67zm104 544l73-66L174-14l-73 69z"/><glyph unicode="&amp;" horiz-adv-x="814" d="M92 194q0 38 12.5 72.5t35 64.5q22.5 30 53.5 56t67 46q-25 33-41 67t-16 72q0 25 9.5 50.5t30 46q20.5 20.5 53.5 33t80 12.5q46 0 78.5-11t52.5-29q20-18 29-41t9-47q0-41-29-85.5T417 415q35-54 70-99t78-89q23 25 41.5 62.5T639 366l94-50q-6-18-16.5-39.5t-23-43.5Q681 211 668 191.5T644 158q32-29 56-45.5T749 82l-69-96q-28 13-57.5 34.5T564 70q-36-33-90-58.5T341-14q-52 0-97.5 14t-79 41q-33.5 27-53 65.5T92 194zm394-45q-51 53-93 105.5T320 354q-48-37-73-71.5T222 205q0-51 37.5-80T358 96q40 0 75 16.5t53 36.5zM333 566q0-42 36-90 39 25 56.5 47t17.5 42q0 24-13.5 38T386 617q-27 0-40-14t-13-37z"/><glyph unicode="'" horiz-adv-x="254" d="M90 700h114l-36-216H90z"/><glyph unicode="(" horiz-adv-x="327" d="M227-220q-46 48-78 105.5T97.5 3.5Q78 64 69 125.5T60 243q0 55 9 116t29 122.5Q118 543 150.5 602T230 712l84-54q-35-47-58.5-98t-38-104.5Q203 402 196.5 348T190 243q0-48 7-102t22-107.5Q234-20 258-71t58-93z"/><glyph unicode=")" horiz-adv-x="327" d="M97 712q48-48 80-105.5t51.5-118Q248 428 257 366.5T267 247q-1-53-10-114T228 10.5Q208-51 175.5-110T100-220l-89 56q38 49 62 100.5t38 104q14 52.5 19.5 105T137 243q-1 54-8.5 107.5t-22.5 107q-15 53.5-38.5 104T13 658z"/><glyph unicode="*" horiz-adv-x="378" d="M144 731l28-46 15-59 15 55 28 49 64-35-30-52-48-43 65 16h57v-73h-55l-61 16 50-47 25-42-64-37-27 46-20 64-13-58-29-49-64 37 29 49 45 37-55-16H40v74h60l59-17-51 44-28 50z"/><glyph unicode="+" horiz-adv-x="527" d="M43 394h162v169h117V394h163V282H322V111H205v171H43z"/><glyph unicode="," horiz-adv-x="252" d="M42 64q0 34 22.5 54t55.5 20q42 0 66-28t24-74q0-45-14-77.5t-34.5-54q-20.5-21.5-44-34T75-148L37-94q27 11 47 36t22 53Q83-8 62.5 9T42 64z"/><glyph unicode="-" horiz-adv-x="360" d="M54 345h251V230H54z"/><glyph unicode="." horiz-adv-x="246" d="M42 66q0 35 22 55.5t58 20.5q38 0 60-20.5T204 66q0-35-22-56t-60-21q-36 0-58 21T42 66z"/><glyph unicode="/" horiz-adv-x="408" d="M333 712l98-44L74-140l-98 46z"/><glyph unicode="0" horiz-adv-x="567" d="M40 351q0 184 63 273.5T284 714q126 0 185-88.5T528 351q0-185-63.5-275T283-14Q158-14 99 80.5T40 351zm130 0q0-122 26.5-188.5T284 96q59 0 86.5 61T398 351q0 121-26 187t-89 66q-60 0-86.5-62T170 351z"/><glyph unicode="1" horiz-adv-x="567" d="M101 110h139v395l15 68-48-59-89-61-55 75 228 184h73V110h136V0H101z"/><glyph unicode="2" horiz-adv-x="567" d="M475 529q0-51-18.5-103t-47-102q-28.5-50-63-96.5T279 142l-53-41v-5l72 14h192V0H69v67q24 25 54 58.5t60.5 71Q214 234 243 274t52 80.5q23 40.5 36.5 78.5t13.5 72q0 41-23.5 67.5T247 599q-32 0-65.5-13.5T125 551l-52 92q39 32 88.5 51.5T278 714q43 0 79-12t62-35q26-23 41-57.5t15-80.5z"/><glyph unicode="3" horiz-adv-x="567" d="M241 96q62 0 94.5 33t32.5 80q0 57-34 84t-107 27h-72v69l121 165 57 45-79-9H86v110h382v-71L327 440l-44-27v-5l42 6q35-3 66.5-16t55-37.5Q470 336 484 300t14-83q0-59-19.5-102t-54-72Q390 14 344 0t-99-14q-44 0-91 8T78 17l35 108q26-13 57.5-21t70.5-8z"/><glyph unicode="4" horiz-adv-x="567" d="M553 195H443V0H322v195H19v74l317 436h107V299h110zM322 452l9 84h-4l-34-72-104-135-50-38 64 8h119z"/><glyph unicode="5" horiz-adv-x="567" d="M220 101q66 0 101 32t35 88q0 60-41 88t-117 28l-79-3v366h344V578H231V443l41 4q49-2 88.5-18t67.5-44.5q28-28.5 43-69t15-90.5q0-59-20-104t-55.5-75Q375 16 327 1T222-14q-45 0-85.5 7.5T68 14l35 108q23-10 50.5-15.5T220 101z"/><glyph unicode="6" horiz-adv-x="567" d="M520 217q0-49-16.5-91T457 53q-30-31-72.5-49T291-14q-52 0-95.5 16.5T120 52q-32 33-50 83T52 251q0 99 28.5 179t77 139.5q48.5 59.5 113 96T407 714l29-103q-50-8-92-31t-74.5-55q-32.5-32-55-71.5T183 372q20 25 52 42.5t80 17.5q45 0 83-14t65-41.5q27-27.5 42-67.5t15-92zm-126-7q0 112-110 112-40 0-67.5-18T178 262q-2-11-2-19v-16q0-24 7-47.5t20.5-42q13.5-18.5 34.5-30T288 96q47 0 76.5 32t29.5 82z"/><glyph unicode="7" horiz-adv-x="567" d="M104 0l229 539 44 49-60-10H60v122h451v-38L231 0z"/><glyph unicode="8" horiz-adv-x="567" d="M61 171q0 35 9 62.5t25.5 50q16.5 22.5 39 40.5t48.5 33q-49 31-77 71.5T78 529q0 39 14.5 73t42 59q27.5 25 66.5 39t88 14q45 0 82-12t63.5-34q26.5-22 41-53.5T490 545q0-59-26.5-100T386 370q60-35 90.5-77T507 185q0-45-16.5-81.5T444 41Q414 15 372 .5T280-14q-50 0-90.5 13.5t-69 37.5Q92 61 76.5 95T61 171zm322 13q0 23-11 42t-28.5 34.5Q326 276 304.5 289T261 314q-47-27-64.5-58.5T179 193q0-40 27.5-68.5T283 96q45 0 72.5 22t27.5 66zM202 527q0-24 9-42t24.5-31.5q15.5-13.5 35-25T311 407q60 51 60 112 0 42-24.5 63.5T287 604q-44 0-64.5-23T202 527z"/><glyph unicode="9" horiz-adv-x="567" d="M45 481q0 51 15.5 94t45 73.5q29.5 30.5 72 48T275 714q113 0 177.5-67.5T517 450q0-116-29.5-200.5t-79-141Q359 52 294 22T157-14L129 88q55 7 98 27t74 49.5q31 29.5 50.5 67T379 312q-24-26-51.5-36T254 266q-38 0-75.5 13t-67 39.5q-29.5 26.5-48 67T45 481zm126 7q0-57 32-86t80-29q41 0 67 13t40 32q3 21 3 40 0 28-7 55t-21.5 48q-14.5 21-37 33.5T274 607q-49 0-76-31.5T171 488z"/><glyph unicode=":" horiz-adv-x="269" d="M93 428q0 35 22 55.5t58 20.5q38 0 60-20.5t22-55.5q0-35-22-56t-60-21q-36 0-58 21t-22 56zm0-362q0 35 22 55.5t58 20.5q38 0 60-20.5T255 66q0-35-22-56t-60-21q-36 0-58 21T93 66z"/><glyph unicode=";" horiz-adv-x="290" d="M82 64q0 34 22.5 54t55.5 20q42 0 66-28t24-74q0-45-14-77.5t-34.5-54q-20.5-21.5-44-34T115-148L77-94q27 11 47 36t22 53q-23-3-43.5 14T82 64zm0 364q0 35 22 55.5t58 20.5q38 0 60-20.5t22-55.5q0-35-22-56t-60-21q-36 0-58 21t-22 56z"/><glyph unicode="&lt;" horiz-adv-x="527" d="M40 285v70l386 231 57-90-224-139-91-35 90-31 230-137-57-90z"/><glyph unicode="=" horiz-adv-x="527" d="M43 490h442V378H43zm0-192h442V186H43z"/><glyph unicode="&gt;" horiz-adv-x="527" d="M487 365v-70L101 64l-57 91 224 138 91 36-90 30L39 497l57 89z"/><glyph unicode="?" horiz-adv-x="454" d="M136 208q-5 52 5 88.5t27.5 63q17.5 26.5 40 46t42 37.5q19.5 18 32.5 37.5t13 46.5q0 35-19.5 56T207 604q-16 0-34-3.5t-36-10q-18-6.5-34.5-15T73 558l-50 96q38 26 87.5 43T230 714q94 0 147-45.5T430 546q0-51-13.5-84.5t-33.5-57Q363 381 339 363t-44-38.5Q275 304 261 277t-14-69zM116 66q0 35 22 55.5t58 20.5q38 0 60-20.5T278 66q0-35-22-56t-60-21q-36 0-58 21t-22 56z"/><glyph unicode="@" horiz-adv-x="1059" d="M679 484h70l-48-271q-8-47-.5-68t33.5-21q26 0 51 12t45 37q20 25 32.5 63t12.5 90q0 75-25 128t-68.5 87.5Q738 576 679 592t-127 16q-78 0-145-28t-116.5-77Q241 454 213 386.5T185 240q0-78 23.5-140T277-5.5q45-43.5 111.5-67T541-96q29 0 66 7t67 21l31-96q-41-20-83.5-28t-97.5-8q-97 0-179.5 28t-143 83Q141-34 107 47.5T73 236q0 109 39 197t105 150q66 62 153 95.5T554 712q92 0 171-26.5t137-76q58-49.5 91-121T986 326q0-64-22.5-120t-62-97q-39.5-41-92-65T697 20q-25 0-46.5 5.5t-36 18.5Q600 57 593 78t-4 52h-4q-15-21-32.5-41T514 53.5Q493 38 468 29t-55-9q-24 0-46 10.5T329 60q-16 19-25.5 46t-9.5 60q0 62 20 120.5T368.5 390q34.5 45 80 72.5T545 490q35 0 59-10.5t44-27.5zm-63-121q-13 11-27 17t-35 6q-30 0-55.5-17t-44-44Q436 298 426 264.5T416 199q0-33 13.5-54t46.5-21q14 0 30 8.5t31 22.5q15 14 29 32t25 38z"/><glyph unicode="A" horiz-adv-x="605" d="M405 155H190L137 0H0l252 705h101L605 0H461zM225 265h150l-52 156-21 110h-5l-21-111z"/><glyph unicode="B" horiz-adv-x="591" d="M531 537q0-26-6.5-52T503 437.5q-15-21.5-39-38T406 375v-6q30-5 57-17t47-33q20-21 31.5-51t11.5-71q0-54-23-93.5T468.5 39Q430 14 381 2T280-10h-43.5q-26.5 0-57 1.5t-62 4.5Q86-1 60 5v690q19 3 43.5 6t52.5 5q28 2 57.5 3t58.5 1q49 0 95.5-7.5t83-26.5q36.5-19 58.5-53t22-86zM281 103q25 0 48.5 6t41.5 18.5q18 12.5 29 31.5t11 45q0 33-13 52t-34 29.5Q343 296 317 299t-52 3h-73V109q5-2 16-3t23.5-1.5q12.5-.5 26-1t23.5-.5zm-45 303q14 0 32.5 1t30.5 3q38 12 65.5 36t27.5 63q0 26-10 43t-26.5 27Q339 589 318 593t-44 4q-26 0-48-1t-34-3V406z"/><glyph unicode="C" horiz-adv-x="559" d="M534 29Q502 6 452.5-4T351-14q-63 0-119.5 19.5t-99.5 63q-43 43.5-68.5 113T38 350q0 103 28.5 172.5t74 112Q186 677 242 695.5T354 714q60 0 101.5-8t68.5-19V571q-50 11-81.5 16t-76.5 5q-83 0-133.5-59T182 350q0-54 12-98.5t36.5-76q24.5-31.5 61-49T376 109q45 0 76 9t54 23z"/><glyph unicode="D" horiz-adv-x="647" d="M60 700q21 3 47.5 5t54.5 3q28 1 54.5 1.5t47.5.5q93 0 159-26t107-73q41-47 60-112t19-143q0-71-18-137t-60-117q-42-51-110.5-82T251-11q-16 0-42.5 1t-55 2.5Q125-6 99-4.5T60-1zm215-112q-22 0-44.5-1t-33.5-3V115q4-1 13.5-1.5t20.5-1q11-.5 21-1t15-.5q58 0 96.5 20.5t61 54.5q22.5 34 31.5 78.5t9 91.5q0 41-8 82.5T427.5 513Q406 546 369 567t-94 21z"/><glyph unicode="E" horiz-adv-x="522" d="M60 700h415V578H197V415h253V293H197V122h283V0H60z"/><glyph unicode="F" horiz-adv-x="508" d="M60 700h415V578H197V405h256V283H197V0H60z"/><glyph unicode="G" horiz-adv-x="609" d="M307 365h261V53Q526 18 467.5 2T352-14q-67 0-124.5 21T128 72.5Q86 117 62 186T38 350q0 99 28.5 168.5t75 113Q188 675 246 694.5T364 714q60 0 105.5-9t72.5-19l-28-115q-25 10-56 15.5t-79 5.5q-43 0-79-13t-62.5-42.5Q211 507 196.5 461T182 349q0-63 14-108.5t39-75q25-29.5 58.5-43.5t71.5-14q26 0 51 6.5t42 19.5v132l-151 16z"/><glyph unicode="H" horiz-adv-x="651" d="M453 293H197V0H60v700h137V415h256v285h137V0H453z"/><glyph unicode="I" horiz-adv-x="285" d="M74 700h137V0H74z"/><glyph unicode="J" horiz-adv-x="334" d="M131 700h137V188q0-40-9-76t-29.5-63.5Q209 21 177 4.5T99-12q-29 0-63 6t-59 17L7 123q26-13 59-13 42 0 53.5 31t11.5 82z"/><glyph unicode="K" horiz-adv-x="620" d="M233 299h-36V0H60v700h137V390l32 14 193 296h156L374 406l-54-38 56-39L609 0H440z"/><glyph unicode="L" horiz-adv-x="514" d="M503 0H60v700h137V122h306z"/><glyph unicode="M" horiz-adv-x="800" d="M603 363l15 139h-6l-43-112-149-261h-44L219 391l-44 111h-5l20-138V0H60v700h125l187-320 33-80h4l30 82 177 318h124V0H603z"/><glyph unicode="N" horiz-adv-x="657" d="M234 365l-55 110h-5l16-110V0H60v705h100l265-373 53-107h5l-16 107v368h130V-5H497z"/><glyph unicode="O" horiz-adv-x="670" d="M38 350q0 175 77 269.5T335 714q75 0 131-26t93-74q37-48 55-115t18-149q0-175-77.5-269.5T335-14q-76 0-132 26t-92.5 74Q74 134 56 201T38 350zm144 0q0-53 9-97.5t27.5-76.5q18.5-32 47.5-50t69-18q73 0 113 57t40 185q0 51-8.5 95T453 522q-18 33-47 51.5T335 592q-73 0-113-58.5T182 350z"/><glyph unicode="P" horiz-adv-x="572" d="M60 693q42 8 92.5 12.5T253 710q52 0 104.5-8.5t94.5-34q42-25.5 68.5-71T547 478q0-66-23-111.5T463 292q-38-29-86.5-42T276 237h-16q-11 0-23 .5t-23.5 1.5q-11.5 1-16.5 2V0H60zm204-101q-20 0-38-1.5t-29-3.5V360q4-1 12-2t17-1.5q9-.5 17.5-.5H256q27 0 53.5 5t47.5 18.5q21 13.5 33.5 37.5t12.5 63q0 33-12 54.5T359.5 569Q340 582 315 587t-51 5z"/><glyph unicode="Q" horiz-adv-x="670" d="M702-202q-48-13-97-13-51 0-99 10.5T413-182q-45 12-87 22.5T247-149q-24 0-46-6v118q28 6 58 6 42 0 83.5-10T427-62.5Q470-74 515-84t95-10q22 0 45 2.5t47 8.5zM38 350q0 175 77 269.5T335 714q75 0 131-26t93-74q37-48 55-115t18-149q0-175-77.5-269.5T335-14q-76 0-132 26t-92.5 74Q74 134 56 201T38 350zm144 0q0-53 9-97.5t27.5-76.5q18.5-32 47.5-50t69-18q73 0 113 57t40 185q0 51-8.5 95T453 522q-18 33-47 51.5T335 592q-73 0-113-58.5T182 350z"/><glyph unicode="R" horiz-adv-x="602" d="M60 693q23 4 49.5 7.5t53 5.5q26.5 2 51.5 3t46 1q49 0 96.5-9t85-31q37.5-22 60-60.5T524 513q0-86-40-140t-107-75l49-31L586 0H428L269 274l-72 13V0H60zm210-105q-21 0-41.5-1t-31.5-4V380h58q57 0 91 26t34 86q0 45-28 70.5T270 588z"/><glyph unicode="S" horiz-adv-x="530" d="M362 188q0 32-23.5 52t-59 36.5q-35.5 16.5-77 34t-77 43Q90 379 66.5 417T43 514q0 51 17 88.5t48.5 62.5q31.5 25 74.5 37t96 12q61 0 115-10.5t89-30.5l-43-115q-22 14-66 25.5T279 595q-48 0-73.5-19T180 525q0-30 23.5-50t59-37q35.5-17 77-35t77-43.5q35.5-25.5 59-63T499 203q0-56-18.5-96.5t-52-67.5q-33.5-27-81-40T243-14q-75 0-132 14T27 28l44 117q11-6 28.5-13t39.5-13q22-6 46.5-10t50.5-4q61 0 93.5 20.5T362 188z"/><glyph unicode="T" horiz-adv-x="568" d="M557 578H353V0H216v578H11v122h546z"/><glyph unicode="U" horiz-adv-x="627" d="M440 700h130V248q0-68-18-117t-50-81q-32-32-78-47T323-12Q57-12 57 231v469h137V258q0-41 7.5-69.5t23.5-46q16-17.5 40-25t56-7.5q63 0 91 35t28 113z"/><glyph unicode="V" horiz-adv-x="602" d="M290 289l18-119h5l20 120 134 410h144L351-5h-98L-9 700h159z"/><glyph unicode="W" horiz-adv-x="862" d="M242 309l13-124h4l14 126 122 389h90l120-391 14-124h4l15 126 85 389h139L669-5h-92L452 384l-17 107h-5l-17-108L289-5h-97L0 700h149z"/><glyph unicode="X" horiz-adv-x="633" d="M225 356L30 700h165l108-202 24-71 23 71 113 202h149L410 363 622 0H459L336 216l-27 74-26-74L159 0H10z"/><glyph unicode="Y" horiz-adv-x="592" d="M228 260L-2 700h163l128-263 14-74h5l15 76 124 261h147L365 261V0H228z"/><glyph unicode="Z" horiz-adv-x="539" d="M27 122l296 414 52 42H27v122h485V578L214 160l-51-38h349V0H27z"/><glyph unicode="[" horiz-adv-x="324" d="M60 700h235V590H184v-710h111v-110H60z"/><glyph unicode="\" horiz-adv-x="424" d="M438-95l-99-45-363 808 102 43z"/><glyph unicode="]" horiz-adv-x="324" d="M264-230H29v110h111v710H29v110h235z"/><glyph unicode="^" horiz-adv-x="500" d="M216 705h69l185-292H339l-71 122-21 70-25-71-78-121H20z"/><glyph unicode="_" horiz-adv-x="444" d="M0-117h444v-107H0z"/><glyph unicode="`" horiz-adv-x="316" d="M256 566h-72L60 690v30h136z"/><glyph unicode="a" horiz-adv-x="496" d="M54 471q40 18 95 28.5T264 510q52 0 87-12.5t55.5-35.5q20.5-23 29-55t8.5-72q0-44-3-88.5t-3.5-87.5q-.5-43 2.5-83.5T455-1H349l-21 69h-5q-20-31-55.5-53.5T176-8q-35 0-63 10.5t-48 30Q45 52 34 78.5T23 138q0 46 20.5 77.5t59 51q38.5 19.5 92 27T314 298q7 56-8 80.5T239 403q-39 0-82.5-8T85 374zM219 99q39 0 62 17.5t34 37.5v65q-31 3-59.5 1t-50.5-9q-22-7-35-20t-13-33q0-28 16.5-43.5T219 99z"/><glyph unicode="b" horiz-adv-x="536" d="M57 700h130V460h4q21 24 54 38t73 14q90 0 137.5-61.5T503 263q0-135-66.5-205T254-12q-64 0-117 10.5T57 22zm223-298q-36 0-58.5-18.5T187 330V112q16-8 34.5-11t39.5-3q53 0 80.5 38.5T369 259q0 143-89 143z"/><glyph unicode="c" horiz-adv-x="433" d="M411 31Q381 9 338.5-2.5T251-14q-60 0-101.5 19T82 58.5Q56 93 44.5 142T33 250q0 127 57 195.5T256 514q55 0 88.5-9t60.5-23l-31-106q-23 11-45.5 17t-51.5 6q-54 0-82-35.5T167 250q0-32 7-59t21-47q14-20 36.5-31.5T284 101q33 0 56 8.5t41 20.5z"/><glyph unicode="d" horiz-adv-x="539" d="M482 176q0-42 1-84t9-93h-93l-18 65h-4q-20-35-57.5-56.5T231-14q-94 0-146 62T33 242q0 128 58 199t170 71q31 0 51-3.5t40-11.5v203h130zM261 96q38 0 60 18.5t31 53.5v212q-14 11-31 16.5t-44 5.5q-55 0-82.5-37T167 238q0-64 22.5-103T261 96z"/><glyph unicode="e" horiz-adv-x="508" d="M457 43q-30-24-81.5-40.5T266-14Q145-14 89 56.5T33 250q0 132 63 198t177 66q38 0 74-10t64-33q28-23 45-62t17-97q0-21-2.5-45t-7.5-50H163q3-63 32.5-95T291 90q41 0 73.5 12.5T414 128zM271 410q-51 0-75.5-30.5T166 298h186q4 54-16.5 83T271 410z"/><glyph unicode="f" horiz-adv-x="321" d="M11 500h69v28q0 95 40 137.5T236 708q80 0 133-19l-25-104q-23 8-40.5 10.5T267 598q-20 0-31.5-6t-17-18.5q-5.5-12.5-7-31T210 500h110V390H210V0H80v390H11z"/><glyph unicode="g" horiz-adv-x="536" d="M480 0q0-109-59-160.5T256-212q-72 0-113.5 10T80-181l27 103q23-9 53.5-18t75.5-9q68 0 92.5 29.5T353 7v32h-4Q314-8 225-8 128-8 80.5 52T33 240q0 134 64 203t186 69q64 0 114.5-9t82.5-21zM260 96q38 0 58.5 17t31.5 51v225q-31 13-77 13-50 0-78-37.5T167 245q0-73 24-111t69-38z"/><glyph unicode="h" horiz-adv-x="545" d="M363 0v284q0 61-17 88t-62 27q-33 0-60.5-22.5T187 319V0H57v700h130V444h4q24 32 59 51t89 19q38 0 67-10t48.5-33q19.5-23 29-62.5T493 311V0z"/><glyph unicode="i" horiz-adv-x="269" d="M67 500h130V0H67zM48 641q0 29 21.5 49.5T129 711q38 0 61.5-20.5T214 641q0-29-23.5-48.5T129 573q-38 0-59.5 19.5T48 641z"/><glyph unicode="j" horiz-adv-x="268" d="M69 500h130V-21q0-91-36-139T48-208q-30 0-64 7v109q4 0 7-.5t6-.5q45 0 58.5 29T69 16zM50 641q0 29 21.5 49.5T131 711q38 0 61.5-20.5T216 641q0-29-23.5-48.5T131 573q-38 0-59.5 19.5T50 641z"/><glyph unicode="k" horiz-adv-x="491" d="M222 207h-35V0H57v700h130V287l30 14 114 199h143L354 310l-51-38 55-39L493 0H344z"/><glyph unicode="l" horiz-adv-x="294" d="M191 168q0-35 9-51t29-16q12 0 23.5 2t28.5 9l14-102q-16-8-49-16t-68-8q-57 0-87 26.5T61 100v600h130z"/><glyph unicode="m" horiz-adv-x="805" d="M341 0v272q0 69-13 98t-54 29q-34 0-55-18.5T187 333V0H57v500h101l15-66h4q23 32 58.5 56t91.5 24q48 0 78.5-19.5T453 429q23 39 59 62t87 23q42 0 71.5-10t48-34.5Q737 445 746 404t9-104V0H625v281q0 59-12.5 88.5T557 399q-35 0-55.5-19T471 328V0z"/><glyph unicode="n" horiz-adv-x="545" d="M363 0v284q0 61-17.5 88T286 399q-37 0-62.5-21.5T187 324V0H57v500h103l15-66h4q23 32 61 56t98 24q37 0 66-10t49-33q20-23 30-62.5t10-97.5V0z"/><glyph unicode="o" horiz-adv-x="537" d="M33 250q0 127 62 195.5T269 514q60 0 104-19t73-53.5q29-34.5 43.5-83.5T504 250q0-127-61.5-195.5T269-14q-60 0-104 19T91.5 58.5Q62 93 47.5 142T33 250zm134 0q0-33 6-61t18-49q12-21 31.5-32.5T269 96q51 0 76 37t25 117q0 69-23 111.5T269 404q-48 0-75-36t-27-118z"/><glyph unicode="p" horiz-adv-x="540" d="M57 500h95l15-60h4q26 38 61.5 56t86.5 18q94 0 141-59.5T507 263q0-64-15-115.5T447.5 60q-29.5-36-72-55T278-14q-31 0-51 4.5T187 5v-205H57zm223-96q-38 0-59.5-19T187 328V120q14-11 30.5-17.5T261 96q56 0 84 39.5T373 266q0 66-22 102t-71 36z"/><glyph unicode="q" horiz-adv-x="536" d="M480-200H350V43h-4q-17-26-46-41.5T225-14q-93 0-142.5 63T33 240q0 134 67.5 203T294 512q27 0 54-2.5t51.5-7q24.5-4.5 45.5-10t35-10.5zM260 96q38 0 58.5 17t31.5 51v225q-15 8-34 10.5t-43 2.5q-53 0-79.5-40T167 245q0-73 24-111t69-38z"/><glyph unicode="r" horiz-adv-x="351" d="M333 378q-31 11-56 11-35 0-58.5-18.5T187 323V0H57v500h101l15-66h4q17 37 46 57t68 20q26 0 59-11z"/><glyph unicode="s" horiz-adv-x="422" d="M264 138q0 20-17 32t-42 22q-25 10-55 20.5t-55 29q-25 18.5-42 47T36 362q0 74 44 113t127 39q57 0 103-12t72-27l-29-94q-23 9-58 19t-71 10q-58 0-58-45 0-18 17-29t42-20.5q25-9.5 55-20.5t55-28.5q25-17.5 42-45.5t17-72q0-76-48.5-119.5T200-14q-53 0-99.5 13.5T25 31l36 97q23-13 61-25.5T200 90q29 0 46.5 11t17.5 37z"/><glyph unicode="t" horiz-adv-x="349" d="M5 500h69v94l130 37V500h122V390H204V198q0-52 10.5-74.5T254 101q20 0 34.5 4t32.5 12l23-100Q317 4 281-5t-73-9q-69 0-101.5 35.5T74 138v252H5z"/><glyph unicode="u" horiz-adv-x="538" d="M182 500V216q0-61 14.5-88t56.5-27q37 0 61.5 22t36.5 54v323h130V152q0-41 4-80.5T497 0h-98l-23 74h-4q-23-38-64-63t-97-25q-38 0-68 10T93 29Q73 52 62.5 91T52 189v311z"/><glyph unicode="v" horiz-adv-x="477" d="M230 238l17-77h5l14 79 85 260h140L282-5h-79L-14 500h151z"/><glyph unicode="w" horiz-adv-x="721" d="M419 500l91-256 18-83h4l14 84 64 255h119L575-5h-96L378 275l-13 63h-5l-12-64L252-5h-99L-8 500h141l73-251 12-89h5l17 90 83 250z"/><glyph unicode="x" horiz-adv-x="525" d="M170 256L20 500h155l65-107 28-70 30 70 68 107h141L356 260 517 0H366l-77 120-30 74-32-74L150 0H8z"/><glyph unicode="y" horiz-adv-x="478" d="M239 219l18-78h6l13 79 76 280h134L334 49Q315-7 297.5-53.5T259-134q-21-34-46.5-52.5T152-205q-52 0-83 17L93-84q15-6 30-6 23 0 44.5 19.5T200 0L-9 500h156z"/><glyph unicode="z" horiz-adv-x="458" d="M31 110l197 237 51 43H31v110h392V390L228 149l-50-39h245V0H31z"/><glyph unicode="{" horiz-adv-x="371" d="M123 96q0 51-21 70t-59 19v100q38 0 59 20.5t21 64.5v209q0 54 25.5 88t81.5 34h120V591h-50q-27 0-39.5-14T248 531V336q0-44-21-66.5T178 242v-10q27-4 48.5-30t21.5-68V-60q0-32 12-46t41-14h49v-110H230q-52 0-79.5 31.5T123-109z"/><glyph unicode="|" horiz-adv-x="227" d="M60 700h107v-830H60z"/><glyph unicode="}" horiz-adv-x="371" d="M261 375q0-51 21-70t59-19V186q-38 0-59-20.5T261 101v-209q0-54-26.5-88T152-230H35v110h50q27 0 39.5 13.5T137-60v195q0 44 21 66.5t49 27.5v10q-27 4-48.5 30T137 337v194q0 31-12 45.5T84 591H35v110h119q53 0 80-31.5t27-89.5z"/><glyph unicode="~" horiz-adv-x="527" d="M28 378q47 38 84.5 52.5T182 445q29 0 54-8.5t48-18q23-9.5 45.5-18T375 392q18 0 37 6t40 23l47-103q-36-27-66-38t-56-11q-28 0-52 9t-46.5 20Q256 309 233 318t-49 9q-24 0-51.5-10.5T72 278z"/><glyph horiz-adv-x="253"/><glyph unicode="¡" horiz-adv-x="293" d="M191-200H57v329l26 162h82l26-162zM44 435q0 35 22 55.5t58 20.5q38 0 60-20.5t22-55.5q0-35-22-56t-60-21q-36 0-58 21t-22 56z"/><glyph unicode="¢" horiz-adv-x="567" d="M489 31q-17-13-42.5-22.5T392-6v-94H271v89q-51 7-86.5 28.5t-58 55Q104 106 94 151t-10 99q0 112 48 178.5T271 510v90h121v-90q28-4 50-10.5t40-15.5l-30-106q-15 7-32 11t-35 6V104q23 3 41.5 10t32.5 15zM212 250q0-51 19-89.5t64-52.5v286q-42-11-62.5-45.5T212 250z"/><glyph unicode="£" horiz-adv-x="567" d="M51 394h68q-13 24-22.5 54T87 520q0 49 16.5 85.5t46 60.5q29.5 24 70.5 36t90 12q61 0 111-11.5t86-28.5l-42-116q-20 11-55 22.5T326 592q-48 0-75-22.5T224 502q0-34 12.5-58.5T264 394h141V287h-98q3-17 3-34 0-30-10-63t-31-54l-43-31v-5l67 15h230V0H51v115h2q31 1 54.5 11t39 26.5Q162 169 170 191t8 46q0 27-6 50H51z"/><glyph unicode="¤" horiz-adv-x="567" d="M81 622l78-77 19-37q20 15 47.5 22.5T283 538q29 0 57.5-7.5T388 509l20 36 78 77 77-80-77-78-37-16q14-21 20-47.5t6-55.5q0-30-6.5-56.5T449 244l37-16 77-78-77-80-78 77-18 37q-19-14-48.5-22t-58.5-8q-30 0-57.5 7.5T178 183l-19-36-78-77-76 80 77 78 36 17q-12 21-19 45.5T92 345q0 29 7.5 54t20.5 48l-38 17-77 78zm120-276q0-38 23-62t60-24q37 0 59.5 24t22.5 62q0 36-22.5 61T284 432q-37 0-60-25t-23-61z"/><glyph unicode="¥" horiz-adv-x="567" d="M85 337h90L-14 700h163l128-263 14-74h5l15 76 124 261h147L392 337h91v-80H353v-58h130v-80H353V0H216v119H85v80h131v58H85z"/><glyph unicode="¦" horiz-adv-x="227" d="M60 213h107v-343H60zm107 144H60v343h107z"/><glyph unicode="§" horiz-adv-x="530" d="M49 353q0 31 15 60.5t41 52.5l41 14q-26 16-43 40.5T86 586q0 56 43.5 92T261 714q59 0 110-10t78-23l-32-105q-23 11-61 19.5t-73 8.5q-37 0-52-11t-15-28q0-18 19.5-28t49-18q29.5-8 64-18t64-28q29.5-18 49-48t19.5-78q0-31-14.5-60T426 235l-45-14q27-16 45-41t18-66q0-63-49-95.5T265-14Q197-14 151.5-.5T77 29l34 100q23-11 56-22t77-11q37 0 53.5 9.5T314 136q0 19-19.5 29.5t-49 19q-29.5 8.5-64 18.5t-64 27.5Q88 248 68.5 277T49 353zm302-8q0 18-8.5 30T318 396.5q-16 9.5-39 17.5t-52 17q-20-12-34-31.5T179 355q0-35 32-52t88-33q22 12 37 32t15 43z"/><glyph unicode="¨" horiz-adv-x="479" d="M60 651q0 32 19.5 51t51.5 19q32 0 50.5-19t18.5-51q0-30-18.5-49T131 583q-32 0-51.5 19T60 651zm219 0q0 32 18.5 51t50.5 19q32 0 51.5-19t19.5-51q0-30-19.5-49T348 583q-32 0-50.5 19T279 651z"/><glyph unicode="©" horiz-adv-x="833" d="M55 290q0 83 28 149.5T159.5 553Q208 600 274 625.5T416 651q76 0 141.5-25.5T672 553q49-47 77-113.5T777 290q0-83-28-149.5T672 27q-49-47-114.5-72.5T416-71q-83 0-150 25.5T152 27q-47 47-72 113.5T55 290zm98 0q0-62 19.5-112t55-84.5Q263 59 311 40.5T416 22q57 0 105.5 18.5t84 53q35.5 34.5 55 84.5T680 290q0 62-19.5 112t-55 84.5q-35.5 34.5-84 53T416 558q-57 0-105-18.5t-83.5-53Q192 452 172.5 402T153 290zm388-159q-22-14-55.5-22.5T414 100q-81 0-123.5 51T248 290q0 91 45.5 140.5T414 480q37 0 65.5-8.5T534 448l-32-87q-18 9-32.5 12t-28.5 3q-29 0-46-19t-17-67q0-86 70-86 19 0 34 3.5t30 11.5z"/><glyph unicode="ª" horiz-adv-x="420" d="M61 674q26 14 73.5 24T241 708q76 0 104-27.5t28-84.5q0-60-3-116t8-100H277l-13 46h-4q-13-17-37-33.5T156 376q-52 0-83 27.5T42 475q0 33 17.5 55t47 35q29.5 13 69 17.5T259 585q2 26-7 37.5T208 634q-40 0-72.5-8T83 610zm133-220q32 0 45 11.5t20 23.5v35q-43 5-72.5-2T157 488q0-16 10.5-25t26.5-9z"/><glyph unicode="«" horiz-adv-x="488" d="M223 261l154 216 71-56-81-122-46-39 46-35 87-121-71-56zm-194-2l160 230 79-62-87-126-48-41 48-36 93-124-79-62z"/><glyph unicode="¬" horiz-adv-x="527" d="M45 412h442V186H367v114H45z"/><glyph unicode="­" horiz-adv-x="360" d="M54 345h251V230H54z"/><glyph unicode="®" horiz-adv-x="690" d="M62 451q0 67 22.5 119.5T146 659q39 36 90.5 55T345 733q59 0 110.5-19t89.5-55q38-36 60-88.5T627 451q0-68-22.5-120.5t-61-88.5q-38.5-36-90-54.5T345 169q-59 0-110.5 18.5t-90 54.5Q106 278 84 330.5T62 451zm94 0q0-48 15.5-84.5T213 306q26-24 60-36t72-12q40 0 74.5 11.5T479 305q25 24 39.5 60.5T533 451q0 48-15 84t-40.5 60q-25.5 24-60 36T345 643q-42 0-77-13t-60-38q-25-25-38.5-60.5T156 451zm86 130q16 5 45 7.5t55 2.5q42 0 72-17.5t30-60.5q0-32-20.5-49T373 445l28-14 65-109h-61l-63 104-48 15V322h-52zm89-35q-11 0-21-.5t-16-3.5v-71h34q29 0 45 9t16 31q0 35-58 35z"/><glyph unicode="¯" horiz-adv-x="443" d="M60 658h323v-92H60z"/><glyph unicode="°" horiz-adv-x="437" d="M60 548q0 37 13 67.5t35.5 52.5q22.5 22 52 34t63.5 12q34 0 64.5-11t53.5-32.5q23-21.5 36-52.5t13-70q0-39-13-69.5T342 427q-23-21-53.5-32T224 384q-34 0-63.5 11t-52 32Q86 448 73 478.5T60 548zm100 0q0-32 19-50.5t46-18.5q27 0 47 18.5t20 50.5q0 32-20 51.5T225 619q-27 0-46-19.5T160 548z"/><glyph unicode="±" horiz-adv-x="527" d="M43 518h162v164h117V518h163V406H322V299H205v107H43zm0-265h442V141H43z"/><glyph unicode="²" horiz-adv-x="412" d="M348 680q0-59-30-101t-72-80l-47-25v-4l59 11h106V380H51v71q26 18 58 42t59.5 51.5q27.5 27.5 46 56.5t18.5 55q0 49-56 49-27 0-51-8.5T84 677l-34 90q35 21 74.5 30.5T200 807q71 0 109.5-32.5T348 680z"/><glyph unicode="³" horiz-adv-x="412" d="M169 468q44 0 62.5 14t19.5 37q-1 23-20 36t-70 13h-42v38l73 80 43 25-58-6H62v95h283v-62l-87-92-34-18v-5l30 3q52-2 81.5-31.5T366 511q-1-36-15.5-62t-39-43Q287 389 254 381t-68-8q-39 0-72.5 6.5T56 397l23 90q41-19 90-19z"/><glyph unicode="´" horiz-adv-x="305" d="M113 720h132v-30L134 566H60z"/><glyph unicode="µ" horiz-adv-x="569" d="M182 500V227q0-64 20.5-96.5T274 98q46 0 74 23t40 64v315h130V163q0-41 2.5-82.5T533 0h-96l-32 74h-4q-17-35-50-60.5T265-12q-39 0-60 14t-39 36h-5l21-105v-133H52v700z"/><glyph unicode="¶" horiz-adv-x="529" d="M362 700h107v-830H362zM178 294q-33 0-61 16.5t-48.5 45Q48 384 37 420.5T26 498q0 40 13 76.5T76 639q24 28 58 44.5t76 16.5h74v-830H178z"/><glyph unicode="·" horiz-adv-x="253" d="M45 316q0 35 22 55.5t58 20.5q38 0 60-20.5t22-55.5q0-35-22-56t-60-21q-36 0-58 21t-22 56z"/><glyph unicode="¸" horiz-adv-x="332" d="M208 0l-24-43q41-4 64.5-21.5T272-118q0-23-11.5-40T229-186.5Q209-198 182-204t-58-6q-31 0-64 6l9 48q7-1 13-1h11q38 0 49 9t11 21q0 28-86 32l57 95z"/><glyph unicode="¹" horiz-adv-x="412" d="M72 480h97v164l10 46-30-32-59-39-49 77 158 111h85V480h88V380H72z"/><glyph unicode="º" horiz-adv-x="419" d="M34 542q0 45 13 77t36 53q23 21 55.5 30.5T209 712q38 0 70-9t55.5-29q23.5-20 36.5-52.5t14-79.5q-1-47-14-79.5T334.5 410Q311 390 279 381t-70-9q-38 0-70.5 9T83 410q-23 20-36 52.5T34 542zm116 0q0-86 59-86 31 0 44.5 18.5T268 542q-1 48-14.5 67T209 628q-31 0-45-19t-14-67z"/><glyph unicode="»" horiz-adv-x="488" d="M264 266L111 50l-72 56 82 122 45 39-45 35-87 121 70 56zm195 2L299 38l-79 62 87 126 48 41-48 36-93 124 79 62z"/><glyph unicode="¼" horiz-adv-x="880" d="M609 715l85-50L264-14l-86 53zM833 78h-76V0H656v78H449v67l218 283h90V167h76zM656 253l6 53h-5l-22-49-48-66-36-32 52 8h53zM164 544l11 46-31-32-59-39-49 77 158 111h85V280H164z"/><glyph unicode="½" horiz-adv-x="903" d="M609 715l85-50L264-14l-86 53zm232-415q0-59-30-101t-72-80l-47-25v-4l59 11h106V0H544v71q26 18 58 42t59.5 51.5q27.5 27.5 46 56.5t18.5 55q0 49-56 49-27 0-51-8.5T577 297l-34 90q35 21 74.5 30.5T693 427q71 0 109.5-32.5T841 300zM164 544l11 46-31-32-59-39-49 77 158 111h85V280H164z"/><glyph unicode="¾" horiz-adv-x="905" d="M634 715l85-50L289-14l-86 53zM858 78h-76V0H681v78H474v67l218 283h90V167h76zM681 253l6 53h-5l-22-49-48-66-36-32 52 8h53zM160 368q44 0 62.5 14t19.5 37q-1 23-20 36t-70 13h-42v38l73 80 43 25-58-6H53v95h283v-62l-87-92-34-18v-5l30 3q52-2 81.5-31.5T357 411q-1-36-15.5-62t-39-43Q278 289 245 281t-68-8q-39 0-72.5 6.5T47 297l23 90q41-19 90-19z"/><glyph unicode="¿" horiz-adv-x="454" d="M317 293q5-52-4.5-88.5t-27.5-63Q267 115 245 96t-41.5-37q-19.5-18-33-37.5T157-25q0-35 20-56.5t70-21.5q16 0 34 3.5t36 10q18 6.5 34.5 15T381-56l49-96q-38-26-87-43t-119-17q-94 0-147.5 45T23-44q0 51 13.5 84t34 56.5Q91 120 114.5 138t44 38.5q20.5 20.5 34 47.5t13.5 69zM178 435q0 35 22 55.5t58 20.5q38 0 60-20.5t22-55.5q0-35-22-56t-60-21q-36 0-58 21t-22 56z"/><glyph unicode="À" horiz-adv-x="605" d="M405 155H190L137 0H0l252 705h101L605 0H461zM225 265h150l-52 156-21 110h-5l-21-111zm174 487H294l-158 88v30h159z"/><glyph unicode="Á" horiz-adv-x="605" d="M405 155H190L137 0H0l252 705h101L605 0H461zM225 265h150l-52 156-21 110h-5l-21-111zm84 605h159v-30l-160-88H205z"/><glyph unicode="Â" horiz-adv-x="605" d="M405 155H190L137 0H0l252 705h101L605 0H461zM225 265h150l-52 156-21 110h-5l-21-111zm32 605h96l127-93v-39h-99l-57 41-20 34-21-33-62-42h-97v40z"/><glyph unicode="Ã" horiz-adv-x="605" d="M405 155H190L137 0H0l252 705h101L605 0H461zM225 265h150l-52 156-21 110h-5l-21-111zM113 800q32 35 61.5 48t58.5 13q22 0 44-5.5t42.5-12q20.5-6.5 40.5-12t38-5.5q16 0 31 5t29 19l25-67q-28-26-54.5-36.5T377 736q-23 0-44 5.5T291.5 754q-20.5 7-40.5 12.5t-39 5.5q-19 0-37.5-7.5T137 737z"/><glyph unicode="Ä" horiz-adv-x="605" d="M405 155H190L137 0H0l252 705h101L605 0H461zM225 265h150l-52 156-21 110h-5l-21-111zM124 798q0 26 18 42t58 16q39 0 57-16t18-42q0-26-18-41.5T200 741q-40 0-58 15.5T124 798zm214 0q0 26 18 42t57 16q40 0 58-16t18-42q0-26-18-41.5T413 741q-39 0-57 15.5T338 798z"/><glyph unicode="Å" horiz-adv-x="605" d="M175 771q0 18 6 34.5t20.5 29q14.5 12.5 39 19.5t62.5 7q70 0 99-24t29-66q0-29-16-50.5T358 689L605 0H461l-56 155H190L137 0H0l246 689q-39 9-55 31t-16 51zm50-506h150l-52 156-21 110h-5l-21-111zm34 506q0-31 44-31 25 0 35 8t10 23q0 17-10.5 25t-34.5 8q-44 0-44-33z"/><glyph unicode="Æ" horiz-adv-x="862" d="M394 532l-36-103-84-148h126v251zm6-362H214L115 0H-29l424 700h419V578H537V415h252V293H537V122h282V0H400z"/><glyph unicode="Ç" horiz-adv-x="559" d="M534 29q-26-19-65.5-29T385-13l-16-30q41-4 64.5-21.5T457-118q0-23-11.5-40T414-186.5Q394-198 367-204t-58-6q-31 0-64 6l9 48q7-1 13-1h11q38 0 49 9t11 21q0 28-86 32l50 84q-55 7-103 30.5T115 87q-36 44-56.5 109T38 350q0 103 28.5 172.5t74 112Q186 677 242 695.5T354 714q60 0 101.5-8t68.5-19V571q-50 11-81.5 16t-76.5 5q-83 0-133.5-59T182 350q0-54 12-98.5t36.5-76q24.5-31.5 61-49T376 109q45 0 76 9t54 23z"/><glyph unicode="È" horiz-adv-x="522" d="M60 700h415V578H197V415h253V293H197V122h283V0H60zm292 52H247L89 840v30h159z"/><glyph unicode="É" horiz-adv-x="522" d="M60 700h415V578H197V415h253V293H197V122h283V0H60zm233 170h159v-30l-160-88H189z"/><glyph unicode="Ê" horiz-adv-x="522" d="M60 700h415V578H197V415h253V293H197V122h283V0H60zm159 170h96l127-93v-39h-99l-57 41-20 34-21-33-62-42H86v40z"/><glyph unicode="Ë" horiz-adv-x="522" d="M60 700h415V578H197V415h253V293H197V122h283V0H60zm24 98q0 26 18 42t58 16q39 0 57-16t18-42q0-26-18-41.5T160 741q-40 0-58 15.5T84 798zm214 0q0 26 18 42t57 16q40 0 58-16t18-42q0-26-18-41.5T373 741q-39 0-57 15.5T298 798z"/><glyph unicode="Ì" horiz-adv-x="285" d="M74 700h137V0H74zm166 52H135l-158 88v30h159z"/><glyph unicode="Í" horiz-adv-x="285" d="M74 700h137V0H74zm78 170h159v-30l-160-88H48z"/><glyph unicode="Î" horiz-adv-x="285" d="M74 700h137V0H74zm22 170h96l127-93v-39h-99l-57 41-20 34-21-33-62-42h-97v40z"/><glyph unicode="Ï" horiz-adv-x="285" d="M74 700h137V0H74zm-113 98q0 26 18 42t58 16q39 0 57-16t18-42q0-26-18-41.5T37 741q-40 0-58 15.5T-39 798zm214 0q0 26 18 42t57 16q40 0 58-16t18-42q0-26-18-41.5T250 741q-39 0-57 15.5T175 798z"/><glyph unicode="Ð" horiz-adv-x="669" d="M-6 401h88v299q21 3 47.5 5t54.5 3q28 1 54.5 1.5t47.5.5q93 0 159-26t107-73q41-47 60-112t19-143q0-71-18-137t-60-117q-42-51-110.5-82T273-11q-16 0-42.5 1t-55 2.5Q147-6 121-4.5T82-1v322H-6zm303 187q-22 0-44.5-1t-33.5-3V401h140v-80H219V114q4-1 13.5-1.5t20.5-1q11-.5 21-.5h15q58 0 96.5 20.5t61 54.5q22.5 34 31.5 78.5t9 91.5q0 41-8 82.5T449.5 513Q428 546 391 567t-94 21z"/><glyph unicode="Ñ" horiz-adv-x="657" d="M234 365l-55 110h-5l16-110V0H60v705h100l265-373 53-107h5l-16 107v368h130V-5H497zm-96 435q32 35 61.5 48t58.5 13q22 0 44-5.5t42.5-12q20.5-6.5 40.5-12t38-5.5q16 0 31 5t29 19l25-67q-28-26-54.5-36.5T402 736q-23 0-44 5.5T316.5 754q-20.5 7-40.5 12.5t-39 5.5q-19 0-37.5-7.5T162 737z"/><glyph unicode="Ò" horiz-adv-x="670" d="M38 350q0 175 77 269.5T335 714q75 0 131-26t93-74q37-48 55-115t18-149q0-175-77.5-269.5T335-14q-76 0-132 26t-92.5 74Q74 134 56 201T38 350zm144 0q0-53 9-97.5t27.5-76.5q18.5-32 47.5-50t69-18q73 0 113 57t40 185q0 51-8.5 95T453 522q-18 33-47 51.5T335 592q-73 0-113-58.5T182 350zm230 402H307l-158 88v30h159z"/><glyph unicode="Ó" horiz-adv-x="670" d="M38 350q0 175 77 269.5T335 714q75 0 131-26t93-74q37-48 55-115t18-149q0-175-77.5-269.5T335-14q-76 0-132 26t-92.5 74Q74 134 56 201T38 350zm144 0q0-53 9-97.5t27.5-76.5q18.5-32 47.5-50t69-18q73 0 113 57t40 185q0 51-8.5 95T453 522q-18 33-47 51.5T335 592q-73 0-113-58.5T182 350zm186 520h159v-30l-160-88H264z"/><glyph unicode="Ô" horiz-adv-x="670" d="M38 350q0 175 77 269.5T335 714q75 0 131-26t93-74q37-48 55-115t18-149q0-175-77.5-269.5T335-14q-76 0-132 26t-92.5 74Q74 134 56 201T38 350zm144 0q0-53 9-97.5t27.5-76.5q18.5-32 47.5-50t69-18q73 0 113 57t40 185q0 51-8.5 95T453 522q-18 33-47 51.5T335 592q-73 0-113-58.5T182 350zm105 520h96l127-93v-39h-99l-57 41-20 34-21-33-62-42h-97v40z"/><glyph unicode="Õ" horiz-adv-x="670" d="M38 350q0 175 77 269.5T335 714q75 0 131-26t93-74q37-48 55-115t18-149q0-175-77.5-269.5T335-14q-76 0-132 26t-92.5 74Q74 134 56 201T38 350zm144 0q0-53 9-97.5t27.5-76.5q18.5-32 47.5-50t69-18q73 0 113 57t40 185q0 51-8.5 95T453 522q-18 33-47 51.5T335 592q-73 0-113-58.5T182 350zm-38 450q32 35 61.5 48t58.5 13q22 0 44-5.5t42.5-12q20.5-6.5 40.5-12t38-5.5q16 0 31 5t29 19l25-67q-28-26-54.5-36.5T408 736q-23 0-44 5.5T322.5 754q-20.5 7-40.5 12.5t-39 5.5q-19 0-37.5-7.5T168 737z"/><glyph unicode="Ö" horiz-adv-x="670" d="M38 350q0 175 77 269.5T335 714q75 0 131-26t93-74q37-48 55-115t18-149q0-175-77.5-269.5T335-14q-76 0-132 26t-92.5 74Q74 134 56 201T38 350zm144 0q0-53 9-97.5t27.5-76.5q18.5-32 47.5-50t69-18q73 0 113 57t40 185q0 51-8.5 95T453 522q-18 33-47 51.5T335 592q-73 0-113-58.5T182 350zm-32 448q0 26 18 42t58 16q39 0 57-16t18-42q0-26-18-41.5T226 741q-40 0-58 15.5T150 798zm214 0q0 26 18 42t57 16q40 0 58-16t18-42q0-26-18-41.5T439 741q-39 0-57 15.5T364 798z"/><glyph unicode="×" horiz-adv-x="527" d="M134 547l131-130 130 130 79-81-130-127 130-129-79-82-130 131-132-132-79 81 131 131L56 466z"/><glyph unicode="Ø" horiz-adv-x="670" d="M111 86q-37 48-55 114.5T38 350q0 175 77 269.5T335 714q45 0 83-10t69-28l25 39 85-50-35-56q35-48 52.5-113.5T632 350q0-175-77.5-269.5T335-14q-44 0-80 8.5T188 19l-21-33-86 53zm71 264q0-36 4-68t12-59l219 342q-35 27-82 27-73 0-113-58.5T182 350zm306 0q0 33-3 63.5T474 470L259 130q33-22 76-22 73 0 113 57t40 185z"/><glyph unicode="Ù" horiz-adv-x="627" d="M440 700h130V248q0-68-18-117t-50-81q-32-32-78-47T323-12Q57-12 57 231v469h137V258q0-41 7.5-69.5t23.5-46q16-17.5 40-25t56-7.5q63 0 91 35t28 113zm-45 52H290l-158 88v30h159z"/><glyph unicode="Ú" horiz-adv-x="627" d="M440 700h130V248q0-68-18-117t-50-81q-32-32-78-47T323-12Q57-12 57 231v469h137V258q0-41 7.5-69.5t23.5-46q16-17.5 40-25t56-7.5q63 0 91 35t28 113zm-75 170h159v-30l-160-88H261z"/><glyph unicode="Û" horiz-adv-x="627" d="M440 700h130V248q0-68-18-117t-50-81q-32-32-78-47T323-12Q57-12 57 231v469h137V258q0-41 7.5-69.5t23.5-46q16-17.5 40-25t56-7.5q63 0 91 35t28 113zM273 870h96l127-93v-39h-99l-57 41-20 34-21-33-62-42h-97v40z"/><glyph unicode="Ü" horiz-adv-x="627" d="M440 700h130V248q0-68-18-117t-50-81q-32-32-78-47T323-12Q57-12 57 231v469h137V258q0-41 7.5-69.5t23.5-46q16-17.5 40-25t56-7.5q63 0 91 35t28 113zm-307 98q0 26 18 42t58 16q39 0 57-16t18-42q0-26-18-41.5T209 741q-40 0-58 15.5T133 798zm214 0q0 26 18 42t57 16q40 0 58-16t18-42q0-26-18-41.5T422 741q-39 0-57 15.5T347 798z"/><glyph unicode="Ý" horiz-adv-x="592" d="M228 260L-2 700h163l128-263 14-74h5l15 76 124 261h147L365 261V0H228zm98 610h159v-30l-160-88H222z"/><glyph unicode="Þ" horiz-adv-x="572" d="M60 700h137v-72q14 1 28 1.5t28 .5q52 0 104.5-8.5t94.5-34q42-25.5 68.5-71T547 398q0-66-23-111.5T463 212q-38-29-86.5-42T276 157h-16q-11 0-23 .5t-23.5 1.5q-11.5 1-16.5 2V0H60zm204-188q-20 0-38-1.5t-29-3.5V280q4-1 12-2t17-1.5q9-.5 17.5-.5H256q27 0 53.5 5t47.5 18.5q21 13.5 33.5 37.5t12.5 63q0 33-12 54.5T359.5 489Q340 502 315 507t-51 5z"/><glyph unicode="ß" horiz-adv-x="630" d="M81 390H12v110h69q0 58 16 97.5t44.5 64q28.5 24.5 68 35.5t86.5 11q51 0 91.5-11.5t69-32.5q28.5-21 44-50.5T516 548q0-39-17.5-63t-39-41q-21.5-17-39-32T403 375q0-18 14.5-29t37-20.5q22.5-9.5 48-20t48-27.5q22.5-17 37-43.5T602 167q0-35-11-67.5t-34.5-58Q533 16 497.5 1T414-14q-47 0-86.5 11.5T260 26l35 97q23-13 46-23t62-10q30 0 49.5 20.5T472 160q0 21-14.5 34t-37 23.5Q398 228 372.5 238t-48 25.5Q302 279 287.5 302T273 361q0 43 17.5 67t39 40.5q21.5 16.5 39 30.5t17.5 38q0 13-7 24.5T360 581q-12 8-27 13t-30 5q-48 0-70.5-23.5T210 488V0H81z"/><glyph unicode="à" horiz-adv-x="496" d="M54 471q40 18 95 28.5T264 510q52 0 87-12.5t55.5-35.5q20.5-23 29-55t8.5-72q0-44-3-88.5t-3.5-87.5q-.5-43 2.5-83.5T455-1H349l-21 69h-5q-20-31-55.5-53.5T176-8q-35 0-63 10.5t-48 30Q45 52 34 78.5T23 138q0 46 20.5 77.5t59 51q38.5 19.5 92 27T314 298q7 56-8 80.5T239 403q-39 0-82.5-8T85 374zM219 99q39 0 62 17.5t34 37.5v65q-31 3-59.5 1t-50.5-9q-22-7-35-20t-13-33q0-28 16.5-43.5T219 99zm92 467h-72L115 690v30h136z"/><glyph unicode="á" horiz-adv-x="496" d="M54 471q40 18 95 28.5T264 510q52 0 87-12.5t55.5-35.5q20.5-23 29-55t8.5-72q0-44-3-88.5t-3.5-87.5q-.5-43 2.5-83.5T455-1H349l-21 69h-5q-20-31-55.5-53.5T176-8q-35 0-63 10.5t-48 30Q45 52 34 78.5T23 138q0 46 20.5 77.5t59 51q38.5 19.5 92 27T314 298q7 56-8 80.5T239 403q-39 0-82.5-8T85 374zM219 99q39 0 62 17.5t34 37.5v65q-31 3-59.5 1t-50.5-9q-22-7-35-20t-13-33q0-28 16.5-43.5T219 99zm18 621h132v-30L258 566h-74z"/><glyph unicode="â" horiz-adv-x="496" d="M54 471q40 18 95 28.5T264 510q52 0 87-12.5t55.5-35.5q20.5-23 29-55t8.5-72q0-44-3-88.5t-3.5-87.5q-.5-43 2.5-83.5T455-1H349l-21 69h-5q-20-31-55.5-53.5T176-8q-35 0-63 10.5t-48 30Q45 52 34 78.5T23 138q0 46 20.5 77.5t59 51q38.5 19.5 92 27T314 298q7 56-8 80.5T239 403q-39 0-82.5-8T85 374zM219 99q39 0 62 17.5t34 37.5v65q-31 3-59.5 1t-50.5-9q-22-7-35-20t-13-33q0-28 16.5-43.5T219 99zm-3 633h86l111-182H310l-39 66-17 49-17-49-45-66H93z"/><glyph unicode="ã" horiz-adv-x="496" d="M54 471q40 18 95 28.5T264 510q52 0 87-12.5t55.5-35.5q20.5-23 29-55t8.5-72q0-44-3-88.5t-3.5-87.5q-.5-43 2.5-83.5T455-1H349l-21 69h-5q-20-31-55.5-53.5T176-8q-35 0-63 10.5t-48 30Q45 52 34 78.5T23 138q0 46 20.5 77.5t59 51q38.5 19.5 92 27T314 298q7 56-8 80.5T239 403q-39 0-82.5-8T85 374zM219 99q39 0 62 17.5t34 37.5v65q-31 3-59.5 1t-50.5-9q-22-7-35-20t-13-33q0-28 16.5-43.5T219 99zM86 658q31 37 57.5 51t50.5 14q20 0 38.5-7t36.5-15q18-8 35-15t35-7q14 0 28.5 6t30.5 21l20-70q-29-32-53.5-44T317 580q-20 0-39 6.5T241 601q-18 8-36 14.5t-36 6.5q-15 0-31-6.5T105 593z"/><glyph unicode="ä" horiz-adv-x="496" d="M54 471q40 18 95 28.5T264 510q52 0 87-12.5t55.5-35.5q20.5-23 29-55t8.5-72q0-44-3-88.5t-3.5-87.5q-.5-43 2.5-83.5T455-1H349l-21 69h-5q-20-31-55.5-53.5T176-8q-35 0-63 10.5t-48 30Q45 52 34 78.5T23 138q0 46 20.5 77.5t59 51q38.5 19.5 92 27T314 298q7 56-8 80.5T239 403q-39 0-82.5-8T85 374zM219 99q39 0 62 17.5t34 37.5v65q-31 3-59.5 1t-50.5-9q-22-7-35-20t-13-33q0-28 16.5-43.5T219 99zM75 651q0 32 19.5 51t51.5 19q32 0 50.5-19t18.5-51q0-30-18.5-49T146 583q-32 0-51.5 19T75 651zm219 0q0 32 18.5 51t50.5 19q32 0 51.5-19t19.5-51q0-30-19.5-49T363 583q-32 0-50.5 19T294 651z"/><glyph unicode="å" horiz-adv-x="496" d="M54 471q40 18 95 28.5T264 510q52 0 87-12.5t55.5-35.5q20.5-23 29-55t8.5-72q0-44-3-88.5t-3.5-87.5q-.5-43 2.5-83.5T455-1H349l-21 69h-5q-20-31-55.5-53.5T176-8q-35 0-63 10.5t-48 30Q45 52 34 78.5T23 138q0 46 20.5 77.5t59 51q38.5 19.5 92 27T314 298q7 56-8 80.5T239 403q-39 0-82.5-8T85 374zM219 99q39 0 62 17.5t34 37.5v65q-31 3-59.5 1t-50.5-9q-22-7-35-20t-13-33q0-28 16.5-43.5T219 99zm-75 548q0 42 28.5 69t82.5 27q51 0 81-24.5t30-71.5q0-39-29.5-66.5T255 553q-53 0-82 25.5T144 647zm72 0q0-16 12-24.5t27-8.5q17 0 28 8t11 25q0 17-11.5 25.5T255 681q-15 0-27-8t-12-26z"/><glyph unicode="æ" horiz-adv-x="785" d="M219 99q39 0 62 17.5t34 37.5v65q-31 3-59.5 1t-50.5-9q-22-7-35-20t-13-33q0-28 16.5-43.5T219 99zm131-23q-27-34-66.5-59T176-8q-35 0-63 10.5t-48 30Q45 52 34 78.5T23 138q0 46 20.5 77.5t58.5 51q38 19.5 91.5 27T313 298q7 56-7.5 80.5T239 403q-39 0-79.5-10.5T88 367l-34 94q38 20 94 34.5T264 510q52 0 83-13.5t51-40.5q25 28 65 43t87 15q38 0 74-10t64-33q28-23 45-62t17-97q0-21-2.5-44.5T740 217H439q4-63 33.5-95T568 90q41 0 73.5 12.5T691 128l43-85q-30-24-81.5-40.5T543-14q-64 0-112.5 23.5T355 76zm198 334q-51 0-75.5-30.5T443 298h187q3 54-17 83t-65 29z"/><glyph unicode="ç" horiz-adv-x="433" d="M411 31q-23-17-52.5-27T296-11l-18-32q41-4 64.5-21.5T366-118q0-23-11.5-40T323-186.5Q303-198 276-204t-58-6q-31 0-64 6l9 48q7-1 13-1h11q38 0 49 9t11 21q0 28-86 32l50 84q-49 6-83 27.5t-55 55q-21 33.5-30.5 79T33 250q0 127 57 195.5T256 514q55 0 88.5-9t60.5-23l-31-106q-23 11-45.5 17t-51.5 6q-54 0-82-35.5T167 250q0-32 7-59t21-47q14-20 36.5-31.5T284 101q33 0 56 8.5t41 20.5z"/><glyph unicode="è" horiz-adv-x="508" d="M457 43q-30-24-81.5-40.5T266-14Q145-14 89 56.5T33 250q0 132 63 198t177 66q38 0 74-10t64-33q28-23 45-62t17-97q0-21-2.5-45t-7.5-50H163q3-63 32.5-95T291 90q41 0 73.5 12.5T414 128zM271 410q-51 0-75.5-30.5T166 298h186q4 54-16.5 83T271 410zm58 156h-72L133 690v30h136z"/><glyph unicode="é" horiz-adv-x="508" d="M457 43q-30-24-81.5-40.5T266-14Q145-14 89 56.5T33 250q0 132 63 198t177 66q38 0 74-10t64-33q28-23 45-62t17-97q0-21-2.5-45t-7.5-50H163q3-63 32.5-95T291 90q41 0 73.5 12.5T414 128zM271 410q-51 0-75.5-30.5T166 298h186q4 54-16.5 83T271 410zm3 310h132v-30L295 566h-74z"/><glyph unicode="ê" horiz-adv-x="508" d="M457 43q-30-24-81.5-40.5T266-14Q145-14 89 56.5T33 250q0 132 63 198t177 66q38 0 74-10t64-33q28-23 45-62t17-97q0-21-2.5-45t-7.5-50H163q3-63 32.5-95T291 90q41 0 73.5 12.5T414 128zM271 410q-51 0-75.5-30.5T166 298h186q4 54-16.5 83T271 410zm-50 322h86l111-182H315l-39 66-17 49-17-49-45-66H98z"/><glyph unicode="ë" horiz-adv-x="508" d="M457 43q-30-24-81.5-40.5T266-14Q145-14 89 56.5T33 250q0 132 63 198t177 66q38 0 74-10t64-33q28-23 45-62t17-97q0-21-2.5-45t-7.5-50H163q3-63 32.5-95T291 90q41 0 73.5 12.5T414 128zM271 410q-51 0-75.5-30.5T166 298h186q4 54-16.5 83T271 410zM82 651q0 32 19.5 51t51.5 19q32 0 50.5-19t18.5-51q0-30-18.5-49T153 583q-32 0-51.5 19T82 651zm219 0q0 32 18.5 51t50.5 19q32 0 51.5-19t19.5-51q0-30-19.5-49T370 583q-32 0-50.5 19T301 651z"/><glyph unicode="ì" horiz-adv-x="269" d="M70 500h130V0H70zm123 66h-72L-3 690v30h136z"/><glyph unicode="í" horiz-adv-x="269" d="M70 500h130V0H70zm54 220h132v-30L145 566H71z"/><glyph unicode="î" horiz-adv-x="269" d="M70 500h130V0H70zm22 232h86l111-182H186l-39 66-17 49-17-49-45-66h-99z"/><glyph unicode="ï" horiz-adv-x="269" d="M70 500h130V0H70zM-46 651q0 32 19.5 51T25 721q32 0 50.5-19T94 651q0-30-18.5-49T25 583q-32 0-51.5 19T-46 651zm219 0q0 32 18.5 51t50.5 19q32 0 51.5-19t19.5-51q0-30-19.5-49T242 583q-32 0-50.5 19T173 651z"/><glyph unicode="ð" horiz-adv-x="563" d="M163 243q0-72 33-109t88-37q52 0 85 44.5T402 280q0 13-1.5 34t-5.5 33q-16 23-48 32.5t-62 9.5q-60 0-91-41.5T163 243zm34 341l44 30q-34 15-69 21l52 80q25-7 57-20 23-9 47-22l53 36 42-55-33-23q12-9 23-20 32-30 57-73.5T510.5 436Q526 378 526 302q0-81-18.5-140.5T456 63q-33-39-79-58T276-14q-59 0-104 19T97 58.5q-30 34.5-45 82T37 245q0 54 17 100t47.5 80.5q30.5 34.5 73.5 54t94 19.5q38 0 70.5-10.5T392 458q-12 36-34 66-22 29-50 51l-68-46z"/><glyph unicode="ñ" horiz-adv-x="545" d="M363 0v284q0 61-17.5 88T286 399q-37 0-62.5-21.5T187 324V0H57v500h103l15-66h4q23 32 61 56t98 24q37 0 66-10t49-33q20-23 30-62.5t10-97.5V0zM107 658q31 37 57.5 51t50.5 14q20 0 38.5-7t36.5-15q18-8 35-15t35-7q14 0 28.5 6t30.5 21l20-70q-29-32-53.5-44T338 580q-20 0-39 6.5T262 601q-18 8-36 14.5t-36 6.5q-15 0-31-6.5T126 593z"/><glyph unicode="ò" horiz-adv-x="537" d="M33 250q0 127 62 195.5T269 514q60 0 104-19t73-53.5q29-34.5 43.5-83.5T504 250q0-127-61.5-195.5T269-14q-60 0-104 19T91.5 58.5Q62 93 47.5 142T33 250zm134 0q0-33 6-61t18-49q12-21 31.5-32.5T269 96q51 0 76 37t25 117q0 69-23 111.5T269 404q-48 0-75-36t-27-118zm164 316h-72L135 690v30h136z"/><glyph unicode="ó" horiz-adv-x="537" d="M33 250q0 127 62 195.5T269 514q60 0 104-19t73-53.5q29-34.5 43.5-83.5T504 250q0-127-61.5-195.5T269-14q-60 0-104 19T91.5 58.5Q62 93 47.5 142T33 250zm134 0q0-33 6-61t18-49q12-21 31.5-32.5T269 96q51 0 76 37t25 117q0 69-23 111.5T269 404q-48 0-75-36t-27-118zm108 470h132v-30L296 566h-74z"/><glyph unicode="ô" horiz-adv-x="537" d="M33 250q0 127 62 195.5T269 514q60 0 104-19t73-53.5q29-34.5 43.5-83.5T504 250q0-127-61.5-195.5T269-14q-60 0-104 19T91.5 58.5Q62 93 47.5 142T33 250zm134 0q0-33 6-61t18-49q12-21 31.5-32.5T269 96q51 0 76 37t25 117q0 69-23 111.5T269 404q-48 0-75-36t-27-118zm64 482h86l111-182H325l-39 66-17 49-17-49-45-66h-99z"/><glyph unicode="õ" horiz-adv-x="537" d="M33 250q0 127 62 195.5T269 514q60 0 104-19t73-53.5q29-34.5 43.5-83.5T504 250q0-127-61.5-195.5T269-14q-60 0-104 19T91.5 58.5Q62 93 47.5 142T33 250zm134 0q0-33 6-61t18-49q12-21 31.5-32.5T269 96q51 0 76 37t25 117q0 69-23 111.5T269 404q-48 0-75-36t-27-118zm-63 408q31 37 57.5 51t50.5 14q20 0 38.5-7t36.5-15q18-8 35-15t35-7q14 0 28.5 6t30.5 21l20-70q-29-32-53.5-44T335 580q-20 0-39 6.5T259 601q-18 8-36 14.5t-36 6.5q-15 0-31-6.5T123 593z"/><glyph unicode="ö" horiz-adv-x="537" d="M33 250q0 127 62 195.5T269 514q60 0 104-19t73-53.5q29-34.5 43.5-83.5T504 250q0-127-61.5-195.5T269-14q-60 0-104 19T91.5 58.5Q62 93 47.5 142T33 250zm134 0q0-33 6-61t18-49q12-21 31.5-32.5T269 96q51 0 76 37t25 117q0 69-23 111.5T269 404q-48 0-75-36t-27-118zM88 651q0 32 19.5 51t51.5 19q32 0 50.5-19t18.5-51q0-30-18.5-49T159 583q-32 0-51.5 19T88 651zm219 0q0 32 18.5 51t50.5 19q32 0 51.5-19t19.5-51q0-30-19.5-49T376 583q-32 0-50.5 19T307 651z"/><glyph unicode="÷" horiz-adv-x="527" d="M43 394h442V282H43zm141 138q0 35 22 55.5t58 20.5q38 0 60-20.5t22-55.5q0-35-22-56t-60-21q-36 0-58 21t-22 56zm0-387q0 35 22 55.5t58 20.5q38 0 60-20.5t22-55.5q0-35-22-56t-60-21q-36 0-58 21t-22 56z"/><glyph unicode="ø" horiz-adv-x="536" d="M33 250q0 127 61.5 195.5T268 514q32 0 59-5.5t50-16.5l24 34 80-59-27-38q25-34 37-79.5t12-99.5q0-127-61.5-195.5T268-14q-34 0-62.5 6.5T153 10l-25-34-83 60 31 43q-22 33-32.5 76.5T33 250zm336 0q0 37-8 71L212 114q22-18 56-18 51 0 76 37t25 117zm-202 0q0-35 6-65l147 204q-21 15-52 15-48 0-74.5-36T167 250z"/><glyph unicode="ù" horiz-adv-x="538" d="M182 500V216q0-61 14.5-88t56.5-27q37 0 61.5 22t36.5 54v323h130V152q0-41 4-80.5T497 0h-98l-23 74h-4q-23-38-64-63t-97-25q-38 0-68 10T93 29Q73 52 62.5 91T52 189v311zm136 66h-72L122 690v30h136z"/><glyph unicode="ú" horiz-adv-x="538" d="M182 500V216q0-61 14.5-88t56.5-27q37 0 61.5 22t36.5 54v323h130V152q0-41 4-80.5T497 0h-98l-23 74h-4q-23-38-64-63t-97-25q-38 0-68 10T93 29Q73 52 62.5 91T52 189v311zm79 220h132v-30L282 566h-74z"/><glyph unicode="û" horiz-adv-x="538" d="M182 500V216q0-61 14.5-88t56.5-27q37 0 61.5 22t36.5 54v323h130V152q0-41 4-80.5T497 0h-98l-23 74h-4q-23-38-64-63t-97-25q-38 0-68 10T93 29Q73 52 62.5 91T52 189v311zm50 232h86l111-182H326l-39 66-17 49-17-49-45-66h-99z"/><glyph unicode="ü" horiz-adv-x="538" d="M182 500V216q0-61 14.5-88t56.5-27q37 0 61.5 22t36.5 54v323h130V152q0-41 4-80.5T497 0h-98l-23 74h-4q-23-38-64-63t-97-25q-38 0-68 10T93 29Q73 52 62.5 91T52 189v311zM88 651q0 32 19.5 51t51.5 19q32 0 50.5-19t18.5-51q0-30-18.5-49T159 583q-32 0-51.5 19T88 651zm219 0q0 32 18.5 51t50.5 19q32 0 51.5-19t19.5-51q0-30-19.5-49T376 583q-32 0-50.5 19T307 651z"/><glyph unicode="ý" horiz-adv-x="478" d="M239 219l18-78h6l13 79 76 280h134L334 49Q315-7 297.5-53.5T259-134q-21-34-46.5-52.5T152-205q-52 0-83 17L93-84q15-6 30-6 23 0 44.5 19.5T200 0L-9 500h156zm15 501h132v-30L275 566h-74z"/><glyph unicode="þ" horiz-adv-x="540" d="M57 700h130V457h4q21 26 50.5 41.5T319 514q94 0 141-59.5T507 263q0-64-15-115.5T447.5 60q-29.5-36-72-55T278-14q-31 0-51 4.5T187 5v-205H57zm223-296q-36 0-58.5-19T187 328V120q14-11 30.5-17.5T261 96q56 0 84 39.5T373 266q0 66-22 102t-71 36z"/><glyph unicode="ÿ" horiz-adv-x="478" d="M239 219l18-78h6l13 79 76 280h134L334 49Q315-7 297.5-53.5T259-134q-21-34-46.5-52.5T152-205q-52 0-83 17L93-84q15-6 30-6 23 0 44.5 19.5T200 0L-9 500h156zM66 651q0 32 19.5 51t51.5 19q32 0 50.5-19t18.5-51q0-30-18.5-49T137 583q-32 0-51.5 19T66 651zm219 0q0 32 18.5 51t50.5 19q32 0 51.5-19t19.5-51q0-30-19.5-49T354 583q-32 0-50.5 19T285 651z"/><glyph unicode="Ā" horiz-adv-x="605" d="M405 155H190L137 0H0l252 705h101L605 0H461zM225 265h150l-52 156-21 110h-5l-21-111zm-96 591h343v-89H129z"/><glyph unicode="ā" horiz-adv-x="496" d="M54 471q40 18 95 28.5T264 510q52 0 87-12.5t55.5-35.5q20.5-23 29-55t8.5-72q0-44-3-88.5t-3.5-87.5q-.5-43 2.5-83.5T455-1H349l-21 69h-5q-20-31-55.5-53.5T176-8q-35 0-63 10.5t-48 30Q45 52 34 78.5T23 138q0 46 20.5 77.5t59 51q38.5 19.5 92 27T314 298q7 56-8 80.5T239 403q-39 0-82.5-8T85 374zM219 99q39 0 62 17.5t34 37.5v65q-31 3-59.5 1t-50.5-9q-22-7-35-20t-13-33q0-28 16.5-43.5T219 99zM91 658h323v-92H91z"/><glyph unicode="Ă" horiz-adv-x="605" d="M405 155H190L137 0H0l252 705h101L605 0H461zM225 265h150l-52 156-21 110h-5l-21-111zm-61 610q20-26 58-40t85-14q48 0 82.5 15t54.5 39l49-32q-12-29-32-50t-45-35q-25-14-53.5-21t-56.5-7q-27 0-55.5 6T196 754.5q-26 12.5-48 33T112 838z"/><glyph unicode="ă" horiz-adv-x="496" d="M54 471q40 18 95 28.5T264 510q52 0 87-12.5t55.5-35.5q20.5-23 29-55t8.5-72q0-44-3-88.5t-3.5-87.5q-.5-43 2.5-83.5T455-1H349l-21 69h-5q-20-31-55.5-53.5T176-8q-35 0-63 10.5t-48 30Q45 52 34 78.5T23 138q0 46 20.5 77.5t59 51q38.5 19.5 92 27T314 298q7 56-8 80.5T239 403q-39 0-82.5-8T85 374zM219 99q39 0 62 17.5t34 37.5v65q-31 3-59.5 1t-50.5-9q-22-7-35-20t-13-33q0-28 16.5-43.5T219 99zm-76 621q17-30 47.5-44.5T255 661q34 0 62.5 15t43.5 44l60-27q-3-24-16.5-47.5T369 604q-22-18-51.5-29T254 564q-66 0-113 33.5T80 688z"/><glyph unicode="Ą" horiz-adv-x="605" d="M405 155H190L137 0H0l252 705h101L605 0h-21q-58-22-58-73 0-26 22-38.5t62 7.5l19-62q-15-12-47.5-23.5T514-201q-56 0-85.5 25T399-110q0 38 23 65.5T486 0h-25zM225 265h150l-52 156-21 110h-5l-21-111z"/><glyph unicode="ą" horiz-adv-x="496" d="M54 466q38 21 89.5 32.5T264 510q52 0 87-12.5t55.5-35.5q20.5-23 29-55t8.5-72q0-44-3-88.5t-3.5-87.5q-.5-43 2.5-83.5T455-1h-23q-56-24-56-72 0-26 22-38.5t62 7.5l19-62q-15-12-47.5-23.5T364-201q-56 0-85.5 25T249-110q0 40 26.5 68.5T347 4l-19 64h-5q-20-31-55.5-53.5T176-8q-35 0-63 10.5t-48 30Q45 52 34 78.5T23 138q0 46 20.5 77.5t58.5 51q38 19.5 91.5 27T313 298q7 56-7.5 80.5T239 403q-39 0-79.5-8.5T88 372zM219 99q39 0 62 17.5t34 37.5v65q-31 3-59.5 1t-50.5-9q-22-7-35-20t-13-33q0-28 16.5-43.5T219 99z"/><glyph unicode="Ć" horiz-adv-x="559" d="M534 29Q502 6 452.5-4T351-14q-63 0-119.5 19.5t-99.5 63q-43 43.5-68.5 113T38 350q0 103 28.5 172.5t74 112Q186 677 242 695.5T354 714q60 0 101.5-8t68.5-19V571q-50 11-81.5 16t-76.5 5q-83 0-133.5-59T182 350q0-54 12-98.5t36.5-76q24.5-31.5 61-49T376 109q45 0 76 9t54 23zM376 870h159v-30l-160-88H272z"/><glyph unicode="ć" horiz-adv-x="433" d="M411 31Q381 9 338.5-2.5T251-14q-60 0-101.5 19T82 58.5Q56 93 44.5 142T33 250q0 127 57 195.5T256 514q55 0 88.5-9t60.5-23l-31-106q-23 11-45.5 17t-51.5 6q-54 0-82-35.5T167 250q0-32 7-59t21-47q14-20 36.5-31.5T284 101q33 0 56 8.5t41 20.5zM250 720h132v-30L271 566h-74z"/><glyph unicode="Ĉ" horiz-adv-x="559" d="M534 29Q502 6 452.5-4T351-14q-63 0-119.5 19.5t-99.5 63q-43 43.5-68.5 113T38 350q0 103 28.5 172.5t74 112Q186 677 242 695.5T354 714q60 0 101.5-8t68.5-19V571q-50 11-81.5 16t-76.5 5q-83 0-133.5-59T182 350q0-54 12-98.5t36.5-76q24.5-31.5 61-49T376 109q45 0 76 9t54 23zM288 870h96l127-93v-39h-99l-57 41-20 34-21-33-62-42h-97v40z"/><glyph unicode="ĉ" horiz-adv-x="433" d="M411 31Q381 9 338.5-2.5T251-14q-60 0-101.5 19T82 58.5Q56 93 44.5 142T33 250q0 127 57 195.5T256 514q55 0 88.5-9t60.5-23l-31-106q-23 11-45.5 17t-51.5 6q-54 0-82-35.5T167 250q0-32 7-59t21-47q14-20 36.5-31.5T284 101q33 0 56 8.5t41 20.5zM204 732h86l111-182H298l-39 66-17 49-17-49-45-66H81z"/><glyph unicode="Č" horiz-adv-x="559" d="M534 29Q502 6 452.5-4T351-14q-63 0-119.5 19.5t-99.5 63q-43 43.5-68.5 113T38 350q0 103 28.5 172.5t74 112Q186 677 242 695.5T354 714q60 0 101.5-8t68.5-19V571q-50 11-81.5 16t-76.5 5q-83 0-133.5-59T182 350q0-54 12-98.5t36.5-76q24.5-31.5 61-49T376 109q45 0 76 9t54 23zM386 737h-94l-127 94v39h105l53-45 19-30 21 29 56 46h100v-40z"/><glyph unicode="č" horiz-adv-x="433" d="M411 31Q381 9 338.5-2.5T251-14q-60 0-101.5 19T82 58.5Q56 93 44.5 142T33 250q0 127 57 195.5T256 514q55 0 88.5-9t60.5-23l-31-106q-23 11-45.5 17t-51.5 6q-54 0-82-35.5T167 250q0-32 7-59t21-47q14-20 36.5-31.5T284 101q33 0 56 8.5t41 20.5zM286 550h-91L80 732h110l39-66 16-49 18 49 45 66h101z"/><glyph unicode="Ď" horiz-adv-x="647" d="M60 700q21 3 47.5 5t54.5 3q28 1 54.5 1.5t47.5.5q93 0 159-26t107-73q41-47 60-112t19-143q0-71-18-137t-60-117q-42-51-110.5-82T251-11q-16 0-42.5 1t-55 2.5Q125-6 99-4.5T60-1zm215-112q-22 0-44.5-1t-33.5-3V115q4-1 13.5-1.5t20.5-1q11-.5 21-1t15-.5q58 0 96.5 20.5t61 54.5q22.5 34 31.5 78.5t9 91.5q0 41-8 82.5T427.5 513Q406 546 369 567t-94 21zm53 149h-94l-127 94v39h105l53-45 19-30 21 29 56 46h100v-40z"/><glyph unicode="ď" horiz-adv-x="639" d="M482 176q0-42 1-84t9-93h-93l-18 65h-4q-20-35-57.5-56.5T231-14q-94 0-146 62T33 242q0 128 58 199t170 71q31 0 51-3.5t40-11.5v203h130zM261 96q38 0 60 18.5t31 53.5v212q-14 11-31 16.5t-44 5.5q-55 0-82.5-37T167 238q0-64 22.5-103T261 96zm394 604q-2-29-12-60.5t-23.5-60Q606 551 591 528.5T564 496l-58 31q17 36 26 81.5t9 91.5z"/><glyph unicode="Đ" horiz-adv-x="669" d="M-6 401h88v299q21 3 47.5 5t54.5 3q28 1 54.5 1.5t47.5.5q93 0 159-26t107-73q41-47 60-112t19-143q0-71-18-137t-60-117q-42-51-110.5-82T273-11q-16 0-42.5 1t-55 2.5Q147-6 121-4.5T82-1v322H-6zm303 187q-22 0-44.5-1t-33.5-3V401h140v-80H219V114q4-1 13.5-1.5t20.5-1q11-.5 21-.5h15q58 0 96.5 20.5t61 54.5q22.5 34 31.5 78.5t9 91.5q0 41-8 82.5T449.5 513Q428 546 391 567t-94 21z"/><glyph unicode="đ" horiz-adv-x="550" d="M482 641h76v-80h-76V176q0-42 1-84t9-93h-93l-18 65h-4q-20-35-57.5-56.5T231-14q-94 0-146 62T33 242q0 128 58 199t170 71q31 0 51-3.5t40-11.5v64H204v80h148v59h130zM261 96q38 0 60 18.5t31 53.5v212q-14 11-31 16.5t-44 5.5q-55 0-82.5-37T167 238q0-64 22.5-103T261 96z"/><glyph unicode="Ē" horiz-adv-x="522" d="M60 700h415V578H197V415h253V293H197V122h283V0H60zm35 156h343v-89H95z"/><glyph unicode="ē" horiz-adv-x="508" d="M457 43q-30-24-81.5-40.5T266-14Q145-14 89 56.5T33 250q0 132 63 198t177 66q38 0 74-10t64-33q28-23 45-62t17-97q0-21-2.5-45t-7.5-50H163q3-63 32.5-95T291 90q41 0 73.5 12.5T414 128zM271 410q-51 0-75.5-30.5T166 298h186q4 54-16.5 83T271 410zM97 658h323v-92H97z"/><glyph unicode="Ė" horiz-adv-x="522" d="M60 700h415V578H197V415h253V293H197V122h283V0H60zm131 99q0 25 21.5 43t64.5 18q43 0 66-18t23-43q0-26-23-44t-66-18q-43 0-64.5 18T191 799z"/><glyph unicode="ė" horiz-adv-x="508" d="M457 43q-30-24-81.5-40.5T266-14Q145-14 89 56.5T33 250q0 132 63 198t177 66q38 0 74-10t64-33q28-23 45-62t17-97q0-21-2.5-45t-7.5-50H163q3-63 32.5-95T291 90q41 0 73.5 12.5T414 128zM271 410q-51 0-75.5-30.5T166 298h186q4 54-16.5 83T271 410zm-85 231q0 29 21.5 49.5T267 711q38 0 61.5-20.5T352 641q0-29-23.5-48.5T267 573q-38 0-59.5 19.5T186 641z"/><glyph unicode="Ę" horiz-adv-x="522" d="M60 700h415V578H197V415h253V293H197V122h283V0h-27q-58-22-58-73 0-18 11-30.5t31-12.5q18 0 42 12l19-62q-15-12-47.5-23.5T383-201q-56 0-85.5 25T268-110q0 38 23 65.5T355 0H60z"/><glyph unicode="ę" horiz-adv-x="508" d="M457 43q-25-20-66-35-48-31-48-76 0-13 6-23.5t16.5-16.5q10.5-6 26-5.5T427-103l19-62q-15-12-47-24t-67-12q-57 0-86.5 27.5T216-105q0 28 12 51t34 40Q144-13 89 56q-56 71-56 194 0 132 63 198t177 66q38 0 74-10t64-33q28-23 45-62t17-97q0-21-2.5-45t-7.5-50H163q3-63 32.5-95T291 90q41 0 73.5 12.5T414 128zM271 410q-51 0-75.5-30.5T166 298h186q4 54-16.5 83T271 410z"/><glyph unicode="Ě" horiz-adv-x="522" d="M60 700h415V578H197V415h253V293H197V122h283V0H60zm248 37h-94L87 831v39h105l53-45 19-30 21 29 56 46h100v-40z"/><glyph unicode="ě" horiz-adv-x="508" d="M457 43q-30-24-81.5-40.5T266-14Q145-14 89 56.5T33 250q0 132 63 198t177 66q38 0 74-10t64-33q28-23 45-62t17-97q0-21-2.5-45t-7.5-50H163q3-63 32.5-95T291 90q41 0 73.5 12.5T414 128zM271 410q-51 0-75.5-30.5T166 298h186q4 54-16.5 83T271 410zm33 140h-91L98 732h110l39-66 16-49 18 49 45 66h101z"/><glyph unicode="Ĝ" horiz-adv-x="609" d="M307 365h261V53Q526 18 467.5 2T352-14q-67 0-124.5 21T128 72.5Q86 117 62 186T38 350q0 99 28.5 168.5t75 113Q188 675 246 694.5T364 714q60 0 105.5-9t72.5-19l-28-115q-25 10-56 15.5t-79 5.5q-43 0-79-13t-62.5-42.5Q211 507 196.5 461T182 349q0-63 14-108.5t39-75q25-29.5 58.5-43.5t71.5-14q26 0 51 6.5t42 19.5v132l-151 16zm-4 505h96l127-93v-39h-99l-57 41-20 34-21-33-62-42h-97v40z"/><glyph unicode="ĝ" horiz-adv-x="536" d="M480 0q0-109-59-160.5T256-212q-72 0-113.5 10T80-181l27 103q23-9 53.5-18t75.5-9q68 0 92.5 29.5T353 7v32h-4Q314-8 225-8 128-8 80.5 52T33 240q0 134 64 203t186 69q64 0 114.5-9t82.5-21zM260 96q38 0 58.5 17t31.5 51v225q-31 13-77 13-50 0-78-37.5T167 245q0-73 24-111t69-38zm-22 636h86l111-182H332l-39 66-17 49-17-49-45-66h-99z"/><glyph unicode="Ğ" horiz-adv-x="609" d="M307 365h261V53Q526 18 467.5 2T352-14q-67 0-124.5 21T128 72.5Q86 117 62 186T38 350q0 99 28.5 168.5t75 113Q188 675 246 694.5T364 714q60 0 105.5-9t72.5-19l-28-115q-25 10-56 15.5t-79 5.5q-43 0-79-13t-62.5-42.5Q211 507 196.5 461T182 349q0-63 14-108.5t39-75q25-29.5 58.5-43.5t71.5-14q26 0 51 6.5t42 19.5v132l-151 16zM196 875q20-26 58-40t85-14q48 0 82.5 15t54.5 39l49-32q-12-29-32-50t-45-35q-25-14-53.5-21t-56.5-7q-27 0-55.5 6T228 754.5q-26 12.5-48 33T144 838z"/><glyph unicode="ğ" horiz-adv-x="536" d="M480 0q0-109-59-160.5T256-212q-72 0-113.5 10T80-181l27 103q23-9 53.5-18t75.5-9q68 0 92.5 29.5T353 7v32h-4Q314-8 225-8 128-8 80.5 52T33 240q0 134 64 203t186 69q64 0 114.5-9t82.5-21zM260 96q38 0 58.5 17t31.5 51v225q-31 13-77 13-50 0-78-37.5T167 245q0-73 24-111t69-38zM158 720q17-30 47.5-44.5T270 661q34 0 62.5 15t43.5 44l60-27q-3-24-16.5-47.5T384 604q-22-18-51.5-29T269 564q-66 0-113 33.5T95 688z"/><glyph unicode="Ģ" horiz-adv-x="609" d="M307 365h261V53Q526 18 467.5 2T352-14q-67 0-124.5 21T128 72.5Q86 117 62 186T38 350q0 99 28.5 168.5t75 113Q188 675 246 694.5T364 714q60 0 105.5-9t72.5-19l-28-115q-25 10-56 15.5t-79 5.5q-43 0-79-13t-62.5-42.5Q211 507 196.5 461T182 349q0-63 14-108.5t39-75q25-29.5 58.5-43.5t71.5-14q26 0 51 6.5t42 19.5v132l-151 16zm-29-470q0 29 19.5 46T346-42q35 0 57-23t22-65q0-33-11-58t-27-42.5q-16-17.5-34-28T322-273l-34 54q14 7 28 19.5t16 33.5q-20-1-37 14.5T278-105z"/><glyph unicode="ģ" horiz-adv-x="536" d="M480 0q0-109-59-160.5T256-212q-72 0-113.5 10T80-181l27 103q23-9 53.5-18t75.5-9q68 0 92.5 29.5T353 7v32h-4Q314-8 225-8 128-8 80.5 52T33 240q0 134 64 203t186 69q64 0 114.5-9t82.5-21zM260 96q38 0 58.5 17t31.5 51v225q-31 13-77 13-50 0-78-37.5T167 245q0-73 24-111t69-38zm99 518q0-29-19.5-46T291 551q-35 0-57 23t-22 65q0 33 11 58t27 42.5q16 17.5 34 28t31 14.5l34-54q-14-7-28-19.5T305 675q20 1 37-14.5t17-46.5z"/><glyph unicode="Ĥ" horiz-adv-x="651" d="M453 293H197V0H60v700h137V415h256v285h137V0H453zM278 870h96l127-93v-39h-99l-57 41-20 34-21-33-62-42h-97v40z"/><glyph unicode="ĥ" horiz-adv-x="545" d="M363 0v284q0 61-17 88t-62 27q-33 0-60.5-22.5T187 319V0H57v700h130V444h4q24 32 59 51t89 19q38 0 67-10t48.5-33q19.5-23 29-62.5T493 311V0zM87 870h96l127-93v-39h-99l-57 41-20 34-21-33-62-42h-97v40z"/><glyph unicode="Ħ" horiz-adv-x="683" d="M2 598h75v102h137V598h256v102h137V598h74v-82h-74V0H470v293H214V0H77v516H2zm468-183v101H214V415z"/><glyph unicode="ħ" horiz-adv-x="556" d="M-6 641h74v59h130v-59h161v-80H198V444h4q24 32 59 51t89 19q38 0 67-10t48.5-33q19.5-23 29-62.5T504 311V0H374v284q0 61-17 88t-62 27q-33 0-60.5-22.5T198 319V0H68v561H-6z"/><glyph unicode="Ī" horiz-adv-x="285" d="M74 700h137V0H74zM-26 856h343v-89H-26z"/><glyph unicode="ī" horiz-adv-x="269" d="M70 500h130V0H70zm-98 158h323v-92H-28z"/><glyph unicode="Į" horiz-adv-x="285" d="M74 700h137V0h-14q-23-12-36-30t-12-43q0-18 11-30.5t31-12.5q17 0 41 12l20-62q-15-12-47.5-24T137-202q-57 0-86 25.5T22-110q0 38 23 65.5T109 0H74z"/><glyph unicode="į" horiz-adv-x="270" d="M70 500h130V0h-13q-23-14-35-32t-12-41q1-18 12-30.5t31-12.5q17 0 41 12l19-62q-15-12-47-24t-67-12q-57 0-86.5 25.5T13-110q0 38 23 65.5T100 0H70zM51 641q0 29 21.5 49.5T132 711q38 0 61.5-20.5T217 641q0-29-23.5-48.5T132 573q-38 0-59.5 19.5T51 641z"/><glyph unicode="İ" horiz-adv-x="285" d="M74 700h137V0H74zm-18 99q0 25 21.5 43t64.5 18q43 0 66-18t23-43q0-26-23-44t-66-18q-43 0-64.5 18T56 799z"/><glyph unicode="ı" horiz-adv-x="269" d="M70 500h130V0H70z"/><glyph unicode="Ĵ" horiz-adv-x="334" d="M131 700h137V188q0-40-9-76t-29.5-63.5Q209 21 177 4.5T99-12q-29 0-63 6t-59 17L7 123q26-13 59-13 42 0 53.5 31t11.5 82zm22 170h96l127-93v-39h-99l-57 41-20 34-21-33-62-42H20v40z"/><glyph unicode="ĵ" horiz-adv-x="268" d="M69 500h130V-21q0-91-36-139T48-208q-30 0-64 7v109q4 0 7-.5t6-.5q45 0 58.5 29T69 16zm27 232h86l111-182H190l-39 66-17 49-17-49-45-66h-99z"/><glyph unicode="Ķ" horiz-adv-x="620" d="M233 299h-36V0H60v700h137V390l32 14 193 296h156L374 406l-54-38 56-39L609 0H440zm-12-404q0 29 19.5 46T289-42q35 0 57-23t22-65q0-33-11-58t-27-42.5q-16-17.5-34-28T265-273l-34 54q14 7 28 19.5t16 33.5q-20-1-37 14.5T221-105z"/><glyph unicode="ķ" horiz-adv-x="491" d="M222 207h-35V0H57v700h130V287l30 14 114 199h143L354 310l-51-38 55-39L493 0H344zm-43-312q0 29 19.5 46T247-42q35 0 57-23t22-65q0-33-11-58t-27-42.5q-16-17.5-34-28T223-273l-34 54q14 7 28 19.5t16 33.5q-20-1-37 14.5T179-105z"/><glyph unicode="Ĺ" horiz-adv-x="514" d="M503 0H60v700h137V122h306zM208 870h159v-30l-160-88H104z"/><glyph unicode="ĺ" horiz-adv-x="294" d="M191 168q0-35 9-51t29-16q12 0 23.5 2t28.5 9l14-102q-16-8-49-16t-68-8q-57 0-87 26.5T61 100v600h130zm-17 702h159v-30l-160-88H70z"/><glyph unicode="Ļ" horiz-adv-x="514" d="M503 0H60v700h137V122h306zM181-105q0 29 19.5 46T249-42q35 0 57-23t22-65q0-33-11-58t-27-42.5q-16-17.5-34-28T225-273l-34 54q14 7 28 19.5t16 33.5q-20-1-37 14.5T181-105z"/><glyph unicode="ļ" horiz-adv-x="294" d="M191 168q0-35 9-51t29-16q12 0 23.5 2t28.5 9l14-102q-16-8-49-16t-68-8q-57 0-87 26.5T61 100v600h130zM95-105q0 29 19.5 46T163-42q35 0 57-23t22-65q0-33-11-58t-27-42.5q-16-17.5-34-28T139-273l-34 54q14 7 28 19.5t16 33.5q-20-1-37 14.5T95-105z"/><glyph unicode="Ľ" horiz-adv-x="514" d="M503 0H60v700h137V122h306zm-40 700q-2-29-12-60.5t-23.5-60Q414 551 399 528.5T372 496l-58 31q17 36 26 81.5t9 91.5z"/><glyph unicode="ľ" horiz-adv-x="294" d="M191 168q0-35 9-51t29-16q12 0 23.5 2t28.5 9l14-102q-16-8-49-16t-68-8q-57 0-87 26.5T61 100v600h130zm175 532q-2-29-12-60.5t-23.5-60Q317 551 302 528.5T275 496l-58 31q17 36 26 81.5t9 91.5z"/><glyph unicode="Ł" horiz-adv-x="525" d="M3 318l68 45v337h137V455l100 67V397l-100-66V122h306V0H71v241L3 197z"/><glyph unicode="ł" horiz-adv-x="319" d="M6 307l79 53v340h130V447l96 64V386l-96-63V168q0-35 9-51t29-16q12 0 23.5 2t28.5 9l14-102q-16-8-49-16t-68-8q-57 0-87 26.5T85 100v138L6 186z"/><glyph unicode="Ń" horiz-adv-x="657" d="M234 365l-55 110h-5l16-110V0H60v705h100l265-373 53-107h5l-16 107v368h130V-5H497zm132 505h159v-30l-160-88H262z"/><glyph unicode="ń" horiz-adv-x="545" d="M363 0v284q0 61-17.5 88T286 399q-37 0-62.5-21.5T187 324V0H57v500h103l15-66h4q23 32 61 56t98 24q37 0 66-10t49-33q20-23 30-62.5t10-97.5V0zm-86 720h132v-30L298 566h-74z"/><glyph unicode="Ņ" horiz-adv-x="657" d="M234 365l-55 110h-5l16-110V0H60v705h100l265-373 53-107h5l-16 107v368h130V-5H497zm20-470q0 29 19.5 46T322-42q35 0 57-23t22-65q0-33-11-58t-27-42.5q-16-17.5-34-28T298-273l-34 54q14 7 28 19.5t16 33.5q-20-1-37 14.5T254-105z"/><glyph unicode="ņ" horiz-adv-x="545" d="M363 0v284q0 61-17.5 88T286 399q-37 0-62.5-21.5T187 324V0H57v500h103l15-66h4q23 32 61 56t98 24q37 0 66-10t49-33q20-23 30-62.5t10-97.5V0zM198-105q0 29 19.5 46T266-42q35 0 57-23t22-65q0-33-11-58t-27-42.5q-16-17.5-34-28T242-273l-34 54q14 7 28 19.5t16 33.5q-20-1-37 14.5T198-105z"/><glyph unicode="Ň" horiz-adv-x="657" d="M234 365l-55 110h-5l16-110V0H60v705h100l265-373 53-107h5l-16 107v368h130V-5H497zm143 372h-94l-127 94v39h105l53-45 19-30 21 29 56 46h100v-40z"/><glyph unicode="ň" horiz-adv-x="545" d="M363 0v284q0 61-17.5 88T286 399q-37 0-62.5-21.5T187 324V0H57v500h103l15-66h4q23 32 61 56t98 24q37 0 66-10t49-33q20-23 30-62.5t10-97.5V0zm-45 550h-91L112 732h110l39-66 16-49 18 49 45 66h101z"/><glyph unicode="Ō" horiz-adv-x="670" d="M38 350q0 175 77 269.5T335 714q75 0 131-26t93-74q37-48 55-115t18-149q0-175-77.5-269.5T335-14q-76 0-132 26t-92.5 74Q74 134 56 201T38 350zm144 0q0-53 9-97.5t27.5-76.5q18.5-32 47.5-50t69-18q73 0 113 57t40 185q0 51-8.5 95T453 522q-18 33-47 51.5T335 592q-73 0-113-58.5T182 350zm-15 506h343v-89H167z"/><glyph unicode="ō" horiz-adv-x="537" d="M33 250q0 127 62 195.5T269 514q60 0 104-19t73-53.5q29-34.5 43.5-83.5T504 250q0-127-61.5-195.5T269-14q-60 0-104 19T91.5 58.5Q62 93 47.5 142T33 250zm134 0q0-33 6-61t18-49q12-21 31.5-32.5T269 96q51 0 76 37t25 117q0 69-23 111.5T269 404q-48 0-75-36t-27-118zm-60 408h323v-92H107z"/><glyph unicode="Ő" horiz-adv-x="670" d="M38 350q0 175 77 269.5T335 714q75 0 131-26t93-74q37-48 55-115t18-149q0-175-77.5-269.5T335-14q-76 0-132 26t-92.5 74Q74 134 56 201T38 350zm144 0q0-53 9-97.5t27.5-76.5q18.5-32 47.5-50t69-18q73 0 113 57t40 185q0 51-8.5 95T453 522q-18 33-47 51.5T335 592q-73 0-113-58.5T182 350zm68 500h134v-16l-100-93h-93zm198 0h140v-16l-143-93h-94z"/><glyph unicode="ő" horiz-adv-x="537" d="M33 250q0 127 62 195.5T269 514q60 0 104-19t73-53.5q29-34.5 43.5-83.5T504 250q0-127-61.5-195.5T269-14q-60 0-104 19T91.5 58.5Q62 93 47.5 142T33 250zm134 0q0-33 6-61t18-49q12-21 31.5-32.5T269 96q51 0 76 37t25 117q0 69-23 111.5T269 404q-48 0-75-36t-27-118zm13 450h119v-16l-76-113h-78zm178 0h126v-16L366 571h-81z"/><glyph unicode="Œ" horiz-adv-x="915" d="M453 567q-21 11-51 18t-67 7q-73 0-113-58.5T182 350q0-53 9-97.5t28.5-76.5q19.5-32 49.5-50t73-18q29 0 55.5 3.5T453 127zm0-567q-19-7-52.5-10.5T335-14q-76 0-132 26t-92.5 74Q74 134 56 201T38 350q0 175 77 269.5T335 714q39 0 67.5-4.5T453 700h415V578H590V415h253V293H590V122h283V0z"/><glyph unicode="œ" horiz-adv-x="841" d="M167 250q0-33 6-61t18-49q12-21 31.5-32.5T269 96q51 0 76 37t25 117q0 69-23 111.5T269 404q-48 0-75-36t-27-118zM431 60q-25-33-64.5-53.5T269-14q-60 0-104 19T91.5 58.5Q62 93 47.5 142T33 250q0 127 62 195.5T269 514q66 0 106-22.5t63-49.5q23 29 63.5 50.5T606 514q38 0 74-10t64-33q28-23 45-62t17-97q0-21-2.5-45t-7.5-50H495q3-63 33-95t96-32q41 0 73.5 12.5T747 128l43-85q-30-24-81.5-40.5T599-14q-111 0-168 74zm173 350q-51 0-75.5-30.5T499 298h186q0 4 .5 8t.5 8q0 46-20.5 71T604 410z"/><glyph unicode="Ŕ" horiz-adv-x="602" d="M60 693q23 4 49.5 7.5t53 5.5q26.5 2 51.5 3t46 1q49 0 96.5-9t85-31q37.5-22 60-60.5T524 513q0-86-40-140t-107-75l49-31L586 0H428L269 274l-72 13V0H60zm210-105q-21 0-41.5-1t-31.5-4V380h58q57 0 91 26t34 86q0 45-28 70.5T270 588zm22 282h159v-30l-160-88H188z"/><glyph unicode="ŕ" horiz-adv-x="351" d="M333 378q-31 11-56 11-35 0-58.5-18.5T187 323V0H57v500h101l15-66h4q17 37 46 57t68 20q26 0 59-11zM172 720h132v-30L193 566h-74z"/><glyph unicode="Ŗ" horiz-adv-x="602" d="M60 693q23 4 49.5 7.5t53 5.5q26.5 2 51.5 3t46 1q49 0 96.5-9t85-31q37.5-22 60-60.5T524 513q0-86-40-140t-107-75l49-31L586 0H428L269 274l-72 13V0H60zm210-105q-21 0-41.5-1t-31.5-4V380h58q57 0 91 26t34 86q0 45-28 70.5T270 588zm-42-693q0 29 19.5 46T296-42q35 0 57-23t22-65q0-33-11-58t-27-42.5q-16-17.5-34-28T272-273l-34 54q14 7 28 19.5t16 33.5q-20-1-37 14.5T228-105z"/><glyph unicode="ŗ" horiz-adv-x="351" d="M333 378q-31 11-56 11-35 0-58.5-18.5T187 323V0H57v500h101l15-66h4q17 37 46 57t68 20q26 0 59-11zM85-105q0 29 19.5 46T153-42q35 0 57-23t22-65q0-33-11-58t-27-42.5q-16-17.5-34-28T129-273l-34 54q14 7 28 19.5t16 33.5q-20-1-37 14.5T85-105z"/><glyph unicode="Ř" horiz-adv-x="602" d="M60 693q23 4 49.5 7.5t53 5.5q26.5 2 51.5 3t46 1q49 0 96.5-9t85-31q37.5-22 60-60.5T524 513q0-86-40-140t-107-75l49-31L586 0H428L269 274l-72 13V0H60zm210-105q-21 0-41.5-1t-31.5-4V380h58q57 0 91 26t34 86q0 45-28 70.5T270 588zm33 149h-94L82 831v39h105l53-45 19-30 21 29 56 46h100v-40z"/><glyph unicode="ř" horiz-adv-x="351" d="M333 378q-31 11-56 11-35 0-58.5-18.5T187 323V0H57v500h101l15-66h4q17 37 46 57t68 20q26 0 59-11zm-95 172h-91L32 732h110l39-66 16-49 18 49 45 66h101z"/><glyph unicode="Ś" horiz-adv-x="530" d="M362 188q0 32-23.5 52t-59 36.5q-35.5 16.5-77 34t-77 43Q90 379 66.5 417T43 514q0 51 17 88.5t48.5 62.5q31.5 25 74.5 37t96 12q61 0 115-10.5t89-30.5l-43-115q-22 14-66 25.5T279 595q-48 0-73.5-19T180 525q0-30 23.5-50t59-37q35.5-17 77-35t77-43.5q35.5-25.5 59-63T499 203q0-56-18.5-96.5t-52-67.5q-33.5-27-81-40T243-14q-75 0-132 14T27 28l44 117q11-6 28.5-13t39.5-13q22-6 46.5-10t50.5-4q61 0 93.5 20.5T362 188zm-60 682h159v-30l-160-88H198z"/><glyph unicode="ś" horiz-adv-x="422" d="M264 138q0 20-17 32t-42 22q-25 10-55 20.5t-55 29q-25 18.5-42 47T36 362q0 74 44 113t127 39q57 0 103-12t72-27l-29-94q-23 9-58 19t-71 10q-58 0-58-45 0-18 17-29t42-20.5q25-9.5 55-20.5t55-28.5q25-17.5 42-45.5t17-72q0-76-48.5-119.5T200-14q-53 0-99.5 13.5T25 31l36 97q23-13 61-25.5T200 90q29 0 46.5 11t17.5 37zm-56 582h132v-30L229 566h-74z"/><glyph unicode="Ŝ" horiz-adv-x="530" d="M362 188q0 32-23.5 52t-59 36.5q-35.5 16.5-77 34t-77 43Q90 379 66.5 417T43 514q0 51 17 88.5t48.5 62.5q31.5 25 74.5 37t96 12q61 0 115-10.5t89-30.5l-43-115q-22 14-66 25.5T279 595q-48 0-73.5-19T180 525q0-30 23.5-50t59-37q35.5-17 77-35t77-43.5q35.5-25.5 59-63T499 203q0-56-18.5-96.5t-52-67.5q-33.5-27-81-40T243-14q-75 0-132 14T27 28l44 117q11-6 28.5-13t39.5-13q22-6 46.5-10t50.5-4q61 0 93.5 20.5T362 188zM230 870h96l127-93v-39h-99l-57 41-20 34-21-33-62-42H97v40z"/><glyph unicode="ŝ" horiz-adv-x="422" d="M264 138q0 20-17 32t-42 22q-25 10-55 20.5t-55 29q-25 18.5-42 47T36 362q0 74 44 113t127 39q57 0 103-12t72-27l-29-94q-23 9-58 19t-71 10q-58 0-58-45 0-18 17-29t42-20.5q25-9.5 55-20.5t55-28.5q25-17.5 42-45.5t17-72q0-76-48.5-119.5T200-14q-53 0-99.5 13.5T25 31l36 97q23-13 61-25.5T200 90q29 0 46.5 11t17.5 37zm-88 594h86l111-182H270l-39 66-17 49-17-49-45-66H53z"/><glyph unicode="Ş" horiz-adv-x="530" d="M362 188q0 32-23.5 52t-59 36.5q-35.5 16.5-77 34t-77 43Q90 379 66.5 417T43 514q0 51 17 88.5t48.5 62.5q31.5 25 74.5 37t96 12q61 0 115-10.5t89-30.5l-43-115q-22 14-66 25.5T279 595q-48 0-73.5-19T180 525q0-30 23.5-50t59-37q35.5-17 77-35t77-43.5q35.5-25.5 59-63T499 203q0-95-51.5-147T308-9l-18-34q41-4 64.5-21.5T378-118q0-23-11.5-40T335-186.5Q315-198 288-204t-58-6q-31 0-64 6l9 48q7-1 13-1h11q38 0 49 9t11 21q0 28-86 32l48 81q-68 2-118.5 15T27 28l44 117q11-6 28.5-13t39.5-13q22-6 46.5-10t50.5-4q61 0 93.5 20.5T362 188z"/><glyph unicode="ş" horiz-adv-x="422" d="M264 138q0 20-17 32t-42 22q-25 10-55 20.5t-55 29q-25 18.5-42 47T36 362q0 74 44 113t127 39q57 0 103-12t72-27l-29-94q-23 9-58 19t-71 10q-58 0-58-45 0-18 17-29t42-20.5q25-9.5 55-20.5t55-28.5q25-17.5 42-45.5t17-72q0-64-35-105.5T255-9l-18-34q41-4 64.5-21.5T325-118q0-23-11.5-40T282-186.5Q262-198 235-204t-58-6q-31 0-64 6l9 48q7-1 13-1h11q38 0 49 9t11 21q0 28-86 32l49 83Q125-8 87 3.5T25 31l36 97q23-13 61-25.5T200 90q29 0 46.5 11t17.5 37z"/><glyph unicode="Š" horiz-adv-x="530" d="M362 188q0 32-23.5 52t-59 36.5q-35.5 16.5-77 34t-77 43Q90 379 66.5 417T43 514q0 51 17 88.5t48.5 62.5q31.5 25 74.5 37t96 12q61 0 115-10.5t89-30.5l-43-115q-22 14-66 25.5T279 595q-48 0-73.5-19T180 525q0-30 23.5-50t59-37q35.5-17 77-35t77-43.5q35.5-25.5 59-63T499 203q0-56-18.5-96.5t-52-67.5q-33.5-27-81-40T243-14q-75 0-132 14T27 28l44 117q11-6 28.5-13t39.5-13q22-6 46.5-10t50.5-4q61 0 93.5 20.5T362 188zm-34 549h-94l-127 94v39h105l53-45 19-30 21 29 56 46h100v-40z"/><glyph unicode="š" horiz-adv-x="422" d="M264 138q0 20-17 32t-42 22q-25 10-55 20.5t-55 29q-25 18.5-42 47T36 362q0 74 44 113t127 39q57 0 103-12t72-27l-29-94q-23 9-58 19t-71 10q-58 0-58-45 0-18 17-29t42-20.5q25-9.5 55-20.5t55-28.5q25-17.5 42-45.5t17-72q0-76-48.5-119.5T200-14q-53 0-99.5 13.5T25 31l36 97q23-13 61-25.5T200 90q29 0 46.5 11t17.5 37zm-12 412h-91L46 732h110l39-66 16-49 18 49 45 66h101z"/><glyph unicode="Ţ" horiz-adv-x="568" d="M216 0v578H11v122h546V578H353V0h-27l-24-43q41-4 64.5-21.5T390-118q0-23-11.5-40T347-186.5Q327-198 300-204t-58-6q-31 0-64 6l9 48q7-1 13-1h11q38 0 49 9t11 21q0 28-86 32l57 95z"/><glyph unicode="ţ" horiz-adv-x="349" d="M5 500h69v94l130 37V500h122V390H204V198q0-52 10.5-75t39.5-23q20 0 34.5 4t32.5 12l23-99q-19-9-41-15T255-9l-18-34q41-4 64.5-21.5T325-118q0-23-11.5-40T282-186.5Q262-198 235-204t-58-6q-31 0-64 6l9 48q7-1 13-1h11q38 0 49 9t11 21q0 28-86 32l50 84q-49 9-72.5 44.5T74 138v252H5z"/><glyph unicode="Ť" horiz-adv-x="568" d="M557 578H353V0H216v578H11v122h546zM327 737h-94l-127 94v39h105l53-45 19-30 21 29 56 46h100v-40z"/><glyph unicode="ť" horiz-adv-x="360" d="M5 500h69v94l130 37V500h122V390H204V198q0-52 10.5-74.5T254 101q20 0 34.5 4t32.5 12l23-100Q317 4 281-5t-73-9q-69 0-101.5 35.5T74 138v252H5zm370 223q-2-29-12-60.5t-23.5-60Q326 574 311 551.5T284 519l-58 31q17 36 26 81.5t9 91.5z"/><glyph unicode="Ū" horiz-adv-x="627" d="M440 700h130V248q0-68-18-117t-50-81q-32-32-78-47T323-12Q57-12 57 231v469h137V258q0-41 7.5-69.5t23.5-46q16-17.5 40-25t56-7.5q63 0 91 35t28 113zM145 856h343v-89H145z"/><glyph unicode="ū" horiz-adv-x="538" d="M182 500V216q0-61 14.5-88t56.5-27q37 0 61.5 22t36.5 54v323h130V152q0-41 4-80.5T497 0h-98l-23 74h-4q-23-38-64-63t-97-25q-38 0-68 10T93 29Q73 52 62.5 91T52 189v311zm-76 158h323v-92H106z"/><glyph unicode="Ŭ" horiz-adv-x="627" d="M440 700h130V248q0-68-18-117t-50-81q-32-32-78-47T323-12Q57-12 57 231v469h137V258q0-41 7.5-69.5t23.5-46q16-17.5 40-25t56-7.5q63 0 91 35t28 113zM173 875q20-26 58-40t85-14q48 0 82.5 15t54.5 39l49-32q-12-29-32-50t-45-35q-25-14-53.5-21t-56.5-7q-27 0-55.5 6T205 754.5q-26 12.5-48 33T121 838z"/><glyph unicode="ŭ" horiz-adv-x="538" d="M182 500V216q0-61 14.5-88t56.5-27q37 0 61.5 22t36.5 54v323h130V152q0-41 4-80.5T497 0h-98l-23 74h-4q-23-38-64-63t-97-25q-38 0-68 10T93 29Q73 52 62.5 91T52 189v311zm-23 220q17-30 47.5-44.5T271 661q34 0 62.5 15t43.5 44l60-27q-3-24-16.5-47.5T385 604q-22-18-51.5-29T270 564q-66 0-113 33.5T96 688z"/><glyph unicode="Ů" horiz-adv-x="627" d="M440 700h130V248q0-68-18-117t-50-81q-32-32-78-47T323-12Q57-12 57 231v469h137V258q0-41 7.5-69.5t23.5-46q16-17.5 40-25t56-7.5q63 0 91 35t28 113zm-248 72q0 18 6 34.5t20.5 29q14.5 12.5 39 19.5t62.5 7q70 0 99-24t29-66q0-18-6.5-34T420 710.5Q405 699 380.5 692t-60.5-7q-71 0-99.5 24.5T192 772zm84 0q0-31 44-31 25 0 35 8t10 23q0 17-10.5 25t-34.5 8q-44 0-44-33z"/><glyph unicode="ů" horiz-adv-x="538" d="M182 500V216q0-61 14.5-88t56.5-27q37 0 61.5 22t36.5 54v323h130V152q0-41 4-80.5T497 0h-98l-23 74h-4q-23-38-64-63t-97-25q-38 0-68 10T93 29Q73 52 62.5 91T52 189v311zm-27 147q0 42 28.5 69t82.5 27q51 0 81-24.5t30-71.5q0-39-29.5-66.5T266 553q-53 0-82 25.5T155 647zm72 0q0-16 12-24.5t27-8.5q17 0 28 8t11 25q0 17-11.5 25.5T266 681q-15 0-27-8t-12-26z"/><glyph unicode="Ű" horiz-adv-x="627" d="M440 700h130V248q0-68-18-117t-50-81q-32-32-78-47T323-12Q57-12 57 231v469h137V258q0-41 7.5-69.5t23.5-46q16-17.5 40-25t56-7.5q63 0 91 35t28 113zM225 850h134v-16l-100-93h-93zm198 0h140v-16l-143-93h-94z"/><glyph unicode="ű" horiz-adv-x="538" d="M182 500V216q0-61 14.5-88t56.5-27q37 0 61.5 22t36.5 54v323h130V152q0-41 4-80.5T497 0h-98l-23 74h-4q-23-38-64-63t-97-25q-38 0-68 10T93 29Q73 52 62.5 91T52 189v311zm-16 200h119v-16l-76-113h-78zm178 0h126v-16L352 571h-81z"/><glyph unicode="Ų" horiz-adv-x="627" d="M440 700h130V248q0-68-18-117t-50-81q-30-30-73-45-45-31-45-73 0-13 5.5-23.5T406-108q11-6 26.5-5.5T468-103l19-62q-15-12-47.5-24T372-201q-56 0-85.5 27.5T257-105q0 55 53 93Q57-6 57 231v469h137V258q0-41 7.5-69.5t23.5-46q16-17.5 40-25t56-7.5q63 0 91 35t28 113z"/><glyph unicode="ų" horiz-adv-x="538" d="M182 500V216q0-61 14.5-88t56.5-27q37 0 61.5 22t36.5 54v323h130V152q0-41 4-80.5T497 0h-18q-29-10-42.5-28.5T423-72q1-26 22.5-38.5T507-103l19-62q-15-12-47-24t-67-12q-57 0-86.5 25.5T296-109q0 41 27 70t74 45l-21 68h-4q-23-38-64-63t-97-25q-38 0-68 10T93 29Q73 52 62.5 91T52 189v311z"/><glyph unicode="Ÿ" horiz-adv-x="592" d="M228 260L-2 700h163l128-263 14-74h5l15 76 124 261h147L365 261V0H228zM116 798q0 26 18 42t58 16q39 0 57-16t18-42q0-26-18-41.5T192 741q-40 0-58 15.5T116 798zm214 0q0 26 18 42t57 16q40 0 58-16t18-42q0-26-18-41.5T405 741q-39 0-57 15.5T330 798z"/><glyph unicode="Ź" horiz-adv-x="539" d="M27 122l296 414 52 42H27v122h485V578L214 160l-51-38h349V0H27zm271 748h159v-30l-160-88H194z"/><glyph unicode="ź" horiz-adv-x="458" d="M31 110l197 237 51 43H31v110h392V390L228 149l-50-39h245V0H31zm191 610h132v-30L243 566h-74z"/><glyph unicode="Ż" horiz-adv-x="539" d="M27 122l296 414 52 42H27v122h485V578L214 160l-51-38h349V0H27zm159 677q0 25 21.5 43t64.5 18q43 0 66-18t23-43q0-26-23-44t-66-18q-43 0-64.5 18T186 799z"/><glyph unicode="ż" horiz-adv-x="458" d="M31 110l197 237 51 43H31v110h392V390L228 149l-50-39h245V0H31zm120 531q0 29 21.5 49.5T232 711q38 0 61.5-20.5T317 641q0-29-23.5-48.5T232 573q-38 0-59.5 19.5T151 641z"/><glyph unicode="Ž" horiz-adv-x="539" d="M27 122l296 414 52 42H27v122h485V578L214 160l-51-38h349V0H27zm282 615h-94L88 831v39h105l53-45 19-30 21 29 56 46h100v-40z"/><glyph unicode="ž" horiz-adv-x="458" d="M31 110l197 237 51 43H31v110h392V390L228 149l-50-39h245V0H31zm238 440h-91L63 732h110l39-66 16-49 18 49 45 66h101z"/><glyph unicode="ſ" horiz-adv-x="249" d="M12 500h69v28q0 95 40 137.5T237 708q45 0 76-6.5t58-17.5l-26-101q-23 8-40 11.5t-37 3.5q-20 0-31.5-6t-17-18.5q-5.5-12.5-7-31T211 500V0H81v390H12z"/><glyph unicode="ƒ" horiz-adv-x="567" d="M342 390L271-34q-6-37-17.5-68.5t-32-55q-20.5-23.5-51-37T96-208q-14 0-34.5 2T20-201q-21 3-40.5 7.5T-52-184l21 105q23-10 44-14.5T62-98q36 0 56 24.5T147 8l61 382h-78v110h96l11 67q6 37 16.5 64.5t29 46Q301 696 330 705t72 9q16 0 36.5-2.5t41.5-7q21-4.5 41-10t35-12.5l-32-97q-49 19-95 19-32 0-44.5-15.5T366 533l-5-33h119V390z"/><glyph unicode="Ǵ" horiz-adv-x="609" d="M307 365h261V53Q526 18 467.5 2T352-14q-67 0-124.5 21T128 72.5Q86 117 62 186T38 350q0 99 28.5 168.5t75 113Q188 675 246 694.5T364 714q60 0 105.5-9t72.5-19l-28-115q-25 10-56 15.5t-79 5.5q-43 0-79-13t-62.5-42.5Q211 507 196.5 461T182 349q0-63 14-108.5t39-75q25-29.5 58.5-43.5t71.5-14q26 0 51 6.5t42 19.5v132l-151 16zm84 505h159v-30l-160-88H287z"/><glyph unicode="ǵ" horiz-adv-x="536" d="M480 0q0-109-59-160.5T256-212q-72 0-113.5 10T80-181l27 103q23-9 53.5-18t75.5-9q68 0 92.5 29.5T353 7v32h-4Q314-8 225-8 128-8 80.5 52T33 240q0 134 64 203t186 69q64 0 114.5-9t82.5-21zM260 96q38 0 58.5 17t31.5 51v225q-31 13-77 13-50 0-78-37.5T167 245q0-73 24-111t69-38zm18 624h132v-30L299 566h-74z"/><glyph unicode="Ș" horiz-adv-x="530" d="M362 188q0 32-23.5 52t-59 36.5q-35.5 16.5-77 34t-77 43Q90 379 66.5 417T43 514q0 51 17 88.5t48.5 62.5q31.5 25 74.5 37t96 12q61 0 115-10.5t89-30.5l-43-115q-22 14-66 25.5T279 595q-48 0-73.5-19T180 525q0-30 23.5-50t59-37q35.5-17 77-35t77-43.5q35.5-25.5 59-63T499 203q0-56-18.5-96.5t-52-67.5q-33.5-27-81-40T243-14q-75 0-132 14T27 28l44 117q11-6 28.5-13t39.5-13q22-6 46.5-10t50.5-4q61 0 93.5 20.5T362 188zM185-105q0 29 19.5 46T253-42q35 0 57-23t22-65q0-33-11-58t-27-42.5q-16-17.5-34-28T229-273l-34 54q14 7 28 19.5t16 33.5q-20-1-37 14.5T185-105z"/><glyph unicode="ș" horiz-adv-x="422" d="M264 138q0 20-17 32t-42 22q-25 10-55 20.5t-55 29q-25 18.5-42 47T36 362q0 74 44 113t127 39q57 0 103-12t72-27l-29-94q-23 9-58 19t-71 10q-58 0-58-45 0-18 17-29t42-20.5q25-9.5 55-20.5t55-28.5q25-17.5 42-45.5t17-72q0-76-48.5-119.5T200-14q-53 0-99.5 13.5T25 31l36 97q23-13 61-25.5T200 90q29 0 46.5 11t17.5 37zM141-105q0 29 19.5 46T209-42q35 0 57-23t22-65q0-33-11-58t-27-42.5q-16-17.5-34-28T185-273l-34 54q14 7 28 19.5t16 33.5q-20-1-37 14.5T141-105z"/><glyph unicode="Ț" horiz-adv-x="568" d="M557 578H353V0H216v578H11v122h546zM205-105q0 29 19.5 46T273-42q35 0 57-23t22-65q0-33-11-58t-27-42.5q-16-17.5-34-28T249-273l-34 54q14 7 28 19.5t16 33.5q-20-1-37 14.5T205-105z"/><glyph unicode="ț" horiz-adv-x="349" d="M5 500h69v94l130 37V500h122V390H204V198q0-52 10.5-74.5T254 101q20 0 34.5 4t32.5 12l23-100Q317 4 281-5t-73-9q-69 0-101.5 35.5T74 138v252H5zm104-605q0 29 19.5 46T177-42q35 0 57-23t22-65q0-33-11-58t-27-42.5q-16-17.5-34-28T153-273l-34 54q14 7 28 19.5t16 33.5q-20-1-37 14.5T109-105z"/><glyph unicode="ȷ" horiz-adv-x="268" d="M69 500h130V-21q0-91-36-139T48-208q-30 0-64 7v109q4 0 7-.5t6-.5q45 0 58.5 29T69 16z"/><glyph unicode="ʼ" horiz-adv-x="223" d="M38 643q0 29 19.5 47t49.5 18q36 0 57-24t21-63q0-40-12.5-68t-30-46.5Q125 488 105.5 478T73 463l-33 55q20 9 35.5 23.5T93 579q-20-1-37.5 15.5T38 643z"/><glyph unicode="ˆ" horiz-adv-x="440" d="M183 732h86l111-182H277l-39 66-17 49-17-49-45-66H60z"/><glyph unicode="ˇ" horiz-adv-x="449" d="M266 550h-91L60 732h110l39-66 16-49 18 49 45 66h101z"/><glyph unicode="˘" horiz-adv-x="461" d="M123 720q17-30 47.5-44.5T235 661q34 0 62.5 15t43.5 44l60-27q-3-24-16.5-47.5T349 604q-22-18-51.5-29T234 564q-66 0-113 33.5T60 688z"/><glyph unicode="˙" horiz-adv-x="286" d="M60 641q0 29 21.5 49.5T141 711q38 0 61.5-20.5T226 641q0-29-23.5-48.5T141 573q-38 0-59.5 19.5T60 641z"/><glyph unicode="˚" horiz-adv-x="342" d="M60 647q0 42 28.5 69t82.5 27q51 0 81-24.5t30-71.5q0-39-29.5-66.5T171 553q-53 0-82 25.5T60 647zm72 0q0-16 12-24.5t27-8.5q17 0 28 8t11 25q0 17-11.5 25.5T171 681q-15 0-27-8t-12-26z"/><glyph unicode="˛" horiz-adv-x="350" d="M263 10q-76-22-76-79 0-18 11-30.5t31-12.5q18 0 42 12l19-62q-15-12-47.5-23.5T175-197q-56 0-85.5 25T60-106q0 41 27.5 70T163 10z"/><glyph unicode="˜" horiz-adv-x="452" d="M60 658q31 37 57.5 51t50.5 14q20 0 38.5-7t36.5-15q18-8 35-15t35-7q14 0 28.5 6t30.5 21l20-70q-29-32-53.5-44T291 580q-20 0-39 6.5T215 601q-18 8-36 14.5t-36 6.5q-15 0-31-6.5T79 593z"/><glyph unicode="˝" horiz-adv-x="459" d="M95 700h119v-16l-76-113H60zm178 0h126v-16L281 571h-81z"/><glyph unicode="́" horiz-adv-x="0" d="M-253 720h132v-30l-111-124h-74z"/><glyph unicode="Δ" horiz-adv-x="585" d="M12 0v71l241 634h79L575 71V0zm146 116h270L316 414l-23 100h-5l-24-101z"/><glyph unicode="Ω" horiz-adv-x="778" d="M58 110h105l85-13v28l-46 9q-30 14-56 37t-45.5 56Q81 260 70 302.5T59 397q0 73 23.5 131.5t67 99.5Q193 669 254 691.5T389 714q78 0 139.5-23.5T632 625q42-42 64.5-101T719 393q0-52-12-93.5T675.5 226q-19.5-32-45-54.5T578 135l-49-10V97l85 13h106V0H420v203q26 4 53.5 17t50 35.5q22.5 22.5 37 56T575 392q0 37-10 73t-32 64.5Q511 558 475.5 575T388 592q-89 0-137-51t-48-152q0-45 14-78.5t36-56q22-22.5 49.5-35T357 203V0H58z"/><glyph unicode="π" horiz-adv-x="696" d="M566 156q0-28 9-39t23-11q10 0 22.5 2t21.5 4l20-90q-20-9-51.5-18.5T534-6q-56 0-77 30t-21 82v284H296V0H166v390h-14q-18 0-31.5-10T95 346l-76 48q19 51 56.5 78.5T166 500h483V390h-83z"/><glyph unicode="Ё" horiz-adv-x="522" d="M60 700h415V578H197V415h253V293H197V122h283V0H60zm22 98q0 26 18 42t58 16q39 0 57-16t18-42q0-26-18-41.5T158 741q-40 0-58 15.5T82 798zm214 0q0 26 18 42t57 16q40 0 58-16t18-42q0-26-18-41.5T371 741q-39 0-57 15.5T296 798z"/><glyph unicode="Ђ" horiz-adv-x="740" d="M353 0H216v578H11v122h546V578H353V435q16 6 50 14t88 8q39 0 76.5-10t67.5-35.5q30-25.5 48.5-69T702 232q0-116-57-177.5T461-7q-28 0-41.5 1T398-3v117q7-2 23.5-2.5t33.5-.5q50 0 76.5 29t26.5 86q0 34-9 55.5T524 315q-16 12-38 16t-48 4q-23 0-48.5-6T353 317z"/><glyph unicode="Ѓ" horiz-adv-x="458" d="M467 578H197V0H60v700h407zM292 870h159v-30l-160-88H188z"/><glyph unicode="Є" horiz-adv-x="577" d="M549 29q-15-11-37.5-19.5T463.5-4Q438-9 411-11.5T358-14q-65 0-123 19.5t-101.5 63Q90 112 64 181.5T38 350q0 103 29 172.5t75.5 112q46.5 42.5 104 61T362 714q60 0 105-8t72-19l-26-119q-23 11-58.5 17.5T374 592q-35 0-66.5-10.5t-56-32.5q-24.5-22-42-55T185 416h275V304H182q11-89 62.5-142.5T384 108q45 0 80 9t57 22z"/><glyph unicode="Ѕ" horiz-adv-x="530" d="M362 188q0 32-23.5 52t-59 36.5q-35.5 16.5-77 34t-77 43Q90 379 66.5 417T43 514q0 51 17 88.5t48.5 62.5q31.5 25 74.5 37t96 12q61 0 115-10.5t89-30.5l-43-115q-22 14-66 25.5T279 595q-48 0-73.5-19T180 525q0-30 23.5-50t59-37q35.5-17 77-35t77-43.5q35.5-25.5 59-63T499 203q0-56-18.5-96.5t-52-67.5q-33.5-27-81-40T243-14q-75 0-132 14T27 28l44 117q11-6 28.5-13t39.5-13q22-6 46.5-10t50.5-4q61 0 93.5 20.5T362 188z"/><glyph unicode="І" horiz-adv-x="285" d="M74 700h137V0H74z"/><glyph unicode="Ї" horiz-adv-x="296" d="M19 792q0 31 15.5 47.5T79 856q28 0 43.5-16.5T138 792q0-30-15.5-46T79 730q-29 0-44.5 16T19 792zm140 0q0 31 15.5 47.5T218 856q29 0 44.5-16.5T278 792q0-30-15.5-46T218 730q-28 0-43.5 16T159 792zm-80-92h137V0H79z"/><glyph unicode="Ј" horiz-adv-x="334" d="M131 700h137V188q0-40-9-76t-29.5-63.5Q209 21 177 4.5T99-12q-29 0-63 6t-59 17L7 123q26-13 59-13 42 0 53.5 31t11.5 82z"/><glyph unicode="Љ" horiz-adv-x="935" d="M426 578H277q-4-95-9-173t-13.5-140.5Q246 202 232 154t-36-83q-14-23-31.5-38T128 9Q109 0 90.5-3.5T56-7Q33-7 17.5-3.5T-13 7v118q21-2 27-3t12-1q16 0 31.5 8T84 156q15 22 26 64.5T129.5 329q8.5 66 13.5 157.5t7 213.5h413V449q5 1 16.5 2.5t25 2.5q13.5 1 27.5 2t26 1q49 0 95-10t81.5-35.5q35.5-25.5 56.5-69T912 232q0-120-74.5-181T624-10q-12 0-30 .5T554.5-8Q533-7 509-5t-46 5h-37zm205-466q28 0 53 5.5t44 19q19 13.5 29.5 35.5t10.5 54q0 34-11.5 55.5t-30 33.5Q708 327 683 331t-52 4q-7 0-17-1l-20-2q-10-1-18.5-2.5T563 327V118q11-3 29.5-4.5T631 112z"/><glyph unicode="Њ" horiz-adv-x="962" d="M453 305H197V0H60v700h137V427h256v273h137V434q5 1 16.5 2.5t25 2.5q13.5 1 27.5 2t26 1q49 0 95-9t81.5-33q35.5-24 56.5-66t21-109q0-120-74-177.5T651-10q-14 0-38 1t-51.5 2.5Q534-5 505-2.5T453 3zm205-193q31 0 56.5 5t43.5 17.5q18 12.5 27.5 33T795 219q0 32-10 51.5T757 301q-18 11-43.5 15t-55.5 4q-7 0-17-1l-20-2q-10-1-18.5-3t-12.5-3V118q11-3 29.5-4.5T658 112z"/><glyph unicode="Ћ" horiz-adv-x="758" d="M353 0H216v578H11v122h546V578H353V401q25 15 68.5 28T525 442q42 0 77-11t60.5-34q25.5-23 39.5-60t14-89V0H579v206q0 60-24 89.5T477 325q-38 0-71-8.5T353 291z"/><glyph unicode="Ќ" horiz-adv-x="620" d="M233 299h-36V0H60v700h137V390l32 14 193 296h156L374 406l-54-38 56-39L609 0H440zm85 571h159v-30l-160-88H214z"/><glyph unicode="Ў" horiz-adv-x="568" d="M294 391l20-91h6l16 94 105 306h141L396 216q-22-57-42.5-99t-44-69.5Q286 20 257 6.5T189-7q-33 0-53.5 4.5T91 17l35 111q17-9 31-11t30-2q47 0 66 74L-9 700h161zm-66 483q4-32 23.5-46t50.5-14q67 0 74 59l111-17q-11-63-57.5-92T301 735q-41 0-75 6t-59.5 19.5Q141 774 124.5 797T104 854z"/><glyph unicode="Џ" horiz-adv-x="639" d="M60 0v700h137V122h245v578h137V0H379l-15-175h-88L256 0z"/><glyph unicode="А" horiz-adv-x="605" d="M405 155H190L137 0H0l252 705h101L605 0H461zM225 265h150l-52 156-21 110h-5l-21-111z"/><glyph unicode="Б" horiz-adv-x="570" d="M60 700h431V578H197V432q17 3 41.5 6t48.5 3q56 0 103-11t80.5-36.5q33.5-25.5 52.5-67T542 225q0-59-19.5-103t-56-73q-36.5-29-88-44T263-10q-17 0-42.5 1t-54 3Q138-4 110-1T60 7zm213-597q26 0 48.5 6.5t39.5 20q17 13.5 27 34.5t10 51q0 36-11 58t-30 34.5Q338 320 313.5 324t-52.5 4q-14 0-35-2.5t-29-4.5V108q11-3 33.5-4t42.5-1z"/><glyph unicode="В" horiz-adv-x="591" d="M531 537q0-26-6.5-52T503 437.5q-15-21.5-39-38T406 375v-6q30-5 57-17t47-33q20-21 31.5-51t11.5-71q0-54-23-93.5T468.5 39Q430 14 381 2T280-10h-43.5q-26.5 0-57 1.5t-62 4.5Q86-1 60 5v690q19 3 43.5 6t52.5 5q28 2 57.5 3t58.5 1q49 0 95.5-7.5t83-26.5q36.5-19 58.5-53t22-86zM281 103q25 0 48.5 6t41.5 18.5q18 12.5 29 31.5t11 45q0 33-13 52t-34 29.5Q343 296 317 299t-52 3h-73V109q5-2 16-3t23.5-1.5q12.5-.5 26-1t23.5-.5zm-45 303q14 0 32.5 1t30.5 3q38 12 65.5 36t27.5 63q0 26-10 43t-26.5 27Q339 589 318 593t-44 4q-26 0-48-1t-34-3V406z"/><glyph unicode="Г" horiz-adv-x="458" d="M467 578H197V0H60v700h407z"/><glyph unicode="Д" horiz-adv-x="691" d="M674-125h-97L562 0H112L97-125H0v247h74q7 11 23 49t32 107.5q16 69.5 27 174T166 700h419V122h89zM448 122v456H293q-6-178-28.5-291.5T219 122z"/><glyph unicode="Е" horiz-adv-x="522" d="M60 700h415V578H197V415h253V293H197V122h283V0H60z"/><glyph unicode="Ж" horiz-adv-x="839" d="M350 700h130V389l35 14 145 297h154L651 393l-47-34 57-42L845 0H680L519 304h-39V0H350v316l-36-14L153 0H-7l183 307 54 39-52 37L7 700h159l145-299h39z"/><glyph unicode="З" horiz-adv-x="526" d="M120 310v107h46q13 0 26.5.5t26.5 2q13 1.5 21 3.5 35 8 60 28.5t25 55.5q0 48-30.5 65.5T214 590q-45 0-84-12t-59-23L36 671q11 6 31.5 13t47 13.5Q141 704 172 708t63 4q44 0 86-8t75-28q33-20 53-53.5t20-85.5q0-52-27.5-96T353 377v-5q65-13 101.5-56T491 201q0-57-23-97.5T407.5 37Q370 11 321-1.5T221-14q-66 0-120 11T18 23l35 119q23-11 66-22.5T221 108q22 0 44.5 5.5t40.5 18q18 12.5 29 32.5t11 48q0 47-35 71t-125 26q-12 1-18 1h-21z"/><glyph unicode="И" horiz-adv-x="666" d="M468 388l8 91h-5l-47-94L163 0H60v700h137V319l-10-94h6l49 97 261 378h102V0H468z"/><glyph unicode="Й" horiz-adv-x="666" d="M468 388l8 91h-5l-47-94L163 0H60v700h137V319l-10-94h6l49 97 261 378h102V0H468zM273 874q4-32 23.5-46t50.5-14q67 0 74 59l111-17q-11-63-57.5-92T346 735q-41 0-75 6t-59.5 19.5Q186 774 169.5 797T149 854z"/><glyph unicode="К" horiz-adv-x="620" d="M233 299h-36V0H60v700h137V390l32 14 193 296h156L374 406l-54-38 56-39L609 0H440z"/><glyph unicode="Л" horiz-adv-x="623" d="M426 578H277q-4-95-9-173t-13.5-140.5Q246 202 232 154t-36-83q-14-23-31.5-38T128 9Q109 0 90.5-3.5T56-7Q33-7 17.5-3.5T-13 7v118q21-2 27-3t12-1q16 0 31.5 8T84 156q15 22 26 64.5T129.5 329q8.5 66 13.5 157.5t7 213.5h413V0H426z"/><glyph unicode="М" horiz-adv-x="800" d="M603 363l15 139h-6l-43-112-149-261h-44L219 391l-44 111h-5l20-138V0H60v700h125l187-320 33-80h4l30 82 177 318h124V0H603z"/><glyph unicode="Н" horiz-adv-x="651" d="M453 293H197V0H60v700h137V415h256v285h137V0H453z"/><glyph unicode="О" horiz-adv-x="670" d="M38 350q0 175 77 269.5T335 714q75 0 131-26t93-74q37-48 55-115t18-149q0-175-77.5-269.5T335-14q-76 0-132 26t-92.5 74Q74 134 56 201T38 350zm144 0q0-53 9-97.5t27.5-76.5q18.5-32 47.5-50t69-18q73 0 113 57t40 185q0 51-8.5 95T453 522q-18 33-47 51.5T335 592q-73 0-113-58.5T182 350z"/><glyph unicode="П" horiz-adv-x="639" d="M442 578H197V0H60v700h519V0H442z"/><glyph unicode="Р" horiz-adv-x="572" d="M60 693q42 8 92.5 12.5T253 710q52 0 104.5-8.5t94.5-34q42-25.5 68.5-71T547 478q0-66-23-111.5T463 292q-38-29-86.5-42T276 237h-16q-11 0-23 .5t-23.5 1.5q-11.5 1-16.5 2V0H60zm204-101q-20 0-38-1.5t-29-3.5V360q4-1 12-2t17-1.5q9-.5 17.5-.5H256q27 0 53.5 5t47.5 18.5q21 13.5 33.5 37.5t12.5 63q0 33-12 54.5T359.5 569Q340 582 315 587t-51 5z"/><glyph unicode="С" horiz-adv-x="559" d="M534 29Q502 6 452.5-4T351-14q-63 0-119.5 19.5t-99.5 63q-43 43.5-68.5 113T38 350q0 103 28.5 172.5t74 112Q186 677 242 695.5T354 714q60 0 101.5-8t68.5-19V571q-50 11-81.5 16t-76.5 5q-83 0-133.5-59T182 350q0-54 12-98.5t36.5-76q24.5-31.5 61-49T376 109q45 0 76 9t54 23z"/><glyph unicode="Т" horiz-adv-x="568" d="M557 578H353V0H216v578H11v122h546z"/><glyph unicode="У" horiz-adv-x="568" d="M294 391l20-91h6l16 94 105 306h141L396 216q-22-57-42.5-99t-44-69.5Q286 20 257 6.5T189-7q-33 0-53.5 4.5T91 17l35 111q17-9 31-11t30-2q47 0 66 74L-9 700h161z"/><glyph unicode="Ф" horiz-adv-x="802" d="M334 76q-19-3-39-4t-43-1q-48 0-89 16.5t-71.5 51q-30.5 34.5-48 87T26 350q0 68 17.5 121.5t50 91Q126 600 171 620t100 20q13 0 32-1t31-4v85h134v-88q19 5 43.5 6.5T551 640q49 0 90-17.5t71.5-53q30.5-35.5 47.5-88T776 360q1-71-18-125t-52-90.5q-33-36.5-76.5-55T536 71q-16 0-34.5 1.5T468 78v-98H334zm185 454q-10-1-27-2t-29-4V184q9-2 21.5-2t23.5-1q28 1 52 11t42 32q18 22 28 55t9 80q1 80-31 125t-89 46zM287 182q8 0 24.5.5T339 187v339q-10 2-23 2.5t-24 .5q-55 0-92-42.5T163 351q0-81 34-125t90-44z"/><glyph unicode="Х" horiz-adv-x="633" d="M225 356L30 700h165l108-202 24-71 23 71 113 202h149L410 363 622 0H459L336 216l-27 74-26-74L159 0H10z"/><glyph unicode="Ц" horiz-adv-x="682" d="M665-125h-97L553 0H60v700h137V122h241v578h137V122h90z"/><glyph unicode="Ч" horiz-adv-x="606" d="M183 700V478q0-60 23.5-89.5T284 359q38 0 71.5 8.5T409 393v307h137V0H409v282q-26-15-69.5-27.5T236 242q-42 0-76.5 10.5t-60 34Q74 310 60 346.5T46 435v265z"/><glyph unicode="Ш" horiz-adv-x="861" d="M60 0v700h137V122h165v578h137V122h165v578h137V0z"/><glyph unicode="Щ" horiz-adv-x="911" d="M60 0v700h137V122h165v578h137V122h165v578h137V122h92v-247h-96L782 0z"/><glyph unicode="Ъ" horiz-adv-x="664" d="M155 578H-4v122h296V449q5 1 16.5 2.5t25 2.5q13.5 1 28 2t26.5 1q49 0 94.5-10t81-35.5q35.5-25.5 56.5-69T641 232q0-120-74-181T353-10q-14 0-38 .5T263.5-7q-27.5 2-56 5T155 7zm205-466q28 0 53 5.5t44 19q19 13.5 29.5 35.5t10.5 54q0 34-11.5 55.5t-30 33.5Q437 327 412 331t-52 4q-7 0-17-1l-20-2q-10-1-18.5-2.5T292 327V118q11-3 29.5-4.5T360 112z"/><glyph unicode="Ы" horiz-adv-x="798" d="M600 700h137V0H600zm-540 0h137V449q11 2 35 5t47 3q50 0 95.5-10t79.5-35.5q34-25.5 54-69T528 233q0-122-71-182.5T246-10q-14 0-36 .5T162.5-7Q137-5 110-2T60 7zm196-588q57 0 92.5 26.5T384 227q0 33-10 54t-27 33q-17 12-40 16.5t-50 4.5q-14 0-33-2.5t-27-5.5V118q11-3 26.5-4.5T256 112z"/><glyph unicode="Ь" horiz-adv-x="569" d="M60 700h137V449q5 1 16.5 2.5t25 2.5q13.5 1 27.5 2t26 1q49 0 95-10t81.5-35.5q35.5-25.5 56.5-69T546 232q0-120-74.5-181T258-10q-14 0-37.5.5T169-7q-28 2-56.5 5T60 7zm205-588q28 0 53 5.5t44 19q19 13.5 29.5 35.5t10.5 54q0 34-11.5 55.5t-30 33.5Q342 327 317 331t-52 4q-7 0-17-1l-20-2q-10-1-18.5-2.5T197 327V118q11-3 29.5-4.5T265 112z"/><glyph unicode="Э" horiz-adv-x="574" d="M130 410h269q-3 40-16.5 73.5T346 541q-23 24-57 37.5T212 592q-54 0-94-11.5T53 555L24 671q35 18 88 30.5T217 714q69 0 127.5-19t101-62.5Q488 589 512 519.5T536 350q0-104-28-174T433 64Q386 22 325 4T198-14Q141-14 94.5-4T20 19l36 119q23-11 62-20.5t90-9.5q39 0 72 11t58.5 34.5Q364 177 380 213t20 87H130z"/><glyph unicode="Ю" horiz-adv-x="897" d="M197 415h93q13 143 84 221t199 78q76 0 130-26t88.5-74q34.5-48 51-115T859 350q0-175-72-269.5T573-14q-66 0-116.5 22T371 70q-35 40-55 97t-26 126h-93V0H60v700h137zm233-65q0-53 7.5-97.5t24-76.5q16.5-32 44-50t67.5-18q73 0 107.5 57T715 350q0 51-6.5 95T686 522q-16 33-43.5 51.5T573 592q-72 0-107.5-58.5T430 350z"/><glyph unicode="Я" horiz-adv-x="580" d="M519 0H382v277l-72-19L164 0H5l144 233 60 43q-32 8-60 24.5T100 343q-21 26-33 61.5T55 485q0 63 22 106t61 69.5q39 26.5 93 38T348 710q17 0 39-1t45.5-3q23.5-2 46-5t40.5-8zM331 588q-27 0-51-5t-42-17q-18-12-28.5-33T199 479q0-31 10-52.5t28-35q18-13.5 42-19.5t52-6h51v217q-11 2-22.5 3.5T331 588z"/><glyph unicode="а" horiz-adv-x="496" d="M54 471q40 18 95 28.5T264 510q52 0 87-12.5t55.5-35.5q20.5-23 29-55t8.5-72q0-44-3-88.5t-3.5-87.5q-.5-43 2.5-83.5T455-1H349l-21 69h-5q-20-31-55.5-53.5T176-8q-35 0-63 10.5t-48 30Q45 52 34 78.5T23 138q0 46 20.5 77.5t59 51q38.5 19.5 92 27T314 298q7 56-8 80.5T239 403q-39 0-82.5-8T85 374zM219 99q39 0 62 17.5t34 37.5v65q-31 3-59.5 1t-50.5-9q-22-7-35-20t-13-33q0-28 16.5-43.5T219 99z"/><glyph unicode="б" horiz-adv-x="537" d="M142 406q29 44 68.5 63.5T306 489q91 0 144.5-55.5T504 261q0-135-61-205T271-14Q155-14 94 63T33 303q0 86 10 147t28.5 103q18.5 42 44 67t57 39.5Q204 674 240 680t76 10q52 5 89 12.5t55 24.5l5-116q-20-17-57-23.5T308 576q-38-2-67-9t-50-25q-21-18-33.5-50.5T139 406zm25-162q0-64 25-106t77-42q54 0 77.5 38T370 244q0 65-22 100t-73 35q-55 0-81.5-36T167 244z"/><glyph unicode="в" horiz-adv-x="505" d="M57 499q35 3 84.5 6t106.5 3q110 0 156.5-31.5T451 382q0-35-20-68t-63-48v-4q54-12 78-42.5t24-78.5q0-75-57.5-112T228-8q-42 0-89 2.5T57 1zm127-399q14-2 26-3t30-1q54 0 77 15t23 46q0 26-19.5 42.5T251 216h-67zm69 196q32 0 52.5 15.5T326 351q0 26-17.5 39.5T245 404q-23 0-36.5-1t-24.5-2V296z"/><glyph unicode="г" horiz-adv-x="376" d="M380 385H191V0H57v500h323z"/><glyph unicode="д" horiz-adv-x="568" d="M554-114h-95L444 0H108L93-114H-2v229h59q8 11 20.5 37.5t25 72.5Q115 271 124 339t9 161h348V115h73zM351 109v281H246q-2-36-7-76.5T226.5 235q-7.5-38-17.5-71t-22-55z"/><glyph unicode="е" horiz-adv-x="508" d="M457 43q-30-24-81.5-40.5T266-14Q145-14 89 56.5T33 250q0 132 63 198t177 66q38 0 74-10t64-33q28-23 45-62t17-97q0-21-2.5-45t-7.5-50H163q3-63 32.5-95T291 90q41 0 73.5 12.5T414 128zM271 410q-51 0-75.5-30.5T166 298h186q4 54-16.5 83T271 410z"/><glyph unicode="ж" horiz-adv-x="693" d="M242 203L140 0H-6l131 229 34 30-51 38L5 500h139l93-203h43v203h124V287l38 14 94 199h138L565 297l-39-32 51-40L698 0H549L447 207h-43V0H280v217z"/><glyph unicode="з" horiz-adv-x="432" d="M109 207v91h61q35 0 57.5 14t22.5 37q0 27-20 38.5T169 399q-39 0-69-10t-48-21l-28 99q30 17 79.5 29.5T209 509q86 0 128.5-32t42.5-93q0-17-4.5-34.5T361 316q-10-16-24.5-28.5T302 268v-4q53-12 75-42.5t22-81.5q0-32-13-59.5T346.5 33Q320 13 280 1t-95-12Q130-11 89.5.5T22 27l28 101q23-13 55.5-21t72.5-8q91 0 91 58 0 26-23.5 38T158 207z"/><glyph unicode="и" horiz-adv-x="545" d="M358 228l5 71h-3l-43-73L139 0H57v500h130V262l-6-68h4l41 71 180 235h82V0H358z"/><glyph unicode="й" horiz-adv-x="545" d="M358 228l5 71h-3l-43-73L139 0H57v500h130V262l-6-68h4l41 71 180 235h82V0H358zM219 704q7-39 23.5-55t42.5-16q28 0 44.5 16t22.5 54l99-25q-12-65-59-96.5T282 550q-31 0-60 7t-52 22.5Q147 595 131 619t-22 59z"/><glyph unicode="к" horiz-adv-x="489" d="M222 207h-35V0H57v500h130V287l31 14 117 199h139L353 310l-51-38 56-39L493 0H344z"/><glyph unicode="л" horiz-adv-x="515" d="M329 385h-99q-6-71-14-141t-25.5-125.5Q173 63 143 28.5T65-6Q7-6-17 9l16 108q16-6 30-6 20 0 35 17t25.5 61q10.5 44 17 119.5T116 500h343V0H329z"/><glyph unicode="м" horiz-adv-x="666" d="M485 229l8 104h-5l-40-86-94-155h-47L204 247l-38 86h-6l13-103V0H57v500h135l115-188 28-63h4l29 65 106 186h136V0H485z"/><glyph unicode="н" horiz-adv-x="537" d="M350 197H187V0H57v500h130V312h163v188h130V0H350z"/><glyph unicode="о" horiz-adv-x="537" d="M33 250q0 127 62 195.5T269 514q60 0 104-19t73-53.5q29-34.5 43.5-83.5T504 250q0-127-61.5-195.5T269-14q-60 0-104 19T91.5 58.5Q62 93 47.5 142T33 250zm134 0q0-33 6-61t18-49q12-21 31.5-32.5T269 96q51 0 76 37t25 117q0 69-23 111.5T269 404q-48 0-75-36t-27-118z"/><glyph unicode="п" horiz-adv-x="532" d="M345 385H187V0H57v500h418V0H345z"/><glyph unicode="р" horiz-adv-x="540" d="M57 500h95l15-60h4q26 38 61.5 56t86.5 18q94 0 141-59.5T507 263q0-64-15-115.5T447.5 60q-29.5-36-72-55T278-14q-31 0-51 4.5T187 5v-205H57zm223-96q-38 0-59.5-19T187 328V120q14-11 30.5-17.5T261 96q56 0 84 39.5T373 266q0 66-22 102t-71 36z"/><glyph unicode="с" horiz-adv-x="433" d="M411 31Q381 9 338.5-2.5T251-14q-60 0-101.5 19T82 58.5Q56 93 44.5 142T33 250q0 127 57 195.5T256 514q55 0 88.5-9t60.5-23l-31-106q-23 11-45.5 17t-51.5 6q-54 0-82-35.5T167 250q0-32 7-59t21-47q14-20 36.5-31.5T284 101q33 0 56 8.5t41 20.5z"/><glyph unicode="т" horiz-adv-x="418" d="M417 385H276V0H142v385H1v115h416z"/><glyph unicode="у" horiz-adv-x="478" d="M239 219l18-78h6l13 79 76 280h134L334 49Q315-7 297.5-53.5T259-134q-21-34-46.5-52.5T152-205q-52 0-83 17L93-84q15-6 30-6 23 0 44.5 19.5T200 0L-9 500h156z"/><glyph unicode="ф" horiz-adv-x="700" d="M286-6q-17-6-35.5-7T217-14q-91 0-140 65T28 250q0 128 54 194t156 66q28 0 48-4v194h128V505q18 3 32 4t27 1q99 0 149-58.5T672 260q0-63-13.5-113.5T619 60q-26-36-63.5-55T469-14q-9 0-26.5 1.5T414-7v-193H286zm158 413q-10 0-17.5-1.5T408 402V92q8-2 18.5-2.5T449 89q48 0 70.5 39.5T542 260q0 78-22 112.5T444 407zM251 89q11 0 20.5 1.5T292 94v309q-19 4-39 4-46 0-70.5-35.5T158 250q0-78 22.5-119.5T251 89z"/><glyph unicode="х" horiz-adv-x="525" d="M170 256L20 500h155l65-107 28-70 30 70 68 107h141L356 260 517 0H366l-77 120-30 74-32-74L150 0H8z"/><glyph unicode="ц" horiz-adv-x="559" d="M545-114h-95L435 0H57v500h130V115h155v385h130V115h73z"/><glyph unicode="ч" horiz-adv-x="505" d="M163 500V386q0-31 2.5-53.5t10-37q7.5-14.5 21-21.5t35.5-7q29 0 50.5 7t35.5 17v209h130V0H318v196q-15-11-46-24.5T189 158q-37 0-66 8t-49 28q-20 20-30.5 53T33 330v170z"/><glyph unicode="ш" horiz-adv-x="754" d="M57 0v500h130V115h125v385h130V115h125v385h130V0z"/><glyph unicode="щ" horiz-adv-x="783" d="M769-114h-94L660 0H57v500h130V115h125v385h130V115h125v385h130V115h72z"/><glyph unicode="ъ" horiz-adv-x="539" d="M235 109q28-6 57-6 48 0 70 16.5t22 51.5q0 65-89 65-35 0-60-7zm0 213q24 4 49 5.5t45 1.5q52 0 88-11.5t58.5-32.5q22.5-21 32.5-49.5t10-61.5q0-91-54.5-136T281-7q-57 0-99 2t-77 5v385H-5v115h240z"/><glyph unicode="ы" horiz-adv-x="703" d="M187 109q30-6 57-6 45 0 63 16.5t18 51.5q0 32-18 48.5T247 236q-33 0-60-7zm0 213q24 4 48.5 5.5T280 329q51 0 85-11.5t55-32.5q21-21 30-49.5t9-61.5q0-45-12-79t-39-56.5q-27-22.5-70-34T232-7q-57 0-98.5 2T57 0v500h130zm329 178h130V0H516z"/><glyph unicode="ь" horiz-adv-x="490" d="M187 109q30-6 57-6 48 0 69.5 16.5T335 171q0 65-88 65-33 0-60-7zm0 213q24 4 48.5 5.5T280 329q52 0 88-11.5t58.5-32.5q22.5-21 32.5-49.5t10-61.5q0-91-54-136T232-7q-57 0-98.5 2T57 0v500h130z"/><glyph unicode="э" horiz-adv-x="459" d="M109 300h186q-5 50-33 77t-83 27q-38 0-67-9t-51-21l-35 94q66 46 178 46t167-66.5Q426 381 426 250q0-132-62-198T194-14q-47 0-95 9.5T23 22l32 102q23-13 54.5-20.5T173 96q64 0 91 27t32 84H109z"/><glyph unicode="ю" horiz-adv-x="734" d="M480-14q-56 0-95.5 15t-65 43q-25.5 28-39 68T263 202h-76V0H57v500h130V312h77q10 97 61.5 149.5T482 514q57 0 98-19t68-53.5q27-34.5 39.5-83.5T700 250q0-127-54-195.5T480-14zm-93 264q0-73 20.5-113.5T480 96q46 0 66 34t20 120q0 77-19 115.5T477 404q-46 0-68-35t-22-119z"/><glyph unicode="я" horiz-adv-x="503" d="M321 189l-60-12L165 0H10l97 157 49 37q-49 8-81 46.5T43 337q0 91 60.5 134T289 514q48 0 89.5-5t72.5-11V0H321zm0 68v138q-11 5-24 7t-25 2q-45 0-70-19t-25-57q0-38 27.5-56t80.5-17z"/><glyph unicode="ё" horiz-adv-x="508" d="M457 43q-30-24-81.5-40.5T266-14Q145-14 89 56.5T33 250q0 132 63 198t177 66q38 0 74-10t64-33q28-23 45-62t17-97q0-21-2.5-45t-7.5-50H163q3-63 32.5-95T291 90q41 0 73.5 12.5T414 128zM271 410q-51 0-75.5-30.5T166 298h186q4 54-16.5 83T271 410zM85 631q0 32 19.5 51t51.5 19q32 0 50.5-19t18.5-51q0-30-18.5-49T156 563q-32 0-51.5 19T85 631zm219 0q0 32 18.5 51t50.5 19q32 0 51.5-19t19.5-51q0-30-19.5-49T373 563q-32 0-50.5 19T304 631z"/><glyph unicode="ђ" horiz-adv-x="550" d="M-12 600h74v100h130V600h161v-80H192V390h4q23 32 59 51t90 19q38 0 67-10t48-33q19-23 28.5-62.5T498 257V-21q0-91-36-139t-115-48q-30 0-64 7v109q4 0 7.5-.5t7.5-.5q43 0 56.5 24.5T368 0v230q0 61-16.5 88T290 345q-33 0-61.5-22T192 266V0H62v520h-74z"/><glyph unicode="ѓ" horiz-adv-x="376" d="M380 385H191V0H57v500h323zM217 720h132v-30L238 566h-74z"/><glyph unicode="є" horiz-adv-x="457" d="M435 31Q405 9 360-2.5T270-14q-60 0-104 19T93.5 58.5Q65 93 51 142T37 250q0 63 17 112t48 83q31 34 75 51.5t98 17.5q54 0 90-9t63-23l-30-106q-23 11-48.5 17t-54.5 6q-47 0-80.5-24T171 297h196v-88H170q9-48 41.5-78t90.5-30q34 0 59 8.5t44 20.5z"/><glyph unicode="ѕ" horiz-adv-x="422" d="M264 138q0 20-17 32t-42 22q-25 10-55 20.5t-55 29q-25 18.5-42 47T36 362q0 74 44 113t127 39q57 0 103-12t72-27l-29-94q-23 9-58 19t-71 10q-58 0-58-45 0-18 17-29t42-20.5q25-9.5 55-20.5t55-28.5q25-17.5 42-45.5t17-72q0-76-48.5-119.5T200-14q-53 0-99.5 13.5T25 31l36 97q23-13 61-25.5T200 90q29 0 46.5 11t17.5 37z"/><glyph unicode="і" horiz-adv-x="269" d="M67 500h130V0H67zM51 641q0 29 21.5 49.5T132 711q38 0 61.5-20.5T217 641q0-29-23.5-48.5T132 573q-38 0-59.5 19.5T51 641z"/><glyph unicode="ї" horiz-adv-x="318" d="M21 642q0 31 15.5 50.5T84 712q32 0 47.5-19.5T147 642q0-30-15.5-49.5T84 573q-32 0-47.5 19.5T21 642zm151 0q0 31 15.5 50.5T235 712q32 0 47.5-19.5T298 642q0-30-15.5-49.5T235 573q-32 0-47.5 19.5T172 642zM93 500h130V0H93z"/><glyph unicode="ј" horiz-adv-x="268" d="M69 500h130V-21q0-91-36-139T48-208q-30 0-64 7v109q4 0 7-.5t6-.5q45 0 58.5 29T69 16zM50 641q0 29 21.5 49.5T131 711q38 0 61.5-20.5T216 641q0-29-23.5-48.5T131 573q-38 0-59.5 19.5T50 641z"/><glyph unicode="љ" horiz-adv-x="762" d="M459 322q24 4 48.5 5.5T552 329q52 0 88-11.5t58.5-32.5q22.5-21 32.5-49.5t10-61.5q0-91-54-136T504-7q-57 0-98.5 2T329 0v385h-99q-6-71-14-141t-25.5-125.5Q173 63 143 28.5T65-6Q7-6-17 9l16 108q16-6 30-6 20 0 35 17t25.5 61q10.5 44 17 119.5T116 500h343zm60-86q-35 0-60-7V108q14-3 28.5-4t28.5-1q48 0 69.5 16.5T607 171q0 65-88 65z"/><glyph unicode="њ" horiz-adv-x="784" d="M480 321q24 4 49 5.5t45 1.5q52 0 88-11.5t58.5-32.5q22.5-21 32.5-49t10-61q0-91-54.5-136T526-7q-57 0-99 2t-77 5v199H187V0H57v500h130V314h163v186h130zm0-212q28-6 57-6 48 0 70 16.5t22 51.5q0 64-89 64-35 0-60-7z"/><glyph unicode="ћ" horiz-adv-x="550" d="M-12 600h74v100h130V600h161v-80H192V390h4q23 32 59 51t90 19q38 0 67-10t48-33q19-23 28.5-62.5T498 257V0H368v230q0 61-16.5 88T290 345q-33 0-61.5-22T192 266V0H62v520h-74z"/><glyph unicode="ќ" horiz-adv-x="489" d="M222 207h-35V0H57v500h130V287l31 14 117 199h139L353 310l-51-38 56-39L493 0H344zm22 513h132v-30L265 566h-74z"/><glyph unicode="ў" horiz-adv-x="478" d="M239 219l18-78h6l13 79 76 280h134L334 49Q315-7 297.5-53.5T259-134q-21-34-46.5-52.5T152-205q-52 0-83 17L93-84q15-6 30-6 23 0 44.5 19.5T200 0L-9 500h156zm-54 485q7-39 23.5-55t42.5-16q28 0 44.5 16t22.5 54l99-25q-12-65-59-96.5T248 550q-31 0-60 7t-52 22.5Q113 595 97 619t-22 59z"/><glyph unicode="џ" horiz-adv-x="532" d="M57 0v500h130V115h158v385h130V0H327l-15-175h-88L204 0z"/><glyph unicode="Ѣ" horiz-adv-x="651" d="M0 648h142v77h137v-77h200V533H279v-90q5 1 16.5 2.5t25 2.5q13.5 1 27.5 2t26 1q49 0 95-9.5t81.5-34.5q35.5-25 56.5-67t21-108q0-120-74.5-181T340-10q-14 0-37.5.5T251-7q-28 2-56.5 5T142 7v526H0zm347-536q28 0 53 5.5t44 19q19 13.5 29.5 35.5t10.5 54q0 34-11.5 55.5t-30 33.5Q424 327 399 331t-52 4q-7 0-17-1l-20-2q-10-1-18.5-2.5T279 327V118q11-3 29.5-4.5T347 112z"/><glyph unicode="ѣ" horiz-adv-x="539" d="M-5 500h110v200h130V500h160v-93H235v-85q24 4 49 5.5t45 1.5q52 0 88-11.5t58.5-32.5q22.5-21 32.5-49.5t10-61.5q0-91-54.5-136T281-7q-57 0-99 2t-77 5v407H-5zm240-391q28-6 57-6 48 0 70 16.5t22 51.5q0 65-89 65-35 0-60-7z"/><glyph unicode="Ѳ" horiz-adv-x="670" d="M38 350q0 175 77 269.5T335 714q75 0 131-26t93-74q37-48 55-115t18-149q0-175-77.5-269.5T335-14q-76 0-132 26t-92.5 74Q74 134 56 201T38 350zm450 57q-8 89-48 137t-105 48q-29 0-55-10t-46.5-32q-20.5-22-34-57.5T182 407zM182 297q8-95 49-142t104-47q29 0 55.5 9.5t47 31q20.5 21.5 34 57.5t16.5 91z"/><glyph unicode="ѳ" horiz-adv-x="537" d="M33 250q0 127 62 195.5T269 514q60 0 104-19t73-53.5q29-34.5 43.5-83.5T504 250q0-127-61.5-195.5T269-14q-60 0-104 19T91.5 58.5Q62 93 47.5 142T33 250zm337 39q-8 60-33.5 87.5T269 404q-19 0-36-6t-30.5-19.5Q189 365 179.5 343T167 289zm-203-82q6-54 34-82.5T269 96q38 0 66.5 24.5T370 207z"/><glyph unicode="Ѵ" horiz-adv-x="629" d="M347-5h-98L-13 700h159l140-411 18-119h4l16 120 69 229q16 54 33 90.5t38.5 58.5q21.5 22 48.5 31.5t63 9.5q38 0 62-6t45-17l-30-116q-17 9-31.5 12t-30.5 3q-23 0-38-17.5T525 510z"/><glyph unicode="ѵ" horiz-adv-x="527" d="M289-5h-79L-7 500h151l93-262 17-77h4l15 79 23 71q17 54 32.5 92t34 61.5q18.5 23.5 42 34T461 509q24 0 46-4.5t36-12.5l-18-106q-18 9-34 9-17 0-32.5-14T427 329z"/><glyph unicode="Ҋ" horiz-adv-x="712" d="M468 388l8 91h-5l-47-94L163 0H60v700h137V319l-10-94h6l49 97 261 378h102V115h117V84l-96-214h-94L577 0H468zM260 874q4-32 23.5-46t50.5-14q67 0 74 59l111-17q-11-63-57.5-92T333 735q-41 0-75 6t-59.5 19.5Q173 774 156.5 797T136 854z"/><glyph unicode="ҋ" horiz-adv-x="590" d="M358 228l5 71h-3l-43-73L139 0H57v500h130V262l-6-68h4l41 71 180 235h82V115h107V84l-96-198h-94L450 0h-92zM219 704q7-39 23.5-55t42.5-16q28 0 44.5 16t22.5 54l99-25q-12-65-59-96.5T282 550q-31 0-60 7t-52 22.5Q147 595 131 619t-22 59z"/><glyph unicode="Ҍ" horiz-adv-x="651" d="M0 648h142v77h137v-77h200V533H279v-90q5 1 16.5 2.5t25 2.5q13.5 1 27.5 2t26 1q49 0 95-9.5t81.5-34.5q35.5-25 56.5-67t21-108q0-120-74.5-181T340-10q-14 0-37.5.5T251-7q-28 2-56.5 5T142 7v526H0zm347-536q28 0 53 5.5t44 19q19 13.5 29.5 35.5t10.5 54q0 34-11.5 55.5t-30 33.5Q424 327 399 331t-52 4q-7 0-17-1l-20-2q-10-1-18.5-2.5T279 327V118q11-3 29.5-4.5T347 112z"/><glyph unicode="ҍ" horiz-adv-x="539" d="M-5 500h110v200h130V500h160v-93H235v-85q24 4 49 5.5t45 1.5q52 0 88-11.5t58.5-32.5q22.5-21 32.5-49.5t10-61.5q0-91-54.5-136T281-7q-57 0-99 2t-77 5v407H-5zm240-391q28-6 57-6 48 0 70 16.5t22 51.5q0 65-89 65-35 0-60-7z"/><glyph unicode="Ҏ" horiz-adv-x="572" d="M60 693q42 8 92.5 12.5T253 710q52 0 104.5-8.5t94.5-34q42-25.5 68.5-71T547 478q0-69-25-116t-67-76l64-91-79-58-77 109q-42-9-87-9h-16q-11 0-23 .5t-23.5 1.5q-11.5 1-16.5 2V0H60zm243-215l63-92q17 14 27 36.5t10 57.5q0 33-12 54.5T359.5 569Q340 582 315 587t-51 5q-20 0-38-1.5t-29-3.5V360q4-1 12-2t17-1.5q9-.5 17.5-.5H256q14 0 27 1t26 4l-58 83z"/><glyph unicode="ҏ" horiz-adv-x="540" d="M57 500h95l15-60h4q26 38 61.5 56t86.5 18q94 0 141-59.5T507 263q0-142-70-215l47-56-73-61-55 67q-18-5-37.5-8.5T278-14q-31 0-51 4.5T187 5v-205H57zm237-307l48-60q15 21 23 53.5t8 79.5q0 66-22 102t-71 36q-38 0-59.5-19T187 328V120q14-11 30.5-17.5T261 96q10 0 19.5 1t17.5 4l-47 57z"/><glyph unicode="Ґ" horiz-adv-x="458" d="M468 700l-1-122H197V0H60v700h298l21 152h88V700z"/><glyph unicode="ґ" horiz-adv-x="376" d="M191 385V0H57v500h215l21 152h87V385z"/><glyph unicode="Ғ" horiz-adv-x="508" d="M503 578H233V387h224v-93H233V0H96v294H0v93h96v313h407z"/><glyph unicode="ғ" horiz-adv-x="414" d="M406 385H217V274h162v-80H217V0H83v194H0v80h83v226h323z"/><glyph unicode="Ҕ" horiz-adv-x="582" d="M197 0H60v700h407V578H197V375q16 6 49.5 14t81.5 8q42 0 81-11.5t69.5-40q30.5-28.5 49-78T546 142q0-129-57-199t-184-70q-27 0-40.5 1t-21.5 3V-5q7-2 23.5-2.5T299-8q51 0 77 35t26 109q0 41-9 68t-25 42.5q-16 15.5-38 22t-47 6.5q-24 0-49-6t-37-12z"/><glyph unicode="ҕ" horiz-adv-x="534" d="M187 0H57v500h318V385H187V259q16 6 46 13.5t78 7.5q38 0 72.5-11t60.5-38q26-27 41-73t15-116q0-63-11.5-111T450-149q-27-32-70.5-48T273-213q-28 0-41.5 1.5T210-208v112q8-1 24.5-1.5T267-98q98 0 98 132 0 71-26.5 101T267 165q-23 0-45.5-6T187 147z"/><glyph unicode="Җ" horiz-adv-x="857" d="M350 700h130V389l35 14 145 297h154L651 393l-47-34 57-42 113-195h78v-247h-96L741 0h-61L519 304h-39V0H350v316l-36-14L153 0H-7l183 307 54 39-52 37L7 700h159l145-299h39z"/><glyph unicode="җ" horiz-adv-x="727" d="M242 203L140 0H-6l131 229 34 30-51 38L5 500h139l93-203h43v203h124V287l38 14 94 199h138L565 297l-39-32 51-40 59-110h84v-229h-95L610 0h-61L447 207h-43V0H280v217z"/><glyph unicode="Ҙ" horiz-adv-x="526" d="M120 310v107h46q13 0 26.5.5t26.5 2q13 1.5 21 3.5 35 8 60 28.5t25 55.5q0 48-30.5 65.5T214 590q-45 0-84-12t-59-23L36 671q11 6 31.5 13t47 13.5Q141 704 172 708t63 4q44 0 86-8t75-28q33-20 53-53.5t20-85.5q0-52-27.5-96T353 377v-5q65-13 101.5-56T491 201q0-49-17.5-85.5T427 53q-29-26-67.5-41.5T278-10l-14-165h-88L157-11Q112-6 76 3T18 23l35 119q23-11 66-22.5T221 108q22 0 44.5 5.5t40.5 18q18 12.5 29 32.5t11 48q0 47-35 71t-125 26q-12 1-18 1h-21z"/><glyph unicode="ҙ" horiz-adv-x="432" d="M109 207v91h61q35 0 57.5 14.5T250 350q0 27-19.5 38T170 399q-39 0-69.5-10.5T52 367L24 467q30 17 79.5 29.5T209 509q86 0 128.5-32t42.5-93q0-17-4.5-34.5T361 316q-10-16-24.5-28.5T302 268v-4q53-12 75-42.5t22-81.5q0-51-34-90.5T259-4l-14-171h-88L138-8Q100-4 71.5 5.5T22 27l28 101q23-13 56-21.5t73-8.5q90 0 90 58 0 26-23.5 38.5T158 207z"/><glyph unicode="Қ" horiz-adv-x="635" d="M233 299h-36V0H60v700h137V390l32 14 193 296h156L374 406l-54-38 56-39 146-207h106v-247h-96L517 0h-77z"/><glyph unicode="қ" horiz-adv-x="527" d="M222 207h-35V0H57v500h130V287l31 14 117 199h139L353 310l-51-38 56-39 68-118h93v-229h-95L409 0h-65z"/><glyph unicode="Ҝ" horiz-adv-x="716" d="M251 299h-54V0H60v700h137V390l54 4v133h93V402l22 2 162 296h148L505 406l-54-38 56-39L705 0H546L370 299h-26V172h-93z"/><glyph unicode="ҝ" horiz-adv-x="587" d="M229 207h-42V0H57v500h130V287l42 4v120h76V299l22 2 92 199h136l-96-190-53-38 56-39L572 0H428l-97 207h-26V89h-76z"/><glyph unicode="Ҟ" horiz-adv-x="692" d="M0 643h132v57h137v-57h93v-93h-93V390l54 14 177 296h150L462 406l-64-38 61-39L681 0H512L316 299h-47V0H132v539H0z"/><glyph unicode="ҟ" horiz-adv-x="502" d="M-14 626h82v74h130v-74h153v-80H198V287l30 14 114 199h143L365 310l-51-38 55-39L504 0H355L233 207h-35V0H68v546h-82z"/><glyph unicode="Ҡ" horiz-adv-x="719" d="M159 578H0v122h296V390l32 14 193 296h156L473 406l-54-38 56-39L708 0H539L332 299h-36V0H159v561z"/><glyph unicode="ҡ" horiz-adv-x="540" d="M235 287l32 14 116 199h140L402 310l-52-38 57-39L541 0H392L271 207h-36V0H105v385H-5v115h240z"/><glyph unicode="Ң" horiz-adv-x="696" d="M453 293H197V0H60v700h137V415h256v285h137V122h88v-247h-96L567 0H453z"/><glyph unicode="ң" horiz-adv-x="567" d="M350 197H187V0H57v500h130V312h163v188h130V115h78v-229h-95L448 0h-98z"/><glyph unicode="Ҥ" horiz-adv-x="851" d="M860 578H590V0H453v293H197V0H60v700h137V415h256v285h407z"/><glyph unicode="ҥ" horiz-adv-x="664" d="M668 385H480V0H350v197H187V0H57v500h130V312h163v188h318z"/><glyph unicode="Ҧ" horiz-adv-x="962" d="M579 228V0H442v578H197V0H60v700h519V375q16 6 49.5 14t81.5 8q42 0 81-11.5t69.5-40q30.5-28.5 49-78T928 142q0-129-57-199t-184-70q-27 0-40.5 1t-21.5 3V-5q7-2 23.5-2.5T681-8q51 0 77 35t26 109q0 41-9 68t-25 42.5q-16 15.5-38 22t-48 6.5q-23 0-48-6t-37-12z"/><glyph unicode="ҧ" horiz-adv-x="822" d="M475 0H345v385H187V0H57v500h418V259q16 6 46 13.5t78 7.5q36 0 70-11t60.5-38q26.5-27 42.5-73t16-116q0-63-12-111t-38.5-80q-26.5-32-70-48T561-213q-28 0-41.5 1.5T498-208v112q8-1 24.5-1.5T555-98q98 0 98 132 0 71-26.5 101T555 165q-23 0-46-6t-35-12z"/><glyph unicode="Ҩ" horiz-adv-x="876" d="M355 592q-80 0-126.5-58T182 358q0-58 17.5-104.5T245 175q28-32 63.5-49.5T380 108q11 0 23.5 1t20.5 5q-23 15-43.5 39.5T345 211q-15 33-23.5 72.5T313 367q0 76 18.5 134t52 98q33.5 40 80.5 60.5T569 680q63 0 109.5-21.5T755 599q30-38 44.5-89.5T814 398q0-56-13-103.5T767.5 210Q747 173 722 147.5T674 110q5-1 11.5-1.5t12.5-.5q30 0 57 8.5t46 21.5l42-107Q821 9 786.5-2.5T698-14q-20 0-41 3t-41.5 9q-20.5 6-38 15T547 34q-33-23-73.5-35.5T379-14q-81 0-144 25T128 83q-44 47-67 114.5T38 350q0 175 80.5 269.5T355 714zm102-221q0-30 6.5-61.5t20-60.5q13.5-29 32.5-53.5t45-42.5q23 16 43 40.5t34.5 55q14.5 30.5 23 67T670 392q0 34-5 64.5t-17 53Q636 532 616.5 545T568 558q-51 0-81-46t-30-141z"/><glyph unicode="ҩ" horiz-adv-x="709" d="M272 404q-56-4-81-39.5T166 254q0-36 10-65t27-50q17-21 41-32t52-11q8 0 20 2t19 7q-27 20-47 63t-20 100q0 39 10 80t33.5 74.5Q335 456 374 478t96 22q55 0 92.5-17t60-45.5q22.5-28.5 32.5-66t10-79.5q0-34-9-65t-23-57q-14-26-32-45.5T565 94q22-9 50-3.5t47 23.5l30-89Q672 7 643.5-3.5T571-14q-41 0-72 11.5T447 28Q415 5 374.5-4.5T290-14q-62 0-110 19T99 58.5Q66 93 49 142T32 250q0 58 13 105t42 81.5q29 34.5 74.5 54.5T272 514zm122-136q0-45 17.5-81t47.5-60q32 21 52 62.5t20 95.5q0 45-16.5 75T466 390q-22 0-36-10t-22-26.5q-8-16.5-11-38.5t-3-47z"/><glyph unicode="Ҫ" horiz-adv-x="559" d="M534 29q-24-17-58.5-26.5T403-11l-14-164h-88L282-7q-51 9-95.5 34T109 95.5Q76 139 57 202T38 350q0 103 28.5 172.5t74 112Q186 677 242 695.5T354 714q60 0 101.5-8t68.5-19V571q-50 11-81.5 16t-76.5 5q-83 0-133.5-59T182 350q0-54 12-98.5t36.5-76q24.5-31.5 61-49T376 109q45 0 76 9t54 23z"/><glyph unicode="ҫ" horiz-adv-x="433" d="M411 31Q373 4 317-7l-14-168h-88L196-9q-45 8-76 30T69.5 76.5Q50 110 41.5 154T33 250q0 127 57 195.5T256 514q55 0 88.5-9t60.5-23l-31-106q-23 11-45.5 17t-51.5 6q-54 0-82-35.5T167 250q0-32 7-59t21-47q14-20 36.5-31.5T284 101q33 0 56 8.5t41 20.5z"/><glyph unicode="Ҭ" horiz-adv-x="568" d="M216 578H11v122h546V578H353V122h87v-247h-96L329 0H216z"/><glyph unicode="ҭ" horiz-adv-x="418" d="M142 385H1v115h416V385H276V115h84v-229h-95L250 0H142z"/><glyph unicode="Ү" horiz-adv-x="592" d="M228 260L-2 700h163l128-263 14-74h5l15 76 124 261h147L365 261V0H228z"/><glyph unicode="ү" horiz-adv-x="491" d="M-7 500h151l93-297 18-93h4l14 95 85 295h140L317-1v-199H187V-1z"/><glyph unicode="Ұ" horiz-adv-x="592" d="M73 294h137L-2 700h163l128-263 14-74h5l15 76 124 261h147L382 294h138v-91H365V0H228v203H73z"/><glyph unicode="ұ" horiz-adv-x="491" d="M67 0h119L-7 500h151l93-297 18-93h4l14 95 85 295h140L317 0h120v-80H317v-120H187v120H67z"/><glyph unicode="Ҳ" horiz-adv-x="667" d="M225 356L30 700h165l108-202 24-71 23 71 113 202h149L410 363l140-241h110v-247h-96L549 0h-90L336 216l-27 74-26-74L159 0H10z"/><glyph unicode="ҳ" horiz-adv-x="542" d="M170 256L20 500h155l65-107 28-70 30 70 68 107h141L356 260l90-145h89v-229h-95L425 0h-59l-77 120-30 74-32-74L150 0H8z"/><glyph unicode="Ҵ" horiz-adv-x="838" d="M820-125h-97L708 0H215v578H11v122h483V578H352V122h241v578h137V122h90z"/><glyph unicode="ҵ" horiz-adv-x="647" d="M631-114h-95L521 0H142v385H1v115h376V385H272V115h156v385h130V115h73z"/><glyph unicode="Ҷ" horiz-adv-x="651" d="M409 282q-26-15-69.5-27.5T236 242q-42 0-76.5 10.5t-60 34Q74 310 60 346.5T46 435v265h137V478q0-60 23.5-89.5T284 359q38 0 71.5 8.5T409 393v307h137V122h87v-247h-96L522 0H409z"/><glyph unicode="ҷ" horiz-adv-x="546" d="M163 500V386q0-31 2.5-53.5t10-37q7.5-14.5 21-21.5t35.5-7q29 0 50.5 7t35.5 17v209h130V115h84v-229h-95L422 0H318v196q-15-11-46-24.5T189 158q-37 0-66 8t-49 28q-20 20-30.5 53T33 330v170z"/><glyph unicode="Ҹ" horiz-adv-x="645" d="M272 243q-8-1-15-1h-15q-44 0-80 10.5t-62 34q-26 23.5-40 60T46 435v265h137V478q0-57 20.5-86t68.5-33v118h93V365q25 5 46.5 11.5T447 393v307h137V0H447v282q-27-16-82-28V122h-93z"/><glyph unicode="ҹ" horiz-adv-x="536" d="M223 159q-9-1-17.5-1H188q-37 0-66 8t-49 28q-20 20-30.5 53T32 330v170h130V386q0-56 12-84.5t49-33.5v118h76V273q34 6 51 18v209h130V0H350v196q-15-11-51-22V59h-76z"/><glyph unicode="Һ" horiz-adv-x="606" d="M423 0v222q0 60-23.5 89.5T322 341q-38 0-71.5-8.5T197 307V0H60v700h137V418q26 15 69.5 27.5T370 458q42 0 76.5-10.5t60-34q25.5-23.5 39.5-60t14-88.5V0z"/><glyph unicode="һ" horiz-adv-x="545" d="M363 0v284q0 61-17 88t-62 27q-33 0-60.5-22.5T187 319V0H57v700h130V444h4q24 32 59 51t89 19q38 0 67-10t48.5-33q19.5-23 29-62.5T493 311V0z"/><glyph unicode="Ҽ" horiz-adv-x="794" d="M343 293q3-40 15.5-74t35.5-59q23-25 57.5-38.5T533 108q45 0 82.5 13.5T686 157l35-116Q676 15 623 .5T508-14q-137 0-215.5 78T206 293h-32q-50 1-83 13.5T37.5 340q-20.5 21-29 48.5T0 445q2 49 24 76h115q-12-14-16.5-31t-3.5-31q0-8 3-18t12-18q9-8 26-13t46-2q4 69 24.5 125.5T286 630q35 40 86 62t117 22q134 0 200.5-76.5T756 415q0-28-2.5-58t-7.5-64zm279 115q3 19 3 39 0 31-7.5 58.5t-24 48.5Q577 575 552 587.5T493 600q-73 0-110-49.5T343 408z"/><glyph unicode="ҽ" horiz-adv-x="647" d="M596 43q-30-24-81.5-40.5T405-14q-110 0-166.5 59T173 208h-7q-77 0-118.5 35T6 344v7q1 27 8 43t21 33h109q-14-12-22-28.5t-8-40.5q0-20 12.5-34t49.5-14q14 102 75 153t161 51q38 0 74-10t64-33q28-23 45-62t17-97q0-21-2.5-45t-7.5-50H303q3-63 32-95t95-32q41 0 73.5 12.5T553 128zM410 410q-51 0-74.5-30.5T307 298h184q0 4 .5 8t.5 8q0 46-20.5 71T410 410z"/><glyph unicode="Ҿ" horiz-adv-x="794" d="M343 293q3-40 15.5-74t35.5-59q23-25 57.5-38.5T533 108q45 0 82.5 13.5T686 157l35-116q-37-21-78-34t-88-18l-14-164h-88L434-7Q330 12 271 87.5T206 293h-32q-50 1-83 13.5T37.5 340q-20.5 21-29 48.5T0 445q2 49 24 76h115q-12-14-16.5-31t-3.5-31q0-8 3-18t12-18q9-8 26-13t46-2q4 69 24.5 125.5T286 630q35 40 86 62t117 22q134 0 200.5-76.5T756 415q0-28-2.5-58t-7.5-64zm279 115q3 19 3 39 0 31-7.5 58.5t-24 48.5Q577 575 552 587.5T493 600q-73 0-110-49.5T343 408z"/><glyph unicode="ҿ" horiz-adv-x="647" d="M596 43q-23-18-56.5-31.5T465-9l-14-166h-88L344-8Q264 7 222.5 63T173 208h-7q-77 0-118.5 35T6 344v7q1 27 8 43t21 33h109q-14-12-22-28.5t-8-40.5q0-20 12.5-34t49.5-14q14 102 75 153t161 51q38 0 74-10t64-33q28-23 45-62t17-97q0-21-2.5-45t-7.5-50H303q3-63 32-95t95-32q41 0 73.5 12.5T553 128zM410 410q-51 0-74.5-30.5T307 298h184q0 4 .5 8t.5 8q0 46-20.5 71T410 410z"/><glyph unicode="Ӏ" horiz-adv-x="285" d="M74 700h137V0H74z"/><glyph unicode="Ӄ" horiz-adv-x="611" d="M424 76q0 49-10 90.5T381 237q-23 29-59.5 45.5T233 299h-36V0H60v700h137V390l32 14 193 296h156L381 420l-61-40h52q48-12 82.5-34t56.5-56q22-34 32.5-82.5T554 94V67q0-140-56.5-207T345-207q-29 0-60 6v111h15q63 0 93.5 39T424 76z"/><glyph unicode="ӄ" horiz-adv-x="501" d="M338 27q0 87-28 128.5T222 202h-35V0H57v500h130V283l31 14 117 203h139L352 303l-46-32 41-2q39-11 62.5-34t36.5-53.5q13-30.5 17.5-66T468 45V28q0-123-46.5-180T290-209q-15 0-31.5 1.5T225-202v110q6-1 12-1.5t11-.5q90 0 90 121z"/><glyph unicode="Ӆ" horiz-adv-x="651" d="M426 578H277q-4-95-9-173t-13.5-140.5Q246 202 232 154t-36-83q-14-23-31.5-38T128 9Q109 0 90.5-3.5T56-7Q33-7 17.5-3.5T-13 7v118q21-2 27-3t12-1q16 0 31.5 8T84 156q15 22 26 64.5T129.5 329q8.5 66 13.5 157.5t7 213.5h413V115h98V84l-96-214h-94L516 0h-90z"/><glyph unicode="ӆ" horiz-adv-x="550" d="M329 385h-99q-6-71-14-141t-25.5-125.5Q173 63 143 28.5T65-6Q7-6-17 9l16 108q16-6 30-6 20 0 35 17t25.5 61q10.5 44 17 119.5T116 500h343V115h95V84l-96-198h-94L409 0h-80z"/><glyph unicode="Ӈ" horiz-adv-x="651" d="M590-21q0-91-36-139t-114-48q-14 0-30.5 1.5T376-201v109q4 0 7.5-.5t7.5-.5q21 0 33.5 6t19 18q6.5 12 8 29.5T453 0v293H197V0H60v700h137V415h256v285h137z"/><glyph unicode="ӈ" horiz-adv-x="537" d="M350 197H187V0H57v500h130V312h163v188h130V-21q0-91-36-139t-115-48q-30 0-64 7v109q4 0 7.5-.5t7.5-.5q43 0 56.5 24.5T350 0z"/><glyph unicode="Ӊ" horiz-adv-x="683" d="M453 293H197V0H60v700h137V415h256v285h137V115h103V84l-96-214h-94L548 0h-95z"/><glyph unicode="ӊ" horiz-adv-x="576" d="M350 197H187V0H57v500h130V312h163v188h130V115h101V84l-96-198h-94L436 0h-86z"/><glyph unicode="Ӌ" horiz-adv-x="606" d="M183 700V478q0-60 23.5-89.5T284 359q38 0 71.5 8.5T409 393v307h137V0H434l-15-125h-96v247h86v160q-26-15-69.5-27.5T236 242q-42 0-76.5 10.5t-60 34Q74 310 60 346.5T46 435v265z"/><glyph unicode="ӌ" horiz-adv-x="505" d="M318 207q-15-11-46-22t-83-11q-74 0-115 38.5T33 341v159h130V397q0-28 2.5-49t10-35.5q7.5-14.5 21-21.5t35.5-7q29 0 50.5 7t35.5 17v192h130V0H328l-15-114h-95V98h100z"/><glyph unicode="Ӎ" horiz-adv-x="846" d="M603 363l15 139h-6l-43-112-149-261h-44L219 391l-44 111h-5l20-138V0H60v700h125l187-320 33-80h4l30 82 177 318h124V115h116V84l-96-214h-94L711 0H603z"/><glyph unicode="ӎ" horiz-adv-x="710" d="M485 229l8 104h-5l-40-86-94-155h-47L204 247l-38 86h-6l13-103V0H57v500h135l115-188 28-63h4l29 65 106 186h136V115h105V84l-96-198h-94L570 0h-85z"/><glyph unicode="ӏ" horiz-adv-x="262" d="M66 700h130V0H66z"/><glyph unicode="Ӑ" horiz-adv-x="605" d="M405 155H190L137 0H0l252 705h101L605 0H461zM225 265h150l-52 156-21 110h-5l-21-111zm4 609q4-32 23.5-46t50.5-14q67 0 74 59l111-17q-11-63-57.5-92T302 735q-41 0-75 6t-59.5 19.5Q142 774 125.5 797T105 854z"/><glyph unicode="ӑ" horiz-adv-x="496" d="M54 471q40 18 95 28.5T264 510q52 0 87-12.5t55.5-35.5q20.5-23 29-55t8.5-72q0-44-3-88.5t-3.5-87.5q-.5-43 2.5-83.5T455-1H349l-21 69h-5q-20-31-55.5-53.5T176-8q-35 0-63 10.5t-48 30Q45 52 34 78.5T23 138q0 46 20.5 77.5t59 51q38.5 19.5 92 27T314 298q7 56-8 80.5T239 403q-39 0-82.5-8T85 374zM219 99q39 0 62 17.5t34 37.5v65q-31 3-59.5 1t-50.5-9q-22-7-35-20t-13-33q0-28 16.5-43.5T219 99zm-32 605q7-39 23.5-55t42.5-16q28 0 44.5 16t22.5 54l99-25q-12-65-59-96.5T250 550q-31 0-60 7t-52 22.5Q115 595 99 619t-22 59z"/><glyph unicode="Ӓ" horiz-adv-x="605" d="M405 155H190L137 0H0l252 705h101L605 0H461zM225 265h150l-52 156-21 110h-5l-21-111zM119 798q0 26 18 42t58 16q39 0 57-16t18-42q0-26-18-41.5T195 741q-40 0-58 15.5T119 798zm214 0q0 26 18 42t57 16q40 0 58-16t18-42q0-26-18-41.5T408 741q-39 0-57 15.5T333 798z"/><glyph unicode="ӓ" horiz-adv-x="496" d="M54 471q40 18 95 28.5T264 510q52 0 87-12.5t55.5-35.5q20.5-23 29-55t8.5-72q0-44-3-88.5t-3.5-87.5q-.5-43 2.5-83.5T455-1H349l-21 69h-5q-20-31-55.5-53.5T176-8q-35 0-63 10.5t-48 30Q45 52 34 78.5T23 138q0 46 20.5 77.5t59 51q38.5 19.5 92 27T314 298q7 56-8 80.5T239 403q-39 0-82.5-8T85 374zM219 99q39 0 62 17.5t34 37.5v65q-31 3-59.5 1t-50.5-9q-22-7-35-20t-13-33q0-28 16.5-43.5T219 99zM67 631q0 32 19.5 51t51.5 19q32 0 50.5-19t18.5-51q0-30-18.5-49T138 563q-32 0-51.5 19T67 631zm219 0q0 32 18.5 51t50.5 19q32 0 51.5-19t19.5-51q0-30-19.5-49T355 563q-32 0-50.5 19T286 631z"/><glyph unicode="Ӕ" horiz-adv-x="862" d="M394 532l-36-103-84-148h126v251zm6-362H214L115 0H-29l424 700h419V578H537V415h252V293H537V122h282V0H400z"/><glyph unicode="ӕ" horiz-adv-x="785" d="M219 99q39 0 62 17.5t34 37.5v65q-31 3-59.5 1t-50.5-9q-22-7-35-20t-13-33q0-28 16.5-43.5T219 99zm131-23q-27-34-66.5-59T176-8q-35 0-63 10.5t-48 30Q45 52 34 78.5T23 138q0 46 20.5 77.5t58.5 51q38 19.5 91.5 27T313 298q7 56-7.5 80.5T239 403q-39 0-79.5-10.5T88 367l-34 94q38 20 94 34.5T264 510q52 0 83-13.5t51-40.5q25 28 65 43t87 15q38 0 74-10t64-33q28-23 45-62t17-97q0-21-2.5-44.5T740 217H439q4-63 33.5-95T568 90q41 0 73.5 12.5T691 128l43-85q-30-24-81.5-40.5T543-14q-64 0-112.5 23.5T355 76zm198 334q-51 0-75.5-30.5T443 298h187q3 54-17 83t-65 29z"/><glyph unicode="Ӗ" horiz-adv-x="522" d="M60 700h415V578H197V415h253V293H197V122h283V0H60zm138 174q4-32 23.5-46t50.5-14q67 0 74 59l111-17q-11-63-57.5-92T271 735q-41 0-75 6t-59.5 19.5Q111 774 94.5 797T74 854z"/><glyph unicode="ӗ" horiz-adv-x="508" d="M457 43q-30-24-81.5-40.5T266-14Q145-14 89 56.5T33 250q0 132 63 198t177 66q38 0 74-10t64-33q28-23 45-62t17-97q0-21-2.5-45t-7.5-50H163q3-63 32.5-95T291 90q41 0 73.5 12.5T414 128zM271 410q-51 0-75.5-30.5T166 298h186q4 54-16.5 83T271 410zm-72 294q7-39 23.5-55t42.5-16q28 0 44.5 16t22.5 54l99-25q-12-65-59-96.5T262 550q-31 0-60 7t-52 22.5Q127 595 111 619t-22 59z"/><glyph unicode="Ә" horiz-adv-x="630" d="M184 296q-3-20-3-38 0-31 7.5-59.5t23-50.5q15.5-22 39.5-35.5T309 99q70 0 107.5 50T454 296zm271 113q-6 87-49 135t-133 48q-52 0-92-15.5T118 547L89 664q15 9 37.5 18t50 16q27.5 7 58 11.5T296 714q69 0 124-20.5t93.5-65Q552 584 572 515t20-165q0-85-16.5-152.5T523.5 83q-35.5-47-90-72T303-14q-68 0-118 22t-83 62q-33 40-49 96T37 290q0 28 2.5 57.5T47 409z"/><glyph unicode="ә" horiz-adv-x="508" d="M50 457q30 24 81.5 40.5T241 514q60 0 104-19t72.5-53.5Q446 407 460 358t14-108q0-127-62-195.5T243-14q-39 0-76.5 11t-67 36Q70 58 52 99.5T34 201q0 42 10 91h303q-5 62-34.5 90T217 410q-41 0-72.5-14.5T96 369zM242 90q50 0 75.5 34.5T344 211H155q-5-54 18.5-87.5T242 90z"/><glyph unicode="Ӛ" horiz-adv-x="630" d="M184 296q-3-20-3-38 0-31 7.5-59.5t23-50.5q15.5-22 39.5-35.5T309 99q70 0 107.5 50T454 296zm271 113q-6 87-49 135t-133 48q-52 0-92-15.5T118 547L89 664q15 9 37.5 18t50 16q27.5 7 58 11.5T296 714q69 0 124-20.5t93.5-65Q552 584 572 515t20-165q0-85-16.5-152.5T523.5 83q-35.5-47-90-72T303-14q-68 0-118 22t-83 62q-33 40-49 96T37 290q0 28 2.5 57.5T47 409zM127 798q0 26 18 42t58 16q39 0 57-16t18-42q0-26-18-41.5T203 741q-40 0-58 15.5T127 798zm214 0q0 26 18 42t57 16q40 0 58-16t18-42q0-26-18-41.5T416 741q-39 0-57 15.5T341 798z"/><glyph unicode="ӛ" horiz-adv-x="508" d="M48 457q30 24 81.5 40.5T239 514q60 0 104-19t72.5-53.5Q444 407 458 358t14-108q0-127-62-195.5T241-14q-39 0-76.5 11t-67 36Q68 58 50 99.5T32 201q0 42 10 91h303q-5 62-34.5 90T215 410q-41 0-72.5-14.5T94 369zM240 90q50 0 75.5 34.5T342 211H153q-5-54 18.5-87.5T240 90zM64 631q0 32 19.5 51t51.5 19q32 0 50.5-19t18.5-51q0-30-18.5-49T135 563q-32 0-51.5 19T64 631zm219 0q0 32 18.5 51t50.5 19q32 0 51.5-19t19.5-51q0-30-19.5-49T352 563q-32 0-50.5 19T283 631z"/><glyph unicode="Ӝ" horiz-adv-x="839" d="M350 700h130V389l35 14 145 297h154L651 393l-47-34 57-42L845 0H680L519 304h-39V0H350v316l-36-14L153 0H-7l183 307 54 39-52 37L7 700h159l145-299h39zm-115 98q0 26 18 42t58 16q39 0 57-16t18-42q0-26-18-41.5T311 741q-40 0-58 15.5T235 798zm214 0q0 26 18 42t57 16q40 0 58-16t18-42q0-26-18-41.5T524 741q-39 0-57 15.5T449 798z"/><glyph unicode="ӝ" horiz-adv-x="693" d="M242 203L140 0H-6l131 229 34 30-51 38L5 500h139l93-203h43v203h124V287l38 14 94 199h138L565 297l-39-32 51-40L698 0H549L447 207h-43V0H280v217zm-77 428q0 32 19.5 51t51.5 19q32 0 50.5-19t18.5-51q0-30-18.5-49T236 563q-32 0-51.5 19T165 631zm219 0q0 32 18.5 51t50.5 19q32 0 51.5-19t19.5-51q0-30-19.5-49T453 563q-32 0-50.5 19T384 631z"/><glyph unicode="Ӟ" horiz-adv-x="526" d="M120 310v107h46q13 0 26.5.5t26.5 2q13 1.5 21 3.5 35 8 60 28.5t25 55.5q0 48-30.5 65.5T214 590q-45 0-84-12t-59-23L36 671q11 6 31.5 13t47 13.5Q141 704 172 708t63 4q44 0 86-8t75-28q33-20 53-53.5t20-85.5q0-52-27.5-96T353 377v-5q65-13 101.5-56T491 201q0-57-23-97.5T407.5 37Q370 11 321-1.5T221-14q-66 0-120 11T18 23l35 119q23-11 66-22.5T221 108q22 0 44.5 5.5t40.5 18q18 12.5 29 32.5t11 48q0 47-35 71t-125 26q-12 1-18 1h-21zM57 798q0 26 18 42t58 16q39 0 57-16t18-42q0-26-18-41.5T133 741q-40 0-58 15.5T57 798zm214 0q0 26 18 42t57 16q40 0 58-16t18-42q0-26-18-41.5T346 741q-39 0-57 15.5T271 798z"/><glyph unicode="ӟ" horiz-adv-x="432" d="M109 207v91h61q35 0 57.5 14t22.5 37q0 27-20 38.5T169 399q-39 0-69-10t-48-21l-28 99q30 17 79.5 29.5T209 509q86 0 128.5-32t42.5-93q0-17-4.5-34.5T361 316q-10-16-24.5-28.5T302 268v-4q53-12 75-42.5t22-81.5q0-32-13-59.5T346.5 33Q320 13 280 1t-95-12Q130-11 89.5.5T22 27l28 101q23-13 55.5-21t72.5-8q91 0 91 58 0 26-23.5 38T158 207zM18 631q0 32 19.5 51T89 701q32 0 50.5-19t18.5-51q0-30-18.5-49T89 563q-32 0-51.5 19T18 631zm219 0q0 32 18.5 51t50.5 19q32 0 51.5-19t19.5-51q0-30-19.5-49T306 563q-32 0-50.5 19T237 631z"/><glyph unicode="Ӡ" horiz-adv-x="548" d="M222 108q30 0 56 7t45.5 21q19.5 14 30.5 34t11 47q0 57-44 80t-129 23h-81v58l156 174 45 43-59-12H46v117h431v-75L307 437l-45-32v-4l46 10q44 0 80.5-12.5T451 362q26-24 40.5-60.5T506 217q0-54-19.5-96.5T431 48q-36-30-86.5-46T231-14q-22 0-49 2.5t-54 7Q101 0 76 7.5T34 25l32 120q14-8 32.5-14.5T138 119q21-5 42.5-8t41.5-3z"/><glyph unicode="ӡ" horiz-adv-x="484" d="M191-102q59 0 96 28.5T324 7q0 111-160 111h-64v53l117 177 54 49-73-7H27v110h396v-70L284 245l-40-29v-2l31 3q34 0 66.5-13.5T399 165q25-25 40-61t15-81q0-55-19.5-98.5t-55-74Q344-180 294-196t-111-16q-45 0-90 10t-83 32L56-67q27-14 59.5-24.5T191-102z"/><glyph unicode="Ӣ" horiz-adv-x="666" d="M468 388l8 91h-5l-47-94L163 0H60v700h137V319l-10-94h6l49 97 261 378h102V0H468zM166 856h343v-89H166z"/><glyph unicode="ӣ" horiz-adv-x="545" d="M358 228l5 71h-3l-43-73L139 0H57v500h130V262l-6-68h4l41 71 180 235h82V0H358zM114 658h323v-92H114z"/><glyph unicode="Ӥ" horiz-adv-x="666" d="M468 388l8 91h-5l-47-94L163 0H60v700h137V319l-10-94h6l49 97 261 378h102V0H468zM150 798q0 26 18 42t58 16q39 0 57-16t18-42q0-26-18-41.5T226 741q-40 0-58 15.5T150 798zm214 0q0 26 18 42t57 16q40 0 58-16t18-42q0-26-18-41.5T439 741q-39 0-57 15.5T364 798z"/><glyph unicode="ӥ" horiz-adv-x="545" d="M358 228l5 71h-3l-43-73L139 0H57v500h130V262l-6-68h4l41 71 180 235h82V0H358zM103 631q0 32 19.5 51t51.5 19q32 0 50.5-19t18.5-51q0-30-18.5-49T174 563q-32 0-51.5 19T103 631zm219 0q0 32 18.5 51t50.5 19q32 0 51.5-19t19.5-51q0-30-19.5-49T391 563q-32 0-50.5 19T322 631z"/><glyph unicode="Ӧ" horiz-adv-x="670" d="M38 350q0 175 77 269.5T335 714q75 0 131-26t93-74q37-48 55-115t18-149q0-175-77.5-269.5T335-14q-76 0-132 26t-92.5 74Q74 134 56 201T38 350zm144 0q0-53 9-97.5t27.5-76.5q18.5-32 47.5-50t69-18q73 0 113 57t40 185q0 51-8.5 95T453 522q-18 33-47 51.5T335 592q-73 0-113-58.5T182 350zm-30 448q0 26 18 42t58 16q39 0 57-16t18-42q0-26-18-41.5T228 741q-40 0-58 15.5T152 798zm214 0q0 26 18 42t57 16q40 0 58-16t18-42q0-26-18-41.5T441 741q-39 0-57 15.5T366 798z"/><glyph unicode="ӧ" horiz-adv-x="537" d="M33 250q0 127 62 195.5T269 514q60 0 104-19t73-53.5q29-34.5 43.5-83.5T504 250q0-127-61.5-195.5T269-14q-60 0-104 19T91.5 58.5Q62 93 47.5 142T33 250zm134 0q0-33 6-61t18-49q12-21 31.5-32.5T269 96q51 0 76 37t25 117q0 69-23 111.5T269 404q-48 0-75-36t-27-118zM88 631q0 32 19.5 51t51.5 19q32 0 50.5-19t18.5-51q0-30-18.5-49T159 563q-32 0-51.5 19T88 631zm219 0q0 32 18.5 51t50.5 19q32 0 51.5-19t19.5-51q0-30-19.5-49T376 563q-32 0-50.5 19T307 631z"/><glyph unicode="Ө" horiz-adv-x="670" d="M38 350q0 175 77 269.5T335 714q75 0 131-26t93-74q37-48 55-115t18-149q0-175-77.5-269.5T335-14q-76 0-132 26t-92.5 74Q74 134 56 201T38 350zm450 57q-8 89-48 137t-105 48q-29 0-55-10t-46.5-32q-20.5-22-34-57.5T182 407zM182 297q8-95 49-142t104-47q29 0 55.5 9.5t47 31q20.5 21.5 34 57.5t16.5 91z"/><glyph unicode="ө" horiz-adv-x="537" d="M33 250q0 127 62 195.5T269 514q60 0 104-19t73-53.5q29-34.5 43.5-83.5T504 250q0-127-61.5-195.5T269-14q-60 0-104 19T91.5 58.5Q62 93 47.5 142T33 250zm337 39q-8 60-33.5 87.5T269 404q-19 0-36-6t-30.5-19.5Q189 365 179.5 343T167 289zm-203-82q6-54 34-82.5T269 96q38 0 66.5 24.5T370 207z"/><glyph unicode="Ӫ" horiz-adv-x="670" d="M38 350q0 175 77 269.5T335 714q75 0 131-26t93-74q37-48 55-115t18-149q0-175-77.5-269.5T335-14q-76 0-132 26t-92.5 74Q74 134 56 201T38 350zm450 57q-8 89-48 137t-105 48q-29 0-55-10t-46.5-32q-20.5-22-34-57.5T182 407zM182 297q8-95 49-142t104-47q29 0 55.5 9.5t47 31q20.5 21.5 34 57.5t16.5 91zm-29 501q0 26 18 42t58 16q39 0 57-16t18-42q0-26-18-41.5T229 741q-40 0-58 15.5T153 798zm214 0q0 26 18 42t57 16q40 0 58-16t18-42q0-26-18-41.5T442 741q-39 0-57 15.5T367 798z"/><glyph unicode="ӫ" horiz-adv-x="537" d="M33 250q0 127 62 195.5T269 514q60 0 104-19t73-53.5q29-34.5 43.5-83.5T504 250q0-127-61.5-195.5T269-14q-60 0-104 19T91.5 58.5Q62 93 47.5 142T33 250zm337 39q-8 60-33.5 87.5T269 404q-19 0-36-6t-30.5-19.5Q189 365 179.5 343T167 289zm-203-82q6-54 34-82.5T269 96q38 0 66.5 24.5T370 207zM88 631q0 32 19.5 51t51.5 19q32 0 50.5-19t18.5-51q0-30-18.5-49T159 563q-32 0-51.5 19T88 631zm219 0q0 32 18.5 51t50.5 19q32 0 51.5-19t19.5-51q0-30-19.5-49T376 563q-32 0-50.5 19T307 631z"/><glyph unicode="Ӭ" horiz-adv-x="574" d="M130 410h269q-3 40-16.5 73.5T346 541q-23 24-57 37.5T212 592q-54 0-94-11.5T53 555L24 671q35 18 88 30.5T217 714q69 0 127.5-19t101-62.5Q488 589 512 519.5T536 350q0-104-28-174T433 64Q386 22 325 4T198-14Q141-14 94.5-4T20 19l36 119q23-11 62-20.5t90-9.5q39 0 72 11t58.5 34.5Q364 177 380 213t20 87H130zM47 798q0 26 18 42t58 16q39 0 57-16t18-42q0-26-18-41.5T123 741q-40 0-58 15.5T47 798zm214 0q0 26 18 42t57 16q40 0 58-16t18-42q0-26-18-41.5T336 741q-39 0-57 15.5T261 798z"/><glyph unicode="ӭ" horiz-adv-x="459" d="M109 300h186q-5 50-33 77t-83 27q-38 0-67-9t-51-21l-35 94q66 46 178 46t167-66.5Q426 381 426 250q0-132-62-198T194-14q-47 0-95 9.5T23 22l32 102q23-13 54.5-20.5T173 96q64 0 91 27t32 84H109zM23 631q0 32 19.5 51T94 701q32 0 50.5-19t18.5-51q0-30-18.5-49T94 563q-32 0-51.5 19T23 631zm219 0q0 32 18.5 51t50.5 19q32 0 51.5-19t19.5-51q0-30-19.5-49T311 563q-32 0-50.5 19T242 631z"/><glyph unicode="Ӯ" horiz-adv-x="568" d="M294 391l20-91h6l16 94 105 306h141L396 216q-22-57-42.5-99t-44-69.5Q286 20 257 6.5T189-7q-33 0-53.5 4.5T91 17l35 111q17-9 31-11t30-2q47 0 66 74L-9 700h161zM126 856h343v-89H126z"/><glyph unicode="ӯ" horiz-adv-x="478" d="M239 219l18-78h6l13 79 76 280h134L334 49Q315-7 297.5-53.5T259-134q-21-34-46.5-52.5T152-205q-52 0-83 17L93-84q15-6 30-6 23 0 44.5 19.5T200 0L-9 500h156zM86 658h323v-92H86z"/><glyph unicode="Ӱ" horiz-adv-x="568" d="M294 391l20-91h6l16 94 105 306h141L396 216q-22-57-42.5-99t-44-69.5Q286 20 257 6.5T189-7q-33 0-53.5 4.5T91 17l35 111q17-9 31-11t30-2q47 0 66 74L-9 700h161zM123 798q0 26 18 42t58 16q39 0 57-16t18-42q0-26-18-41.5T199 741q-40 0-58 15.5T123 798zm214 0q0 26 18 42t57 16q40 0 58-16t18-42q0-26-18-41.5T412 741q-39 0-57 15.5T337 798z"/><glyph unicode="ӱ" horiz-adv-x="478" d="M239 219l18-78h6l13 79 76 280h134L334 49Q315-7 297.5-53.5T259-134q-21-34-46.5-52.5T152-205q-52 0-83 17L93-84q15-6 30-6 23 0 44.5 19.5T200 0L-9 500h156zM72 631q0 32 19.5 51t51.5 19q32 0 50.5-19t18.5-51q0-30-18.5-49T143 563q-32 0-51.5 19T72 631zm219 0q0 32 18.5 51t50.5 19q32 0 51.5-19t19.5-51q0-30-19.5-49T360 563q-32 0-50.5 19T291 631z"/><glyph unicode="Ӳ" horiz-adv-x="568" d="M294 391l20-91h6l16 94 105 306h141L396 216q-22-57-42.5-99t-44-69.5Q286 20 257 6.5T189-7q-33 0-53.5 4.5T91 17l35 111q17-9 31-11t30-2q47 0 66 74L-9 700h161zm-92 459h134v-16l-100-93h-93zm198 0h140v-16l-143-93h-94z"/><glyph unicode="ӳ" horiz-adv-x="478" d="M239 219l18-78h6l13 79 76 280h134L334 49Q315-7 297.5-53.5T259-134q-21-34-46.5-52.5T152-205q-52 0-83 17L93-84q15-6 30-6 23 0 44.5 19.5T200 0L-9 500h156zm-78 481h119v-16l-76-113h-78zm178 0h126v-16L347 571h-81z"/><glyph unicode="Ӵ" horiz-adv-x="606" d="M183 700V478q0-60 23.5-89.5T284 359q38 0 71.5 8.5T409 393v307h137V0H409v282q-26-15-69.5-27.5T236 242q-42 0-76.5 10.5t-60 34Q74 310 60 346.5T46 435v265zm-62 98q0 26 18 42t58 16q39 0 57-16t18-42q0-26-18-41.5T197 741q-40 0-58 15.5T121 798zm214 0q0 26 18 42t57 16q40 0 58-16t18-42q0-26-18-41.5T410 741q-39 0-57 15.5T335 798z"/><glyph unicode="ӵ" horiz-adv-x="505" d="M163 500V386q0-31 2.5-53.5t10-37q7.5-14.5 21-21.5t35.5-7q29 0 50.5 7t35.5 17v209h130V0H318v196q-15-11-46-24.5T189 158q-37 0-66 8t-49 28q-20 20-30.5 53T33 330v170zM60 631q0 32 19.5 51t51.5 19q32 0 50.5-19t18.5-51q0-30-18.5-49T131 563q-32 0-51.5 19T60 631zm219 0q0 32 18.5 51t50.5 19q32 0 51.5-19t19.5-51q0-30-19.5-49T348 563q-32 0-50.5 19T279 631z"/><glyph unicode="Ӷ" horiz-adv-x="458" d="M467 578H197V122h88v-247h-96L174 0H60v700h407z"/><glyph unicode="ӷ" horiz-adv-x="376" d="M57 500h323V385H191V115h90v-229h-95L171 0H57z"/><glyph unicode="Ӹ" horiz-adv-x="798" d="M600 700h137V0H600zm-540 0h137V449q11 2 35 5t47 3q50 0 95.5-10t79.5-35.5q34-25.5 54-69T528 233q0-122-71-182.5T246-10q-14 0-36 .5T162.5-7Q137-5 110-2T60 7zm196-588q57 0 92.5 26.5T384 227q0 33-10 54t-27 33q-17 12-40 16.5t-50 4.5q-14 0-33-2.5t-27-5.5V118q11-3 26.5-4.5T256 112zm-44 686q0 26 18 42t58 16q39 0 57-16t18-42q0-26-18-41.5T288 741q-40 0-58 15.5T212 798zm214 0q0 26 18 42t57 16q40 0 58-16t18-42q0-26-18-41.5T501 741q-39 0-57 15.5T426 798z"/><glyph unicode="ӹ" horiz-adv-x="703" d="M187 109q30-6 57-6 45 0 63 16.5t18 51.5q0 32-18 48.5T247 236q-33 0-60-7zm0 213q24 4 48.5 5.5T280 329q51 0 85-11.5t55-32.5q21-21 30-49.5t9-61.5q0-45-12-79t-39-56.5q-27-22.5-70-34T232-7q-57 0-98.5 2T57 0v500h130zm329 178h130V0H516zM164 631q0 32 19.5 51t51.5 19q32 0 50.5-19t18.5-51q0-30-18.5-49T235 563q-32 0-51.5 19T164 631zm219 0q0 32 18.5 51t50.5 19q32 0 51.5-19t19.5-51q0-30-19.5-49T452 563q-32 0-50.5 19T383 631z"/><glyph unicode="Ӽ" horiz-adv-x="633" d="M452-21q0 34-15 66t-29 55l-71 116-28 74-26-74L159 0H10l215 356L30 700h165l108-202 24-71 23 71 113 202h149L410 363l130-213q25-39 39-83t14-87q0-91-40.5-139T431-207q-15 0-31.5 1.5T366-200v109q4 0 7.5-.5t7.5-.5q43 0 57 21t14 50z"/><glyph unicode="ӽ" horiz-adv-x="525" d="M443 128q22-32 37-74t15-79q0-88-38-135.5T339-208q-31 0-65 7v104q5-1 9.5-1h9.5q42 0 57.5 18T365-32q0 27-12.5 53.5T326 69l-34 51-34 72-31-72L150 0H8l162 256L20 500h155l65-107 28-70 30 70 68 107h141L356 260z"/><glyph unicode="Ԑ" horiz-adv-x="526" d="M384 310h-21q-6 0-18-1-88-2-124.5-28T184 209q0-26 10.5-45t28-31.5q17.5-12.5 41-18.5t50.5-6q51 0 92.5 12.5T471 144l37-108q-14-9-35.5-17.5T424 2.5q-27-7.5-57.5-12T303-14q-60 0-108.5 12.5t-83 38q-34.5 25.5-53 65T40 195q0 73 35.5 117.5T176 370v5q-58 22-86 66t-28 96q0 48 19.5 81.5t53 54.5q33.5 21 77 30t91.5 9q29 0 58.5-4t55-10.5q25.5-6.5 46-14T494 669l-36-109q-25 11-63 20.5t-74 9.5q-55 0-85-18t-30-60q0-20 8-35t20.5-26q12.5-11 29-18t34.5-10q17-5 44-5.5t45-.5h24V310z"/><glyph unicode="ԑ" horiz-adv-x="432" d="M274 207q-32 0-53.5-3t-34.5-9.5q-13-6.5-18-16t-5-22.5q0-26 22.5-41.5T253 99q40 0 73 9t56 23l28-101q-26-15-67-28t-96-13Q137-11 85 31.5T33 140q0 51 23.5 80.5T130 264v4q-40 14-59 45.5T52 380q0 64 46 96.5T223 509q62 0 108.5-12.5T408 467l-28-99q-18 11-48.5 21T262 399q-41 0-60.5-11T182 350q0-23 22.5-37.5T262 298h61v-91z"/><glyph unicode="Ԓ" horiz-adv-x="634" d="M574-21q0-91-36-139t-114-48q-14 0-30.5 1.5T360-201v109q5 0 8.5-.5t7.5-.5q21 0 33 6t18 17.5q6 11.5 8 29T437 0v578H288q-4-95-9.5-173t-15-140.5Q254 202 239.5 154T204 71q-15-23-32-38T137 9q-18-9-36-12.5T67-7Q44-7 23-3T-13 8L9 125q13-5 27-5 15 0 30.5 8T95 156q15 22 26 64.5T140.5 329q8.5 66 13.5 157.5t7 213.5h413z"/><glyph unicode="ԓ" horiz-adv-x="515" d="M329 385h-99q-6-71-14-141t-25.5-125.5Q173 63 143 28.5T65-6Q7-6-17 9l16 108q16-6 30-6 20 0 35 17t25.5 61q10.5 44 17 119.5T116 500h343V-21q0-91-36-139t-115-48q-30 0-64 7v109q4 0 7.5-.5t7.5-.5q43 0 56.5 24.5T329 0z"/><glyph unicode="Ԝ" horiz-adv-x="862" d="M242 309l13-124h4l14 126 122 389h90l120-391 14-124h4l15 126 85 389h139L669-5h-92L452 384l-17 107h-5l-17-108L289-5h-97L0 700h149z"/><glyph unicode="ԝ" horiz-adv-x="721" d="M419 500l91-256 18-83h4l14 84 64 255h119L575-5h-96L378 275l-13 63h-5l-12-64L252-5h-99L-8 500h141l73-251 12-89h5l17 90 83 250z"/><glyph unicode="Ԥ" horiz-adv-x="684" d="M442 578H197V0H60v700h519V122h87v-247h-96L555 0H442z"/><glyph unicode="ԥ" horiz-adv-x="574" d="M345 385H187V0H57v500h418V115h83v-229h-95L448 0H345z"/><glyph unicode="Ԧ" horiz-adv-x="661" d="M423 222q0 60-23.5 89.5T322 341q-38 0-71.5-8.5T197 307V0H60v700h137V418q26 15 69.5 27.5T370 458q42 0 76.5-10.5t60-34q25.5-23.5 39.5-60t14-88.5V122h88v-247h-96L537 0H423z"/><glyph unicode="ԧ" horiz-adv-x="590" d="M493 115h80v-229h-95L463 0H363v284q0 61-17 88t-62 27q-33 0-60.5-22.5T187 319V0H57v700h130V444h4q24 32 59 51t89 19q38 0 67-10t48.5-33q19.5-23 29-62.5T493 311z"/><glyph unicode="Ԯ" horiz-adv-x="669" d="M426 578H277q-4-95-9-173t-13.5-140.5Q246 202 232 154t-36-83q-14-23-31.5-38T128 9Q109 0 90.5-3.5T56-7Q33-7 17.5-3.5T-13 7v118q21-2 27-3t12-1q16 0 31.5 8T84 156q15 22 26 64.5T129.5 329q8.5 66 13.5 157.5t7 213.5h413V122h88v-247h-96L540 0H426z"/><glyph unicode="ԯ" horiz-adv-x="563" d="M329 385h-99q-6-71-14-141t-25.5-125.5Q173 63 143 28.5T65-6Q7-6-17 9l16 108q16-6 30-6 20 0 35 17t25.5 61q10.5 44 17 119.5T116 500h343V115h88v-229h-95L437 0H329z"/><glyph unicode="Ḱ" horiz-adv-x="620" d="M233 299h-36V0H60v700h137V390l32 14 193 296h156L374 406l-54-38 56-39L609 0H440zm77 571h159v-30l-160-88H206z"/><glyph unicode="ḱ" horiz-adv-x="491" d="M222 207h-35V0H57v700h130V287l30 14 114 199h143L354 310l-51-38 55-39L493 0H344zm77 513h132v-30L320 566h-74z"/><glyph unicode="Ḿ" horiz-adv-x="800" d="M603 363l15 139h-6l-43-112-149-261h-44L219 391l-44 111h-5l20-138V0H60v700h125l187-320 33-80h4l30 82 177 318h124V0H603zM422 870h159v-30l-160-88H318z"/><glyph unicode="ḿ" horiz-adv-x="805" d="M341 0v272q0 69-13 98t-54 29q-34 0-55-18.5T187 333V0H57v500h101l15-66h4q23 32 58.5 56t91.5 24q48 0 78.5-19.5T453 429q23 39 59 62t87 23q42 0 71.5-10t48-34.5Q737 445 746 404t9-104V0H625v281q0 59-12.5 88.5T557 399q-35 0-55.5-19T471 328V0zm58 720h132v-30L420 566h-74z"/><glyph unicode="Ṕ" horiz-adv-x="572" d="M60 693q42 8 92.5 12.5T253 710q52 0 104.5-8.5t94.5-34q42-25.5 68.5-71T547 478q0-66-23-111.5T463 292q-38-29-86.5-42T276 237h-16q-11 0-23 .5t-23.5 1.5q-11.5 1-16.5 2V0H60zm204-101q-20 0-38-1.5t-29-3.5V360q4-1 12-2t17-1.5q9-.5 17.5-.5H256q27 0 53.5 5t47.5 18.5q21 13.5 33.5 37.5t12.5 63q0 33-12 54.5T359.5 569Q340 582 315 587t-51 5zm28 278h159v-30l-160-88H188z"/><glyph unicode="ṕ" horiz-adv-x="540" d="M57 500h95l15-60h4q26 38 61.5 56t86.5 18q94 0 141-59.5T507 263q0-64-15-115.5T447.5 60q-29.5-36-72-55T278-14q-31 0-51 4.5T187 5v-205H57zm223-96q-38 0-59.5-19T187 328V120q14-11 30.5-17.5T261 96q56 0 84 39.5T373 266q0 66-22 102t-71 36zm-16 316h132v-30L285 566h-74z"/><glyph unicode="ẞ" horiz-adv-x="672" d="M419 570q-18 16-48.5 25t-67.5 9q-35 0-56-12.5t-32-35q-11-22.5-14.5-54T197 433V0H60v478q0 57 13 100.5t42.5 73.5q29.5 30 76 45.5T304 713q51 0 91.5-7.5t74-21q33.5-13.5 61.5-31t55-37.5L451 437l-35-29v-5l35 8q81-6 129.5-55T629 217q0-108-61.5-169.5T388-14q-14 0-34 2t-40.5 6Q293-2 275 3t-28 10l27 114q10-5 24-8.5t28.5-5.5q14.5-2 28.5-3.5t25-1.5q50 0 77.5 27.5T485 215q0 55-37 80t-113 25h-50v83z"/><glyph unicode="‑" horiz-adv-x="360" d="M54 345h251V230H54z"/><glyph unicode="–" horiz-adv-x="660" d="M109 346h442V231H109z"/><glyph unicode="—" horiz-adv-x="820" d="M109 346h602V231H109z"/><glyph unicode="‘" horiz-adv-x="223" d="M185 527q0-29-19.5-46.5T117 463q-37 0-58 23.5T38 549q0 40 12.5 68t30 46.5Q98 682 117 692.5t33 15.5l32-54q-20-8-34-25.5T132 591q20 0 36.5-17.5T185 527z"/><glyph unicode="’" horiz-adv-x="223" d="M38 643q0 29 19.5 47t49.5 18q36 0 57-24t21-63q0-40-12.5-68t-30-46.5Q125 488 105.5 478T73 463l-33 55q20 9 35.5 23.5T93 579q-20-1-37.5 15.5T38 643z"/><glyph unicode="‚" horiz-adv-x="223" d="M38 60q0 29 19.5 47t49.5 18q36 0 57-24t21-63q0-40-12.5-68t-30-46.5Q125-95 105.5-105T73-120L40-65q20 9 35.5 23.5T93-4Q73-5 55.5 11.5T38 60z"/><glyph unicode="“" horiz-adv-x="396" d="M358 527q0-29-19.5-46.5T290 463q-37 0-58 23.5T211 549q0 40 12.5 68t30 46.5q17.5 18.5 36.5 29t33 15.5l32-54q-20-8-34-25.5T305 591q20 0 36.5-17.5T358 527zm-173 0q0-29-19.5-46.5T117 463q-37 0-58 23.5T38 549q0 40 12.5 68t30 46.5Q98 682 117 692.5t33 15.5l32-54q-20-8-34-25.5T132 591q20 0 36.5-17.5T185 527z"/><glyph unicode="”" horiz-adv-x="396" d="M211 643q0 29 19.5 47t49.5 18q36 0 57-24t21-63q0-40-12.5-68t-30-46.5Q298 488 278.5 478T246 463l-33 55q20 9 35.5 23.5T266 579q-20-1-37.5 15.5T211 643zm-173 0q0 29 19.5 47t49.5 18q36 0 57-24t21-63q0-40-12.5-68t-30-46.5Q125 488 105.5 478T73 463l-33 55q20 9 35.5 23.5T93 579q-20-1-37.5 15.5T38 643z"/><glyph unicode="„" horiz-adv-x="396" d="M211 60q0 29 19.5 47t49.5 18q36 0 57-24t21-63q0-40-12.5-68t-30-46.5Q298-95 278.5-105T246-120l-33 55q20 9 35.5 23.5T266-4q-20-1-37.5 15.5T211 60zM38 60q0 29 19.5 47t49.5 18q36 0 57-24t21-63q0-40-12.5-68t-30-46.5Q125-95 105.5-105T73-120L40-65q20 9 35.5 23.5T93-4Q73-5 55.5 11.5T38 60z"/><glyph unicode="†" horiz-adv-x="509" d="M40 513h116l52-16-16 54v149h124V551l-15-54 51 16h117V401H350l-49 16 15-50V0l-16-200h-92L192 1v366l16 50-52-16H40z"/><glyph unicode="‡" horiz-adv-x="509" d="M192 371l16 45-52-15H40v112h116l52-15-16 50v152h124V548l-15-50 51 15h117V401H350l-49 15 15-45v-84l-15-45 49 15h119V145H352l-51 15 15-50V0l-17-200h-90L192 1v109l16 50-52-15H40v112h116l52-15-16 45z"/><glyph unicode="•" horiz-adv-x="452" d="M73 311q0 34 12 62t33 48q21 20 48.5 31.5T225 464q32 0 60-10.5t48.5-30q20.5-19.5 32.5-48t12-64.5q0-36-12-64t-32.5-47.5Q313 180 285 169.5T225 159q-31 0-58.5 10.5t-48.5 30Q97 219 85 247t-12 64z"/><glyph unicode="…" horiz-adv-x="809" d="M53 66q0 35 22 55.5t58 20.5q38 0 60-20.5T215 66q0-35-22-56t-60-21q-36 0-58 21T53 66zm272 0q0 35 22 55.5t58 20.5q38 0 60-20.5T487 66q0-35-22-56t-60-21q-36 0-58 21t-22 56zm272 0q0 35 22 55.5t58 20.5q38 0 60-20.5T759 66q0-35-22-56t-60-21q-36 0-58 21t-22 56z"/><glyph unicode="‰" horiz-adv-x="1232" d="M51 542q0 45 13 77t36 53q23 21 55.5 30.5T226 712q38 0 70-9t55.5-29q23.5-20 36.5-52.5t14-79.5q-1-47-14-79.5T351.5 410Q328 390 296 381t-70-9q-38 0-70.5 9T100 410q-23 20-36 52.5T51 542zm116 0q0-86 59-86 31 0 44.5 18.5T285 542q-1 48-14.5 67T226 628q-31 0-45-19t-14-67zm285-372q0 45 13 77t36 53q23 21 55.5 30.5T627 340q38 0 70-9t55.5-29q23.5-20 36.5-52.5t14-79.5q-1-47-14-79.5T752.5 38Q729 18 697 9t-70-9q-38 0-70.5 9T501 38q-23 20-36 52.5T452 170zm116 0q0-86 59-86 31 0 44.5 18.5T686 170q-1 48-14.5 67T627 256q-31 0-45-19t-14-67zm272 0q0 45 13 77t36 53q23 21 55.5 30.5t70.5 9.5q38 0 70-9t55.5-29q23.5-20 36.5-52.5t14-79.5q-1-47-14-79.5T1140.5 38Q1117 18 1085 9t-70-9q-38 0-70.5 9T889 38q-23 20-36 52.5T840 170zm116 0q0-86 59-86 31 0 44.5 18.5T1074 170q-1 48-14.5 67t-44.5 19q-31 0-45-19t-14-67zM677 714l73-66L174-14l-73 69z"/><glyph unicode="‹" horiz-adv-x="307" d="M29 259l160 230 75-62-83-126-48-41 48-36 91-122-77-64z"/><glyph unicode="›" horiz-adv-x="307" d="M278 268L118 38 42 99l84 127 48 41-48 36-92 123 78 63z"/><glyph unicode="⁄" horiz-adv-x="184" d="M266 715l85-50L-79-14l-86 53z"/><glyph unicode="₁" horiz-adv-x="412" d="M72 0h97v164l10 46-30-32-59-39-49 77 158 111h85V0h88v-100H72z"/><glyph unicode="₂" horiz-adv-x="412" d="M348 200q0-59-30-101t-72-80L199-6v-4l59 11h106v-101H51v71q26 18 58 42t59.5 51.5Q196 92 214.5 121t18.5 55q0 49-56 49-27 0-51-8.5T84 197l-34 90q35 21 74.5 30.5T200 327q71 0 109.5-32.5T348 200z"/><glyph unicode="₃" horiz-adv-x="412" d="M169-12q44 0 62.5 14T251 39q-1 23-20 36t-70 13h-42v38l73 80 43 25-58-6H62v95h283v-62l-87-92-34-18v-5l30 3q52-2 81.5-31.5T366 31q-1-36-15.5-62t-39-43Q287-91 254-99t-68-8q-39 0-72.5 6.5T56-83L79 7q41-19 90-19z"/><glyph unicode="₄" horiz-adv-x="412" d="M402-22h-76v-78H225v78H18v67l218 283h90V67h76zM225 153l6 53h-5l-22-49-48-66-36-32 52 8h53z"/><glyph unicode="€" horiz-adv-x="567" d="M34 475h62q15 66 43.5 111t66.5 73.5q38 28.5 83.5 41.5t94.5 13q52 0 92.5-8t67.5-19l-35-103q-22 9-51 13.5t-68 4.5q-60 0-103-30t-65-97h259l-26-93H206q-1-8-1-15.5V324h230l-26-93H221q20-66 63.5-99.5T400 98q42 0 72.5 9t54.5 23l27-101q-15-11-36-19.5T474-4q-23-5-47-7.5T381-14q-110 0-185.5 58.5T94 231H2l32 93h49v42q0 8 1 16H2z"/><glyph unicode="₴" horiz-adv-x="567" d="M495 321v-93H246q-14-14-24.5-37T211 148q0-26 22-41.5T309 91q53 0 84.5 9.5T447 122l29-98q-25-14-70-26T279-14q-94 0-144 36T85 130q0 16 3.5 31.5t9 29q5.5 13.5 11 22.5t9.5 15H45v93zM45 378v93h250q15 14 26 37t11 45q0 56-80 56-40 0-68.5-8.5T131 580l-37 98q16 8 32.5 14.5T163 704q20 5 47.5 7.5T277 714q88 0 134-33t46-101q0-32-12.5-62.5T417 471h78v-93z"/><glyph unicode="₽" horiz-adv-x="567" d="M23 364h79v329q42 8 87 12.5t95 4.5q52 0 100-9t84-33q36-24 57.5-66T547 494q0-61-21-103t-56-68.5q-35-26.5-80-38T296 273h-68v-58h160v-91H228V0H102v124H23v91h79v58H23zm205 3h52q27 0 51.5 6.5T374 394q18 14 28.5 37.5T413 488q0 61-33 86.5T295 600q-20 0-38-1.5t-29-3.5z"/><glyph unicode="ℓ" horiz-adv-x="500" d="M406 30q-22-14-57.5-28T278-12q-63 0-91.5 30.5T158 114v104l-50-44-35 44 85 74v254q0 44 10 75.5t27.5 51.5q17.5 20 41 29.5T287 712q48 0 79-29.5t31-89.5q0-74-40-157T226 265V125q0-44 17-60.5T284 48q25 0 55 10.5T389 80zm-73 558q0 34-14 49t-32 15q-12 0-23-3.5t-19.5-14q-8.5-10.5-13.5-29t-5-48.5V345q56 65 81.5 125.5T333 588z"/><glyph unicode="№" horiz-adv-x="1027" d="M655 321h314V210H655zm-421 41l-55 113h-5l16-110V0H60v705h100l250-370 52-110h6l-16 107v368h130V-5h-99zm400 180q0 45 13 77t36 53q23 21 55.5 30.5T809 712q38 0 70-9t55.5-29q23.5-20 36.5-52.5t13-79.5q0-47-13-79.5T934.5 410Q911 390 879 381t-70-9q-38 0-70.5 9T683 410q-23 20-36 52.5T634 542zm116 0q0-86 59-86 31 0 44.5 18.5T867 542q0 48-13.5 67T809 628q-31 0-45-19t-14-67z"/><glyph unicode="™" horiz-adv-x="948" d="M395 590H277V340H147v250H29v110h366zm405-106l17 103h-6l-36-85-68-117h-78l-68 114-39 88h-5l23-102V340H429v360h130l91-150 24-63h1l25 65 84 148h129V340H800z"/><glyph unicode="℮" horiz-adv-x="600" d="M157 259V78q62-59 145-59 124 0 193 120l35-21q-43-66-99-100.5T302-17q-59 0-107 21.5T113.5 63Q80 100 62 150.5T44 259q0 59 18.5 109.5T115 456q34 37 81.5 58T302 535q62 0 109.5-22t80.5-59.5q33-37.5 50-87.5t19-107zm291 36v145q-63 60-147 60-86 0-144-60V295z"/><glyph unicode="∂" horiz-adv-x="538" d="M276 503q21 0 36-2t26-5.5q11-3.5 20-8t17-9.5h5q-5 39-25 65t-48.5 42Q278 601 244 607.5t-68 6.5h-14.5q-6.5 0-13.5-1l22 101q8 1 16.5 1H203q66 0 123-15t98.5-50q41.5-35 65.5-94t24-146q0-112-21.5-192T433 86.5q-38-51.5-90.5-76T228-14q-99 0-154.5 54.5T18 189q0 57 15.5 113t47 101q31.5 45 80.5 72.5T276 503zm8-110q-57 0-94.5-53T152 194q0-41 21.5-69.5T239 96q41 0 68 23t43.5 60q16.5 37 23 84t6.5 94q-18 17-40 26.5t-56 9.5z"/><glyph unicode="∏" horiz-adv-x="654" d="M463 578H197v-778H60v900h533v-900H463z"/><glyph unicode="∑" horiz-adv-x="527" d="M183-38l-42-40h360v-122H20v122l186 292 42 34-46 37L20 578v122h481V578H153l46-41 172-281z"/><glyph unicode="−" horiz-adv-x="527" d="M43 394h442V282H43z"/><glyph unicode="∕" horiz-adv-x="527" d="M436 715l85-50L91-14 5 39z"/><glyph unicode="√" horiz-adv-x="527" d="M187 475l79-186 22-115h4l18 117 120 409h125L325-5h-67L107 364H-5v111z"/><glyph unicode="∞" horiz-adv-x="857" d="M417 265q-36-58-87-86t-113-28q-36 0-69 13.5t-58 39q-25 25.5-40 62T35 348q0 48 15 86t40.5 64.5q25.5 26.5 60.5 40t76 13.5q74 0 124-29.5t87-74.5q45 56 96 80t112 24q37 0 69-13.5t56-38.5q24-25 37.5-61.5T822 356q0-49-15-87t-42-64.5q-27-26.5-64-40T621 151q-36 0-66 9t-54.5 24.5q-24.5 15.5-45 36T417 265zm203-3q35 0 57.5 25.5T700 353q0 16-5 32t-15 28.5q-10 12.5-25.5 20T618 441q-31 0-64-18.5T492 366q11-21 25-39.5t30.5-33q16.5-14.5 35-23T620 262zM237 441q-34 0-57.5-26.5T156 349q0-38 25-62.5t62-24.5q32 0 65 22.5t57 55.5q-23 45-54.5 73T237 441z"/><glyph unicode="∫" horiz-adv-x="368" d="M247-34q0-96-39-135T91-208q-46 0-87.5 7T-62-184l29 102q44-17 84-17 38 0 52 23.5T117 3v535q0 96 36.5 136T271 714q18 0 38.5-2t40.5-5.5q20-3.5 38-8t31-9.5l-22-102q-23 8-42.5 12.5T308 604q-35 0-48-20.5T247 509z"/><glyph unicode="≈" horiz-adv-x="527" d="M30 473q47 38 84.5 52.5T184 540q29 0 54-8.5t48-18q23-9.5 45.5-18T377 487q18 0 37 6t40 23l47-103q-36-27-66-38t-56-11q-28 0-52 9t-46.5 20Q258 404 235 413t-49 9q-24 0-51.5-10.5T74 373zm0-194q47 38 84.5 52.5T184 346q29 0 54-8.5t48-18q23-9.5 45.5-18T377 293q18 0 37 6t40 23l47-103q-36-27-66-38t-56-11q-28 0-52 9t-46.5 20Q258 210 235 219t-49 9q-24 0-51.5-10.5T74 179z"/><glyph unicode="≠" horiz-adv-x="527" d="M43 490h232l50 113h113l-50-113h97V378H338l-36-80h183V186H253L196 57H84l57 129H43v112h147l36 80H43z"/><glyph unicode="≤" horiz-adv-x="527" d="M483 80l-56-96L45 199l56 96zM34 413v70l386 231 57-90-224-139-91-35 90-31 230-137-57-90z"/><glyph unicode="≥" horiz-adv-x="527" d="M488 205L107-16 51 79l380 222zm0 288v-70L102 192l-57 90 224 139 91 35-90 31L40 624l57 90z"/><glyph unicode="◊" horiz-adv-x="527" d="M299-5h-75L27 342l197 363h75l201-358zm-1 206l80 133-91 157-27 84h-5l-28-86-78-134 90-156 28-84h4z"/><glyph unicode="Ⱨ" horiz-adv-x="696" d="M453 293H197V0H60v700h137V415h256v285h137V122h88v-247h-96L567 0H453z"/><glyph unicode="ⱨ" horiz-adv-x="590" d="M493 115h80v-229h-95L463 0H363v284q0 61-17 88t-62 27q-33 0-60.5-22.5T187 319V0H57v700h130V444h4q24 32 59 51t89 19q38 0 67-10t48.5-33q19.5-23 29-62.5T493 311z"/><glyph unicode="" horiz-adv-x="0" d="M-284 870h159v-30l-160-88h-103z"/><glyph unicode="" horiz-adv-x="501" d="M112 875q20-26 58-40t85-14q48 0 82.5 15t54.5 39l49-32q-12-29-32-50t-45-35q-25-14-53.5-21t-56.5-7q-27 0-55.5 6T144 754.5q-26 12.5-48 33T60 838z"/><glyph unicode="" horiz-adv-x="332" d="M208 0l-24-43q41-4 64.5-21.5T272-118q0-23-11.5-40T229-186.5Q209-198 182-204t-58-6q-31 0-64 6l9 48q7-1 13-1h11q38 0 49 9t11 21q0 28-86 32l57 95z"/><glyph unicode="" horiz-adv-x="476" d="M193 870h96l127-93v-39h-99l-57 41-20 34-21-33-62-42H60v40z"/><glyph unicode="" horiz-adv-x="267" d="M60-105q0 29 19.5 46T128-42q35 0 57-23t22-65q0-33-11-58t-27-42.5q-16-17.5-34-28T104-273l-34 54q14 7 28 19.5t16 33.5q-20-1-37 14.5T60-105z"/><glyph unicode="" horiz-adv-x="223" d="M38 643q0 29 19.5 47t49.5 18q36 0 57-24t21-63q0-40-12.5-68t-30-46.5Q125 488 105.5 478T73 463l-33 55q20 9 35.5 23.5T93 579q-20-1-37.5 15.5T38 643z"/><glyph unicode="" horiz-adv-x="295" d="M60 799q0 25 21.5 43t64.5 18q43 0 66-18t23-43q0-26-23-44t-66-18q-43 0-64.5 18T60 799z"/><glyph unicode="" horiz-adv-x="376" d="M60 772q0 18 6 34.5t20.5 29q14.5 12.5 39 19.5t62.5 7q70 0 99-24t29-66q0-18-6.5-34T288 710.5Q273 699 248.5 692t-60.5-7q-71 0-99.5 24.5T60 772zm84 0q0-31 44-31 25 0 35 8t10 23q0 17-10.5 25t-34.5 8q-44 0-44-33z"/><glyph unicode="" horiz-adv-x="490" d="M60 800q32 35 61.5 48t58.5 13q22 0 44-5.5t42.5-12q20.5-6.5 40.5-12t38-5.5q16 0 31 5t29 19l25-67q-28-26-54.5-36.5T324 736q-23 0-44 5.5T238.5 754q-20.5 7-40.5 12.5t-39 5.5q-19 0-37.5-7.5T84 737z"/><glyph unicode="" horiz-adv-x="350" d="M263 10q-76-22-76-79 0-18 11-30.5t31-12.5q18 0 42 12l19-62q-15-12-47.5-23.5T175-197q-56 0-85.5 25T60-106q0 41 27.5 70T163 10z"/><glyph unicode="" horiz-adv-x="591" d="M531 537q0-26-6.5-52T503 437.5q-15-21.5-39-38T406 375v-6q30-5 57-17t47-33q20-21 31.5-51t11.5-71q0-54-23-93.5T468.5 39Q430 14 381 2T280-10h-43.5q-26.5 0-57 1.5t-62 4.5Q86-1 60 5v690q19 3 43.5 6t52.5 5q28 2 57.5 3t58.5 1q49 0 95.5-7.5t83-26.5q36.5-19 58.5-53t22-86zM281 103q25 0 48.5 6t41.5 18.5q18 12.5 29 31.5t11 45q0 33-13 52t-34 29.5Q343 296 317 299t-52 3h-73V109q5-2 16-3t23.5-1.5q12.5-.5 26-1t23.5-.5zm-45 303q14 0 32.5 1t30.5 3q38 12 65.5 36t27.5 63q0 26-10 43t-26.5 27Q339 589 318 593t-44 4q-26 0-48-1t-34-3V406zm52 464h159v-30l-160-88H184z"/><glyph unicode="" horiz-adv-x="536" d="M57 700h130V460h4q21 24 54 38t73 14q90 0 137.5-61.5T503 263q0-135-66.5-205T254-12q-64 0-117 10.5T57 22zm223-298q-36 0-58.5-18.5T187 330V112q16-8 34.5-11t39.5-3q53 0 80.5 38.5T369 259q0 143-89 143zm33 318h132v-30L334 566h-74z"/><glyph unicode="" horiz-adv-x="508" d="M60 700h415V578H197V405h256V283H197V0H60zm228 170h159v-30l-160-88H184z"/><glyph unicode="" horiz-adv-x="321" d="M11 500h69v28q0 95 40 137.5T236 708q80 0 133-19l-25-104q-23 8-40.5 10.5T267 598q-20 0-31.5-6t-17-18.5q-5.5-12.5-7-31T210 500h110V390H210V0H80v390H11zm240 370h159v-30l-160-88H147z"/><glyph unicode="" horiz-adv-x="606" d="M-17 607h77v93h137v-93h221v-93H197v-96q26 15 69.5 27.5T370 458q42 0 76.5-10.5t60-34q25.5-23.5 39.5-60t14-88.5V0H423v222q0 60-23.5 89.5T322 341q-38 0-71.5-8.5T197 307V0H60v514h-77z"/><glyph unicode="" horiz-adv-x="556" d="M-6 641h74v59h130v-59h161v-80H198V444h4q24 32 59 51t89 19q38 0 67-10t48.5-33q19.5-23 29-62.5T504 311V0H374v284q0 61-17 88t-62 27q-33 0-60.5-22.5T198 319V0H68v561H-6z"/><glyph unicode="" horiz-adv-x="606" d="M183 700V478q0-60 23.5-89.5T284 359q38 0 71.5 8.5T409 393v307h137V-21q0-91-38.5-139T389-208q-15 0-31.5 1.5T324-201v109q4 0 7.5-.5t7.5-.5q43 0 56.5 24.5T409 0v282q-26-15-69.5-27.5T236 242q-42 0-76.5 10.5t-60 34Q74 310 60 346.5T46 435v265z"/><glyph unicode="" horiz-adv-x="505" d="M318 196q-15-11-46-24.5T189 158q-37 0-66 8t-49 28q-20 20-30.5 53T33 330v170h130V386q0-31 2.5-53.5t10-36.5q7.5-14 21-21t35.5-7q29 0 50.5 6.5T318 291v209h130V-21q0-91-36-139t-115-48q-30 0-64 7v109q4 0 7.5-.5t7.5-.5q43 0 56.5 24.5T318 0z"/><glyph unicode="" horiz-adv-x="568" d="M294 391l20-91h6l16 94 105 306h141L396 216q-22-57-42.5-99t-44-69.5Q286 20 257 6.5T189-7q-33 0-53.5 4.5T91 17l35 111q17-9 31-11t30-2q47 0 66 74L-9 700h161zm7 479h159v-30l-160-88H197z"/><glyph unicode="" horiz-adv-x="478" d="M239 219l18-78h6l13 79 76 280h134L334 49Q315-7 297.5-53.5T259-134q-21-34-46.5-52.5T152-205q-52 0-83 17L93-84q15-6 30-6 23 0 44.5 19.5T200 0L-9 500h156zm14 501h132v-30L274 566h-74z"/><glyph unicode="" horiz-adv-x="574" d="M130 410h269q-3 40-16.5 73.5T346 541q-23 24-57 37.5T212 592q-54 0-94-11.5T53 555L24 671q35 18 88 30.5T217 714q69 0 127.5-19t101-62.5Q488 589 512 519.5T536 350q0-104-28-174T433 64Q386 22 325 4T198-14Q141-14 94.5-4T20 19l36 119q23-11 62-20.5t90-9.5q39 0 72 11t58.5 34.5Q364 177 380 213t20 87H130zm16 389q0 25 21.5 43t64.5 18q43 0 66-18t23-43q0-26-23-44t-66-18q-43 0-64.5 18T146 799z"/><glyph unicode="" horiz-adv-x="459" d="M109 300h186q-5 50-33 77t-83 27q-38 0-67-9t-51-21l-35 94q66 46 178 46t167-66.5Q426 381 426 250q0-132-62-198T194-14q-47 0-95 9.5T23 22l32 102q23-13 54.5-20.5T173 96q64 0 91 27t32 84H109zm1 341q0 29 21.5 49.5T191 711q38 0 61.5-20.5T276 641q0-29-23.5-48.5T191 573q-38 0-59.5 19.5T110 641z"/><glyph unicode="" horiz-adv-x="526" d="M120 310v107h46q13 0 26.5.5t26.5 2q13 1.5 21 3.5 35 8 60 28.5t25 55.5q0 48-30.5 65.5T214 590q-45 0-84-12t-59-23L36 671q11 6 31.5 13t47 13.5Q141 704 172 708t63 4q44 0 86-8t75-28q33-20 53-53.5t20-85.5q0-52-27.5-96T353 377v-5q65-13 101.5-56T491 201q0-49-17.5-85.5T427 53q-29-26-67.5-41.5T278-10l-14-165h-88L157-11Q112-6 76 3T18 23l35 119q23-11 66-22.5T221 108q22 0 44.5 5.5t40.5 18q18 12.5 29 32.5t11 48q0 47-35 71t-125 26q-12 1-18 1h-21z"/><glyph unicode="" horiz-adv-x="432" d="M109 207v91h61q35 0 57.5 14.5T250 350q0 27-19.5 38T170 399q-39 0-69.5-10.5T52 367L24 467q30 17 79.5 29.5T209 509q86 0 128.5-32t42.5-93q0-17-4.5-34.5T361 316q-10-16-24.5-28.5T302 268v-4q53-12 75-42.5t22-81.5q0-51-34-90.5T259-4l-14-171h-88L138-8Q100-4 71.5 5.5T22 27l28 101q23-13 56-21.5t73-8.5q90 0 90 58 0 26-23.5 38.5T158 207z"/><glyph unicode="" horiz-adv-x="559" d="M534 29q-26-19-65.5-29T385-13l-16-30q41-4 64.5-21.5T457-118q0-23-11.5-40T414-186.5Q394-198 367-204t-58-6q-31 0-64 6l9 48q7-1 13-1h11q38 0 49 9t11 21q0 28-86 32l50 84q-55 7-103 30.5T115 87q-36 44-56.5 109T38 350q0 103 28.5 172.5t74 112Q186 677 242 695.5T354 714q60 0 101.5-8t68.5-19V571q-50 11-81.5 16t-76.5 5q-83 0-133.5-59T182 350q0-54 12-98.5t36.5-76q24.5-31.5 61-49T376 109q45 0 76 9t54 23z"/><glyph unicode="" horiz-adv-x="433" d="M411 31q-23-17-52.5-27T296-11l-18-32q41-4 64.5-21.5T366-118q0-23-11.5-40T323-186.5Q303-198 276-204t-58-6q-31 0-64 6l9 48q7-1 13-1h11q38 0 49 9t11 21q0 28-86 32l50 84q-49 6-83 27.5t-55 55q-21 33.5-30.5 79T33 250q0 127 57 195.5T256 514q55 0 88.5-9t60.5-23l-31-106q-23 11-45.5 17t-51.5 6q-54 0-82-35.5T167 250q0-32 7-59t21-47q14-20 36.5-31.5T284 101q33 0 56 8.5t41 20.5z"/><glyph unicode="" horiz-adv-x="605" d="M405 155H190L137 0H0l252 705h101L605 0H461zM225 265h150l-52 156-21 110h-5l-21-111zm-91 591h343v-89H134z"/><glyph unicode="" horiz-adv-x="496" d="M54 471q40 18 95 28.5T264 510q52 0 87-12.5t55.5-35.5q20.5-23 29-55t8.5-72q0-44-3-88.5t-3.5-87.5q-.5-43 2.5-83.5T455-1H349l-21 69h-5q-20-31-55.5-53.5T176-8q-35 0-63 10.5t-48 30Q45 52 34 78.5T23 138q0 46 20.5 77.5t59 51q38.5 19.5 92 27T314 298q7 56-8 80.5T239 403q-39 0-82.5-8T85 374zM219 99q39 0 62 17.5t34 37.5v65q-31 3-59.5 1t-50.5-9q-22-7-35-20t-13-33q0-28 16.5-43.5T219 99zM91 658h323v-92H91z"/><glyph unicode="" horiz-adv-x="522" d="M60 700h415V578H197V415h253V293H197V122h283V0H60zm37 156h343v-89H97z"/><glyph unicode="" horiz-adv-x="508" d="M457 43q-30-24-81.5-40.5T266-14Q145-14 89 56.5T33 250q0 132 63 198t177 66q38 0 74-10t64-33q28-23 45-62t17-97q0-21-2.5-45t-7.5-50H163q3-63 32.5-95T291 90q41 0 73.5 12.5T414 128zM271 410q-51 0-75.5-30.5T166 298h186q4 54-16.5 83T271 410zM97 658h323v-92H97z"/><glyph unicode="" horiz-adv-x="522" d="M60 700h415V578H197V415h253V293H197V122h283V0H60zm22 98q0 26 18 42t58 16q39 0 57-16t18-42q0-26-18-41.5T158 741q-40 0-58 15.5T82 798zm214 0q0 26 18 42t57 16q40 0 58-16t18-42q0-26-18-41.5T371 741q-39 0-57 15.5T296 798zM92 983h343v-89H92z"/><glyph unicode="" horiz-adv-x="508" d="M457 43q-30-24-81.5-40.5T266-14Q145-14 89 56.5T33 250q0 132 63 198t177 66q38 0 74-10t64-33q28-23 45-62t17-97q0-21-2.5-45t-7.5-50H163q3-63 32.5-95T291 90q41 0 73.5 12.5T414 128zM271 410q-51 0-75.5-30.5T166 298h186q4 54-16.5 83T271 410zM82 625q0 32 19.5 51t51.5 19q32 0 50.5-19t18.5-51q0-30-18.5-49T153 557q-32 0-51.5 19T82 625zm219 0q0 32 18.5 51t50.5 19q32 0 51.5-19t19.5-51q0-30-19.5-49T370 557q-32 0-50.5 19T301 625zM90 847h343v-89H90z"/><glyph unicode="" horiz-adv-x="522" d="M60 700h415V578H197V415h253V293H197V122h283V0H60zm22 98q0 26 18 42t58 16q39 0 57-16t18-42q0-26-18-41.5T158 741q-40 0-58 15.5T82 798zm214 0q0 26 18 42t57 16q40 0 58-16t18-42q0-26-18-41.5T371 741q-39 0-57 15.5T296 798zm-99 212q4-32 23.5-46t50.5-14q67 0 74 59l111-17q-11-63-57.5-92T270 871q-41 0-75 6t-59.5 19.5Q110 910 93.5 933T73 990z"/><glyph unicode="" horiz-adv-x="508" d="M457 43q-30-24-81.5-40.5T266-14Q145-14 89 56.5T33 250q0 132 63 198t177 66q38 0 74-10t64-33q28-23 45-62t17-97q0-21-2.5-45t-7.5-50H163q3-63 32.5-95T291 90q41 0 73.5 12.5T414 128zM271 410q-51 0-75.5-30.5T166 298h186q4 54-16.5 83T271 410zM82 631q0 32 19.5 51t51.5 19q32 0 50.5-19t18.5-51q0-30-18.5-49T153 563q-32 0-51.5 19T82 631zm219 0q0 32 18.5 51t50.5 19q32 0 51.5-19t19.5-51q0-30-19.5-49T370 563q-32 0-50.5 19T301 631zM196 865q4-32 23.5-46t50.5-14q67 0 74 59l111-17q-11-63-57.5-92T269 726q-41 0-75 6t-59.5 19.5Q109 765 92.5 788T72 845z"/><glyph unicode="" horiz-adv-x="526" d="M120 310v107h46q13 0 26.5.5t26.5 2q13 1.5 21 3.5 35 8 60 28.5t25 55.5q0 48-30.5 65.5T214 590q-45 0-84-12t-59-23L36 671q11 6 31.5 13t47 13.5Q141 704 172 708t63 4q44 0 86-8t75-28q33-20 53-53.5t20-85.5q0-52-27.5-96T353 377v-5q65-13 101.5-56T491 201q0-57-23-97.5T407.5 37Q370 11 321-1.5T221-14q-66 0-120 11T18 23l35 119q23-11 66-22.5T221 108q22 0 44.5 5.5t40.5 18q18 12.5 29 32.5t11 48q0 47-35 71t-125 26q-12 1-18 1h-21zm163 427h-94L62 831v39h105l53-45 19-30 21 29 56 46h100v-40z"/><glyph unicode="" horiz-adv-x="432" d="M109 207v91h61q35 0 57.5 14t22.5 37q0 27-20 38.5T169 399q-39 0-69-10t-48-21l-28 99q30 17 79.5 29.5T209 509q86 0 128.5-32t42.5-93q0-17-4.5-34.5T361 316q-10-16-24.5-28.5T302 268v-4q53-12 75-42.5t22-81.5q0-32-13-59.5T346.5 33Q320 13 280 1t-95-12Q130-11 89.5.5T22 27l28 101q23-13 55.5-21t72.5-8q91 0 91 58 0 26-23.5 38T158 207zm131 343h-91L34 732h110l39-66 16-49 18 49 45 66h101z"/><glyph unicode="" horiz-adv-x="670" d="M38 350q0 175 77 269.5T335 714q75 0 131-26t93-74q37-48 55-115t18-149q0-175-77.5-269.5T335-14q-76 0-132 26t-92.5 74Q74 134 56 201T38 350zm144 0q0-53 9-97.5t27.5-76.5q18.5-32 47.5-50t69-18q73 0 113 57t40 185q0 51-8.5 95T453 522q-18 33-47 51.5T335 592q-73 0-113-58.5T182 350zm-15 506h343v-89H167z"/><glyph unicode="" horiz-adv-x="537" d="M33 250q0 127 62 195.5T269 514q60 0 104-19t73-53.5q29-34.5 43.5-83.5T504 250q0-127-61.5-195.5T269-14q-60 0-104 19T91.5 58.5Q62 93 47.5 142T33 250zm134 0q0-33 6-61t18-49q12-21 31.5-32.5T269 96q51 0 76 37t25 117q0 69-23 111.5T269 404q-48 0-75-36t-27-118zm-61 408h323v-92H106z"/><glyph unicode="" horiz-adv-x="670" d="M38 350q0 175 77 269.5T335 714q75 0 131-26t93-74q37-48 55-115t18-149q0-175-77.5-269.5T335-14q-76 0-132 26t-92.5 74Q74 134 56 201T38 350zm144 0q0-53 9-97.5t27.5-76.5q18.5-32 47.5-50t69-18q73 0 113 57t40 185q0 51-8.5 95T453 522q-18 33-47 51.5T335 592q-73 0-113-58.5T182 350zm84 524q4-32 23.5-46t50.5-14q67 0 74 59l111-17q-11-63-57.5-92T339 735q-41 0-75 6t-59.5 19.5Q179 774 162.5 797T142 854z"/><glyph unicode="" horiz-adv-x="537" d="M33 250q0 127 62 195.5T269 514q60 0 104-19t73-53.5q29-34.5 43.5-83.5T504 250q0-127-61.5-195.5T269-14q-60 0-104 19T91.5 58.5Q62 93 47.5 142T33 250zm134 0q0-33 6-61t18-49q12-21 31.5-32.5T269 96q51 0 76 37t25 117q0 69-23 111.5T269 404q-48 0-75-36t-27-118zm41 454q7-39 23.5-55t42.5-16q28 0 44.5 16t22.5 54l99-25q-12-65-59-96.5T271 550q-31 0-60 7t-52 22.5Q136 595 120 619t-22 59z"/><glyph unicode="" horiz-adv-x="670" d="M38 350q0 175 77 269.5T335 714q75 0 131-26t93-74q37-48 55-115t18-149q0-175-77.5-269.5T335-14q-76 0-132 26t-92.5 74Q74 134 56 201T38 350zm450 57q-8 89-48 137t-105 48q-29 0-55-10t-46.5-32q-20.5-22-34-57.5T182 407zM182 297q8-95 49-142t104-47q29 0 55.5 9.5t47 31q20.5 21.5 34 57.5t16.5 91zm85 577q4-32 23.5-46t50.5-14q67 0 74 59l111-17q-11-63-57.5-92T340 735q-41 0-75 6t-59.5 19.5Q180 774 163.5 797T143 854z"/><glyph unicode="" horiz-adv-x="537" d="M33 250q0 127 62 195.5T269 514q60 0 104-19t73-53.5q29-34.5 43.5-83.5T504 250q0-127-61.5-195.5T269-14q-60 0-104 19T91.5 58.5Q62 93 47.5 142T33 250zm337 39q-8 60-33.5 87.5T269 404q-19 0-36-6t-30.5-19.5Q189 365 179.5 343T167 289zm-203-82q6-54 34-82.5T269 96q38 0 66.5 24.5T370 207zm41 497q7-39 23.5-55t42.5-16q28 0 44.5 16t22.5 54l99-25q-12-65-59-96.5T271 550q-31 0-60 7t-52 22.5Q136 595 120 619t-22 59z"/><glyph unicode="" horiz-adv-x="670" d="M38 350q0 175 77 269.5T335 714q75 0 131-26t93-74q37-48 55-115t18-149q0-175-77.5-269.5T335-14q-76 0-132 26t-92.5 74Q74 134 56 201T38 350zm144 0q0-53 9-97.5t27.5-76.5q18.5-32 47.5-50t69-18q73 0 113 57t40 185q0 51-8.5 95T453 522q-18 33-47 51.5T335 592q-73 0-113-58.5T182 350zm-29 448q0 26 18 42t58 16q39 0 57-16t18-42q0-26-18-41.5T229 741q-40 0-58 15.5T153 798zm214 0q0 26 18 42t57 16q40 0 58-16t18-42q0-26-18-41.5T442 741q-39 0-57 15.5T367 798zm-99 212q4-32 23.5-46t50.5-14q67 0 74 59l111-17q-11-63-57.5-92T341 871q-41 0-75 6t-59.5 19.5Q181 910 164.5 933T144 990z"/><glyph unicode="" horiz-adv-x="537" d="M33 250q0 127 62 195.5T269 514q60 0 104-19t73-53.5q29-34.5 43.5-83.5T504 250q0-127-61.5-195.5T269-14q-60 0-104 19T91.5 58.5Q62 93 47.5 142T33 250zm134 0q0-33 6-61t18-49q12-21 31.5-32.5T269 96q51 0 76 37t25 117q0 69-23 111.5T269 404q-48 0-75-36t-27-118zM90 631q0 32 19.5 51t51.5 19q32 0 50.5-19t18.5-51q0-30-18.5-49T161 563q-32 0-51.5 19T90 631zm219 0q0 32 18.5 51t50.5 19q32 0 51.5-19t19.5-51q0-30-19.5-49T378 563q-32 0-50.5 19T309 631zM196 865q4-32 23.5-46t50.5-14q67 0 74 59l111-17q-11-63-57.5-92T269 726q-41 0-75 6t-59.5 19.5Q109 765 92.5 788T72 845z"/><glyph unicode="" horiz-adv-x="798" d="M600 700h137V0H600zm-540 0h137V449q11 2 35 5t47 3q50 0 95.5-10t79.5-35.5q34-25.5 54-69T528 233q0-122-71-182.5T246-10q-14 0-36 .5T162.5-7Q137-5 110-2T60 7zm196-588q57 0 92.5 26.5T384 227q0 33-10 54t-27 33q-17 12-40 16.5t-50 4.5q-14 0-33-2.5t-27-5.5V118q11-3 26.5-4.5T256 112zm-36 744h343v-89H220z"/><glyph unicode="" horiz-adv-x="703" d="M187 109q30-6 57-6 45 0 63 16.5t18 51.5q0 32-18 48.5T247 236q-33 0-60-7zm0 213q24 4 48.5 5.5T280 329q51 0 85-11.5t55-32.5q21-21 30-49.5t9-61.5q0-45-12-79t-39-56.5q-27-22.5-70-34T232-7q-57 0-98.5 2T57 0v500h130zm329 178h130V0H516zM184 658h323v-92H184z"/><glyph unicode="" horiz-adv-x="574" d="M130 410h269q-3 40-16.5 73.5T346 541q-23 24-57 37.5T212 592q-54 0-94-11.5T53 555L24 671q35 18 88 30.5T217 714q69 0 127.5-19t101-62.5Q488 589 512 519.5T536 350q0-104-28-174T433 64Q386 22 325 4T198-14Q141-14 94.5-4T20 19l36 119q23-11 62-20.5t90-9.5q39 0 72 11t58.5 34.5Q364 177 380 213t20 87H130zM67 856h343v-89H67z"/><glyph unicode="" horiz-adv-x="459" d="M109 300h186q-5 50-33 77t-83 27q-38 0-67-9t-51-21l-35 94q66 46 178 46t167-66.5Q426 381 426 250q0-132-62-198T194-14q-47 0-95 9.5T23 22l32 102q23-13 54.5-20.5T173 96q64 0 91 27t32 84H109zM48 658h323v-92H48z"/><glyph unicode="" horiz-adv-x="574" d="M130 410h269q-3 40-16.5 73.5T346 541q-23 24-57 37.5T212 592q-54 0-94-11.5T53 555L24 671q35 18 88 30.5T217 714q69 0 127.5-19t101-62.5Q488 589 512 519.5T536 350q0-104-28-174T433 64Q386 22 325 4T198-14Q141-14 94.5-4T20 19l36 119q23-11 62-20.5t90-9.5q39 0 72 11t58.5 34.5Q364 177 380 213t20 87H130zm37 464q4-32 23.5-46t50.5-14q67 0 74 59l111-17q-11-63-57.5-92T240 735q-41 0-75 6t-59.5 19.5Q80 774 63.5 797T43 854z"/><glyph unicode="" horiz-adv-x="459" d="M109 300h186q-5 50-33 77t-83 27q-38 0-67-9t-51-21l-35 94q66 46 178 46t167-66.5Q426 381 426 250q0-132-62-198T194-14q-47 0-95 9.5T23 22l32 102q23-13 54.5-20.5T173 96q64 0 91 27t32 84H109zm37 404q7-39 23.5-55t42.5-16q28 0 44.5 16t22.5 54l99-25q-12-65-59-96.5T209 550q-31 0-60 7t-52 22.5Q74 595 58 619t-22 59z"/><glyph unicode="" horiz-adv-x="577" d="M549 29q-15-11-37.5-19.5T463.5-4Q438-9 411-11.5T358-14q-65 0-123 19.5t-101.5 63Q90 112 64 181.5T38 350q0 103 29 172.5t75.5 112q46.5 42.5 104 61T362 714q60 0 105-8t72-19l-26-119q-23 11-58.5 17.5T374 592q-35 0-66.5-10.5t-56-32.5q-24.5-22-42-55T185 416h275V304H182q11-89 62.5-142.5T384 108q45 0 80 9t57 22zM158 798q0 26 18 42t58 16q39 0 57-16t18-42q0-26-18-41.5T234 741q-40 0-58 15.5T158 798zm214 0q0 26 18 42t57 16q40 0 58-16t18-42q0-26-18-41.5T447 741q-39 0-57 15.5T372 798z"/><glyph unicode="" horiz-adv-x="457" d="M435 31Q405 9 360-2.5T270-14q-60 0-104 19T93.5 58.5Q65 93 51 142T37 250q0 63 17 112t48 83q31 34 75 51.5t98 17.5q54 0 90-9t63-23l-30-106q-23 11-48.5 17t-54.5 6q-47 0-80.5-24T171 297h196v-88H170q9-48 41.5-78t90.5-30q34 0 59 8.5t44 20.5zM82 631q0 32 19.5 51t51.5 19q32 0 50.5-19t18.5-51q0-30-18.5-49T153 563q-32 0-51.5 19T82 631zm219 0q0 32 18.5 51t50.5 19q32 0 51.5-19t19.5-51q0-30-19.5-49T370 563q-32 0-50.5 19T301 631z"/><glyph unicode="" horiz-adv-x="580" d="M519 0H382v277l-72-19L164 0H5l144 233 60 43q-32 8-60 24.5T100 343q-21 26-33 61.5T55 485q0 63 22 106t61 69.5q39 26.5 93 38T348 710q17 0 39-1t45.5-3q23.5-2 46-5t40.5-8zM331 588q-27 0-51-5t-42-17q-18-12-28.5-33T199 479q0-31 10-52.5t28-35q18-13.5 42-19.5t52-6h51v217q-11 2-22.5 3.5T331 588zM148 856h343v-89H148z"/><glyph unicode="" horiz-adv-x="503" d="M321 189l-60-12L165 0H10l97 157 49 37q-49 8-81 46.5T43 337q0 91 60.5 134T289 514q48 0 89.5-5t72.5-11V0H321zm0 68v138q-11 5-24 7t-25 2q-45 0-70-19t-25-57q0-38 27.5-56t80.5-17zM95 658h323v-92H95z"/><glyph unicode="" horiz-adv-x="580" d="M519 0H382v277l-72-19L164 0H5l144 233 60 43q-32 8-60 24.5T100 343q-21 26-33 61.5T55 485q0 63 22 106t61 69.5q39 26.5 93 38T348 710q17 0 39-1t45.5-3q23.5-2 46-5t40.5-8zM331 588q-27 0-51-5t-42-17q-18-12-28.5-33T199 479q0-31 10-52.5t28-35q18-13.5 42-19.5t52-6h51v217q-11 2-22.5 3.5T331 588zm-86 286q4-32 23.5-46t50.5-14q67 0 74 59l111-17q-11-63-57.5-92T318 735q-41 0-75 6t-59.5 19.5Q158 774 141.5 797T121 854z"/><glyph unicode="" horiz-adv-x="503" d="M321 189l-60-12L165 0H10l97 157 49 37q-49 8-81 46.5T43 337q0 91 60.5 134T289 514q48 0 89.5-5t72.5-11V0H321zm0 68v138q-11 5-24 7t-25 2q-45 0-70-19t-25-57q0-38 27.5-56t80.5-17zM202 704q7-39 23.5-55t42.5-16q28 0 44.5 16t22.5 54l99-25q-12-65-59-96.5T265 550q-31 0-60 7t-52 22.5Q130 595 114 619t-22 59z"/><glyph unicode="" horiz-adv-x="897" d="M197 415h93q13 143 84 221t199 78q76 0 130-26t88.5-74q34.5-48 51-115T859 350q0-175-72-269.5T573-14q-66 0-116.5 22T371 70q-35 40-55 97t-26 126h-93V0H60v700h137zm233-65q0-53 7.5-97.5t24-76.5q16.5-32 44-50t67.5-18q73 0 107.5 57T715 350q0 51-6.5 95T686 522q-16 33-43.5 51.5T573 592q-72 0-107.5-58.5T430 350zM283 856h343v-89H283z"/><glyph unicode="" horiz-adv-x="734" d="M480-14q-56 0-95.5 15t-65 43q-25.5 28-39 68T263 202h-76V0H57v500h130V312h77q10 97 61.5 149.5T482 514q57 0 98-19t68-53.5q27-34.5 39.5-83.5T700 250q0-127-54-195.5T480-14zm-93 264q0-73 20.5-113.5T480 96q46 0 66 34t20 120q0 77-19 115.5T477 404q-46 0-68-35t-22-119zM196 658h323v-92H196z"/><glyph unicode="" horiz-adv-x="897" d="M197 415h93q13 143 84 221t199 78q76 0 130-26t88.5-74q34.5-48 51-115T859 350q0-175-72-269.5T573-14q-66 0-116.5 22T371 70q-35 40-55 97t-26 126h-93V0H60v700h137zm233-65q0-53 7.5-97.5t24-76.5q16.5-32 44-50t67.5-18q73 0 107.5 57T715 350q0 51-6.5 95T686 522q-16 33-43.5 51.5T573 592q-72 0-107.5-58.5T430 350zm-73 524q4-32 23.5-46t50.5-14q67 0 74 59l111-17q-11-63-57.5-92T430 735q-41 0-75 6t-59.5 19.5Q270 774 253.5 797T233 854z"/><glyph unicode="" horiz-adv-x="734" d="M480-14q-56 0-95.5 15t-65 43q-25.5 28-39 68T263 202h-76V0H57v500h130V312h77q10 97 61.5 149.5T482 514q57 0 98-19t68-53.5q27-34.5 39.5-83.5T700 250q0-127-54-195.5T480-14zm-93 264q0-73 20.5-113.5T480 96q46 0 66 34t20 120q0 77-19 115.5T477 404q-46 0-68-35t-22-119zm-86 454q7-39 23.5-55t42.5-16q28 0 44.5 16t22.5 54l99-25q-12-65-59-96.5T364 550q-31 0-60 7t-52 22.5Q229 595 213 619t-22 59z"/><glyph unicode="" horiz-adv-x="666" d="M468 388l8 91h-5l-46-94L163 0H60v700h137V319l-10-94h6l49 97 261 378h102V-21q0-90-34-139t-116-49q-16 0-33.5 2t-37.5 6v108q4 0 7.5-.5t7.5-.5q43 0 56 24.5T468 0zM273 874q4-32 23.5-46t50.5-14q67 0 74 59l111-17q-11-63-57.5-92T346 735q-41 0-75 6t-59.5 19.5Q186 774 169.5 797T149 854z"/><glyph unicode="" horiz-adv-x="545" d="M358 228l5 71h-3l-42-73L139 0H57v500h130V262l-6-68h4l41 71 180 235h82V-21q0-91-36-139t-115-48q-30 0-64 7v109q4 0 7.5-.5t7.5-.5q22 0 35.5 6t21 18Q352-57 355-39.5T358 0zM219 704q7-39 23.5-55t42.5-16q28 0 44.5 16t22.5 54l99-25q-12-65-59-96.5T282 550q-31 0-60 7t-52 22.5Q147 595 131 619t-22 59z"/><glyph unicode="" horiz-adv-x="670" d="M38 350q0 175 77 269.5T335 714q75 0 131-26t93-74q37-48 55-115t18-149q0-175-77.5-269.5T335-14q-76 0-132 26t-92.5 74Q74 134 56 201T38 350zm144 0q0-53 9-97.5t27.5-76.5q18.5-32 47.5-50t69-18q73 0 113 57t40 185q0 51-8.5 95T453 522q-18 33-47 51.5T335 592q-73 0-113-58.5T182 350zm67 449q0 25 21.5 43t64.5 18q43 0 66-18t23-43q0-26-23-44t-66-18q-43 0-64.5 18T249 799z"/><glyph unicode="" horiz-adv-x="537" d="M33 250q0 127 62 195.5T269 514q60 0 104-19t73-53.5q29-34.5 43.5-83.5T504 250q0-127-61.5-195.5T269-14q-60 0-104 19T91.5 58.5Q62 93 47.5 142T33 250zm134 0q0-33 6-61t18-49q12-21 31.5-32.5T269 96q51 0 76 37t25 117q0 69-23 111.5T269 404q-48 0-75-36t-27-118zm20 391q0 29 21.5 49.5T268 711q38 0 61.5-20.5T353 641q0-29-23.5-48.5T268 573q-38 0-59.5 19.5T187 641z"/><glyph unicode="" horiz-adv-x="798" d="M600 700h137V0H600zm-540 0h137V449q11 2 35 5t47 3q50 0 95.5-10t79.5-35.5q34-25.5 54-69T528 233q0-122-71-182.5T246-10q-14 0-36 .5T162.5-7Q137-5 110-2T60 7zm196-588q57 0 92.5 26.5T384 227q0 33-10 54t-27 33q-17 12-40 16.5t-50 4.5q-14 0-33-2.5t-27-5.5V118q11-3 26.5-4.5T256 112zm76 762q4-32 23.5-46t50.5-14q67 0 74 59l111-17q-11-63-57.5-92T405 735q-41 0-75 6t-59.5 19.5Q245 774 228.5 797T208 854z"/><glyph unicode="" horiz-adv-x="703" d="M187 109q30-6 57-6 45 0 63 16.5t18 51.5q0 32-18 48.5T247 236q-33 0-60-7zm0 213q24 4 48.5 5.5T280 329q51 0 85-11.5t55-32.5q21-21 30-49.5t9-61.5q0-45-12-79t-39-56.5q-27-22.5-70-34T232-7q-57 0-98.5 2T57 0v500h130zm329 178h130V0H516zM293 704q7-39 23.5-55t42.5-16q28 0 44.5 16t22.5 54l99-25q-12-65-59-96.5T356 550q-31 0-60 7t-52 22.5Q221 595 205 619t-22 59z"/><glyph unicode="" horiz-adv-x="526" d="M384 310h-21q-6 0-18-1-88-2-124.5-28T184 209q0-26 10.5-45t28-31.5q17.5-12.5 41-18.5t50.5-6q51 0 92.5 12.5T471 144l37-108q-14-9-35.5-17.5T424 2.5q-27-7.5-57.5-12T303-14q-60 0-108.5 12.5t-83 38q-34.5 25.5-53 65T40 195q0 73 35.5 117.5T176 370v5q-58 22-86 66t-28 96q0 48 19.5 81.5t53 54.5q33.5 21 77 30t91.5 9q29 0 58.5-4t55-10.5q25.5-6.5 46-14T494 669l-36-109q-25 11-63 20.5t-74 9.5q-55 0-85-18t-30-60q0-20 8-35t20.5-26q12.5-11 29-18t34.5-10q17-5 44-5.5t45-.5h24V310zM106 798q0 26 18 42t58 16q39 0 57-16t18-42q0-26-18-41.5T182 741q-40 0-58 15.5T106 798zm214 0q0 26 18 42t57 16q40 0 58-16t18-42q0-26-18-41.5T395 741q-39 0-57 15.5T320 798z"/><glyph unicode="" horiz-adv-x="432" d="M274 207q-32 0-53.5-3t-34.5-9.5q-13-6.5-18-16t-5-22.5q0-26 22.5-41.5T253 99q40 0 73 9t56 23l28-101q-26-15-67-28t-96-13Q137-11 85 31.5T33 140q0 51 23.5 80.5T130 264v4q-40 14-59 45.5T52 380q0 64 46 96.5T223 509q62 0 108.5-12.5T408 467l-28-99q-18 11-48.5 21T262 399q-41 0-60.5-11T182 350q0-23 22.5-37.5T262 298h61v-91zM56 631q0 32 19.5 51t51.5 19q32 0 50.5-19t18.5-51q0-30-18.5-49T127 563q-32 0-51.5 19T56 631zm219 0q0 32 18.5 51t50.5 19q32 0 51.5-19t19.5-51q0-30-19.5-49T344 563q-32 0-50.5 19T275 631z"/><glyph unicode="" horiz-adv-x="285" d="M74 700h137V0H74zm-18 99q0 25 21.5 43t64.5 18q43 0 66-18t23-43q0-26-23-44t-66-18q-43 0-64.5 18T56 799z"/><glyph unicode="" horiz-adv-x="269" d="M70 500h130V0H70z"/><glyph unicode="" horiz-adv-x="508" d="M60 700h415V578H197V405h256V283H197V0H60z"/><glyph unicode="" horiz-adv-x="408" d="M380 385H191V277h169V173H191V0H57v500h323z"/><glyph unicode="" horiz-adv-x="559" d="M534 29q-24-17-58.5-26.5T403-11l-14-164h-88L282-7q-51 9-95.5 34T109 95.5Q76 139 57 202T38 350q0 103 28.5 172.5t74 112Q186 677 242 695.5T354 714q60 0 101.5-8t68.5-19V571q-50 11-81.5 16t-76.5 5q-83 0-133.5-59T182 350q0-54 12-98.5t36.5-76q24.5-31.5 61-49T376 109q45 0 76 9t54 23z"/><glyph unicode="" horiz-adv-x="433" d="M411 31Q373 4 317-7l-14-168h-88L196-9q-45 8-76 30T69.5 76.5Q50 110 41.5 154T33 250q0 127 57 195.5T256 514q55 0 88.5-9t60.5-23l-31-106q-23 11-45.5 17t-51.5 6q-54 0-82-35.5T167 250q0-32 7-59t21-47q14-20 36.5-31.5T284 101q33 0 56 8.5t41 20.5z"/><glyph unicode="" horiz-adv-x="647" d="M60 700q21 3 47.5 5t54.5 3q28 1 54.5 1.5t47.5.5q93 0 159-26t107-73q41-47 60-112t19-143q0-71-18-137t-60-117q-42-51-110.5-82T251-11q-16 0-42.5 1t-55 2.5Q125-6 99-4.5T60-1zm215-112q-22 0-44.5-1t-33.5-3V115q4-1 13.5-1.5t20.5-1q11-.5 21-1t15-.5q58 0 96.5 20.5t61 54.5q22.5 34 31.5 78.5t9 91.5q0 41-8 82.5T427.5 513Q406 546 369 567t-94 21zm27 282h159v-30l-160-88H198z"/><glyph unicode="" horiz-adv-x="539" d="M482 176q0-42 1-84t9-93h-93l-18 65h-4q-20-35-57.5-56.5T231-14q-94 0-146 62T33 242q0 128 58 199t170 71q31 0 51-3.5t40-11.5v203h130zM261 96q38 0 60 18.5t31 53.5v212q-14 11-31 16.5t-44 5.5q-55 0-82.5-37T167 238q0-64 22.5-103T261 96zm298 604h132v-30L580 546h-74z"/><glyph unicode="" horiz-adv-x="651" d="M453 293H197V0H60v700h137V415h256v285h137V0H453zM347 870h159v-30l-160-88H243z"/><glyph unicode="" horiz-adv-x="545" d="M363 0v284q0 61-17 88t-62 27q-33 0-60.5-22.5T187 319V0H57v700h130V444h4q24 32 59 51t89 19q38 0 67-10t48.5-33q19.5-23 29-62.5T493 311V0zm-41 720h132v-30L343 566h-74z"/><glyph unicode="" horiz-adv-x="514" d="M503 0H60v700h137V122h306zM302 700h132v-30L323 546h-74z"/><glyph unicode="" horiz-adv-x="294" d="M191 168q0-35 9-51t29-16q12 0 23.5 2t28.5 9l14-102q-16-8-49-16t-68-8q-57 0-87 26.5T61 100v600h130zm78 532h132v-30L290 546h-74z"/><glyph unicode="" horiz-adv-x="568" d="M557 578H353V0H216v578H11v122h546zM322 870h159v-30l-160-88H218z"/><glyph unicode="" horiz-adv-x="349" d="M5 500h69v94l130 37V500h122V390H204V198q0-52 10.5-74.5T254 101q20 0 34.5 4t32.5 12l23-100Q317 4 281-5t-73-9q-69 0-101.5 35.5T74 138v252H5zm299 200h132v-30L325 546h-74z"/><glyph unicode="" horiz-adv-x="602" d="M290 289l18-119h5l20 120 134 410h144L351-5h-98L-9 700h159zm50 581h159v-30l-160-88H236z"/><glyph unicode="" horiz-adv-x="477" d="M230 238l17-77h5l14 79 85 260h140L282-5h-79L-14 500h151zm9 482h132v-30L260 566h-74z"/><glyph unicode="" horiz-adv-x="526" d="M120 310v107h46q13 0 26.5.5t26.5 2q13 1.5 21 3.5 35 8 60 28.5t25 55.5q0 48-30.5 65.5T214 590q-45 0-84-12t-59-23L36 671q11 6 31.5 13t47 13.5Q141 704 172 708t63 4q44 0 86-8t75-28q33-20 53-53.5t20-85.5q0-52-27.5-96T353 377v-5q65-13 101.5-56T491 201q0-57-23-97.5T407.5 37Q370 11 321-1.5T221-14q-66 0-120 11T18 23l35 119q23-11 66-22.5T221 108q22 0 44.5 5.5t40.5 18q18 12.5 29 32.5t11 48q0 47-35 71t-125 26q-12 1-18 1h-21z"/><glyph unicode="" horiz-adv-x="437" d="M101 132v90h61q18 0 34 7.5t28.5 20q12.5 12.5 20 29.5t7.5 36q0 44-22.5 64.5T159 400q-39 0-62.5-9.5T55 370l-28 98q30 17 74.5 29T204 509q91 0 135-43t44-114q0-53-27-94.5T291 199v-4q25-8 47.5-21.5t38.5-35q16-21.5 25.5-52T412 13q0-55-19.5-96.5t-52.5-70q-33-28.5-76.5-43T171-211q-51 0-90.5 11.5T14-173L50-72q23-13 50-21.5t54-8.5q24 0 46.5 6.5t40.5 20Q259-62 270-40t11 53q0 59-36.5 89T144 132z"/><glyph unicode="" horiz-adv-x="526" d="M120 310v107h46q13 0 26.5.5t26.5 2q13 1.5 21 3.5 35 8 60 28.5t25 55.5q0 48-30.5 65.5T214 590q-45 0-84-12t-59-23L36 671q11 6 31.5 13t47 13.5Q141 704 172 708t63 4q44 0 86-8t75-28q33-20 53-53.5t20-85.5q0-52-27.5-96T353 377v-5q65-13 101.5-56T491 201q0-57-23-97.5T407.5 37Q370 11 321-1.5T221-14q-66 0-120 11T18 23l35 119q23-11 66-22.5T221 108q22 0 44.5 5.5t40.5 18q18 12.5 29 32.5t11 48q0 47-35 71t-125 26q-12 1-18 1h-21zm163 427h-94L62 831v39h105l53-45 19-30 21 29 56 46h100v-40z"/><glyph unicode="" horiz-adv-x="437" d="M101 132v90h61q18 0 34 7.5t28.5 20q12.5 12.5 20 29.5t7.5 36q0 44-22.5 64.5T159 400q-39 0-62.5-9.5T55 370l-28 98q30 17 74.5 29T204 509q91 0 135-43t44-114q0-53-27-94.5T291 199v-4q25-8 47.5-21.5t38.5-35q16-21.5 25.5-52T412 13q0-55-19.5-96.5t-52.5-70q-33-28.5-76.5-43T171-211q-51 0-90.5 11.5T14-173L50-72q23-13 50-21.5t54-8.5q24 0 46.5 6.5t40.5 20Q259-62 270-40t11 53q0 59-36.5 89T144 132zm143 418h-91L38 732h110l39-66 16-49 18 49 45 66h101z"/><glyph unicode="" horiz-adv-x="223" d="M185 351q0-29-19.5-46.5T117 287q-37 0-58 23.5T38 373q0 40 12.5 68t30 46.5Q98 506 117 516.5t33 15.5l32-54q-20-8-34-25.5T132 415q20 0 36.5-17.5T185 351z"/><glyph unicode="" horiz-adv-x="223" d="M38 467q0 29 19.5 47t49.5 18q36 0 57-24t21-63q0-40-12.5-68t-30-46.5Q125 312 105.5 302T73 287l-33 55q20 9 35.5 23.5T93 403q-20-1-37.5 15.5T38 467z"/><glyph unicode="" horiz-adv-x="396" d="M358 351q0-29-19.5-46.5T290 287q-37 0-58 23.5T211 373q0 40 12.5 68t30 46.5q17.5 18.5 36.5 29t33 15.5l32-54q-20-8-34-25.5T305 415q20 0 36.5-17.5T358 351zm-173 0q0-29-19.5-46.5T117 287q-37 0-58 23.5T38 373q0 40 12.5 68t30 46.5Q98 506 117 516.5t33 15.5l32-54q-20-8-34-25.5T132 415q20 0 36.5-17.5T185 351z"/><glyph unicode="" horiz-adv-x="396" d="M211 467q0 29 19.5 47t49.5 18q36 0 57-24t21-63q0-40-12.5-68t-30-46.5Q298 312 278.5 302T246 287l-33 55q20 9 35.5 23.5T266 403q-20-1-37.5 15.5T211 467zm-173 0q0 29 19.5 47t49.5 18q36 0 57-24t21-63q0-40-12.5-68t-30-46.5Q125 312 105.5 302T73 287l-33 55q20 9 35.5 23.5T93 403q-20-1-37.5 15.5T38 467z"/><glyph unicode="" horiz-adv-x="254" d="M90 525h114l-36-216H90z"/><glyph unicode="" horiz-adv-x="402" d="M90 525h114l-36-216H90zm148 0h114l-36-216h-78z"/><glyph unicode="" horiz-adv-x="412" d="M169 544l11 46-31-32-59-39-49 77 158 111h85V280H169z"/><glyph unicode="" horiz-adv-x="267" d="M60-105q0 29 19.5 46T128-42q35 0 57-23t22-65q0-33-11-58t-27-42.5q-16-17.5-34-28T104-273l-34 54q14 7 28 19.5t16 33.5q-20-1-37 14.5T60-105z"/><glyph unicode="" horiz-adv-x="383" d="M164 870h159v-30l-160-88H60z"/><glyph unicode="" horiz-adv-x="474" d="M281 737h-94L60 831v39h105l53-45 19-30 21 29 56 46h100v-40z"/><glyph unicode="" horiz-adv-x="485" d="M60 798q0 26 18 42t58 16q39 0 57-16t18-42q0-26-18-41.5T136 741q-40 0-58 15.5T60 798zm214 0q0 26 18 42t57 16q40 0 58-16t18-42q0-26-18-41.5T349 741q-39 0-57 15.5T274 798z"/><glyph unicode="" horiz-adv-x="383" d="M323 752H218L60 840v30h159z"/><glyph unicode="" horiz-adv-x="517" d="M119 850h134v-16l-100-93H60zm198 0h140v-16l-143-93h-94z"/><glyph unicode="" horiz-adv-x="463" d="M60 856h343v-89H60z"/><glyph unicode="" horiz-adv-x="503" d="M184 874q4-32 23.5-46t50.5-14q67 0 74 59l111-17q-11-63-57.5-92T257 735q-41 0-75 6t-59.5 19.5Q97 774 80.5 797T60 854z"/><glyph unicode="" horiz-adv-x="462" d="M170 704q7-39 23.5-55t42.5-16q28 0 44.5 16t22.5 54l99-25q-12-65-59-96.5T233 550q-31 0-60 7t-52 22.5Q98 595 82 619t-22 59z"/><glyph unicode="ﬁ" horiz-adv-x="553" d="M492 500V0H362v390H211V0H81v390H12v110h69v28q0 95 49 138.5T272 710q69 0 122.5-10.5T481 670l-34-101q-26 14-63 22.5t-82 8.5q-29 0-47-6.5t-28-19Q217 562 214 543t-3-43z"/><glyph unicode="ﬂ" horiz-adv-x="593" d="M360 596q-13 3-35.5 5t-43.5 2q-23 0-37-7t-21.5-20q-7.5-13-9.5-32.5t-2-43.5h75V390h-75V0H81v390H12v110h69v28q0 94 45.5 139.5T283 713q23 0 53-2t59.5-4.5q29.5-2.5 55-5.5t39.5-6V168q0-35 9-51t28-16q12 0 23.5 2t28.5 9l15-102q-16-8-49.5-16T476-14q-57 0-86.5 26.5T360 100z"/><glyph horiz-adv-x="0"/></font>
</defs>
</svg>
