<svg xmlns="http://www.w3.org/2000/svg"><defs><font id="PTMono-Bold" horiz-adv-x="598"><font-face ascent="885" descent="235"/><glyph horiz-adv-x="600"/><glyph horiz-adv-x="600"/><glyph unicode="!" horiz-adv-x="600" d="M233 700h134V371l-26-163h-82l-26 163zM219 66q0 35 22 55.5t58 20.5q38 0 60-20.5T381 66q0-35-22-56t-60-21q-36 0-58 21t-22 56z"/><glyph unicode="&quot;" horiz-adv-x="600" d="M129 700h114l-36-316h-78zm218 0h114l-36-316h-78z"/><glyph unicode="#" horiz-adv-x="600" d="M310 205h-89L185 51H78l36 154H40l22 97h75l25 106H90l22 97h73l35 144h106l-34-144h89l35 144h106l-34-144h72l-25-97h-70l-25-106h69l-24-97h-68L381 51H274zm-66 97h89l25 106h-89z"/><glyph unicode="$" horiz-adv-x="600" d="M245-13q-57 2-100 12T78 22l39 113q18-11 50.5-21t77.5-14v205q-31 14-61.5 31T129 377q-24 24-38.5 57.5T76 514q0 86 45.5 133.5T245 709v91h104v-87q44-3 77-12t61-21l-36-111q-17 8-43 16t-59 12V410q31-14 62.5-31.5t56-41.5q24.5-24 40-56.5T523 203q0-92-46.5-143.5T349-7v-93H245zm146 201q0 32-24.5 52.5T306 278V100q44 5 64.5 28t20.5 60zM208 525q0-30 22.5-50t57.5-37v162q-47-2-63.5-23T208 525z"/><glyph unicode="%" horiz-adv-x="600" d="M16 542q0 90 38.5 130T162 712q68 0 106.5-38T307 542q0-94-38.5-132T162 372q-69 0-107.5 38T16 542zm97 0q0-86 49-86 23 0 35.5 18.5T210 542q0 48-12.5 67T162 628q-23 0-36-19t-13-67zm407 167l58-53L71-14 15 43zM293 170q0 90 38.5 130T439 340q68 0 106.5-38T584 170q0-94-38.5-132T439 0q-69 0-107.5 38T293 170zm97 0q0-86 49-86 23 0 35.5 18.5T487 170q0 48-12.5 67T439 256q-23 0-36-19t-13-67z"/><glyph unicode="&amp;" horiz-adv-x="600" d="M12 194q0 38 11.5 72T54 329q19 29 43.5 54t50.5 45q-30 33-47.5 69.5T83 572q0 25 9.5 50.5t30 46q20.5 20.5 53.5 33t80 12.5q46 0 78.5-11t52.5-29q20-18 29-41t9-47q0-41-31.5-87T292 412q35-54 72.5-97.5T445 227q11 12 19.5 31t14 40q5.5 21 8 42.5T489 380h102q-1-77-22.5-135.5T524 158q12-12 30-23.5t35-19.5V-14q-45 11-80.5 33.5T444 70q-18-17-39-32t-46.5-26.5Q333 0 301.5-7T231-14q-47 0-87.5 14T74 41q-29 27-45.5 65.5T12 194zm354-45q-51 53-90 102.5T206 348q-31-30-47.5-65T142 205q0-26 8.5-46t23.5-34q15-14 34-21.5t40-7.5q40 0 70 16.5t48 36.5zM213 566q0-42 36-90 39 25 56.5 47t17.5 42q0 24-13.5 38T266 617q-27 0-40-14t-13-37z"/><glyph unicode="'" horiz-adv-x="600" d="M243 700h114l-36-316h-78z"/><glyph unicode="(" horiz-adv-x="600" d="M455-212q-70 11-136 44T202-79q-51 56-81.5 136T90 243q0 105 30.5 185.5T202 566q51 57 117 91t136 47l24-107q-35-8-79.5-28.5t-84.5-61Q275 467 247.5 403T220 243q0-92 29-155t70.5-103.5Q361-56 405-76.5t74-26.5z"/><glyph unicode=")" horiz-adv-x="600" d="M120-103q30 6 74 26.5t85.5 61Q321 25 350 88t29 155q0 96-27.5 160T284 507.5q-40 40.5-84.5 61T120 597l24 107q70-13 136-47t117-91q51-57 81.5-137.5T509 243q0-106-30.5-186T397-79q-51-56-117-89t-136-44z"/><glyph unicode="*" horiz-adv-x="600" d="M225 731l72-176 72 175 108-60-132-159 205 26V415l-195 27 126-149-107-62-79 184-70-180-108 63 124 144-191-27v125l199-29-132 158z"/><glyph unicode="+" horiz-adv-x="600" d="M49 394h192v199h117V394h193V282H358V81H241v201H49z"/><glyph unicode="," horiz-adv-x="600" d="M218 64q0 34 22.5 54t56.5 20q55 0 83-36t28-89q0-45-17.5-82T345-133q-28-27-62.5-44T214-200l-27 55q24 6 48.5 17t44.5 27.5Q300-84 313.5-62T329-14q-30-6-51-1.5T243.5.5Q230 12 224 28.5T218 64z"/><glyph unicode="-" horiz-adv-x="600" d="M154 345h291V230H154z"/><glyph unicode="." horiz-adv-x="600" d="M219 66q0 35 22 55.5t58 20.5q38 0 60-20.5T381 66q0-35-22-56t-60-21q-36 0-58 21t-22 56z"/><glyph unicode="/" horiz-adv-x="600" d="M429 712l98-44-357-808-98 46z"/><glyph unicode="0" horiz-adv-x="600" d="M38 351q0 91 19 159.5T110.5 624q34.5 45 82.5 67.5T300 714q126 0 194-88.5T562 351q0-92-19-160.5t-53.5-114q-34.5-45.5-83-68T299-14q-127 0-194 93.5T38 351zm396 0q0 16-.5 30.5T432 410L187 187q31-91 113-91 64 0 99 61t35 194zm-268 0q0-15 .5-28.5T168 295l244 223q-30 86-113 86-64 0-98.5-61.5T166 351z"/><glyph unicode="1" horiz-adv-x="600" d="M106 110h153v437L127 446l-60 80 228 174h88V110h150V0H106z"/><glyph unicode="2" horiz-adv-x="600" d="M523 0H77v97q12 10 30 26.5t40.5 37.5q22.5 21 47.5 46t49 52q34 38 59.5 69t42 58.5q16.5 27.5 24.5 54t8 54.5q0 20-9 39t-25 33.5q-16 14.5-38.5 23T256 599q-36 0-65.5-11T129 551l-52 92q42 30 93.5 50.5T289 714q43 0 82.5-12t70-35.5Q472 643 490 608t18-81q0-32-5.5-59.5t-17-55Q474 385 455.5 356T411 293q-20-26-43.5-52.5T321 190q-23-24-45.5-45T235 110h288z"/><glyph unicode="3" horiz-adv-x="600" d="M248 96q33 0 60.5 8.5t47 24q19.5 15.5 30.5 36t11 44.5q0 30-12.5 50.5T350 292q-22 12-53 17t-67 5h-56v71l168 205H89v110h408v-91L321 408h23q35 0 68-12t58.5-36q25.5-24 41-60t15.5-83q0-57-23.5-100t-62-72.5Q403 15 353 .5T250-14q-45 0-90 8T73 19l35 108q9-5 24.5-10t35-10q19.5-5 40-8t40.5-3z"/><glyph unicode="4" horiz-adv-x="600" d="M577 195H457V0H336v195H33v89l317 421h107V299h120zM336 521L162 299h174z"/><glyph unicode="5" horiz-adv-x="600" d="M237 101q33 0 61 8t48.5 23q20.5 15 32 37t11.5 50q0 55-43.5 86.5T216 337q-11 0-25.5-.5T163 335q-15-1-31-1v366h362V580H244V443q8 0 16 1 7 0 13.5.5t11.5.5q50 0 93-14.5t75-43.5q32-29 49.5-70.5T520 225q0-59-22-103.5T438 47q-38-30-88-45.5T243-14q-22 0-47 4.5t-49 11Q123 8 102.5 16T68 31l42 104q17-10 52.5-22t74.5-12z"/><glyph unicode="6" horiz-adv-x="600" d="M546 217q0-49-18.5-91T477 53q-32-31-76.5-49T305-14q-52 0-97.5 16.5T128 52q-34 33-54 83T54 251q0 99 34.5 180T177 571.5q54 59.5 121 96T431 714l29-103q-53-10-99-32.5T279 524q-36-32-60.5-71T185 372q20 25 60 42.5t88 17.5q45 0 84-14.5t67.5-42q28.5-27.5 45-67.5t16.5-91zm-126-5q0 54-32.5 82T300 322q-40 0-72-18t-47-42q-2-11-2.5-24.5T178 216q0-24 8-46t23.5-38.5q15.5-16.5 37.5-26t51-9.5q23 0 45 8.5t39 23.5q17 15 27.5 36.5T420 212z"/><glyph unicode="7" horiz-adv-x="600" d="M102 0l288 582H64v118h456v-98L229 0z"/><glyph unicode="8" horiz-adv-x="600" d="M60 171q0 35 11.5 64t30 52q18.5 23 42.5 41.5t49 32.5q-50 29-83 68.5T77 529q0 39 17 73t47.5 59q30.5 25 72.5 39t91 14q45 0 84.5-12t69.5-34q30-22 47-53.5t17-69.5q0-59-30.5-103T409 366q60-31 95.5-73T540 185q0-45-19.5-81.5T468 41Q435 15 390.5.5T296-14q-50 0-93 13.5T128 37Q96 61 78 95t-18 76zm356 17q0 25-13 43t-32.5 32q-19.5 14-43 25.5T282 312q-50-22-77-56.5T178 190q0-45 32-69.5T299 96q51 0 84 23.5t33 68.5zM201 523q0-24 10.5-40.5t27-29Q255 441 276 431l42-20q16 8 31.5 20t27.5 26.5q12 14.5 19.5 30T404 519q0 21-9 36.5T371.5 582Q357 593 339 598.5t-37 5.5q-22 0-40.5-7t-32-18q-13.5-11-21-26t-7.5-30z"/><glyph unicode="9" horiz-adv-x="600" d="M54 481q0 51 17.5 94t49 73.5q31.5 30.5 76 48T296 714q56 0 102-17t79-50.5q33-33.5 51-83T546 450q0-116-30-200t-80.5-140Q385 54 318 24T178-14L150 88q55 7 99.5 27t77.5 49.5q33 29.5 54 67t27 80.5q-21-21-54-33.5T275 266h-2q-38 0-77 13t-70.5 40Q94 346 74 386.5T54 481zm126 7q0-28 10.5-49.5t27.5-36q17-14.5 39.5-22T304 373q41 0 71 13t44 32q3 21 3 40 0 28-8 55t-24 48q-16 21-40 33.5T295 607q-49 0-82-31.5T180 488z"/><glyph unicode=":" horiz-adv-x="600" d="M219 428q0 35 22 55.5t58 20.5q38 0 60-20.5t22-55.5q0-35-22-56t-60-21q-36 0-58 21t-22 56zm0-362q0 35 22 55.5t58 20.5q38 0 60-20.5T381 66q0-35-22-56t-60-21q-36 0-58 21t-22 56z"/><glyph unicode=";" horiz-adv-x="600" d="M218 64q0 34 22.5 54t56.5 20q55 0 83-36t28-89q0-45-17.5-82T345-133q-28-27-62.5-44T214-200l-27 55q24 6 48.5 17t44.5 27.5Q300-84 313.5-62T329-14q-30-6-51-1.5T243.5.5Q230 12 224 28.5T218 64zm0 364q0 35 22 55.5t58 20.5q38 0 60-20.5t22-55.5q0-35-22-56t-60-21q-36 0-58 21t-22 56z"/><glyph unicode="&lt;" horiz-adv-x="600" d="M36 295v50l467 290 57-90-364-220 364-215-57-90z"/><glyph unicode="=" horiz-adv-x="600" d="M59 490h482V378H59zm0-192h482V186H59z"/><glyph unicode="&gt;" horiz-adv-x="600" d="M93 20l-57 90 364 215L36 545l57 90 467-290v-50z"/><glyph unicode="?" horiz-adv-x="600" d="M209 208q-1 8-1.5 15.5T207 239q0 44 14 76t35.5 55.5q21.5 23.5 46.5 41t46.5 35q21.5 17.5 35.5 36t14 44.5q0 35-29 56t-90 21q-31 0-57-9t-48-21.5q-22-12.5-39-26T106 525l-63 84q24 26 54.5 46t64.5 33q34 13 70 19.5t71 6.5q109 0 169.5-45.5T533 546q0-51-15.5-84.5t-39.5-57Q454 381 426.5 363t-51-38.5Q352 304 336 277t-16-69zM189 66q0 35 22 55.5t58 20.5q38 0 60-20.5T351 66q0-35-22-56t-60-21q-36 0-58 21t-22 56z"/><glyph unicode="@" horiz-adv-x="600" d="M348 590q61 0 101-17t62.5-44.5Q534 501 543 465t9-74q0-46-1-79t-2.5-57q-1.5-24-2.5-40.5t-1-30.5q0-21 2-47 2-14 3-27h45V0H459l-13 68h-5q-10-15-20.5-29t-25-24.5Q381 4 362-2t-46-6q-36 0-65 13t-49 35q-20 22-30.5 51T161 153q0 85 49 130.5T345 329q18 0 38-2t49-4q2 10 2 20v19q0 19-1.5 40T422 441q-9 18-28 30t-54 12q-43 0-83-17t-70.5-52.5q-30.5-35.5-49-90T119 194q0-60 17-113t49.5-92.5q32.5-39.5 80-62T375-96q29 0 66 7t67 21l31-96q-41-20-83.5-28t-97.5-8q-86 0-151.5 31.5T97-83Q53-29 30 42T7 193q0 102 30 176.5T116 493q49 49 109.5 73T348 590zm-2-491q35 0 55.5 17.5T433 154v80q-10 2-30 4.5t-43 2.5q-29 0-52-16.5T285 173q0-28 15-51t46-23z"/><glyph unicode="A" horiz-adv-x="600" d="M400 155H191L143 0H6l226 700h137L594 0H450zM223 265h150l-71 234h-9z"/><glyph unicode="B" horiz-adv-x="600" d="M533 537q0-26-6.5-52T505 437.5q-15-21.5-39-38T408 375v-6q30-5 57-17t47-33q20-21 31.5-51t11.5-71q0-54-23-93.5T470.5 39Q432 14 383 2T282-10h-43.5q-26.5 0-57 1.5t-62 4.5Q88-1 62 5v690q19 3 43.5 6t52.5 5q28 2 57.5 3t58.5 1q49 0 95.5-7.5t83-26.5q36.5-19 58.5-53t22-86zM283 103q25 0 48.5 6t41.5 18.5q18 12.5 29 31.5t11 45q0 33-13 52t-34 29.5Q345 296 319 299t-52 3h-73V109q5-2 16-3t23.5-1.5q12.5-.5 26-1t23.5-.5zm-45 303q14 0 32.5 1t30.5 3q38 12 65.5 36t27.5 63q0 26-10 43t-26.5 27Q341 589 320 593t-44 4q-26 0-48-1t-34-3V406z"/><glyph unicode="C" horiz-adv-x="600" d="M444 235h110V35q-32-23-81.5-36T371-14q-66 0-125.5 19.5T141 68.5q-45 43.5-72 113T42 350q0 103 30.5 172.5t78.5 112q48 42.5 107 61T374 714q60 0 101.5-10t68.5-23V473H434v114q-31 5-64 5-39 0-72.5-14.5T239 533q-25-30-39-75.5T186 350q0-54 13-98.5t38-76.5q25-32 61-49.5t82-17.5q33 0 64 6z"/><glyph unicode="D" horiz-adv-x="600" d="M50 700q9 1 31.5 3t51 3.5q28.5 1.5 59 2.5t54.5 1q93 0 154-27t96.5-74.5Q532 561 546 496.5T560 356q0-69-14-135t-50.5-117.5q-36.5-51.5-101-83T229-11q-16 0-41 1t-51 2.5q-26 1.5-50 3T50-1zm201-112q-19 0-37-1.5t-27-2.5V115q4-1 12-1.5t16.5-1 16.5-1q8-.5 13-.5 58 0 92.5 21.5T389 189q17 35 22 79t5 88q0 38-4.5 79t-21 75Q374 544 341 566t-90 22z"/><glyph unicode="E" horiz-adv-x="600" d="M70 700h459V578H207V415h297V293H207V122h327V0H70z"/><glyph unicode="F" horiz-adv-x="600" d="M84 700h444V578H221V405h285V283H221V0H84z"/><glyph unicode="G" horiz-adv-x="600" d="M323 365h239V49q-34-31-88.5-47T362-14q-67 0-125.5 23T135 78.5q-43 46.5-68 115T42 354q0 97 30 165t77.5 111.5Q197 674 256 694t117 20q60 0 100-9.5t73-24.5V473H436v111l-16 4q-20 4-44 4-41 0-76-14t-60.5-43.5Q214 505 200 459t-14-110q0-57 14-102t39-76q25-31 59.5-47t74.5-16q26 0 47.5 6t29.5 12v139H323z"/><glyph unicode="H" horiz-adv-x="600" d="M413 293H187V0H50v700h137V415h226v285h137V0H413z"/><glyph unicode="I" horiz-adv-x="600" d="M54 122h177v456H54v122h492V578H368V122h178V0H54z"/><glyph unicode="J" horiz-adv-x="600" d="M92 700h418V254q0-57-14.5-107T443 58q-24-24-51.5-38T338-1q-26-7-49-9t-38-2q-48 0-93 10.5T68 36l49 110q38-22 65.5-29t63.5-7q22 0 47.5 8.5T338 147q35 38 35 106v325H92z"/><glyph unicode="K" horiz-adv-x="600" d="M256 292h-71V0H48v700h137V414h71l160 286h156L375 362 597 0H428z"/><glyph unicode="L" horiz-adv-x="600" d="M414 285h124V0H78v700h137V122h199z"/><glyph unicode="M" horiz-adv-x="600" d="M423 373l5 109h-6L310 299h-24L169 482h-5l6-98V0H40v700h139l120-194h4l119 194h138V0H423z"/><glyph unicode="N" horiz-adv-x="600" d="M185 414h-5l6-83V0H56v700h120l242-428h5l-9 84v344h130V0H424z"/><glyph unicode="O" horiz-adv-x="600" d="M36 350q0 85 16 153t49 114.5q33 46.5 82.5 71.5T300 714q72 0 122-27t81.5-75q31.5-48 46-115T564 350q0-171-65.5-267.5T300-14q-72 0-122.5 27t-82 75Q64 136 50 203T36 350zm144 0q0-51 4.5-95t17-76.5q12.5-32.5 36-51.5t62.5-19q35 0 58 14.5t37 44.5q14 30 19.5 75.5T420 350q0 49-3.5 93t-16 77Q388 553 364 572.5T300 592q-70 0-95-61t-25-181z"/><glyph unicode="P" horiz-adv-x="600" d="M73 693q42 8 92.5 12.5T266 710q52 0 104.5-8.5t94.5-34q42-25.5 68.5-71T560 478q0-64-23-109.5t-61-75q-38-29.5-86.5-43T289 237h-16q-11 0-23 .5t-23.5 1.5q-11.5 1-16.5 2V0H73zm204-101q-20 0-38-1.5t-29-3.5V360q4-1 12-2t17-1.5q9-.5 17.5-.5H269q27 0 53.5 5t47.5 18.5q21 13.5 33.5 37.5t12.5 63q0 33-12 54.5T372.5 569Q353 582 328 587t-51 5z"/><glyph unicode="Q" horiz-adv-x="600" d="M548-148q-26-19-55.5-26t-57.5-7q-48 0-83.5 15T291-125q-28 30-42 74-7 21-10 43-34 7-62 21-50 27-81.5 75T50 203q-14 67-14 147 0 85 16 153t49 114.5q33 46.5 82.5 71.5T300 714q72 0 122-27t81.5-75q31.5-48 46-115T564 350q0-171-66-268-48-71-133-89 4-21 18-37 11-14 29-20.5t41-6.5q21 0 38.5 6T520-51zM180 350q0-51 4.5-95t17-76.5q12.5-32.5 36-51.5t62.5-19q35 0 58 14.5t37 44.5q14 30 19.5 75.5T420 350q0 49-3.5 93t-16 77Q388 553 364 572.5T300 592q-70 0-95-61t-25-181z"/><glyph unicode="R" horiz-adv-x="600" d="M62 693q23 4 49.5 7.5t53 5.5q26.5 2 51.5 3t46 1q49 0 96.5-9.5t85-32.5q37.5-23 60-62t22.5-97q0-43-8.5-74.5T494 379q-15-24-36.5-41.5T411 306L580 0H422L281 274h-82V0H62zm210-105q-21 0-41.5-1t-31.5-4V380h54q57 0 93 26t36 86q0 45-28 70.5T272 588z"/><glyph unicode="S" horiz-adv-x="600" d="M65 229h110v-99l6-2q23-10 50.5-16.5T290 105q56 0 87 22.5t31 60.5q0 34-25.5 55t-63 37q-37.5 16-82 32t-82 40.5Q118 377 92.5 414T67 510q0 45 17.5 82.5t49 64.5q31.5 27 75.5 42t98 15q61 0 120-11t94-30V470H411v111q-3 0-6 1-22 6-47.5 9.5T307 595q-48 0-75.5-19T204 525q0-33 25.5-54t63-38q37.5-17 82-34t82-41.5q37.5-24.5 63-61.5t25.5-93q0-54-20-94.5t-56-68Q433 13 384-.5T278-14q-38 0-70.5 6t-60 15Q120 16 99 26T65 43z"/><glyph unicode="T" horiz-adv-x="600" d="M118 110h114v480h-96V469H26v231h548V469H464v121h-95V110h113V0H118z"/><glyph unicode="U" horiz-adv-x="600" d="M420 700h130V252q0-68-18-117.5t-50.5-82Q449 20 404 4t-99-16q-130 0-192.5 63T50 235v465h137V262q0-80 29-116t91-36q60 0 86.5 38.5T420 262z"/><glyph unicode="V" horiz-adv-x="600" d="M306 187h5l138 513h142L381 0H225L9 700h153z"/><glyph unicode="W" horiz-adv-x="600" d="M175 309l2-84h4l17 79 60 186h102l56-186 18-79h4l2 86 28 389h126L522 0H406l-75 221-23 96h-5l-24-96L198 0H78L6 700h137z"/><glyph unicode="X" horiz-adv-x="600" d="M220 359L22 700h160l102-190 23-51 22 51 104 190h155L387 358 594 0H434L327 200l-27 54-26-54L162 0H7z"/><glyph unicode="Y" horiz-adv-x="600" d="M232 258L6 700h163l135-289h5l138 289h147L369 259V0H232z"/><glyph unicode="Z" horiz-adv-x="600" d="M53 122l328 456H69v122h473V578L219 122h328V0H53z"/><glyph unicode="[" horiz-adv-x="600" d="M92 700h395V590H216v-710h271v-110H92z"/><glyph unicode="\" horiz-adv-x="600" d="M531-95l-99-45L69 668l102 43z"/><glyph unicode="]" horiz-adv-x="600" d="M507-230H112v110h271v710H112v110h395z"/><glyph unicode="^" horiz-adv-x="600" d="M281 705h49l242-365H441L301 567 148 340H24z"/><glyph unicode="_" horiz-adv-x="600" d="M78-117h444v-107H78z"/><glyph unicode="`" horiz-adv-x="600" d="M398 566h-72L174 720h164z"/><glyph unicode="a" horiz-adv-x="600" d="M90 466q40 18 92.5 31T307 510q52 0 88.5-12.5t59-35.5q22.5-23 32.5-55t10-72q0-51-3.5-87t-3.5-64q0-21 2-47 2-14 3-27h65V0H394l-13 68h-5q-20-31-57-53.5T219-8q-75 0-119 40T56 138q0 42 15.5 72.5t45 50q29.5 19.5 71 29T280 299q18 0 38-2t49-4q2 10 2 20v19q0 38-22 54.5T282 403q-51 0-92-13t-69-26zM261 99q48 0 72 17.5t35 37.5v60q-10 2-30 4.5t-43 2.5q-19 0-38-3.5t-34-11q-15-7.5-24-19.5t-9-29q0-28 16.5-43.5T261 99z"/><glyph unicode="b" horiz-adv-x="600" d="M-13 700h207V460h4q21 24 56.5 38t87.5 14q99 0 158.5-62T560 263q0-67-20-118.5t-56.5-86Q447 24 394.5 6T276-12q-78 0-130.5 18T64 42v548h-77zm319-298q-14 0-31-5t-32.5-14q-15.5-9-29-22.5T194 330V122q16-8 44-16t60-8q26 0 49.5 9.5t41 29.5q17.5 20 27.5 50t10 72q0 71-30.5 107T306 402z"/><glyph unicode="c" horiz-adv-x="600" d="M546 48q-41-31-96-46.5T335-14q-65 0-115.5 19t-85 53.5Q100 93 82 142T64 250q0 63 21 112t58.5 83q37.5 34 88.5 51.5T343 514q56 0 105-13t75-25V300H413v92q-31 7-62 7-28 0-55.5-8.5t-49-27Q225 345 211.5 317T198 250q0-32 11-59t31-47q20-20 49.5-31.5T355 101q57 0 93.5 16t54.5 28z"/><glyph unicode="d" horiz-adv-x="600" d="M306 700h209V268q0-75 8-148 0-5 1-10h64V0H427l-13 64h-4q-10-18-27-32T345 7.5Q324-3 299-8.5T249-14q-47 0-88.5 15T88 47.5q-31 31.5-49 80T21 242q0 64 19.5 114t54 84.5q34.5 34.5 81.5 53T279 512q31 0 58.5-3.5T385 497v93h-79zM279 96q38 0 67.5 18.5T385 168v212q-14 11-38.5 16.5T295 402q-27 0-52.5-9t-45-28.5Q178 345 166.5 314T155 238q0-64 32-103t92-39z"/><glyph unicode="e" horiz-adv-x="600" d="M534 53q-13-12-33.5-23.5T452.5 8Q425-2 392-8t-70-6q-64 0-114.5 18T122 56.5q-35 34.5-53.5 83T50 250q0 66 21 115.5t57.5 82.5q36.5 33 85.5 49.5T320 514q38 0 78.5-10t74.5-34.5q34-24.5 55.5-65.5T550 300q0-43-10-93H180q1-32 13.5-54t33-36q20.5-14 47-20.5T330 90q60 0 98.5 14t62.5 34zM318 410q-26 0-49-7t-41.5-20.5Q209 369 197 349t-14-45h246q0 49-27.5 77.5T318 410z"/><glyph unicode="f" horiz-adv-x="600" d="M71 0v110h118v280H70v110h119v28q0 47 16.5 81t43.5 56q27 22 62.5 32.5T385 708q69 0 113.5-11.5T572 668l-38-99q-23 11-49.5 20t-68.5 9q-54 0-75.5-24.5T319 500h210V390H319V110h211V0z"/><glyph unicode="g" horiz-adv-x="600" d="M530 0q0-54-18.5-94t-51-66.5q-32.5-26.5-77-39T286-212q-36 0-67.5 5.5t-58 14.5q-26.5 9-46.5 19.5T82-152l50 92q24-16 57.5-30.5T274-105q63 0 96 29t33 83v32h-4q-18-24-53-35.5T265-8q-48 0-88.5 15T106 52.5Q76 83 59.5 130T43 240q0 66 19.5 117t55 85.5q35.5 34.5 85 52T313 512q32 0 64-2.5t60.5-6.5q28.5-4 52.5-9.5t40-11.5zM290 96q38 0 68.5 17t41.5 51v225q-14 6-39.5 9.5T312 402q-28 0-52.5-9t-43-28.5q-18.5-19.5-29-49T177 245q0-36 9-64t25-47q16-19 36-28.5t43-9.5z"/><glyph unicode="h" horiz-adv-x="600" d="M0 700h202V444h4q24 32 64 51t94 19q38 0 70-10t55-33q23-23 36-62.5t13-97.5V0H408v284q0 61-26 88t-68 27q-37 0-68-22.5T202 319V0H72v590H0z"/><glyph unicode="i" horiz-adv-x="600" d="M59 110h176v280H59v110h306V110h185V0H59zm151 526q0 31 23 53t64 22q42 0 67-22t25-53q0-32-25-52.5T297 563q-41 0-64 20.5T210 636z"/><glyph unicode="j" horiz-adv-x="600" d="M94 500h368V39q0-115-60-181t-180-66q-49 0-93 15t-76 44l58 96q11-9 39.5-22.5T215-89q24 0 45.5 7.5t37.5 25Q314-39 323-11t9 70v331H94zm163 136q0 31 23 53t64 22q42 0 67-22t25-53q0-32-25-52.5T344 563q-41 0-64 20.5T257 636z"/><glyph unicode="k" horiz-adv-x="600" d="M0 700h212V301h30l164 199h153L357 272l131-162h93V0H419L247 207h-35V0H82v590H0z"/><glyph unicode="l" horiz-adv-x="600" d="M87 700h213V238q0-77 19-107t61-30q31 0 51 6.5t40 18.5l49-90q-17-11-34-20.5t-36-16q-19-6.5-41.5-10T358-14q-94 0-141 48t-47 136v420H87z"/><glyph unicode="m" horiz-adv-x="600" d="M241 0v306q0 30-4 48.5t-10.5 29q-6.5 10.5-16 14T191 401q-17 0-31.5-11T140 362V0H20v500h95l14-55h3q15 29 44 47.5t68 18.5q33 0 63-16t41-56q15 35 46 53.5t67 18.5q27 0 48.5-7.5T547 477q16-19 24.5-51.5T580 342V0H460v320q0 45-14.5 63T410 401q-18 0-31-8.5T361 365V0z"/><glyph unicode="n" horiz-adv-x="600" d="M12 500h175l15-66h4q23 32 66 56t103 24q37 0 69.5-10t55.5-33q23-23 36.5-62.5T550 311V0H420v284q0 61-27.5 88T323 399q-37 0-67.5-21.5T214 324V0H84v390H12z"/><glyph unicode="o" horiz-adv-x="600" d="M35 250q0 63 19 112t54 83q35 34 83.5 51.5T300 514q63 0 112.5-19t83.5-53.5q34-34.5 51.5-83.5T565 250q0-63-19-112t-54-83q-35-34-83.5-51.5T300-14q-63 0-112.5 19T104 58.5Q70 93 52.5 142T35 250zm134 0q0-33 9-61t26-49q17-21 41-32.5T300 96q58 0 94.5 37T431 250q0 69-34 111.5T300 404q-28 0-52-8.5T206.5 368Q189 349 179 320t-10-70z"/><glyph unicode="p" horiz-adv-x="600" d="M0 500h170l15-60h4q52 74 168 74 46 0 84.5-14.5t66-45.5q27.5-31 42.5-78t15-113q0-64-17-115.5T499 60q-32-36-78-55T316-14q-31 0-61 4.5T205 5v-205H75v590H0zm318-96q-38 0-69.5-19T205 328V120q14-11 40.5-17.5T299 96q28 0 52 9.5t42 30.5q18 21 28 53t10 77q0 66-32 102t-81 36z"/><glyph unicode="q" horiz-adv-x="600" d="M530-200H400V43h-4q-17-26-56-41.5T255-14q-46 0-85 16t-67 47.5Q75 81 59 129T43 240q0 66 20.5 117t57.5 85.5q37 34.5 88.5 52T324 512q31 0 61.5-2.5t58-7q27.5-4.5 50-10T530 482zM290 96q38 0 68.5 17t41.5 51v222q-15 8-37.5 12t-46.5 4q-63 0-101-40t-38-117q0-73 30-111t83-38z"/><glyph unicode="r" horiz-adv-x="600" d="M39 110h124v280H39v110h225l15-66h4q28 33 64 55t84 22q60 0 94.5-44T560 320H443q0 36-10.5 52.5T399 389q-40 0-64.5-20T293 323V110h217V0H39z"/><glyph unicode="s" horiz-adv-x="600" d="M402 138q0 20-24.5 32T317 192q-36 10-79 20.5t-79 29q-36 18.5-60.5 47T74 362q0 37 16.5 65t45 47.5q28.5 19.5 68 29.5t85.5 10q49 0 86-7t64.5-17q27.5-10 47-22.5T520 445l-55-89q-15 9-34.5 18.5t-41 17.5q-21.5 8-45 13t-46.5 5q-42 0-68-11t-26-34q0-18 24.5-29t60.5-20.5q36-9.5 79-20.5t79-28.5q36-17.5 60.5-45.5t24.5-72q0-76-55.5-119.5T312-14q-86 0-148.5 25.5T63 71l60 94q13-11 34.5-24.5T206 116q27-11 57.5-18.5T324 90q32 0 55 11t23 37z"/><glyph unicode="t" horiz-adv-x="600" d="M116 390H17v110h99v114l130 37V500h262V390H246V247q0-77 29-111.5t81-34.5q27 0 49 6.5t39.5 16.5q17.5 10 32 22t26.5 22l60-90q-17-20-42.5-36.5t-55-29Q436 0 404-7t-63-7q-112 0-168.5 62.5T116 247z"/><glyph unicode="u" horiz-adv-x="600" d="M330 500h186V152v-42h76V0H434l-23 74h-4q-23-38-69-63T236-14q-38 0-69.5 10T113 29Q91 52 79 91t-12 98v201H10v110h187V216q0-61 19.5-88t61.5-27q37 0 66.5 22t41.5 54v213h-56z"/><glyph unicode="v" horiz-adv-x="600" d="M313 151h7l112 349h140L381 0H242L27 500h151z"/><glyph unicode="w" horiz-adv-x="600" d="M351 380l75-219h5l9 86 41 253h117L497 0H366l-56 198h-5L242 0H107L2 500h130l49-277 8-62h5l74 219z"/><glyph unicode="x" horiz-adv-x="600" d="M211 258L37 500h155l113-167 118 167h141L393 260 574 0H423L296 184 167 0H25z"/><glyph unicode="y" horiz-adv-x="600" d="M301 141h38l97 359h134L428 49Q409-7 391-53.5T349-134q-24-34-56.5-52.5T213-205q-23 0-43.5 6T132-184.5q-17 8.5-30 18T81-149l67 89q13-11 31-20.5t34-9.5q30 0 47.5 21T294 0h-71L15 500h141z"/><glyph unicode="z" horiz-adv-x="600" d="M64 110l308 280H64v110h472V390L231 110h305V0H64z"/><glyph unicode="{" horiz-adv-x="600" d="M226 56q0 73-36 101T86 185v100q69 0 104.5 29.5T226 410v128q0 76 39.5 119T383 700h150V590h-80q-29 0-48.5-4T373 571q-12-11-17-30.5t-5-50.5V376q0-66-36-97.5T221 242v-10q57-4 93.5-38.5T351 94V-20q0-31 5-50.5t17-30.5q12-11 32-15t49-4h79v-110H383q-75 0-116 40T226-69z"/><glyph unicode="|" horiz-adv-x="600" d="M246 700h107v-830H246z"/><glyph unicode="}" horiz-adv-x="600" d="M393-69q0-81-41-121t-116-40H86v110h79q29 0 49 4t32 15q12 11 17 30.5t5 50.5V94q0 65 36.5 99.5T398 232v10q-58 5-94 36.5T268 376v114q0 31-5.5 50.5T245 571q-12 11-31.5 15t-47.5 4H86v110h150q78 0 117.5-43T393 538V410q0-66 35.5-95.5T533 285V185q-68 0-104-28T393 56z"/><glyph unicode="~" horiz-adv-x="600" d="M64 378q47 38 84.5 52.5T218 445q29 0 54-8.5t48-18q23-9.5 45.5-18T411 392q18 0 37 6t40 23l47-103q-36-27-66-38t-56-11q-28 0-52 9t-46.5 20Q292 309 269 318t-49 9q-24 0-51.5-10.5T108 278z"/><glyph horiz-adv-x="600"/><glyph unicode="¡" horiz-adv-x="600" d="M366-200H232v329l26 162h82l26-162zM219 435q0 35 22 55.5t58 20.5q38 0 60-20.5t22-55.5q0-35-22-56t-60-21q-36 0-58 21t-22 56z"/><glyph unicode="¢" horiz-adv-x="600" d="M535 33q-25-17-62-27T401-6v-94H280v89q-54 9-92 30.5T122 73q-36 42-46.5 90T65 250q0 57 18.5 105.5T132 436q29 30 67.5 49.5T280 510v90h121v-90q14 0 30.5-2t33-6q16.5-4 32-9.5T524 480l-30-106q-25 12-49 18t-60 7V104q27 0 61 7.5t55 21.5zM193 252q0-51 23.5-91t78.5-53v286q-27-3-46-16t-31.5-32.5Q205 326 199 302t-6-50z"/><glyph unicode="£" horiz-adv-x="600" d="M64 394h68q-13 24-22.5 54t-9.5 72q0 49 16.5 85.5t46 60.5q29.5 24 70.5 36t90 12q61 0 111-11.5t86-28.5l-42-116q-20 11-55 22.5T339 592q-48 0-75-22.5T237 502q0-34 12.5-58.5T277 394h141V287h-98q3-17 3-34 0-15-1.5-32.5T314 185q-6-18-19-36t-35-34h276V0H64v115q32 1 56 11t39.5 26.5Q175 169 183 191t8 46q0 27-6 50H64z"/><glyph unicode="¤" horiz-adv-x="600" d="M97 622l106-108q20 12 44.5 18t51.5 6q26 0 52-6.5t45-17.5l106 108 77-80-107-107q19-38 19-90 0-51-19-89l107-106-77-80-108 106q-19-11-44.5-16.5T299 154q-26 0-50 5.5T205 176L97 70l-76 80 107 105q-20 40-20 90 0 25 5.5 46.5T128 433L21 542zm120-276q0-38 23-62t60-24q37 0 59.5 24t22.5 62q0 36-22.5 61T300 432q-37 0-60-25t-23-61z"/><glyph unicode="¥" horiz-adv-x="600" d="M101 337h91L6 700h163l135-289h5l138 289h147L409 337h90v-80H369v-58h130v-80H369V0H232v119H101v80h131v58H101z"/><glyph unicode="¦" horiz-adv-x="600" d="M246 213h107v-343H246zm107 144H246v343h107z"/><glyph unicode="§" horiz-adv-x="600" d="M84 353q0 38 18 72t68 65q-18 13-33.5 34T121 586q0 56 43.5 92T296 714q59 0 110-10t78-23l-32-105q-23 11-61 19.5t-73 8.5q-37 0-52-11t-15-28q0-18 19.5-28t49-18q29.5-8 64-18t64-28q29.5-18 49-48t19.5-78q0-31-17.5-66T429 214q21-14 35.5-36.5T479 114q0-63-49-95.5T300-14Q232-14 186.5-.5T112 29l34 100q23-11 56-22t77-11q37 0 53.5 9.5T349 136q0 19-19.5 29.5t-49 19q-29.5 8.5-64 18.5t-64 27.5Q123 248 103.5 277T84 353zm302-8q0 18-8.5 30T353 396.5q-16 9.5-39 17.5t-52 17q-20-12-34-31.5T214 355q0-35 32-52t88-33q22 12 37 32t15 43z"/><glyph unicode="¨" horiz-adv-x="600" d="M96 646q0 34 20.5 54.5T172 721q34 0 54-20.5t20-54.5q0-32-20-52.5T172 573q-35 0-55.5 20.5T96 646zm258 0q0 34 20 54.5t54 20.5q34 0 55-20.5t21-54.5q0-32-21-52.5T428 573q-34 0-54 20.5T354 646z"/><glyph unicode="©" horiz-adv-x="600" d="M35 285q0 61 20.5 110.5t56.5 84q36 34.5 84 53T300 551q56 0 104.5-18.5t84.5-53q36-34.5 56.5-84T566 285q0-61-20.5-110T489 91.5q-36-34.5-84.5-53T300 20q-62 0-111 18.5t-83 53Q72 126 53.5 175T35 285zm71 0q0-45 14.5-81.5t40.5-62q26-25.5 61.5-39.5T300 88q42 0 78 14t62 39.5q26 25.5 40.5 62T495 285q0 46-14.5 82.5t-40.5 62Q414 455 378 469t-78 14q-42 0-77.5-14T161 429.5q-26-25.5-40.5-62T106 285zm286-117q-17-10-39.5-16.5T301 145q-57 0-90.5 38T177 285q0 68 34.5 104.5T299 426q28 0 48.5-6.5T387 402l-23-62q-14 7-24.5 9t-20.5 2q-21 0-36-16.5T268 283q0-32 15.5-48t40.5-16q14 0 25 3.5t21 8.5z"/><glyph unicode="ª" horiz-adv-x="600" d="M151 674q26 14 73 24t107 10q76 0 104-27.5t28-84.5q0-34-1.5-66.5T460 466q0-24 1.5-45.5T468 380H367l-13 46h-4q-13-17-37-33.5T246 376q-52 0-83 27.5T132 475q0 31 15 52t40.5 34q25.5 13 60 19t74.5 6q7 0 13.5-.5t13.5-.5q2 26-7 37.5T298 634q-41 0-73-8t-52-16zm133-220q32 0 45 11.5t20 23.5v35q-9 1-18 1.5t-17 .5q-30 0-48.5-8.5T247 488q0-16 10.5-25t26.5-9z"/><glyph unicode="«" horiz-adv-x="600" d="M50 259l183 258 75-62-137-195L318 74l-77-64zm232 0l183 258 75-62-137-195L550 74l-77-64z"/><glyph unicode="¬" horiz-adv-x="600" d="M79 412h442V186H401v114H79z"/><glyph unicode="­" horiz-adv-x="600" d="M154 345h291V230H154z"/><glyph unicode="®" horiz-adv-x="600" d="M17 451q0 67 22.5 119.5T101 659q39 36 90.5 55T300 733q59 0 110.5-19t89.5-55q38-36 60-88.5T582 451q0-68-22.5-120.5t-61-88.5q-38.5-36-90-55T300 168q-59 0-110.5 19t-90 55Q61 278 39 330.5T17 451zm89 0q0-50 16-87.5t42.5-62.5q26.5-25 62-37t74.5-12q41 0 76.5 11.5T439 300q26 25 41 62.5t15 88.5q0 49-15.5 86t-42 62q-26.5 25-62 37.5T301 649q-44 0-80-14t-61.5-39.5Q134 570 120 533.5T106 451zm81 128q15 5 44.5 8.5T287 591q25 0 48-4.5t40.5-14.5q17.5-10 27.5-26.5t10-40.5q0-26-12-43.5T370 435l65-113h-85l-48 90h-43v-90h-72zm91-113q21 0 38.5 6.5T334 502q0 35-47 35-9 0-17.5-1.5T259 533v-67z"/><glyph unicode="¯" horiz-adv-x="600" d="M138 658h323v-92H138z"/><glyph unicode="°" horiz-adv-x="600" d="M134 548q0 37 13 67.5t35.5 52.5q22.5 22 52 34t63.5 12q34 0 64.5-11t53.5-32.5q23-21.5 36-52.5t13-70q0-39-13-69.5T416 427q-23-21-53.5-32T298 384q-34 0-63.5 11t-52 32Q160 448 147 478.5T134 548zm100 0q0-32 19-50.5t46-18.5q27 0 47 18.5t20 50.5q0 32-20 51.5T299 619q-27 0-46-19.5T234 548z"/><glyph unicode="±" horiz-adv-x="600" d="M79 518h162v164h117V518h163V406H358V299H241v107H79zm0-265h442V141H79z"/><glyph unicode="²" horiz-adv-x="600" d="M478 481V380H126v70q30 21 67 45.5t68.5 51q31.5 26.5 53 54T336 654q0 23-17 37t-52 14q-39 0-66-14t-44-25l-43 87q41 27 82.5 40.5T279 807q32 0 61-6.5t55-23.5q26-17 41-42.5t15-58.5q0-32-13-60.5t-34-53q-21-24.5-46.5-45T307 481z"/><glyph unicode="³" horiz-adv-x="600" d="M343 630q48-5 82.5-33t34.5-82q0-36-16-62.5t-43-44Q374 391 339.5 382t-70.5-9q-39 0-89 11.5T80 436l43 86q42-31 77-42.5t66-11.5q32 0 55.5 14t23.5 37q0 23-19.5 35T255 566h-38v53l88 86H128v95h315v-70L343 630z"/><glyph unicode="´" horiz-adv-x="600" d="M260 720h158L281 566h-80z"/><glyph unicode="µ" horiz-adv-x="600" d="M189 500V227q0-64 20.5-96.5T281 98q46 0 74 23t40 64v315h130V163q0-41 2.5-82.5T540 0h-96l-32 74h-4q-17-35-50-60.5T272-12q-39 0-60 14t-39 36h-5l21-105v-133H59v700z"/><glyph unicode="¶" horiz-adv-x="600" d="M414 700h107v-830H414zM229 294q-32 0-60 16.5t-48.5 45Q100 384 89 420.5T78 498q0 40 13 76.5t37 64.5q24 28 58 44.5t76 16.5h74v-830H229z"/><glyph unicode="·" horiz-adv-x="600" d="M219 316q0 35 22 55.5t58 20.5q38 0 60-20.5t22-55.5q0-35-22-56t-60-21q-36 0-58 21t-22 56z"/><glyph unicode="¸" horiz-adv-x="600" d="M342 0l-24-43q41-4 64.5-21.5T406-118q0-23-11.5-40T363-186.5Q343-198 316-204t-58-6q-31 0-64 6l9 48q7-1 13-1h11q38 0 49 9t11 21q0 28-86 32l57 95z"/><glyph unicode="¹" horiz-adv-x="600" d="M133 480h129v192l-100-67-49 77 169 118h95V480h120V380H133z"/><glyph unicode="º" horiz-adv-x="600" d="M124 542q0 45 13 77t36.5 53q23.5 21 56 30.5T300 712q38 0 70-9t55.5-29q23.5-20 36.5-52.5t13-79.5q0-47-13-79.5T425.5 410Q402 390 370 381t-70-9q-38 0-70.5 9t-56 29Q150 430 137 462.5T124 542zm117 0q0-86 59-86 31 0 44.5 18.5T358 542q0 48-13.5 67T300 628q-31 0-45-19t-14-67z"/><glyph unicode="»" horiz-adv-x="600" d="M359 10l-77 64 147 186-137 195 75 62 183-258zm-232 0L50 74l147 186L60 455l75 62 183-258z"/><glyph unicode="¼" horiz-adv-x="600" d="M596 78h-51V0h-93v78H306v71l147 279h92V162h51zM452 268l-53-106h53zm-27 456l72-26L182-41l-74 28zM109 576l-58-47-47 66 125 105h76V280h-96z"/><glyph unicode="½" horiz-adv-x="600" d="M597 305q0-52-28.5-102T489 91h108V0H384v84q13 16 33 41t39 52.5q19 27.5 32 54t13 46.5q0 26-11.5 37.5T460 327q-14 0-25.5-4.5T412 310l-26 88q19 12 41.5 20.5T484 427q56 0 84.5-34t28.5-88zM107 576l-58-47-47 66 125 105h76V280h-96zm313 148l72-26L177-41l-74 28z"/><glyph unicode="¾" horiz-adv-x="600" d="M594 78h-51V0h-93v78H304v71l147 279h92V162h51zM91 368q22 0 36 14t14 37q0 23-12.5 36T87 468H60v46l68 95H12v91h218v-87l-64-90q32-8 54-33t22-79q0-28-9-53t-27-44q-18-19-45-30t-63-11q-39 0-62 9.5T3 297l24 90q8-5 24.5-12t39.5-7zm341 356l72-26L189-41l-74 28zm18-456l-53-106h53z"/><glyph unicode="¿" horiz-adv-x="600" d="M393 293q1-8 1.5-15.5t.5-15.5q0-44-14-76t-35.5-55.5Q324 107 299 89.5t-46.5-35Q231 37 217 18t-14-44q0-35 29-56t90-21q31 0 57 9t48 21.5q22 12.5 39 26T496-24l63-84q-24-26-54.5-46T440-187q-34-13-70-19.5t-71-6.5q-109 0-169.5 45.5T69-45q0 51 15.5 84.5t39.5 57q24 23.5 51.5 41.5t51 38.5Q250 197 266 224t16 69zm20 142q0-35-22-55.5T333 359q-38 0-60 20.5T251 435q0 35 22 56t60 21q36 0 58-21t22-56z"/><glyph unicode="À" horiz-adv-x="600" d="M400 155H191L143 0H6l226 700h137L594 0H450zM223 265h150l-71 234h-9zm174 487H292l-158 88v30h159z"/><glyph unicode="Á" horiz-adv-x="600" d="M400 155H191L143 0H6l226 700h137L594 0H450zM223 265h150l-71 234h-9zm84 605h159v-30l-160-88H203z"/><glyph unicode="Â" horiz-adv-x="600" d="M400 155H191L143 0H6l226 700h137L594 0H450zM223 265h150l-71 234h-9zm286 472H373l-73 61-68-61H91l155 133h102z"/><glyph unicode="Ã" horiz-adv-x="600" d="M400 155H191L143 0H6l226 700h137L594 0H450zM223 265h150l-71 234h-9zM111 800q32 35 61.5 48t58.5 13q22 0 44-5.5t42.5-12Q338 837 358 831t38-6q16 0 31 5.5t29 19.5l25-67q-28-26-54.5-36.5T375 736q-23 0-44 5.5T289.5 754q-20.5 7-40.5 12.5t-39 5.5q-19 0-37.5-7.5T135 737z"/><glyph unicode="Ä" horiz-adv-x="600" d="M400 155H191L143 0H6l226 700h137L594 0H450zM223 265h150l-71 234h-9zM97 805q0 27 19 44t61 17q42 0 61-17t19-44q0-28-19-44t-61-16q-42 0-61 16t-19 44zm246 0q0 27 19 44t61 17q42 0 61-17t19-44q0-28-19-44t-61-16q-42 0-61 16t-19 44z"/><glyph unicode="Å" horiz-adv-x="600" d="M172 772q0 18 6 34.5t20.5 29q14.5 12.5 39 19.5t62.5 7q70 0 99-24t29-66q0-18-6.5-34T400 710q-12-9-30-15L594 0H450l-50 155H191L143 0H6l224 693q-18 6-30 16-28 25-28 63zm51-507h150l-71 234h-9zm33 507q0-31 44-31 25 0 35 8t10 23q0 17-10.5 25t-34.5 9q-44-1-44-34z"/><glyph unicode="Æ" horiz-adv-x="600" d="M296 480l-70-204h74v204zm4-312H185L123 0H-2l270 700h331V579H420V416h161V293H420V122h182V0H300z"/><glyph unicode="Ç" horiz-adv-x="600" d="M444 235h110V35q-32-23-82-36-27-7-55-10l-17-32q41-4 64.5-21.5T488-118q0-23-11.5-40T445-186.5Q425-198 398-204t-58-6q-31 0-64 6l9 48q7-1 13-1h11q38 0 49 9t11 21q0 28-86 32l49 83q-45 4-87 17-59 20-104 63.5t-72 113Q42 251 42 350q0 103 30.5 172.5t78.5 112q48 42.5 107 61T374 714q60 0 101.5-10t68.5-23V473H434v114q-31 5-64 5-39 0-72.5-14.5T239 533q-25-30-39-75.5T186 350q0-54 13-98.5t38-76.5q25-32 61-49.5t82-17.5q33 0 64 6z"/><glyph unicode="È" horiz-adv-x="600" d="M70 700h459V578H207V415h297V293H207V122h327V0H70zm322 52H287l-158 88v30h159z"/><glyph unicode="É" horiz-adv-x="600" d="M70 700h459V578H207V415h297V293H207V122h327V0H70zm253 170h159v-30l-160-88H219z"/><glyph unicode="Ê" horiz-adv-x="600" d="M70 700h459V578H207V415h297V293H207V122h327V0H70zm439 37H373l-73 61-68-61H91l155 133h102z"/><glyph unicode="Ë" horiz-adv-x="600" d="M70 700h459V578H207V415h297V293H207V122h327V0H70zm24 105q0 27 19 44t61 17q42 0 61-17t19-44q0-28-19-44t-61-16q-42 0-61 16t-19 44zm246 0q0 27 19 44t61 17q42 0 61-17t19-44q0-28-19-44t-61-16q-42 0-61 16t-19 44z"/><glyph unicode="Ì" horiz-adv-x="600" d="M54 122h177v456H54v122h492V578H368V122h178V0H54zm353 630H302l-158 88v30h159z"/><glyph unicode="Í" horiz-adv-x="600" d="M54 122h177v456H54v122h492V578H368V122h178V0H54zm255 748h159v-30l-160-88H205z"/><glyph unicode="Î" horiz-adv-x="600" d="M54 122h177v456H54v122h492V578H368V122h178V0H54zm453 615H371l-73 61-68-61H89l155 133h102z"/><glyph unicode="Ï" horiz-adv-x="600" d="M54 122h177v456H54v122h492V578H368V122h178V0H54zm44 683q0 27 19 44t61 17q42 0 61-17t19-44q0-28-19-44t-61-16q-42 0-61 16t-19 44zm246 0q0 27 19 44t61 17q42 0 61-17t19-44q0-28-19-44t-61-16q-42 0-61 16t-19 44z"/><glyph unicode="Ð" horiz-adv-x="600" d="M89 700q9 1 31.5 3t51 3.5q28.5 1.5 59 2.5t54.5 1q93 0 154-27t96.5-74.5Q571 561 585 496.5T599 356q0-69-14-135t-50.5-117.5q-36.5-51.5-101-83T268-11q-16 0-41 1t-51 2.5q-26 1.5-50 3T89-1v322H1v80h88zm201-112q-19 0-37-1.5t-27-2.5V401h140v-80H226V115q4-1 12-1.5t16.5-1 16.5-1q8-.5 13-.5 58 0 92.5 21.5T428 189q17 35 22 79t5 88q0 38-4.5 79t-21 75Q413 544 380 566t-90 22z"/><glyph unicode="Ñ" horiz-adv-x="600" d="M185 414h-5l6-83V0H56v700h120l242-428h5l-9 84v344h130V0H424zm-76 386q32 35 61.5 48t58.5 13q22 0 44-5.5t42.5-12Q336 837 356 831t38-6q16 0 31 5.5t29 19.5l25-67q-28-26-54.5-36.5T373 736q-23 0-44 5.5T287.5 754q-20.5 7-40.5 12.5t-39 5.5q-19 0-37.5-7.5T133 737z"/><glyph unicode="Ò" horiz-adv-x="600" d="M36 350q0 85 16 153t49 114.5q33 46.5 82.5 71.5T300 714q72 0 122-27t81.5-75q31.5-48 46-115T564 350q0-171-65.5-267.5T300-14q-72 0-122.5 27t-82 75Q64 136 50 203T36 350zm144 0q0-51 4.5-95t17-76.5q12.5-32.5 36-51.5t62.5-19q35 0 58 14.5t37 44.5q14 30 19.5 75.5T420 350q0 49-3.5 93t-16 77Q388 553 364 572.5T300 592q-70 0-95-61t-25-181zm197 402H272l-158 88v30h159z"/><glyph unicode="Ó" horiz-adv-x="600" d="M36 350q0 85 16 153t49 114.5q33 46.5 82.5 71.5T300 714q72 0 122-27t81.5-75q31.5-48 46-115T564 350q0-171-65.5-267.5T300-14q-72 0-122.5 27t-82 75Q64 136 50 203T36 350zm144 0q0-51 4.5-95t17-76.5q12.5-32.5 36-51.5t62.5-19q35 0 58 14.5t37 44.5q14 30 19.5 75.5T420 350q0 49-3.5 93t-16 77Q388 553 364 572.5T300 592q-70 0-95-61t-25-181zm153 520h159v-30l-160-88H229z"/><glyph unicode="Ô" horiz-adv-x="600" d="M36 350q0 85 16 153t49 114.5q33 46.5 82.5 71.5T300 714q72 0 122-27t81.5-75q31.5-48 46-115T564 350q0-171-65.5-267.5T300-14q-72 0-122.5 27t-82 75Q64 136 50 203T36 350zm144 0q0-51 4.5-95t17-76.5q12.5-32.5 36-51.5t62.5-19q35 0 58 14.5t37 44.5q14 30 19.5 75.5T420 350q0 49-3.5 93t-16 77Q388 553 364 572.5T300 592q-70 0-95-61t-25-181zm329 387H373l-73 61-68-61H91l155 133h102z"/><glyph unicode="Õ" horiz-adv-x="600" d="M36 350q0 85 16 153t49 114.5q33 46.5 82.5 71.5T300 714q72 0 122-27t81.5-75q31.5-48 46-115T564 350q0-171-65.5-267.5T300-14q-72 0-122.5 27t-82 75Q64 136 50 203T36 350zm144 0q0-51 4.5-95t17-76.5q12.5-32.5 36-51.5t62.5-19q35 0 58 14.5t37 44.5q14 30 19.5 75.5T420 350q0 49-3.5 93t-16 77Q388 553 364 572.5T300 592q-70 0-95-61t-25-181zm-71 450q32 35 61.5 48t58.5 13q22 0 44-5.5t42.5-12Q336 837 356 831t38-6q16 0 31 5.5t29 19.5l25-67q-28-26-54.5-36.5T373 736q-23 0-44 5.5T287.5 754q-20.5 7-40.5 12.5t-39 5.5q-19 0-37.5-7.5T133 737z"/><glyph unicode="Ö" horiz-adv-x="600" d="M36 350q0 85 16 153t49 114.5q33 46.5 82.5 71.5T300 714q72 0 122-27t81.5-75q31.5-48 46-115T564 350q0-171-65.5-267.5T300-14q-72 0-122.5 27t-82 75Q64 136 50 203T36 350zm144 0q0-51 4.5-95t17-76.5q12.5-32.5 36-51.5t62.5-19q35 0 58 14.5t37 44.5q14 30 19.5 75.5T420 350q0 49-3.5 93t-16 77Q388 553 364 572.5T300 592q-70 0-95-61t-25-181zM97 805q0 27 19 44t61 17q42 0 61-17t19-44q0-28-19-44t-61-16q-42 0-61 16t-19 44zm246 0q0 27 19 44t61 17q42 0 61-17t19-44q0-28-19-44t-61-16q-42 0-61 16t-19 44z"/><glyph unicode="×" horiz-adv-x="600" d="M170 547l131-130 130 130 79-81-130-127 130-129-79-82-130 131-132-132-79 81 131 131L92 466z"/><glyph unicode="Ø" horiz-adv-x="600" d="M151 350q0-36 3.5-65.5T166 228l212 331q-30 33-78 33-73 0-111-58.5T151 350zm298 0q0 33-3 60.5T435 464L227 135q12-12 31-19.5t42-7.5q73 0 111 57t38 185zM79 91q-37 48-52.5 112T11 350q0 175 73 269.5T300 714q45 0 83-12t65-32l29 45 85-50-39-62q35-48 50.5-110.5T589 350q0-175-73.5-269.5T300-14q-44 0-81 10.5T156 24l-24-38-86 53z"/><glyph unicode="Ù" horiz-adv-x="600" d="M420 700h130V252q0-68-18-117.5t-50.5-82Q449 20 404 4t-99-16q-130 0-192.5 63T50 235v465h137V262q0-80 29-116t91-36q60 0 86.5 38.5T420 262zm-39 52H276l-158 88v30h159z"/><glyph unicode="Ú" horiz-adv-x="600" d="M420 700h130V252q0-68-18-117.5t-50.5-82Q449 20 404 4t-99-16q-130 0-192.5 63T50 235v465h137V262q0-80 29-116t91-36q60 0 86.5 38.5T420 262zm-69 170h159v-30l-160-88H247z"/><glyph unicode="Û" horiz-adv-x="600" d="M420 700h130V252q0-68-18-117.5t-50.5-82Q449 20 404 4t-99-16q-130 0-192.5 63T50 235v465h137V262q0-80 29-116t91-36q60 0 86.5 38.5T420 262zm89 37H373l-73 61-68-61H91l155 133h102z"/><glyph unicode="Ü" horiz-adv-x="600" d="M420 700h130V252q0-68-18-117.5t-50.5-82Q449 20 404 4t-99-16q-130 0-192.5 63T50 235v465h137V262q0-80 29-116t91-36q60 0 86.5 38.5T420 262zM97 805q0 27 19 44t61 17q42 0 61-17t19-44q0-28-19-44t-61-16q-42 0-61 16t-19 44zm246 0q0 27 19 44t61 17q42 0 61-17t19-44q0-28-19-44t-61-16q-42 0-61 16t-19 44z"/><glyph unicode="Ý" horiz-adv-x="600" d="M232 258L6 700h163l135-289h5l138 289h147L369 259V0H232zm98 612h159v-30l-160-88H226z"/><glyph unicode="Þ" horiz-adv-x="600" d="M56 700h137v-72q14 1 28 1.5t28 .5q52 0 104.5-8.5t94.5-34q42-25.5 68.5-71T543 398q0-66-23-111.5T459 212q-38-29-86.5-42T272 157h-16q-11 0-23 .5t-23.5 1.5q-11.5 1-16.5 2V0H56zm137-420q4-1 12-2t17-1.5q9-.5 17.5-.5H252q27 0 53.5 5t47.5 18.5q21 13.5 33.5 37.5t12.5 63q0 33-12 54.5T355.5 489Q336 502 311 507t-51 5q-20 0-38-1.5t-29-3.5z"/><glyph unicode="ß" horiz-adv-x="600" d="M379 537q0 13-7 24t-19 19.5q-12 8.5-27 13t-30 4.5q-48 0-70-23t-22-87V0H74v390H5v110h69q0 58 16 97.5t44.5 64q28.5 24.5 68 35.5t86.5 11q51 0 91.5-11.5t69-32.5q28.5-21 44-50.5T509 548q0-39-17.5-63t-39-41q-21.5-17-39-32T396 375q0-18 14.5-29t37-20.5q22.5-9.5 48-20t48-27.5q22.5-17 37-43.5T595 167q0-35-11-67.5t-34.5-58Q526 16 490.5 1T407-14q-47 0-86.5 11.5T253 26l35 97q23-13 46-23t62-10q30 0 49.5 20.5T465 160q0 21-14.5 34t-37 23.5Q391 228 365.5 238t-48 25.5Q295 279 280.5 302T266 361q0 43 17.5 67t39 40.5q21.5 16.5 39 30.5t17.5 38z"/><glyph unicode="à" horiz-adv-x="600" d="M90 466q40 18 92.5 31T307 510q52 0 88.5-12.5t59-35.5q22.5-23 32.5-55t10-72q0-51-3.5-87t-3.5-64q0-21 2-47 2-14 3-27h65V0H394l-13 68h-5q-20-31-57-53.5T219-8q-75 0-119 40T56 138q0 42 15.5 72.5t45 50q29.5 19.5 71 29T280 299q18 0 38-2t49-4q2 10 2 20v19q0 38-22 54.5T282 403q-51 0-92-13t-69-26zM261 99q48 0 72 17.5t35 37.5v60q-10 2-30 4.5t-43 2.5q-19 0-38-3.5t-34-11q-15-7.5-24-19.5t-9-29q0-28 16.5-43.5T261 99zm107 467h-72L144 720h164z"/><glyph unicode="á" horiz-adv-x="600" d="M90 466q40 18 92.5 31T307 510q52 0 88.5-12.5t59-35.5q22.5-23 32.5-55t10-72q0-51-3.5-87t-3.5-64q0-21 2-47 2-14 3-27h65V0H394l-13 68h-5q-20-31-57-53.5T219-8q-75 0-119 40T56 138q0 42 15.5 72.5t45 50q29.5 19.5 71 29T280 299q18 0 38-2t49-4q2 10 2 20v19q0 38-22 54.5T282 403q-51 0-92-13t-69-26zM261 99q48 0 72 17.5t35 37.5v60q-10 2-30 4.5t-43 2.5q-19 0-38-3.5t-34-11q-15-7.5-24-19.5t-9-29q0-28 16.5-43.5T261 99zm37 621h158L319 566h-80z"/><glyph unicode="â" horiz-adv-x="600" d="M90 466q40 18 92.5 31T307 510q52 0 88.5-12.5t59-35.5q22.5-23 32.5-55t10-72q0-51-3.5-87t-3.5-64q0-21 2-47 2-14 3-27h65V0H394l-13 68h-5q-20-31-57-53.5T219-8q-75 0-119 40T56 138q0 42 15.5 72.5t45 50q29.5 19.5 71 29T280 299q18 0 38-2t49-4q2 10 2 20v19q0 38-22 54.5T282 403q-51 0-92-13t-69-26zM261 99q48 0 72 17.5t35 37.5v60q-10 2-30 4.5t-43 2.5q-19 0-38-3.5t-34-11q-15-7.5-24-19.5t-9-29q0-28 16.5-43.5T261 99zm0 633h86l111-182H355l-55 94-63-94h-99z"/><glyph unicode="ã" horiz-adv-x="600" d="M90 466q40 18 92.5 31T307 510q52 0 88.5-12.5t59-35.5q22.5-23 32.5-55t10-72q0-51-3.5-87t-3.5-64q0-21 2-47 2-14 3-27h65V0H394l-13 68h-5q-20-31-57-53.5T219-8q-75 0-119 40T56 138q0 42 15.5 72.5t45 50q29.5 19.5 71 29T280 299q18 0 38-2t49-4q2 10 2 20v19q0 38-22 54.5T282 403q-51 0-92-13t-69-26zM261 99q48 0 72 17.5t35 37.5v60q-10 2-30 4.5t-43 2.5q-19 0-38-3.5t-34-11q-15-7.5-24-19.5t-9-29q0-28 16.5-43.5T261 99zM129 658q31 37 57.5 51t50.5 14q20 0 38.5-7t36.5-15q18-8 35-15t35-5q14-2 28.5 4t30.5 21l20-70q-29-32-53.5-44T360 580q-20 0-39 6.5T284 601q-18 8-36 14.5t-36 6.5q-15 0-31-6.5T148 593z"/><glyph unicode="ä" horiz-adv-x="600" d="M90 466q40 18 92.5 31T307 510q52 0 88.5-12.5t59-35.5q22.5-23 32.5-55t10-72q0-51-3.5-87t-3.5-64q0-21 2-47 2-14 3-27h65V0H394l-13 68h-5q-20-31-57-53.5T219-8q-75 0-119 40T56 138q0 42 15.5 72.5t45 50q29.5 19.5 71 29T280 299q18 0 38-2t49-4q2 10 2 20v19q0 38-22 54.5T282 403q-51 0-92-13t-69-26zM261 99q48 0 72 17.5t35 37.5v60q-10 2-30 4.5t-43 2.5q-19 0-38-3.5t-34-11q-15-7.5-24-19.5t-9-29q0-28 16.5-43.5T261 99zM88 646q0 34 20.5 54.5T164 721q34 0 54-20.5t20-54.5q0-32-20-52.5T164 573q-35 0-55.5 20.5T88 646zm258 0q0 34 20 54.5t54 20.5q34 0 55-20.5t21-54.5q0-32-21-52.5T420 573q-34 0-54 20.5T346 646z"/><glyph unicode="å" horiz-adv-x="600" d="M90 466q40 18 92.5 31T307 510q52 0 88.5-12.5t59-35.5q22.5-23 32.5-55t10-72q0-51-3.5-87t-3.5-64q0-21 2-47 2-14 3-27h65V0H394l-13 68h-5q-20-31-57-53.5T219-8q-75 0-119 40T56 138q0 42 15.5 72.5t45 50q29.5 19.5 71 29T280 299q18 0 38-2t49-4q2 10 2 20v19q0 38-22 54.5T282 403q-51 0-92-13t-69-26zM261 99q48 0 72 17.5t35 37.5v60q-10 2-30 4.5t-43 2.5q-19 0-38-3.5t-34-11q-15-7.5-24-19.5t-9-29q0-28 16.5-43.5T261 99zm-86 548q0 42 28.5 69t82.5 27q51 0 81-24.5t30-71.5q0-39-29.5-66.5T286 553q-53 0-82 25.5T175 647zm72 0q0-16 12-24.5t27-8.5q17 0 28 8t11 25q0 17-11.5 25.5T286 681q-15 0-27-8t-12-26z"/><glyph unicode="æ" horiz-adv-x="600" d="M179 100q41 0 52 35v90q-5 1-9 1.5t-9 .5q-29-1-48.5-15.5T145 158q0-58 34-58zm78-38q-17-34-44.5-52T140-8Q114-8 91 3T51 33.5Q34 53 24.5 80T15 140q0 41 13 71t37 50q24 20 57 30t72 10h15q8 0 15-1 1 8 1 16v15q0 42-15 56.5T169 402q-9 0-22-2.5t-26.5-6.5q-13.5-4-27-10T70 371l-33 96q14 10 33 18.5t41 13.5q22 5 44.5 8t43.5 3q34 0 65-12.5t45-40.5q35 57 103 57 29 0 57-10t50.5-32.5Q542 449 556 412t14-90q0-29-3-56.5t-7-50.5H349q1-68 22.5-95T428 93q12 0 26 2t27 5.5q13 3.5 24 8t17 8.5l36-86q-11-9-27.5-16.5T494 1q-20-6-43-9.5T406-12q-48 0-86.5 18T261 62zm152 348q-28 0-42.5-28T350 293h101q0 5 .5 12t.5 12q0 45-10.5 69T409 410z"/><glyph unicode="ç" horiz-adv-x="600" d="M546 48q-41-31-96-47-39-10-81-14l-17-30q41-4 64.5-21.5T440-118q0-23-11.5-40T397-186.5Q377-198 350-204t-58-6q-31 0-64 6l9 48q7-1 13-1h11q38 0 49 9t11 21q0 28-86 32l50 84q-35 5-66 16-50 19-84.5 53.5T82 142q-18 49-18 108 0 63 21 112t58.5 83q37.5 34 88.5 51.5T343 514q56 0 105-13t75-25V300H413v92q-31 7-62 7-28 0-55.5-8.5t-49-27Q225 345 211.5 317T198 250q0-32 11-59t31-47q20-20 49.5-31.5T355 101q57 0 93.5 16t54.5 28z"/><glyph unicode="è" horiz-adv-x="600" d="M534 53q-13-12-33.5-23.5T452.5 8Q425-2 392-8t-70-6q-64 0-114.5 18T122 56.5q-35 34.5-53.5 83T50 250q0 66 21 115.5t57.5 82.5q36.5 33 85.5 49.5T320 514q38 0 78.5-10t74.5-34.5q34-24.5 55.5-65.5T550 300q0-43-10-93H180q1-32 13.5-54t33-36q20.5-14 47-20.5T330 90q60 0 98.5 14t62.5 34zM318 410q-26 0-49-7t-41.5-20.5Q209 369 197 349t-14-45h246q0 49-27.5 77.5T318 410zm58 156h-72L152 720h164z"/><glyph unicode="é" horiz-adv-x="600" d="M534 53q-13-12-33.5-23.5T452.5 8Q425-2 392-8t-70-6q-64 0-114.5 18T122 56.5q-35 34.5-53.5 83T50 250q0 66 21 115.5t57.5 82.5q36.5 33 85.5 49.5T320 514q38 0 78.5-10t74.5-34.5q34-24.5 55.5-65.5T550 300q0-43-10-93H180q1-32 13.5-54t33-36q20.5-14 47-20.5T330 90q60 0 98.5 14t62.5 34zM318 410q-26 0-49-7t-41.5-20.5Q209 369 197 349t-14-45h246q0 49-27.5 77.5T318 410zm3 310h158L342 566h-80z"/><glyph unicode="ê" horiz-adv-x="600" d="M534 53q-13-12-33.5-23.5T452.5 8Q425-2 392-8t-70-6q-64 0-114.5 18T122 56.5q-35 34.5-53.5 83T50 250q0 66 21 115.5t57.5 82.5q36.5 33 85.5 49.5T320 514q38 0 78.5-10t74.5-34.5q34-24.5 55.5-65.5T550 300q0-43-10-93H180q1-32 13.5-54t33-36q20.5-14 47-20.5T330 90q60 0 98.5 14t62.5 34zM318 410q-26 0-49-7t-41.5-20.5Q209 369 197 349t-14-45h246q0 49-27.5 77.5T318 410zm-40 322h86l111-182H372l-55 94-63-94h-99z"/><glyph unicode="ë" horiz-adv-x="600" d="M534 53q-13-12-33.5-23.5T452.5 8Q425-2 392-8t-70-6q-64 0-114.5 18T122 56.5q-35 34.5-53.5 83T50 250q0 66 21 115.5t57.5 82.5q36.5 33 85.5 49.5T320 514q38 0 78.5-10t74.5-34.5q34-24.5 55.5-65.5T550 300q0-43-10-93H180q1-32 13.5-54t33-36q20.5-14 47-20.5T330 90q60 0 98.5 14t62.5 34zM318 410q-26 0-49-7t-41.5-20.5Q209 369 197 349t-14-45h246q0 49-27.5 77.5T318 410zM111 646q0 34 20.5 54.5T187 721q34 0 54-20.5t20-54.5q0-32-20-52.5T187 573q-35 0-55.5 20.5T111 646zm258 0q0 34 20 54.5t54 20.5q34 0 55-20.5t21-54.5q0-32-21-52.5T443 573q-34 0-54 20.5T369 646z"/><glyph unicode="ì" horiz-adv-x="600" d="M59 110h176v280H59v110h306V110h185V0H59zm299 456h-72L134 720h164z"/><glyph unicode="í" horiz-adv-x="600" d="M59 110h176v280H59v110h306V110h185V0H59zm230 610h158L310 566h-80z"/><glyph unicode="î" horiz-adv-x="600" d="M59 110h176v280H59v110h306V110h185V0H59zm198 622h86l111-182H351l-55 94-63-94h-99z"/><glyph unicode="ï" horiz-adv-x="600" d="M59 110h176v280H59v110h306V110h185V0H59zm36 536q0 34 20.5 54.5T171 721q34 0 54-20.5t20-54.5q0-32-20-52.5T171 573q-35 0-55.5 20.5T95 646zm258 0q0 34 20 54.5t54 20.5q34 0 55-20.5t21-54.5q0-32-21-52.5T427 573q-34 0-54 20.5T353 646z"/><glyph unicode="ð" horiz-adv-x="600" d="M215 584l44 30q-17 7-34.5 12.5T190 635l52 80q22-7 48.5-16.5T346 673l53 36 42-55-33-22q27-23 55.5-53.5t51-71q22.5-40.5 37-91.5T566 302q0-81-21-140.5T487.5 63Q451 24 402 5T298-14q-59 0-106 19t-79.5 53.5q-32.5 34.5-50 82T45 245q0 54 18.5 100t51 80.5q32.5 34.5 77 54T287 499q19 0 39.5-3t40-8q19.5-5 35.5-13t26-18q-15 37-44.5 66T325 575l-67-46zm-44-341q0-36 11-63.5t29-46q18-18.5 41.5-28T302 96q27 0 52.5 10.5t45 32.5q19.5 22 31 56t11.5 81q0 13-1.5 34t-5.5 33q-13 13-29.5 22T371 379q-18 5-35.5 7.5T303 389q-30 0-54.5-11T207 347.5Q190 328 180.5 301t-9.5-58z"/><glyph unicode="ñ" horiz-adv-x="600" d="M12 500h175l15-66h4q23 32 66 56t103 24q37 0 69.5-10t55.5-33q23-23 36.5-62.5T550 311V0H420v284q0 61-27.5 88T323 399q-37 0-67.5-21.5T214 324V0H84v390H12zm130 158q31 37 57.5 51t50.5 14q20 0 38.5-7t36.5-15q18-8 35-15t35-5q14-2 28.5 4t30.5 21l20-70q-29-32-53.5-44T373 580q-20 0-39 6.5T297 601q-18 8-36 14.5t-36 6.5q-15 0-31-6.5T161 593z"/><glyph unicode="ò" horiz-adv-x="600" d="M35 250q0 63 19 112t54 83q35 34 83.5 51.5T300 514q63 0 112.5-19t83.5-53.5q34-34.5 51.5-83.5T565 250q0-63-19-112t-54-83q-35-34-83.5-51.5T300-14q-63 0-112.5 19T104 58.5Q70 93 52.5 142T35 250zm134 0q0-33 9-61t26-49q17-21 41-32.5T300 96q58 0 94.5 37T431 250q0 69-34 111.5T300 404q-28 0-52-8.5T206.5 368Q189 349 179 320t-10-70zm179 316h-72L124 720h164z"/><glyph unicode="ó" horiz-adv-x="600" d="M35 250q0 63 19 112t54 83q35 34 83.5 51.5T300 514q63 0 112.5-19t83.5-53.5q34-34.5 51.5-83.5T565 250q0-63-19-112t-54-83q-35-34-83.5-51.5T300-14q-63 0-112.5 19T104 58.5Q70 93 52.5 142T35 250zm134 0q0-33 9-61t26-49q17-21 41-32.5T300 96q58 0 94.5 37T431 250q0 69-34 111.5T300 404q-28 0-52-8.5T206.5 368Q189 349 179 320t-10-70zm147 470h158L337 566h-80z"/><glyph unicode="ô" horiz-adv-x="600" d="M35 250q0 63 19 112t54 83q35 34 83.5 51.5T300 514q63 0 112.5-19t83.5-53.5q34-34.5 51.5-83.5T565 250q0-63-19-112t-54-83q-35-34-83.5-51.5T300-14q-63 0-112.5 19T104 58.5Q70 93 52.5 142T35 250zm134 0q0-33 9-61t26-49q17-21 41-32.5T300 96q58 0 94.5 37T431 250q0 69-34 111.5T300 404q-28 0-52-8.5T206.5 368Q189 349 179 320t-10-70zm94 482h86l111-182H357l-55 94-63-94h-99z"/><glyph unicode="õ" horiz-adv-x="600" d="M35 250q0 63 19 112t54 83q35 34 83.5 51.5T300 514q63 0 112.5-19t83.5-53.5q34-34.5 51.5-83.5T565 250q0-63-19-112t-54-83q-35-34-83.5-51.5T300-14q-63 0-112.5 19T104 58.5Q70 93 52.5 142T35 250zm134 0q0-33 9-61t26-49q17-21 41-32.5T300 96q58 0 94.5 37T431 250q0 69-34 111.5T300 404q-28 0-52-8.5T206.5 368Q189 349 179 320t-10-70zm-35 408q31 37 57.5 51t50.5 14q20 0 38.5-7t36.5-15q18-8 35-15t35-5q14-2 28.5 4t30.5 21l20-70q-29-32-53.5-44T365 580q-20 0-39 6.5T289 601q-18 8-36 14.5t-36 6.5q-15 0-31-6.5T153 593z"/><glyph unicode="ö" horiz-adv-x="600" d="M35 250q0 63 19 112t54 83q35 34 83.5 51.5T300 514q63 0 112.5-19t83.5-53.5q34-34.5 51.5-83.5T565 250q0-63-19-112t-54-83q-35-34-83.5-51.5T300-14q-63 0-112.5 19T104 58.5Q70 93 52.5 142T35 250zm134 0q0-33 9-61t26-49q17-21 41-32.5T300 96q58 0 94.5 37T431 250q0 69-34 111.5T300 404q-28 0-52-8.5T206.5 368Q189 349 179 320t-10-70zM96 646q0 34 20.5 54.5T172 721q34 0 54-20.5t20-54.5q0-32-20-52.5T172 573q-35 0-55.5 20.5T96 646zm258 0q0 34 20 54.5t54 20.5q34 0 55-20.5t21-54.5q0-32-21-52.5T428 573q-34 0-54 20.5T354 646z"/><glyph unicode="÷" horiz-adv-x="600" d="M59 394h482V282H59zm154 143q0 38 24 59.5t62 21.5q40 0 63.5-21.5T386 537q0-38-23.5-60T299 455q-38 0-62 22t-24 60zm0-397q0 38 24 59.5t62 21.5q40 0 63.5-21.5T386 140q0-38-23.5-60T299 58q-38 0-62 22t-24 60z"/><glyph unicode="ø" horiz-adv-x="600" d="M35 250q0 63 19 112t54 83q35 34 83.5 51.5T300 514q62 0 111-19l34 46 80-59-29-41q34-34 51.5-83T565 250q0-63-19-112t-54-83q-35-34-83.5-51.5T300-14q-63 0-113 19l-6 2-34-47-83 60 33 45q-29 33-45 77-17 49-17 108zM300 96q58 0 94.5 37T431 250q0 46-16 81L251 104q22-8 49-8zM169 250q0-33 9-61l3-9 160 218q-19 6-41 6-28 0-52-8.5T206.5 368Q189 349 179 320t-10-70z"/><glyph unicode="ù" horiz-adv-x="600" d="M330 500h186V152v-42h76V0H434l-23 74h-4q-23-38-69-63T236-14q-38 0-69.5 10T113 29Q91 52 79 91t-12 98v201H10v110h187V216q0-61 19.5-88t61.5-27q37 0 66.5 22t41.5 54v213h-56zm3 66h-72L109 720h164z"/><glyph unicode="ú" horiz-adv-x="600" d="M330 500h186V152v-42h76V0H434l-23 74h-4q-23-38-69-63T236-14q-38 0-69.5 10T113 29Q91 52 79 91t-12 98v201H10v110h187V216q0-61 19.5-88t61.5-27q37 0 66.5 22t41.5 54v213h-56zm-34 220h158L317 566h-80z"/><glyph unicode="û" horiz-adv-x="600" d="M330 500h186V152v-42h76V0H434l-23 74h-4q-23-38-69-63T236-14q-38 0-69.5 10T113 29Q91 52 79 91t-12 98v201H10v110h187V216q0-61 19.5-88t61.5-27q37 0 66.5 22t41.5 54v213h-56zm-87 232h86l111-182H337l-55 94-63-94h-99z"/><glyph unicode="ü" horiz-adv-x="600" d="M330 500h186V152v-42h76V0H434l-23 74h-4q-23-38-69-63T236-14q-38 0-69.5 10T113 29Q91 52 79 91t-12 98v201H10v110h187V216q0-61 19.5-88t61.5-27q37 0 66.5 22t41.5 54v213h-56zM67 646q0 34 20.5 54.5T143 721q34 0 54-20.5t20-54.5q0-32-20-52.5T143 573q-35 0-55.5 20.5T67 646zm258 0q0 34 20 54.5t54 20.5q34 0 55-20.5t21-54.5q0-32-21-52.5T399 573q-34 0-54 20.5T325 646z"/><glyph unicode="ý" horiz-adv-x="600" d="M301 141h38l97 359h134L428 49Q409-7 391-53.5T349-134q-24-34-56.5-52.5T213-205q-23 0-43.5 6T132-184.5q-17 8.5-30 18T81-149l67 89q13-11 31-20.5t34-9.5q30 0 47.5 21T294 0h-71L15 500h141zm-6 579h158L316 566h-80z"/><glyph unicode="þ" horiz-adv-x="600" d="M0 700h205V460q24 26 62 40t89 14q46 0 84.5-14.5T507 454q28-31 43-78t15-113q0-64-16.5-115.5t-49-87.5q-32.5-36-79-55T314-14q-31 0-60 4.5T205 5v-205H75v790H0zm318-296q-38 0-69.5-19T205 328V120q14-11 40.5-17.5T299 96q28 0 52 9.5t42 30.5q18 21 28 53t10 77q0 66-32 102t-81 36z"/><glyph unicode="ÿ" horiz-adv-x="600" d="M301 141h38l97 359h134L428 49Q409-7 391-53.5T349-134q-24-34-56.5-52.5T213-205q-23 0-43.5 6T132-184.5q-17 8.5-30 18T81-149l67 89q13-11 31-20.5t34-9.5q30 0 47.5 21T294 0h-71L15 500h141zM101 646q0 34 20.5 54.5T177 721q34 0 54-20.5t20-54.5q0-32-20-52.5T177 573q-35 0-55.5 20.5T101 646zm258 0q0 34 20 54.5t54 20.5q34 0 55-20.5t21-54.5q0-32-21-52.5T433 573q-34 0-54 20.5T359 646z"/><glyph unicode="Ā" horiz-adv-x="600" d="M400 155H191L143 0H6l226 700h137L594 0H450zM223 265h150l-71 234h-9zm-94 591h343v-89H129z"/><glyph unicode="ā" horiz-adv-x="600" d="M90 466q40 18 92.5 31T307 510q52 0 88.5-12.5t59-35.5q22.5-23 32.5-55t10-72q0-51-3.5-87t-3.5-64q0-21 2-47 2-14 3-27h65V0H394l-13 68h-5q-20-31-57-53.5T219-8q-75 0-119 40T56 138q0 42 15.5 72.5t45 50q29.5 19.5 71 29T280 299q18 0 38-2t49-4q2 10 2 20v19q0 38-22 54.5T282 403q-51 0-92-13t-69-26zM261 99q48 0 72 17.5t35 37.5v60q-10 2-30 4.5t-43 2.5q-19 0-38-3.5t-34-11q-15-7.5-24-19.5t-9-29q0-28 16.5-43.5T261 99zM136 658h323v-92H136z"/><glyph unicode="Ă" horiz-adv-x="600" d="M400 155H191L143 0H6l226 700h137L594 0H450zM223 265h150l-71 234h-9zm-61 620q20-26 58-40t85-14q48 0 82.5 15t54.5 39l58-45q-37-54-88-77t-108-23q-27 0-54.5 4.5T196 760q-26 11-50.5 30.5T101 840z"/><glyph unicode="ă" horiz-adv-x="600" d="M90 466q40 18 92.5 31T307 510q52 0 88.5-12.5t59-35.5q22.5-23 32.5-55t10-72q0-51-3.5-87t-3.5-64q0-21 2-47 2-14 3-27h65V0H394l-13 68h-5q-20-31-57-53.5T219-8q-75 0-119 40T56 138q0 42 15.5 72.5t45 50q29.5 19.5 71 29T280 299q18 0 38-2t49-4q2 10 2 20v19q0 38-22 54.5T282 403q-51 0-92-13t-69-26zM261 99q48 0 72 17.5t35 37.5v60q-10 2-30 4.5t-43 2.5q-19 0-38-3.5t-34-11q-15-7.5-24-19.5t-9-29q0-28 16.5-43.5T261 99zm-73 621q17-30 47.5-44.5T300 661q34 0 62.5 15t43.5 44l60-27q-3-24-16.5-47.5T414 604q-22-18-51.5-29T299 564q-66 0-113 33.5T125 688z"/><glyph unicode="Ą" horiz-adv-x="600" d="M400 155H191L143 0H6l226 700h137L594 0h-46q-58-22-58-73 0-18 11-30.5t31-12.5q18 0 42 12l19-62q-15-12-47.5-23.5T478-201q-56 0-85.5 25T363-110q0 38 23 65.5T450 0zM223 265h150l-71 234h-9z"/><glyph unicode="ą" horiz-adv-x="600" d="M90 466q40 18 92.5 31T307 510q52 0 88.5-12.5t59-35.5q22.5-23 32.5-55t10-72q0-51-3.5-87t-3.5-64q0-21 2-47 2-14 3-27h65V0h-28q-48-23-48-69 0-18 11-30.5t31-12.5q18 0 42 12l19-62q-15-12-47.5-23.5T472-197q-56 0-85.5 25T357-106q0 41 27 70 20 21 51 36h-41l-13 68h-5q-20-31-57-53.5T219-8q-75 0-119 40T56 138q0 42 15.5 72.5t45 50q29.5 19.5 71 29T280 299q18 0 38-2t49-4q2 10 2 20v19q0 38-22 54.5T282 403q-51 0-92-13t-69-26zM261 99q48 0 72 17.5t35 37.5v60q-10 2-30 4.5t-43 2.5q-19 0-38-3.5t-34-11q-15-7.5-24-19.5t-9-29q0-28 16.5-43.5T261 99z"/><glyph unicode="Ć" horiz-adv-x="600" d="M444 235h110V35q-32-23-81.5-36T371-14q-66 0-125.5 19.5T141 68.5q-45 43.5-72 113T42 350q0 103 30.5 172.5t78.5 112q48 42.5 107 61T374 714q60 0 101.5-10t68.5-23V473H434v114q-31 5-64 5-39 0-72.5-14.5T239 533q-25-30-39-75.5T186 350q0-54 13-98.5t38-76.5q25-32 61-49.5t82-17.5q33 0 64 6zm-53 635h159v-30l-160-88H287z"/><glyph unicode="ć" horiz-adv-x="600" d="M546 48q-41-31-96-46.5T335-14q-65 0-115.5 19t-85 53.5Q100 93 82 142T64 250q0 63 21 112t58.5 83q37.5 34 88.5 51.5T343 514q56 0 105-13t75-25V300H413v92q-31 7-62 7-28 0-55.5-8.5t-49-27Q225 345 211.5 317T198 250q0-32 11-59t31-47q20-20 49.5-31.5T355 101q57 0 93.5 16t54.5 28zM348 720h158L369 566h-80z"/><glyph unicode="Ĉ" horiz-adv-x="600" d="M444 235h110V35q-32-23-81.5-36T371-14q-66 0-125.5 19.5T141 68.5q-45 43.5-72 113T42 350q0 103 30.5 172.5t78.5 112q48 42.5 107 61T374 714q60 0 101.5-10t68.5-23V473H434v114q-31 5-64 5-39 0-72.5-14.5T239 533q-25-30-39-75.5T186 350q0-54 13-98.5t38-76.5q25-32 61-49.5t82-17.5q33 0 64 6zm112 502H420l-73 61-68-61H138l155 133h102z"/><glyph unicode="ĉ" horiz-adv-x="600" d="M546 48q-41-31-96-46.5T335-14q-65 0-115.5 19t-85 53.5Q100 93 82 142T64 250q0 63 21 112t58.5 83q37.5 34 88.5 51.5T343 514q56 0 105-13t75-25V300H413v92q-31 7-62 7-28 0-55.5-8.5t-49-27Q225 345 211.5 317T198 250q0-32 11-59t31-47q20-20 49.5-31.5T355 101q57 0 93.5 16t54.5 28zM282 732h86l111-182H376l-55 94-63-94h-99z"/><glyph unicode="Č" horiz-adv-x="600" d="M444 235h110V35q-32-23-81.5-36T371-14q-66 0-125.5 19.5T141 68.5q-45 43.5-72 113T42 350q0 103 30.5 172.5t78.5 112q48 42.5 107 61T374 714q60 0 101.5-10t68.5-23V473H434v114q-31 5-64 5-39 0-72.5-14.5T239 533q-25-30-39-75.5T186 350q0-54 13-98.5t38-76.5q25-32 61-49.5t82-17.5q33 0 64 6zm-26 502H316L161 870h141l68-61 73 61h136z"/><glyph unicode="č" horiz-adv-x="600" d="M546 48q-41-31-96-46.5T335-14q-65 0-115.5 19t-85 53.5Q100 93 82 142T64 250q0 63 21 112t58.5 83q37.5 34 88.5 51.5T343 514q56 0 105-13t75-25V300H413v92q-31 7-62 7-28 0-55.5-8.5t-49-27Q225 345 211.5 317T198 250q0-32 11-59t31-47q20-20 49.5-31.5T355 101q57 0 93.5 16t54.5 28zM380 550h-91L174 732h110l56-94 62 94h101z"/><glyph unicode="Ď" horiz-adv-x="600" d="M50 700q9 1 31.5 3t51 3.5q28.5 1.5 59 2.5t54.5 1q93 0 154-27t96.5-74.5Q532 561 546 496.5T560 356q0-69-14-135t-50.5-117.5q-36.5-51.5-101-83T229-11q-16 0-41 1t-51 2.5q-26 1.5-50 3T50-1zm201-112q-19 0-37-1.5t-27-2.5V115q4-1 12-1.5t16.5-1 16.5-1q8-.5 13-.5 58 0 92.5 21.5T389 189q17 35 22 79t5 88q0 38-4.5 79t-21 75Q374 544 341 566t-90 22zm46 149H195L40 870h141l68-61 73 61h136z"/><glyph unicode="ď" horiz-adv-x="600" d="M306 700h209V268q0-75 8-148 0-5 1-10h64V0H427l-13 64h-4q-10-18-27-32T345 7.5Q324-3 299-8.5T249-14q-47 0-88.5 15T88 47.5q-31 31.5-49 80T21 242q0 64 19.5 114t54 84.5q34.5 34.5 81.5 53T279 512q31 0 58.5-3.5T385 497v93h-79zM279 96q38 0 67.5 18.5T385 168v212q-14 11-38.5 16.5T295 402q-27 0-52.5-9t-45-28.5Q178 345 166.5 314T155 238q0-64 32-103t92-39zm418 604q-2-29-12-60.5t-23.5-60Q648 551 633 528.5T606 496l-58 31q17 36 26 81.5t9 91.5z"/><glyph unicode="Đ" horiz-adv-x="600" d="M89 700q9 1 31.5 3t51 3.5q28.5 1.5 59 2.5t54.5 1q93 0 154-27t96.5-74.5Q571 561 585 496.5T599 356q0-69-14-135t-50.5-117.5q-36.5-51.5-101-83T268-11q-16 0-41 1t-51 2.5q-26 1.5-50 3T89-1v322H1v80h88zm201-112q-19 0-37-1.5t-27-2.5V401h140v-80H226V115q4-1 12-1.5t16.5-1 16.5-1q8-.5 13-.5 58 0 92.5 21.5T428 189q17 35 22 79t5 88q0 38-4.5 79t-21 75Q413 544 380 566t-90 22z"/><glyph unicode="đ" horiz-adv-x="600" d="M515 268q0-75 8-148 0-5 1-10h64V0H427l-13 64h-4q-10-18-27-32T345 7.5Q324-3 299-8.5T249-14q-47 0-88.5 15T88 47.5q-31 31.5-49 80T21 242q0 64 19.5 114t54 84.5q34.5 34.5 81.5 53T279 512q31 0 58.5-3.5T385 497v64H240v80h145v59h130v-59h79v-80h-79zM279 96q38 0 67.5 18.5T385 168v212q-14 11-38.5 16.5T295 402q-27 0-52.5-9t-45-28.5Q178 345 166.5 314T155 238q0-64 32-103t92-39z"/><glyph unicode="Ē" horiz-adv-x="600" d="M70 700h459V578H207V415h297V293H207V122h327V0H70zm67 156h343v-89H137z"/><glyph unicode="ē" horiz-adv-x="600" d="M534 53q-13-12-33.5-23.5T452.5 8Q425-2 392-8t-70-6q-64 0-114.5 18T122 56.5q-35 34.5-53.5 83T50 250q0 66 21 115.5t57.5 82.5q36.5 33 85.5 49.5T320 514q38 0 78.5-10t74.5-34.5q34-24.5 55.5-65.5T550 300q0-43-10-93H180q1-32 13.5-54t33-36q20.5-14 47-20.5T330 90q60 0 98.5 14t62.5 34zM318 410q-26 0-49-7t-41.5-20.5Q209 369 197 349t-14-45h246q0 49-27.5 77.5T318 410zM150 658h323v-92H150z"/><glyph unicode="Ė" horiz-adv-x="600" d="M70 700h459V578H207V415h297V293H207V122h327V0H70zm146 109q0 27 23 46t70 19q46 0 71-19t25-46q0-29-25-48t-71-19q-47 0-70 19t-23 48z"/><glyph unicode="ė" horiz-adv-x="600" d="M534 53q-13-12-33.5-23.5T452.5 8Q425-2 392-8t-70-6q-64 0-114.5 18T122 56.5q-35 34.5-53.5 83T50 250q0 66 21 115.5t57.5 82.5q36.5 33 85.5 49.5T320 514q38 0 78.5-10t74.5-34.5q34-24.5 55.5-65.5T550 300q0-43-10-93H180q1-32 13.5-54t33-36q20.5-14 47-20.5T330 90q60 0 98.5 14t62.5 34zM318 410q-26 0-49-7t-41.5-20.5Q209 369 197 349t-14-45h246q0 49-27.5 77.5T318 410zm-91 226q0 31 23 53t64 22q42 0 67-22t25-53q0-32-25-52.5T314 563q-41 0-64 20.5T227 636z"/><glyph unicode="Ę" horiz-adv-x="600" d="M87 700h409V578H224V415h247V293H224V122h277V0h-27q-58-22-58-73 0-18 11-30.5t31-12.5q18 0 42 12l19-62q-15-12-47.5-23.5T404-201q-56 0-85.5 25T289-110q0 38 23 65.5T376 0H87z"/><glyph unicode="ę" horiz-adv-x="600" d="M534 53q-13-12-33.5-23.5T452 8q-9-4-18-7-52-23-52-70 0-18 11-30.5t31-12.5q18 0 42 12l19-62q-15-12-47.5-23.5T370-197q-56 0-85.5 25T255-106q0 41 27 70 12 12 26 22-56 2-101 18-50 18-85 52.5t-53.5 83Q50 188 50 250q0 66 21 115.5t57.5 82.5q36.5 33 85.5 49.5T320 514q38 0 78.5-10t74.5-34.5q34-24.5 55.5-65.5T550 300q0-43-10-93H180q1-32 13.5-54t33-36q20.5-14 47-20.5T330 90q60 0 98.5 14t62.5 34zM318 410q-26 0-49-7t-41.5-20.5Q209 369 197 349t-14-45h246q0 49-27.5 77.5T318 410z"/><glyph unicode="Ě" horiz-adv-x="600" d="M70 700h459V578H207V415h297V293H207V122h327V0H70zm286 37H254L99 870h141l68-61 73 61h136z"/><glyph unicode="ě" horiz-adv-x="600" d="M534 53q-13-12-33.5-23.5T452.5 8Q425-2 392-8t-70-6q-64 0-114.5 18T122 56.5q-35 34.5-53.5 83T50 250q0 66 21 115.5t57.5 82.5q36.5 33 85.5 49.5T320 514q38 0 78.5-10t74.5-34.5q34-24.5 55.5-65.5T550 300q0-43-10-93H180q1-32 13.5-54t33-36q20.5-14 47-20.5T330 90q60 0 98.5 14t62.5 34zM318 410q-26 0-49-7t-41.5-20.5Q209 369 197 349t-14-45h246q0 49-27.5 77.5T318 410zm43 140h-91L155 732h110l56-94 62 94h101z"/><glyph unicode="Ĝ" horiz-adv-x="600" d="M323 365h239V49q-34-31-88.5-47T362-14q-67 0-125.5 23T135 78.5q-43 46.5-68 115T42 354q0 97 30 165t77.5 111.5Q197 674 256 694t117 20q60 0 100-9.5t73-24.5V473H436v111l-16 4q-20 4-44 4-41 0-76-14t-60.5-43.5Q214 505 200 459t-14-110q0-57 14-102t39-76q25-31 59.5-47t74.5-16q26 0 47.5 6t29.5 12v139H323zm231 372H418l-73 61-68-61H136l155 133h102z"/><glyph unicode="ĝ" horiz-adv-x="600" d="M530 0q0-54-18.5-94t-51-66.5q-32.5-26.5-77-39T286-212q-36 0-67.5 5.5t-58 14.5q-26.5 9-46.5 19.5T82-152l50 92q24-16 57.5-30.5T274-105q63 0 96 29t33 83v32h-4q-18-24-53-35.5T265-8q-48 0-88.5 15T106 52.5Q76 83 59.5 130T43 240q0 66 19.5 117t55 85.5q35.5 34.5 85 52T313 512q32 0 64-2.5t60.5-6.5q28.5-4 52.5-9.5t40-11.5zM290 96q38 0 68.5 17t41.5 51v225q-14 6-39.5 9.5T312 402q-28 0-52.5-9t-43-28.5q-18.5-19.5-29-49T177 245q0-36 9-64t25-47q16-19 36-28.5t43-9.5zm-9 636h86l111-182H375l-55 94-63-94h-99z"/><glyph unicode="Ğ" horiz-adv-x="600" d="M323 365h239V49q-34-31-88.5-47T362-14q-67 0-125.5 23T135 78.5q-43 46.5-68 115T42 354q0 97 30 165t77.5 111.5Q197 674 256 694t117 20q60 0 100-9.5t73-24.5V473H436v111l-16 4q-20 4-44 4-41 0-76-14t-60.5-43.5Q214 505 200 459t-14-110q0-57 14-102t39-76q25-31 59.5-47t74.5-16q26 0 47.5 6t29.5 12v139H323zM223 885q20-26 58-40t85-14q48 0 82.5 15t54.5 39l58-45q-37-54-88-77t-108-23q-27 0-54.5 4.5T257 760q-26 11-50.5 30.5T162 840z"/><glyph unicode="ğ" horiz-adv-x="600" d="M530 0q0-54-18.5-94t-51-66.5q-32.5-26.5-77-39T286-212q-36 0-67.5 5.5t-58 14.5q-26.5 9-46.5 19.5T82-152l50 92q24-16 57.5-30.5T274-105q63 0 96 29t33 83v32h-4q-18-24-53-35.5T265-8q-48 0-88.5 15T106 52.5Q76 83 59.5 130T43 240q0 66 19.5 117t55 85.5q35.5 34.5 85 52T313 512q32 0 64-2.5t60.5-6.5q28.5-4 52.5-9.5t40-11.5zM290 96q38 0 68.5 17t41.5 51v225q-14 6-39.5 9.5T312 402q-28 0-52.5-9t-43-28.5q-18.5-19.5-29-49T177 245q0-36 9-64t25-47q16-19 36-28.5t43-9.5zm-75 624q17-30 47.5-44.5T327 661q34 0 62.5 15t43.5 44l60-27q-3-24-16.5-47.5T441 604q-22-18-51.5-29T326 564q-66 0-113 33.5T152 688z"/><glyph unicode="Ģ" horiz-adv-x="600" d="M323 365h239V49q-34-31-88.5-47T362-14q-67 0-125.5 23T135 78.5q-43 46.5-68 115T42 354q0 97 30 165t77.5 111.5Q197 674 256 694t117 20q60 0 100-9.5t73-24.5V473H436v111l-16 4q-20 4-44 4-41 0-76-14t-60.5-43.5Q214 505 200 459t-14-110q0-57 14-102t39-76q25-31 59.5-47t74.5-16q26 0 47.5 6t29.5 12v139H323zM258-95q0 18 8 30t20 19.5Q298-38 313-35t30 3q35 0 62-20t27-62q0-29-12.5-50.5t-32-36q-19.5-14.5-45-22T292-230l-13 48q28 1 47 12t20 26q-38-5-63 9.5T258-95z"/><glyph unicode="ģ" horiz-adv-x="600" d="M530 0q0-54-18.5-94t-51-66.5q-32.5-26.5-77-39T286-212q-36 0-67.5 5.5t-58 14.5q-26.5 9-46.5 19.5T82-152l50 92q24-16 57.5-30.5T274-105q63 0 96 29t33 83v32h-4q-18-24-53-35.5T265-8q-48 0-88.5 15T106 52.5Q76 83 59.5 130T43 240q0 66 19.5 117t55 85.5q35.5 34.5 85 52T313 512q32 0 64-2.5t60.5-6.5q28.5-4 52.5-9.5t40-11.5zM290 96q38 0 68.5 17t41.5 51v225q-14 6-39.5 9.5T312 402q-28 0-52.5-9t-43-28.5q-18.5-19.5-29-49T177 245q0-36 9-64t25-47q16-19 36-28.5t43-9.5zm122 508q0-18-8-30t-20-19.5q-12-7.5-27-10.5t-30-3q-35 0-62 20t-27 62q0 29 12.5 50.5t32 36q19.5 14.5 45 22T378 739l13-48q-28-1-47-12t-20-26q38 5 63-9.5t25-39.5z"/><glyph unicode="Ĥ" horiz-adv-x="600" d="M413 293H187V0H50v700h137V415h226v285h137V0H413zm96 444H373l-73 61-68-61H91l155 133h102z"/><glyph unicode="ĥ" horiz-adv-x="600" d="M51 700h202V444h4q24 32 64 51t94 19q38 0 70-10t55-33q23-23 36-62.5t13-97.5V0H459v284q0 61-26 88t-68 27q-37 0-68-22.5T253 319V0H123v590H51zm366 37H281l-73 61-68-61H-1l155 133h102z"/><glyph unicode="Ħ" horiz-adv-x="600" d="M3 598h71v102h137V598h180v102h137V598h68v-82h-68V0H391v293H211V0H74v516H3zm388-183v101H211V415z"/><glyph unicode="ħ" horiz-adv-x="600" d="M415 0v284q0 61-26 88t-68 27q-37 0-68-22.5T209 319V0H79v561H5v80h74v59h130v-59h161v-80H209V444h4q24 32 64 51t94 19q38 0 70-10t55-33q23-23 36-62.5t13-97.5V0z"/><glyph unicode="Ī" horiz-adv-x="600" d="M54 122h177v456H54v122h492V578H368V122h178V0H54zm78 734h343v-89H132z"/><glyph unicode="ī" horiz-adv-x="600" d="M59 110h176v280H59v110h306V110h185V0H59zm78 548h323v-92H137z"/><glyph unicode="Į" horiz-adv-x="600" d="M54 122h177v456H54v122h492V578H368V122h178V0h-66q-23-12-36-30t-12-43q0-18 11-30.5t31-12.5q17 0 41 12l20-62q-15-12-47.5-24T420-202q-57 0-86 25.5T305-110q0 38 23 65.5T392 0H54z"/><glyph unicode="į" horiz-adv-x="600" d="M84 110h176v280H84v110h306V110h185V0h-55q-48-23-48-69 0-18 11-30.5t31-12.5q18 0 42 12l19-62q-15-12-47.5-23.5T460-197q-56 0-85.5 25T345-106q0 41 27 70 20 21 51 36H84zm151 526q0 31 23 53t64 22q42 0 67-22t25-53q0-32-25-52.5T322 563q-41 0-64 20.5T235 636z"/><glyph unicode="İ" horiz-adv-x="600" d="M54 122h177v456H54v122h492V578H368V122h178V0H54zm153 687q0 27 23 46t70 19q46 0 71-19t25-46q0-29-25-48t-71-19q-47 0-70 19t-23 48z"/><glyph unicode="ı" horiz-adv-x="600" d="M59 110h176v280H59v110h306V110h185V0H59z"/><glyph unicode="Ĵ" horiz-adv-x="600" d="M38 700h418V254q0-57-14.5-107T389 58q-24-24-51.5-38T284-1q-26-7-49-9t-38-2q-48 0-93 10.5T14 36l49 110q38-22 65.5-29t63.5-7q22 0 47.5 8.5T284 147q35 38 35 106v325H38zm422 37H324l-73 61-68-61H42l155 133h102z"/><glyph unicode="ĵ" horiz-adv-x="600" d="M94 500h368V39q0-115-60-181t-180-66q-49 0-93 15t-76 44l58 96q11-9 39.5-22.5T215-89q24 0 45.5 7.5t37.5 25Q314-39 323-11t9 70v331H94zm148 232h86l111-182H336l-55 94-63-94h-99z"/><glyph unicode="Ķ" horiz-adv-x="600" d="M256 292h-71V0H48v700h137V414h71l160 286h156L375 362 597 0H428zM199-95q0 18 8 30t20 19.5Q239-38 254-35t30 3q35 0 62-20t27-62q0-29-12.5-50.5t-32-36q-19.5-14.5-45-22T233-230l-13 48q28 1 47 12t20 26q-38-5-63 9.5T199-95z"/><glyph unicode="ķ" horiz-adv-x="600" d="M0 700h212V301h30l164 199h153L357 272l131-162h93V0H419L247 207h-35V0H82v590H0zM213-95q0 18 8 30t20 19.5Q253-38 268-35t30 3q35 0 62-20t27-62q0-29-12.5-50.5t-32-36q-19.5-14.5-45-22T247-230l-13 48q28 1 47 12t20 26q-38-5-63 9.5T213-95z"/><glyph unicode="Ĺ" horiz-adv-x="600" d="M414 285h124V0H78v700h137V122h199zM232 870h159v-30l-160-88H128z"/><glyph unicode="ĺ" horiz-adv-x="600" d="M87 700h213V238q0-77 19-107t61-30q31 0 51 6.5t40 18.5l49-90q-17-11-34-20.5t-36-16q-19-6.5-41.5-10T358-14q-94 0-141 48t-47 136v420H87zm232 170h159v-30l-160-88H215z"/><glyph unicode="Ļ" horiz-adv-x="600" d="M414 285h124V0H78v700h137V122h199zM202-95q0 18 8 30t20 19.5Q242-38 257-35t30 3q35 0 62-20t27-62q0-29-12.5-50.5t-32-36q-19.5-14.5-45-22T236-230l-13 48q28 1 47 12t20 26q-38-5-63 9.5T202-95z"/><glyph unicode="ļ" horiz-adv-x="600" d="M87 700h213V238q0-77 19-107t61-30q31 0 51 6.5t40 18.5l49-90q-17-11-34-20.5t-36-16q-19-6.5-41.5-10T358-14q-94 0-141 48t-47 136v420H87zM247-95q0 18 8 30t20 19.5Q287-38 302-35t30 3q35 0 62-20t27-62q0-29-12.5-50.5t-32-36q-19.5-14.5-45-22T281-230l-13 48q28 1 47 12t20 26q-38-5-63 9.5T247-95z"/><glyph unicode="Ľ" horiz-adv-x="600" d="M414 285h124V0H78v700h137V122h199zm77 415q-2-29-12-60.5t-23.5-60Q442 551 427 528.5T400 496l-58 31q17 36 26 81.5t9 91.5z"/><glyph unicode="ľ" horiz-adv-x="600" d="M87 700h213V238q0-77 19-107t61-30q31 0 51 6.5t40 18.5l49-90q-17-11-34-20.5t-36-16q-19-6.5-41.5-10T358-14q-94 0-141 48t-47 136v420H87zm418 0q-2-29-12-60.5t-23.5-60Q456 551 441 528.5T414 496l-58 31q17 36 26 81.5t9 91.5z"/><glyph unicode="Ł" horiz-adv-x="600" d="M418 285h124V0H82v241l-68-44v121l68 45v337h137V455l100 67V397l-100-66V122h199z"/><glyph unicode="ł" horiz-adv-x="600" d="M95 307l75 50v233H87v110h213V444l100 67V386l-100-66v-82q0-77 19-107t61-30q31 0 50 9.5t39 21.5l51-96q-17-11-34-20.5t-36-16q-19-6.5-41.5-10T358-14q-94 0-141 48t-47 136v65l-75-49z"/><glyph unicode="Ń" horiz-adv-x="600" d="M185 414h-5l6-83V0H56v700h120l242-428h5l-9 84v344h130V0H424zm152 456h159v-30l-160-88H233z"/><glyph unicode="ń" horiz-adv-x="600" d="M12 500h175l15-66h4q23 32 66 56t103 24q37 0 69.5-10t55.5-33q23-23 36.5-62.5T550 311V0H420v284q0 61-27.5 88T323 399q-37 0-67.5-21.5T214 324V0H84v390H12zm296 220h158L329 566h-80z"/><glyph unicode="Ņ" horiz-adv-x="600" d="M185 414h-5l6-83V0H56v700h120l242-428h5l-9 84v344h130V0H424zm23-509q0 18 8 30t20 19.5Q248-38 263-35t30 3q35 0 62-20t27-62q0-29-12.5-50.5t-32-36q-19.5-14.5-45-22T242-230l-13 48q28 1 47 12t20 26q-38-5-63 9.5T208-95z"/><glyph unicode="ņ" horiz-adv-x="600" d="M12 500h175l15-66h4q23 32 66 56t103 24q37 0 69.5-10t55.5-33q23-23 36.5-62.5T550 311V0H420v284q0 61-27.5 88T323 399q-37 0-67.5-21.5T214 324V0H84v390H12zM227-95q0 18 8 30t20 19.5Q267-38 282-35t30 3q35 0 62-20t27-62q0-29-12.5-50.5t-32-36q-19.5-14.5-45-22T261-230l-13 48q28 1 47 12t20 26q-38-5-63 9.5T227-95z"/><glyph unicode="Ň" horiz-adv-x="600" d="M185 414h-5l6-83V0H56v700h120l242-428h5l-9 84v344h130V0H424zm163 323H246L91 870h141l68-61 73 61h136z"/><glyph unicode="ň" horiz-adv-x="600" d="M12 500h175l15-66h4q23 32 66 56t103 24q37 0 69.5-10t55.5-33q23-23 36.5-62.5T550 311V0H420v284q0 61-27.5 88T323 399q-37 0-67.5-21.5T214 324V0H84v390H12zm355 50h-91L161 732h110l56-94 62 94h101z"/><glyph unicode="Ō" horiz-adv-x="600" d="M36 350q0 85 16 153t49 114.5q33 46.5 82.5 71.5T300 714q72 0 122-27t81.5-75q31.5-48 46-115T564 350q0-171-65.5-267.5T300-14q-72 0-122.5 27t-82 75Q64 136 50 203T36 350zm144 0q0-51 4.5-95t17-76.5q12.5-32.5 36-51.5t62.5-19q35 0 58 14.5t37 44.5q14 30 19.5 75.5T420 350q0 49-3.5 93t-16 77Q388 553 364 572.5T300 592q-70 0-95-61t-25-181zm-51 506h343v-89H129z"/><glyph unicode="ō" horiz-adv-x="600" d="M35 250q0 63 19 112t54 83q35 34 83.5 51.5T300 514q63 0 112.5-19t83.5-53.5q34-34.5 51.5-83.5T565 250q0-63-19-112t-54-83q-35-34-83.5-51.5T300-14q-63 0-112.5 19T104 58.5Q70 93 52.5 142T35 250zm134 0q0-33 9-61t26-49q17-21 41-32.5T300 96q58 0 94.5 37T431 250q0 69-34 111.5T300 404q-28 0-52-8.5T206.5 368Q189 349 179 320t-10-70zm-30 408h323v-92H139z"/><glyph unicode="Ő" horiz-adv-x="600" d="M36 350q0 85 16 153t49 114.5q33 46.5 82.5 71.5T300 714q72 0 122-27t81.5-75q31.5-48 46-115T564 350q0-171-65.5-267.5T300-14q-72 0-122.5 27t-82 75Q64 136 50 203T36 350zm144 0q0-51 4.5-95t17-76.5q12.5-32.5 36-51.5t62.5-19q35 0 58 14.5t37 44.5q14 30 19.5 75.5T420 350q0 49-3.5 93t-16 77Q388 553 364 572.5T300 592q-70 0-95-61t-25-181zm35 500h134v-16l-100-93h-93zm198 0h140v-16l-143-93h-94z"/><glyph unicode="ő" horiz-adv-x="600" d="M35 250q0 63 19 112t54 83q35 34 83.5 51.5T300 514q63 0 112.5-19t83.5-53.5q34-34.5 51.5-83.5T565 250q0-63-19-112t-54-83q-35-34-83.5-51.5T300-14q-63 0-112.5 19T104 58.5Q70 93 52.5 142T35 250zm134 0q0-33 9-61t26-49q17-21 41-32.5T300 96q58 0 94.5 37T431 250q0 69-34 111.5T300 404q-28 0-52-8.5T206.5 368Q189 349 179 320t-10-70zm46 450h129l-86-129h-78zm178 0h142L401 571h-81z"/><glyph unicode="Œ" horiz-adv-x="600" d="M291 578q-8 8-19 14t-31 6q-27 0-45.5-18.5T164 526q-12-32-18-77.5t-6-96.5q0-48 4-93.5t17-80.5q27-76 84-76 20 0 29 4t17 10zm0-578q-13-6-36-10t-43-4q-66 0-109 37T37 128q-15 45-21.5 100.5T9 350q0 78 12 141t36 108q29 55 69 85t93 30q24 0 41-4t31-10h300V578H415V415h159V293H415V122h179V0z"/><glyph unicode="œ" horiz-adv-x="600" d="M138 250q0-76 13-116t42-40q27 0 40 35t13 121q0 78-12 117t-41 39q-13 0-23-8t-17-26q-7-18-11-48t-4-74zM302 51q-17-32-44-48.5T188-14q-82 0-130.5 65.5T9 250q0 66 13.5 115.5t38 82.5Q85 481 119 497.5t74 16.5q47 0 73-19.5t41-46.5q14 26 47.5 46t79.5 20q29 0 57.5-9.5t51-31.5q22.5-22 36.5-58t14-89q0-9-1-23t-2.5-29l-3-30q-1.5-15-3.5-27H369q1-129 80-129 14 0 29 3t28.5 8q13.5 5 24.5 11t16 12l37-86q-11-12-28.5-21t-39-15.5Q495-7 472-10.5T428-14q-38 0-74 18t-52 47zm129 361q-32 0-44.5-33T372 295h103q1 7 1 11v9q0 43-10.5 70T431 412z"/><glyph unicode="Ŕ" horiz-adv-x="600" d="M62 693q23 4 49.5 7.5t53 5.5q26.5 2 51.5 3t46 1q49 0 96.5-9.5t85-32.5q37.5-23 60-62t22.5-97q0-43-8.5-74.5T494 379q-15-24-36.5-41.5T411 306L580 0H422L281 274h-82V0H62zm210-105q-21 0-41.5-1t-31.5-4V380h54q57 0 93 26t36 86q0 45-28 70.5T272 588zm17 282h159v-30l-160-88H185z"/><glyph unicode="ŕ" horiz-adv-x="600" d="M39 110h124v280H39v110h225l15-66h4q28 33 64 55t84 22q60 0 94.5-44T560 320H443q0 36-10.5 52.5T399 389q-40 0-64.5-20T293 323V110h217V0H39zm279 610h158L339 566h-80z"/><glyph unicode="Ŗ" horiz-adv-x="600" d="M62 693q23 4 49.5 7.5t53 5.5q26.5 2 51.5 3t46 1q49 0 96.5-9.5t85-32.5q37.5-23 60-62t22.5-97q0-43-8.5-74.5T494 379q-15-24-36.5-41.5T411 306L580 0H422L281 274h-82V0H62zm210-105q-21 0-41.5-1t-31.5-4V380h54q57 0 93 26t36 86q0 45-28 70.5T272 588zM214-95q0 18 8 30t20 19.5Q254-38 269-35t30 3q35 0 62-20t27-62q0-29-12.5-50.5t-32-36q-19.5-14.5-45-22T248-230l-13 48q28 1 47 12t20 26q-38-5-63 9.5T214-95z"/><glyph unicode="ŗ" horiz-adv-x="600" d="M39 110h124v280H39v110h225l15-66h4q28 33 64 55t84 22q60 0 94.5-44T560 320H443q0 36-10.5 52.5T399 389q-40 0-64.5-20T293 323V110h217V0H39zM186-95q0 18 8 30t20 19.5Q226-38 241-35t30 3q35 0 62-20t27-62q0-29-12.5-50.5t-32-36q-19.5-14.5-45-22T220-230l-13 48q28 1 47 12t20 26q-38-5-63 9.5T186-95z"/><glyph unicode="Ř" horiz-adv-x="600" d="M62 693q23 4 49.5 7.5t53 5.5q26.5 2 51.5 3t46 1q49 0 96.5-9.5t85-32.5q37.5-23 60-62t22.5-97q0-43-8.5-74.5T494 379q-15-24-36.5-41.5T411 306L580 0H422L281 274h-82V0H62zm210-105q-21 0-41.5-1t-31.5-4V380h54q57 0 93 26t36 86q0 45-28 70.5T272 588zm42 149H212L57 870h141l68-61 73 61h136z"/><glyph unicode="ř" horiz-adv-x="600" d="M39 110h124v280H39v110h225l15-66h4q28 33 64 55t84 22q60 0 94.5-44T560 320H443q0 36-10.5 52.5T399 389q-40 0-64.5-20T293 323V110h217V0H39zm321 440h-91L154 732h110l56-94 62 94h101z"/><glyph unicode="Ś" horiz-adv-x="600" d="M65 229h110v-99l6-2q23-10 50.5-16.5T290 105q56 0 87 22.5t31 60.5q0 34-25.5 55t-63 37q-37.5 16-82 32t-82 40.5Q118 377 92.5 414T67 510q0 45 17.5 82.5t49 64.5q31.5 27 75.5 42t98 15q61 0 120-11t94-30V470H411v111q-3 0-6 1-22 6-47.5 9.5T307 595q-48 0-75.5-19T204 525q0-33 25.5-54t63-38q37.5-17 82-34t82-41.5q37.5-24.5 63-61.5t25.5-93q0-54-20-94.5t-56-68Q433 13 384-.5T278-14q-38 0-70.5 6t-60 15Q120 16 99 26T65 43zm284 641h159v-30l-160-88H245z"/><glyph unicode="ś" horiz-adv-x="600" d="M402 138q0 20-24.5 32T317 192q-36 10-79 20.5t-79 29q-36 18.5-60.5 47T74 362q0 37 16.5 65t45 47.5q28.5 19.5 68 29.5t85.5 10q49 0 86-7t64.5-17q27.5-10 47-22.5T520 445l-55-89q-15 9-34.5 18.5t-41 17.5q-21.5 8-45 13t-46.5 5q-42 0-68-11t-26-34q0-18 24.5-29t60.5-20.5q36-9.5 79-20.5t79-28.5q36-17.5 60.5-45.5t24.5-72q0-76-55.5-119.5T312-14q-86 0-148.5 25.5T63 71l60 94q13-11 34.5-24.5T206 116q27-11 57.5-18.5T324 90q32 0 55 11t23 37zM298 720h158L319 566h-80z"/><glyph unicode="Ŝ" horiz-adv-x="600" d="M65 229h110v-99l6-2q23-10 50.5-16.5T290 105q56 0 87 22.5t31 60.5q0 34-25.5 55t-63 37q-37.5 16-82 32t-82 40.5Q118 377 92.5 414T67 510q0 45 17.5 82.5t49 64.5q31.5 27 75.5 42t98 15q61 0 120-11t94-30V470H411v111q-3 0-6 1-22 6-47.5 9.5T307 595q-48 0-75.5-19T204 525q0-33 25.5-54t63-38q37.5-17 82-34t82-41.5q37.5-24.5 63-61.5t25.5-93q0-54-20-94.5t-56-68Q433 13 384-.5T278-14q-38 0-70.5 6t-60 15Q120 16 99 26T65 43zm466 508H395l-73 61-68-61H113l155 133h102z"/><glyph unicode="ŝ" horiz-adv-x="600" d="M402 138q0 20-24.5 32T317 192q-36 10-79 20.5t-79 29q-36 18.5-60.5 47T74 362q0 37 16.5 65t45 47.5q28.5 19.5 68 29.5t85.5 10q49 0 86-7t64.5-17q27.5-10 47-22.5T520 445l-55-89q-15 9-34.5 18.5t-41 17.5q-21.5 8-45 13t-46.5 5q-42 0-68-11t-26-34q0-18 24.5-29t60.5-20.5q36-9.5 79-20.5t79-28.5q36-17.5 60.5-45.5t24.5-72q0-76-55.5-119.5T312-14q-86 0-148.5 25.5T63 71l60 94q13-11 34.5-24.5T206 116q27-11 57.5-18.5T324 90q32 0 55 11t23 37zM266 732h86l111-182H360l-55 94-63-94h-99z"/><glyph unicode="Ş" horiz-adv-x="600" d="M65 229h110v-99l6-2q23-10 50.5-16.5T290 105q56 0 87 22.5t31 60.5q0 34-25.5 55t-63 37q-37.5 16-82 32t-82 40.5Q118 377 92.5 414T67 510q0 45 17.5 82.5t49 64.5q31.5 27 75.5 42t98 15q61 0 120-11t94-30V470H411v111q-3 0-6 1-22 6-47.5 9.5T307 595q-48 0-75.5-19T204 525q0-33 25.5-54t63-38q37.5-17 82-34t82-41.5q37.5-24.5 63-61.5t25.5-93q0-54-19.5-94.5t-54.5-68Q436 13 387 0q-20-6-43-9l-17-34q41-4 64.5-21.5T415-118q0-23-11.5-40T372-186.5Q352-198 325-204t-58-6q-31 0-64 6l9 48q7-1 13-1h11q38 0 49 9t11 21q0 28-86 32l48 82q-60 2-106 17-55 19-87 39z"/><glyph unicode="ş" horiz-adv-x="600" d="M402 138q0 20-24.5 32T317 192q-36 10-79 20.5t-79 29q-36 18.5-60.5 47T74 362q0 37 16.5 65t45 47.5q28.5 19.5 68 29.5t85.5 10q49 0 86-7t64.5-17q27.5-10 47-22.5T520 445l-55-89q-15 9-34.5 18.5t-41 17.5q-21.5 8-45 13t-46.5 5q-42 0-68-11t-26-34q0-18 24.5-29t60.5-20.5q36-9.5 79-20.5t79-28.5q36-17.5 60.5-45.5t24.5-72q0-76-56-120-45-35-127-42l-17-30q41-4 64.5-21.5T420-118q0-23-11.5-40T377-186.5Q357-198 330-204t-58-6q-31 0-64 6l9 48q7-1 13-1h11q38 0 49 9t11 21q0 28-86 32l50 83q-57 6-102 23-62 26-100 60l60 94q13-11 34.5-24.5T206 116q27-11 57.5-18.5T324 90q32 0 55 11t23 37z"/><glyph unicode="Š" horiz-adv-x="600" d="M65 229h110v-99l6-2q23-10 50.5-16.5T290 105q56 0 87 22.5t31 60.5q0 34-25.5 55t-63 37q-37.5 16-82 32t-82 40.5Q118 377 92.5 414T67 510q0 45 17.5 82.5t49 64.5q31.5 27 75.5 42t98 15q61 0 120-11t94-30V470H411v111q-3 0-6 1-22 6-47.5 9.5T307 595q-48 0-75.5-19T204 525q0-33 25.5-54t63-38q37.5-17 82-34t82-41.5q37.5-24.5 63-61.5t25.5-93q0-54-20-94.5t-56-68Q433 13 384-.5T278-14q-38 0-70.5 6t-60 15Q120 16 99 26T65 43zm293 508H256L101 870h141l68-61 73 61h136z"/><glyph unicode="š" horiz-adv-x="600" d="M402 138q0 20-24.5 32T317 192q-36 10-79 20.5t-79 29q-36 18.5-60.5 47T74 362q0 37 16.5 65t45 47.5q28.5 19.5 68 29.5t85.5 10q49 0 86-7t64.5-17q27.5-10 47-22.5T520 445l-55-89q-15 9-34.5 18.5t-41 17.5q-21.5 8-45 13t-46.5 5q-42 0-68-11t-26-34q0-18 24.5-29t60.5-20.5q36-9.5 79-20.5t79-28.5q36-17.5 60.5-45.5t24.5-72q0-76-55.5-119.5T312-14q-86 0-148.5 25.5T63 71l60 94q13-11 34.5-24.5T206 116q27-11 57.5-18.5T324 90q32 0 55 11t23 37zm-60 412h-91L136 732h110l56-94 62 94h101z"/><glyph unicode="Ţ" horiz-adv-x="600" d="M346 0l-24-43q41-4 64.5-21.5T410-118q0-23-11.5-40T367-186.5Q347-198 320-204t-58-6q-31 0-64 6l9 48q7-1 13-1h11q38 0 49 9t11 21q0 28-86 32l57 95H118v110h114v480h-96V469H26v231h548V469H464v121h-95V110h113V0z"/><glyph unicode="ţ" horiz-adv-x="600" d="M116 390H17v110h99v114l130 37V500h262V390H246V247q0-77 29-111.5t81-34.5q27 0 49 6.5t39.5 16.5q17.5 10 32 22t26.5 22l60-90q-17-20-42.5-36.5t-55-29Q436 0 404-7q-25-5-50-7l-16-29q41-4 64.5-21.5T426-118q0-23-11.5-40T383-186.5Q363-198 336-204t-58-6q-31 0-64 6l9 48q7-1 13-1h11q38 0 49 9t11 21q0 28-86 32l52 88Q210 6 172 48q-56 63-56 199z"/><glyph unicode="Ť" horiz-adv-x="600" d="M118 110h114v480h-96V469H26v231h548V469H464v121h-95V110h113V0H118zm229 627H245L90 870h141l68-61 73 61h136z"/><glyph unicode="ť" horiz-adv-x="600" d="M116 390H17v110h99v114l130 37V500h262V390H246V247q0-77 29-111.5t81-34.5q27 0 49 6.5t39.5 16.5q17.5 10 32 22t26.5 22l60-90q-17-20-42.5-36.5t-55-29Q436 0 404-7t-63-7q-112 0-168.5 62.5T116 247zm334 343q-2-29-12-60.5t-23.5-60Q401 584 386 561.5T359 529l-58 31q17 36 26 81.5t9 91.5z"/><glyph unicode="Ū" horiz-adv-x="600" d="M420 700h130V252q0-68-18-117.5t-50.5-82Q449 20 404 4t-99-16q-130 0-192.5 63T50 235v465h137V262q0-80 29-116t91-36q60 0 86.5 38.5T420 262zM129 856h343v-89H129z"/><glyph unicode="ū" horiz-adv-x="600" d="M330 500h186V152v-42h76V0H434l-23 74h-4q-23-38-69-63T236-14q-38 0-69.5 10T113 29Q91 52 79 91t-12 98v201H10v110h187V216q0-61 19.5-88t61.5-27q37 0 66.5 22t41.5 54v213h-56zM121 658h323v-92H121z"/><glyph unicode="Ŭ" horiz-adv-x="600" d="M420 700h130V252q0-68-18-117.5t-50.5-82Q449 20 404 4t-99-16q-130 0-192.5 63T50 235v465h137V262q0-80 29-116t91-36q60 0 86.5 38.5T420 262zM162 885q20-26 58-40t85-14q48 0 82.5 15t54.5 39l58-45q-37-54-88-77t-108-23q-27 0-54.5 4.5T196 760q-26 11-50.5 30.5T101 840z"/><glyph unicode="ŭ" horiz-adv-x="600" d="M330 500h186V152v-42h76V0H434l-23 74h-4q-23-38-69-63T236-14q-38 0-69.5 10T113 29Q91 52 79 91t-12 98v201H10v110h187V216q0-61 19.5-88t61.5-27q37 0 66.5 22t41.5 54v213h-56zM164 720q17-30 47.5-44.5T276 661q34 0 62.5 15t43.5 44l60-27q-3-24-16.5-47.5T390 604q-22-18-51.5-29T275 564q-66 0-113 33.5T101 688z"/><glyph unicode="Ů" horiz-adv-x="600" d="M420 700h130V252q0-68-18-117.5t-50.5-82Q449 20 404 4t-99-16q-130 0-192.5 63T50 235v465h137V262q0-80 29-116t91-36q60 0 86.5 38.5T420 262zm-244 72q0 18 6 34.5t20.5 29q14.5 12.5 39 19.5t62.5 7q70 0 99-24t29-66q0-18-6.5-34T404 710.5Q389 699 364.5 692t-60.5-7q-71 0-99.5 24.5T176 772zm84 0q0-31 44-31 25 0 35 8t10 23q0 17-10.5 25t-34.5 9q-44-1-44-34z"/><glyph unicode="ů" horiz-adv-x="600" d="M330 500h186V152v-42h76V0H434l-23 74h-4q-23-38-69-63T236-14q-38 0-69.5 10T113 29Q91 52 79 91t-12 98v201H10v110h187V216q0-61 19.5-88t61.5-27q37 0 66.5 22t41.5 54v213h-56zM170 647q0 42 28.5 69t82.5 27q51 0 81-24.5t30-71.5q0-39-29.5-66.5T281 553q-53 0-82 25.5T170 647zm72 0q0-16 12-24.5t27-8.5q17 0 28 8t11 25q0 17-11.5 25.5T281 681q-15 0-27-8t-12-26z"/><glyph unicode="Ű" horiz-adv-x="600" d="M420 700h130V252q0-68-18-117.5t-50.5-82Q449 20 404 4t-99-16q-130 0-192.5 63T50 235v465h137V262q0-80 29-116t91-36q60 0 86.5 38.5T420 262zM211 850h134v-16l-100-93h-93zm198 0h140v-16l-143-93h-94z"/><glyph unicode="ű" horiz-adv-x="600" d="M330 500h186V152v-42h76V0H434l-23 74h-4q-23-38-69-63T236-14q-38 0-69.5 10T113 29Q91 52 79 91t-12 98v201H10v110h187V216q0-61 19.5-88t61.5-27q37 0 66.5 22t41.5 54v213h-56zM191 700h129l-86-129h-78zm178 0h142L377 571h-81z"/><glyph unicode="Ų" horiz-adv-x="600" d="M420 700h130V252q0-68-18-117.5T481 52q-27-27-62-42-21-15-34-34-15-22-15-45 0-18 11.5-32t33.5-14q18 0 39 11l19-62q-15-12-47.5-24T358-202q-56 0-85.5 27.5T243-106q0 55 54 94-124 2-185 63-62 63-62 184v465h137V262q0-80 29-116t91-36q60 0 86.5 38.5T420 262z"/><glyph unicode="ų" horiz-adv-x="600" d="M330 500h186V110h76V0h-28q-48-23-48-69 0-18 11-30.5t31-12.5q18 0 42 12l19-62q-15-12-47.5-23.5T504-197q-56 0-85.5 25T389-106q0 41 27 70 20 21 51 36h-33l-23 74h-4q-23-38-69-63T236-14q-38 0-69.5 10T113 29Q91 52 79 91t-12 98v201H10v110h187V216q0-61 19.5-88t61.5-27q37 0 66.5 22t41.5 54v213h-56z"/><glyph unicode="Ÿ" horiz-adv-x="600" d="M232 258L6 700h163l135-289h5l138 289h147L369 259V0H232zM97 805q0 27 19 44t61 17q42 0 61-17t19-44q0-28-19-44t-61-16q-42 0-61 16t-19 44zm246 0q0 27 19 44t61 17q42 0 61-17t19-44q0-28-19-44t-61-16q-42 0-61 16t-19 44z"/><glyph unicode="Ź" horiz-adv-x="600" d="M53 122l328 456H69v122h473V578L219 122h328V0H53zm275 748h159v-30l-160-88H224z"/><glyph unicode="ź" horiz-adv-x="600" d="M64 110l308 280H64v110h472V390L231 110h305V0H64zm241 610h158L326 566h-80z"/><glyph unicode="Ż" horiz-adv-x="600" d="M53 122l328 456H69v122h473V578L219 122h328V0H53zm157 687q0 27 23 46t70 19q46 0 71-19t25-46q0-29-25-48t-71-19q-47 0-70 19t-23 48z"/><glyph unicode="ż" horiz-adv-x="600" d="M64 110l308 280H64v110h472V390L231 110h305V0H64zm154 526q0 31 23 53t64 22q42 0 67-22t25-53q0-32-25-52.5T305 563q-41 0-64 20.5T218 636z"/><glyph unicode="Ž" horiz-adv-x="600" d="M53 122l328 456H69v122h473V578L219 122h328V0H53zm295 615H246L91 870h141l68-61 73 61h136z"/><glyph unicode="ž" horiz-adv-x="600" d="M64 110l308 280H64v110h472V390L231 110h305V0H64zm278 440h-91L136 732h110l56-94 62 94h101z"/><glyph unicode="ſ" horiz-adv-x="600" d="M80 500h109v12q0 95 52.5 145.5T385 708q45 0 89.5-7t74.5-20l-26-104q-29 11-55.5 16t-46.5 5q-51 0-76.5-29.5T319 490V0H189v390H80z"/><glyph unicode="ƒ" horiz-adv-x="600" d="M390 390L319-34q-6-37-17.5-68.5t-32-55q-20.5-23.5-51-37T144-208q-14 0-34 2t-40.5 5q-20.5 3-39 7.5T0-184L21-79q23-10 42-14.5t47-4.5q36 0 56 24.5T195 8l61 382h-78v110h96l11 67q6 37 16.5 64.5t29 46Q349 696 378 705t72 9q16 0 36-2.5t40.5-7q20.5-4.5 39.5-10t34-12.5l-32-97q-23 9-45.5 14t-45.5 5q-32 0-44.5-15.5T414 533l-5-33h119V390z"/><glyph unicode="Ǵ" horiz-adv-x="600" d="M323 365h239V49q-34-31-88.5-47T362-14q-67 0-125.5 23T135 78.5q-43 46.5-68 115T42 354q0 97 30 165t77.5 111.5Q197 674 256 694t117 20q60 0 100-9.5t73-24.5V473H436v111l-16 4q-20 4-44 4-41 0-76-14t-60.5-43.5Q214 505 200 459t-14-110q0-57 14-102t39-76q25-31 59.5-47t74.5-16q26 0 47.5 6t29.5 12v139H323zm75 505h159v-30l-160-88H294z"/><glyph unicode="ǵ" horiz-adv-x="600" d="M530 0q0-54-18.5-94t-51-66.5q-32.5-26.5-77-39T286-212q-36 0-67.5 5.5t-58 14.5q-26.5 9-46.5 19.5T82-152l50 92q24-16 57.5-30.5T274-105q63 0 96 29t33 83v32h-4q-18-24-53-35.5T265-8q-48 0-88.5 15T106 52.5Q76 83 59.5 130T43 240q0 66 19.5 117t55 85.5q35.5 34.5 85 52T313 512q32 0 64-2.5t60.5-6.5q28.5-4 52.5-9.5t40-11.5zM290 96q38 0 68.5 17t41.5 51v225q-14 6-39.5 9.5T312 402q-28 0-52.5-9t-43-28.5q-18.5-19.5-29-49T177 245q0-36 9-64t25-47q16-19 36-28.5t43-9.5zm37 624h158L348 566h-80z"/><glyph unicode="Ș" horiz-adv-x="600" d="M65 229h110v-99l6-2q23-10 50.5-16.5T290 105q56 0 87 22.5t31 60.5q0 34-25.5 55t-63 37q-37.5 16-82 32t-82 40.5Q118 377 92.5 414T67 510q0 45 17.5 82.5t49 64.5q31.5 27 75.5 42t98 15q61 0 120-11t94-30V470H411v111q-3 0-6 1-22 6-47.5 9.5T307 595q-48 0-75.5-19T204 525q0-33 25.5-54t63-38q37.5-17 82-34t82-41.5q37.5-24.5 63-61.5t25.5-93q0-54-20-94.5t-56-68Q433 13 384-.5T278-14q-38 0-70.5 6t-60 15Q120 16 99 26T65 43zM210-95q0 18 8 30t20 19.5Q250-38 265-35t30 3q35 0 62-20t27-62q0-29-12.5-50.5t-32-36q-19.5-14.5-45-22T244-230l-13 48q28 1 47 12t20 26q-38-5-63 9.5T210-95z"/><glyph unicode="ș" horiz-adv-x="600" d="M402 138q0 20-24.5 32T317 192q-36 10-79 20.5t-79 29q-36 18.5-60.5 47T74 362q0 37 16.5 65t45 47.5q28.5 19.5 68 29.5t85.5 10q49 0 86-7t64.5-17q27.5-10 47-22.5T520 445l-55-89q-15 9-34.5 18.5t-41 17.5q-21.5 8-45 13t-46.5 5q-42 0-68-11t-26-34q0-18 24.5-29t60.5-20.5q36-9.5 79-20.5t79-28.5q36-17.5 60.5-45.5t24.5-72q0-76-55.5-119.5T312-14q-86 0-148.5 25.5T63 71l60 94q13-11 34.5-24.5T206 116q27-11 57.5-18.5T324 90q32 0 55 11t23 37zM214-95q0 18 8 30t20 19.5Q254-38 269-35t30 3q35 0 62-20t27-62q0-29-12.5-50.5t-32-36q-19.5-14.5-45-22T248-230l-13 48q28 1 47 12t20 26q-38-5-63 9.5T214-95z"/><glyph unicode="Ț" horiz-adv-x="600" d="M118 110h114v480h-96V469H26v231h548V469H464v121h-95V110h113V0H118zm92-205q0 18 8 30t20 19.5Q250-38 265-35t30 3q35 0 62-20t27-62q0-29-12.5-50.5t-32-36q-19.5-14.5-45-22T244-230l-13 48q28 1 47 12t20 26q-38-5-63 9.5T210-95z"/><glyph unicode="ț" horiz-adv-x="600" d="M116 390H17v110h99v114l130 37V500h262V390H246V247q0-77 29-111.5t81-34.5q27 0 49 6.5t39.5 16.5q17.5 10 32 22t26.5 22l60-90q-17-20-42.5-36.5t-55-29Q436 0 404-7t-63-7q-112 0-168.5 62.5T116 247zM237-95q0 18 8 30t20 19.5Q277-38 292-35t30 3q35 0 62-20t27-62q0-29-12.5-50.5t-32-36q-19.5-14.5-45-22T271-230l-13 48q28 1 47 12t20 26q-38-5-63 9.5T237-95z"/><glyph unicode="ȷ" horiz-adv-x="600" d="M94 500h368V39q0-115-60-181t-180-66q-49 0-93 15t-76 44l58 96q11-9 39.5-22.5T215-89q24 0 45.5 7.5t37.5 25Q314-39 323-11t9 70v331H94z"/><glyph unicode="ʼ" horiz-adv-x="600" d="M218 646q0 13 5 26t15 23.5q10 10.5 24.5 17T295 719q20 0 38.5-7.5T365 690q11-13 17-31t6-38q0-38-13.5-70T336 494q-11-11-25-20.5t-26.5-16Q272 451 263 447t-11-5l-40 59q11 4 24.5 10.5t25.5 16q12 9.5 20 22.5t9 30q-29 0-51 17t-22 49z"/><glyph unicode="ˆ" horiz-adv-x="600" d="M263 732h86l111-182H357l-55 94-63-94h-99z"/><glyph unicode="ˇ" horiz-adv-x="600" d="M341 550h-91L135 732h110l56-94 62 94h101z"/><glyph unicode="˘" horiz-adv-x="600" d="M192 720q17-30 47.5-44.5T304 661q34 0 62.5 15t43.5 44l60-27q-3-24-16.5-47.5T418 604q-22-18-51.5-29T303 564q-66 0-113 33.5T129 688z"/><glyph unicode="˙" horiz-adv-x="600" d="M211 636q0 31 23 53t64 22q42 0 67-22t25-53q0-32-25-52.5T298 563q-41 0-64 20.5T211 636z"/><glyph unicode="˚" horiz-adv-x="600" d="M189 647q0 42 28.5 69t82.5 27q51 0 81-24.5t30-71.5q0-39-29.5-66.5T300 553q-53 0-82 25.5T189 647zm72 0q0-16 12-24.5t27-8.5q17 0 28 8t11 25q0 17-11.5 25.5T300 681q-15 0-27-8t-12-26z"/><glyph unicode="˛" horiz-adv-x="600" d="M388 10q-76-22-76-79 0-18 11-30.5t31-12.5q18 0 42 12l19-62q-15-12-47.5-23.5T300-197q-56 0-85.5 25T185-106q0 41 27.5 70T288 10z"/><glyph unicode="˜" horiz-adv-x="600" d="M134 658q31 37 57.5 51t50.5 14q20 0 38.5-7t36.5-15q18-8 35-15t35-5q14-2 28.5 4t30.5 21l20-70q-29-32-53.5-44T365 580q-20 0-39 6.5T289 601q-18 8-36 14.5t-36 6.5q-15 0-31-6.5T153 593z"/><glyph unicode="˝" horiz-adv-x="600" d="M165 700h129l-86-129h-78zm178 0h142L351 571h-81z"/><glyph unicode="́" horiz-adv-x="600" d="M260 720h158L281 566h-80z"/><glyph unicode="Δ" horiz-adv-x="600" d="M18 0v71l241 634h79L581 71V0zm146 115h270L299 484h-5z"/><glyph unicode="Ω" horiz-adv-x="600" d="M7 110h152v13Q77 154 45.5 223T14 397q0 73 19 131.5T88.5 628q36.5 41 90 63.5T300 714q72 0 125.5-23.5T515 625q36-42 53.5-101T586 393q0-52-6.5-93.5t-23-74.5q-16.5-33-45-58T440 123v-13h153V0H331v203q52 9 81.5 52T442 392q0 37-5 73t-20.5 64.5Q401 558 373 575t-74 17q-77 0-109-51t-32-152q0-91 27.5-134.5T268 203V0H7z"/><glyph unicode="π" horiz-adv-x="600" d="M516 156q0-28 9-39t23-11q10 0 20.5 2t19.5 4l20-90q-12-5-40.5-16.5T494-6q-59 0-83.5 32T386 116v274H266V0H136v390h-10q-22 0-34.5-11T69 346l-76 48q16 52 50 79t93 27h463V390h-83z"/><glyph unicode="Ё" horiz-adv-x="600" d="M70 700h459V578H207V415h297V293H207V122h327V0H70zm32 105q0 27 19 44t61 17q42 0 61-17t19-44q0-28-19-44t-61-16q-42 0-61 16t-19 44zm246 0q0 27 19 44t61 17q42 0 61-17t19-44q0-28-19-44t-61-16q-42 0-61 16t-19 44z"/><glyph unicode="Ђ" horiz-adv-x="600" d="M295 0H158v578H14v122h475V578H295V438q8 4 31 11.5t61 7.5q37 0 73.5-11.5T529 402q27-27 44-68t17-102q0-48-9-88.5T552 72q-22-33-60.5-56T393-7q-11 0-28 1t-25 3v117q13-3 33-3 14 0 28.5 4.5T428 137q11 14 14.5 38.5T446 226q0 20-5.5 40.5T423 303q-14 18-31 25t-40 7q-22 0-37-6t-20-9z"/><glyph unicode="Ѓ" horiz-adv-x="600" d="M54 122h92v456H54v122h514V473H458v105H283V122h149V0H54zm294 748h159v-30l-160-88H244z"/><glyph unicode="Є" horiz-adv-x="600" d="M556 24q-10-6-28-13T486.5-1.5q-23.5-5.5-51-9T380-14q-63 0-122 18T153 64q-50 45-79.5 115.5T44 350q0 106 30 177t78 114q42 38 95 55.5T359 714q52 0 101.5-9t81.5-27V479H432v109q-30 8-60 8-44 0-74-12t-58-38q-24-23-39-59t-20-77h237V300H180q4-48 20-84.5t40-60.5q26-26 61-38.5t75-12.5q39 0 70 8v123h110z"/><glyph unicode="Ѕ" horiz-adv-x="600" d="M65 229h110v-99l6-2q23-10 50.5-16.5T290 105q56 0 87 22.5t31 60.5q0 34-25.5 55t-63 37q-37.5 16-82 32t-82 40.5Q118 377 92.5 414T67 510q0 45 17.5 82.5t49 64.5q31.5 27 75.5 42t98 15q61 0 120-11t94-30V470H411v111q-3 0-6 1-22 6-47.5 9.5T307 595q-48 0-75.5-19T204 525q0-33 25.5-54t63-38q37.5-17 82-34t82-41.5q37.5-24.5 63-61.5t25.5-93q0-54-20-94.5t-56-68Q433 13 384-.5T278-14q-38 0-70.5 6t-60 15Q120 16 99 26T65 43z"/><glyph unicode="І" horiz-adv-x="600" d="M54 122h177v456H54v122h492V578H368V122h178V0H54z"/><glyph unicode="Ї" horiz-adv-x="600" d="M54 122h177v456H54v122h492V578H368V122h178V0H54zm43 683q0 27 19 44t61 17q42 0 61-17t19-44q0-28-19-44t-61-16q-42 0-61 16t-19 44zm246 0q0 27 19 44t61 17q42 0 61-17t19-44q0-28-19-44t-61-16q-42 0-61 16t-19 44z"/><glyph unicode="Ј" horiz-adv-x="600" d="M92 700h418V254q0-57-14.5-107T443 58q-24-24-51.5-38T338-1q-26-7-49-9t-38-2q-48 0-93 10.5T68 36l49 110q38-22 65.5-29t63.5-7q22 0 47.5 8.5T338 147q35 38 35 106v325H92z"/><glyph unicode="Љ" horiz-adv-x="600" d="M269 589h-75q-5-192-15-322.5T141 72q-10-24-23-39.5t-26.5-24Q78 0 64-3.5T38-7Q20-7 3-3.5T-26 8l13 109q4-2 7.5-2H1q12 0 22 8t18 27q9 22 16.5 65T70 325.5q5 67.5 8.5 160T83 700h304V448q11 3 32 6t37 3q37 0 68-9.5t53.5-34.5q22.5-25 35.5-68.5T626 234q0-120-46-182T420-10q-9 0-27 .5t-39 2q-21 1.5-43.5 5T269 6zm158-488q38 0 57 28.5t19 97.5q0 36-5.5 59t-15 36.5Q473 336 459 341t-32 5q-8 0-21.5-2.5T387 337V107q8-2 18.5-4t21.5-2z"/><glyph unicode="Њ" horiz-adv-x="600" d="M251 311H110V0H-8v700h118V422h141v278h118V429q7 2 28.5 5t37.5 3q36 0 67.5-8.5t55-31.5q23.5-23 37-64.5T608 224q0-120-48-177T403-10q-10 0-28 .5t-39.5 2q-21.5 1.5-44 4T251 3zm159-210q38 0 56.5 28t18.5 90q0 32-5 53t-14.5 33q-9.5 12-23 16.5T411 326q-10 0-23.5-2.5T369 318V107q7-3 18.5-4.5T410 101z"/><glyph unicode="Ћ" horiz-adv-x="600" d="M290 0H153v578H9v122h475V578H290V401q17 15 46 28t72 13q34 0 68-11.5t57-36.5q24-26 38-60.5t14-85.5V0H448v196q0 22-3 51.5T429 294q-10 13-25 22t-38 9q-25 0-44.5-10.5T290 291z"/><glyph unicode="Ќ" horiz-adv-x="600" d="M256 292h-71V0H48v700h137V414h71l160 286h156L375 362 597 0H428zm73 578h159v-30l-160-88H225z"/><glyph unicode="Ў" horiz-adv-x="600" d="M297 332h48l99 368h141L425 183q-14-44-30.5-79.5t-40-60Q331 19 298 6T218-7q-29 0-52 5t-50 21l35 111q18-9 31.5-12t29.5-3q22 0 37 6t24.5 18q9.5 12 16.5 30t13 41H202L6 700h147zm-58 552q4-32 23.5-46t50.5-14q67 0 74 59l111-17q-11-63-57.5-92T312 745q-41 0-75 6t-59.5 19.5Q152 784 135.5 807T115 864z"/><glyph unicode="Џ" horiz-adv-x="600" d="M58 0v700h137V122h209v578h137V0H359v-175H236V0z"/><glyph unicode="А" horiz-adv-x="600" d="M400 155H191L143 0H6l226 700h137L594 0H450zM223 265h150l-71 234h-9z"/><glyph unicode="Б" horiz-adv-x="600" d="M74 700h431V578H211V432q17 3 41.5 6t48.5 3q56 0 103-11t80.5-36.5q33.5-25.5 52.5-67T556 225q0-59-19.5-103t-56-73q-36.5-29-88-44T277-10q-17 0-42.5 1t-54 3Q152-4 124-1T74 7zm213-597q26 0 48.5 6.5t39.5 20q17 13.5 27 34.5t10 51q0 36-11 58t-30 34.5Q352 320 327.5 324t-52.5 4q-14 0-35-2.5t-29-4.5V108q11-3 33.5-4t42.5-1z"/><glyph unicode="В" horiz-adv-x="600" d="M533 537q0-26-6.5-52T505 437.5q-15-21.5-39-38T408 375v-6q30-5 57-17t47-33q20-21 31.5-51t11.5-71q0-54-23-93.5T470.5 39Q432 14 383 2T282-10h-43.5q-26.5 0-57 1.5t-62 4.5Q88-1 62 5v690q19 3 43.5 6t52.5 5q28 2 57.5 3t58.5 1q49 0 95.5-7.5t83-26.5q36.5-19 58.5-53t22-86zM283 103q25 0 48.5 6t41.5 18.5q18 12.5 29 31.5t11 45q0 33-13 52t-34 29.5Q345 296 319 299t-52 3h-73V109q5-2 16-3t23.5-1.5q12.5-.5 26-1t23.5-.5zm-45 303q14 0 32.5 1t30.5 3q38 12 65.5 36t27.5 63q0 26-10 43t-26.5 27Q341 589 320 593t-44 4q-26 0-48-1t-34-3V406z"/><glyph unicode="Г" horiz-adv-x="600" d="M54 122h92v456H54v122h514V473H458v105H283V122h149V0H54z"/><glyph unicode="Д" horiz-adv-x="600" d="M592-135H472V0H124v-135H4v257h59q10 19 24.5 57t27 102.5Q127 346 135 441.5t5 229.5v29h379V122h73zM382 122v456H264q-2-89-8-160.5t-15-128q-9-56.5-20-98T199 122z"/><glyph unicode="Е" horiz-adv-x="600" d="M70 700h459V578H207V415h297V293H207V122h327V0H70z"/><glyph unicode="Ж" horiz-adv-x="600" d="M235 700h130V403h34l50 297h136l-70-349L597 0H459l-60 299h-34V0H235v299h-34L141 0H3l82 351-70 349h136l50-297h34z"/><glyph unicode="З" horiz-adv-x="600" d="M51 235h110V123q3-1 5-2 22-7 46.5-12t53.5-5q24 0 46.5 6t40.5 19q18 13 28.5 33t10.5 48q0 31-12.5 50.5t-33.5 30Q325 301 298.5 305t-53.5 5h-30v107h29q21 0 43.5 4t40.5 14q18 10 30 27.5t12 44.5q0 23-9 39.5t-25 27Q320 584 299 589t-46 5q-47 0-82-10V481H61v190q37 16 95.5 28.5T280 712q44 0 86-8.5t75-29q33-20.5 53-55t20-86.5q0-52-27.5-94T398 377v-5q66-17 102-57t36-112q0-57-23-98t-60.5-67.5Q415 11 366-1.5T266-14q-66 0-121.5 11.5T51 27z"/><glyph unicode="И" horiz-adv-x="600" d="M413 370l8 91h-5l-41-94L177 0H50v700h137V337l-10-94h6l43 97 198 360h126V0H413z"/><glyph unicode="Й" horiz-adv-x="600" d="M413 370l8 91h-5l-41-94L177 0H50v700h137V337l-10-94h6l43 97 198 360h126V0H413zM240 884q4-32 23.5-46t50.5-14q67 0 74 59l111-17q-11-63-57.5-92T313 745q-41 0-75 6t-59.5 19.5Q153 784 136.5 807T116 864z"/><glyph unicode="К" horiz-adv-x="600" d="M256 292h-71V0H48v700h137V414h71l160 286h156L375 362 597 0H428z"/><glyph unicode="Л" horiz-adv-x="600" d="M421 578H292q-5-95-10.5-173t-14-140.5Q259 202 246.5 155T214 76q-29-48-65-65.5T75-7Q52-7 34.5-2.5T8 7l15 118q5-2 11.5-3t12.5-1q16 0 32.5 8t28.5 27q14 22 24 65.5t16.5 110q6.5 66.5 10 158T165 700h393V0H421z"/><glyph unicode="М" horiz-adv-x="600" d="M423 373l5 109h-6L310 299h-24L169 482h-5l6-98V0H40v700h139l120-194h4l119 194h138V0H423z"/><glyph unicode="Н" horiz-adv-x="600" d="M413 293H187V0H50v700h137V415h226v285h137V0H413z"/><glyph unicode="О" horiz-adv-x="600" d="M36 350q0 85 16 153t49 114.5q33 46.5 82.5 71.5T300 714q72 0 122-27t81.5-75q31.5-48 46-115T564 350q0-171-65.5-267.5T300-14q-72 0-122.5 27t-82 75Q64 136 50 203T36 350zm144 0q0-51 4.5-95t17-76.5q12.5-32.5 36-51.5t62.5-19q35 0 58 14.5t37 44.5q14 30 19.5 75.5T420 350q0 49-3.5 93t-16 77Q388 553 364 572.5T300 592q-70 0-95-61t-25-181z"/><glyph unicode="П" horiz-adv-x="600" d="M407 578H193V0H56v700h488V0H407z"/><glyph unicode="Р" horiz-adv-x="600" d="M73 693q42 8 92.5 12.5T266 710q52 0 104.5-8.5t94.5-34q42-25.5 68.5-71T560 478q0-64-23-109.5t-61-75q-38-29.5-86.5-43T289 237h-16q-11 0-23 .5t-23.5 1.5q-11.5 1-16.5 2V0H73zm204-101q-20 0-38-1.5t-29-3.5V360q4-1 12-2t17-1.5q9-.5 17.5-.5H269q27 0 53.5 5t47.5 18.5q21 13.5 33.5 37.5t12.5 63q0 33-12 54.5T372.5 569Q353 582 328 587t-51 5z"/><glyph unicode="С" horiz-adv-x="600" d="M444 235h110V35q-32-23-81.5-36T371-14q-66 0-125.5 19.5T141 68.5q-45 43.5-72 113T42 350q0 103 30.5 172.5t78.5 112q48 42.5 107 61T374 714q60 0 101.5-10t68.5-23V473H434v114q-31 5-64 5-39 0-72.5-14.5T239 533q-25-30-39-75.5T186 350q0-54 13-98.5t38-76.5q25-32 61-49.5t82-17.5q33 0 64 6z"/><glyph unicode="Т" horiz-adv-x="600" d="M118 110h114v480h-96V469H26v231h548V469H464v121h-95V110h113V0H118z"/><glyph unicode="У" horiz-adv-x="600" d="M297 332h48l99 368h141L425 183q-14-44-30.5-79.5t-40-60Q331 19 298 6T218-7q-29 0-52 5t-50 21l35 111q18-9 31.5-12t29.5-3q22 0 37 6t24.5 18q9.5 12 16.5 30t13 41H202L6 700h147z"/><glyph unicode="Ф" horiz-adv-x="600" d="M360 173q22 3 41 11.5t33 29q14 20.5 21.5 55.5t7.5 90q0 91-24.5 131T360 535zM240 535q-54-5-78.5-45T137 359q0-55 7.5-90t21.5-55.5q14-20.5 32.5-29T240 173zm-7 185h134v-76q43-2 84-15.5t73.5-45q32.5-31.5 52-85.5T596 360q0-81-18.5-136T528 134.5q-31-34.5-73-50T367 66v-86H233v86q-47 3-88.5 18.5t-72.5 50Q41 169 22.5 224T4 360q0 80 19.5 133.5t52 86Q108 612 149 627t84 17z"/><glyph unicode="Х" horiz-adv-x="600" d="M220 359L22 700h160l102-190 23-51 22 51 104 190h155L387 358 594 0H434L327 200l-27 54-26-54L162 0H7z"/><glyph unicode="Ц" horiz-adv-x="600" d="M596-135H476V0H46v700h137V122h192v578h137V122h84z"/><glyph unicode="Ч" horiz-adv-x="600" d="M187 700V478q0-60 23.5-89.5T288 359q38 0 71.5 8.5T413 393v307h137V0H413v282q-26-15-69.5-27.5T240 242q-42 0-76.5 10.5t-60 34Q78 310 64 346.5T50 435v265z"/><glyph unicode="Ш" horiz-adv-x="600" d="M44 0v700h120V122h76v578h120V122h76v578h120V0z"/><glyph unicode="Щ" horiz-adv-x="600" d="M30 0v700h120V122h66v578h120V122h66v578h120V122h76v-257H478V0z"/><glyph unicode="Ъ" horiz-adv-x="600" d="M137 578H8v122h266V449q32 8 81 8 48 0 87.5-12t68.5-38q30-26 48-68t18-104q0-54-16-101.5T508 51q-31-29-79-45T320-10q-14 0-34.5 1t-45 3Q216-4 189-1t-52 8zm197-466q28 0 47.5 10t30.5 26q11 16 16 36.5t5 42.5q0 49-22.5 78.5T334 335q-18 0-34-2.5t-26-5.5V118q7-2 23.5-4t36.5-2z"/><glyph unicode="Ы" horiz-adv-x="600" d="M450 700h133V0H450zm-433 0h135V449q7 2 23 5t39 3q42 0 79.5-13.5T360 398q22-25 35.5-64.5T409 237q0-51-13.5-99.5T348 53q-28-29-73-46T173-10q-31 0-71 4T17 7zm176-588q35 0 58.5 27.5T275 229q0 32-7.5 52.5t-19 32.5q-11.5 12-26 16.5T195 335q-14 0-24.5-2t-18.5-4V117q12-3 19.5-4t21.5-1z"/><glyph unicode="Ь" horiz-adv-x="600" d="M67 700h137V449q5 1 16.5 2.5t25 2.5q13.5 1 27.5 2t26 1q49 0 95-10t81.5-35.5q35.5-25.5 56.5-69T553 232q0-120-74.5-181T265-10q-14 0-37.5.5T176-7q-28 2-56.5 5T67 7zm205-588q28 0 53 5.5t44 19q19 13.5 29.5 35.5t10.5 54q0 34-11.5 55.5t-30 33.5Q349 327 324 331t-52 4q-7 0-17-1l-20-2q-10-1-18.5-2.5T204 327V118q11-3 29.5-4.5T272 112z"/><glyph unicode="Э" horiz-adv-x="600" d="M46 235h110V112q35-8 74-8 40 0 74 12.5t60 38.5q24 24 39 60.5t19 84.5H212v110h209q-5 42-20 77.5T362 546q-28 26-57.5 38T230 596q-21 0-35.5-4t-28.5-8V473H56v199q32 18 83.5 30T243 714q60 0 112.5-17.5T450 641q48-43 78-114t30-177q0-100-29-170.5T449 64Q403 22 344 4T222-14q-57 0-103 11T46 19z"/><glyph unicode="Ю" horiz-adv-x="600" d="M144 415h47q0 54 8 107.5t29.5 96q21.5 42.5 59.5 69t97 26.5q68 0 107-31.5t59-82.5q20-51 25.5-116.5T582 350q0-36-2-77.5t-9-82q-7-40.5-20.5-77.5T515 48q-22-28-54.5-45T382-14q-59 0-96 26.5t-58 70Q207 126 199.5 181T191 293h-47V0H17v700h127zm177-65q0-64 3-115.5t13-82.5q14-44 47-44 35 0 47 41 8 29 11.5 78t3.5 123q0 63-2 114.5T431 548q-14 44-48 44-36 0-49-47-8-29-10.5-77.5T321 350z"/><glyph unicode="Я" horiz-adv-x="600" d="M557 0H420v261h-68L202 0H43l176 285q-23 9-45.5 24.5T133 349q-18 24-29 57.5T93 485q0 67 31 112.5t75 72.5q39 24 83.5 32t103.5 8q17 0 39-1t45.5-3q23.5-2 46-5t40.5-8zM420 583q-10 2-22.5 3.5T368 588q-23 0-47-5.5T280 563q-16-12-29.5-34.5T237 479q0-26 10-46.5t27-35.5q18-16 47-23.5t58-7.5h41z"/><glyph unicode="а" horiz-adv-x="600" d="M90 466q40 18 92.5 31T307 510q52 0 88.5-12.5t59-35.5q22.5-23 32.5-55t10-72q0-51-3.5-87t-3.5-64q0-21 2-47 2-14 3-27h65V0H394l-13 68h-5q-20-31-57-53.5T219-8q-75 0-119 40T56 138q0 42 15.5 72.5t45 50q29.5 19.5 71 29T280 299q18 0 38-2t49-4q2 10 2 20v19q0 38-22 54.5T282 403q-51 0-92-13t-69-26zM261 99q48 0 72 17.5t35 37.5v60q-10 2-30 4.5t-43 2.5q-19 0-38-3.5t-34-11q-15-7.5-24-19.5t-9-29q0-28 16.5-43.5T261 99z"/><glyph unicode="б" horiz-adv-x="600" d="M143 406q37 44 87.5 63.5T337 489q45 0 86.5-14t73-43q31.5-29 50-73.5T565 253q0-64-20.5-114t-56-84Q453 21 405 3.5T302-14q-60 0-109.5 19t-85 58Q72 102 53 162T34 303q0 86 12 147t34 103q22 42 51.5 67t64 39.5q34.5 14.5 73 20.5t78.5 10q52 5 89 12.5t55 24.5l5-115q-20-17-57-24t-100-12q-38-3-71.5-10t-60-25q-26.5-18-44-50T140 406zm25-162q0-32 11-59t29-47q18-20 42-31t50-11q27 0 50.5 9.5T392 134q18 19 28.5 46.5T431 244q0 32-10 57t-27.5 42.5Q376 361 353.5 370t-47.5 9q-27 0-52-9.5t-44-27Q191 325 179.5 300T168 244z"/><glyph unicode="в" horiz-adv-x="600" d="M76 499q17 1 43.5 3t58 3q31.5 1 67 2t70.5 1q113 0 164-31.5t51-94.5q0-35-21-67.5T437 266v-4q62-7 87-40t25-81q0-74-63.5-111.5T277-8q-21 0-48.5.5t-55.5 2q-28 1.5-54 3T76 1zm127-399q7-1 18-2t23-1.5q12-.5 24-.5h21q68 0 99 15t31 46q0 26-26.5 42.5T300 216h-97zm99 196q50 0 76.5 15.5T405 351q0 26-25 39.5T294 404q-23 0-51.5-1t-39.5-2V296z"/><glyph unicode="г" horiz-adv-x="600" d="M58 110h68v280H58v110h481V300H429v90H260V110h169V0H58z"/><glyph unicode="д" horiz-adv-x="600" d="M570-120H460V0H118v-120H8v235h59q8 11 20.5 37.5t25 72.5Q125 271 134 339t9 161h348V115h79zM361 109v281H256q-2-36-7-76.5T236.5 235q-7.5-38-17.5-71t-22-55z"/><glyph unicode="е" horiz-adv-x="600" d="M534 53q-13-12-33.5-23.5T452.5 8Q425-2 392-8t-70-6q-64 0-114.5 18T122 56.5q-35 34.5-53.5 83T50 250q0 66 21 115.5t57.5 82.5q36.5 33 85.5 49.5T320 514q38 0 78.5-10t74.5-34.5q34-24.5 55.5-65.5T550 300q0-43-10-93H180q1-32 13.5-54t33-36q20.5-14 47-20.5T330 90q60 0 98.5 14t62.5 34zM318 410q-26 0-49-7t-41.5-20.5Q209 369 197 349t-14-45h246q0 49-27.5 77.5T318 410z"/><glyph unicode="ж" horiz-adv-x="600" d="M213 207L131 0H5l110 252L9 500h128l76-203h33v203h114V297h28l74 203h128l-99-236L595 0H465l-72 207h-33V0H246v207z"/><glyph unicode="з" horiz-adv-x="600" d="M80 457q15 9 38 18t52.5 16.5Q200 499 234 504t71 5q117 0 169-32t52-93q0-17-5-36t-17-36q-12-17-30.5-30T428 264v-4q58-5 87.5-37t29.5-83q0-32-14-59.5T487.5 33Q458 13 413 1T305-11q-42 0-80 6t-70 16.5Q123 22 97.5 35T56 62l50 96q15-12 36-22.5t45.5-18.5q24.5-8 51-13t52.5-5q53 0 88.5 15t35.5 43q0 26-33.5 36T284 203h-29v91h41q51 0 75.5 16t24.5 39q0 27-28.5 38.5T288 399q-28 0-57-5-22-3-42-8v-86H80z"/><glyph unicode="и" horiz-adv-x="600" d="M405 228l5 71h-3L166 0H64v500h130V262l-6-68h4l241 306h102V0H405z"/><glyph unicode="й" horiz-adv-x="600" d="M405 228l5 71h-3L166 0H64v500h130V262l-6-68h4l241 306h102V0H405zM246 704q7-39 23.5-55t42.5-16q28 0 44.5 16t22.5 54l99-25q-12-65-59-96.5T309 550q-31 0-60 7t-52 22.5Q174 595 158 619t-22 59z"/><glyph unicode="к" horiz-adv-x="600" d="M271 197h-65V0H76v500h130V297h53l165 203h147L372 267l123-157h88V0H433z"/><glyph unicode="л" horiz-adv-x="600" d="M389 385H260q-6-71-15.5-141t-29-125.5q-19.5-55.5-51-90T85-6Q27-6 3 9l16 108q16-6 30-6 20 0 36.5 17t29 61Q127 233 135 308.5T146 500h373V0H389z"/><glyph unicode="м" horiz-adv-x="600" d="M441 229l3 104h-5L310 142h-27L147 333h-6l8-103V0H33v500h135l133-191h4l125 191h136V0H441z"/><glyph unicode="н" horiz-adv-x="600" d="M407 197H194V0H64v500h130V312h213v188h130V0H407z"/><glyph unicode="о" horiz-adv-x="600" d="M35 250q0 63 19 112t54 83q35 34 83.5 51.5T300 514q63 0 112.5-19t83.5-53.5q34-34.5 51.5-83.5T565 250q0-63-19-112t-54-83q-35-34-83.5-51.5T300-14q-63 0-112.5 19T104 58.5Q70 93 52.5 142T35 250zm134 0q0-33 9-61t26-49q17-21 41-32.5T300 96q58 0 94.5 37T431 250q0 69-34 111.5T300 404q-28 0-52-8.5T206.5 368Q189 349 179 320t-10-70z"/><glyph unicode="п" horiz-adv-x="600" d="M409 385H191V0H61v500h478V0H409z"/><glyph unicode="р" horiz-adv-x="600" d="M0 500h170l15-60h4q52 74 168 74 46 0 84.5-14.5t66-45.5q27.5-31 42.5-78t15-113q0-64-17-115.5T499 60q-32-36-78-55T316-14q-31 0-61 4.5T205 5v-205H75v590H0zm318-96q-38 0-69.5-19T205 328V120q14-11 40.5-17.5T299 96q28 0 52 9.5t42 30.5q18 21 28 53t10 77q0 66-32 102t-81 36z"/><glyph unicode="с" horiz-adv-x="600" d="M546 48q-41-31-96-46.5T335-14q-65 0-115.5 19t-85 53.5Q100 93 82 142T64 250q0 63 21 112t58.5 83q37.5 34 88.5 51.5T343 514q56 0 105-13t75-25V300H413v92q-31 7-62 7-28 0-55.5-8.5t-49-27Q225 345 211.5 317T198 250q0-32 11-59t31-47q20-20 49.5-31.5T355 101q57 0 93.5 16t54.5 28z"/><glyph unicode="т" horiz-adv-x="600" d="M103 110h130v275h-79v-85H43v200h514V300H447v85h-80V110h130V0H103z"/><glyph unicode="у" horiz-adv-x="600" d="M301 141h38l97 359h134L428 49Q409-7 391-53.5T349-134q-24-34-56.5-52.5T213-205q-23 0-43.5 6T132-184.5q-17 8.5-30 18T81-149l67 89q13-11 31-20.5t34-9.5q30 0 47.5 21T294 0h-71L15 500h141z"/><glyph unicode="ф" horiz-adv-x="600" d="M160 700h204V505q18 3 27 4t22 1q91 0 130-58.5T582 260q0-63-9-113.5T544 60q-20-36-53-55t-82-19q-9 0-21.5 1.5T364-7v-193H236V-6q-17-6-30.5-7T177-14Q93-14 55.5 51T18 250q0 128 43 194t137 66q13 0 20-1t18-3v84h-76zm224-293q-10 0-16-2t-10-3V92q9-3 31-3 20 0 32.5 9.5t19 30q6.5 20.5 9 53T452 260q0 78-15 112.5T384 407zM211 89q21 0 31 5v309q-6 2-13.5 3t-15.5 1q-38 0-51.5-35.5T148 250q0-78 15.5-119.5T211 89z"/><glyph unicode="х" horiz-adv-x="600" d="M211 258L37 500h155l113-167 118 167h141L393 260 574 0H423L296 184 167 0H25z"/><glyph unicode="ц" horiz-adv-x="600" d="M597-120H487V0H63v500h130V115h195v385h130V115h79z"/><glyph unicode="ч" horiz-adv-x="600" d="M190 500V386q0-62 20-90t79-28q11 0 26.5 2t31 5q15.5 3 28.5 7.5t20 9.5v208h130V0H395v196q-8-5-24-11.5T333.5 172q-21.5-6-46.5-10t-51-4q-37 0-69 8t-56 28q-24 20-37.5 53T60 330v170z"/><glyph unicode="ш" horiz-adv-x="600" d="M30 0v500h120V115h90v385h120V115h90v385h120V0z"/><glyph unicode="щ" horiz-adv-x="600" d="M600-120H490V0H18v500h120V115h75v385h120V115h75v385h120V115h72z"/><glyph unicode="ъ" horiz-adv-x="600" d="M265 109q28-6 57-6 48 0 70 16.5t22 51.5q0 65-89 65-35 0-60-7zm0 213q24 4 49 5.5t45 1.5q52 0 88-11.5t58.5-32.5q22.5-21 32.5-49.5t10-61.5q0-91-54.5-136T311-7q-57 0-99 2t-77 5v385H25v115h240z"/><glyph unicode="ы" horiz-adv-x="600" d="M156 109q15-3 25.5-4.5T203 103q71 0 71 68 0 65-68 65-23 0-50-7zm0 213q24 4 43.5 5.5T239 329q47 0 79-11.5t52-32.5q20-21 29-49.5t9-61.5q0-91-49.5-136T191-7q-57 0-94 2T26 0v500h130zm288 178h130V0H444z"/><glyph unicode="ь" horiz-adv-x="600" d="M223 109q15-3 39-4.5t38-1.5q111 0 111 68 0 32-27.5 48.5T303 236q-8 0-19-.5l-22-1q-11-.5-21.5-2T223 229zm0 213q12 2 27.5 3.5t31 2q15.5.5 30 1t24.5.5q55 0 95-11.5t65-32.5q25-21 37-49.5t12-61.5q0-91-60-136T288-7q-57 0-108.5 2T93 0v500h130z"/><glyph unicode="э" horiz-adv-x="600" d="M224 302h196q-5 50-47.5 76T264 404q-54 0-97-16l-6-2v-86H51v148q16 11 38 23t51 21.5q29 9.5 65.5 15.5t83.5 6q55 0 103-17t83.5-50q35.5-33 55.5-82.5T551 250q0-66-20.5-115.5t-57-82.5Q437 19 387 2.5T279-14q-86 0-145 21T42 54l55 93q26-20 65.5-35.5T258 96q32 0 60.5 6t50.5 18.5q22 12.5 36 32.5t16 49H224z"/><glyph unicode="ю" horiz-adv-x="600" d="M389-14q-49 0-81 15t-52 43q-20 28-30 68t-14 90h-46V0H46v500h120V312h47q5 48 16.5 86t32.5 63.5q21 25.5 52.5 39T391 514q53 0 87.5-19t54.5-53.5q20-34.5 28-83.5t8-108q0-63-9-112t-30-83q-21-34-55.5-51.5T389-14zm-63 264q0-73 13-113.5T389 96q31 0 43.5 34T445 250q0 78-11.5 116T386 404q-31 0-45.5-35T326 250z"/><glyph unicode="я" horiz-adv-x="600" d="M45 110h75l49 73q-52 18-76 57t-24 97q0 90 70.5 133.5T335 514q24 0 51-1.5t53.5-3.5q26.5-2 49.5-5t38-6V0H397v167H297L191 0H45zm352 154v134q-5 1-16 2.5t-23 2q-12 .5-23 1t-17 .5q-23 0-43.5-4.5t-36.5-14q-16-9.5-25.5-24T203 328q0-19 8.5-31t24-19.5Q251 270 273 267t48-3z"/><glyph unicode="ё" horiz-adv-x="600" d="M534 53q-13-12-33.5-23.5T452.5 8Q425-2 392-8t-70-6q-64 0-114.5 18T122 56.5q-35 34.5-53.5 83T50 250q0 66 21 115.5t57.5 82.5q36.5 33 85.5 49.5T320 514q38 0 78.5-10t74.5-34.5q34-24.5 55.5-65.5T550 300q0-43-10-93H180q1-32 13.5-54t33-36q20.5-14 47-20.5T330 90q60 0 98.5 14t62.5 34zM318 410q-26 0-49-7t-41.5-20.5Q209 369 197 349t-14-45h246q0 49-27.5 77.5T318 410zM108 626q0 34 20.5 54.5T184 701q34 0 54-20.5t20-54.5q0-32-20-52.5T184 553q-35 0-55.5 20.5T108 626zm258 0q0 34 20 54.5t54 20.5q34 0 55-20.5t21-54.5q0-32-21-52.5T440 553q-34 0-54 20.5T366 626z"/><glyph unicode="ђ" horiz-adv-x="600" d="M45 500h74v200h130V500h161v-80H249V290h4q23 32 59 51t90 19q38 0 67-10t48-33q19-23 28.5-62.5T555 157V-21q0-91-36-139t-115-48q-30 0-64 7v109q4 0 7.5-.5t7.5-.5q43 0 56.5 24.5T425 0v130q0 61-16.5 88T347 245q-33 0-61.5-22T249 166V0H119v420H45z"/><glyph unicode="ѓ" horiz-adv-x="600" d="M58 110h68v280H58v110h481V300H429v90H260V110h169V0H58zm240 610h158L319 566h-80z"/><glyph unicode="є" horiz-adv-x="600" d="M555 48q-41-31-96-46.5T344-14q-68 0-120.5 19t-88 53.5Q100 93 81.5 142T63 250q0 63 21 112t58.5 83q37.5 34 88.5 51.5T342 514q28 0 56.5-3.5t54-9.5q25.5-6 46-13t33.5-12V300H422v89q-15 4-30 6-22 4-42 4-28 0-55.5-8.5t-49-27Q224 345 210 317q-4-10-7-20h168v-98H205q2-4 3-8 12-27 33.5-47t52.5-31.5q31-11.5 70-11.5 57 0 93.5 16t54.5 28z"/><glyph unicode="ѕ" horiz-adv-x="600" d="M402 138q0 20-24.5 32T317 192q-36 10-79 20.5t-79 29q-36 18.5-60.5 47T74 362q0 37 16.5 65t45 47.5q28.5 19.5 68 29.5t85.5 10q49 0 86-7t64.5-17q27.5-10 47-22.5T520 445l-55-89q-15 9-34.5 18.5t-41 17.5q-21.5 8-45 13t-46.5 5q-42 0-68-11t-26-34q0-18 24.5-29t60.5-20.5q36-9.5 79-20.5t79-28.5q36-17.5 60.5-45.5t24.5-72q0-76-55.5-119.5T312-14q-86 0-148.5 25.5T63 71l60 94q13-11 34.5-24.5T206 116q27-11 57.5-18.5T324 90q32 0 55 11t23 37z"/><glyph unicode="і" horiz-adv-x="600" d="M59 110h176v280H59v110h306V110h185V0H59zm151 526q0 31 23 53t64 22q42 0 67-22t25-53q0-32-25-52.5T297 563q-41 0-64 20.5T210 636z"/><glyph unicode="ї" horiz-adv-x="600" d="M59 110h176v280H59v110h306V110h185V0H59zm37 536q0 34 20.5 54.5T172 721q34 0 54-20.5t20-54.5q0-32-20-52.5T172 573q-35 0-55.5 20.5T96 646zm258 0q0 34 20 54.5t54 20.5q34 0 55-20.5t21-54.5q0-32-21-52.5T428 573q-34 0-54 20.5T354 646z"/><glyph unicode="ј" horiz-adv-x="600" d="M94 500h368V39q0-115-60-181t-180-66q-49 0-93 15t-76 44l58 96q11-9 39.5-22.5T215-89q24 0 45.5 7.5t37.5 25Q314-39 323-11t9 70v331H94zm163 136q0 31 23 53t64 22q42 0 67-22t25-53q0-32-25-52.5T344 563q-41 0-64 20.5T257 636z"/><glyph unicode="љ" horiz-adv-x="600" d="M385 322q12 3 26.5 5t28.5 2q39 0 68-11.5t49-32.5q20-21 30-49.5t10-61.5q0-91-53-136T395-7q-23 0-39.5.5t-31 1.5Q310-4 296-3t-31 3v385h-39q-3-71-7.5-141t-19-125.5Q185 63 157 28.5T81-6Q23-6-1 9l16 108q16-6 30-6 20 0 33.5 17t22 61q8.5 44 13.5 119.5t8 191.5h263zm30-86q-11 0-17-2.5t-13-4.5V108q5-2 12.5-3.5T412 103q25 0 43 16.5t18 51.5q0 65-58 65z"/><glyph unicode="њ" horiz-adv-x="600" d="M380 321q12 3 26.5 5.5T435 329q39 0 68-11.5t49-32.5q20-21 30-49.5t10-61.5q0-91-53-136T390-7q-23 0-39.5.5t-31 1.5Q305-4 291-3t-31 3v199H147V0H27v500h120V314h113v186h120zm30-85q-11 0-17-2.5t-13-4.5V108q5-2 12.5-3.5T407 103q25 0 43 16.5t18 51.5q0 65-58 65z"/><glyph unicode="ћ" horiz-adv-x="600" d="M45 500h74v200h130V500h161v-80H249V290h4q23 32 59 51t90 19q38 0 67-10t48-33q19-23 28.5-62.5T555 157V0H425v130q0 61-16.5 88T347 245q-33 0-61.5-22T249 166V0H119v420H45z"/><glyph unicode="ќ" horiz-adv-x="600" d="M271 197h-65V0H76v500h130V297h53l165 203h147L372 267l123-157h88V0H433zm22 523h158L314 566h-80z"/><glyph unicode="ў" horiz-adv-x="600" d="M301 141h38l97 359h134L428 49Q409-7 391-53.5T349-134q-24-34-56.5-52.5T213-205q-23 0-43.5 6T132-184.5q-17 8.5-30 18T81-149l67 89q13-11 31-20.5t34-9.5q30 0 47.5 21T294 0h-71L15 500h141zm-62 563q7-39 23.5-55t42.5-16q28 0 44.5 16t22.5 54l99-25q-12-65-59-96.5T302 550q-31 0-60 7t-52 22.5Q167 595 151 619t-22 59z"/><glyph unicode="џ" horiz-adv-x="600" d="M61 0v500h130V115h218v385h130V0H355v-160H245V0z"/><glyph unicode="Ѡ" horiz-adv-x="600" d="M298 102q-13-61-44.5-88.5T179-14q-48 0-80.5 31.5T46.5 99Q27 149 19 211t-8 123q0 101 15.5 173t45 118q29.5 46 71 67.5T236 714V567q-15 0-31-5.5T175.5 533q-13.5-23-22-68.5T145 340q0-118 13.5-177t33.5-59q27 0 35.5 33.5T236 230v149h128V230q0-62 7-94t33-32q22 0 36 59.5T454 341q0 79-8.5 124.5t-22 68Q410 556 394 561.5t-30 5.5v147q51 0 92-21.5t70.5-68Q556 578 572 506t16-172q0-61-7-123T555.5 99q-18.5-50-51-81.5T422-14q-39 0-70.5 27.5T303 102z"/><glyph unicode="ѡ" horiz-adv-x="600" d="M299 71q-13-45-42.5-65T186-14q-46 0-78 19.5T56.5 59Q37 93 28 139.5T19 240q0 78 16 131t45 85.5q29 32.5 69.5 46.5t90.5 14V407q-14 0-29.5-3.5T182 384q-13-16-21-49t-8-91q0-43 3.5-71.5T166 127q6-17 14-24t18-7q26 0 34 24.5t8 67.5v109h120V188q0-45 7.5-68.5T399 96q10 0 19 7t15.5 24.5q6.5 17.5 10 46T447 245q0 58-8.5 90.5t-21 48.5q-12.5 16-28 19.5T361 407v110q48 0 88.5-14.5t69.5-47q29-32.5 45.5-85.5T581 240q0-54-9-100.5T543.5 59q-19.5-34-51-53.5T416-14q-37 0-67 20t-46 65z"/><glyph unicode="Ѣ" horiz-adv-x="600" d="M0 648h132v77h137v-77h190V533H269v-90q5 1 15.5 2.5t23 2.5q12.5 1 25.5 2t25 1q42 0 84-11t76-36.5q34-25.5 55-67.5t21-104q0-52-17-96.5T526 59q-34-32-85.5-50.5T320-10q-14 0-36 .5T236-7q-26 2-53 5t-51 9v526H0zm327-536q57 0 90 29.5t33 83.5q0 33-10.5 54T412 313q-17 13-39 18t-44 5q-14 0-33-3t-27-5V118q8-2 23-4t35-2z"/><glyph unicode="ѣ" horiz-adv-x="600" d="M38 500h110v200h130V500h160v-93H278v-85q24 4 49 5.5t45 1.5q52 0 88-11.5t58.5-32.5q22.5-21 32.5-49.5t10-61.5q0-91-54.5-136T324-7q-57 0-99 2t-77 5v407H38zm240-391q28-6 57-6 48 0 70 16.5t22 51.5q0 65-89 65-35 0-60-7z"/><glyph unicode="Ѳ" horiz-adv-x="600" d="M36 350q0 85 16 153t49 114.5q33 46.5 82.5 71.5T300 714q72 0 122-27t81.5-75q31.5-48 46-115T564 350q0-171-65.5-267.5T300-14q-72 0-122.5 27t-82 75Q64 136 50 203T36 350zm264-242q62 0 87.5 46T418 297H181q2-41 8-75.5t19.5-60q13.5-25.5 36-39.5t55.5-14zm0 484q-62 0-88-46.5T181 407h238q-2 39-8 73t-19 58.5q-13 24.5-35.5 39T300 592z"/><glyph unicode="ѳ" horiz-adv-x="600" d="M35 250q0 63 19 112t54 83q35 34 83.5 51.5T300 514q63 0 112.5-19t83.5-53.5q34-34.5 51.5-83.5T565 250q0-63-19-112t-54-83q-35-34-83.5-51.5T300-14q-63 0-112.5 19T104 58.5Q70 93 52.5 142T35 250zm265 154q-50 0-85-27t-44-88h257q-9 53-41.5 84T300 404zm0-308q49 0 83 26.5t44 84.5H173q11-50 43.5-80.5T300 96z"/><glyph unicode="Ѵ" horiz-adv-x="600" d="M608 570q-13 7-24.5 11t-27.5 4q-20 0-33.5-9.5t-23-24q-9.5-14.5-16-32.5T473 484L343 0H184L-38 700h157l148-510h4l77 318q12 49 28.5 85t36.5 59q27 32 59.5 44.5T540 709q35 0 56-6t42-17z"/><glyph unicode="ѵ" horiz-adv-x="600" d="M363 0H224L17 500h151l128-336h6l38 147q14 55 29.5 93t34.5 61q19 23 43.5 33.5T505 509q24 0 46-4.5t36-12.5l-18-107q-18 9-34 9-17 0-32.5-13.5T471 329z"/><glyph unicode="Ҋ" horiz-adv-x="600" d="M514 115h93V84l-96-214h-94L462 0h-85v360l8 91h-5l-41-94L151 0H24v700h137V347l-10-94h6l43 95 188 352h126zM210 874q4-32 23.5-46t50.5-14q67 0 74 59l111-17q-11-63-57.5-92T283 735q-41 0-75 6t-59.5 19.5Q123 774 106.5 797T86 854z"/><glyph unicode="ҋ" horiz-adv-x="600" d="M365 228l5 71h-3L126 0H24v500h130V262l-6-68h4l241 306h102V115h105V84l-96-214h-94L455 0h-90zM206 704q7-39 23.5-55t42.5-16q28 0 44.5 16t22.5 54l99-25q-12-65-59-96.5T269 550q-31 0-60 7t-52 22.5Q134 595 118 619t-22 59z"/><glyph unicode="Ҍ" horiz-adv-x="600" d="M0 648h132v77h137v-77h190V533H269v-90q5 1 15.5 2.5t23 2.5q12.5 1 25.5 2t25 1q42 0 84-11t76-36.5q34-25.5 55-67.5t21-104q0-52-17-96.5T526 59q-34-32-85.5-50.5T320-10q-14 0-36 .5T236-7q-26 2-53 5t-51 9v526H0zm327-536q57 0 90 29.5t33 83.5q0 33-10.5 54T412 313q-17 13-39 18t-44 5q-14 0-33-3t-27-5V118q8-2 23-4t35-2z"/><glyph unicode="ҍ" horiz-adv-x="600" d="M38 500h110v200h130V500h160v-93H278v-85q24 4 49 5.5t45 1.5q52 0 88-11.5t58.5-32.5q22.5-21 32.5-49.5t10-61.5q0-91-54.5-136T324-7q-57 0-99 2t-77 5v407H38zm240-391q28-6 57-6 48 0 70 16.5t22 51.5q0 65-89 65-35 0-60-7z"/><glyph unicode="Ҏ" horiz-adv-x="600" d="M56 693q42 8 92.5 12.5T249 710q52 0 104.5-8.5t94.5-34q42-25.5 68.5-71T543 478q0-69-25-116t-67-76l64-91-79-58-77 109q-42-9-87-9h-16q-11 0-23 .5t-23.5 1.5q-11.5 1-16.5 2V0H56zm243-215l63-92q17 14 27 36.5t10 57.5q0 33-12 54.5T355.5 569Q336 582 311 587t-51 5q-20 0-38-1.5t-29-3.5V360q4-1 12-2t17-1.5q9-.5 17.5-.5H252q14 0 27 1t26 4l-58 83z"/><glyph unicode="ҏ" horiz-adv-x="600" d="M0 500h170l15-60h4q52 74 168 74 46 0 84.5-14.5t66-45.5q27.5-31 42.5-78t15-113q0-64-17-115.5T499 60q-4-5-8-9l45-53-71-57-48 62q-45-17-101-17-31 0-61 4.5T205 5v-205H75v590H0zm349-282l56-66q9 16 16 37 10 32 10 77 0 66-32 102t-81 36q-38 0-69.5-19T205 328V120q14-11 40.5-17.5T299 96q23 0 43 6l-53 70z"/><glyph unicode="Ґ" horiz-adv-x="600" d="M54 122h92v456H54v122h404v152h110V578H283V122h149V0H54z"/><glyph unicode="ґ" horiz-adv-x="600" d="M58 110h68v280H58v110h371v152h110V300H429v90H260V110h169V0H58z"/><glyph unicode="Ғ" horiz-adv-x="600" d="M551 578H281V387h224v-93H281V0H144v294H48v93h96v313h407z"/><glyph unicode="ғ" horiz-adv-x="600" d="M517 385H264V274h222v-80H264V0H130v194H47v80h83v226h387z"/><glyph unicode="Ҕ" horiz-adv-x="600" d="M194 0H57v700h407V578H194V375q16 6 49.5 14t81.5 8q42 0 81-11.5t69.5-40q30.5-28.5 49-78T543 142q0-129-57-199t-184-70q-27 0-40.5 1t-21.5 3V-5q7-2 23.5-2.5T296-8q51 0 77 35t26 109q0 41-9 68t-25 42.5q-16 15.5-38 22t-47 6.5q-24 0-49-6t-37-12z"/><glyph unicode="ҕ" horiz-adv-x="600" d="M213 0H83v500h398V385H213V259q14 6 46.5 13.5T340 280q44 0 83-13.5t67.5-42.5q28.5-29 45-74T552 42q0-60-11.5-107T502-145q-27-33-70.5-50.5T325-213q-20 0-39 2t-24 3v112q8-1 24.5-1.5T319-98q99 0 99 132 0 63-28.5 97T301 165q-31 0-55-7t-33-11z"/><glyph unicode="Җ" horiz-adv-x="600" d="M235 700h130V403h34l50 297h136l-70-349 53-229h72v-257H530V0h-71l-60 299h-34V0H235v299h-34L141 0H3l82 351-70 349h136l50-297h34z"/><glyph unicode="җ" horiz-adv-x="600" d="M208 207L126 0H0l110 252L4 500h128l76-203h33v203h114V297h28l74 203h128l-99-236 58-149h70v-235H504V0h-44l-72 207h-33V0H241v207z"/><glyph unicode="Ҙ" horiz-adv-x="600" d="M51 235h110V123q3-1 5-2 22-7 46.5-12t53.5-5q24 0 46.5 6t40.5 19q18 13 28.5 33t10.5 48q0 31-12.5 50.5t-33.5 30Q325 301 298.5 305t-53.5 5h-30v107h29q21 0 43.5 4t40.5 14q18 10 30 27.5t12 44.5q0 23-9 39.5t-25 27Q320 584 299 589t-46 5q-47 0-82-10V481H61v190q37 16 95.5 28.5T280 712q44 0 86-8.5t75-29q33-20.5 53-55t20-86.5q0-52-27.5-94T398 377v-5q66-17 102-57t36-112q0-57-23-98t-60.5-67.5Q415 11 366-1q-19-5-38-8v-166H208v164q-34 2-64 9Q89 9 51 27z"/><glyph unicode="ҙ" horiz-adv-x="600" d="M80 457q15 9 38 18t52.5 16.5Q200 499 234 504t71 5q117 0 169-32t52-93q0-17-5-36t-17-36q-12-17-30.5-30T428 264v-4q58-5 87.5-37t29.5-83q0-32-14-59.5T487.5 33Q458 13 413 1q-24-6-53-9v-167H250V-8q-13 1-25 3-38 6-70 16.5T97.5 35Q72 48 56 62l50 96q15-12 36-22.5t45.5-18.5q24.5-8 51-13t52.5-5q53 0 88.5 15t35.5 43q0 26-33.5 36T284 203h-29v91h41q51 0 75.5 16t24.5 39q0 27-28.5 38.5T288 399q-28 0-57-5-22-3-42-8v-86H80z"/><glyph unicode="Қ" horiz-adv-x="600" d="M524 122h76v-257H480V0h-50L258 292h-71V0H50v700h137V414h71l160 286h156L377 362z"/><glyph unicode="қ" horiz-adv-x="600" d="M271 197h-65V0H76v500h130V297h53l165 203h147L372 267l123-157h88v-230H473V0h-40z"/><glyph unicode="Ҝ" horiz-adv-x="600" d="M338 292h-34V172h-93v120h-44V0H30v700h137V414h44v113h93V414h34l110 286h145L458 362 618 0H460z"/><glyph unicode="ҝ" horiz-adv-x="600" d="M327 197h-41V89h-76v108h-48V0H32v500h130V297h48v114h76V297h29l115 203h147L430 263l92-153h67V0H439z"/><glyph unicode="Ҟ" horiz-adv-x="600" d="M320 292h-81V0H102v539H0v104h102v57h137v-57h93V539h-93V414h81l136 286h150L441 362 631 0H470z"/><glyph unicode="ҟ" horiz-adv-x="600" d="M0 540h82v50H0v110h212V540h121v-80H212V301h30l164 199h153L357 272l131-162h93V0H419L247 207h-35V0H82v460H0z"/><glyph unicode="Ҡ" horiz-adv-x="600" d="M290 292h-35V0H118v578H-3v122h258V414h35l146 286h156L411 360 612 0H443z"/><glyph unicode="ҡ" horiz-adv-x="600" d="M315 197h-45V0H140v385H0v115h270V297h33l145 203h147L416 267l111-157h80V0H457z"/><glyph unicode="Ң" horiz-adv-x="600" d="M520 122h76v-257H476V0h-93v293H187V0H50v700h137V415h196v285h137z"/><glyph unicode="ң" horiz-adv-x="600" d="M503 115h79v-235H472V0h-99v197H170V0H40v500h130V312h203v188h130z"/><glyph unicode="Ҥ" horiz-adv-x="600" d="M600 578H440V0H303v293H137V0H0v700h137V415h166v285h297z"/><glyph unicode="ҥ" horiz-adv-x="600" d="M598 385H430V0H300v197H132V0H2v500h130V312h168v188h298z"/><glyph unicode="Ҧ" horiz-adv-x="600" d="M366 0H236v578H130V0H0v700h366V381q11 5 31 10.5t43 5.5q34 0 66.5-12.5T564 335q20-29 30-75.5T604 144q0-71-9.5-124T557-69q-22-29-53-45t-77-16q-11 0-24.5 2t-21.5 5v106q13-5 32-5 15 0 28 10t20 30q7 20 10 51.5t3 69.5q0 78-18 113-9 17-21 23.5t-23 6.5q-14 0-26-4t-20-8z"/><glyph unicode="ҧ" horiz-adv-x="600" d="M353 0H223v385h-78V0H15v500h338V259q5 5 23 13t41 8q36 0 66.5-10.5T537 233q23-26 36-69.5T586 54q0-68-15-118t-42.5-83Q501-180 463-196.5T379-213q-28 0-41.5 1.5T316-208v112q8-1 24.5-1.5T373-98q33 0 56 33t23 99q0 71-13 101t-46 30q-15 0-24-4t-17-10z"/><glyph unicode="Ҩ" horiz-adv-x="600" d="M226 603q-51 0-77.5-60T122 355q0-63 10-111.5t26.5-81q16.5-32.5 39-49T244 97q23 0 36 8-14 14-31.5 40.5T217 208q-13 33-20.5 73.5T189 367q0 79 15.5 137.5t43 97.5q27.5 39 65.5 58.5t83 19.5q49 0 84.5-21t58.5-58.5q23-37.5 34.5-89T585 398q0-57-10-105.5T550 206q-15-38-33.5-64.5T482 101q5-1 11-2.5t11-1.5q16 0 34 7t31 20l35-97q-42-41-111-41-30 0-58.5 4T372 19Q346 2 317-6t-74-8Q128-14 63.5 80T-1 352q0 185 54 273.5T226 714zm86-232q0-37 6-72.5t15-59.5q11-28 27.5-53.5T391 147q16 17 29 41t24 59q18 57 18 145 0 38-3 70.5t-10.5 56q-7.5 23.5-21 37T393 569q-38 0-59.5-49T312 371z"/><glyph unicode="ҩ" horiz-adv-x="600" d="M220 404q-56-4-76-39.5T124 254q0-72 30.5-115T234 96q4 0 11 .5t14.5 1.5q7.5 1 14 2.5t9.5 4.5q-27 20-47 63t-20 100q0 39 7 80t26.5 74.5Q269 456 305 478t93 22q55 0 89.5-17t53.5-45.5q19-28.5 25.5-66T573 292q0-34-7.5-65T546 170q-12-26-28.5-45.5T483 94q13-6 30-6 35 0 55 20l24-93q-10-6-19-11t-20.5-9Q541-9 526-11.5T489-14q-41 0-67 11.5T375 28Q343 5 307.5-4.5T228-14q-53 0-93.5 19t-68 53.5Q39 93 24.5 142T10 250q0 58 8.5 105T50 436.5Q73 471 114 491t106 23zm112-136q0-45 12.5-81t42.5-60q32 21 47 62.5t15 95.5q0 45-11.5 75T394 390q-22 0-34.5-10T341 353.5q-6-16.5-7.5-38.5t-1.5-47z"/><glyph unicode="Ҫ" horiz-adv-x="600" d="M444 235h110V35q-32-23-82-36-22-6-44-9v-165H308V-9q-32 5-63 14-59 20-104 63.5t-72 113Q42 251 42 350q0 103 30.5 172.5t78.5 112q48 42.5 107 61T374 714q60 0 101.5-10t68.5-23V473H434v114q-31 5-64 5-39 0-72.5-14.5T239 533q-25-30-39-75.5T186 350q0-54 13-98.5t38-76.5q25-32 61-49.5t82-17.5q33 0 64 6z"/><glyph unicode="ҫ" horiz-adv-x="600" d="M546 48q-41-31-96-47-30-8-61-11v-165H279v165q-32 5-60 15-50 19-84.5 53.5T82 142q-18 49-18 108 0 63 21 112t58.5 83q37.5 34 88.5 51.5T343 514q56 0 105-13t75-25V300H413v92q-31 7-62 7-28 0-55.5-8.5t-49-27Q225 345 211.5 317T198 250q0-32 11-59t31-47q20-20 49.5-31.5T355 101q57 0 93.5 16t54.5 28z"/><glyph unicode="Ҭ" horiz-adv-x="600" d="M232 590h-96V469H26v231h548V469H464v121h-95V122h113v-257H362V0H232z"/><glyph unicode="ҭ" horiz-adv-x="600" d="M103 110h130v275h-79v-85H43v200h514V300H447v85h-80V110h144v-230H401V0H103z"/><glyph unicode="Ү" horiz-adv-x="600" d="M232 258L6 700h163l135-289h5l138 289h147L369 259V0H232z"/><glyph unicode="ү" horiz-adv-x="600" d="M27 500h149l131-326h8l119 326h138L371-1v-199H241V-1z"/><glyph unicode="Ұ" horiz-adv-x="600" d="M77 294h136L6 700h163l135-289h5l138 289h147L387 294h137v-91H369V0H232v203H77z"/><glyph unicode="ұ" horiz-adv-x="600" d="M121 0h119L27 500h149l131-326h8l119 326h138L371 0h120v-80H371v-120H241v120H121z"/><glyph unicode="Ҳ" horiz-adv-x="600" d="M219 359L21 700h160l102-190 23-51 22 51 104 190h155L386 358l136-236h76v-257H478V0h-45L326 200l-27 54-26-54L161 0H6z"/><glyph unicode="ҳ" horiz-adv-x="600" d="M211 258L37 500h155l113-167 118 167h141L393 260l101-145h90v-235H474V0h-51L296 184 167 0H25z"/><glyph unicode="Ҵ" horiz-adv-x="600" d="M100 578H0v122h337V578H237V122h149v578h137V122h77v-257H480V0H100z"/><glyph unicode="ҵ" horiz-adv-x="600" d="M600-120H490V0H110v385H0v115h344V385H240V115h155v385h130V115h75z"/><glyph unicode="Ҷ" horiz-adv-x="600" d="M522 122h76v-257H478V0h-93v282q-26-15-69.5-27.5T212 242q-42 0-76.5 10.5t-60 34Q50 310 36 346.5T22 435v265h137V478q0-60 23.5-89.5T260 359q38 0 71.5 8.5T385 393v307h137z"/><glyph unicode="ҷ" horiz-adv-x="600" d="M170 500V386q0-62 20-90t79-28q11 0 26.5 2t31 5q15.5 3 28.5 7.5t20 9.5v208h130V115h79v-235H474V0h-99v196q-8-5-24-11.5T313.5 172q-21.5-6-46.5-10t-51-4q-37 0-69 8t-56 28q-24 20-37.5 53T40 330v170z"/><glyph unicode="Ҹ" horiz-adv-x="600" d="M256 243q-6-1-12-1h-13q-88 0-137.5 48.5T44 435v265h137V478q0-27 3-47.5t11-35q8-14.5 23-23.5t38-13v118h93V365q25 5 40.5 11.5T419 393v307h137V0H419v282q-13-8-28-15t-42-13V122h-93z"/><glyph unicode="ҹ" horiz-adv-x="600" d="M190 500V386q0-62 20-90 15-21 51-27v117h76V273q5 1 9 2 16 3 29 7.5t20 9.5v208h130V0H395v196q-8-5-24-12-15-6-34-11V59h-76v99h-25q-37 0-69 8t-56 28q-24 20-37.5 53T60 330v170z"/><glyph unicode="Һ" horiz-adv-x="600" d="M413 0v222q0 60-23.5 89.5T312 341q-38 0-71.5-8.5T187 307V0H50v700h137V418q26 15 69.5 27.5T360 458q42 0 76.5-10.5t60-34q25.5-23.5 39.5-60t14-88.5V0z"/><glyph unicode="һ" horiz-adv-x="600" d="M0 700h202V444h4q24 32 64 51t94 19q38 0 70-10t55-33q23-23 36-62.5t13-97.5V0H408v284q0 61-26 88t-68 27q-37 0-68-22.5T202 319V0H72v590H0z"/><glyph unicode="Ҽ" horiz-adv-x="600" d="M299 293q2-37 6.5-73.5T326 155q12-21 31.5-34t54.5-13q45 0 78 15.5t58 33.5l35-116Q539 13 495-.5T390-14q-59 0-108.5 24.5T203 88q-21 39-30 87.5T164 293h-6q-78 0-122 36.5T-8 429v9q0 26 7.5 47.5T16 521h109q-8-12-14-28.5t-6-30.5v-7q0-20 14.5-33.5T164 408q0 64 12 120t39.5 97.5q27.5 41.5 71.5 65T393 714q113 0 165-76 28-41 38-90t10-119q0-14-1-32.5t-2.5-37.5q-1.5-19-4-36.5T594 293zm173 115q2 11 3.5 25t1.5 24q0 31-4.5 57t-15 45q-10.5 19-27 29.5T391 599q-29 0-47.5-14.5t-29-40Q304 519 300.5 484t-1.5-76z"/><glyph unicode="ҽ" horiz-adv-x="600" d="M572 43q-30-24-81.5-40.5T381-14q-55 0-95 15t-66.5 43.5Q193 73 178 114.5T159 208h-7q-67 0-104.5 35T10 344q0 32 7.5 49T39 427h104q-14-12-24.5-28.5T108 358q0-20 11-34t43-14q14 102 75 153t161 51q38 0 72.5-10t60.5-33q26-23 41.5-62t15.5-97q0-21-2.5-45t-7.5-50H289q3-63 27-95t90-32q41 0 73.5 12.5T529 128zM390 410q-47 0-69.5-30.5T293 298h174q0 4 .5 8t.5 8q0 46-18 71t-60 25z"/><glyph unicode="Ҿ" horiz-adv-x="600" d="M299 293q2-37 6.5-73.5T326 155q12-21 31.5-34t54.5-13q45 0 78 15.5t58 33.5l35-116q-44-28-88-41-20-6-44-10v-165H331V-7q-26 6-50 17-49 25-78 78-21 39-30 87.5T164 293h-6q-78 0-122 36.5T-8 429v9q0 26 7.5 47.5T16 521h109q-8-12-14-28.5t-6-30.5v-7q0-20 14.5-33.5T164 408q0 64 12 120t39.5 97.5q27.5 41.5 71.5 65T393 714q113 0 165-76 28-41 38-90t10-119q0-14-1-32.5t-2.5-37.5q-1.5-19-4-36.5T594 293zm173 115q2 11 3.5 25t1.5 24q0 31-4.5 57t-15 45q-10.5 19-27 29.5T391 599q-29 0-47.5-14.5t-29-40Q304 519 300.5 484t-1.5-76z"/><glyph unicode="ҿ" horiz-adv-x="600" d="M572 43q-30-24-82-41-26-8-54-12v-165H326v165q-22 4-40 11-40 15-66.5 43.5t-41.5 70Q163 156 159 208h-7q-67 0-104.5 35T10 344q0 32 7.5 49T39 427h104q-14-12-24.5-28.5T108 358q0-20 11-34t43-14q14 102 75 153t161 51q38 0 72.5-10t60.5-33q26-23 41.5-62t15.5-97q0-21-2.5-45t-7.5-50H289q3-63 27-95t90-32q41 0 73.5 12.5T529 128zM390 410q-47 0-69.5-30.5T293 298h174q0 4 .5 8t.5 8q0 46-18 71t-60 25z"/><glyph unicode="Ӏ" horiz-adv-x="600" d="M54 122h177v456H54v122h492V578H368V122h178V0H54z"/><glyph unicode="Ӄ" horiz-adv-x="600" d="M415 105q-2 86-44 136.5T252 292h-74V0H41v700h137V414h71l160 286h156L381 391q51-11 84.5-38.5T519 286q20-39 28-86t8-96q0-84-19.5-143t-52-96.5Q451-173 407.5-190T316-207q-14 0-32.5 2t-27.5 4v111h15q31 0 58 10t46 33q19 23 29.5 60t10.5 92z"/><glyph unicode="ӄ" horiz-adv-x="600" d="M201 0H71v500h130V283h43l175 217h146L369 270q46-9 80.5-29.5t56.5-49q22-28.5 33-63.5t11-73V34q0-52-16.5-96.5t-47.5-77q-31-32.5-75.5-51T310-209q-17 0-30 2.5t-23 4.5v110q7-1 18-1.5t19-.5q60 0 93 37.5T420 40q0 43-16 73t-42.5 49q-26.5 19-60 27t-69.5 8h-31z"/><glyph unicode="Ӆ" horiz-adv-x="600" d="M394 578H272q-5-94-10.5-172T248 265.5q-8-62.5-21.5-111T191 71q-29-47-65.5-62.5T57-7Q34-7 18.5-3.5T-12 7v118q21-2 27-3t12-1q16 0 32.5 8T87 156q14 22 24 64.5T128 329q7 66 11 157.5t6 213.5h386V115h93V84l-96-214h-94L479 0h-85z"/><glyph unicode="ӆ" horiz-adv-x="600" d="M376 385H253q-6-71-15-141t-27.5-125.5q-18.5-55.5-49-90T83-6Q25-6 1 9l16 108q16-6 30-6 20 0 36 17t27 61q11 44 18.5 119.5T139 500h367V115h95V84l-96-214h-94L456 0h-80z"/><glyph unicode="Ӈ" horiz-adv-x="600" d="M550-21q0-91-36-139t-114-48q-14 0-30.5 1.5T336-201v109q4 0 7.5-.5t7.5-.5q21 0 33.5 6t19 18q6.5 12 8 29.5T413 0v293H187V0H50v700h137V415h226v285h137z"/><glyph unicode="ӈ" horiz-adv-x="600" d="M406 197H193V0H63v500h130V312h213v188h130V-21q0-91-36-139t-115-48q-30 0-64 7v109q4 0 7.5-.5t7.5-.5q43 0 56.5 24.5T406 0z"/><glyph unicode="Ӊ" horiz-adv-x="600" d="M377 293H160V0H23v700h137V415h217v285h137V115h93V84l-96-214h-94L462 0h-85z"/><glyph unicode="ӊ" horiz-adv-x="600" d="M370 197H167V0H37v500h130V312h203v188h130V115h101V84l-96-214h-94L456 0h-86z"/><glyph unicode="Ӌ" horiz-adv-x="600" d="M187 700V478q0-60 23.5-89.5T288 359q38 0 71.5 8.5T413 393v307h137V0H447v-135H327v257h86v160q-26-15-69.5-27.5T240 242q-42 0-76.5 10.5t-60 34Q78 310 64 346.5T50 435v265z"/><glyph unicode="ӌ" horiz-adv-x="600" d="M190 500V386q0-62 20-90t79-28q11 0 26.5 2t31 5q15.5 3 28.5 7.5t20 9.5v208h130V0H391v-120H281v221h114v95q-8-5-24-11.5T333.5 172q-21.5-6-46.5-10t-51-4q-37 0-69 8t-56 28q-24 20-37.5 53T60 330v170z"/><glyph unicode="Ӎ" horiz-adv-x="600" d="M395 373l5 109h-6L282 299h-24L141 482h-5l6-98V0H12v700h139l120-194h4l119 194h138V115h93V84l-96-214h-94L480 0h-85z"/><glyph unicode="ӎ" horiz-adv-x="600" d="M10 500h135l113-171h4l105 171h136V115h96V84l-96-214h-94L454 0h-76v229l3 104h-5L267 152h-27L124 333h-6l8-103V0H10z"/><glyph unicode="ӏ" horiz-adv-x="600" d="M100 700h265V110h135V0H235v590H100z"/><glyph unicode="Ӑ" horiz-adv-x="600" d="M400 155H191L143 0H6l226 700h137L594 0H450zM223 265h150l-71 234h-9zm10 619q4-32 23.5-46t50.5-14q67 0 74 59l111-17q-11-63-57.5-92T306 745q-41 0-75 6t-59.5 19.5Q146 784 129.5 807T109 864z"/><glyph unicode="ӑ" horiz-adv-x="600" d="M90 466q40 18 92.5 31T307 510q52 0 88.5-12.5t59-35.5q22.5-23 32.5-55t10-72q0-51-3.5-87t-3.5-64q0-21 2-47 2-14 3-27h65V0H394l-13 68h-5q-20-31-57-53.5T219-8q-75 0-119 40T56 138q0 42 15.5 72.5t45 50q29.5 19.5 71 29T280 299q18 0 38-2t49-4q2 10 2 20v19q0 38-22 54.5T282 403q-51 0-92-13t-69-26zM261 99q48 0 72 17.5t35 37.5v60q-10 2-30 4.5t-43 2.5q-19 0-38-3.5t-34-11q-15-7.5-24-19.5t-9-29q0-28 16.5-43.5T261 99zm-19 605q7-39 23.5-55t42.5-16q28 0 44.5 16t22.5 54l99-25q-12-65-59-96.5T305 550q-31 0-60 7t-52 22.5Q170 595 154 619t-22 59z"/><glyph unicode="Ӓ" horiz-adv-x="600" d="M400 155H191L143 0H6l226 700h137L594 0H450zM223 265h150l-71 234h-9zM98 805q0 27 19 44t61 17q42 0 61-17t19-44q0-28-19-44t-61-16q-42 0-61 16t-19 44zm246 0q0 27 19 44t61 17q42 0 61-17t19-44q0-28-19-44t-61-16q-42 0-61 16t-19 44z"/><glyph unicode="ӓ" horiz-adv-x="600" d="M90 466q40 18 92.5 31T307 510q52 0 88.5-12.5t59-35.5q22.5-23 32.5-55t10-72q0-51-3.5-87t-3.5-64q0-21 2-47 2-14 3-27h65V0H394l-13 68h-5q-20-31-57-53.5T219-8q-75 0-119 40T56 138q0 42 15.5 72.5t45 50q29.5 19.5 71 29T280 299q18 0 38-2t49-4q2 10 2 20v19q0 38-22 54.5T282 403q-51 0-92-13t-69-26zM261 99q48 0 72 17.5t35 37.5v60q-10 2-30 4.5t-43 2.5q-19 0-38-3.5t-34-11q-15-7.5-24-19.5t-9-29q0-28 16.5-43.5T261 99zM88 626q0 34 20.5 54.5T164 701q34 0 54-20.5t20-54.5q0-32-20-52.5T164 553q-35 0-55.5 20.5T88 626zm258 0q0 34 20 54.5t54 20.5q34 0 55-20.5t21-54.5q0-32-21-52.5T420 553q-34 0-54 20.5T346 626z"/><glyph unicode="Ӕ" horiz-adv-x="600" d="M296 480l-70-204h74v204zm4-312H185L123 0H-2l270 700h331V579H420V416h161V293H420V122h182V0H300z"/><glyph unicode="ӕ" horiz-adv-x="600" d="M179 100q41 0 52 35v90q-5 1-9 1.5t-9 .5q-29-1-48.5-15.5T145 158q0-58 34-58zm78-38q-17-34-44.5-52T140-8Q114-8 91 3T51 33.5Q34 53 24.5 80T15 140q0 41 13 71t37 50q24 20 57 30t72 10h15q8 0 15-1 1 8 1 16v15q0 42-15 56.5T169 402q-9 0-22-2.5t-26.5-6.5q-13.5-4-27-10T70 371l-33 96q14 10 33 18.5t41 13.5q22 5 44.5 8t43.5 3q34 0 65-12.5t45-40.5q35 57 103 57 29 0 57-10t50.5-32.5Q542 449 556 412t14-90q0-29-3-56.5t-7-50.5H349q1-68 22.5-95T428 93q12 0 26 2t27 5.5q13 3.5 24 8t17 8.5l36-86q-11-9-27.5-16.5T494 1q-20-6-43-9.5T406-12q-48 0-86.5 18T261 62zm152 348q-28 0-42.5-28T350 293h101q0 5 .5 12t.5 12q0 45-10.5 69T409 410z"/><glyph unicode="Ӗ" horiz-adv-x="600" d="M70 700h459V578H207V415h297V293H207V122h327V0H70zm163 184q4-32 23.5-46t50.5-14q67 0 74 59l111-17q-11-63-57.5-92T306 745q-41 0-75 6t-59.5 19.5Q146 784 129.5 807T109 864z"/><glyph unicode="ӗ" horiz-adv-x="600" d="M534 53q-13-12-33.5-23.5T452.5 8Q425-2 392-8t-70-6q-64 0-114.5 18T122 56.5q-35 34.5-53.5 83T50 250q0 66 21 115.5t57.5 82.5q36.5 33 85.5 49.5T320 514q38 0 78.5-10t74.5-34.5q34-24.5 55.5-65.5T550 300q0-43-10-93H180q1-32 13.5-54t33-36q20.5-14 47-20.5T330 90q60 0 98.5 14t62.5 34zM318 410q-26 0-49-7t-41.5-20.5Q209 369 197 349t-14-45h246q0 49-27.5 77.5T318 410zm-66 294q7-39 23.5-55t42.5-16q28 0 44.5 16t22.5 54l99-25q-12-65-59-96.5T315 550q-31 0-60 7t-52 22.5Q180 595 164 619t-22 59z"/><glyph unicode="Ә" horiz-adv-x="600" d="M175 296q-3-20-3-42 0-31 7-59t22-49.5q15-21.5 37-34T290 99q63 0 94.5 50T416 296zm242 113q-2 40-11.5 73.5t-28.5 58q-19 24.5-48.5 38T258 592q-47 0-83-13t-65-27L82 664q31 20 84 35t115 15q65 0 112.5-19t83.5-62q77-91 76-283 0-85-16-152.5T488 83q-33-47-84.5-72T280-14q-65 0-111 22T94 70q-29 40-42.5 96T38 290q0 14 1 31.5t3 34.5q2 17 3.5 31.5T49 409z"/><glyph unicode="ә" horiz-adv-x="600" d="M68 457q45 29 103.5 43T287 514q57 0 104.5-17.5T474 445q35-34 54.5-83T548 250q0-63-20-112t-55-83q-35-34-82-51.5T289-14q-41 0-83 13t-76 41q-34 28-56 71.5T52 215q0 28 3.5 47t5.5 30h360q-10 60-51 89t-107 29q-41 0-80.5-11T114 369zm105-246q-2-25 5.5-47t22.5-38.5q15-16.5 37.5-26T290 90q57 0 92 33.5t36 87.5z"/><glyph unicode="Ӛ" horiz-adv-x="600" d="M175 296q-3-20-3-42 0-31 7-59t22-49.5q15-21.5 37-34T290 99q63 0 94.5 50T416 296zm242 113q-2 40-11.5 73.5t-28.5 58q-19 24.5-48.5 38T258 592q-47 0-83-13t-65-27L82 664q31 20 84 35t115 15q65 0 112.5-19t83.5-62q77-91 76-283 0-85-16-152.5T488 83q-33-47-84.5-72T280-14q-65 0-111 22T94 70q-29 40-42.5 96T38 290q0 14 1 31.5t3 34.5q2 17 3.5 31.5T49 409zM86 805q0 27 19 44t61 17q42 0 61-17t19-44q0-28-19-44t-61-16q-42 0-61 16t-19 44zm246 0q0 27 19 44t61 17q42 0 61-17t19-44q0-28-19-44t-61-16q-42 0-61 16t-19 44z"/><glyph unicode="ӛ" horiz-adv-x="600" d="M68 457q45 29 103.5 43T287 514q57 0 104.5-17.5T474 445q35-34 54.5-83T548 250q0-63-20-112t-55-83q-35-34-82-51.5T289-14q-41 0-83 13t-76 41q-34 28-56 71.5T52 215q0 28 3.5 47t5.5 30h360q-10 60-51 89t-107 29q-41 0-80.5-11T114 369zm105-246q-2-25 5.5-47t22.5-38.5q15-16.5 37.5-26T290 90q57 0 92 33.5t36 87.5zM86 626q0 34 20.5 54.5T162 701q34 0 54-20.5t20-54.5q0-32-20-52.5T162 553q-35 0-55.5 20.5T86 626zm258 0q0 34 20 54.5t54 20.5q34 0 55-20.5t21-54.5q0-32-21-52.5T418 553q-34 0-54 20.5T344 626z"/><glyph unicode="Ӝ" horiz-adv-x="600" d="M235 700h130V403h34l50 297h136l-70-349L597 0H459l-60 299h-34V0H235v299h-34L141 0H3l82 351-70 349h136l50-297h34zM97 805q0 27 19 44t61 17q42 0 61-17t19-44q0-28-19-44t-61-16q-42 0-61 16t-19 44zm246 0q0 27 19 44t61 17q42 0 61-17t19-44q0-28-19-44t-61-16q-42 0-61 16t-19 44z"/><glyph unicode="ӝ" horiz-adv-x="600" d="M213 207L131 0H5l110 252L9 500h128l76-203h33v203h114V297h28l74 203h128l-99-236L595 0H465l-72 207h-33V0H246v207zM96 626q0 34 20.5 54.5T172 701q34 0 54-20.5t20-54.5q0-32-20-52.5T172 553q-35 0-55.5 20.5T96 626zm258 0q0 34 20 54.5t54 20.5q34 0 55-20.5t21-54.5q0-32-21-52.5T428 553q-34 0-54 20.5T354 626z"/><glyph unicode="Ӟ" horiz-adv-x="600" d="M51 235h110V123q3-1 5-2 22-7 46.5-12t53.5-5q24 0 46.5 6t40.5 19q18 13 28.5 33t10.5 48q0 31-12.5 50.5t-33.5 30Q325 301 298.5 305t-53.5 5h-30v107h29q21 0 43.5 4t40.5 14q18 10 30 27.5t12 44.5q0 23-9 39.5t-25 27Q320 584 299 589t-46 5q-47 0-82-10V481H61v190q37 16 95.5 28.5T280 712q44 0 86-8.5t75-29q33-20.5 53-55t20-86.5q0-52-27.5-94T398 377v-5q66-17 102-57t36-112q0-57-23-98t-60.5-67.5Q415 11 366-1.5T266-14q-66 0-121.5 11.5T51 27zm23 570q0 27 19 44t61 17q42 0 61-17t19-44q0-28-19-44t-61-16q-42 0-61 16t-19 44zm246 0q0 27 19 44t61 17q42 0 61-17t19-44q0-28-19-44t-61-16q-42 0-61 16t-19 44z"/><glyph unicode="ӟ" horiz-adv-x="600" d="M80 457q15 9 38 18t52.5 16.5Q200 499 234 504t71 5q117 0 169-32t52-93q0-17-5-36t-17-36q-12-17-30.5-30T428 264v-4q58-5 87.5-37t29.5-83q0-32-14-59.5T487.5 33Q458 13 413 1T305-11q-42 0-80 6t-70 16.5Q123 22 97.5 35T56 62l50 96q15-12 36-22.5t45.5-18.5q24.5-8 51-13t52.5-5q53 0 88.5 15t35.5 43q0 26-33.5 36T284 203h-29v91h41q51 0 75.5 16t24.5 39q0 27-28.5 38.5T288 399q-28 0-57-5-22-3-42-8v-86H80zm13 169q0 34 20.5 54.5T169 701q34 0 54-20.5t20-54.5q0-32-20-52.5T169 553q-35 0-55.5 20.5T93 626zm258 0q0 34 20 54.5t54 20.5q34 0 55-20.5t21-54.5q0-32-21-52.5T425 553q-34 0-54 20.5T351 626z"/><glyph unicode="Ӡ" horiz-adv-x="600" d="M58 241h110V126q10-4 24.5-7t30-5.5q15.5-2.5 30-4T278 108q30 0 56 6.5t45.5 20q19.5 13.5 30.5 34t11 48.5q0 55-42.5 79T258 320h-37v78l144 185H168V481H58v219h465v-98L368 411q42 0 78-12t61.5-36.5q25.5-24.5 40-61T562 217q0-50-21-92.5t-59-73q-38-30.5-90-48T277-14q-30 0-61.5 4t-61 11Q125 8 100 16.5T58 33z"/><glyph unicode="ӡ" horiz-adv-x="600" d="M78 32h110V-80l20-8q20-7 40.5-10.5T293-102q59 0 94 28.5T422 7q0 33-11.5 53.5t-33 32Q356 104 325.5 108t-67.5 4h-22v65l137 213H188V290H78v210h443v-90L376 201q81-8 128.5-51T552 23q0-55-19.5-98.5t-55-74Q442-180 392-196t-111-16q-22 0-49 4.5t-54 12q-27 7.5-53 18T78-154z"/><glyph unicode="Ӣ" horiz-adv-x="600" d="M413 370l8 91h-5l-41-94L177 0H50v700h137V337l-10-94h6l43 97 198 360h126V0H413zM129 856h343v-89H129z"/><glyph unicode="ӣ" horiz-adv-x="600" d="M405 228l5 71h-3L166 0H64v500h130V262l-6-68h4l241 306h102V0H405zM138 658h323v-92H138z"/><glyph unicode="Ӥ" horiz-adv-x="600" d="M413 370l8 91h-5l-41-94L177 0H50v700h137V337l-10-94h6l43 97 198 360h126V0H413zM97 805q0 27 19 44t61 17q42 0 61-17t19-44q0-28-19-44t-61-16q-42 0-61 16t-19 44zm246 0q0 27 19 44t61 17q42 0 61-17t19-44q0-28-19-44t-61-16q-42 0-61 16t-19 44z"/><glyph unicode="ӥ" horiz-adv-x="600" d="M405 228l5 71h-3L166 0H64v500h130V262l-6-68h4l241 306h102V0H405zM96 626q0 34 20.5 54.5T172 701q34 0 54-20.5t20-54.5q0-32-20-52.5T172 553q-35 0-55.5 20.5T96 626zm258 0q0 34 20 54.5t54 20.5q34 0 55-20.5t21-54.5q0-32-21-52.5T428 553q-34 0-54 20.5T354 626z"/><glyph unicode="Ӧ" horiz-adv-x="600" d="M36 350q0 85 16 153t49 114.5q33 46.5 82.5 71.5T300 714q72 0 122-27t81.5-75q31.5-48 46-115T564 350q0-171-65.5-267.5T300-14q-72 0-122.5 27t-82 75Q64 136 50 203T36 350zm144 0q0-51 4.5-95t17-76.5q12.5-32.5 36-51.5t62.5-19q35 0 58 14.5t37 44.5q14 30 19.5 75.5T420 350q0 49-3.5 93t-16 77Q388 553 364 572.5T300 592q-70 0-95-61t-25-181zM97 805q0 27 19 44t61 17q42 0 61-17t19-44q0-28-19-44t-61-16q-42 0-61 16t-19 44zm246 0q0 27 19 44t61 17q42 0 61-17t19-44q0-28-19-44t-61-16q-42 0-61 16t-19 44z"/><glyph unicode="ӧ" horiz-adv-x="600" d="M35 250q0 63 19 112t54 83q35 34 83.5 51.5T300 514q63 0 112.5-19t83.5-53.5q34-34.5 51.5-83.5T565 250q0-63-19-112t-54-83q-35-34-83.5-51.5T300-14q-63 0-112.5 19T104 58.5Q70 93 52.5 142T35 250zm134 0q0-33 9-61t26-49q17-21 41-32.5T300 96q58 0 94.5 37T431 250q0 69-34 111.5T300 404q-28 0-52-8.5T206.5 368Q189 349 179 320t-10-70zM96 626q0 34 20.5 54.5T172 701q34 0 54-20.5t20-54.5q0-32-20-52.5T172 553q-35 0-55.5 20.5T96 626zm258 0q0 34 20 54.5t54 20.5q34 0 55-20.5t21-54.5q0-32-21-52.5T428 553q-34 0-54 20.5T354 626z"/><glyph unicode="Ө" horiz-adv-x="600" d="M36 350q0 85 16 153t49 114.5q33 46.5 82.5 71.5T300 714q72 0 122-27t81.5-75q31.5-48 46-115T564 350q0-171-65.5-267.5T300-14q-72 0-122.5 27t-82 75Q64 136 50 203T36 350zm264-242q62 0 87.5 46T418 297H181q2-41 8-75.5t19.5-60q13.5-25.5 36-39.5t55.5-14zm0 484q-62 0-88-46.5T181 407h238q-2 39-8 73t-19 58.5q-13 24.5-35.5 39T300 592z"/><glyph unicode="ө" horiz-adv-x="600" d="M35 250q0 63 19 112t54 83q35 34 83.5 51.5T300 514q63 0 112.5-19t83.5-53.5q34-34.5 51.5-83.5T565 250q0-63-19-112t-54-83q-35-34-83.5-51.5T300-14q-63 0-112.5 19T104 58.5Q70 93 52.5 142T35 250zm265 154q-50 0-85-27t-44-88h257q-9 53-41.5 84T300 404zm0-308q49 0 83 26.5t44 84.5H173q11-50 43.5-80.5T300 96z"/><glyph unicode="Ӫ" horiz-adv-x="600" d="M36 350q0 85 16 153t49 114.5q33 46.5 82.5 71.5T300 714q72 0 122-27t81.5-75q31.5-48 46-115T564 350q0-171-65.5-267.5T300-14q-72 0-122.5 27t-82 75Q64 136 50 203T36 350zm264-242q62 0 87.5 46T418 297H181q2-41 8-75.5t19.5-60q13.5-25.5 36-39.5t55.5-14zm0 484q-62 0-88-46.5T181 407h238q-2 39-8 73t-19 58.5q-13 24.5-35.5 39T300 592zM97 805q0 27 19 44t61 17q42 0 61-17t19-44q0-28-19-44t-61-16q-42 0-61 16t-19 44zm246 0q0 27 19 44t61 17q42 0 61-17t19-44q0-28-19-44t-61-16q-42 0-61 16t-19 44z"/><glyph unicode="ӫ" horiz-adv-x="600" d="M35 250q0 63 19 112t54 83q35 34 83.5 51.5T300 514q63 0 112.5-19t83.5-53.5q34-34.5 51.5-83.5T565 250q0-63-19-112t-54-83q-35-34-83.5-51.5T300-14q-63 0-112.5 19T104 58.5Q70 93 52.5 142T35 250zm265 154q-50 0-85-27t-44-88h257q-9 53-41.5 84T300 404zm0-308q49 0 83 26.5t44 84.5H173q11-50 43.5-80.5T300 96zM96 626q0 34 20.5 54.5T172 701q34 0 54-20.5t20-54.5q0-32-20-52.5T172 553q-35 0-55.5 20.5T96 626zm258 0q0 34 20 54.5t54 20.5q34 0 55-20.5t21-54.5q0-32-21-52.5T428 553q-34 0-54 20.5T354 626z"/><glyph unicode="Ӭ" horiz-adv-x="600" d="M46 235h110V112q35-8 74-8 40 0 74 12.5t60 38.5q24 24 39 60.5t19 84.5H212v110h209q-5 42-20 77.5T362 546q-28 26-57.5 38T230 596q-21 0-35.5-4t-28.5-8V473H56v199q32 18 83.5 30T243 714q60 0 112.5-17.5T450 641q48-43 78-114t30-177q0-100-29-170.5T449 64Q403 22 344 4T222-14q-57 0-103 11T46 19zm7 570q0 27 19 44t61 17q42 0 61-17t19-44q0-28-19-44t-61-16q-42 0-61 16t-19 44zm246 0q0 27 19 44t61 17q42 0 61-17t19-44q0-28-19-44t-61-16q-42 0-61 16t-19 44z"/><glyph unicode="ӭ" horiz-adv-x="600" d="M224 302h196q-5 50-47.5 76T264 404q-54 0-97-16l-6-2v-86H51v148q16 11 38 23t51 21.5q29 9.5 65.5 15.5t83.5 6q55 0 103-17t83.5-50q35.5-33 55.5-82.5T551 250q0-66-20.5-115.5t-57-82.5Q437 19 387 2.5T279-14q-86 0-145 21T42 54l55 93q26-20 65.5-35.5T258 96q32 0 60.5 6t50.5 18.5q22 12.5 36 32.5t16 49H224zM70 626q0 34 20.5 54.5T146 701q34 0 54-20.5t20-54.5q0-32-20-52.5T146 553q-35 0-55.5 20.5T70 626zm258 0q0 34 20 54.5t54 20.5q34 0 55-20.5t21-54.5q0-32-21-52.5T402 553q-34 0-54 20.5T328 626z"/><glyph unicode="Ӯ" horiz-adv-x="600" d="M297 332h48l99 368h141L425 183q-14-44-30.5-79.5t-40-60Q331 19 298 6T218-7q-29 0-52 5t-50 21l35 111q18-9 31.5-12t29.5-3q22 0 37 6t24.5 18q9.5 12 16.5 30t13 41H202L6 700h147zM137 856h343v-89H137z"/><glyph unicode="ӯ" horiz-adv-x="600" d="M301 141h38l97 359h134L428 49Q409-7 391-53.5T349-134q-24-34-56.5-52.5T213-205q-23 0-43.5 6T132-184.5q-17 8.5-30 18T81-149l67 89q13-11 31-20.5t34-9.5q30 0 47.5 21T294 0h-71L15 500h141zM144 658h323v-92H144z"/><glyph unicode="Ӱ" horiz-adv-x="600" d="M297 332h48l99 368h141L425 183q-14-44-30.5-79.5t-40-60Q331 19 298 6T218-7q-29 0-52 5t-50 21l35 111q18-9 31.5-12t29.5-3q22 0 37 6t24.5 18q9.5 12 16.5 30t13 41H202L6 700h147zM99 805q0 27 19 44t61 17q42 0 61-17t19-44q0-28-19-44t-61-16q-42 0-61 16t-19 44zm246 0q0 27 19 44t61 17q42 0 61-17t19-44q0-28-19-44t-61-16q-42 0-61 16t-19 44z"/><glyph unicode="ӱ" horiz-adv-x="600" d="M301 141h38l97 359h134L428 49Q409-7 391-53.5T349-134q-24-34-56.5-52.5T213-205q-23 0-43.5 6T132-184.5q-17 8.5-30 18T81-149l67 89q13-11 31-20.5t34-9.5q30 0 47.5 21T294 0h-71L15 500h141zM100 626q0 34 20.5 54.5T176 701q34 0 54-20.5t20-54.5q0-32-20-52.5T176 553q-35 0-55.5 20.5T100 626zm258 0q0 34 20 54.5t54 20.5q34 0 55-20.5t21-54.5q0-32-21-52.5T432 553q-34 0-54 20.5T358 626z"/><glyph unicode="Ӳ" horiz-adv-x="600" d="M297 332h48l99 368h141L425 183q-14-44-30.5-79.5t-40-60Q331 19 298 6T218-7q-29 0-52 5t-50 21l35 111q18-9 31.5-12t29.5-3q22 0 37 6t24.5 18q9.5 12 16.5 30t13 41H202L6 700h147zm-86 518h134v-16l-100-93h-93zm198 0h140v-16l-143-93h-94z"/><glyph unicode="ӳ" horiz-adv-x="600" d="M301 141h38l97 359h134L428 49Q409-7 391-53.5T349-134q-24-34-56.5-52.5T213-205q-23 0-43.5 6T132-184.5q-17 8.5-30 18T81-149l67 89q13-11 31-20.5t34-9.5q30 0 47.5 21T294 0h-71L15 500h141zm-81 559h129l-86-129h-78zm178 0h142L406 571h-81z"/><glyph unicode="Ӵ" horiz-adv-x="600" d="M187 700V478q0-60 23.5-89.5T288 359q38 0 71.5 8.5T413 393v307h137V0H413v282q-26-15-69.5-27.5T240 242q-42 0-76.5 10.5t-60 34Q78 310 64 346.5T50 435v265zm-83 105q0 27 19 44t61 17q42 0 61-17t19-44q0-28-19-44t-61-16q-42 0-61 16t-19 44zm246 0q0 27 19 44t61 17q42 0 61-17t19-44q0-28-19-44t-61-16q-42 0-61 16t-19 44z"/><glyph unicode="ӵ" horiz-adv-x="600" d="M190 500V386q0-62 20-90t79-28q11 0 26.5 2t31 5q15.5 3 28.5 7.5t20 9.5v208h130V0H395v196q-8-5-24-11.5T333.5 172q-21.5-6-46.5-10t-51-4q-37 0-69 8t-56 28q-24 20-37.5 53T60 330v170zM96 626q0 34 20.5 54.5T172 701q34 0 54-20.5t20-54.5q0-32-20-52.5T172 553q-35 0-55.5 20.5T96 626zm258 0q0 34 20 54.5t54 20.5q34 0 55-20.5t21-54.5q0-32-21-52.5T428 553q-34 0-54 20.5T354 626z"/><glyph unicode="Ӷ" horiz-adv-x="600" d="M283 122h149v-257H312V0H54v122h92v456H54v122h514V473H458v105H283z"/><glyph unicode="ӷ" horiz-adv-x="600" d="M58 110h68v280H58v110h481V300H429v90H260V110h171v-230H321V0H58z"/><glyph unicode="Ӹ" horiz-adv-x="600" d="M450 700h133V0H450zm-433 0h135V449q7 2 23 5t39 3q42 0 79.5-13.5T360 398q22-25 35.5-64.5T409 237q0-51-13.5-99.5T348 53q-28-29-73-46T173-10q-31 0-71 4T17 7zm176-588q35 0 58.5 27.5T275 229q0 32-7.5 52.5t-19 32.5q-11.5 12-26 16.5T195 335q-14 0-24.5-2t-18.5-4V117q12-3 19.5-4t21.5-1zM97 805q0 27 19 44t61 17q42 0 61-17t19-44q0-28-19-44t-61-16q-42 0-61 16t-19 44zm246 0q0 27 19 44t61 17q42 0 61-17t19-44q0-28-19-44t-61-16q-42 0-61 16t-19 44z"/><glyph unicode="ӹ" horiz-adv-x="600" d="M156 109q15-3 25.5-4.5T203 103q71 0 71 68 0 65-68 65-23 0-50-7zm0 213q24 4 43.5 5.5T239 329q47 0 79-11.5t52-32.5q20-21 29-49.5t9-61.5q0-91-49.5-136T191-7q-57 0-94 2T26 0v500h130zm288 178h130V0H444zM96 626q0 34 20.5 54.5T172 701q34 0 54-20.5t20-54.5q0-32-20-52.5T172 553q-35 0-55.5 20.5T96 626zm258 0q0 34 20 54.5t54 20.5q34 0 55-20.5t21-54.5q0-32-21-52.5T428 553q-34 0-54 20.5T354 626z"/><glyph unicode="Ӽ" horiz-adv-x="600" d="M455-36q0 15-5 31.5T437.5 29q-7.5 17-17 33.5T403 94l-66 114-24 46-28-58L175 0H20l213 359L35 700h160l102-190 23-51 22 51 104 190h155L400 358l131-222q10-17 21.5-39T574 51q10-24 16.5-48.5T597-45q0-43-12-74t-34-50.5Q529-189 498-198t-68-9q-15 0-31.5 1.5T365-200v109q4 0 7.5-.5t7.5-.5q44 0 59.5 15T455-36z"/><glyph unicode="ӽ" horiz-adv-x="600" d="M205 258L31 500h155l113-167 118 167h141L387 260l84-121q42-60 61.5-104T552-46q0-81-42-121.5T390-208q-31 0-65 7v104q5-1 11.5-1H348q41 0 54.5 17T416-35v3q0 13-5 26.5t-12 27q-7 13.5-15.5 26T368 71l-78 113L161 0H19z"/><glyph unicode="Ԑ" horiz-adv-x="600" d="M549 481H439v96q-7 1-13 3-42 10-86 10-55 0-88-22t-33-60q0-31 17-49t43.5-27.5q26.5-9.5 58.5-12t62-2.5h18V310h-21q-26 0-61-1.5t-66.5-11q-31.5-9.5-54-30T193 209q0-52 42.5-76.5T347 108q29 0 55 5 20 4 37 9v113h110V42q-14-8-35.5-17.5t-51-18Q433-2 396.5-8T316-14q-60 0-109 12.5t-84 38q-35 25.5-54.5 65T49 195q0 36 11 65.5T90.5 312q19.5 22 44.5 36.5t54 21.5v5Q75 418 75 523q0 48 20 84t54 59q34 23 79.5 34.5T326 712q59 0 111-8t112-35z"/><glyph unicode="ԑ" horiz-adv-x="600" d="M522 304H412v82q-20 5-43 8-28 5-56 5-51 0-79.5-11.5T205 349q0-19 20.5-35.5T295 297h51v-91h-29q-64 0-97.5-11.5T186 157q0-31 32-44.5T303 99q26 0 54 5.5t53.5 14.5q25.5 9 47.5 20t37 23l50-96q-17-14-42-27.5T446 14Q414 3 376-4t-80-7q-63 0-108 12t-74.5 32Q84 53 70 80.5T56 140q0 51 29.5 81t83.5 39v4q-53 10-73.5 42.5T75 374q0 23 12.5 47t40 43.5q27.5 19.5 71 32T303 509q76 0 132-15.5t87-33.5z"/><glyph unicode="Ԓ" horiz-adv-x="600" d="M556-21q0-91-36-139t-114-48q-14 0-30.5 1.5T342-201v109q5 0 8.5-.5t7.5-.5q21 0 33 6t18 17.5q6 11.5 8 29T419 0v578H304q-4-95-9.5-173t-15-140.5Q270 202 255.5 154T220 71q-14-24-31-39T154 8.5q-18-8.5-36.5-12T83-7Q60-7 39-3T3 8l22 117q13-5 27-5 15 0 30.5 8t28.5 28q15 22 26 64.5T156.5 329q8.5 66 13.5 157.5t7 213.5h379z"/><glyph unicode="ԓ" horiz-adv-x="600" d="M403 385H274q-4-33-7-75t-9-85.5q-6-43.5-17-85t-29-74q-18-32.5-45.5-52T99-6Q70-6 53.5-1T27 9l16 108q16-6 31-6 20 0 34 19t23 49.5q9 30.5 14 70.5t7.5 83q2.5 43 4 86.5T160 500h373V-21q0-91-36-139t-115-48q-30 0-64 7v109q4 0 7.5-.5t7.5-.5q43 0 56.5 24.5T403 0z"/><glyph unicode="Ԝ" horiz-adv-x="600" d="M175 309l2-84h4l17 79 60 186h102l56-186 18-79h4l2 86 28 389h126L522 0H406l-75 221-23 96h-5l-24-96L198 0H78L6 700h137z"/><glyph unicode="ԝ" horiz-adv-x="600" d="M351 380l75-219h5l9 86 41 253h117L497 0H366l-56 198h-5L242 0H107L2 500h130l49-277 8-62h5l74 219z"/><glyph unicode="Ԥ" horiz-adv-x="600" d="M518 122h76v-257H474V0h-93v578H187V0H50v700h468z"/><glyph unicode="ԥ" horiz-adv-x="600" d="M371 385H173V0H43v500h458V115h79v-235H470V0h-99z"/><glyph unicode="Ԧ" horiz-adv-x="600" d="M524 122h76v-257H480V0h-93v222q0 60-27 88-29 31-84 31-38 0-65-13t-40-21V0H34v700h137V418q16 10 51.5 25t94.5 15q40 0 76.5-9.5T457 417q32-26 49.5-67t17.5-95z"/><glyph unicode="ԧ" horiz-adv-x="600" d="M-6 700h202V444h4q24 32 64 51t94 19q38 0 70-10t55-33q23-23 36-62.5t13-97.5V115h76v-235H498V0h-96v284q0 61-26 88t-68 27q-37 0-68-22.5T196 319V0H66v590H-6z"/><glyph unicode="Ԯ" horiz-adv-x="600" d="M544 122h76v-257H500V0h-93v578H278q-5-95-10.5-173t-14-140.5Q245 202 232.5 155T200 76q-29-48-65-65.5T61-7Q38-7 20.5-2.5T-6 7L9 125q5-2 11.5-3t12.5-1q16 0 32.5 8T94 156q14 22 24 65.5t16.5 110q6.5 66.5 10 158T151 700h393z"/><glyph unicode="ԯ" horiz-adv-x="600" d="M389 385H260q-6-71-15.5-141t-29-125.5q-19.5-55.5-51-90T85-6Q27-6 3 9l16 108q16-6 30-6 20 0 36.5 17t29 61Q127 233 135 308.5T146 500h373V115h79v-235H488V0h-99z"/><glyph unicode="Ḱ" horiz-adv-x="600" d="M256 292h-71V0H48v700h137V414h71l160 286h156L375 362 597 0H428zm65 578h159v-30l-160-88H217z"/><glyph unicode="ḱ" horiz-adv-x="600" d="M0 700h212V301h30l164 199h153L357 272l131-162h93V0H419L247 207h-35V0H82v590H0zm334 20h158L355 566h-80z"/><glyph unicode="Ḿ" horiz-adv-x="600" d="M423 373l5 109h-6L310 299h-24L169 482h-5l6-98V0H40v700h139l120-194h4l119 194h138V0H423zm-81 497h159v-30l-160-88H238z"/><glyph unicode="ḿ" horiz-adv-x="600" d="M241 0v306q0 30-4 48.5t-10.5 29q-6.5 10.5-16 14T191 401q-17 0-31.5-11T140 362V0H20v500h95l14-55h3q15 29 44 47.5t68 18.5q33 0 63-16t41-56q15 35 46 53.5t67 18.5q27 0 48.5-7.5T547 477q16-19 24.5-51.5T580 342V0H460v320q0 45-14.5 63T410 401q-18 0-31-8.5T361 365V0zm72 720h158L334 566h-80z"/><glyph unicode="Ṕ" horiz-adv-x="600" d="M73 693q42 8 92.5 12.5T266 710q52 0 104.5-8.5t94.5-34q42-25.5 68.5-71T560 478q0-64-23-109.5t-61-75q-38-29.5-86.5-43T289 237h-16q-11 0-23 .5t-23.5 1.5q-11.5 1-16.5 2V0H73zm204-101q-20 0-38-1.5t-29-3.5V360q4-1 12-2t17-1.5q9-.5 17.5-.5H269q27 0 53.5 5t47.5 18.5q21 13.5 33.5 37.5t12.5 63q0 33-12 54.5T372.5 569Q353 582 328 587t-51 5zm37 278h159v-30l-160-88H210z"/><glyph unicode="ṕ" horiz-adv-x="600" d="M0 500h170l15-60h4q52 74 168 74 46 0 84.5-14.5t66-45.5q27.5-31 42.5-78t15-113q0-64-17-115.5T499 60q-32-36-78-55T316-14q-31 0-61 4.5T205 5v-205H75v590H0zm318-96q-38 0-69.5-19T205 328V120q14-11 40.5-17.5T299 96q28 0 52 9.5t42 30.5q18 21 28 53t10 77q0 66-32 102t-81 36zm-16 316h158L323 566h-80z"/><glyph unicode="ẞ" horiz-adv-x="600" d="M374 569q-18 16-48.5 25t-67.5 9q-35 0-56-12.5t-32-35Q159 533 155.5 502t-3.5-69V0H15v478q0 57 13 100.5T70.5 652q29.5 30 76 45.5T259 713q51 0 91.5-7.5t74-21q33.5-13.5 61.5-31t55-37.5L381 411h25q40 0 73-13.5t56.5-39q23.5-25.5 36-61T584 217q0-108-61.5-169.5T343-14q-14 0-34 2t-40.5 6Q248-2 230 3t-28 10l27 114q10-5 24-8.5t28.5-5.5q14.5-2 28.5-3.5t25-1.5q50 0 77.5 27.5T440 215q0 55-37 80t-113 25h-50v83z"/><glyph unicode="‑" horiz-adv-x="600" d="M154 345h291V230H154z"/><glyph unicode="–" horiz-adv-x="600" d="M79 346h442V231H79z"/><glyph unicode="—" horiz-adv-x="600" d="M0 346h600V231H0z"/><glyph unicode="‘" horiz-adv-x="600" d="M382 515q0-13-5-26t-15-23.5q-10-10.5-24.5-17T305 442q-20 0-38.5 7.5T235 471q-11 13-17 31t-6 38q0 38 13.5 70t38.5 57q11 11 25 20.5t26.5 16Q328 710 337 714t11 5l40-59q-11-4-24.5-10.5t-25.5-16q-12-9.5-20-22.5t-9-30q29 0 51-17t22-49z"/><glyph unicode="’" horiz-adv-x="600" d="M218 646q0 13 5 26t15 23.5q10 10.5 24.5 17T295 719q20 0 38.5-7.5T365 690q11-13 17-31t6-38q0-38-13.5-70T336 494q-11-11-25-20.5t-26.5-16Q272 451 263 447t-11-5l-40 59q11 4 24.5 10.5t25.5 16q12 9.5 20 22.5t9 30q-29 0-51 17t-22 49z"/><glyph unicode="‚" horiz-adv-x="600" d="M218 63q0 13 5 26t15 23.5q10 10.5 24.5 17T295 136q20 0 38.5-7.5T365 107q11-13 17-31t6-38q0-38-13.5-70T336-89q-11-11-25-20.5t-26.5-16Q272-132 263-136t-11-5l-40 59q11 4 24.5 10.5t25.5 16Q274-46 282-33t9 30q-29 0-51 17t-22 49z"/><glyph unicode="“" horiz-adv-x="600" d="M489 515q0-13-5-26t-15-23.5q-10-10.5-24.5-17T412 442q-20 0-38.5 7.5T342 471q-11 13-17 31t-6 38q0 38 13.5 70t38.5 57q11 11 25 20.5t26.5 16Q435 710 444 714t11 5l40-59q-11-4-24.5-10.5t-25.5-16q-12-9.5-20-22.5t-9-30q29 0 51-17t22-49zm-213 0q0-13-5-26t-15-23.5q-10-10.5-24.5-17T199 442q-20 0-38.5 7.5T129 471q-11 13-17 31t-6 38q0 38 13.5 70t38.5 57q11 11 25 20.5t26.5 16Q222 710 231 714t11 5l40-59q-11-4-24.5-10.5t-25.5-16q-12-9.5-20-22.5t-9-30q29 0 51-17t22-49z"/><glyph unicode="”" horiz-adv-x="600" d="M325 646q0 13 5 26t15 23.5q10 10.5 24.5 17T402 719q20 0 38.5-7.5T472 690q11-13 17-31t6-38q0-38-13.5-70T443 494q-11-11-25-20.5t-26.5-16Q379 451 370 447t-11-5l-40 59q11 4 24.5 10.5t25.5 16q12 9.5 20 22.5t9 30q-29 0-51 17t-22 49zm-213 0q0 13 5 26t15 23.5q10 10.5 24.5 17T189 719q20 0 38.5-7.5T259 690q11-13 17-31t6-38q0-38-13.5-70T230 494q-11-11-25-20.5t-26.5-16Q166 451 157 447t-11-5l-40 59q11 4 24.5 10.5t25.5 16q12 9.5 20 22.5t9 30q-29 0-51 17t-22 49z"/><glyph unicode="„" horiz-adv-x="600" d="M325 63q0 13 5 26t15 23.5q10 10.5 24.5 17T402 136q20 0 38.5-7.5T472 107q11-13 17-31t6-38q0-38-13.5-70T443-89q-11-11-25-20.5t-26.5-16Q379-132 370-136t-11-5l-40 59q11 4 24.5 10.5t25.5 16Q381-46 389-33t9 30q-29 0-51 17t-22 49zm-213 0q0 13 5 26t15 23.5q10 10.5 24.5 17T189 136q20 0 38.5-7.5T259 107q11-13 17-31t6-38q0-38-13.5-70T230-89q-11-11-25-20.5t-26.5-16Q166-132 157-136t-11-5l-40 59q11 4 24.5 10.5t25.5 16Q168-46 176-33t9 30q-29 0-51 17t-22 49z"/><glyph unicode="†" horiz-adv-x="600" d="M85 513h152v187h124V513h153V401H361V0l-16-200h-92L237 1v400H85z"/><glyph unicode="‡" horiz-adv-x="600" d="M237 401H85v112h152v187h124V513h153V401H361V257h153V145H361V0l-17-200h-90L237 1v144H85v112h152z"/><glyph unicode="•" horiz-adv-x="600" d="M147 311q0 34 12 62t33 48q21 20 48.5 31.5T299 464q32 0 60-10.5t48.5-30q20.5-19.5 32.5-48t12-64.5q0-36-12-64t-32.5-47.5Q387 180 359 169.5T299 159q-31 0-58.5 10.5t-48.5 30Q171 219 159 247t-12 64z"/><glyph unicode="…" horiz-adv-x="600" d="M-53 66q0 35 22 55.5T27 142q38 0 60-20.5T109 66q0-35-22-56T27-11q-36 0-58 21t-22 56zm272 0q0 35 22 55.5t58 20.5q38 0 60-20.5T381 66q0-35-22-56t-60-21q-36 0-58 21t-22 56zm272 0q0 35 22 55.5t58 20.5q38 0 60-20.5T653 66q0-35-22-56t-60-21q-36 0-58 21t-22 56z"/><glyph unicode="‰" horiz-adv-x="600" d="M4 573q0 41 11.5 68t30 42.5Q64 699 87 705.5t46 6.5q23 0 46-6t41-21.5q18-15.5 29.5-42.5t11.5-68q0-39-11.5-65.5t-30-42.5Q201 450 178 443t-45-7q-23 0-46 6t-41.5 21q-18.5 15-30 41.5T4 573zm93-1q0-38 11-54t25-16q14 0 24.5 16t10.5 54q0 41-9 57.5T133 646q-17 0-26.5-16.5T97 572zm417-32l25-60L29 267 0 332zM47 137q0 41 11.5 68t30 42.5q18.5 15.5 41.5 22t46 6.5q23 0 46-6t41-21.5q18-15.5 29.5-42.5t11.5-68q0-39-11.5-65.5t-30-42.5Q244 14 221 7t-45-7q-23 0-46 6T88.5 27Q70 42 58.5 68.5T47 137zm93-1q0-38 11-54t25-16q14 0 24.5 16t10.5 54q0 41-9 57.5T176 210q-17 0-26.5-16.5T140 136zm199 1q0 41 11.5 68t30 42.5q18.5 15.5 41.5 22t46 6.5q23 0 46-6t41-21.5q18-15.5 29.5-42.5t11.5-68q0-39-11.5-65.5t-30-42.5Q536 14 513 7t-45-7q-23 0-46 6t-41.5 21q-18.5 15-30 41.5T339 137zm93-1q0-38 11-54t25-16q14 0 24.5 16t10.5 54q0 41-9 57.5T468 210q-17 0-26.5-16.5T432 136z"/><glyph unicode="‹" horiz-adv-x="600" d="M166 259l183 258 75-62-137-195L434 74l-77-64z"/><glyph unicode="›" horiz-adv-x="600" d="M243 10l-77 64 147 186-137 195 75 62 183-258z"/><glyph unicode="⁄" horiz-adv-x="600" d="M473 715l85-50L128-14 42 39z"/><glyph unicode="₁" horiz-adv-x="600" d="M165 0h97v164l10 46-30-32-59-39-49 77 158 111h85V0h88v-100H165z"/><glyph unicode="₂" horiz-adv-x="600" d="M478 1v-101H126v70q30 21 67 45.5t68.5 51q31.5 26.5 53 54T336 174q0 23-17 37t-52 14q-39 0-66-14t-44-25l-43 87q41 27 82.5 40.5T279 327q32 0 61-6.5t55-23.5q26-17 41-42.5t15-58.5q0-32-13-60.5t-34-53q-21-24.5-46.5-45T307 1z"/><glyph unicode="₃" horiz-adv-x="600" d="M343 150q48-5 82.5-33T460 35q0-36-16-62.5t-43-44Q374-89 339.5-98t-70.5-9q-39 0-89 11.5T80-44l43 86q42-31 77-42.5T266-12q32 0 55.5 14T345 39q0 23-19.5 35T255 86h-38v53l88 86H126v95h317v-70L343 150z"/><glyph unicode="₄" horiz-adv-x="600" d="M492-22h-76v-78H315v78H96v67l224 275h96V67h76zM315 185L219 67h96z"/><glyph unicode="€" horiz-adv-x="600" d="M56 475h61q15 64 43.5 109.5t67 74q38.5 28.5 84 42T406 714q52 0 92.5-8t67.5-19l-35-103q-22 9-51 13.5t-68 4.5q-60 0-103.5-30.5T244 475h259l-26-93H228q-1-8-1-16v-42h230l-26-93H242q20-65 64-99t116-34q42 0 72.5 9t54.5 23l27-101q-15-11-36-19.5T496-4q-23-5-47-7.5T403-14q-110 0-186 59T116 231H24l32 93h49v42q0 8 1 16H24z"/><glyph unicode="₴" horiz-adv-x="600" d="M525 321v-93H276q-14-16-24.5-38T241 148q0-26 22-41.5T339 91q53 0 84.5 9.5T477 122l29-98q-25-14-70-26T309-14q-94 0-144 36t-50 108q0 32 12.5 59t20.5 39H75v93zM75 378v93h250q15 15 26 37.5t11 44.5q0 56-80 56-40 0-68.5-8.5T161 580l-37 98q16 8 32.5 14.5T193 704q20 5 47.5 7.5T307 714q88 0 134-33t46-101q0-32-12.5-62T447 471h78v-93z"/><glyph unicode="₽" horiz-adv-x="600" d="M38 364h79v329q42 8 87 12.5t95 4.5q52 0 100-9t84-33q36-24 57.5-66T562 494q0-61-21-103t-56-68.5q-35-26.5-80-38T311 273h-68v-58h160v-91H243V0H117v124H38v91h79v58H38zm205 3h52q27 0 51.5 6.5T389 394q18 14 28.5 37.5T428 488q0 61-33 86.5T310 600q-20 0-38-1.5t-29-3.5z"/><glyph unicode="ℓ" horiz-adv-x="600" d="M466 30q-22-14-57.5-28T338-12q-63 0-91.5 30.5T218 114v104l-50-44-35 44 85 74v254q0 44 10 75.5t27.5 51.5q17.5 20 41 29.5T347 712q48 0 79-29.5t31-89.5q0-74-40-157T286 265V125q0-44 17-60.5T344 48q25 0 55 10.5T449 80zm-73 558q0 34-14 49t-32 15q-12 0-23-3.5t-19.5-14q-8.5-10.5-13.5-29t-5-48.5V345q56 65 81.5 125.5T393 588z"/><glyph unicode="№" horiz-adv-x="600" d="M352 0H224L119 358h-7l7-74V0H10v700h114l119-418h7l-7 73v345h109zm16 542q0 92 31.5 131t80.5 39q25 0 45.5-8.5t35-28Q575 656 583 623t8-81q0-48-9-80.5T557 409q-16-20-36.5-28.5T478 372q-23 0-43 8.5T400 409q-15 20-23.5 52.5T368 542zm12-203h200V236H380zm76 203q0-48 3.5-68t19.5-20q17 0 20.5 19t3.5 69q0 48-4 68t-20 20q-16 0-19.5-19t-3.5-69z"/><glyph unicode="™" horiz-adv-x="600" d="M259 597h-69V340H79v257H10v103h249zm232-113l5 63h-5l-50-112h-18l-52 112h-4l9-62V340h-94v360h110l44-115 39 115h110V340h-94z"/><glyph unicode="℮" horiz-adv-x="600" d="M154 259V78q62-59 145-59 124 0 193 120l35-21q-43-66-99-100.5T299-17q-59 0-107 21.5T110.5 63Q77 100 59 150.5T41 259q0 59 18.5 109.5T112 456q34 37 81.5 58T299 535q62 0 109.5-22t80.5-59.5q33-37.5 50-87.5t19-107zm291 36v145q-63 60-147 60-86 0-144-60V295z"/><glyph unicode="←" horiz-adv-x="600" d="M132 277h24q-19-37-28-52t-34-45h505v-33H94q33-34 63-97h-25q-40 45-70 69T1 157v15q57 24 131 105z"/><glyph unicode="↑" horiz-adv-x="600" d="M186 293q81 75 106 131h14q15-31 38.5-61t69.5-70v-25q-64 30-98 63v-467h-32v467q-30-24-45-33.5T186 269z"/><glyph unicode="→" horiz-adv-x="600" d="M468 277q74-81 131-105v-15q-32-14-61.5-38T468 50h-25q30 63 63 97H1v33h505q-24 29-33.5 44.5T444 277z"/><glyph unicode="↓" horiz-adv-x="600" d="M186-5v24q38-19 53-28.5T284-43v467h32V-42q34 32 98 62V-5q-46-40-69.5-69.5T306-136h-14Q267-78 186-5z"/><glyph unicode="↔" horiz-adv-x="600" d="M599 171v-14q-29-14-58.5-37T470 50h-25q22 54 61 98H93q40-44 62-98h-26q-41 47-70 70T1 157v14q30 14 58 36.5t70 70.5h26q-22-55-62-99h413q-39 44-61 99h25q43-48 71-70.5t58-36.5z"/><glyph unicode="↕" horiz-adv-x="600" d="M292 463h15q27-60 107-129v-25q-54 22-99 62V-42q44 39 99 61V-6q-79-69-107-129h-15q-13 30-36.5 59T186-6v25q55-22 98-61v413q-44-40-98-62v25q47 41 70 70t36 59z"/><glyph unicode="↨" horiz-adv-x="600" d="M292 463h15q27-60 107-129v-25q-54 22-99 62V-42q44 39 99 61V-6q-79-69-107-129h-15q-13 30-36.5 59T186-6v25q55-22 98-61v413q-44-40-98-62v25q47 41 70 70t36 59zM187-166h227v-30H187z"/><glyph unicode="∂" horiz-adv-x="600" d="M310 503q21 0 36-2t26-5.5q11-3.5 20-8t17-9.5h5q-5 39-25 65t-48.5 42Q312 601 278 607.5t-68 6.5h-14.5q-6.5 0-13.5-1l22 101q8 1 16.5 1H237q66 0 123-15t98.5-50q41.5-35 65.5-94t24-146q0-112-21.5-192T467 86.5q-38-51.5-90.5-76T262-14q-99 0-154.5 54.5T52 189q0 57 15.5 113t47 101q31.5 45 80.5 72.5T310 503zm8-110q-57 0-94.5-53T186 194q0-41 21.5-69.5T273 96q41 0 68 23t43.5 60q16.5 37 23 84t6.5 94q-18 17-40 26.5t-56 9.5z"/><glyph unicode="∏" horiz-adv-x="600" d="M436 578H170v-778H33v900h533v-900H436z"/><glyph unicode="∑" horiz-adv-x="600" d="M191-78h349v-122H59v122l205 328L59 578v122h481V578H211l199-322z"/><glyph unicode="−" horiz-adv-x="600" d="M59 394h482V282H59z"/><glyph unicode="∕" horiz-adv-x="600" d="M473 715l85-50L128-14 42 39z"/><glyph unicode="√" horiz-adv-x="600" d="M212 475l101-244h4l138 469h125L350-5h-67L132 365H20v110z"/><glyph unicode="∞" horiz-adv-x="600" d="M292 264q-25-58-60-85.5T154 151q-25 0-47.5 13.5t-40 38.5q-17.5 25-28 61T28 346q0 48 10.5 85T67 494q18 26 42.5 39.5T162 547q51 0 85-29t60-74q30 55 65.5 79t77.5 24q25 0 47.5-13t39-38q16.5-25 26-61t9.5-82q0-96-39.5-149T433 151q-50 0-83.5 33T292 264zm135-4q24 0 38.5 26t14.5 64q0 16-3 31.5t-9.5 28Q461 422 451 430t-25 8q-47 0-88-75 7-20 17-38.5t21.5-33q11.5-14.5 24.5-23t26-8.5zM173 438q-23 0-38-26.5T120 347q0-38 16-62.5t42-24.5q21 0 44 23t40 55q-16 43-38 71.5T173 438z"/><glyph unicode="∟" horiz-adv-x="600" d="M1 597h126V126h472V0H1z"/><glyph unicode="∩" horiz-adv-x="600" d="M85 485q0 86 60 151 61 66 155 66 92 0 154-65 61-64 61-152V0H389v475q0 42-24.5 71.5T300 576q-39 0-64-27.5T211 475V0H85z"/><glyph unicode="∪" horiz-adv-x="600" d="M85 217q0-86 60-151Q206 0 300 0q92 0 154 65 61 64 61 152v485H389V227q0-42-24.5-71.5T300 126q-39 0-64 27.5T211 227v475H85z"/><glyph unicode="∫" horiz-adv-x="600" d="M368-34q0-96-39-135t-117-39q-46 0-87.5 7T59-184L88-81q44-17 84-17 38 0 52 23t14 78v535q0 96 36.5 136T392 714q18 0 38.5-2t40.5-5.5q20-3.5 38-8t31-9.5l-22-102q-23 8-42.5 12.5T429 604q-35 0-48-20.5T368 509z"/><glyph unicode="≈" horiz-adv-x="600" d="M64 473q47 38 84.5 52.5T218 540q29 0 54-8.5t48-18q23-9.5 45.5-18T411 487q18 0 37 6t40 23l47-103q-36-27-66-38t-56-11q-28 0-52 9t-46.5 20Q292 404 269 413t-49 9q-24 0-51.5-10.5T108 373zm0-194q47 38 84.5 52.5T218 346q29 0 54-8.5t48-18q23-9.5 45.5-18T411 293q18 0 37 6t40 23l47-103q-36-27-66-38t-56-11q-28 0-52 9t-46.5 20Q292 210 269 219t-49 9q-24 0-51.5-10.5T108 179z"/><glyph unicode="≠" horiz-adv-x="600" d="M79 490h232l50 113h113l-50-113h97V378H374l-36-80h183V186H289L232 57H120l57 129H79v112h147l36 80H79z"/><glyph unicode="≡" horiz-adv-x="600" d="M531 468H69v126h462zm0-196H69v126h462zm0-196H69v126h462z"/><glyph unicode="≤" horiz-adv-x="600" d="M524 80l-56-96L86 199l56 96zM75 413v70l386 231 57-90-284-173 289-169-57-90z"/><glyph unicode="≥" horiz-adv-x="600" d="M524 205L143-16 87 79l380 222zm0 278v-70L138 182l-57 90 285 174L76 614l57 90z"/><glyph unicode="⌂" horiz-adv-x="600" d="M552 0H48v359l251 221 253-221zM174 126h252v183L299 413 174 309z"/><glyph unicode="⌐" horiz-adv-x="600" d="M521 300H199V186H79v226h442z"/><glyph unicode="⌠" horiz-adv-x="600" d="M336-235h-72v904q0 96 40.5 156T408 885q30 0 48.5-15.5T475 831q0-19-12.5-32T432 786q-15 0-28 8l-19 21q-17 19-24 19-18 0-22-19-3-16-3-68z"/><glyph unicode="⌡" horiz-adv-x="600" d="M263 885h72V-19q0-96-40.5-156T191-235q-30 0-48.5 15.5T124-181q0 19 12.5 32t30.5 13q15 0 28-8l19-21q17-19 24-19 18 0 22 19 3 16 3 68z"/><glyph unicode="─" horiz-adv-x="600" d="M0 304v76h600v-76z"/><glyph unicode="│" horiz-adv-x="600" d="M262-235V885h76V-235z"/><glyph unicode="┌" horiz-adv-x="600" d="M262-235v615h338v-76H338v-539z"/><glyph unicode="┐" horiz-adv-x="600" d="M262-235v539H0v76h338v-615z"/><glyph unicode="└" horiz-adv-x="600" d="M262 305v580h76V381h262v-76z"/><glyph unicode="┘" horiz-adv-x="600" d="M0 305v76h262v504h76V305z"/><glyph unicode="├" horiz-adv-x="600" d="M262-235V885h76V380h262v-76H338v-539z"/><glyph unicode="┤" horiz-adv-x="600" d="M262-235v539H0v76h262v505h76V-235z"/><glyph unicode="┬" horiz-adv-x="600" d="M262-235v539H0v76h600v-76H338v-539z"/><glyph unicode="┴" horiz-adv-x="600" d="M0 304v76h262v505h76V380h262v-76z"/><glyph unicode="┼" horiz-adv-x="600" d="M262-235v539H0v76h262v505h76V380h262v-76H338v-539z"/><glyph unicode="═" horiz-adv-x="600" d="M0 304h600v-76H0zm0 76v76h600v-76z"/><glyph unicode="║" horiz-adv-x="600" d="M262-235h-76V885h76zm76 1120h76V-235h-76z"/><glyph unicode="╒" horiz-adv-x="600" d="M262-235v691h338v-76H338v-76h262v-76H338v-463z"/><glyph unicode="╓" horiz-adv-x="600" d="M262-235h-76v615h414v-76H414v-539h-76v539h-76z"/><glyph unicode="╔" horiz-adv-x="600" d="M262-235h-76v691h414v-76H262zm76 0v539h262v-76H414v-463z"/><glyph unicode="╕" horiz-adv-x="600" d="M262-235v463H0v76h262v76H0v76h338v-691z"/><glyph unicode="╖" horiz-adv-x="600" d="M262-235h-76v539H0v76h414v-615h-76v539h-76z"/><glyph unicode="╗" horiz-adv-x="600" d="M262-235h-76v463H0v76h262zm76 0v615H0v76h414v-691z"/><glyph unicode="╘" horiz-adv-x="600" d="M262 228v657h76V456h262v-76H338v-76h262v-76z"/><glyph unicode="╙" horiz-adv-x="600" d="M186 304v581h76V380h76v505h76V380h186v-76z"/><glyph unicode="╚" horiz-adv-x="600" d="M186 228v657h76V304h338v-76zm414 152H338v505h76V456h186z"/><glyph unicode="╛" horiz-adv-x="600" d="M0 304h262v76H0v76h262v429h76V228H0z"/><glyph unicode="╜" horiz-adv-x="600" d="M0 304v76h186v505h76V380h76v505h76V304z"/><glyph unicode="╝" horiz-adv-x="600" d="M0 304h338v581h76V228H0zm0 76v76h186v429h76V380z"/><glyph unicode="╞" horiz-adv-x="600" d="M262-235V885h76V457h262v-76H338v-76h262v-76H338v-464z"/><glyph unicode="╟" horiz-adv-x="600" d="M186-235V885h76V-235zm152 0V885h76V380h186v-76H414v-539z"/><glyph unicode="╠" horiz-adv-x="600" d="M186-235V885h76V-235zm152 0v539h262v-76H414v-463zm0 615v505h76V456h186v-76z"/><glyph unicode="╡" horiz-adv-x="600" d="M262-235v463H0v76h262v76H0v76h262v429h76V-235z"/><glyph unicode="╢" horiz-adv-x="600" d="M186-235v539H0v76h186v505h76V-235zm152 0V885h76V-235z"/><glyph unicode="╣" horiz-adv-x="600" d="M186-235v463H0v76h262v-539zm152 0V885h76V-235zM0 380v76h186v429h76V381z"/><glyph unicode="╤" horiz-adv-x="600" d="M0 304h600v-76H338v-463h-76v463H0zm0 76v76h600v-76z"/><glyph unicode="╥" horiz-adv-x="600" d="M0 304v76h600v-76H414v-539h-76v539h-76v-539h-76v539z"/><glyph unicode="╦" horiz-adv-x="600" d="M0 304h262v-539h-76v463H0zm0 76v76h600v-76zm600-76v-76H414v-463h-76v539z"/><glyph unicode="╧" horiz-adv-x="600" d="M0 304h600v-76H0zm0 76v76h262v429h76V456h262v-76z"/><glyph unicode="╨" horiz-adv-x="600" d="M0 304v76h186v505h76V380h76v505h76V380h186v-76z"/><glyph unicode="╩" horiz-adv-x="600" d="M0 304h600v-76H0zm0 76v76h186v429h76V380zm338 0v505h76V456h186v-76z"/><glyph unicode="╪" horiz-adv-x="600" d="M0 304h262v76H0v76h262v429h76V456h262v-76H338v-76h262v-76H338v-463h-76v463H0z"/><glyph unicode="╫" horiz-adv-x="600" d="M0 304v76h186v505h76V380h76v505h76V380h186v-76H414v-539h-76v539h-76v-539h-76v539z"/><glyph unicode="╬" horiz-adv-x="600" d="M0 304h262v-539h-76v463H0zm0 76v76h186v429h76V380zm338 0v505h76V456h186v-76zm262-76v-76H414v-463h-76v539z"/><glyph unicode="▀" horiz-adv-x="600" d="M0 343v542h600V343z"/><glyph unicode="▄" horiz-adv-x="600" d="M0-235v578h600v-578z"/><glyph unicode="█" horiz-adv-x="600" d="M0-235V885h600V-235z"/><glyph unicode="▌" horiz-adv-x="600" d="M0-235V885h300V-235z"/><glyph unicode="▐" horiz-adv-x="600" d="M600-235H300V885h300z"/><glyph unicode="░" horiz-adv-x="600" d="M50 701h50v-47H50zm200 0h50v-47h-50zm200 0h50v-47h-50zm-300-93h50v-47h-50zm200 0h50v-47h-50zm200 0h50v-47h-50zm-100-92h50v-47h-50zm-200 0h50v-47h-50zm-200 0h50v-47H50zm500-92h50v-48h-50zm-200 0h50v-48h-50zm-200 0h50v-48h-50zM50 331h50v-47H50zm200 0h50v-47h-50zm200 0h50v-47h-50zm100-92h50v-47h-50zm-200 0h50v-47h-50zm-200 0h50v-47h-50zM50 147h50V99H50zm200 0h50V99h-50zm200 0h50V99h-50zM150 54h50V7h-50zm200 0h50V7h-50zm200 0h50V7h-50zM450-38h50v-48h-50zm-200 0h50v-48h-50zM50-38h50v-48H50zm100-93h50v-47h-50zm200 0h50v-47h-50zm200 0h50v-47h-50zM150 793h50v-47h-50zm200 0h50v-47h-50zm200 0h50v-47h-50zM50 885h50v-46H50zm200 0h50v-46h-50zm200 0h50v-46h-50z"/><glyph unicode="▒" horiz-adv-x="600" d="M50 701h50v-47H50zm100 0h50v-47h-50zm100 0h50v-47h-50zm100 0h50v-47h-50zm100 0h50v-47h-50zm100 0h50v-47h-50zM0 608h50v-47H0zm100 0h50v-47h-50zm100 0h50v-47h-50zm100 0h50v-47h-50zm100 0h50v-47h-50zm100 0h50v-47h-50zM50 516h50v-47H50zm100 0h50v-47h-50zm100 0h50v-47h-50zm100 0h50v-47h-50zm100 0h50v-47h-50zm100 0h50v-47h-50zM0 424h50v-48H0zm100 0h50v-48h-50zm100 0h50v-48h-50zm100 0h50v-48h-50zm100 0h50v-48h-50zm100 0h50v-48h-50zM50 331h50v-47H50zm100 0h50v-47h-50zm100 0h50v-47h-50zm100 0h50v-47h-50zm100 0h50v-47h-50zm100 0h50v-47h-50zM0 239h50v-47H0zm200 0h50v-47h-50zm100 0h50v-47h-50zm100 0h50v-47h-50zm100 0h50v-47h-50zm-400 0h50v-47h-50zm450-92h50V99h-50zm-100 0h50V99h-50zm-100 0h50V99h-50zm-100 0h50V99h-50zm-100 0h50V99h-50zm-100 0h50V99H50zM0 54h50V7H0zm100 0h50V7h-50zm100 0h50V7h-50zm100 0h50V7h-50zm100 0h50V7h-50zm100 0h50V7h-50zm50-92h50v-48h-50zm-100 0h50v-48h-50zm-100 0h50v-48h-50zm-100 0h50v-48h-50zm-100 0h50v-48h-50zM50-38h50v-48H50zM0-131h50v-47H0zm100 0h50v-47h-50zm100 0h50v-47h-50zm100 0h50v-47h-50zm100 0h50v-47h-50zm100 0h50v-47h-50zM0 793h50v-47H0zm100 0h50v-47h-50zm100 0h50v-47h-50zm100 0h50v-47h-50zm100 0h50v-47h-50zm100 0h50v-47h-50zM50 885h50v-46H50zm100 0h50v-46h-50zm100 0h50v-46h-50zm100 0h50v-46h-50zm100 0h50v-46h-50zm100 0h50v-46h-50z"/><glyph unicode="▓" horiz-adv-x="600" d="M550 793h50V655h-50v-47h50V470h-50v-47h50V285h-50v-47h50V101h-50V53h50V-84h-50v-48h50v-103H0v11h50v47H0v138h50V8H0v138h50v47H0v137h50v48H0v137h50v47H0v138h50v47H0v138h600v-46h-50zM100 330h50v48h-50zm100 0h50v48h-50zM450 53h50v48h-50zm-100 0h50v48h-50zm-100 0h50v48h-50zm-100 0h50v48h-50zm150 277h50v48h-50zM50 53h50v48H50zm350 277h50v48h-50zm100 0h50v48h-50zm-50-462h50v48h-50zm-100 0h50v48h-50zm-100 0h50v48h-50zm-100 0h50v48h-50zm-100 0h50v48H50zm450-92h50v47h-50zm-100 0h50v47h-50zm-100 0h50v47h-50zm-100 0h50v47h-50zm-100 0h50v47h-50zm200 924h50v47h-50zm200-185h50v47h-50zM100 146h50v47h-50zM500-39h50V8h-50zm-200 0h50V8h-50zm-100 0h50V8h-50zm-100 0h50V8h-50zm200 554h50v47h-50zm50 93h50v47h-50zm-150-93h50v47h-50zm-100 0h50v47h-50zm400-369h50v47h-50zm-100 0h50v47h-50zm-100 0h50v47h-50zm-100 0h50v47h-50zm250 92h50v47h-50zm-100 0h50v47h-50zm-100 0h50v47h-50zm-100 0h50v47h-50zm-100 0h50v47H50zm400 370h50v47h-50zM400-39h50V8h-50zm-50 462h50v47h-50zm100 0h50v47h-50zM150 608h50v47h-50zm250 92h50v47h-50zM50 608h50v47H50zm200-185h50v47h-50zm-100 0h50v47h-50zm-100 0h50v47H50zm350 92h50v47h-50zm100 185h50v47h-50zm-400 0h50v47h-50zm150-92h50v47h-50zm-50 92h50v47h-50zM50 793h50v46H50zm400 0h50v46h-50zm-300 0h50v46h-50zm200 0h50v46h-50zm-100 0h50v46h-50z"/><glyph unicode="■" horiz-adv-x="600" d="M1 598h598V0H1z"/><glyph unicode="□" horiz-adv-x="600" d="M1 598h598V0H1zm37-37V37h524v524z"/><glyph unicode="▪" horiz-adv-x="600" d="M424 187H176v248h248z"/><glyph unicode="▫" horiz-adv-x="600" d="M424 187H176v248h248zm-37 37v174H213V224z"/><glyph unicode="▬" horiz-adv-x="600" d="M1 306h598V193H1z"/><glyph unicode="▲" horiz-adv-x="600" d="M7 0l293 585L592 0z"/><glyph unicode="►" horiz-adv-x="600" d="M1 584l598-298L1-13z"/><glyph unicode="▼" horiz-adv-x="600" d="M592 572L300-13 7 572z"/><glyph unicode="◄" horiz-adv-x="600" d="M599 584V-13L1 286z"/><glyph unicode="◊" horiz-adv-x="600" d="M335-5h-75L63 342l197 363h75l201-358zm-28 148l107 191-118 214h-5L185 355l118-212z"/><glyph unicode="○" horiz-adv-x="600" d="M300 497q54 0 106-28t80.5-79.5Q515 338 515 282q0-89-63-152T300 67q-89 0-152 63T85 282q0 56 29 107.5t80.5 79.5Q246 497 300 497zm0-37q-45 0-87.5-23T146 371q-24-43-24-89 0-74 52.5-126T300 104q74 0 126 52t52 126q0 46-24 89t-66.5 66-87.5 23z"/><glyph unicode="●" horiz-adv-x="600" d="M300 497q54 0 106-28t80.5-79.5Q515 338 515 282q0-89-63-152T300 67q-89 0-152 63T85 282q0 56 29 107.5t80.5 79.5T300 497z"/><glyph unicode="◘" horiz-adv-x="600" d="M61 0v479h478V0zm239 338q-41 0-70-29t-29-70q0-40 29-69t70-29q41 0 69.5 29t28.5 69q0 41-28.5 70T300 338z"/><glyph unicode="◙" horiz-adv-x="600" d="M19 0v564h564V0zm281 497q-54 0-105.5-28T114 389.5Q85 338 85 282q0-89 63-152t152-63q90 0 153 63t63 152q0 56-29 107.5T406.5 469Q355 497 300 497zm1-37q44 0 87-23t67-65.5q24-42.5 24-89.5 0-74-52-126t-126-52q-74 0-126 52t-52 126q0 47 23.5 89.5T213 437t88 23z"/><glyph unicode="◦" horiz-adv-x="600" d="M421 311q0-50-35.5-85.5T300 190q-50 0-85.5 35.5T179 311q0 50 35.5 85.5T300 432q50 0 85.5-35.5T421 311zm-37 0q0 35-25 59.5T300 395q-35 0-59.5-25T216 311q0-35 24.5-59.5T300 227q34 0 59 24.5t25 59.5z"/><glyph unicode="☺" horiz-adv-x="600" d="M599 285q0-123-87.5-210.5T300-13Q176-13 88.5 74.5T1 285q0 124 87.5 211.5T300 584q124 0 211.5-87.5T599 285zm-44 0q0 106-74.5 181T300 541q-106 0-180.5-75T45 285q0-105 74.5-180T300 30q106 0 180.5 75T555 285zm-331 62q0-15-11.5-26.5T186 309q-16 0-27 11.5T148 347q0 16 11 27t27 11q15 0 26.5-11t11.5-27zm228 0q0-15-11-26.5T415 309q-16 0-27.5 11.5T376 347q0 16 11.5 27t27.5 11q15 0 26-11t11-27zM162 189l29 17q38-67 109-67t108 67l29-17q-47-91-137-91-46 0-80 23.5T162 189z"/><glyph unicode="☻" horiz-adv-x="600" d="M599 285q0-123-87.5-210.5T300-13Q176-13 88.5 74.5T1 285q0 124 87.5 211.5T300 584q124 0 211.5-87.5T599 285zm-375 62q0 16-11.5 27T186 385q-16 0-27-11t-11-27q0-15 11-26.5t27-11.5q15 0 26.5 11.5T224 347zm228 0q0 16-11 27t-26 11q-16 0-27.5-11T376 347q0-15 11.5-26.5T415 309q15 0 26 11.5t11 26.5zM162 189q24-44 58-67.5T300 98q45 0 79.5 23t57.5 68l-29 17q-37-67-108-67t-109 67z"/><glyph unicode="☼" horiz-adv-x="600" d="M284 529h32V423q32-3 57-13t53-31l91 89 22-22-90-90q43-57 45-112h105v-30H494q-7-59-45-108l90-92-24-21-89 89q-30-22-53.5-31.5T316 37V-69h-32V37q-61 9-108 44L84-7 62 15l90 90q-39 49-46 110H1v30h105q6 62 45 109l-89 90 21 24 92-89q56 38 109 44zm15-136q-67 0-114.5-48T137 230q0-67 47.5-114.5T299 68q68 0 115.5 47.5T462 230q0 67-47.5 115T299 393z"/><glyph unicode="♀" horiz-adv-x="600" d="M283 282q-54 7-88.5 47T160 421q0 59 41.5 100.5T301 563q57 0 98.5-41.5T441 421q0-53-34.5-92.5T319 282v-81h125v-34H319V39h-36v128H157v34h126zm17 240q-41 0-70.5-29.5T200 422q0-42 29.5-71.5T300 321q42 0 71.5 29.5T401 422q0 41-29.5 70.5T300 522z"/><glyph unicode="♂" horiz-adv-x="600" d="M307 382l118 118q-17 4-53 18-27 10-40 24-4 4-4 9 0 4 3 8 2 2 7 2t16-2q31-8 62-8 45 0 63 6t24 6q4 0 6-1.5t2-5.5q0-4-3-13-8-33-8-77 0-30 6-63 2-11 2-16 0-4-2-7-4-3-7-3-9 0-20 19-21 41-31 81L332 361q41-39 41-93 0-61-41.5-103.5T231 122q-59 0-100 41t-41 98q0 59 41.5 100.5T232 403q35 0 75-21zm-75-16q-44 0-74-30t-30-73q0-43 30.5-73.5T232 159q43 0 73 30t30 74q0 43-30 73t-73 30z"/><glyph unicode="♠" horiz-adv-x="600" d="M300 601q13-53 39.5-94.5t94-102.5q67.5-61 85.5-94t18-67q0-46-31-77.5T431 134q-77 0-125 93 1-72 19-114t58-66.5Q423 22 490 18l4-18H107l3 18q61 0 103 24.5t64 68Q299 154 297 227q-22-46-54.5-69.5T170 134q-44 0-76 32t-32 75q0 36 16 65 22 41 77 85 68 56 106 112 27 40 39 98z"/><glyph unicode="♣" horiz-adv-x="600" d="M506 0H95l4 17q81 17 107 33 39 25 64 73.5T295 225q0 7-1 23-29-60-71.5-88T136 132q-57 0-96 39.5T1 268q0 56 36 95t81 39q29 0 79-25-20 33-26 50.5t-6 37.5q0 56 38 94t96 38q57 0 96-38.5t39-91.5q0-43-34-90 41 19 49 21 13 4 30 4 49 0 84.5-38t35.5-94q0-58-39-97.5T466 133q-30 0-62.5 14.5T347 187q-17 18-42 61 2-78 23.5-122.5T395 51q30-19 107-34z"/><glyph unicode="♥" horiz-adv-x="600" d="M301-11q-14 53-40.5 100.5T160 235q-55 73-68 93-21 31-30 57.5T53 439q0 51 33.5 85t83.5 34q49 0 86-35 28-27 45-79 16 58 51 86.5t78 28.5q49 0 83-34t34-80q0-41-19.5-85T450 243q-74-94-104.5-147.5T301-11z"/><glyph unicode="♦" horiz-adv-x="600" d="M299 597q44-74 111.5-164T523 293q-37-39-118-147-67-89-105-158-13 25-34 56-37 55-96 133-14 20-92 116 49 56 126 159 57 76 95 145z"/><glyph unicode="♪" horiz-adv-x="600" d="M275 148v415h37v-49l75-94q25-34 39-74t14-81q0-75-46-132h-23q28 63 28 121t-28 97q-28 39-59 44V148q0-61-35.5-97.5T188 14q-27 0-41.5 13.5T132 62q0 38 29 66.5t70 28.5q11 0 22-2.5t22-6.5z"/><glyph unicode="♫" horiz-adv-x="600" d="M528 158q0-61-36-97.5T406 24q-28 0-42 13.5T350 73q0 37 29 65.5t69 28.5q11 0 22-2.5t22-6.5v219l-269-73V112q0-60-35.5-96.5T100-21Q72-21 58-8T44 27q0 37 29 65.5t70 28.5q11 0 22-2t22-7v367l341 87zM223 366l269 73v57l-269-74z"/><glyph unicode="Ⱨ" horiz-adv-x="600" d="M520 122h76v-257H476V0h-93v293H187V0H50v700h137V415h196v285h137z"/><glyph unicode="ⱨ" horiz-adv-x="600" d="M-6 700h202V444h4q24 32 64 51t94 19q38 0 70-10t55-33q23-23 36-62.5t13-97.5V115h76v-235H498V0h-96v284q0 61-26 88t-68 27q-37 0-68-22.5T196 319V0H66v590H-6z"/><glyph unicode="" horiz-adv-x="600" d="M272 870h159v-30l-160-88H168z"/><glyph unicode="" horiz-adv-x="600" d="M161 885q20-26 58-40t85-14q48 0 82.5 15t54.5 39l58-45q-37-54-88-77t-108-23q-27 0-54.5 4.5T195 760q-26 11-50.5 30.5T100 840z"/><glyph unicode="" horiz-adv-x="600" d="M342 0l-24-43q41-4 64.5-21.5T406-118q0-23-11.5-40T363-186.5Q343-198 316-204t-58-6q-31 0-64 6l9 48q7-1 13-1h11q38 0 49 9t11 21q0 28-86 32l57 95z"/><glyph unicode="" horiz-adv-x="600" d="M509 737H373l-73 61-68-61H91l155 133h102z"/><glyph unicode="" horiz-adv-x="600" d="M209-95q0 18 8 30t20 19.5Q249-38 264-35t30 3q35 0 62-20t27-62q0-29-12.5-50.5t-32-36q-19.5-14.5-45-22T243-230l-13 48q28 1 47 12t20 26q-38-5-63 9.5T209-95z"/><glyph unicode="" horiz-adv-x="600" d="M218 646q0 13 5 26t15 23.5q10 10.5 24.5 17T295 719q20 0 38.5-7.5T365 690q11-13 17-31t6-38q0-38-13.5-70T336 494q-11-11-25-20.5t-26.5-16Q272 451 263 447t-11-5l-40 59q11 4 24.5 10.5t25.5 16q12 9.5 20 22.5t9 30q-29 0-51 17t-22 49z"/><glyph unicode="" horiz-adv-x="600" d="M206 809q0 27 23 46t70 19q46 0 71-19t25-46q0-29-25-48t-71-19q-47 0-70 19t-23 48z"/><glyph unicode="" horiz-adv-x="600" d="M172 772q0 18 6 34.5t20.5 29q14.5 12.5 39 19.5t62.5 7q70 0 99-24t29-66q0-18-6.5-34T400 710.5Q385 699 360.5 692t-60.5-7q-71 0-99.5 24.5T172 772zm84 0q0-31 44-31 25 0 35 8t10 23q0 17-10.5 25t-34.5 9q-44-1-44-34z"/><glyph unicode="" horiz-adv-x="600" d="M115 800q32 35 61.5 48t58.5 13q22 0 44-5.5t42.5-12Q342 837 362 831t38-6q16 0 31 5.5t29 19.5l25-67q-28-26-54.5-36.5T379 736q-23 0-44 5.5T293.5 754q-20.5 7-40.5 12.5t-39 5.5q-19 0-37.5-7.5T139 737z"/><glyph unicode="" horiz-adv-x="600" d="M388 10q-76-22-76-79 0-18 11-30.5t31-12.5q18 0 42 12l19-62q-15-12-47.5-23.5T300-197q-56 0-85.5 25T185-106q0 41 27.5 70T288 10z"/><glyph unicode="" horiz-adv-x="600" d="M533 537q0-26-6.5-52T505 437.5q-15-21.5-39-38T408 375v-6q30-5 57-17t47-33q20-21 31.5-51t11.5-71q0-54-23-93.5T470.5 39Q432 14 383 2T282-10h-43.5q-26.5 0-57 1.5t-62 4.5Q88-1 62 5v690q19 3 43.5 6t52.5 5q28 2 57.5 3t58.5 1q49 0 95.5-7.5t83-26.5q36.5-19 58.5-53t22-86zM283 103q25 0 48.5 6t41.5 18.5q18 12.5 29 31.5t11 45q0 33-13 52t-34 29.5Q345 296 319 299t-52 3h-73V109q5-2 16-3t23.5-1.5q12.5-.5 26-1t23.5-.5zm-45 303q14 0 32.5 1t30.5 3q38 12 65.5 36t27.5 63q0 26-10 43t-26.5 27Q341 589 320 593t-44 4q-26 0-48-1t-34-3V406zm52 464h159v-30l-160-88H186z"/><glyph unicode="" horiz-adv-x="600" d="M-13 700h207V460h4q21 24 56.5 38t87.5 14q99 0 158.5-62T560 263q0-67-20-118.5t-56.5-86Q447 24 394.5 6T276-12q-78 0-130.5 18T64 42v548h-77zm319-298q-14 0-31-5t-32.5-14q-15.5-9-29-22.5T194 330V122q16-8 44-16t60-8q26 0 49.5 9.5t41 29.5q17.5 20 27.5 50t10 72q0 71-30.5 107T306 402zm37 318h158L364 566h-80z"/><glyph unicode="" horiz-adv-x="600" d="M84 700h444V578H221V405h285V283H221V0H84zm246 170h159v-30l-160-88H226z"/><glyph unicode="" horiz-adv-x="600" d="M71 0v110h118v280H70v110h119v28q0 47 16.5 81t43.5 56q27 22 62.5 32.5T385 708q69 0 113.5-11.5T572 668l-38-99q-23 11-49.5 20t-68.5 9q-54 0-75.5-24.5T319 500h210V390H319V110h211V0zm344 870h159v-30l-160-88H311z"/><glyph unicode="" horiz-adv-x="600" d="M11 607h77v93h137v-93h221v-93H225v-96q26 15 69.5 27.5T398 458q42 0 76.5-10.5t60-34q25.5-23.5 39.5-60t14-88.5V0H451v222q0 60-23.5 89.5T350 341q-38 0-71.5-8.5T225 307V0H88v514H11z"/><glyph unicode="" horiz-adv-x="600" d="M415 0v284q0 61-26 88t-68 27q-37 0-68-22.5T209 319V0H79v561H5v80h74v59h130v-59h161v-80H209V444h4q24 32 64 51t94 19q38 0 70-10t55-33q23-23 36-62.5t13-97.5V0z"/><glyph unicode="" horiz-adv-x="600" d="M187 700V478q0-60 23.5-89.5T288 359q38 0 71.5 8.5T413 393v307h137V-21q0-91-38.5-139T393-208q-15 0-31.5 1.5T328-201v109q4 0 7.5-.5t7.5-.5q43 0 56.5 24.5T413 0v282q-26-15-69.5-27.5T240 242q-42 0-76.5 10.5t-60 34Q78 310 64 346.5T50 435v265z"/><glyph unicode="" horiz-adv-x="600" d="M190 500V386q0-62 20-90t79-28q11 0 26.5 2t31 5q15.5 3 28.5 7.5t20 9.5v208h130V-21q0-91-36-139t-115-48q-30 0-64 7v109q4 0 7.5-.5t7.5-.5q43 0 56.5 24.5T395 0v196q-8-5-24-11.5T333.5 172q-21.5-6-46.5-10t-51-4q-37 0-69 8t-56 28q-24 20-37.5 53T60 330v170z"/><glyph unicode="" horiz-adv-x="600" d="M297 332h48l99 368h141L425 183q-14-44-30.5-79.5t-40-60Q331 19 298 6T218-7q-29 0-52 5t-50 21l35 111q18-9 31.5-12t29.5-3q22 0 37 6t24.5 18q9.5 12 16.5 30t13 41H202L6 700h147zm17 538h159v-30l-160-88H210z"/><glyph unicode="" horiz-adv-x="600" d="M301 141h38l97 359h134L428 49Q409-7 391-53.5T349-134q-24-34-56.5-52.5T213-205q-23 0-43.5 6T132-184.5q-17 8.5-30 18T81-149l67 89q13-11 31-20.5t34-9.5q30 0 47.5 21T294 0h-71L15 500h141zm21 579h158L343 566h-80z"/><glyph unicode="" horiz-adv-x="600" d="M46 235h110V112q35-8 74-8 40 0 74 12.5t60 38.5q24 24 39 60.5t19 84.5H212v110h209q-5 42-20 77.5T362 546q-28 26-57.5 38T230 596q-21 0-35.5-4t-28.5-8V473H56v199q32 18 83.5 30T243 714q60 0 112.5-17.5T450 641q48-43 78-114t30-177q0-100-29-170.5T449 64Q403 22 344 4T222-14q-57 0-103 11T46 19zm99 574q0 27 23 46t70 19q46 0 71-19t25-46q0-29-25-48t-71-19q-47 0-70 19t-23 48z"/><glyph unicode="" horiz-adv-x="600" d="M224 302h196q-5 50-47.5 76T264 404q-54 0-97-16l-6-2v-86H51v148q16 11 38 23t51 21.5q29 9.5 65.5 15.5t83.5 6q55 0 103-17t83.5-50q35.5-33 55.5-82.5T551 250q0-66-20.5-115.5t-57-82.5Q437 19 387 2.5T279-14q-86 0-145 21T42 54l55 93q26-20 65.5-35.5T258 96q32 0 60.5 6t50.5 18.5q22 12.5 36 32.5t16 49H224zm-49 334q0 31 23 53t64 22q42 0 67-22t25-53q0-32-25-52.5T262 563q-41 0-64 20.5T175 636z"/><glyph unicode="" horiz-adv-x="600" d="M51 235h110V123q3-1 5-2 22-7 46.5-12t53.5-5q24 0 46.5 6t40.5 19q18 13 28.5 33t10.5 48q0 31-12.5 50.5t-33.5 30Q325 301 298.5 305t-53.5 5h-30v107h29q21 0 43.5 4t40.5 14q18 10 30 27.5t12 44.5q0 23-9 39.5t-25 27Q320 584 299 589t-46 5q-47 0-82-10V481H61v190q37 16 95.5 28.5T280 712q44 0 86-8.5t75-29q33-20.5 53-55t20-86.5q0-52-27.5-94T398 377v-5q66-17 102-57t36-112q0-57-23-98t-60.5-67.5Q415 11 366-1q-18-5-35-8v-166H208v164q-34 2-64 9Q89 9 51 27z"/><glyph unicode="" horiz-adv-x="600" d="M80 457q15 9 38 18t52.5 16.5Q200 499 234 504t71 5q117 0 169-32t52-93q0-17-5-36t-17-36q-12-17-30.5-30T428 264v-4q58-5 87.5-37t29.5-83q0-32-14-59.5T487.5 33Q458 13 413 1q-28-7-63-10v-166H240V-7l-15 2q-38 6-70 16.5T97.5 35Q72 48 56 62l50 96q15-12 36-22.5t45.5-18.5q24.5-8 51-13t52.5-5q53 0 88.5 15t35.5 43q0 26-33.5 36T284 203h-29v91h41q51 0 75.5 16t24.5 39q0 27-28.5 38.5T288 399q-28 0-57-5-22-3-42-8v-86H80z"/><glyph unicode="" horiz-adv-x="600" d="M444 235h110V35q-32-23-82-36-27-7-55-10l-17-32q41-4 64.5-21.5T488-118q0-23-11.5-40T445-186.5Q425-198 398-204t-58-6q-31 0-64 6l9 48q7-1 13-1h11q38 0 49 9t11 21q0 28-86 32l49 83q-45 4-87 17-59 20-104 63.5t-72 113Q42 251 42 350q0 103 30.5 172.5t78.5 112q48 42.5 107 61T374 714q60 0 101.5-10t68.5-23V473H434v114q-31 5-64 5-39 0-72.5-14.5T239 533q-25-30-39-75.5T186 350q0-54 13-98.5t38-76.5q25-32 61-49.5t82-17.5q33 0 64 6z"/><glyph unicode="" horiz-adv-x="600" d="M546 48q-41-31-96-47-37-10-75-13l-17-31q41-4 64.5-21.5T446-118q0-23-11.5-40T403-186.5Q383-198 356-204t-58-6q-31 0-64 6l9 48q7-1 13-1h11q38 0 49 9t11 21q0 28-86 32l50 83q-39 5-72 17-50 19-84.5 53.5T82 142q-18 49-18 108 0 63 21 112t58.5 83q37.5 34 88.5 51.5T343 514q56 0 105-13t75-25V300H413v92q-31 7-62 7-28 0-55.5-8.5t-49-27Q225 345 211.5 317T198 250q0-32 11-59t31-47q20-20 49.5-31.5T355 101q57 0 93.5 16t54.5 28z"/><glyph unicode="" horiz-adv-x="600" d="M400 155H191L143 0H6l226 700h137L594 0H450zM223 265h150l-71 234h-9zm-94 591h343v-89H129z"/><glyph unicode="" horiz-adv-x="600" d="M90 466q40 18 92.5 31T307 510q52 0 88.5-12.5t59-35.5q22.5-23 32.5-55t10-72q0-51-3.5-87t-3.5-64q0-21 2-47 2-14 3-27h65V0H394l-13 68h-5q-20-31-57-53.5T219-8q-75 0-119 40T56 138q0 42 15.5 72.5t45 50q29.5 19.5 71 29T280 299q18 0 38-2t49-4q2 10 2 20v19q0 38-22 54.5T282 403q-51 0-92-13t-69-26zM261 99q48 0 72 17.5t35 37.5v60q-10 2-30 4.5t-43 2.5q-19 0-38-3.5t-34-11q-15-7.5-24-19.5t-9-29q0-28 16.5-43.5T261 99zM135 658h323v-92H135z"/><glyph unicode="" horiz-adv-x="600" d="M70 700h459V578H207V415h297V293H207V122h327V0H70zm66 156h343v-89H136z"/><glyph unicode="" horiz-adv-x="600" d="M534 53q-13-12-33.5-23.5T452.5 8Q425-2 392-8t-70-6q-64 0-114.5 18T122 56.5q-35 34.5-53.5 83T50 250q0 66 21 115.5t57.5 82.5q36.5 33 85.5 49.5T320 514q38 0 78.5-10t74.5-34.5q34-24.5 55.5-65.5T550 300q0-43-10-93H180q1-32 13.5-54t33-36q20.5-14 47-20.5T330 90q60 0 98.5 14t62.5 34zM318 410q-26 0-49-7t-41.5-20.5Q209 369 197 349t-14-45h246q0 49-27.5 77.5T318 410zM156 658h323v-92H156z"/><glyph unicode="" horiz-adv-x="600" d="M70 700h459V578H207V415h297V293H207V122h327V0H70zm27 78q0 20 18.5 33t60.5 13q42 0 61-13t19-33q0-21-19-33.5T176 732q-42 0-60.5 12.5T97 778zm244 0q0 20 19 33t61 13q42 0 60.5-13t18.5-33q0-21-18.5-33.5T421 732q-42 0-61 12.5T341 778zM129 945h343v-89H129z"/><glyph unicode="" horiz-adv-x="600" d="M534 53q-13-12-33.5-23.5T452.5 8Q425-2 392-8t-70-6q-64 0-114.5 18T122 56.5q-35 34.5-53.5 83T50 250q0 66 21 115.5t57.5 82.5q36.5 33 85.5 49.5T320 514q38 0 78.5-10t74.5-34.5q34-24.5 55.5-65.5T550 300q0-43-10-93H180q1-32 13.5-54t33-36q20.5-14 47-20.5T330 90q60 0 98.5 14t62.5 34zM318 410q-26 0-49-7t-41.5-20.5Q209 369 197 349t-14-45h246q0 49-27.5 77.5T318 410zM105 620q0 34 20.5 54.5T181 695q34 0 54-20.5t20-54.5q0-32-20-52.5T181 547q-35 0-55.5 20.5T105 620zm258 0q0 34 20 54.5t54 20.5q34 0 55-20.5t21-54.5q0-32-21-52.5T437 547q-34 0-54 20.5T363 620zM137 837h343v-89H137z"/><glyph unicode="" horiz-adv-x="600" d="M70 700h459V578H207V415h297V293H207V122h327V0H70zm161 232q2-14 22-22t51-8q65 0 73 29l110-11q-11-42-57-60.5T303 841q-40 0-74 3.5T169.5 857q-25.5 9-41.5 24t-20 38zM97 778q0 21 18.5 33.5T176 824q42 0 61-12.5t19-33.5q0-21-19-33.5T176 732q-42 0-60.5 12.5T97 778zm244 0q0 21 19 33.5t61 12.5q42 0 61-12.5t19-33.5q0-21-19-33.5T421 732q-42 0-61 12.5T341 778z"/><glyph unicode="" horiz-adv-x="600" d="M534 53q-13-12-33.5-23.5T452.5 8Q425-2 392-8t-70-6q-64 0-114.5 18T122 56.5q-35 34.5-53.5 83T50 250q0 66 21 115.5t57.5 82.5q36.5 33 85.5 49.5T320 514q38 0 78.5-10t74.5-34.5q34-24.5 55.5-65.5T550 300q0-43-10-93H180q1-32 13.5-54t33-36q20.5-14 47-20.5T330 90q60 0 98.5 14t62.5 34zM318 410q-26 0-49-7t-41.5-20.5Q209 369 197 349t-14-45h246q0 49-27.5 77.5T318 410zM105 626q0 34 20.5 54.5T181 701q34 0 54-20.5t20-54.5q0-32-20-52.5T181 553q-35 0-55.5 20.5T105 626zm258 0q0 34 20 54.5t54 20.5q34 0 55-20.5t21-54.5q0-32-21-52.5T437 553q-34 0-54 20.5T363 626zM243 870q4-32 23.5-46t50.5-14q67 0 74 59l111-17q-11-63-57.5-92T316 731q-41 0-75 6t-59.5 19.5Q156 770 139.5 793T119 850z"/><glyph unicode="" horiz-adv-x="600" d="M51 235h110V123q3-1 5-2 22-7 46.5-12t53.5-5q24 0 46.5 6t40.5 19q18 13 28.5 33t10.5 48q0 31-12.5 50.5t-33.5 30Q325 301 298.5 305t-53.5 5h-30v107h29q21 0 43.5 4t40.5 14q18 10 30 27.5t12 44.5q0 23-9 39.5t-25 27Q320 584 299 589t-46 5q-47 0-82-10V481H61v190q37 16 95.5 28.5T280 712q44 0 86-8.5t75-29q33-20.5 53-55t20-86.5q0-52-27.5-94T398 377v-5q66-17 102-57t36-112q0-57-23-98t-60.5-67.5Q415 11 366-1.5T266-14q-66 0-121.5 11.5T51 27zm277 502H226L71 870h141l68-61 73 61h136z"/><glyph unicode="" horiz-adv-x="600" d="M80 457q15 9 38 18t52.5 16.5Q200 499 234 504t71 5q117 0 169-32t52-93q0-17-5-36t-17-36q-12-17-30.5-30T428 264v-4q58-5 87.5-37t29.5-83q0-32-14-59.5T487.5 33Q458 13 413 1T305-11q-42 0-80 6t-70 16.5Q123 22 97.5 35T56 62l50 96q15-12 36-22.5t45.5-18.5q24.5-8 51-13t52.5-5q53 0 88.5 15t35.5 43q0 26-33.5 36T284 203h-29v91h41q51 0 75.5 16t24.5 39q0 27-28.5 38.5T288 399q-28 0-57-5-22-3-42-8v-86H80zm266 93h-91L140 732h110l56-94 62 94h101z"/><glyph unicode="" horiz-adv-x="600" d="M36 350q0 85 16 153t49 114.5q33 46.5 82.5 71.5T300 714q72 0 122-27t81.5-75q31.5-48 46-115T564 350q0-171-65.5-267.5T300-14q-72 0-122.5 27t-82 75Q64 136 50 203T36 350zm144 0q0-51 4.5-95t17-76.5q12.5-32.5 36-51.5t62.5-19q35 0 58 14.5t37 44.5q14 30 19.5 75.5T420 350q0 49-3.5 93t-16 77Q388 553 364 572.5T300 592q-70 0-95-61t-25-181zm-51 506h343v-89H129z"/><glyph unicode="" horiz-adv-x="600" d="M35 250q0 63 19 112t54 83q35 34 83.5 51.5T300 514q63 0 112.5-19t83.5-53.5q34-34.5 51.5-83.5T565 250q0-63-19-112t-54-83q-35-34-83.5-51.5T300-14q-63 0-112.5 19T104 58.5Q70 93 52.5 142T35 250zm134 0q0-33 9-61t26-49q17-21 41-32.5T300 96q58 0 94.5 37T431 250q0 69-34 111.5T300 404q-28 0-52-8.5T206.5 368Q189 349 179 320t-10-70zm-30 408h323v-92H139z"/><glyph unicode="" horiz-adv-x="600" d="M36 350q0 85 16 153t49 114.5q33 46.5 82.5 71.5T300 714q72 0 122-27t81.5-75q31.5-48 46-115T564 350q0-171-65.5-267.5T300-14q-72 0-122.5 27t-82 75Q64 136 50 203T36 350zm144 0q0-51 4.5-95t17-76.5q12.5-32.5 36-51.5t62.5-19q35 0 58 14.5t37 44.5q14 30 19.5 75.5T420 350q0 49-3.5 93t-16 77Q388 553 364 572.5T300 592q-70 0-95-61t-25-181zm53 534q4-32 23.5-46t50.5-14q67 0 74 59l111-17q-11-63-57.5-92T306 745q-41 0-75 6t-59.5 19.5Q146 784 129.5 807T109 864z"/><glyph unicode="" horiz-adv-x="600" d="M35 250q0 63 19 112t54 83q35 34 83.5 51.5T300 514q63 0 112.5-19t83.5-53.5q34-34.5 51.5-83.5T565 250q0-63-19-112t-54-83q-35-34-83.5-51.5T300-14q-63 0-112.5 19T104 58.5Q70 93 52.5 142T35 250zm134 0q0-33 9-61t26-49q17-21 41-32.5T300 96q58 0 94.5 37T431 250q0 69-34 111.5T300 404q-28 0-52-8.5T206.5 368Q189 349 179 320t-10-70zm70 454q7-39 23.5-55t42.5-16q28 0 44.5 16t22.5 54l99-25q-12-65-59-96.5T302 550q-31 0-60 7t-52 22.5Q167 595 151 619t-22 59z"/><glyph unicode="" horiz-adv-x="600" d="M36 350q0 85 16 153t49 114.5q33 46.5 82.5 71.5T300 714q72 0 122-27t81.5-75q31.5-48 46-115T564 350q0-171-65.5-267.5T300-14q-72 0-122.5 27t-82 75Q64 136 50 203T36 350zm264-242q62 0 87.5 46T418 297H181q2-41 8-75.5t19.5-60q13.5-25.5 36-39.5t55.5-14zm0 484q-62 0-88-46.5T181 407h238q-2 39-8 73t-19 58.5q-13 24.5-35.5 39T300 592zm-67 292q4-32 23.5-46t50.5-14q67 0 74 59l111-17q-11-63-57.5-92T306 745q-41 0-75 6t-59.5 19.5Q146 784 129.5 807T109 864z"/><glyph unicode="" horiz-adv-x="600" d="M35 250q0 63 19 112t54 83q35 34 83.5 51.5T300 514q63 0 112.5-19t83.5-53.5q34-34.5 51.5-83.5T565 250q0-63-19-112t-54-83q-35-34-83.5-51.5T300-14q-63 0-112.5 19T104 58.5Q70 93 52.5 142T35 250zm265 154q-50 0-85-27t-44-88h257q-9 53-41.5 84T300 404zm0-308q49 0 83 26.5t44 84.5H173q11-50 43.5-80.5T300 96zm-61 608q7-39 23.5-55t42.5-16q28 0 44.5 16t22.5 54l99-25q-12-65-59-96.5T302 550q-31 0-60 7t-52 22.5Q167 595 151 619t-22 59z"/><glyph unicode="" horiz-adv-x="600" d="M36 350q0 85 16 153t49 114.5q33 46.5 82.5 71.5T300 714q72 0 122-27t81.5-75q31.5-48 46-115T564 350q0-171-65.5-267.5T300-14q-72 0-122.5 27t-82 75Q64 136 50 203T36 350zm264-242q62 0 87.5 46T418 297H181q2-41 8-75.5t19.5-60q13.5-25.5 36-39.5t55.5-14zm0 484q-62 0-88-46.5T181 407h238q-2 39-8 73t-19 58.5q-13 24.5-35.5 39T300 592zm-69 340q2-14 22-22t51-8q65 0 73 29l110-11q-11-42-57-60.5T303 841q-40 0-74 3.5T169.5 857q-25.5 9-41.5 24t-20 38zM97 778q0 21 18.5 33.5T176 824q42 0 61-12.5t19-33.5q0-21-19-33.5T176 732q-42 0-60.5 12.5T97 778zm244 0q0 21 19 33.5t61 12.5q42 0 61-12.5t19-33.5q0-21-19-33.5T421 732q-42 0-61 12.5T341 778z"/><glyph unicode="" horiz-adv-x="600" d="M35 250q0 63 19 112t54 83q35 34 83.5 51.5T300 514q63 0 112.5-19t83.5-53.5q34-34.5 51.5-83.5T565 250q0-63-19-112t-54-83q-35-34-83.5-51.5T300-14q-63 0-112.5 19T104 58.5Q70 93 52.5 142T35 250zm265 154q-50 0-85-27t-44-88h257q-9 53-41.5 84T300 404zm0-308q49 0 83 26.5t44 84.5H173q11-50 43.5-80.5T300 96zM96 626q0 34 20.5 54.5T172 701q34 0 54-20.5t20-54.5q0-32-20-52.5T172 553q-35 0-55.5 20.5T96 626zm258 0q0 34 20 54.5t54 20.5q34 0 55-20.5t21-54.5q0-32-21-52.5T428 553q-34 0-54 20.5T354 626zM233 870q4-32 23.5-46t50.5-14q67 0 74 59l111-17q-11-63-57.5-92T306 731q-41 0-75 6t-59.5 19.5Q146 770 129.5 793T109 850z"/><glyph unicode="" horiz-adv-x="600" d="M450 700h133V0H450zm-433 0h135V449q7 2 23 5t39 3q42 0 79.5-13.5T360 398q22-25 35.5-64.5T409 237q0-51-13.5-99.5T348 53q-28-29-73-46T173-10q-31 0-71 4T17 7zm176-588q35 0 58.5 27.5T275 229q0 32-7.5 52.5t-19 32.5q-11.5 12-26 16.5T195 335q-14 0-24.5-2t-18.5-4V117q12-3 19.5-4t21.5-1zm-64 744h343v-89H129z"/><glyph unicode="" horiz-adv-x="600" d="M156 109q15-3 25.5-4.5T203 103q71 0 71 68 0 65-68 65-23 0-50-7zm0 213q24 4 43.5 5.5T239 329q47 0 79-11.5t52-32.5q20-21 29-49.5t9-61.5q0-91-49.5-136T191-7q-57 0-94 2T26 0v500h130zm288 178h130V0H444zM139 658h323v-92H139z"/><glyph unicode="" horiz-adv-x="600" d="M46 235h110V112q35-8 74-8 40 0 74 12.5t60 38.5q24 24 39 60.5t19 84.5H212v110h209q-5 42-20 77.5T362 546q-28 26-57.5 38T230 596q-21 0-35.5-4t-28.5-8V473H56v199q32 18 83.5 30T243 714q60 0 112.5-17.5T450 641q48-43 78-114t30-177q0-100-29-170.5T449 64Q403 22 344 4T222-14q-57 0-103 11T46 19zm47 621h343v-89H93z"/><glyph unicode="" horiz-adv-x="600" d="M224 302h196q-5 50-47.5 76T264 404q-54 0-97-16l-6-2v-86H51v148q16 11 38 23t51 21.5q29 9.5 65.5 15.5t83.5 6q55 0 103-17t83.5-50q35.5-33 55.5-82.5T551 250q0-66-20.5-115.5t-57-82.5Q437 19 387 2.5T279-14q-86 0-145 21T42 54l55 93q26-20 65.5-35.5T258 96q32 0 60.5 6t50.5 18.5q22 12.5 36 32.5t16 49H224zM107 658h323v-92H107z"/><glyph unicode="" horiz-adv-x="600" d="M46 235h110V112q35-8 74-8 40 0 74 12.5t60 38.5q24 24 39 60.5t19 84.5H212v110h209q-5 42-20 77.5T362 546q-28 26-57.5 38T230 596q-21 0-35.5-4t-28.5-8V473H56v199q32 18 83.5 30T243 714q60 0 112.5-17.5T450 641q48-43 78-114t30-177q0-100-29-170.5T449 64Q403 22 344 4T222-14q-57 0-103 11T46 19zm147 649q4-32 23.5-46t50.5-14q67 0 74 59l111-17q-11-63-57.5-92T266 745q-41 0-75 6t-59.5 19.5Q106 784 89.5 807T69 864z"/><glyph unicode="" horiz-adv-x="600" d="M224 302h196q-5 50-47.5 76T264 404q-54 0-97-16l-6-2v-86H51v148q16 11 38 23t51 21.5q29 9.5 65.5 15.5t83.5 6q55 0 103-17t83.5-50q35.5-33 55.5-82.5T551 250q0-66-20.5-115.5t-57-82.5Q437 19 387 2.5T279-14q-86 0-145 21T42 54l55 93q26-20 65.5-35.5T258 96q32 0 60.5 6t50.5 18.5q22 12.5 36 32.5t16 49H224zm-13 402q7-39 23.5-55t42.5-16q28 0 44.5 16t22.5 54l99-25q-12-65-59-96.5T274 550q-31 0-60 7t-52 22.5Q139 595 123 619t-22 59z"/><glyph unicode="" horiz-adv-x="600" d="M556 24q-10-6-28-13T486.5-1.5q-23.5-5.5-51-9T380-14q-63 0-122 18T153 64q-50 45-79.5 115.5T44 350q0 106 30 177t78 114q42 38 95 55.5T359 714q52 0 101.5-9t81.5-27V479H432v109q-30 8-60 8-44 0-74-12t-58-38q-24-23-39-59t-20-77h237V300H180q4-48 20-84.5t40-60.5q26-26 61-38.5t75-12.5q39 0 70 8v123h110zM132 805q0 27 19 44t61 17q42 0 61-17t19-44q0-28-19-44t-61-16q-42 0-61 16t-19 44zm246 0q0 27 19 44t61 17q42 0 61-17t19-44q0-28-19-44t-61-16q-42 0-61 16t-19 44z"/><glyph unicode="" horiz-adv-x="600" d="M555 48q-41-31-96-46.5T344-14q-68 0-120.5 19t-88 53.5Q100 93 81.5 142T63 250q0 63 21 112t58.5 83q37.5 34 88.5 51.5T342 514q28 0 56.5-3.5t54-9.5q25.5-6 46-13t33.5-12V300H422v89q-15 4-30 6-22 4-42 4-28 0-55.5-8.5t-49-27Q224 345 210 317q-4-10-7-20h168v-98H205q2-4 3-8 12-27 33.5-47t52.5-31.5q31-11.5 70-11.5 57 0 93.5 16t54.5 28zM140 626q0 34 20.5 54.5T216 701q34 0 54-20.5t20-54.5q0-32-20-52.5T216 553q-35 0-55.5 20.5T140 626zm258 0q0 34 20 54.5t54 20.5q34 0 55-20.5t21-54.5q0-32-21-52.5T472 553q-34 0-54 20.5T398 626z"/><glyph unicode="" horiz-adv-x="600" d="M557 0H420v261h-68L202 0H43l176 285q-23 9-45.5 24.5T133 349q-18 24-29 57.5T93 485q0 67 31 112.5t75 72.5q39 24 83.5 32t103.5 8q17 0 39-1t45.5-3q23.5-2 46-5t40.5-8zM420 583q-10 2-22.5 3.5T368 588q-23 0-47-5.5T280 563q-16-12-29.5-34.5T237 479q0-26 10-46.5t27-35.5q18-16 47-23.5t58-7.5h41zM195 856h343v-89H195z"/><glyph unicode="" horiz-adv-x="600" d="M45 110h75l49 73q-52 18-76 57t-24 97q0 90 70.5 133.5T335 514q24 0 51-1.5t53.5-3.5q26.5-2 49.5-5t38-6V0H397v167H297L191 0H45zm352 154v134q-5 1-16 2.5t-23 2q-12 .5-23 1t-17 .5q-23 0-43.5-4.5t-36.5-14q-16-9.5-25.5-24T203 328q0-19 8.5-31t24-19.5Q251 270 273 267t48-3zM172 658h323v-92H172z"/><glyph unicode="" horiz-adv-x="600" d="M557 0H420v261h-68L202 0H43l176 285q-23 9-45.5 24.5T133 349q-18 24-29 57.5T93 485q0 67 31 112.5t75 72.5q39 24 83.5 32t103.5 8q17 0 39-1t45.5-3q23.5-2 46-5t40.5-8zM420 583q-10 2-22.5 3.5T368 588q-23 0-47-5.5T280 563q-16-12-29.5-34.5T237 479q0-26 10-46.5t27-35.5q18-16 47-23.5t58-7.5h41zM281 884q4-32 23.5-46t50.5-14q67 0 74 59l111-17q-11-63-57.5-92T354 745q-41 0-75 6t-59.5 19.5Q194 784 177.5 807T157 864z"/><glyph unicode="" horiz-adv-x="600" d="M45 110h75l49 73q-52 18-76 57t-24 97q0 90 70.5 133.5T335 514q24 0 51-1.5t53.5-3.5q26.5-2 49.5-5t38-6V0H397v167H297L191 0H45zm352 154v134q-5 1-16 2.5t-23 2q-12 .5-23 1t-17 .5q-23 0-43.5-4.5t-36.5-14q-16-9.5-25.5-24T203 328q0-19 8.5-31t24-19.5Q251 270 273 267t48-3zM277 704q7-39 23.5-55t42.5-16q28 0 44.5 16t22.5 54l99-25q-12-65-59-96.5T340 550q-31 0-60 7t-52 22.5Q205 595 189 619t-22 59z"/><glyph unicode="" horiz-adv-x="600" d="M144 415h47q0 54 8 107.5t29.5 96q21.5 42.5 59.5 69t97 26.5q68 0 107-31.5t59-82.5q20-51 25.5-116.5T582 350q0-36-2-77.5t-9-82q-7-40.5-20.5-77.5T515 48q-22-28-54.5-45T382-14q-59 0-96 26.5t-58 70Q207 126 199.5 181T191 293h-47V0H17v700h127zm177-65q0-64 3-115.5t13-82.5q14-44 47-44 35 0 47 41 8 29 11.5 78t3.5 123q0 63-2 114.5T431 548q-14 44-48 44-36 0-49-47-8-29-10.5-77.5T321 350zM154 856h343v-89H154z"/><glyph unicode="" horiz-adv-x="600" d="M389-14q-49 0-81 15t-52 43q-20 28-30 68t-14 90h-46V0H46v500h120V312h47q5 48 16.5 86t32.5 63.5q21 25.5 52.5 39T391 514q53 0 87.5-19t54.5-53.5q20-34.5 28-83.5t8-108q0-63-9-112t-30-83q-21-34-55.5-51.5T389-14zm-63 264q0-73 13-113.5T389 96q31 0 43.5 34T445 250q0 78-11.5 116T386 404q-31 0-45.5-35T326 250zM158 658h323v-92H158z"/><glyph unicode="" horiz-adv-x="600" d="M144 415h47q0 54 8 107.5t29.5 96q21.5 42.5 59.5 69t97 26.5q68 0 107-31.5t59-82.5q20-51 25.5-116.5T582 350q0-36-2-77.5t-9-82q-7-40.5-20.5-77.5T515 48q-22-28-54.5-45T382-14q-59 0-96 26.5t-58 70Q207 126 199.5 181T191 293h-47V0H17v700h127zm177-65q0-64 3-115.5t13-82.5q14-44 47-44 35 0 47 41 8 29 11.5 78t3.5 123q0 63-2 114.5T431 548q-14 44-48 44-36 0-49-47-8-29-10.5-77.5T321 350zM208 884q4-32 23.5-46t50.5-14q67 0 74 59l111-17q-11-63-57.5-92T281 745q-41 0-75 6t-59.5 19.5Q121 784 104.5 807T84 864z"/><glyph unicode="" horiz-adv-x="600" d="M389-14q-49 0-81 15t-52 43q-20 28-30 68t-14 90h-46V0H46v500h120V312h47q5 48 16.5 86t32.5 63.5q21 25.5 52.5 39T391 514q53 0 87.5-19t54.5-53.5q20-34.5 28-83.5t8-108q0-63-9-112t-30-83q-21-34-55.5-51.5T389-14zm-63 264q0-73 13-113.5T389 96q31 0 43.5 34T445 250q0 78-11.5 116T386 404q-31 0-45.5-35T326 250zm-67 454q7-39 23.5-55t42.5-16q28 0 44.5 16t22.5 54l99-25q-12-65-59-96.5T322 550q-31 0-60 7t-52 22.5Q187 595 171 619t-22 59z"/><glyph unicode="" horiz-adv-x="600" d="M238 874q4-32 23.5-46t50.5-14q67 0 74 59l111-17q-11-63-57.5-92T311 735q-41 0-75 6t-59.5 19.5Q151 774 134.5 797T114 854zm175-504l8 91h-5l-41-94L177 0H50v700h137V337l-10-94h6l43 97 198 360h126V-21q0-90-34-139t-116-49q-16 0-33.5 2t-37.5 6v108q4 0 7.5-.5t7.5-.5q43 0 56 24.5T413 0z"/><glyph unicode="" horiz-adv-x="600" d="M405 228l5 71h-3L166 0H64v500h130V262l-6-68h4l241 306h102V-21q0-91-36-139t-115-48q-30 0-64 7v109q4 0 7.5-.5t7.5-.5q22 0 35.5 6t21 18Q399-57 402-39.5T405 0zM239 704q7-39 23.5-55t42.5-16q28 0 44.5 16t22.5 54l99-25q-12-65-59-96.5T302 550q-31 0-60 7t-52 22.5Q167 595 151 619t-22 59z"/><glyph unicode="" horiz-adv-x="600" d="M36 350q0 85 16 153t49 114.5q33 46.5 82.5 71.5T300 714q72 0 122-27t81.5-75q31.5-48 46-115T564 350q0-171-65.5-267.5T300-14q-72 0-122.5 27t-82 75Q64 136 50 203T36 350zm144 0q0-51 4.5-95t17-76.5q12.5-32.5 36-51.5t62.5-19q35 0 58 14.5t37 44.5q14 30 19.5 75.5T420 350q0 49-3.5 93t-16 77Q388 553 364 572.5T300 592q-70 0-95-61t-25-181zm27 459q0 27 23 46t70 19q46 0 71-19t25-46q0-29-25-48t-71-19q-47 0-70 19t-23 48z"/><glyph unicode="" horiz-adv-x="600" d="M35 250q0 63 19 112t54 83q35 34 83.5 51.5T300 514q63 0 112.5-19t83.5-53.5q34-34.5 51.5-83.5T565 250q0-63-19-112t-54-83q-35-34-83.5-51.5T300-14q-63 0-112.5 19T104 58.5Q70 93 52.5 142T35 250zm134 0q0-33 9-61t26-49q17-21 41-32.5T300 96q58 0 94.5 37T431 250q0 69-34 111.5T300 404q-28 0-52-8.5T206.5 368Q189 349 179 320t-10-70zm42 386q0 31 23 53t64 22q42 0 67-22t25-53q0-32-25-52.5T298 563q-41 0-64 20.5T211 636z"/><glyph unicode="" horiz-adv-x="600" d="M450 700h133V0H450zm-433 0h135V449q7 2 23 5t39 3q42 0 79.5-13.5T360 398q22-25 35.5-64.5T409 237q0-51-13.5-99.5T348 53q-28-29-73-46T173-10q-31 0-71 4T17 7zm176-588q35 0 58.5 27.5T275 229q0 32-7.5 52.5t-19 32.5q-11.5 12-26 16.5T195 335q-14 0-24.5-2t-18.5-4V117q12-3 19.5-4t21.5-1zm40 772q4-32 23.5-46t50.5-14q67 0 74 59l111-17q-11-63-57.5-92T306 745q-41 0-75 6t-59.5 19.5Q146 784 129.5 807T109 864z"/><glyph unicode="" horiz-adv-x="600" d="M156 109q15-3 25.5-4.5T203 103q71 0 71 68 0 65-68 65-23 0-50-7zm0 213q24 4 43.5 5.5T239 329q47 0 79-11.5t52-32.5q20-21 29-49.5t9-61.5q0-91-49.5-136T191-7q-57 0-94 2T26 0v500h130zm288 178h130V0H444zM239 704q7-39 23.5-55t42.5-16q28 0 44.5 16t22.5 54l99-25q-12-65-59-96.5T302 550q-31 0-60 7t-52 22.5Q167 595 151 619t-22 59z"/><glyph unicode="" horiz-adv-x="600" d="M549 481H439v96q-7 1-13 3-42 10-86 10-55 0-88-22t-33-60q0-31 17-49t43.5-27.5q26.5-9.5 58.5-12t62-2.5h18V310h-21q-26 0-61-1.5t-66.5-11q-31.5-9.5-54-30T193 209q0-52 42.5-76.5T347 108q29 0 55 5 20 4 37 9v113h110V42q-14-8-35.5-17.5t-51-18Q433-2 396.5-8T316-14q-60 0-109 12.5t-84 38q-35 25.5-54.5 65T49 195q0 36 11 65.5T90.5 312q19.5 22 44.5 36.5t54 21.5v5Q75 418 75 523q0 48 20 84t54 59q34 23 79.5 34.5T326 712q59 0 111-8t112-35zM128 805q0 27 19 44t61 17q42 0 61-17t19-44q0-28-19-44t-61-16q-42 0-61 16t-19 44zm246 0q0 27 19 44t61 17q42 0 61-17t19-44q0-28-19-44t-61-16q-42 0-61 16t-19 44z"/></font>
</defs>
</svg>
